%TF.GenerationSoftware,KiCad,Pcbnew,7.0.5*%
%TF.CreationDate,2024-01-10T23:57:27+08:00*%
%TF.ProjectId,4th,3474682e-6b69-4636-9164-5f7063625858,rev?*%
%TF.SameCoordinates,Original*%
%TF.FileFunction,Copper,L1,Top*%
%TF.FilePolarity,Positive*%
%FSLAX46Y46*%
G04 Gerber Fmt 4.6, Leading zero omitted, Abs format (unit mm)*
G04 Created by KiCad (PCBNEW 7.0.5) date 2024-01-10 23:57:27*
%MOMM*%
%LPD*%
G01*
G04 APERTURE LIST*
%TA.AperFunction,ComponentPad*%
%ADD10C,1.700000*%
%TD*%
%TA.AperFunction,ComponentPad*%
%ADD11O,1.700000X1.700000*%
%TD*%
%TA.AperFunction,SMDPad,CuDef*%
%ADD12C,1.300000*%
%TD*%
%TA.AperFunction,ComponentPad*%
%ADD13C,1.752600*%
%TD*%
%TA.AperFunction,ViaPad*%
%ADD14C,0.800000*%
%TD*%
%TA.AperFunction,Conductor*%
%ADD15C,0.350000*%
%TD*%
G04 APERTURE END LIST*
D10*
%TO.P,J18,1,Pin_1*%
%TO.N,Net-(J18-Pin_1)*%
X110520000Y-64090000D03*
D11*
%TO.P,J18,2,Pin_2*%
%TO.N,Net-(J18-Pin_2)*%
X110520000Y-66630000D03*
%TO.P,J18,3,Pin_3*%
%TO.N,Net-(J18-Pin_3)*%
X110520000Y-69170000D03*
%TD*%
D10*
%TO.P,J13,1,Pin_1*%
%TO.N,VCC*%
X54940000Y-67270000D03*
D11*
%TO.P,J13,2,Pin_2*%
%TO.N,Data2*%
X57480000Y-67270000D03*
%TO.P,J13,3,Pin_3*%
%TO.N,GND*%
X60020000Y-67270000D03*
%TD*%
D10*
%TO.P,J23,1,Pin_1*%
%TO.N,Net-(J18-Pin_1)*%
X117030000Y-69170000D03*
D11*
%TO.P,J23,2,Pin_2*%
%TO.N,Net-(J18-Pin_2)*%
X117030000Y-71710000D03*
%TO.P,J23,3,Pin_3*%
%TO.N,Net-(J18-Pin_3)*%
X117030000Y-74250000D03*
%TD*%
D12*
%TO.P,H19,*%
%TO.N,*%
X26650236Y-91080000D03*
%TD*%
D10*
%TO.P,J19,1,Pin_1*%
%TO.N,GND*%
X66600000Y-65510000D03*
D11*
%TO.P,J19,2,Pin_2*%
%TO.N,VCC*%
X66600000Y-62970000D03*
%TO.P,J19,3,Pin_3*%
%TO.N,SCL*%
X66600000Y-60430000D03*
%TO.P,J19,4,Pin_4*%
%TO.N,SDA*%
X66600000Y-57890000D03*
%TD*%
D10*
%TO.P,J16,1,Pin_1*%
%TO.N,col0*%
X54950000Y-40550000D03*
D11*
%TO.P,J16,2,Pin_2*%
%TO.N,col1*%
X57490000Y-40550000D03*
D10*
%TO.P,J16,3,Pin_3*%
%TO.N,col2*%
X60030000Y-40550000D03*
%TO.P,J16,4,Pin_4*%
%TO.N,col3*%
X62570000Y-40550000D03*
%TO.P,J16,5,Pin_5*%
%TO.N,col4*%
X65110000Y-40550000D03*
%TO.P,J16,6,Pin_6*%
%TO.N,col5*%
X67650000Y-40550000D03*
%TD*%
%TO.P,J21,1,Pin_1*%
%TO.N,GND*%
X62560000Y-65510000D03*
D11*
%TO.P,J21,2,Pin_2*%
%TO.N,VCC*%
X62560000Y-62970000D03*
%TO.P,J21,3,Pin_3*%
%TO.N,X*%
X62560000Y-60430000D03*
%TO.P,J21,4,Pin_4*%
%TO.N,Y*%
X62560000Y-57890000D03*
%TD*%
D10*
%TO.P,J9,1,Pin_1*%
%TO.N,col0*%
X54950000Y-45630000D03*
D11*
%TO.P,J9,2,Pin_2*%
%TO.N,col1*%
X57490000Y-45630000D03*
D10*
%TO.P,J9,3,Pin_3*%
%TO.N,col2*%
X60030000Y-45630000D03*
%TO.P,J9,4,Pin_4*%
%TO.N,col3*%
X62570000Y-45630000D03*
%TO.P,J9,5,Pin_5*%
%TO.N,col4*%
X65110000Y-45630000D03*
%TO.P,J9,6,Pin_6*%
%TO.N,col5*%
X67650000Y-45630000D03*
%TD*%
%TO.P,J4,1,Pin_1*%
%TO.N,Net-(J4-Pin_1)*%
X117030000Y-46310000D03*
D11*
%TO.P,J4,2,Pin_2*%
%TO.N,Net-(J4-Pin_2)*%
X117030000Y-48850000D03*
%TO.P,J4,3,Pin_3*%
%TO.N,Net-(J4-Pin_3)*%
X117030000Y-51390000D03*
%TO.P,J4,4,Pin_4*%
%TO.N,Net-(J4-Pin_4)*%
X117030000Y-53930000D03*
D10*
%TO.P,J4,5,Pin_5*%
%TO.N,Net-(J4-Pin_5)*%
X117030000Y-56470000D03*
%TO.P,J4,6,Pin_6*%
%TO.N,Net-(J4-Pin_6)*%
X117030000Y-59010000D03*
%TO.P,J4,7,Pin_7*%
%TO.N,Net-(J4-Pin_7)*%
X117030000Y-61550000D03*
%TO.P,J4,8,Pin_8*%
%TO.N,Net-(J4-Pin_8)*%
X117030000Y-64090000D03*
%TO.P,J4,9,Pin_9*%
%TO.N,Net-(J4-Pin_9)*%
X117030000Y-66630000D03*
%TD*%
%TO.P,J24,1,Pin_1*%
%TO.N,Net-(J20-Pin_1)*%
X95170000Y-64090000D03*
D11*
%TO.P,J24,2,Pin_2*%
%TO.N,Net-(J20-Pin_2)*%
X95170000Y-66630000D03*
%TO.P,J24,3,Pin_3*%
%TO.N,Net-(J20-Pin_3)*%
X95170000Y-69170000D03*
%TD*%
D10*
%TO.P,J6,1,Pin_1*%
%TO.N,Net-(J22-Pin_1)*%
X110950000Y-79650000D03*
D11*
%TO.P,J6,2,Pin_2*%
%TO.N,Net-(J22-Pin_2)*%
X108410000Y-79650000D03*
D10*
%TO.P,J6,3,Pin_3*%
%TO.N,Net-(J22-Pin_3)*%
X105870000Y-79650000D03*
%TO.P,J6,4,Pin_4*%
%TO.N,Net-(J22-Pin_4)*%
X103330000Y-79650000D03*
%TO.P,J6,5,Pin_5*%
%TO.N,Net-(J22-Pin_5)*%
X100790000Y-79650000D03*
%TD*%
D13*
%TO.P,U1,1,5V*%
%TO.N,Net-(J5-Pin_1)*%
X95170000Y-41230000D03*
%TO.P,U1,2,GND*%
%TO.N,Net-(J5-Pin_2)*%
X95170000Y-43770000D03*
%TO.P,U1,3,3V3*%
%TO.N,Net-(J5-Pin_3)*%
X95170000Y-46310000D03*
%TO.P,U1,4,GP29*%
%TO.N,Net-(J5-Pin_4)*%
X95170000Y-48850000D03*
%TO.P,U1,5,GP28*%
%TO.N,Net-(J5-Pin_5)*%
X95170000Y-51390000D03*
%TO.P,U1,6,GP27*%
%TO.N,Net-(J5-Pin_6)*%
X95170000Y-53930000D03*
%TO.P,U1,7,GP26*%
%TO.N,Net-(J5-Pin_7)*%
X95170000Y-56470000D03*
%TO.P,U1,8,GP15*%
%TO.N,Net-(J5-Pin_8)*%
X95170000Y-59010000D03*
%TO.P,U1,9,GP14*%
%TO.N,Net-(J5-Pin_9)*%
X95170000Y-61550000D03*
%TO.P,U1,10,GP0*%
%TO.N,Net-(J4-Pin_1)*%
X110520000Y-41230000D03*
%TO.P,U1,11,GP1*%
%TO.N,Net-(J4-Pin_2)*%
X110520000Y-43770000D03*
%TO.P,U1,12,GP2*%
%TO.N,Net-(J4-Pin_3)*%
X110520000Y-46310000D03*
%TO.P,U1,13,GP3*%
%TO.N,Net-(J4-Pin_4)*%
X110520000Y-48850000D03*
%TO.P,U1,14,GP4*%
%TO.N,Net-(J4-Pin_5)*%
X110520000Y-51390000D03*
%TO.P,U1,15,GP5*%
%TO.N,Net-(J4-Pin_6)*%
X110520000Y-53930000D03*
%TO.P,U1,16,GP6*%
%TO.N,Net-(J4-Pin_7)*%
X110520000Y-56470000D03*
%TO.P,U1,17,GP7*%
%TO.N,Net-(J4-Pin_8)*%
X110520000Y-59010000D03*
%TO.P,U1,18,GP8*%
%TO.N,Net-(J4-Pin_9)*%
X110520000Y-61550000D03*
%TO.P,U1,19,GP9*%
%TO.N,Net-(J22-Pin_1)*%
X107925000Y-61550000D03*
%TO.P,U1,20,GP10*%
%TO.N,Net-(J22-Pin_2)*%
X105385000Y-61550000D03*
%TO.P,U1,21,GP11*%
%TO.N,Net-(J22-Pin_3)*%
X102845000Y-61550000D03*
%TO.P,U1,22,GP12*%
%TO.N,Net-(J22-Pin_4)*%
X100305000Y-61550000D03*
%TO.P,U1,23,GP13*%
%TO.N,Net-(J22-Pin_5)*%
X97765000Y-61550000D03*
%TD*%
D10*
%TO.P,J1,1,Pin_1*%
%TO.N,VCC*%
X54940000Y-79020000D03*
D11*
%TO.P,J1,2,Pin_2*%
%TO.N,GND*%
X57480000Y-79020000D03*
%TD*%
D12*
%TO.P,H17,*%
%TO.N,*%
X116250000Y-28490000D03*
%TD*%
%TO.P,H16,*%
%TO.N,*%
X26650236Y-28490000D03*
%TD*%
D10*
%TO.P,J20,1,Pin_1*%
%TO.N,Net-(J20-Pin_1)*%
X114490000Y-69170000D03*
D11*
%TO.P,J20,2,Pin_2*%
%TO.N,Net-(J20-Pin_2)*%
X114490000Y-71710000D03*
%TO.P,J20,3,Pin_3*%
%TO.N,Net-(J20-Pin_3)*%
X114490000Y-74250000D03*
%TD*%
D10*
%TO.P,J14,1,Pin_1*%
%TO.N,Data2*%
X66600000Y-79020000D03*
D11*
%TO.P,J14,2,Pin_2*%
%TO.N,X*%
X66600000Y-76480000D03*
D10*
%TO.P,J14,3,Pin_3*%
%TO.N,Y*%
X66600000Y-73940000D03*
%TO.P,J14,4,Pin_4*%
%TO.N,SCL*%
X66600000Y-71400000D03*
%TO.P,J14,5,Pin_5*%
%TO.N,SDA*%
X66600000Y-68860000D03*
%TD*%
%TO.P,J12,1,Pin_1*%
%TO.N,row0*%
X54950000Y-52310000D03*
D11*
%TO.P,J12,2,Pin_2*%
%TO.N,row1*%
X57490000Y-52310000D03*
D10*
%TO.P,J12,3,Pin_3*%
%TO.N,row2*%
X60030000Y-52310000D03*
%TO.P,J12,4,Pin_4*%
%TO.N,row3*%
X62570000Y-52310000D03*
%TO.P,J12,5,Pin_5*%
%TO.N,row4*%
X65110000Y-52310000D03*
%TO.P,J12,6,Pin_6*%
%TO.N,row5*%
X67650000Y-52310000D03*
%TD*%
%TO.P,J8,1,Pin_1*%
%TO.N,Data*%
X62570000Y-79020000D03*
D11*
%TO.P,J8,2,Pin_2*%
%TO.N,A1*%
X62570000Y-76480000D03*
D10*
%TO.P,J8,3,Pin_3*%
%TO.N,B1*%
X62570000Y-73940000D03*
%TO.P,J8,4,Pin_4*%
%TO.N,A2*%
X62570000Y-71400000D03*
%TO.P,J8,5,Pin_5*%
%TO.N,B2*%
X62570000Y-68860000D03*
%TD*%
%TO.P,J2,1,Pin_1*%
%TO.N,VCC*%
X54940000Y-76480000D03*
D11*
%TO.P,J2,2,Pin_2*%
%TO.N,GND*%
X57480000Y-76480000D03*
%TD*%
D10*
%TO.P,J11,1,Pin_1*%
%TO.N,col0*%
X54950000Y-43090000D03*
D11*
%TO.P,J11,2,Pin_2*%
%TO.N,col1*%
X57490000Y-43090000D03*
D10*
%TO.P,J11,3,Pin_3*%
%TO.N,col2*%
X60030000Y-43090000D03*
%TO.P,J11,4,Pin_4*%
%TO.N,col3*%
X62570000Y-43090000D03*
%TO.P,J11,5,Pin_5*%
%TO.N,col4*%
X65110000Y-43090000D03*
%TO.P,J11,6,Pin_6*%
%TO.N,col5*%
X67650000Y-43090000D03*
%TD*%
%TO.P,J3,1,Pin_1*%
%TO.N,A2*%
X54940000Y-58990000D03*
D11*
%TO.P,J3,2,Pin_2*%
%TO.N,GND*%
X57480000Y-58990000D03*
%TO.P,J3,3,Pin_3*%
%TO.N,B2*%
X60020000Y-58990000D03*
%TD*%
D10*
%TO.P,J7,1,Pin_1*%
%TO.N,VCC*%
X54940000Y-71400000D03*
D11*
%TO.P,J7,2,Pin_2*%
%TO.N,Data*%
X57480000Y-71400000D03*
%TO.P,J7,3,Pin_3*%
%TO.N,GND*%
X60020000Y-71400000D03*
%TD*%
D10*
%TO.P,J5,1,Pin_1*%
%TO.N,Net-(J5-Pin_1)*%
X114490000Y-46310000D03*
D11*
%TO.P,J5,2,Pin_2*%
%TO.N,Net-(J5-Pin_2)*%
X114490000Y-48850000D03*
%TO.P,J5,3,Pin_3*%
%TO.N,Net-(J5-Pin_3)*%
X114490000Y-51390000D03*
%TO.P,J5,4,Pin_4*%
%TO.N,Net-(J5-Pin_4)*%
X114490000Y-53930000D03*
D10*
%TO.P,J5,5,Pin_5*%
%TO.N,Net-(J5-Pin_5)*%
X114490000Y-56470000D03*
%TO.P,J5,6,Pin_6*%
%TO.N,Net-(J5-Pin_6)*%
X114490000Y-59010000D03*
%TO.P,J5,7,Pin_7*%
%TO.N,Net-(J5-Pin_7)*%
X114490000Y-61550000D03*
%TO.P,J5,8,Pin_8*%
%TO.N,Net-(J5-Pin_8)*%
X114490000Y-64090000D03*
%TO.P,J5,9,Pin_9*%
%TO.N,Net-(J5-Pin_9)*%
X114490000Y-66630000D03*
%TD*%
%TO.P,J10,1,Pin_1*%
%TO.N,row0*%
X54950000Y-54850000D03*
D11*
%TO.P,J10,2,Pin_2*%
%TO.N,row1*%
X57490000Y-54850000D03*
D10*
%TO.P,J10,3,Pin_3*%
%TO.N,row2*%
X60030000Y-54850000D03*
%TO.P,J10,4,Pin_4*%
%TO.N,row3*%
X62570000Y-54850000D03*
%TO.P,J10,5,Pin_5*%
%TO.N,row4*%
X65110000Y-54850000D03*
%TO.P,J10,6,Pin_6*%
%TO.N,row5*%
X67650000Y-54850000D03*
%TD*%
%TO.P,J22,1,Pin_1*%
%TO.N,Net-(J22-Pin_1)*%
X38625236Y-51390000D03*
D11*
%TO.P,J22,2,Pin_2*%
%TO.N,Net-(J22-Pin_2)*%
X36085236Y-51390000D03*
D10*
%TO.P,J22,3,Pin_3*%
%TO.N,Net-(J22-Pin_3)*%
X33545236Y-51390000D03*
%TO.P,J22,4,Pin_4*%
%TO.N,Net-(J22-Pin_4)*%
X31005236Y-51390000D03*
%TO.P,J22,5,Pin_5*%
%TO.N,Net-(J22-Pin_5)*%
X28465236Y-51390000D03*
%TD*%
%TO.P,J15,1,Pin_1*%
%TO.N,A1*%
X54940000Y-63130000D03*
D11*
%TO.P,J15,2,Pin_2*%
%TO.N,GND*%
X57480000Y-63130000D03*
%TO.P,J15,3,Pin_3*%
%TO.N,B1*%
X60020000Y-63130000D03*
%TD*%
D10*
%TO.P,J17,1,Pin_1*%
%TO.N,row0*%
X54950000Y-49770000D03*
D11*
%TO.P,J17,2,Pin_2*%
%TO.N,row1*%
X57490000Y-49770000D03*
D10*
%TO.P,J17,3,Pin_3*%
%TO.N,row2*%
X60030000Y-49770000D03*
%TO.P,J17,4,Pin_4*%
%TO.N,row3*%
X62570000Y-49770000D03*
%TO.P,J17,5,Pin_5*%
%TO.N,row4*%
X65110000Y-49770000D03*
%TO.P,J17,6,Pin_6*%
%TO.N,row5*%
X67650000Y-49770000D03*
%TD*%
D12*
%TO.P,H18,*%
%TO.N,*%
X116250000Y-91080000D03*
%TD*%
D10*
%TO.P,J8,1,Pin_1*%
%TO.N,Data*%
X82870299Y-40549703D03*
D11*
%TO.P,J8,2,Pin_2*%
%TO.N,A1*%
X82870299Y-43089703D03*
D10*
%TO.P,J8,3,Pin_3*%
%TO.N,B1*%
X82870299Y-45629703D03*
%TO.P,J8,4,Pin_4*%
%TO.N,A2*%
X82870299Y-48169703D03*
%TO.P,J8,5,Pin_5*%
%TO.N,B2*%
X82870299Y-50709703D03*
%TD*%
D13*
%TO.P,U1,1,5V*%
%TO.N,Net-(J5-Pin_1)*%
X25870236Y-79330000D03*
%TO.P,U1,2,GND*%
%TO.N,Net-(J5-Pin_2)*%
X25870236Y-76790000D03*
%TO.P,U1,3,3V3*%
%TO.N,Net-(J5-Pin_3)*%
X25870236Y-74250000D03*
%TO.P,U1,4,GP29*%
%TO.N,Net-(J5-Pin_4)*%
X25870236Y-71710000D03*
%TO.P,U1,5,GP28*%
%TO.N,Net-(J5-Pin_5)*%
X25870236Y-69170000D03*
%TO.P,U1,6,GP27*%
%TO.N,Net-(J5-Pin_6)*%
X25870236Y-66630000D03*
%TO.P,U1,7,GP26*%
%TO.N,Net-(J5-Pin_7)*%
X25870236Y-64090000D03*
%TO.P,U1,8,GP15*%
%TO.N,Net-(J5-Pin_8)*%
X25870236Y-61550000D03*
%TO.P,U1,9,GP14*%
%TO.N,Net-(J5-Pin_9)*%
X25870236Y-59010000D03*
%TO.P,U1,10,GP0*%
%TO.N,Net-(J4-Pin_1)*%
X41220236Y-79330000D03*
%TO.P,U1,11,GP1*%
%TO.N,Net-(J4-Pin_2)*%
X41220236Y-76790000D03*
%TO.P,U1,12,GP2*%
%TO.N,Net-(J4-Pin_3)*%
X41220236Y-74250000D03*
%TO.P,U1,13,GP3*%
%TO.N,Net-(J4-Pin_4)*%
X41220236Y-71710000D03*
%TO.P,U1,14,GP4*%
%TO.N,Net-(J4-Pin_5)*%
X41220236Y-69170000D03*
%TO.P,U1,15,GP5*%
%TO.N,Net-(J4-Pin_6)*%
X41220236Y-66630000D03*
%TO.P,U1,16,GP6*%
%TO.N,Net-(J4-Pin_7)*%
X41220236Y-64090000D03*
%TO.P,U1,17,GP7*%
%TO.N,Net-(J4-Pin_8)*%
X41220236Y-61550000D03*
%TO.P,U1,18,GP8*%
%TO.N,Net-(J4-Pin_9)*%
X41220236Y-59010000D03*
%TO.P,U1,19,GP9*%
%TO.N,Net-(J22-Pin_1)*%
X38625236Y-59010000D03*
%TO.P,U1,20,GP10*%
%TO.N,Net-(J22-Pin_2)*%
X36085236Y-59010000D03*
%TO.P,U1,21,GP11*%
%TO.N,Net-(J22-Pin_3)*%
X33545236Y-59010000D03*
%TO.P,U1,22,GP12*%
%TO.N,Net-(J22-Pin_4)*%
X31005236Y-59010000D03*
%TO.P,U1,23,GP13*%
%TO.N,Net-(J22-Pin_5)*%
X28465236Y-59010000D03*
%TD*%
D10*
%TO.P,J17,1,Pin_1*%
%TO.N,row0*%
X75250299Y-69799703D03*
D11*
%TO.P,J17,2,Pin_2*%
%TO.N,row1*%
X77790299Y-69799703D03*
D10*
%TO.P,J17,3,Pin_3*%
%TO.N,row2*%
X80330299Y-69799703D03*
%TO.P,J17,4,Pin_4*%
%TO.N,row3*%
X82870299Y-69799703D03*
%TO.P,J17,5,Pin_5*%
%TO.N,row4*%
X85410299Y-69799703D03*
%TO.P,J17,6,Pin_6*%
%TO.N,row5*%
X87950299Y-69799703D03*
%TD*%
%TO.P,J2,1,Pin_1*%
%TO.N,VCC*%
X75240299Y-43089703D03*
D11*
%TO.P,J2,2,Pin_2*%
%TO.N,GND*%
X77780299Y-43089703D03*
%TD*%
D10*
%TO.P,J4,1,Pin_1*%
%TO.N,Net-(J4-Pin_1)*%
X47730236Y-74250000D03*
D11*
%TO.P,J4,2,Pin_2*%
%TO.N,Net-(J4-Pin_2)*%
X47730236Y-71710000D03*
%TO.P,J4,3,Pin_3*%
%TO.N,Net-(J4-Pin_3)*%
X47730236Y-69170000D03*
%TO.P,J4,4,Pin_4*%
%TO.N,Net-(J4-Pin_4)*%
X47730236Y-66630000D03*
D10*
%TO.P,J4,5,Pin_5*%
%TO.N,Net-(J4-Pin_5)*%
X47730236Y-64090000D03*
%TO.P,J4,6,Pin_6*%
%TO.N,Net-(J4-Pin_6)*%
X47730236Y-61550000D03*
%TO.P,J4,7,Pin_7*%
%TO.N,Net-(J4-Pin_7)*%
X47730236Y-59010000D03*
%TO.P,J4,8,Pin_8*%
%TO.N,Net-(J4-Pin_8)*%
X47730236Y-56470000D03*
%TO.P,J4,9,Pin_9*%
%TO.N,Net-(J4-Pin_9)*%
X47730236Y-53930000D03*
%TD*%
%TO.P,J14,1,Pin_1*%
%TO.N,Data2*%
X86900299Y-40549703D03*
D11*
%TO.P,J14,2,Pin_2*%
%TO.N,X*%
X86900299Y-43089703D03*
D10*
%TO.P,J14,3,Pin_3*%
%TO.N,Y*%
X86900299Y-45629703D03*
%TO.P,J14,4,Pin_4*%
%TO.N,SCL*%
X86900299Y-48169703D03*
%TO.P,J14,5,Pin_5*%
%TO.N,SDA*%
X86900299Y-50709703D03*
%TD*%
%TO.P,J7,1,Pin_1*%
%TO.N,VCC*%
X75240299Y-48169703D03*
D11*
%TO.P,J7,2,Pin_2*%
%TO.N,Data*%
X77780299Y-48169703D03*
%TO.P,J7,3,Pin_3*%
%TO.N,GND*%
X80320299Y-48169703D03*
%TD*%
D10*
%TO.P,J11,1,Pin_1*%
%TO.N,col0*%
X75250299Y-76479703D03*
D11*
%TO.P,J11,2,Pin_2*%
%TO.N,col1*%
X77790299Y-76479703D03*
D10*
%TO.P,J11,3,Pin_3*%
%TO.N,col2*%
X80330299Y-76479703D03*
%TO.P,J11,4,Pin_4*%
%TO.N,col3*%
X82870299Y-76479703D03*
%TO.P,J11,5,Pin_5*%
%TO.N,col4*%
X85410299Y-76479703D03*
%TO.P,J11,6,Pin_6*%
%TO.N,col5*%
X87950299Y-76479703D03*
%TD*%
%TO.P,J18,1,Pin_1*%
%TO.N,Net-(J18-Pin_1)*%
X41220236Y-56470000D03*
D11*
%TO.P,J18,2,Pin_2*%
%TO.N,Net-(J18-Pin_2)*%
X41220236Y-53930000D03*
%TO.P,J18,3,Pin_3*%
%TO.N,Net-(J18-Pin_3)*%
X41220236Y-51390000D03*
%TD*%
D10*
%TO.P,J24,1,Pin_1*%
%TO.N,Net-(J20-Pin_1)*%
X25870236Y-56470000D03*
D11*
%TO.P,J24,2,Pin_2*%
%TO.N,Net-(J20-Pin_2)*%
X25870236Y-53930000D03*
%TO.P,J24,3,Pin_3*%
%TO.N,Net-(J20-Pin_3)*%
X25870236Y-51390000D03*
%TD*%
D10*
%TO.P,J1,1,Pin_1*%
%TO.N,VCC*%
X75240299Y-40549703D03*
D11*
%TO.P,J1,2,Pin_2*%
%TO.N,GND*%
X77780299Y-40549703D03*
%TD*%
D10*
%TO.P,J3,1,Pin_1*%
%TO.N,A2*%
X75240299Y-60579703D03*
D11*
%TO.P,J3,2,Pin_2*%
%TO.N,GND*%
X77780299Y-60579703D03*
%TO.P,J3,3,Pin_3*%
%TO.N,B2*%
X80320299Y-60579703D03*
%TD*%
D10*
%TO.P,J10,1,Pin_1*%
%TO.N,row0*%
X75250299Y-64719703D03*
D11*
%TO.P,J10,2,Pin_2*%
%TO.N,row1*%
X77790299Y-64719703D03*
D10*
%TO.P,J10,3,Pin_3*%
%TO.N,row2*%
X80330299Y-64719703D03*
%TO.P,J10,4,Pin_4*%
%TO.N,row3*%
X82870299Y-64719703D03*
%TO.P,J10,5,Pin_5*%
%TO.N,row4*%
X85410299Y-64719703D03*
%TO.P,J10,6,Pin_6*%
%TO.N,row5*%
X87950299Y-64719703D03*
%TD*%
%TO.P,J13,1,Pin_1*%
%TO.N,VCC*%
X75240299Y-52299703D03*
D11*
%TO.P,J13,2,Pin_2*%
%TO.N,Data2*%
X77780299Y-52299703D03*
%TO.P,J13,3,Pin_3*%
%TO.N,GND*%
X80320299Y-52299703D03*
%TD*%
D10*
%TO.P,J19,1,Pin_1*%
%TO.N,GND*%
X86900299Y-54059703D03*
D11*
%TO.P,J19,2,Pin_2*%
%TO.N,VCC*%
X86900299Y-56599703D03*
%TO.P,J19,3,Pin_3*%
%TO.N,SCL*%
X86900299Y-59139703D03*
%TO.P,J19,4,Pin_4*%
%TO.N,SDA*%
X86900299Y-61679703D03*
%TD*%
D10*
%TO.P,J21,1,Pin_1*%
%TO.N,GND*%
X82860299Y-54059703D03*
D11*
%TO.P,J21,2,Pin_2*%
%TO.N,VCC*%
X82860299Y-56599703D03*
%TO.P,J21,3,Pin_3*%
%TO.N,X*%
X82860299Y-59139703D03*
%TO.P,J21,4,Pin_4*%
%TO.N,Y*%
X82860299Y-61679703D03*
%TD*%
D10*
%TO.P,J9,1,Pin_1*%
%TO.N,col0*%
X75250299Y-73939703D03*
D11*
%TO.P,J9,2,Pin_2*%
%TO.N,col1*%
X77790299Y-73939703D03*
D10*
%TO.P,J9,3,Pin_3*%
%TO.N,col2*%
X80330299Y-73939703D03*
%TO.P,J9,4,Pin_4*%
%TO.N,col3*%
X82870299Y-73939703D03*
%TO.P,J9,5,Pin_5*%
%TO.N,col4*%
X85410299Y-73939703D03*
%TO.P,J9,6,Pin_6*%
%TO.N,col5*%
X87950299Y-73939703D03*
%TD*%
%TO.P,J5,1,Pin_1*%
%TO.N,Net-(J5-Pin_1)*%
X45190236Y-74250000D03*
D11*
%TO.P,J5,2,Pin_2*%
%TO.N,Net-(J5-Pin_2)*%
X45190236Y-71710000D03*
%TO.P,J5,3,Pin_3*%
%TO.N,Net-(J5-Pin_3)*%
X45190236Y-69170000D03*
%TO.P,J5,4,Pin_4*%
%TO.N,Net-(J5-Pin_4)*%
X45190236Y-66630000D03*
D10*
%TO.P,J5,5,Pin_5*%
%TO.N,Net-(J5-Pin_5)*%
X45190236Y-64090000D03*
%TO.P,J5,6,Pin_6*%
%TO.N,Net-(J5-Pin_6)*%
X45190236Y-61550000D03*
%TO.P,J5,7,Pin_7*%
%TO.N,Net-(J5-Pin_7)*%
X45190236Y-59010000D03*
%TO.P,J5,8,Pin_8*%
%TO.N,Net-(J5-Pin_8)*%
X45190236Y-56470000D03*
%TO.P,J5,9,Pin_9*%
%TO.N,Net-(J5-Pin_9)*%
X45190236Y-53930000D03*
%TD*%
%TO.P,J22,1,Pin_1*%
%TO.N,Net-(J22-Pin_1)*%
X107925000Y-69170000D03*
D11*
%TO.P,J22,2,Pin_2*%
%TO.N,Net-(J22-Pin_2)*%
X105385000Y-69170000D03*
D10*
%TO.P,J22,3,Pin_3*%
%TO.N,Net-(J22-Pin_3)*%
X102845000Y-69170000D03*
%TO.P,J22,4,Pin_4*%
%TO.N,Net-(J22-Pin_4)*%
X100305000Y-69170000D03*
%TO.P,J22,5,Pin_5*%
%TO.N,Net-(J22-Pin_5)*%
X97765000Y-69170000D03*
%TD*%
%TO.P,J6,1,Pin_1*%
%TO.N,Net-(J22-Pin_1)*%
X41650236Y-40910000D03*
D11*
%TO.P,J6,2,Pin_2*%
%TO.N,Net-(J22-Pin_2)*%
X39110236Y-40910000D03*
D10*
%TO.P,J6,3,Pin_3*%
%TO.N,Net-(J22-Pin_3)*%
X36570236Y-40910000D03*
%TO.P,J6,4,Pin_4*%
%TO.N,Net-(J22-Pin_4)*%
X34030236Y-40910000D03*
%TO.P,J6,5,Pin_5*%
%TO.N,Net-(J22-Pin_5)*%
X31490236Y-40910000D03*
%TD*%
%TO.P,J15,1,Pin_1*%
%TO.N,A1*%
X75240299Y-56439703D03*
D11*
%TO.P,J15,2,Pin_2*%
%TO.N,GND*%
X77780299Y-56439703D03*
%TO.P,J15,3,Pin_3*%
%TO.N,B1*%
X80320299Y-56439703D03*
%TD*%
D10*
%TO.P,J16,1,Pin_1*%
%TO.N,col0*%
X75250299Y-79019703D03*
D11*
%TO.P,J16,2,Pin_2*%
%TO.N,col1*%
X77790299Y-79019703D03*
D10*
%TO.P,J16,3,Pin_3*%
%TO.N,col2*%
X80330299Y-79019703D03*
%TO.P,J16,4,Pin_4*%
%TO.N,col3*%
X82870299Y-79019703D03*
%TO.P,J16,5,Pin_5*%
%TO.N,col4*%
X85410299Y-79019703D03*
%TO.P,J16,6,Pin_6*%
%TO.N,col5*%
X87950299Y-79019703D03*
%TD*%
%TO.P,J12,1,Pin_1*%
%TO.N,row0*%
X75250299Y-67259703D03*
D11*
%TO.P,J12,2,Pin_2*%
%TO.N,row1*%
X77790299Y-67259703D03*
D10*
%TO.P,J12,3,Pin_3*%
%TO.N,row2*%
X80330299Y-67259703D03*
%TO.P,J12,4,Pin_4*%
%TO.N,row3*%
X82870299Y-67259703D03*
%TO.P,J12,5,Pin_5*%
%TO.N,row4*%
X85410299Y-67259703D03*
%TO.P,J12,6,Pin_6*%
%TO.N,row5*%
X87950299Y-67259703D03*
%TD*%
%TO.P,J23,1,Pin_1*%
%TO.N,Net-(J18-Pin_1)*%
X47730236Y-51390000D03*
D11*
%TO.P,J23,2,Pin_2*%
%TO.N,Net-(J18-Pin_2)*%
X47730236Y-48850000D03*
%TO.P,J23,3,Pin_3*%
%TO.N,Net-(J18-Pin_3)*%
X47730236Y-46310000D03*
%TD*%
D10*
%TO.P,J20,1,Pin_1*%
%TO.N,Net-(J20-Pin_1)*%
X45190236Y-51390000D03*
D11*
%TO.P,J20,2,Pin_2*%
%TO.N,Net-(J20-Pin_2)*%
X45190236Y-48850000D03*
%TO.P,J20,3,Pin_3*%
%TO.N,Net-(J20-Pin_3)*%
X45190236Y-46310000D03*
%TD*%
D14*
%TO.N,GND*%
X53870000Y-61030000D03*
X63330000Y-64240000D03*
X76510000Y-46190000D03*
X56210000Y-73360000D03*
X74170299Y-58539703D03*
X83630000Y-55330000D03*
%TO.N,VCC*%
X79050299Y-59809703D03*
X58750000Y-59760000D03*
%TO.N,A2*%
X58750000Y-62360000D03*
X79050299Y-57209703D03*
%TD*%
D15*
%TO.N,Net-(J4-Pin_1)*%
X114337000Y-45047000D02*
X115767000Y-45047000D01*
X110520000Y-41230000D02*
X114337000Y-45047000D01*
X115767000Y-45047000D02*
X117030000Y-46310000D01*
%TO.N,Net-(J4-Pin_2)*%
X112510000Y-46852000D02*
X113225000Y-47567000D01*
X110520000Y-43770000D02*
X112510000Y-45760000D01*
X113225000Y-47567000D02*
X115765000Y-47567000D01*
X117030000Y-48832000D02*
X117030000Y-48850000D01*
X115765000Y-47567000D02*
X117030000Y-48832000D01*
X112510000Y-45760000D02*
X112510000Y-46852000D01*
%TO.N,Net-(J4-Pin_3)*%
X110520000Y-46310000D02*
X112500000Y-48290000D01*
X113115000Y-50117000D02*
X115757000Y-50117000D01*
X112500000Y-48290000D02*
X112500000Y-49502000D01*
X112500000Y-49502000D02*
X113115000Y-50117000D01*
X115757000Y-50117000D02*
X117030000Y-51390000D01*
%TO.N,Net-(J4-Pin_4)*%
X113225000Y-52657000D02*
X115757000Y-52657000D01*
X110520000Y-48850000D02*
X112500000Y-50830000D01*
X115757000Y-52657000D02*
X117030000Y-53930000D01*
X112500000Y-51932000D02*
X113225000Y-52657000D01*
X112500000Y-50830000D02*
X112500000Y-51932000D01*
%TO.N,Net-(J4-Pin_5)*%
X115757000Y-55197000D02*
X117030000Y-56470000D01*
X113225000Y-55197000D02*
X115757000Y-55197000D01*
X112500000Y-53370000D02*
X112500000Y-54472000D01*
X110520000Y-51390000D02*
X112500000Y-53370000D01*
X112500000Y-54472000D02*
X113225000Y-55197000D01*
%TO.N,Net-(J4-Pin_6)*%
X112490000Y-57002000D02*
X113225000Y-57737000D01*
X110520000Y-53930000D02*
X112490000Y-55900000D01*
X115757000Y-57737000D02*
X117030000Y-59010000D01*
X113225000Y-57737000D02*
X115757000Y-57737000D01*
X112490000Y-55900000D02*
X112490000Y-57002000D01*
%TO.N,Net-(J4-Pin_7)*%
X112490000Y-59542000D02*
X113225000Y-60277000D01*
X115757000Y-60277000D02*
X117030000Y-61550000D01*
X110520000Y-56470000D02*
X112490000Y-58440000D01*
X112490000Y-58440000D02*
X112490000Y-59542000D01*
X113225000Y-60277000D02*
X115757000Y-60277000D01*
%TO.N,Net-(J4-Pin_8)*%
X112490000Y-60980000D02*
X112490000Y-62082000D01*
X115760000Y-62820000D02*
X117030000Y-64090000D01*
X110520000Y-59010000D02*
X112490000Y-60980000D01*
X113228000Y-62820000D02*
X115760000Y-62820000D01*
X112490000Y-62082000D02*
X113228000Y-62820000D01*
%TO.N,Net-(J4-Pin_9)*%
X110520000Y-61550000D02*
X112490000Y-63520000D01*
X112490000Y-63520000D02*
X112490000Y-64610000D01*
X112490000Y-64610000D02*
X113240000Y-65360000D01*
X113240000Y-65360000D02*
X115760000Y-65360000D01*
X115760000Y-65360000D02*
X117030000Y-66630000D01*
%TO.N,Net-(J5-Pin_1)*%
X30132872Y-71543000D02*
X27690236Y-73985636D01*
X38475418Y-71543000D02*
X30132872Y-71543000D01*
X40630236Y-75520000D02*
X39930236Y-74820000D01*
X43428054Y-74250000D02*
X42158054Y-75520000D01*
X27690236Y-77510000D02*
X25870236Y-79330000D01*
X27690236Y-73985636D02*
X27690236Y-77510000D01*
X45190236Y-74250000D02*
X43428054Y-74250000D01*
X39930236Y-74820000D02*
X39930236Y-72997818D01*
X42158054Y-75520000D02*
X40630236Y-75520000D01*
X39930236Y-72997818D02*
X38475418Y-71543000D01*
%TO.N,Net-(J5-Pin_2)*%
X42158054Y-72980000D02*
X40690236Y-72980000D01*
X27140236Y-73757818D02*
X27140236Y-75520000D01*
X29905054Y-70993000D02*
X27140236Y-73757818D01*
X43428054Y-71710000D02*
X42158054Y-72980000D01*
X38703236Y-70993000D02*
X29905054Y-70993000D01*
X27140236Y-75520000D02*
X25870236Y-76790000D01*
X40690236Y-72980000D02*
X38703236Y-70993000D01*
X45190236Y-71710000D02*
X43428054Y-71710000D01*
%TO.N,Net-(J5-Pin_3)*%
X29677236Y-70443000D02*
X25870236Y-74250000D01*
X45190236Y-69170000D02*
X43917236Y-70443000D01*
X43917236Y-70443000D02*
X29677236Y-70443000D01*
%TO.N,Net-(J5-Pin_4)*%
X45190236Y-66630000D02*
X43917236Y-67903000D01*
X43917236Y-67903000D02*
X29677236Y-67903000D01*
X29677236Y-67903000D02*
X25870236Y-71710000D01*
%TO.N,Net-(J5-Pin_5)*%
X43907236Y-65373000D02*
X29667236Y-65373000D01*
X29667236Y-65373000D02*
X25870236Y-69170000D01*
X45190236Y-64090000D02*
X43907236Y-65373000D01*
%TO.N,Net-(J5-Pin_6)*%
X43917236Y-62823000D02*
X29677236Y-62823000D01*
X29677236Y-62823000D02*
X25870236Y-66630000D01*
X45190236Y-61550000D02*
X43917236Y-62823000D01*
%TO.N,Net-(J5-Pin_7)*%
X43901536Y-60298700D02*
X40621536Y-60298700D01*
X27780236Y-62180000D02*
X25870236Y-64090000D01*
X38740236Y-62180000D02*
X27780236Y-62180000D01*
X40621536Y-60298700D02*
X38740236Y-62180000D01*
X45190236Y-59010000D02*
X43901536Y-60298700D01*
%TO.N,Net-(J5-Pin_8)*%
X43940236Y-57720000D02*
X45190236Y-56470000D01*
X38592418Y-61550000D02*
X39920236Y-60222182D01*
X39920236Y-60222182D02*
X39920236Y-58470000D01*
X25870236Y-61550000D02*
X38592418Y-61550000D01*
X39920236Y-58470000D02*
X40670236Y-57720000D01*
X40670236Y-57720000D02*
X43940236Y-57720000D01*
%TO.N,Net-(J5-Pin_9)*%
X29680236Y-55200000D02*
X43920236Y-55200000D01*
X25870236Y-59010000D02*
X29680236Y-55200000D01*
X43920236Y-55200000D02*
X45190236Y-53930000D01*
%TO.N,GND*%
X66030000Y-61700000D02*
X64590000Y-60260000D01*
X67140000Y-61700000D02*
X66030000Y-61700000D01*
X60020000Y-67270000D02*
X59877588Y-67270000D01*
X77780299Y-40549703D02*
X77780299Y-43089703D01*
X62560000Y-65010000D02*
X63330000Y-64240000D01*
X63710000Y-56370000D02*
X61922412Y-56370000D01*
X57480000Y-73940000D02*
X60020000Y-71400000D01*
X64590000Y-60260000D02*
X64590000Y-57250000D01*
X57480000Y-57720000D02*
X57480000Y-58990000D01*
X58240000Y-56960000D02*
X57480000Y-57720000D01*
X75740299Y-58539703D02*
X74170299Y-58539703D01*
X61332412Y-56960000D02*
X58240000Y-56960000D01*
X62560000Y-65510000D02*
X66600000Y-65510000D01*
X64590000Y-57250000D02*
X63710000Y-56370000D01*
X67870000Y-62430000D02*
X67140000Y-61700000D01*
X61922412Y-56370000D02*
X61332412Y-56960000D01*
X56210000Y-70937588D02*
X56210000Y-73360000D01*
X80320299Y-52299703D02*
X77780299Y-54839703D01*
X62560000Y-65510000D02*
X62560000Y-65010000D01*
X77780299Y-60579703D02*
X75740299Y-58539703D01*
X53870000Y-61030000D02*
X55380000Y-61030000D01*
X59877588Y-67270000D02*
X56210000Y-70937588D01*
X67870000Y-64240000D02*
X67870000Y-62430000D01*
X66600000Y-65510000D02*
X67870000Y-64240000D01*
X77780299Y-54839703D02*
X77780299Y-56439703D01*
X80320299Y-48169703D02*
X80320299Y-52299703D01*
X57480000Y-76480000D02*
X57480000Y-73940000D01*
X55380000Y-61030000D02*
X57480000Y-63130000D01*
%TO.N,Data*%
X81600299Y-43049703D02*
X77780299Y-46869703D01*
X81600299Y-41819703D02*
X81600299Y-43049703D01*
X77780299Y-46869703D02*
X77780299Y-48169703D01*
X82870299Y-40549703D02*
X81600299Y-41819703D01*
%TO.N,col0*%
X75250299Y-73939703D02*
X75250299Y-79019703D01*
%TO.N,col1*%
X77790299Y-79019703D02*
X77790299Y-73939703D01*
%TO.N,col2*%
X80330299Y-73939703D02*
X80330299Y-79019703D01*
%TO.N,col3*%
X82870299Y-79019703D02*
X82870299Y-73939703D01*
%TO.N,col4*%
X85410299Y-73939703D02*
X85410299Y-79019703D01*
%TO.N,col5*%
X87950299Y-79019703D02*
X87950299Y-73939703D01*
%TO.N,row0*%
X75250299Y-64719703D02*
X75250299Y-69799703D01*
%TO.N,row1*%
X77790299Y-69799703D02*
X77790299Y-64719703D01*
%TO.N,row2*%
X80330299Y-64719703D02*
X80330299Y-69799703D01*
%TO.N,row3*%
X82870299Y-69799703D02*
X82870299Y-64719703D01*
%TO.N,row4*%
X85410299Y-64719703D02*
X85410299Y-69799703D01*
%TO.N,row5*%
X87950299Y-69799703D02*
X87950299Y-64719703D01*
%TO.N,A1*%
X61340000Y-66837818D02*
X59712182Y-65210000D01*
X54940000Y-64420000D02*
X54940000Y-63130000D01*
X55730000Y-65210000D02*
X54940000Y-64420000D01*
X61340000Y-75250000D02*
X61340000Y-66837818D01*
X59712182Y-65210000D02*
X55730000Y-65210000D01*
X62570000Y-76480000D02*
X61340000Y-75250000D01*
%TO.N,B1*%
X62060000Y-66780000D02*
X60020000Y-64740000D01*
X64020000Y-67760000D02*
X63040000Y-66780000D01*
X63040000Y-66780000D02*
X62060000Y-66780000D01*
X62570000Y-73940000D02*
X64020000Y-72490000D01*
X64020000Y-72490000D02*
X64020000Y-67760000D01*
X60020000Y-64740000D02*
X60020000Y-63130000D01*
%TO.N,VCC*%
X76520299Y-53579703D02*
X76520299Y-57279703D01*
X76520299Y-57279703D02*
X79050299Y-59809703D01*
X75240299Y-52299703D02*
X76520299Y-53579703D01*
X58750000Y-59760000D02*
X61960000Y-62970000D01*
X75240299Y-40549703D02*
X75240299Y-52299703D01*
X62560000Y-62970000D02*
X66600000Y-62970000D01*
X61960000Y-62970000D02*
X62560000Y-62970000D01*
%TO.N,SCL*%
X88170299Y-49439703D02*
X88170299Y-57869703D01*
X86900299Y-48169703D02*
X88170299Y-49439703D01*
X88170299Y-57869703D02*
X86900299Y-59139703D01*
%TO.N,SDA*%
X85660000Y-51950002D02*
X85660000Y-60439404D01*
X85660000Y-60439404D02*
X86900299Y-61679703D01*
X86900299Y-50709703D02*
X85660000Y-51950002D01*
%TO.N,X*%
X84560000Y-57440002D02*
X82860299Y-59139703D01*
X86900299Y-43089703D02*
X84560000Y-45430002D01*
X84560000Y-45430002D02*
X84560000Y-57440002D01*
%TO.N,Y*%
X86900299Y-45629703D02*
X85110000Y-47420002D01*
X85110000Y-59430002D02*
X82860299Y-61679703D01*
X85110000Y-47420002D02*
X85110000Y-59430002D01*
%TO.N,Data2*%
X84897481Y-44314703D02*
X81113117Y-44314703D01*
X85630299Y-41819703D02*
X85630299Y-43581885D01*
X81113117Y-44314703D02*
X79040299Y-46387521D01*
X86900299Y-40549703D02*
X85630299Y-41819703D01*
X85630299Y-43581885D02*
X84897481Y-44314703D01*
X79040299Y-51039703D02*
X77780299Y-52299703D01*
X79040299Y-46387521D02*
X79040299Y-51039703D01*
%TO.N,A2*%
X54940000Y-59812182D02*
X54940000Y-58990000D01*
X56197818Y-61070000D02*
X54940000Y-59812182D01*
X82870299Y-48169703D02*
X81640299Y-49399703D01*
X57970000Y-61070000D02*
X56197818Y-61070000D01*
X81640299Y-52729703D02*
X79050299Y-55319703D01*
X58750000Y-61850000D02*
X57970000Y-61070000D01*
X81640299Y-49399703D02*
X81640299Y-52729703D01*
X79050299Y-55319703D02*
X79050299Y-57209703D01*
X58750000Y-62360000D02*
X58750000Y-61850000D01*
%TO.N,B2*%
X82870299Y-50709703D02*
X82870299Y-52277521D01*
X82870299Y-52277521D02*
X81545299Y-53602521D01*
X81545299Y-53602521D02*
X81545299Y-59354703D01*
X81545299Y-59354703D02*
X80320299Y-60579703D01*
%TO.N,Net-(J22-Pin_1)*%
X107925000Y-61550000D02*
X107925000Y-69170000D01*
X110950000Y-72195000D02*
X107925000Y-69170000D01*
X110950000Y-79650000D02*
X110950000Y-72195000D01*
%TO.N,Net-(J22-Pin_5)*%
X100790000Y-79650000D02*
X100790000Y-72195000D01*
X100790000Y-72195000D02*
X97765000Y-69170000D01*
X97765000Y-61550000D02*
X97765000Y-69170000D01*
%TO.N,Net-(J18-Pin_1)*%
X110520000Y-64090000D02*
X112490000Y-66060000D01*
X113200000Y-67900000D02*
X115760000Y-67900000D01*
X115760000Y-67900000D02*
X117030000Y-69170000D01*
X112490000Y-67190000D02*
X113200000Y-67900000D01*
X112490000Y-66060000D02*
X112490000Y-67190000D01*
%TO.N,Net-(J18-Pin_2)*%
X112490000Y-69720000D02*
X113210000Y-70440000D01*
X113210000Y-70440000D02*
X115760000Y-70440000D01*
X115760000Y-70440000D02*
X117030000Y-71710000D01*
X110520000Y-66630000D02*
X112490000Y-68600000D01*
X112490000Y-68600000D02*
X112490000Y-69720000D01*
%TO.N,Net-(J18-Pin_3)*%
X110520000Y-70430000D02*
X113070000Y-72980000D01*
X113070000Y-72980000D02*
X115760000Y-72980000D01*
X110520000Y-69170000D02*
X110520000Y-70430000D01*
X115760000Y-72980000D02*
X117030000Y-74250000D01*
%TO.N,Net-(J20-Pin_1)*%
X25870236Y-56470000D02*
X29680236Y-52660000D01*
X29680236Y-52660000D02*
X43920236Y-52660000D01*
X43920236Y-52660000D02*
X45190236Y-51390000D01*
%TO.N,Net-(J20-Pin_2)*%
X25870236Y-53930000D02*
X27180236Y-52620000D01*
X28418054Y-49620000D02*
X44420236Y-49620000D01*
X44420236Y-49620000D02*
X45190236Y-48850000D01*
X27180236Y-50857818D02*
X28418054Y-49620000D01*
X27180236Y-52620000D02*
X27180236Y-50857818D01*
%TO.N,Net-(J20-Pin_3)*%
X25870236Y-51390000D02*
X30950236Y-46310000D01*
X30950236Y-46310000D02*
X45190236Y-46310000D01*
%TO.N,Net-(J22-Pin_2)*%
X108410000Y-72195000D02*
X105385000Y-69170000D01*
X105385000Y-61550000D02*
X105385000Y-69170000D01*
X108410000Y-79650000D02*
X108410000Y-72195000D01*
%TO.N,Net-(J22-Pin_3)*%
X105870000Y-72195000D02*
X102845000Y-69170000D01*
X102845000Y-61550000D02*
X102845000Y-69170000D01*
X105870000Y-79650000D02*
X105870000Y-72195000D01*
%TO.N,Net-(J22-Pin_4)*%
X103330000Y-72195000D02*
X100305000Y-69170000D01*
X103330000Y-79650000D02*
X103330000Y-72195000D01*
X100305000Y-61550000D02*
X100305000Y-69170000D01*
%TD*%
%TA.AperFunction,Conductor*%
%TO.N,GND*%
G36*
X57730000Y-78584498D02*
G01*
X57622315Y-78535320D01*
X57515763Y-78520000D01*
X57444237Y-78520000D01*
X57337685Y-78535320D01*
X57230000Y-78584498D01*
X57230000Y-76915501D01*
X57337685Y-76964680D01*
X57444237Y-76980000D01*
X57515763Y-76980000D01*
X57622315Y-76964680D01*
X57730000Y-76915501D01*
X57730000Y-78584498D01*
G37*
%TD.AperFunction*%
%TA.AperFunction,Conductor*%
G36*
X61373206Y-63458596D02*
G01*
X61427086Y-63503080D01*
X61436779Y-63520181D01*
X61472897Y-63597638D01*
X61472898Y-63597639D01*
X61598402Y-63776877D01*
X61753123Y-63931598D01*
X61932361Y-64057102D01*
X61965867Y-64072726D01*
X62018305Y-64118896D01*
X62037457Y-64186090D01*
X62017242Y-64252971D01*
X61965866Y-64297489D01*
X61882419Y-64336401D01*
X61798625Y-64395072D01*
X61798625Y-64395073D01*
X62427465Y-65023913D01*
X62417685Y-65025320D01*
X62286900Y-65085048D01*
X62178239Y-65179202D01*
X62100507Y-65300156D01*
X62076923Y-65380476D01*
X61445072Y-64748625D01*
X61386401Y-64832419D01*
X61314923Y-64985704D01*
X61268750Y-65038143D01*
X61201557Y-65057295D01*
X61134676Y-65037079D01*
X61114863Y-65020983D01*
X60631819Y-64537938D01*
X60598334Y-64476615D01*
X60595500Y-64450257D01*
X60595500Y-64318159D01*
X60615185Y-64251120D01*
X60648373Y-64216587D01*
X60826877Y-64091598D01*
X60981598Y-63936877D01*
X61107102Y-63757639D01*
X61199575Y-63559330D01*
X61204622Y-63540494D01*
X61240985Y-63480834D01*
X61303831Y-63450303D01*
X61373206Y-63458596D01*
G37*
%TD.AperFunction*%
%TA.AperFunction,Conductor*%
G36*
X67048147Y-34230492D02*
G01*
X67048174Y-34230500D01*
X67098122Y-34230500D01*
X67101866Y-34230613D01*
X67164249Y-34234386D01*
X67198889Y-34236481D01*
X67235469Y-34238879D01*
X67387540Y-34248846D01*
X67394642Y-34249727D01*
X67524231Y-34273475D01*
X67678242Y-34304110D01*
X67684571Y-34305720D01*
X67815936Y-34346655D01*
X67817260Y-34347086D01*
X67959688Y-34395434D01*
X67965172Y-34397593D01*
X68092917Y-34455087D01*
X68094795Y-34455973D01*
X68212373Y-34513956D01*
X68227393Y-34521363D01*
X68232048Y-34523912D01*
X68352924Y-34596984D01*
X68355293Y-34598490D01*
X68477233Y-34679968D01*
X68480979Y-34682681D01*
X68592645Y-34770166D01*
X68595271Y-34772344D01*
X68705156Y-34868711D01*
X68708118Y-34871485D01*
X68808513Y-34971880D01*
X68811287Y-34974842D01*
X68907654Y-35084727D01*
X68909839Y-35087361D01*
X68941249Y-35127454D01*
X68997305Y-35199003D01*
X69000037Y-35202776D01*
X69051254Y-35279426D01*
X69081507Y-35324704D01*
X69083014Y-35327074D01*
X69156086Y-35447950D01*
X69158635Y-35452605D01*
X69224002Y-35585154D01*
X69224934Y-35587130D01*
X69282400Y-35714815D01*
X69284573Y-35720334D01*
X69332890Y-35862672D01*
X69333373Y-35864156D01*
X69374274Y-35995414D01*
X69375891Y-36001768D01*
X69406520Y-36155752D01*
X69430269Y-36285345D01*
X69431153Y-36292472D01*
X69443517Y-36481110D01*
X69449386Y-36578135D01*
X69449499Y-36581879D01*
X69449497Y-56075105D01*
X69429812Y-56142144D01*
X69396943Y-56175015D01*
X69396984Y-56175062D01*
X69396330Y-56175628D01*
X69392541Y-56179418D01*
X69390279Y-56180871D01*
X69286946Y-56270409D01*
X69286942Y-56270413D01*
X69213021Y-56385440D01*
X69174500Y-56516632D01*
X69174500Y-56653367D01*
X69213021Y-56784559D01*
X69213020Y-56784559D01*
X69286942Y-56899586D01*
X69290593Y-56903799D01*
X69319616Y-56967356D01*
X69309671Y-57036514D01*
X69290593Y-57066201D01*
X69286942Y-57070413D01*
X69213021Y-57185440D01*
X69174500Y-57316632D01*
X69174500Y-57453367D01*
X69213021Y-57584559D01*
X69213020Y-57584559D01*
X69286942Y-57699586D01*
X69290593Y-57703799D01*
X69319616Y-57767356D01*
X69309671Y-57836514D01*
X69290593Y-57866201D01*
X69286942Y-57870413D01*
X69213021Y-57985440D01*
X69174500Y-58116632D01*
X69174500Y-58253367D01*
X69213021Y-58384559D01*
X69213020Y-58384559D01*
X69286942Y-58499586D01*
X69290593Y-58503799D01*
X69319616Y-58567356D01*
X69309671Y-58636514D01*
X69290593Y-58666201D01*
X69286942Y-58670413D01*
X69213021Y-58785440D01*
X69174500Y-58916632D01*
X69174500Y-59053367D01*
X69213021Y-59184559D01*
X69213020Y-59184559D01*
X69286942Y-59299586D01*
X69290593Y-59303799D01*
X69319616Y-59367356D01*
X69309671Y-59436514D01*
X69290593Y-59466201D01*
X69286942Y-59470413D01*
X69213021Y-59585440D01*
X69174500Y-59716632D01*
X69174500Y-59853367D01*
X69213021Y-59984559D01*
X69213020Y-59984559D01*
X69286942Y-60099586D01*
X69290593Y-60103799D01*
X69319616Y-60167356D01*
X69309671Y-60236514D01*
X69290593Y-60266201D01*
X69286942Y-60270413D01*
X69213021Y-60385440D01*
X69174500Y-60516632D01*
X69174500Y-60653367D01*
X69213021Y-60784559D01*
X69213020Y-60784559D01*
X69286942Y-60899586D01*
X69290593Y-60903799D01*
X69319616Y-60967356D01*
X69309671Y-61036514D01*
X69290593Y-61066201D01*
X69286942Y-61070413D01*
X69213021Y-61185440D01*
X69174500Y-61316632D01*
X69174500Y-61453367D01*
X69213021Y-61584559D01*
X69213020Y-61584559D01*
X69286942Y-61699586D01*
X69290593Y-61703799D01*
X69319616Y-61767356D01*
X69309671Y-61836514D01*
X69290593Y-61866201D01*
X69286942Y-61870413D01*
X69213021Y-61985440D01*
X69174500Y-62116632D01*
X69174500Y-62253367D01*
X69213021Y-62384559D01*
X69213020Y-62384559D01*
X69286942Y-62499586D01*
X69290593Y-62503799D01*
X69319616Y-62567356D01*
X69309671Y-62636514D01*
X69290593Y-62666201D01*
X69286942Y-62670413D01*
X69213021Y-62785440D01*
X69174500Y-62916632D01*
X69174500Y-63053367D01*
X69213021Y-63184559D01*
X69213020Y-63184559D01*
X69286942Y-63299586D01*
X69286946Y-63299590D01*
X69386092Y-63385500D01*
X69390282Y-63389130D01*
X69390288Y-63389132D01*
X69392533Y-63390576D01*
X69394290Y-63392603D01*
X69396984Y-63394938D01*
X69396648Y-63395325D01*
X69438290Y-63443379D01*
X69449497Y-63494894D01*
X69449497Y-82988121D01*
X69449384Y-82991866D01*
X69443498Y-83089159D01*
X69431155Y-83277495D01*
X69430271Y-83284622D01*
X69406477Y-83414466D01*
X69375898Y-83568200D01*
X69374281Y-83574555D01*
X69333322Y-83705994D01*
X69332839Y-83707478D01*
X69284585Y-83849627D01*
X69282412Y-83855146D01*
X69224891Y-83982957D01*
X69223959Y-83984934D01*
X69158654Y-84117359D01*
X69156105Y-84122015D01*
X69082974Y-84242986D01*
X69081467Y-84245356D01*
X69000080Y-84367159D01*
X68997333Y-84370953D01*
X68909791Y-84482691D01*
X68907599Y-84485334D01*
X68811331Y-84595107D01*
X68808557Y-84598069D01*
X68708068Y-84698558D01*
X68705106Y-84701332D01*
X68595328Y-84797605D01*
X68592685Y-84799797D01*
X68480947Y-84887338D01*
X68477154Y-84890084D01*
X68355368Y-84971460D01*
X68352997Y-84972967D01*
X68232005Y-85046110D01*
X68227350Y-85048659D01*
X68094945Y-85113953D01*
X68092968Y-85114885D01*
X67965139Y-85172416D01*
X67959620Y-85174589D01*
X67817471Y-85222841D01*
X67815988Y-85223324D01*
X67684552Y-85264282D01*
X67678197Y-85265899D01*
X67524473Y-85296476D01*
X67394615Y-85320273D01*
X67387489Y-85321157D01*
X67199660Y-85333467D01*
X67111249Y-85338816D01*
X67101796Y-85339388D01*
X67098057Y-85339501D01*
X65004085Y-85339501D01*
X64937046Y-85319816D01*
X64899769Y-85282540D01*
X64892306Y-85270927D01*
X64863055Y-85225411D01*
X64860670Y-85223344D01*
X64759721Y-85135872D01*
X64759714Y-85135867D01*
X64635345Y-85079070D01*
X64635343Y-85079069D01*
X64635342Y-85079069D01*
X64635337Y-85079068D01*
X64635336Y-85079068D01*
X64534011Y-85064500D01*
X64465989Y-85064500D01*
X64465988Y-85064500D01*
X64364663Y-85079068D01*
X64364654Y-85079070D01*
X64240285Y-85135867D01*
X64240281Y-85135870D01*
X64181202Y-85187062D01*
X64117646Y-85216086D01*
X64048487Y-85206142D01*
X64018798Y-85187062D01*
X63959718Y-85135870D01*
X63959714Y-85135867D01*
X63835345Y-85079070D01*
X63835343Y-85079069D01*
X63835342Y-85079069D01*
X63835337Y-85079068D01*
X63835336Y-85079068D01*
X63734011Y-85064500D01*
X63665989Y-85064500D01*
X63665988Y-85064500D01*
X63564663Y-85079068D01*
X63564654Y-85079070D01*
X63440285Y-85135867D01*
X63440281Y-85135870D01*
X63381202Y-85187062D01*
X63317646Y-85216086D01*
X63248487Y-85206142D01*
X63218798Y-85187062D01*
X63159718Y-85135870D01*
X63159714Y-85135867D01*
X63035345Y-85079070D01*
X63035343Y-85079069D01*
X63035342Y-85079069D01*
X63035337Y-85079068D01*
X63035336Y-85079068D01*
X62934011Y-85064500D01*
X62865989Y-85064500D01*
X62865988Y-85064500D01*
X62764663Y-85079068D01*
X62764654Y-85079070D01*
X62640285Y-85135867D01*
X62640281Y-85135870D01*
X62581202Y-85187062D01*
X62517646Y-85216086D01*
X62448487Y-85206142D01*
X62418798Y-85187062D01*
X62359718Y-85135870D01*
X62359714Y-85135867D01*
X62235345Y-85079070D01*
X62235343Y-85079069D01*
X62235342Y-85079069D01*
X62235337Y-85079068D01*
X62235336Y-85079068D01*
X62134011Y-85064500D01*
X62065989Y-85064500D01*
X62065988Y-85064500D01*
X61964663Y-85079068D01*
X61964654Y-85079070D01*
X61840285Y-85135867D01*
X61840281Y-85135870D01*
X61781202Y-85187062D01*
X61717646Y-85216086D01*
X61648487Y-85206142D01*
X61618798Y-85187062D01*
X61559718Y-85135870D01*
X61559714Y-85135867D01*
X61435345Y-85079070D01*
X61435343Y-85079069D01*
X61435342Y-85079069D01*
X61435337Y-85079068D01*
X61435336Y-85079068D01*
X61334011Y-85064500D01*
X61265989Y-85064500D01*
X61265988Y-85064500D01*
X61164663Y-85079068D01*
X61164654Y-85079070D01*
X61040285Y-85135867D01*
X61040281Y-85135870D01*
X60981202Y-85187062D01*
X60917646Y-85216086D01*
X60848487Y-85206142D01*
X60818798Y-85187062D01*
X60759718Y-85135870D01*
X60759714Y-85135867D01*
X60635345Y-85079070D01*
X60635343Y-85079069D01*
X60635342Y-85079069D01*
X60635337Y-85079068D01*
X60635336Y-85079068D01*
X60534011Y-85064500D01*
X60465989Y-85064500D01*
X60465988Y-85064500D01*
X60364663Y-85079068D01*
X60364654Y-85079070D01*
X60240285Y-85135867D01*
X60240281Y-85135870D01*
X60181202Y-85187062D01*
X60117646Y-85216086D01*
X60048487Y-85206142D01*
X60018798Y-85187062D01*
X59959718Y-85135870D01*
X59959714Y-85135867D01*
X59835345Y-85079070D01*
X59835343Y-85079069D01*
X59835342Y-85079069D01*
X59835337Y-85079068D01*
X59835336Y-85079068D01*
X59734011Y-85064500D01*
X59665989Y-85064500D01*
X59665988Y-85064500D01*
X59564663Y-85079068D01*
X59564654Y-85079070D01*
X59440285Y-85135867D01*
X59440281Y-85135870D01*
X59381202Y-85187062D01*
X59317646Y-85216086D01*
X59248487Y-85206142D01*
X59218798Y-85187062D01*
X59159718Y-85135870D01*
X59159714Y-85135867D01*
X59035345Y-85079070D01*
X59035343Y-85079069D01*
X59035342Y-85079069D01*
X59035337Y-85079068D01*
X59035336Y-85079068D01*
X58934011Y-85064500D01*
X58865989Y-85064500D01*
X58865988Y-85064500D01*
X58764663Y-85079068D01*
X58764654Y-85079070D01*
X58640285Y-85135867D01*
X58640281Y-85135870D01*
X58581202Y-85187062D01*
X58517646Y-85216086D01*
X58448487Y-85206142D01*
X58418798Y-85187062D01*
X58359718Y-85135870D01*
X58359714Y-85135867D01*
X58235345Y-85079070D01*
X58235343Y-85079069D01*
X58235342Y-85079069D01*
X58235337Y-85079068D01*
X58235336Y-85079068D01*
X58134011Y-85064500D01*
X58065989Y-85064500D01*
X58065988Y-85064500D01*
X57964663Y-85079068D01*
X57964654Y-85079070D01*
X57840285Y-85135867D01*
X57840278Y-85135872D01*
X57736946Y-85225409D01*
X57736945Y-85225411D01*
X57700231Y-85282540D01*
X57647427Y-85328295D01*
X57595915Y-85339501D01*
X55501875Y-85339501D01*
X55498130Y-85339388D01*
X55400977Y-85333511D01*
X55212487Y-85321157D01*
X55205360Y-85320273D01*
X55075614Y-85296496D01*
X54921785Y-85265898D01*
X54915431Y-85264281D01*
X54914439Y-85263972D01*
X54901269Y-85259867D01*
X54784063Y-85223344D01*
X54782579Y-85222861D01*
X54640353Y-85174582D01*
X54634834Y-85172409D01*
X54507079Y-85114911D01*
X54505102Y-85113979D01*
X54372613Y-85048642D01*
X54367964Y-85046097D01*
X54247061Y-84973009D01*
X54244701Y-84971509D01*
X54202089Y-84943036D01*
X54122811Y-84890064D01*
X54119019Y-84887318D01*
X54007335Y-84799819D01*
X54004692Y-84797627D01*
X53894865Y-84701311D01*
X53891903Y-84698537D01*
X53791459Y-84598093D01*
X53788692Y-84595140D01*
X53760643Y-84563156D01*
X53692371Y-84485305D01*
X53690180Y-84482662D01*
X53632330Y-84408825D01*
X53602668Y-84370963D01*
X53599943Y-84367202D01*
X53518493Y-84245302D01*
X53517002Y-84242957D01*
X53443890Y-84122015D01*
X53441355Y-84117383D01*
X53441224Y-84117117D01*
X53376003Y-83984862D01*
X53375097Y-83982942D01*
X53317581Y-83855146D01*
X53315422Y-83849661D01*
X53267105Y-83707326D01*
X53266672Y-83705994D01*
X53225710Y-83574543D01*
X53224106Y-83568237D01*
X53193498Y-83414365D01*
X53169723Y-83284622D01*
X53168842Y-83277522D01*
X53156504Y-83089274D01*
X53156497Y-83089159D01*
X53150609Y-82991832D01*
X53150554Y-82990001D01*
X54144338Y-82990001D01*
X54164933Y-83225404D01*
X54164935Y-83225414D01*
X54226091Y-83453656D01*
X54226093Y-83453660D01*
X54226094Y-83453664D01*
X54276028Y-83560747D01*
X54325961Y-83667829D01*
X54325962Y-83667831D01*
X54461502Y-83861403D01*
X54628594Y-84028495D01*
X54822166Y-84164035D01*
X54822168Y-84164036D01*
X55036334Y-84263904D01*
X55264589Y-84325064D01*
X55441029Y-84340500D01*
X55441030Y-84340501D01*
X55441031Y-84340501D01*
X55558964Y-84340501D01*
X55558964Y-84340500D01*
X55735405Y-84325064D01*
X55963660Y-84263904D01*
X56177826Y-84164036D01*
X56371398Y-84028496D01*
X56538492Y-83861402D01*
X56674032Y-83667831D01*
X56773900Y-83453664D01*
X56835060Y-83225409D01*
X56855656Y-82990001D01*
X65744338Y-82990001D01*
X65764933Y-83225404D01*
X65764935Y-83225414D01*
X65826091Y-83453656D01*
X65826093Y-83453660D01*
X65826094Y-83453664D01*
X65876028Y-83560747D01*
X65925961Y-83667829D01*
X65925962Y-83667831D01*
X66061502Y-83861403D01*
X66228594Y-84028495D01*
X66422166Y-84164035D01*
X66422168Y-84164036D01*
X66636334Y-84263904D01*
X66864589Y-84325064D01*
X67041029Y-84340500D01*
X67041030Y-84340501D01*
X67041031Y-84340501D01*
X67158964Y-84340501D01*
X67158964Y-84340500D01*
X67335405Y-84325064D01*
X67563660Y-84263904D01*
X67777826Y-84164036D01*
X67971398Y-84028496D01*
X68138492Y-83861402D01*
X68274032Y-83667831D01*
X68373900Y-83453664D01*
X68435060Y-83225409D01*
X68455656Y-82990001D01*
X68455465Y-82987823D01*
X68435060Y-82754597D01*
X68435060Y-82754593D01*
X68373900Y-82526338D01*
X68274032Y-82312172D01*
X68274031Y-82312170D01*
X68138491Y-82118598D01*
X67971399Y-81951506D01*
X67777827Y-81815966D01*
X67777825Y-81815965D01*
X67626710Y-81745499D01*
X67563660Y-81716098D01*
X67563656Y-81716097D01*
X67563652Y-81716095D01*
X67335410Y-81654939D01*
X67335400Y-81654937D01*
X67158964Y-81639501D01*
X67158963Y-81639501D01*
X67041031Y-81639501D01*
X67041030Y-81639501D01*
X66864593Y-81654937D01*
X66864583Y-81654939D01*
X66636341Y-81716095D01*
X66636332Y-81716099D01*
X66422168Y-81815965D01*
X66422166Y-81815966D01*
X66228594Y-81951506D01*
X66061503Y-82118598D01*
X66061498Y-82118605D01*
X65925964Y-82312166D01*
X65925962Y-82312170D01*
X65826095Y-82526336D01*
X65826091Y-82526345D01*
X65764935Y-82754587D01*
X65764933Y-82754597D01*
X65744338Y-82990000D01*
X65744338Y-82990001D01*
X56855656Y-82990001D01*
X56855465Y-82987823D01*
X56835060Y-82754597D01*
X56835060Y-82754593D01*
X56773900Y-82526338D01*
X56674032Y-82312172D01*
X56674031Y-82312170D01*
X56538491Y-82118598D01*
X56371399Y-81951506D01*
X56177827Y-81815966D01*
X56177825Y-81815965D01*
X56026710Y-81745499D01*
X55963660Y-81716098D01*
X55963656Y-81716097D01*
X55963652Y-81716095D01*
X55735410Y-81654939D01*
X55735400Y-81654937D01*
X55558964Y-81639501D01*
X55558963Y-81639501D01*
X55441031Y-81639501D01*
X55441030Y-81639501D01*
X55264593Y-81654937D01*
X55264583Y-81654939D01*
X55036341Y-81716095D01*
X55036332Y-81716099D01*
X54822168Y-81815965D01*
X54822166Y-81815966D01*
X54628594Y-81951506D01*
X54461503Y-82118598D01*
X54461498Y-82118605D01*
X54325964Y-82312166D01*
X54325962Y-82312170D01*
X54226095Y-82526336D01*
X54226091Y-82526345D01*
X54164935Y-82754587D01*
X54164933Y-82754597D01*
X54144338Y-82990000D01*
X54144338Y-82990001D01*
X53150554Y-82990001D01*
X53150497Y-82988095D01*
X53150497Y-79020002D01*
X53684723Y-79020002D01*
X53691012Y-79091889D01*
X53703081Y-79229844D01*
X53703793Y-79237975D01*
X53703793Y-79237979D01*
X53760422Y-79449322D01*
X53760424Y-79449326D01*
X53760425Y-79449330D01*
X53776355Y-79483492D01*
X53852897Y-79647638D01*
X53877998Y-79683486D01*
X53978402Y-79826877D01*
X54133123Y-79981598D01*
X54312361Y-80107102D01*
X54510670Y-80199575D01*
X54722023Y-80256207D01*
X54904926Y-80272208D01*
X54939998Y-80275277D01*
X54940000Y-80275277D01*
X54940002Y-80275277D01*
X54968254Y-80272805D01*
X55157977Y-80256207D01*
X55369330Y-80199575D01*
X55567639Y-80107102D01*
X55746877Y-79981598D01*
X55901598Y-79826877D01*
X56027102Y-79647639D01*
X56042726Y-79614132D01*
X56088896Y-79561695D01*
X56156090Y-79542543D01*
X56222971Y-79562758D01*
X56267489Y-79614134D01*
X56306399Y-79697578D01*
X56441894Y-79891082D01*
X56608917Y-80058105D01*
X56802421Y-80193600D01*
X57016507Y-80293429D01*
X57016516Y-80293433D01*
X57230000Y-80350634D01*
X57230000Y-79455501D01*
X57337685Y-79504680D01*
X57444237Y-79520000D01*
X57515763Y-79520000D01*
X57622315Y-79504680D01*
X57729999Y-79455501D01*
X57729999Y-80350633D01*
X57943483Y-80293433D01*
X57943492Y-80293429D01*
X58157578Y-80193600D01*
X58351082Y-80058105D01*
X58518105Y-79891082D01*
X58653600Y-79697578D01*
X58753429Y-79483492D01*
X58753432Y-79483486D01*
X58810636Y-79270000D01*
X57913686Y-79270000D01*
X57939493Y-79229844D01*
X57980000Y-79091889D01*
X57980000Y-78948111D01*
X57939493Y-78810156D01*
X57913686Y-78770000D01*
X58810636Y-78770000D01*
X58810635Y-78769999D01*
X58753432Y-78556513D01*
X58753429Y-78556507D01*
X58653600Y-78342422D01*
X58653599Y-78342420D01*
X58518113Y-78148926D01*
X58518108Y-78148920D01*
X58351082Y-77981894D01*
X58164968Y-77851575D01*
X58121344Y-77796998D01*
X58114151Y-77727499D01*
X58145673Y-77665145D01*
X58164968Y-77648425D01*
X58351082Y-77518105D01*
X58518105Y-77351082D01*
X58653600Y-77157578D01*
X58753429Y-76943492D01*
X58753432Y-76943486D01*
X58810636Y-76730000D01*
X57913686Y-76730000D01*
X57939493Y-76689844D01*
X57980000Y-76551889D01*
X57980000Y-76408111D01*
X57939493Y-76270156D01*
X57913686Y-76230000D01*
X58810636Y-76230000D01*
X58810635Y-76229999D01*
X58753432Y-76016513D01*
X58753429Y-76016507D01*
X58653600Y-75802422D01*
X58653599Y-75802420D01*
X58518113Y-75608926D01*
X58518108Y-75608920D01*
X58351082Y-75441894D01*
X58157578Y-75306399D01*
X57943492Y-75206570D01*
X57943486Y-75206567D01*
X57729999Y-75149364D01*
X57729999Y-76044498D01*
X57622315Y-75995320D01*
X57515763Y-75980000D01*
X57444237Y-75980000D01*
X57337685Y-75995320D01*
X57230000Y-76044498D01*
X57230000Y-75149364D01*
X57229999Y-75149364D01*
X57016513Y-75206567D01*
X57016507Y-75206570D01*
X56802422Y-75306399D01*
X56802420Y-75306400D01*
X56608926Y-75441886D01*
X56608920Y-75441891D01*
X56441891Y-75608920D01*
X56441886Y-75608926D01*
X56306400Y-75802420D01*
X56306399Y-75802422D01*
X56267489Y-75885866D01*
X56221317Y-75938305D01*
X56154123Y-75957457D01*
X56087242Y-75937241D01*
X56042725Y-75885866D01*
X56027102Y-75852362D01*
X56027100Y-75852359D01*
X56027099Y-75852357D01*
X55901599Y-75673124D01*
X55837395Y-75608920D01*
X55746877Y-75518402D01*
X55608978Y-75421844D01*
X55567638Y-75392897D01*
X55447984Y-75337102D01*
X55369330Y-75300425D01*
X55369326Y-75300424D01*
X55369322Y-75300422D01*
X55157977Y-75243793D01*
X54940002Y-75224723D01*
X54939998Y-75224723D01*
X54794681Y-75237436D01*
X54722023Y-75243793D01*
X54722020Y-75243793D01*
X54510677Y-75300422D01*
X54510668Y-75300426D01*
X54312361Y-75392898D01*
X54312357Y-75392900D01*
X54133121Y-75518402D01*
X53978402Y-75673121D01*
X53852900Y-75852357D01*
X53852898Y-75852361D01*
X53793379Y-75980000D01*
X53760564Y-76050373D01*
X53760426Y-76050668D01*
X53760422Y-76050677D01*
X53703793Y-76262020D01*
X53703793Y-76262023D01*
X53700099Y-76304250D01*
X53695448Y-76357415D01*
X53684723Y-76480000D01*
X53703081Y-76689844D01*
X53703793Y-76697975D01*
X53703793Y-76697979D01*
X53760422Y-76909322D01*
X53760424Y-76909326D01*
X53760425Y-76909330D01*
X53776355Y-76943492D01*
X53852897Y-77107638D01*
X53877998Y-77143486D01*
X53978402Y-77286877D01*
X54133123Y-77441598D01*
X54284681Y-77547720D01*
X54312361Y-77567102D01*
X54463583Y-77637618D01*
X54516022Y-77683790D01*
X54535174Y-77750984D01*
X54514958Y-77817865D01*
X54463583Y-77862382D01*
X54312361Y-77932898D01*
X54312357Y-77932900D01*
X54133121Y-78058402D01*
X53978402Y-78213121D01*
X53852900Y-78392357D01*
X53852898Y-78392361D01*
X53799835Y-78506155D01*
X53760564Y-78590373D01*
X53760426Y-78590668D01*
X53760422Y-78590677D01*
X53703793Y-78802020D01*
X53703793Y-78802023D01*
X53700197Y-78843123D01*
X53684723Y-79019997D01*
X53684723Y-79020002D01*
X53150497Y-79020002D01*
X53150497Y-78115504D01*
X53150497Y-71400002D01*
X53684723Y-71400002D01*
X53691012Y-71471889D01*
X53703081Y-71609844D01*
X53703793Y-71617975D01*
X53703793Y-71617979D01*
X53760422Y-71829322D01*
X53760424Y-71829326D01*
X53760425Y-71829330D01*
X53795602Y-71904767D01*
X53852897Y-72027638D01*
X53864888Y-72044763D01*
X53978402Y-72206877D01*
X54133123Y-72361598D01*
X54312361Y-72487102D01*
X54510670Y-72579575D01*
X54722023Y-72636207D01*
X54904926Y-72652208D01*
X54939998Y-72655277D01*
X54940000Y-72655277D01*
X54940002Y-72655277D01*
X54968254Y-72652805D01*
X55157977Y-72636207D01*
X55369330Y-72579575D01*
X55567639Y-72487102D01*
X55746877Y-72361598D01*
X55901598Y-72206877D01*
X56027102Y-72027639D01*
X56097618Y-71876414D01*
X56143790Y-71823977D01*
X56210984Y-71804825D01*
X56277865Y-71825041D01*
X56322381Y-71876414D01*
X56392898Y-72027639D01*
X56518402Y-72206877D01*
X56673123Y-72361598D01*
X56852361Y-72487102D01*
X57050670Y-72579575D01*
X57262023Y-72636207D01*
X57444926Y-72652208D01*
X57479998Y-72655277D01*
X57480000Y-72655277D01*
X57480002Y-72655277D01*
X57508254Y-72652805D01*
X57697977Y-72636207D01*
X57909330Y-72579575D01*
X58107639Y-72487102D01*
X58286877Y-72361598D01*
X58441598Y-72206877D01*
X58567102Y-72027639D01*
X58582726Y-71994132D01*
X58628896Y-71941695D01*
X58696090Y-71922543D01*
X58762971Y-71942758D01*
X58807489Y-71994134D01*
X58846399Y-72077578D01*
X58981894Y-72271082D01*
X59148917Y-72438105D01*
X59342421Y-72573600D01*
X59556507Y-72673429D01*
X59556516Y-72673433D01*
X59769998Y-72730635D01*
X59769999Y-72730634D01*
X59769999Y-71835501D01*
X59877685Y-71884680D01*
X59984237Y-71900000D01*
X60055763Y-71900000D01*
X60162315Y-71884680D01*
X60270000Y-71835501D01*
X60270000Y-72730633D01*
X60483483Y-72673433D01*
X60483492Y-72673430D01*
X60588094Y-72624653D01*
X60657171Y-72614161D01*
X60720955Y-72642680D01*
X60759195Y-72701157D01*
X60764499Y-72737035D01*
X60764499Y-75208215D01*
X60763968Y-75216314D01*
X60759535Y-75250000D01*
X60764498Y-75287715D01*
X60764500Y-75287720D01*
X60779313Y-75400236D01*
X60791466Y-75429576D01*
X60837302Y-75540234D01*
X60908258Y-75632705D01*
X60908278Y-75632731D01*
X60929546Y-75660448D01*
X60929547Y-75660449D01*
X60929549Y-75660451D01*
X60946065Y-75673124D01*
X60956506Y-75681136D01*
X60962609Y-75686489D01*
X61326354Y-76050234D01*
X61359839Y-76111557D01*
X61358448Y-76170008D01*
X61333793Y-76262020D01*
X61333793Y-76262023D01*
X61330099Y-76304250D01*
X61325448Y-76357415D01*
X61314723Y-76480000D01*
X61333081Y-76689844D01*
X61333793Y-76697975D01*
X61333793Y-76697979D01*
X61390422Y-76909322D01*
X61390424Y-76909326D01*
X61390425Y-76909330D01*
X61406355Y-76943492D01*
X61482897Y-77107638D01*
X61507998Y-77143486D01*
X61608402Y-77286877D01*
X61763123Y-77441598D01*
X61914681Y-77547720D01*
X61942361Y-77567102D01*
X62093583Y-77637618D01*
X62146022Y-77683790D01*
X62165174Y-77750984D01*
X62144958Y-77817865D01*
X62093583Y-77862382D01*
X61942361Y-77932898D01*
X61942357Y-77932900D01*
X61763121Y-78058402D01*
X61608402Y-78213121D01*
X61482900Y-78392357D01*
X61482898Y-78392361D01*
X61429835Y-78506155D01*
X61390564Y-78590373D01*
X61390426Y-78590668D01*
X61390422Y-78590677D01*
X61333793Y-78802020D01*
X61333793Y-78802023D01*
X61330197Y-78843123D01*
X61314723Y-79019997D01*
X61314723Y-79020002D01*
X61321012Y-79091889D01*
X61333081Y-79229844D01*
X61333793Y-79237975D01*
X61333793Y-79237979D01*
X61390422Y-79449322D01*
X61390424Y-79449326D01*
X61390425Y-79449330D01*
X61406355Y-79483492D01*
X61482897Y-79647638D01*
X61507998Y-79683486D01*
X61608402Y-79826877D01*
X61763123Y-79981598D01*
X61942361Y-80107102D01*
X62140670Y-80199575D01*
X62352023Y-80256207D01*
X62534926Y-80272208D01*
X62569998Y-80275277D01*
X62570000Y-80275277D01*
X62570002Y-80275277D01*
X62598254Y-80272805D01*
X62787977Y-80256207D01*
X62999330Y-80199575D01*
X63197639Y-80107102D01*
X63376877Y-79981598D01*
X63531598Y-79826877D01*
X63657102Y-79647639D01*
X63749575Y-79449330D01*
X63806207Y-79237977D01*
X63822805Y-79048254D01*
X63825277Y-79020002D01*
X65344723Y-79020002D01*
X65351012Y-79091889D01*
X65363081Y-79229844D01*
X65363793Y-79237975D01*
X65363793Y-79237979D01*
X65420422Y-79449322D01*
X65420424Y-79449326D01*
X65420425Y-79449330D01*
X65436355Y-79483492D01*
X65512897Y-79647638D01*
X65537998Y-79683486D01*
X65638402Y-79826877D01*
X65793123Y-79981598D01*
X65972361Y-80107102D01*
X66170670Y-80199575D01*
X66382023Y-80256207D01*
X66564926Y-80272208D01*
X66599998Y-80275277D01*
X66600000Y-80275277D01*
X66600002Y-80275277D01*
X66628254Y-80272805D01*
X66817977Y-80256207D01*
X67029330Y-80199575D01*
X67227639Y-80107102D01*
X67406877Y-79981598D01*
X67561598Y-79826877D01*
X67687102Y-79647639D01*
X67779575Y-79449330D01*
X67836207Y-79237977D01*
X67852805Y-79048254D01*
X67855277Y-79020002D01*
X67855277Y-79019997D01*
X67851569Y-78977618D01*
X67836207Y-78802023D01*
X67786061Y-78614877D01*
X67779577Y-78590677D01*
X67779576Y-78590676D01*
X67779575Y-78590670D01*
X67687102Y-78392362D01*
X67687100Y-78392359D01*
X67687099Y-78392357D01*
X67561599Y-78213124D01*
X67497395Y-78148920D01*
X67406877Y-78058402D01*
X67227639Y-77932898D01*
X67076414Y-77862381D01*
X67023977Y-77816210D01*
X67004825Y-77749016D01*
X67025041Y-77682135D01*
X67076414Y-77637618D01*
X67227639Y-77567102D01*
X67406877Y-77441598D01*
X67561598Y-77286877D01*
X67687102Y-77107639D01*
X67779575Y-76909330D01*
X67836207Y-76697977D01*
X67855277Y-76480000D01*
X67836207Y-76262023D01*
X67784406Y-76068699D01*
X67779577Y-76050677D01*
X67779576Y-76050676D01*
X67779575Y-76050670D01*
X67687102Y-75852362D01*
X67687100Y-75852359D01*
X67687099Y-75852357D01*
X67561599Y-75673124D01*
X67497395Y-75608920D01*
X67406877Y-75518402D01*
X67227639Y-75392898D01*
X67076414Y-75322381D01*
X67023977Y-75276210D01*
X67004825Y-75209016D01*
X67025041Y-75142135D01*
X67076414Y-75097618D01*
X67227639Y-75027102D01*
X67406877Y-74901598D01*
X67561598Y-74746877D01*
X67687102Y-74567639D01*
X67779575Y-74369330D01*
X67836207Y-74157977D01*
X67855277Y-73940000D01*
X67836207Y-73722023D01*
X67792835Y-73560158D01*
X67779577Y-73510677D01*
X67779576Y-73510676D01*
X67779575Y-73510670D01*
X67687102Y-73312362D01*
X67687100Y-73312359D01*
X67687099Y-73312357D01*
X67561599Y-73133124D01*
X67485452Y-73056977D01*
X67406877Y-72978402D01*
X67227639Y-72852898D01*
X67076414Y-72782381D01*
X67023977Y-72736210D01*
X67004825Y-72669016D01*
X67025041Y-72602135D01*
X67076414Y-72557618D01*
X67227639Y-72487102D01*
X67406877Y-72361598D01*
X67561598Y-72206877D01*
X67687102Y-72027639D01*
X67779575Y-71829330D01*
X67836207Y-71617977D01*
X67855277Y-71400000D01*
X67836207Y-71182023D01*
X67779575Y-70970670D01*
X67687102Y-70772362D01*
X67687099Y-70772358D01*
X67687099Y-70772357D01*
X67561599Y-70593124D01*
X67485452Y-70516977D01*
X67406877Y-70438402D01*
X67227639Y-70312898D01*
X67076414Y-70242381D01*
X67023977Y-70196210D01*
X67004825Y-70129016D01*
X67025041Y-70062135D01*
X67076414Y-70017618D01*
X67227639Y-69947102D01*
X67406877Y-69821598D01*
X67561598Y-69666877D01*
X67687102Y-69487639D01*
X67779575Y-69289330D01*
X67836207Y-69077977D01*
X67855277Y-68860000D01*
X67853361Y-68838105D01*
X67846848Y-68763658D01*
X67836207Y-68642023D01*
X67779575Y-68430670D01*
X67687102Y-68232362D01*
X67687100Y-68232359D01*
X67687099Y-68232357D01*
X67561599Y-68053124D01*
X67485452Y-67976977D01*
X67406877Y-67898402D01*
X67254500Y-67791706D01*
X67227638Y-67772897D01*
X67078096Y-67703165D01*
X67029330Y-67680425D01*
X67029326Y-67680424D01*
X67029322Y-67680422D01*
X66817977Y-67623793D01*
X66600002Y-67604723D01*
X66599998Y-67604723D01*
X66454682Y-67617436D01*
X66382023Y-67623793D01*
X66382020Y-67623793D01*
X66170677Y-67680422D01*
X66170670Y-67680424D01*
X66170670Y-67680425D01*
X66152227Y-67689025D01*
X65972361Y-67772898D01*
X65972357Y-67772900D01*
X65793121Y-67898402D01*
X65638402Y-68053121D01*
X65512900Y-68232357D01*
X65512898Y-68232361D01*
X65420426Y-68430668D01*
X65420422Y-68430677D01*
X65363793Y-68642020D01*
X65363793Y-68642024D01*
X65344723Y-68859997D01*
X65344723Y-68860002D01*
X65363793Y-69077975D01*
X65363793Y-69077979D01*
X65420422Y-69289322D01*
X65420424Y-69289326D01*
X65420425Y-69289330D01*
X65460712Y-69375725D01*
X65512897Y-69487638D01*
X65512898Y-69487639D01*
X65638402Y-69666877D01*
X65793123Y-69821598D01*
X65920624Y-69910875D01*
X65972361Y-69947102D01*
X66123583Y-70017618D01*
X66176022Y-70063790D01*
X66195174Y-70130984D01*
X66174958Y-70197865D01*
X66123583Y-70242382D01*
X65972361Y-70312898D01*
X65972357Y-70312900D01*
X65793121Y-70438402D01*
X65638402Y-70593121D01*
X65512900Y-70772357D01*
X65512898Y-70772361D01*
X65420426Y-70970668D01*
X65420422Y-70970677D01*
X65363793Y-71182020D01*
X65363793Y-71182023D01*
X65362727Y-71194205D01*
X65344723Y-71399997D01*
X65344723Y-71400002D01*
X65351012Y-71471889D01*
X65363081Y-71609844D01*
X65363793Y-71617975D01*
X65363793Y-71617979D01*
X65420422Y-71829322D01*
X65420424Y-71829326D01*
X65420425Y-71829330D01*
X65455602Y-71904767D01*
X65512897Y-72027638D01*
X65524888Y-72044763D01*
X65638402Y-72206877D01*
X65793123Y-72361598D01*
X65968989Y-72484741D01*
X65972361Y-72487102D01*
X66123583Y-72557618D01*
X66176022Y-72603790D01*
X66195174Y-72670984D01*
X66174958Y-72737865D01*
X66123583Y-72782382D01*
X65972361Y-72852898D01*
X65972357Y-72852900D01*
X65793121Y-72978402D01*
X65638402Y-73133121D01*
X65512900Y-73312357D01*
X65512898Y-73312361D01*
X65451924Y-73443120D01*
X65420564Y-73510373D01*
X65420426Y-73510668D01*
X65420422Y-73510677D01*
X65363793Y-73722020D01*
X65363793Y-73722023D01*
X65361582Y-73747301D01*
X65344723Y-73939997D01*
X65344723Y-73940002D01*
X65363793Y-74157975D01*
X65363793Y-74157979D01*
X65420422Y-74369322D01*
X65420424Y-74369326D01*
X65420425Y-74369330D01*
X65422148Y-74373024D01*
X65512897Y-74567638D01*
X65512898Y-74567639D01*
X65638402Y-74746877D01*
X65793123Y-74901598D01*
X65971197Y-75026287D01*
X65972361Y-75027102D01*
X66123583Y-75097618D01*
X66176022Y-75143790D01*
X66195174Y-75210984D01*
X66174958Y-75277865D01*
X66123583Y-75322382D01*
X65972361Y-75392898D01*
X65972357Y-75392900D01*
X65793121Y-75518402D01*
X65638402Y-75673121D01*
X65512900Y-75852357D01*
X65512898Y-75852361D01*
X65453379Y-75980000D01*
X65420564Y-76050373D01*
X65420426Y-76050668D01*
X65420422Y-76050677D01*
X65363793Y-76262020D01*
X65363793Y-76262023D01*
X65360099Y-76304250D01*
X65355448Y-76357415D01*
X65344723Y-76480000D01*
X65363081Y-76689844D01*
X65363793Y-76697975D01*
X65363793Y-76697979D01*
X65420422Y-76909322D01*
X65420424Y-76909326D01*
X65420425Y-76909330D01*
X65436355Y-76943492D01*
X65512897Y-77107638D01*
X65537998Y-77143486D01*
X65638402Y-77286877D01*
X65793123Y-77441598D01*
X65944681Y-77547720D01*
X65972361Y-77567102D01*
X66123583Y-77637618D01*
X66176022Y-77683790D01*
X66195174Y-77750984D01*
X66174958Y-77817865D01*
X66123583Y-77862382D01*
X65972361Y-77932898D01*
X65972357Y-77932900D01*
X65793121Y-78058402D01*
X65638402Y-78213121D01*
X65512900Y-78392357D01*
X65512898Y-78392361D01*
X65459835Y-78506155D01*
X65420564Y-78590373D01*
X65420426Y-78590668D01*
X65420422Y-78590677D01*
X65363793Y-78802020D01*
X65363793Y-78802023D01*
X65360197Y-78843123D01*
X65344723Y-79019997D01*
X65344723Y-79020002D01*
X63825277Y-79020002D01*
X63825277Y-79019997D01*
X63821569Y-78977618D01*
X63806207Y-78802023D01*
X63756061Y-78614877D01*
X63749577Y-78590677D01*
X63749576Y-78590676D01*
X63749575Y-78590670D01*
X63657102Y-78392362D01*
X63657100Y-78392359D01*
X63657099Y-78392357D01*
X63531599Y-78213124D01*
X63467395Y-78148920D01*
X63376877Y-78058402D01*
X63197639Y-77932898D01*
X63046414Y-77862381D01*
X62993977Y-77816210D01*
X62974825Y-77749016D01*
X62995041Y-77682135D01*
X63046414Y-77637618D01*
X63197639Y-77567102D01*
X63376877Y-77441598D01*
X63531598Y-77286877D01*
X63657102Y-77107639D01*
X63749575Y-76909330D01*
X63806207Y-76697977D01*
X63825277Y-76480000D01*
X63806207Y-76262023D01*
X63754406Y-76068699D01*
X63749577Y-76050677D01*
X63749576Y-76050676D01*
X63749575Y-76050670D01*
X63657102Y-75852362D01*
X63657100Y-75852359D01*
X63657099Y-75852357D01*
X63531599Y-75673124D01*
X63467395Y-75608920D01*
X63376877Y-75518402D01*
X63238978Y-75421844D01*
X63197638Y-75392897D01*
X63046416Y-75322381D01*
X62993977Y-75276208D01*
X62974825Y-75209015D01*
X62995041Y-75142134D01*
X63046414Y-75097619D01*
X63197639Y-75027102D01*
X63376877Y-74901598D01*
X63531598Y-74746877D01*
X63657102Y-74567639D01*
X63749575Y-74369330D01*
X63806207Y-74157977D01*
X63825277Y-73940000D01*
X63806207Y-73722023D01*
X63781551Y-73630007D01*
X63783214Y-73560158D01*
X63813643Y-73510235D01*
X64397398Y-72926480D01*
X64403489Y-72921138D01*
X64430451Y-72900451D01*
X64453609Y-72870270D01*
X64453612Y-72870268D01*
X64522699Y-72780232D01*
X64567696Y-72671598D01*
X64580687Y-72640236D01*
X64594255Y-72537179D01*
X64600466Y-72490000D01*
X64600084Y-72487102D01*
X64596031Y-72456312D01*
X64595500Y-72448211D01*
X64595500Y-67801780D01*
X64596031Y-67793678D01*
X64596181Y-67792543D01*
X64600465Y-67760000D01*
X64595766Y-67724313D01*
X64595765Y-67724294D01*
X64594818Y-67717101D01*
X64580687Y-67609764D01*
X64522698Y-67469767D01*
X64522697Y-67469766D01*
X64522697Y-67469765D01*
X64522697Y-67469764D01*
X64510483Y-67453848D01*
X64510481Y-67453846D01*
X64453612Y-67379732D01*
X64451140Y-67376510D01*
X64451139Y-67376510D01*
X64438392Y-67359898D01*
X64430451Y-67349549D01*
X64430449Y-67349548D01*
X64430449Y-67349547D01*
X64417111Y-67339313D01*
X64403490Y-67328861D01*
X64397400Y-67323520D01*
X63612726Y-66538847D01*
X63579242Y-66477524D01*
X63584226Y-66407832D01*
X63598834Y-66380042D01*
X63733596Y-66187585D01*
X63733599Y-66187579D01*
X63833429Y-65973492D01*
X63833433Y-65973483D01*
X63894567Y-65745326D01*
X63894569Y-65745315D01*
X63915157Y-65510001D01*
X63915157Y-65509998D01*
X63894569Y-65274684D01*
X63894567Y-65274673D01*
X63833433Y-65046516D01*
X63833429Y-65046507D01*
X63733600Y-64832423D01*
X63733599Y-64832421D01*
X63674925Y-64748626D01*
X63674925Y-64748625D01*
X63043076Y-65380474D01*
X63019493Y-65300156D01*
X62941761Y-65179202D01*
X62833100Y-65085048D01*
X62702315Y-65025320D01*
X62692532Y-65023913D01*
X63321373Y-64395073D01*
X63321373Y-64395072D01*
X63237583Y-64336402D01*
X63237579Y-64336400D01*
X63154134Y-64297489D01*
X63101695Y-64251317D01*
X63082543Y-64184123D01*
X63102759Y-64117242D01*
X63154132Y-64072726D01*
X63187639Y-64057102D01*
X63366877Y-63931598D01*
X63521598Y-63776877D01*
X63646587Y-63598374D01*
X63701162Y-63554752D01*
X63748160Y-63545500D01*
X65411840Y-63545500D01*
X65478879Y-63565185D01*
X65513412Y-63598373D01*
X65638402Y-63776877D01*
X65793123Y-63931598D01*
X65972361Y-64057102D01*
X66005867Y-64072726D01*
X66058305Y-64118896D01*
X66077457Y-64186090D01*
X66057242Y-64252971D01*
X66005866Y-64297489D01*
X65922419Y-64336401D01*
X65838625Y-64395072D01*
X65838625Y-64395073D01*
X66467465Y-65023913D01*
X66457685Y-65025320D01*
X66326900Y-65085048D01*
X66218239Y-65179202D01*
X66140507Y-65300156D01*
X66116923Y-65380475D01*
X65485073Y-64748625D01*
X65485072Y-64748626D01*
X65426401Y-64832419D01*
X65326570Y-65046507D01*
X65326566Y-65046516D01*
X65265432Y-65274673D01*
X65265430Y-65274684D01*
X65244843Y-65509998D01*
X65244843Y-65510001D01*
X65265430Y-65745315D01*
X65265432Y-65745326D01*
X65326566Y-65973483D01*
X65326570Y-65973492D01*
X65426400Y-66187579D01*
X65426402Y-66187583D01*
X65485072Y-66271373D01*
X65485073Y-66271373D01*
X66116923Y-65639523D01*
X66140507Y-65719844D01*
X66218239Y-65840798D01*
X66326900Y-65934952D01*
X66457685Y-65994680D01*
X66467466Y-65996086D01*
X65838625Y-66624925D01*
X65922421Y-66683599D01*
X66136507Y-66783429D01*
X66136516Y-66783433D01*
X66364673Y-66844567D01*
X66364684Y-66844569D01*
X66599998Y-66865157D01*
X66600002Y-66865157D01*
X66835315Y-66844569D01*
X66835326Y-66844567D01*
X67063483Y-66783433D01*
X67063492Y-66783429D01*
X67277578Y-66683600D01*
X67277582Y-66683598D01*
X67361373Y-66624926D01*
X67361373Y-66624925D01*
X66732533Y-65996086D01*
X66742315Y-65994680D01*
X66873100Y-65934952D01*
X66981761Y-65840798D01*
X67059493Y-65719844D01*
X67083076Y-65639524D01*
X67714925Y-66271373D01*
X67714926Y-66271373D01*
X67773598Y-66187582D01*
X67773600Y-66187578D01*
X67873429Y-65973492D01*
X67873433Y-65973483D01*
X67934567Y-65745326D01*
X67934569Y-65745315D01*
X67955157Y-65510001D01*
X67955157Y-65509998D01*
X67934569Y-65274684D01*
X67934567Y-65274673D01*
X67873433Y-65046516D01*
X67873429Y-65046507D01*
X67773600Y-64832423D01*
X67773599Y-64832421D01*
X67714925Y-64748626D01*
X67714925Y-64748625D01*
X67083076Y-65380475D01*
X67059493Y-65300156D01*
X66981761Y-65179202D01*
X66873100Y-65085048D01*
X66742315Y-65025320D01*
X66732532Y-65023913D01*
X67361373Y-64395073D01*
X67361373Y-64395072D01*
X67277583Y-64336402D01*
X67277579Y-64336400D01*
X67194134Y-64297489D01*
X67141695Y-64251317D01*
X67122543Y-64184123D01*
X67142759Y-64117242D01*
X67194132Y-64072726D01*
X67227639Y-64057102D01*
X67406877Y-63931598D01*
X67561598Y-63776877D01*
X67687102Y-63597639D01*
X67779575Y-63399330D01*
X67836207Y-63187977D01*
X67855277Y-62970000D01*
X67855030Y-62967181D01*
X67850205Y-62912023D01*
X67836207Y-62752023D01*
X67779575Y-62540670D01*
X67687102Y-62342362D01*
X67687100Y-62342359D01*
X67687099Y-62342357D01*
X67561599Y-62163124D01*
X67484839Y-62086364D01*
X67406877Y-62008402D01*
X67227639Y-61882898D01*
X67076414Y-61812381D01*
X67023977Y-61766210D01*
X67004825Y-61699016D01*
X67025041Y-61632135D01*
X67076414Y-61587618D01*
X67227639Y-61517102D01*
X67406877Y-61391598D01*
X67561598Y-61236877D01*
X67687102Y-61057639D01*
X67779575Y-60859330D01*
X67836207Y-60647977D01*
X67855277Y-60430000D01*
X67854789Y-60424426D01*
X67848888Y-60356977D01*
X67836207Y-60212023D01*
X67798292Y-60070524D01*
X67779577Y-60000677D01*
X67779576Y-60000676D01*
X67779575Y-60000670D01*
X67687102Y-59802362D01*
X67687100Y-59802359D01*
X67687099Y-59802357D01*
X67561599Y-59623124D01*
X67484839Y-59546364D01*
X67406877Y-59468402D01*
X67227639Y-59342898D01*
X67076414Y-59272381D01*
X67023977Y-59226210D01*
X67004825Y-59159016D01*
X67025041Y-59092135D01*
X67076414Y-59047618D01*
X67227639Y-58977102D01*
X67406877Y-58851598D01*
X67561598Y-58696877D01*
X67687102Y-58517639D01*
X67779575Y-58319330D01*
X67836207Y-58107977D01*
X67854096Y-57903496D01*
X67855277Y-57890002D01*
X67855277Y-57889997D01*
X67850861Y-57839519D01*
X67836207Y-57672023D01*
X67779575Y-57460670D01*
X67687102Y-57262362D01*
X67687100Y-57262359D01*
X67687099Y-57262357D01*
X67561599Y-57083124D01*
X67508923Y-57030448D01*
X67406877Y-56928402D01*
X67268978Y-56831844D01*
X67227638Y-56802897D01*
X67103652Y-56745082D01*
X67029330Y-56710425D01*
X67029326Y-56710424D01*
X67029322Y-56710422D01*
X66817977Y-56653793D01*
X66600002Y-56634723D01*
X66599998Y-56634723D01*
X66464310Y-56646594D01*
X66382023Y-56653793D01*
X66382020Y-56653793D01*
X66170677Y-56710422D01*
X66170668Y-56710426D01*
X65972361Y-56802898D01*
X65972357Y-56802900D01*
X65793121Y-56928402D01*
X65638402Y-57083121D01*
X65512900Y-57262357D01*
X65512898Y-57262361D01*
X65460621Y-57374470D01*
X65422945Y-57455267D01*
X65420426Y-57460668D01*
X65420422Y-57460677D01*
X65363793Y-57672020D01*
X65363793Y-57672023D01*
X65361013Y-57703799D01*
X65344723Y-57889997D01*
X65344723Y-57890002D01*
X65363793Y-58107975D01*
X65363793Y-58107979D01*
X65420422Y-58319322D01*
X65420424Y-58319326D01*
X65420425Y-58319330D01*
X65449815Y-58382357D01*
X65512897Y-58517638D01*
X65512898Y-58517639D01*
X65638402Y-58696877D01*
X65793123Y-58851598D01*
X65972360Y-58977101D01*
X65972361Y-58977102D01*
X66123583Y-59047618D01*
X66176022Y-59093790D01*
X66195174Y-59160984D01*
X66174958Y-59227865D01*
X66123583Y-59272382D01*
X65972361Y-59342898D01*
X65972357Y-59342900D01*
X65793121Y-59468402D01*
X65638402Y-59623121D01*
X65512900Y-59802357D01*
X65512898Y-59802361D01*
X65420426Y-60000668D01*
X65420422Y-60000677D01*
X65363793Y-60212020D01*
X65363793Y-60212023D01*
X65363572Y-60214551D01*
X65344723Y-60429997D01*
X65344723Y-60430002D01*
X65350366Y-60494500D01*
X65360931Y-60615268D01*
X65363793Y-60647975D01*
X65363793Y-60647979D01*
X65420422Y-60859322D01*
X65420424Y-60859326D01*
X65420425Y-60859330D01*
X65445220Y-60912502D01*
X65512897Y-61057638D01*
X65521837Y-61070405D01*
X65638402Y-61236877D01*
X65793123Y-61391598D01*
X65972360Y-61517101D01*
X65972361Y-61517102D01*
X66123583Y-61587618D01*
X66176022Y-61633790D01*
X66195174Y-61700984D01*
X66174958Y-61767865D01*
X66123583Y-61812382D01*
X65972361Y-61882898D01*
X65972357Y-61882900D01*
X65793121Y-62008402D01*
X65638403Y-62163120D01*
X65571324Y-62258920D01*
X65513414Y-62341623D01*
X65458840Y-62385248D01*
X65411841Y-62394500D01*
X63748159Y-62394500D01*
X63681120Y-62374815D01*
X63646585Y-62341624D01*
X63565760Y-62226193D01*
X63521599Y-62163124D01*
X63444839Y-62086364D01*
X63366877Y-62008402D01*
X63187639Y-61882898D01*
X63036414Y-61812381D01*
X62983977Y-61766210D01*
X62964825Y-61699016D01*
X62985041Y-61632135D01*
X63036414Y-61587618D01*
X63187639Y-61517102D01*
X63366877Y-61391598D01*
X63521598Y-61236877D01*
X63647102Y-61057639D01*
X63739575Y-60859330D01*
X63796207Y-60647977D01*
X63815277Y-60430000D01*
X63814789Y-60424426D01*
X63808888Y-60356977D01*
X63796207Y-60212023D01*
X63758292Y-60070524D01*
X63739577Y-60000677D01*
X63739576Y-60000676D01*
X63739575Y-60000670D01*
X63647102Y-59802362D01*
X63647100Y-59802359D01*
X63647099Y-59802357D01*
X63521599Y-59623124D01*
X63444839Y-59546364D01*
X63366877Y-59468402D01*
X63222559Y-59367349D01*
X63187638Y-59342897D01*
X63036416Y-59272381D01*
X62983977Y-59226208D01*
X62964825Y-59159015D01*
X62985041Y-59092134D01*
X63036414Y-59047619D01*
X63187639Y-58977102D01*
X63366877Y-58851598D01*
X63521598Y-58696877D01*
X63647102Y-58517639D01*
X63739575Y-58319330D01*
X63796207Y-58107977D01*
X63814096Y-57903496D01*
X63815277Y-57890002D01*
X63815277Y-57889997D01*
X63810861Y-57839519D01*
X63796207Y-57672023D01*
X63739575Y-57460670D01*
X63647102Y-57262362D01*
X63647100Y-57262359D01*
X63647099Y-57262357D01*
X63521599Y-57083124D01*
X63468923Y-57030448D01*
X63366877Y-56928402D01*
X63228978Y-56831844D01*
X63187638Y-56802897D01*
X63063652Y-56745082D01*
X62989330Y-56710425D01*
X62989326Y-56710424D01*
X62989322Y-56710422D01*
X62777977Y-56653793D01*
X62560002Y-56634723D01*
X62559998Y-56634723D01*
X62424310Y-56646594D01*
X62342023Y-56653793D01*
X62342020Y-56653793D01*
X62130677Y-56710422D01*
X62130668Y-56710426D01*
X61932361Y-56802898D01*
X61932357Y-56802900D01*
X61753121Y-56928402D01*
X61598402Y-57083121D01*
X61472900Y-57262357D01*
X61472898Y-57262361D01*
X61420621Y-57374470D01*
X61382945Y-57455267D01*
X61380426Y-57460668D01*
X61380422Y-57460677D01*
X61323793Y-57672020D01*
X61323793Y-57672023D01*
X61321013Y-57703799D01*
X61304723Y-57889997D01*
X61304723Y-57890002D01*
X61323793Y-58107975D01*
X61323793Y-58107979D01*
X61380422Y-58319322D01*
X61380424Y-58319326D01*
X61380425Y-58319330D01*
X61409815Y-58382357D01*
X61472897Y-58517638D01*
X61472898Y-58517639D01*
X61598402Y-58696877D01*
X61753123Y-58851598D01*
X61932360Y-58977101D01*
X61932361Y-58977102D01*
X62083583Y-59047618D01*
X62136022Y-59093790D01*
X62155174Y-59160984D01*
X62134958Y-59227865D01*
X62083583Y-59272382D01*
X61932361Y-59342898D01*
X61932357Y-59342900D01*
X61753121Y-59468402D01*
X61598402Y-59623121D01*
X61472900Y-59802357D01*
X61472898Y-59802361D01*
X61380426Y-60000668D01*
X61380422Y-60000677D01*
X61323793Y-60212020D01*
X61323793Y-60212023D01*
X61323572Y-60214551D01*
X61304723Y-60429997D01*
X61304723Y-60430002D01*
X61310366Y-60494500D01*
X61320931Y-60615268D01*
X61323793Y-60647975D01*
X61323793Y-60647979D01*
X61380422Y-60859322D01*
X61380424Y-60859326D01*
X61380425Y-60859330D01*
X61405220Y-60912502D01*
X61472897Y-61057638D01*
X61481837Y-61070405D01*
X61598402Y-61236877D01*
X61753123Y-61391598D01*
X61932360Y-61517101D01*
X61932361Y-61517102D01*
X62083583Y-61587618D01*
X62136022Y-61633790D01*
X62155174Y-61700984D01*
X62134958Y-61767865D01*
X62083583Y-61812382D01*
X61932363Y-61882897D01*
X61932361Y-61882898D01*
X61873149Y-61924359D01*
X61806942Y-61946687D01*
X61739175Y-61929675D01*
X61714345Y-61910465D01*
X60225887Y-60422007D01*
X60192402Y-60360684D01*
X60197386Y-60290992D01*
X60239258Y-60235059D01*
X60281471Y-60214552D01*
X60449330Y-60169575D01*
X60647639Y-60077102D01*
X60826877Y-59951598D01*
X60981598Y-59796877D01*
X61107102Y-59617639D01*
X61199575Y-59419330D01*
X61256207Y-59207977D01*
X61275277Y-58990000D01*
X61256207Y-58772023D01*
X61204934Y-58580670D01*
X61199577Y-58560677D01*
X61199576Y-58560676D01*
X61199575Y-58560670D01*
X61107102Y-58362362D01*
X61107100Y-58362359D01*
X61107099Y-58362357D01*
X60981599Y-58183124D01*
X60906450Y-58107975D01*
X60826877Y-58028402D01*
X60676202Y-57922898D01*
X60647638Y-57902897D01*
X60548484Y-57856661D01*
X60449330Y-57810425D01*
X60449326Y-57810424D01*
X60449322Y-57810422D01*
X60237977Y-57753793D01*
X60020002Y-57734723D01*
X60019998Y-57734723D01*
X59885213Y-57746515D01*
X59802023Y-57753793D01*
X59802020Y-57753793D01*
X59590677Y-57810422D01*
X59590668Y-57810426D01*
X59392361Y-57902898D01*
X59392357Y-57902900D01*
X59213121Y-58028402D01*
X59058402Y-58183121D01*
X58932900Y-58362357D01*
X58932897Y-58362363D01*
X58917273Y-58395868D01*
X58871099Y-58448307D01*
X58803905Y-58467457D01*
X58737025Y-58447240D01*
X58692509Y-58395865D01*
X58653598Y-58312419D01*
X58518113Y-58118926D01*
X58518108Y-58118920D01*
X58351082Y-57951894D01*
X58157578Y-57816399D01*
X57943492Y-57716570D01*
X57943486Y-57716567D01*
X57729999Y-57659364D01*
X57729999Y-58554498D01*
X57622315Y-58505320D01*
X57515763Y-58490000D01*
X57444237Y-58490000D01*
X57337685Y-58505320D01*
X57230000Y-58554498D01*
X57230000Y-57659364D01*
X57229999Y-57659364D01*
X57016513Y-57716567D01*
X57016507Y-57716570D01*
X56802422Y-57816399D01*
X56802420Y-57816400D01*
X56608926Y-57951886D01*
X56608920Y-57951891D01*
X56441891Y-58118920D01*
X56441886Y-58118926D01*
X56306400Y-58312420D01*
X56306399Y-58312422D01*
X56267489Y-58395866D01*
X56221317Y-58448305D01*
X56154123Y-58467457D01*
X56087242Y-58447241D01*
X56042725Y-58395866D01*
X56042725Y-58395865D01*
X56027102Y-58362362D01*
X56027100Y-58362359D01*
X56027099Y-58362357D01*
X55901599Y-58183124D01*
X55826450Y-58107975D01*
X55746877Y-58028402D01*
X55596202Y-57922898D01*
X55567638Y-57902897D01*
X55468484Y-57856661D01*
X55369330Y-57810425D01*
X55369326Y-57810424D01*
X55369322Y-57810422D01*
X55157977Y-57753793D01*
X54940002Y-57734723D01*
X54939998Y-57734723D01*
X54805213Y-57746515D01*
X54722023Y-57753793D01*
X54722020Y-57753793D01*
X54510677Y-57810422D01*
X54510668Y-57810426D01*
X54312361Y-57902898D01*
X54312357Y-57902900D01*
X54133121Y-58028402D01*
X53978402Y-58183121D01*
X53852900Y-58362357D01*
X53852898Y-58362361D01*
X53760426Y-58560668D01*
X53760422Y-58560677D01*
X53703793Y-58772020D01*
X53703793Y-58772023D01*
X53702619Y-58785439D01*
X53684723Y-58989997D01*
X53684723Y-58990002D01*
X53686473Y-59010000D01*
X53703081Y-59199844D01*
X53703793Y-59207975D01*
X53703793Y-59207979D01*
X53760422Y-59419322D01*
X53760424Y-59419326D01*
X53760425Y-59419330D01*
X53786235Y-59474680D01*
X53852897Y-59617638D01*
X53866901Y-59637638D01*
X53978402Y-59796877D01*
X54133123Y-59951598D01*
X54283881Y-60057160D01*
X54312361Y-60077102D01*
X54449170Y-60140897D01*
X54495138Y-60177789D01*
X54506388Y-60192450D01*
X54506390Y-60192452D01*
X54507431Y-60193808D01*
X54529546Y-60222630D01*
X54529547Y-60222631D01*
X54529549Y-60222633D01*
X54545743Y-60235059D01*
X54556506Y-60243318D01*
X54562609Y-60248671D01*
X55761338Y-61447400D01*
X55766679Y-61453490D01*
X55787367Y-61480451D01*
X55798729Y-61489169D01*
X55815315Y-61501897D01*
X55815332Y-61501911D01*
X55883784Y-61554435D01*
X55907586Y-61572699D01*
X55959300Y-61594119D01*
X56047582Y-61630687D01*
X56160098Y-61645500D01*
X56160099Y-61645500D01*
X56162112Y-61645765D01*
X56162131Y-61645766D01*
X56197818Y-61650465D01*
X56197819Y-61650465D01*
X56211083Y-61648718D01*
X56231500Y-61646030D01*
X56239599Y-61645500D01*
X56909821Y-61645500D01*
X56976860Y-61665185D01*
X57022615Y-61717989D01*
X57032559Y-61787147D01*
X57003534Y-61850703D01*
X56962226Y-61881882D01*
X56802422Y-61956399D01*
X56802420Y-61956400D01*
X56608926Y-62091886D01*
X56608920Y-62091891D01*
X56441891Y-62258920D01*
X56441886Y-62258926D01*
X56306400Y-62452420D01*
X56306399Y-62452422D01*
X56267489Y-62535866D01*
X56221317Y-62588305D01*
X56154123Y-62607457D01*
X56087242Y-62587241D01*
X56042725Y-62535866D01*
X56040839Y-62531822D01*
X56027102Y-62502362D01*
X56027100Y-62502359D01*
X56027099Y-62502357D01*
X55901599Y-62323124D01*
X55825975Y-62247500D01*
X55746877Y-62168402D01*
X55567639Y-62042898D01*
X55567640Y-62042898D01*
X55567638Y-62042897D01*
X55459884Y-61992651D01*
X55369330Y-61950425D01*
X55369326Y-61950424D01*
X55369322Y-61950422D01*
X55157977Y-61893793D01*
X54940002Y-61874723D01*
X54939998Y-61874723D01*
X54794682Y-61887436D01*
X54722023Y-61893793D01*
X54722020Y-61893793D01*
X54510677Y-61950422D01*
X54510668Y-61950426D01*
X54312361Y-62042898D01*
X54312357Y-62042900D01*
X54133121Y-62168402D01*
X53978402Y-62323121D01*
X53852900Y-62502357D01*
X53852898Y-62502361D01*
X53760426Y-62700668D01*
X53760422Y-62700677D01*
X53703793Y-62912020D01*
X53703793Y-62912023D01*
X53702012Y-62932382D01*
X53684863Y-63128403D01*
X53684723Y-63130000D01*
X53703081Y-63339844D01*
X53703793Y-63347975D01*
X53703793Y-63347979D01*
X53760422Y-63559322D01*
X53760424Y-63559326D01*
X53760425Y-63559330D01*
X53793379Y-63630000D01*
X53852897Y-63757638D01*
X53866371Y-63776881D01*
X53978402Y-63936877D01*
X54133123Y-64091598D01*
X54311625Y-64216586D01*
X54355248Y-64271161D01*
X54364500Y-64318159D01*
X54364500Y-64378219D01*
X54363969Y-64386321D01*
X54359535Y-64419998D01*
X54363970Y-64453695D01*
X54364500Y-64457720D01*
X54378410Y-64563380D01*
X54379313Y-64570235D01*
X54379314Y-64570239D01*
X54421634Y-64672408D01*
X54437300Y-64710230D01*
X54437302Y-64710233D01*
X54508258Y-64802705D01*
X54508278Y-64802731D01*
X54529546Y-64830448D01*
X54529547Y-64830449D01*
X54529549Y-64830451D01*
X54553053Y-64848486D01*
X54556506Y-64851136D01*
X54562609Y-64856489D01*
X55293520Y-65587400D01*
X55298861Y-65593490D01*
X55319549Y-65620451D01*
X55330911Y-65629169D01*
X55347497Y-65641897D01*
X55347514Y-65641911D01*
X55398849Y-65681301D01*
X55439768Y-65712699D01*
X55480328Y-65729499D01*
X55480329Y-65729500D01*
X55480330Y-65729500D01*
X55579764Y-65770687D01*
X55692280Y-65785500D01*
X55730000Y-65790466D01*
X55763688Y-65786030D01*
X55771786Y-65785500D01*
X57259962Y-65785500D01*
X57327001Y-65805185D01*
X57372756Y-65857989D01*
X57382700Y-65927147D01*
X57353675Y-65990703D01*
X57294897Y-66028477D01*
X57270770Y-66033027D01*
X57262023Y-66033793D01*
X57262020Y-66033793D01*
X57050677Y-66090422D01*
X57050668Y-66090426D01*
X56852361Y-66182898D01*
X56852357Y-66182900D01*
X56673121Y-66308402D01*
X56518402Y-66463121D01*
X56392900Y-66642357D01*
X56392898Y-66642361D01*
X56322382Y-66793583D01*
X56276209Y-66846022D01*
X56209016Y-66865174D01*
X56142135Y-66844958D01*
X56097618Y-66793583D01*
X56066682Y-66727241D01*
X56027102Y-66642362D01*
X56027100Y-66642359D01*
X56027099Y-66642357D01*
X55901599Y-66463124D01*
X55837395Y-66398920D01*
X55746877Y-66308402D01*
X55608978Y-66211844D01*
X55567638Y-66182897D01*
X55449125Y-66127634D01*
X55369330Y-66090425D01*
X55369326Y-66090424D01*
X55369322Y-66090422D01*
X55157977Y-66033793D01*
X54940002Y-66014723D01*
X54939998Y-66014723D01*
X54794681Y-66027436D01*
X54722023Y-66033793D01*
X54722020Y-66033793D01*
X54510677Y-66090422D01*
X54510668Y-66090426D01*
X54312361Y-66182898D01*
X54312357Y-66182900D01*
X54133121Y-66308402D01*
X53978402Y-66463121D01*
X53852900Y-66642357D01*
X53852898Y-66642361D01*
X53760426Y-66840668D01*
X53760422Y-66840677D01*
X53703793Y-67052020D01*
X53703793Y-67052023D01*
X53702365Y-67068351D01*
X53684723Y-67269997D01*
X53684723Y-67270002D01*
X53692588Y-67359898D01*
X53703081Y-67479844D01*
X53703793Y-67487975D01*
X53703793Y-67487979D01*
X53760422Y-67699322D01*
X53760424Y-67699326D01*
X53760425Y-67699330D01*
X53788716Y-67760000D01*
X53852897Y-67897638D01*
X53853432Y-67898402D01*
X53978402Y-68076877D01*
X54133123Y-68231598D01*
X54312361Y-68357102D01*
X54510670Y-68449575D01*
X54722023Y-68506207D01*
X54903046Y-68522044D01*
X54939998Y-68525277D01*
X54940000Y-68525277D01*
X54940002Y-68525277D01*
X54976954Y-68522044D01*
X55157977Y-68506207D01*
X55369330Y-68449575D01*
X55567639Y-68357102D01*
X55746877Y-68231598D01*
X55901598Y-68076877D01*
X56027102Y-67897639D01*
X56097618Y-67746414D01*
X56143790Y-67693977D01*
X56210984Y-67674825D01*
X56277865Y-67695041D01*
X56322381Y-67746414D01*
X56392898Y-67897639D01*
X56518402Y-68076877D01*
X56673123Y-68231598D01*
X56852361Y-68357102D01*
X57050670Y-68449575D01*
X57262023Y-68506207D01*
X57443046Y-68522044D01*
X57479998Y-68525277D01*
X57480000Y-68525277D01*
X57480002Y-68525277D01*
X57516954Y-68522044D01*
X57697977Y-68506207D01*
X57909330Y-68449575D01*
X58107639Y-68357102D01*
X58286877Y-68231598D01*
X58441598Y-68076877D01*
X58567102Y-67897639D01*
X58582726Y-67864132D01*
X58628896Y-67811695D01*
X58696090Y-67792543D01*
X58762971Y-67812758D01*
X58807489Y-67864134D01*
X58846399Y-67947578D01*
X58981894Y-68141082D01*
X59148917Y-68308105D01*
X59342421Y-68443600D01*
X59556507Y-68543429D01*
X59556516Y-68543433D01*
X59769998Y-68600635D01*
X59769999Y-68600634D01*
X59769999Y-67705501D01*
X59877685Y-67754680D01*
X59984237Y-67770000D01*
X60055763Y-67770000D01*
X60162315Y-67754680D01*
X60270000Y-67705501D01*
X60270000Y-68600633D01*
X60483483Y-68543433D01*
X60483492Y-68543430D01*
X60588094Y-68494653D01*
X60657171Y-68484161D01*
X60720955Y-68512680D01*
X60759195Y-68571157D01*
X60764499Y-68607035D01*
X60764499Y-70062964D01*
X60744814Y-70130003D01*
X60692010Y-70175758D01*
X60622852Y-70185702D01*
X60588095Y-70175346D01*
X60483497Y-70126571D01*
X60483486Y-70126567D01*
X60270000Y-70069364D01*
X60270000Y-70964498D01*
X60162315Y-70915320D01*
X60055763Y-70900000D01*
X59984237Y-70900000D01*
X59877685Y-70915320D01*
X59769999Y-70964498D01*
X59769999Y-70069364D01*
X59769998Y-70069364D01*
X59556505Y-70126570D01*
X59342422Y-70226399D01*
X59342420Y-70226400D01*
X59148926Y-70361886D01*
X59148920Y-70361891D01*
X58981891Y-70528920D01*
X58981886Y-70528926D01*
X58846400Y-70722420D01*
X58846399Y-70722422D01*
X58807489Y-70805866D01*
X58761317Y-70858305D01*
X58694123Y-70877457D01*
X58627242Y-70857241D01*
X58582725Y-70805866D01*
X58567102Y-70772362D01*
X58567099Y-70772358D01*
X58567099Y-70772357D01*
X58441599Y-70593124D01*
X58365452Y-70516977D01*
X58286877Y-70438402D01*
X58134500Y-70331706D01*
X58107638Y-70312897D01*
X57976198Y-70251606D01*
X57909330Y-70220425D01*
X57909326Y-70220424D01*
X57909322Y-70220422D01*
X57697977Y-70163793D01*
X57480002Y-70144723D01*
X57479998Y-70144723D01*
X57345510Y-70156489D01*
X57262023Y-70163793D01*
X57262020Y-70163793D01*
X57050677Y-70220422D01*
X57050668Y-70220426D01*
X56852361Y-70312898D01*
X56852357Y-70312900D01*
X56673121Y-70438402D01*
X56518402Y-70593121D01*
X56392900Y-70772357D01*
X56392900Y-70772358D01*
X56322381Y-70923584D01*
X56276208Y-70976023D01*
X56209014Y-70995174D01*
X56142133Y-70974958D01*
X56097618Y-70923584D01*
X56027102Y-70772362D01*
X56027099Y-70772358D01*
X56027099Y-70772357D01*
X55901599Y-70593124D01*
X55825452Y-70516977D01*
X55746877Y-70438402D01*
X55594500Y-70331706D01*
X55567638Y-70312897D01*
X55436198Y-70251606D01*
X55369330Y-70220425D01*
X55369326Y-70220424D01*
X55369322Y-70220422D01*
X55157977Y-70163793D01*
X54940002Y-70144723D01*
X54939998Y-70144723D01*
X54805510Y-70156489D01*
X54722023Y-70163793D01*
X54722020Y-70163793D01*
X54510677Y-70220422D01*
X54510668Y-70220426D01*
X54312361Y-70312898D01*
X54312357Y-70312900D01*
X54133121Y-70438402D01*
X53978402Y-70593121D01*
X53852900Y-70772357D01*
X53852898Y-70772361D01*
X53760426Y-70970668D01*
X53760422Y-70970677D01*
X53703793Y-71182020D01*
X53703793Y-71182023D01*
X53702727Y-71194205D01*
X53684723Y-71399997D01*
X53684723Y-71400002D01*
X53150497Y-71400002D01*
X53150498Y-63494893D01*
X53170183Y-63427858D01*
X53203056Y-63394985D01*
X53203016Y-63394938D01*
X53203674Y-63394367D01*
X53207464Y-63390578D01*
X53209710Y-63389133D01*
X53209718Y-63389130D01*
X53313055Y-63299589D01*
X53386978Y-63184561D01*
X53425500Y-63053367D01*
X53425500Y-62916633D01*
X53425287Y-62915909D01*
X53388851Y-62791819D01*
X53386978Y-62785440D01*
X53386979Y-62785440D01*
X53313059Y-62670417D01*
X53313056Y-62670413D01*
X53313055Y-62670411D01*
X53313050Y-62670406D01*
X53309410Y-62666206D01*
X53280384Y-62602651D01*
X53290325Y-62533492D01*
X53309410Y-62503794D01*
X53313046Y-62499596D01*
X53313055Y-62499589D01*
X53386978Y-62384561D01*
X53425500Y-62253367D01*
X53425500Y-62116633D01*
X53423268Y-62109033D01*
X53402197Y-62037269D01*
X53386978Y-61985440D01*
X53386979Y-61985440D01*
X53313059Y-61870417D01*
X53313056Y-61870413D01*
X53313055Y-61870411D01*
X53313050Y-61870406D01*
X53309410Y-61866206D01*
X53280384Y-61802651D01*
X53290325Y-61733492D01*
X53309410Y-61703794D01*
X53313046Y-61699596D01*
X53313055Y-61699589D01*
X53386978Y-61584561D01*
X53425500Y-61453367D01*
X53425500Y-61316633D01*
X53423922Y-61311260D01*
X53402083Y-61236881D01*
X53386978Y-61185440D01*
X53386979Y-61185440D01*
X53313059Y-61070417D01*
X53313056Y-61070413D01*
X53313055Y-61070411D01*
X53313050Y-61070406D01*
X53309410Y-61066206D01*
X53280384Y-61002651D01*
X53290325Y-60933492D01*
X53309410Y-60903794D01*
X53313046Y-60899596D01*
X53313055Y-60899589D01*
X53386978Y-60784561D01*
X53425500Y-60653367D01*
X53425500Y-60516633D01*
X53416443Y-60485789D01*
X53403009Y-60440035D01*
X53386978Y-60385440D01*
X53386979Y-60385440D01*
X53313059Y-60270417D01*
X53313056Y-60270413D01*
X53313055Y-60270411D01*
X53313050Y-60270406D01*
X53309410Y-60266206D01*
X53280384Y-60202651D01*
X53290325Y-60133492D01*
X53309410Y-60103794D01*
X53313046Y-60099596D01*
X53313055Y-60099589D01*
X53386978Y-59984561D01*
X53425500Y-59853367D01*
X53425500Y-59716633D01*
X53386978Y-59585440D01*
X53386979Y-59585440D01*
X53313059Y-59470417D01*
X53313056Y-59470413D01*
X53313055Y-59470411D01*
X53313050Y-59470406D01*
X53309410Y-59466206D01*
X53280384Y-59402651D01*
X53290325Y-59333492D01*
X53309410Y-59303794D01*
X53313046Y-59299596D01*
X53313055Y-59299589D01*
X53386978Y-59184561D01*
X53425500Y-59053367D01*
X53425500Y-58916633D01*
X53386978Y-58785440D01*
X53386979Y-58785440D01*
X53313059Y-58670417D01*
X53313056Y-58670413D01*
X53313055Y-58670411D01*
X53313050Y-58670406D01*
X53309410Y-58666206D01*
X53280384Y-58602651D01*
X53290325Y-58533492D01*
X53309410Y-58503794D01*
X53313046Y-58499596D01*
X53313055Y-58499589D01*
X53386978Y-58384561D01*
X53425500Y-58253367D01*
X53425500Y-58116633D01*
X53422958Y-58107977D01*
X53405466Y-58048402D01*
X53386978Y-57985440D01*
X53386979Y-57985440D01*
X53313059Y-57870417D01*
X53313056Y-57870413D01*
X53313055Y-57870411D01*
X53313050Y-57870406D01*
X53309410Y-57866206D01*
X53280384Y-57802651D01*
X53290325Y-57733492D01*
X53309410Y-57703794D01*
X53313046Y-57699596D01*
X53313055Y-57699589D01*
X53386978Y-57584561D01*
X53425500Y-57453367D01*
X53425500Y-57316633D01*
X53418809Y-57293847D01*
X53395853Y-57215665D01*
X53386978Y-57185440D01*
X53386979Y-57185440D01*
X53313059Y-57070417D01*
X53313056Y-57070413D01*
X53313055Y-57070411D01*
X53313050Y-57070406D01*
X53309410Y-57066206D01*
X53280384Y-57002651D01*
X53290325Y-56933492D01*
X53309410Y-56903794D01*
X53313046Y-56899596D01*
X53313055Y-56899589D01*
X53386978Y-56784561D01*
X53425500Y-56653367D01*
X53425500Y-56516633D01*
X53411806Y-56469997D01*
X53402910Y-56439700D01*
X53386978Y-56385440D01*
X53386979Y-56385440D01*
X53313057Y-56270413D01*
X53313053Y-56270409D01*
X53209716Y-56180867D01*
X53207456Y-56179415D01*
X53205697Y-56177385D01*
X53203016Y-56175062D01*
X53203350Y-56174676D01*
X53161703Y-56126609D01*
X53150500Y-56075103D01*
X53150500Y-54850002D01*
X53694723Y-54850002D01*
X53697629Y-54883213D01*
X53711342Y-55039966D01*
X53713793Y-55067975D01*
X53713793Y-55067979D01*
X53770422Y-55279322D01*
X53770424Y-55279326D01*
X53770425Y-55279330D01*
X53808058Y-55360034D01*
X53862897Y-55477638D01*
X53884439Y-55508403D01*
X53988402Y-55656877D01*
X54143123Y-55811598D01*
X54322361Y-55937102D01*
X54520670Y-56029575D01*
X54520676Y-56029576D01*
X54520677Y-56029577D01*
X54549440Y-56037284D01*
X54732023Y-56086207D01*
X54914926Y-56102208D01*
X54949998Y-56105277D01*
X54950000Y-56105277D01*
X54950002Y-56105277D01*
X54978254Y-56102805D01*
X55167977Y-56086207D01*
X55379330Y-56029575D01*
X55577639Y-55937102D01*
X55756877Y-55811598D01*
X55911598Y-55656877D01*
X56037102Y-55477639D01*
X56107618Y-55326414D01*
X56153790Y-55273977D01*
X56220984Y-55254825D01*
X56287865Y-55275041D01*
X56332381Y-55326414D01*
X56402898Y-55477639D01*
X56528402Y-55656877D01*
X56683123Y-55811598D01*
X56862361Y-55937102D01*
X57060670Y-56029575D01*
X57060676Y-56029576D01*
X57060677Y-56029577D01*
X57089440Y-56037284D01*
X57272023Y-56086207D01*
X57454926Y-56102208D01*
X57489998Y-56105277D01*
X57490000Y-56105277D01*
X57490002Y-56105277D01*
X57518254Y-56102805D01*
X57707977Y-56086207D01*
X57919330Y-56029575D01*
X58117639Y-55937102D01*
X58296877Y-55811598D01*
X58451598Y-55656877D01*
X58577102Y-55477639D01*
X58647619Y-55326414D01*
X58693789Y-55273977D01*
X58760982Y-55254825D01*
X58827863Y-55275040D01*
X58872381Y-55326416D01*
X58942897Y-55477638D01*
X58964439Y-55508403D01*
X59068402Y-55656877D01*
X59223123Y-55811598D01*
X59402361Y-55937102D01*
X59600670Y-56029575D01*
X59600676Y-56029576D01*
X59600677Y-56029577D01*
X59629440Y-56037284D01*
X59812023Y-56086207D01*
X59994926Y-56102208D01*
X60029998Y-56105277D01*
X60030000Y-56105277D01*
X60030002Y-56105277D01*
X60058254Y-56102805D01*
X60247977Y-56086207D01*
X60459330Y-56029575D01*
X60657639Y-55937102D01*
X60836877Y-55811598D01*
X60991598Y-55656877D01*
X61117102Y-55477639D01*
X61187618Y-55326414D01*
X61233790Y-55273977D01*
X61300984Y-55254825D01*
X61367865Y-55275041D01*
X61412381Y-55326414D01*
X61482898Y-55477639D01*
X61608402Y-55656877D01*
X61763123Y-55811598D01*
X61942361Y-55937102D01*
X62140670Y-56029575D01*
X62140676Y-56029576D01*
X62140677Y-56029577D01*
X62169440Y-56037284D01*
X62352023Y-56086207D01*
X62534926Y-56102208D01*
X62569998Y-56105277D01*
X62570000Y-56105277D01*
X62570002Y-56105277D01*
X62598254Y-56102805D01*
X62787977Y-56086207D01*
X62999330Y-56029575D01*
X63197639Y-55937102D01*
X63376877Y-55811598D01*
X63531598Y-55656877D01*
X63657102Y-55477639D01*
X63727618Y-55326414D01*
X63773790Y-55273977D01*
X63840984Y-55254825D01*
X63907865Y-55275041D01*
X63952381Y-55326414D01*
X64022898Y-55477639D01*
X64148402Y-55656877D01*
X64303123Y-55811598D01*
X64482361Y-55937102D01*
X64680670Y-56029575D01*
X64680676Y-56029576D01*
X64680677Y-56029577D01*
X64709440Y-56037284D01*
X64892023Y-56086207D01*
X65074926Y-56102208D01*
X65109998Y-56105277D01*
X65110000Y-56105277D01*
X65110002Y-56105277D01*
X65138254Y-56102805D01*
X65327977Y-56086207D01*
X65539330Y-56029575D01*
X65737639Y-55937102D01*
X65916877Y-55811598D01*
X66071598Y-55656877D01*
X66197102Y-55477639D01*
X66267619Y-55326414D01*
X66313789Y-55273977D01*
X66380982Y-55254825D01*
X66447863Y-55275040D01*
X66492381Y-55326416D01*
X66562897Y-55477638D01*
X66584439Y-55508403D01*
X66688402Y-55656877D01*
X66843123Y-55811598D01*
X67022361Y-55937102D01*
X67220670Y-56029575D01*
X67220676Y-56029576D01*
X67220677Y-56029577D01*
X67249440Y-56037284D01*
X67432023Y-56086207D01*
X67614926Y-56102208D01*
X67649998Y-56105277D01*
X67650000Y-56105277D01*
X67650002Y-56105277D01*
X67678254Y-56102805D01*
X67867977Y-56086207D01*
X68079330Y-56029575D01*
X68277639Y-55937102D01*
X68456877Y-55811598D01*
X68611598Y-55656877D01*
X68737102Y-55477639D01*
X68829575Y-55279330D01*
X68886207Y-55067977D01*
X68902805Y-54878254D01*
X68905277Y-54850002D01*
X68905277Y-54849997D01*
X68896864Y-54753840D01*
X68886207Y-54632023D01*
X68836141Y-54445174D01*
X68829577Y-54420677D01*
X68829576Y-54420676D01*
X68829575Y-54420670D01*
X68737102Y-54222362D01*
X68737099Y-54222358D01*
X68737099Y-54222357D01*
X68611599Y-54043124D01*
X68540496Y-53972021D01*
X68456877Y-53888402D01*
X68277639Y-53762898D01*
X68126414Y-53692381D01*
X68073977Y-53646210D01*
X68054825Y-53579016D01*
X68075041Y-53512135D01*
X68126414Y-53467618D01*
X68277639Y-53397102D01*
X68456877Y-53271598D01*
X68611598Y-53116877D01*
X68737102Y-52937639D01*
X68829575Y-52739330D01*
X68886207Y-52527977D01*
X68902805Y-52338254D01*
X68905277Y-52310002D01*
X68905277Y-52309997D01*
X68896864Y-52213840D01*
X68886207Y-52092023D01*
X68843329Y-51932000D01*
X68829577Y-51880677D01*
X68829576Y-51880676D01*
X68829575Y-51880670D01*
X68737102Y-51682362D01*
X68737099Y-51682358D01*
X68737099Y-51682357D01*
X68611599Y-51503124D01*
X68558629Y-51450154D01*
X68456877Y-51348402D01*
X68277639Y-51222898D01*
X68126414Y-51152381D01*
X68073977Y-51106210D01*
X68054825Y-51039016D01*
X68075041Y-50972135D01*
X68126414Y-50927618D01*
X68277639Y-50857102D01*
X68456877Y-50731598D01*
X68611598Y-50576877D01*
X68737102Y-50397639D01*
X68829575Y-50199330D01*
X68886207Y-49987977D01*
X68905277Y-49770000D01*
X68903361Y-49748105D01*
X68896864Y-49673840D01*
X68886207Y-49552023D01*
X68838370Y-49373493D01*
X68829577Y-49340677D01*
X68829576Y-49340676D01*
X68829575Y-49340670D01*
X68737102Y-49142362D01*
X68737099Y-49142358D01*
X68737099Y-49142357D01*
X68611599Y-48963124D01*
X68543929Y-48895454D01*
X68456877Y-48808402D01*
X68277639Y-48682898D01*
X68277640Y-48682898D01*
X68277638Y-48682897D01*
X68158694Y-48627433D01*
X68079330Y-48590425D01*
X68079326Y-48590424D01*
X68079322Y-48590422D01*
X67867977Y-48533793D01*
X67650002Y-48514723D01*
X67649998Y-48514723D01*
X67504681Y-48527436D01*
X67432023Y-48533793D01*
X67432020Y-48533793D01*
X67220677Y-48590422D01*
X67220668Y-48590426D01*
X67022361Y-48682898D01*
X67022357Y-48682900D01*
X66843121Y-48808402D01*
X66688402Y-48963121D01*
X66562900Y-49142357D01*
X66562898Y-49142361D01*
X66492382Y-49293583D01*
X66446209Y-49346022D01*
X66379016Y-49365174D01*
X66312135Y-49344958D01*
X66267618Y-49293583D01*
X66200417Y-49149472D01*
X66197102Y-49142362D01*
X66197099Y-49142358D01*
X66197099Y-49142357D01*
X66071599Y-48963124D01*
X66003929Y-48895454D01*
X65916877Y-48808402D01*
X65737639Y-48682898D01*
X65737640Y-48682898D01*
X65737638Y-48682897D01*
X65618694Y-48627433D01*
X65539330Y-48590425D01*
X65539326Y-48590424D01*
X65539322Y-48590422D01*
X65327977Y-48533793D01*
X65110002Y-48514723D01*
X65109998Y-48514723D01*
X64964682Y-48527436D01*
X64892023Y-48533793D01*
X64892020Y-48533793D01*
X64680677Y-48590422D01*
X64680668Y-48590426D01*
X64482361Y-48682898D01*
X64482357Y-48682900D01*
X64303121Y-48808402D01*
X64148402Y-48963121D01*
X64022900Y-49142357D01*
X64022898Y-49142361D01*
X63952382Y-49293583D01*
X63906209Y-49346022D01*
X63839016Y-49365174D01*
X63772135Y-49344958D01*
X63727618Y-49293583D01*
X63660417Y-49149472D01*
X63657102Y-49142362D01*
X63657099Y-49142358D01*
X63657099Y-49142357D01*
X63531599Y-48963124D01*
X63463929Y-48895454D01*
X63376877Y-48808402D01*
X63197639Y-48682898D01*
X63197640Y-48682898D01*
X63197638Y-48682897D01*
X63078694Y-48627433D01*
X62999330Y-48590425D01*
X62999326Y-48590424D01*
X62999322Y-48590422D01*
X62787977Y-48533793D01*
X62570002Y-48514723D01*
X62569998Y-48514723D01*
X62424681Y-48527436D01*
X62352023Y-48533793D01*
X62352020Y-48533793D01*
X62140677Y-48590422D01*
X62140668Y-48590426D01*
X61942361Y-48682898D01*
X61942357Y-48682900D01*
X61763121Y-48808402D01*
X61608402Y-48963121D01*
X61482900Y-49142357D01*
X61482898Y-49142361D01*
X61412382Y-49293583D01*
X61366209Y-49346022D01*
X61299016Y-49365174D01*
X61232135Y-49344958D01*
X61187618Y-49293583D01*
X61120417Y-49149472D01*
X61117102Y-49142362D01*
X61117099Y-49142358D01*
X61117099Y-49142357D01*
X60991599Y-48963124D01*
X60923929Y-48895454D01*
X60836877Y-48808402D01*
X60657639Y-48682898D01*
X60657640Y-48682898D01*
X60657638Y-48682897D01*
X60538694Y-48627433D01*
X60459330Y-48590425D01*
X60459326Y-48590424D01*
X60459322Y-48590422D01*
X60247977Y-48533793D01*
X60030002Y-48514723D01*
X60029998Y-48514723D01*
X59884682Y-48527436D01*
X59812023Y-48533793D01*
X59812020Y-48533793D01*
X59600677Y-48590422D01*
X59600668Y-48590426D01*
X59402361Y-48682898D01*
X59402357Y-48682900D01*
X59223121Y-48808402D01*
X59068402Y-48963121D01*
X58942900Y-49142357D01*
X58942898Y-49142361D01*
X58872382Y-49293583D01*
X58826209Y-49346022D01*
X58759016Y-49365174D01*
X58692135Y-49344958D01*
X58647618Y-49293583D01*
X58580417Y-49149472D01*
X58577102Y-49142362D01*
X58577099Y-49142358D01*
X58577099Y-49142357D01*
X58451599Y-48963124D01*
X58383929Y-48895454D01*
X58296877Y-48808402D01*
X58117639Y-48682898D01*
X58117640Y-48682898D01*
X58117638Y-48682897D01*
X57998694Y-48627433D01*
X57919330Y-48590425D01*
X57919326Y-48590424D01*
X57919322Y-48590422D01*
X57707977Y-48533793D01*
X57490002Y-48514723D01*
X57489998Y-48514723D01*
X57344682Y-48527436D01*
X57272023Y-48533793D01*
X57272020Y-48533793D01*
X57060677Y-48590422D01*
X57060668Y-48590426D01*
X56862361Y-48682898D01*
X56862357Y-48682900D01*
X56683121Y-48808402D01*
X56528402Y-48963121D01*
X56402900Y-49142357D01*
X56402900Y-49142358D01*
X56402898Y-49142361D01*
X56402898Y-49142362D01*
X56399583Y-49149472D01*
X56332381Y-49293584D01*
X56286208Y-49346023D01*
X56219014Y-49365174D01*
X56152133Y-49344958D01*
X56107618Y-49293584D01*
X56037102Y-49142362D01*
X56037099Y-49142358D01*
X56037099Y-49142357D01*
X55911599Y-48963124D01*
X55843929Y-48895454D01*
X55756877Y-48808402D01*
X55577639Y-48682898D01*
X55577640Y-48682898D01*
X55577638Y-48682897D01*
X55458694Y-48627433D01*
X55379330Y-48590425D01*
X55379326Y-48590424D01*
X55379322Y-48590422D01*
X55167977Y-48533793D01*
X54950002Y-48514723D01*
X54949998Y-48514723D01*
X54804682Y-48527436D01*
X54732023Y-48533793D01*
X54732020Y-48533793D01*
X54520677Y-48590422D01*
X54520668Y-48590426D01*
X54322361Y-48682898D01*
X54322357Y-48682900D01*
X54143121Y-48808402D01*
X53988402Y-48963121D01*
X53862900Y-49142357D01*
X53862898Y-49142361D01*
X53801317Y-49274423D01*
X53775132Y-49330577D01*
X53770426Y-49340668D01*
X53770422Y-49340677D01*
X53713793Y-49552020D01*
X53713793Y-49552024D01*
X53696639Y-49748105D01*
X53694723Y-49770000D01*
X53711342Y-49959966D01*
X53713793Y-49987975D01*
X53713793Y-49987979D01*
X53770422Y-50199322D01*
X53770424Y-50199326D01*
X53770425Y-50199330D01*
X53808058Y-50280034D01*
X53862897Y-50397638D01*
X53884439Y-50428403D01*
X53988402Y-50576877D01*
X54143123Y-50731598D01*
X54294568Y-50837641D01*
X54322361Y-50857102D01*
X54473583Y-50927618D01*
X54526022Y-50973790D01*
X54545174Y-51040984D01*
X54524958Y-51107865D01*
X54473583Y-51152382D01*
X54322361Y-51222898D01*
X54322357Y-51222900D01*
X54143121Y-51348402D01*
X53988402Y-51503121D01*
X53862900Y-51682357D01*
X53862898Y-51682361D01*
X53801317Y-51814423D01*
X53778488Y-51863380D01*
X53770426Y-51880668D01*
X53770422Y-51880677D01*
X53713793Y-52092020D01*
X53713793Y-52092024D01*
X53694723Y-52309997D01*
X53694723Y-52310002D01*
X53698362Y-52351593D01*
X53713362Y-52523055D01*
X53713793Y-52527975D01*
X53713793Y-52527979D01*
X53770422Y-52739322D01*
X53770424Y-52739326D01*
X53770425Y-52739330D01*
X53816661Y-52838484D01*
X53862897Y-52937638D01*
X53884439Y-52968403D01*
X53988402Y-53116877D01*
X54143123Y-53271598D01*
X54317251Y-53393524D01*
X54322361Y-53397102D01*
X54473583Y-53467618D01*
X54526022Y-53513790D01*
X54545174Y-53580984D01*
X54524958Y-53647865D01*
X54473583Y-53692382D01*
X54322361Y-53762898D01*
X54322357Y-53762900D01*
X54143121Y-53888402D01*
X53988402Y-54043121D01*
X53862900Y-54222357D01*
X53862898Y-54222361D01*
X53801317Y-54354423D01*
X53778488Y-54403380D01*
X53770426Y-54420668D01*
X53770422Y-54420677D01*
X53713793Y-54632020D01*
X53713793Y-54632024D01*
X53694723Y-54849997D01*
X53694723Y-54850002D01*
X53150500Y-54850002D01*
X53150500Y-45630002D01*
X53694723Y-45630002D01*
X53699304Y-45682361D01*
X53713767Y-45847685D01*
X53713793Y-45847975D01*
X53713793Y-45847979D01*
X53770422Y-46059322D01*
X53770424Y-46059326D01*
X53770425Y-46059330D01*
X53785670Y-46092023D01*
X53862897Y-46257638D01*
X53862898Y-46257639D01*
X53988402Y-46436877D01*
X54143123Y-46591598D01*
X54322361Y-46717102D01*
X54520670Y-46809575D01*
X54732023Y-46866207D01*
X54914926Y-46882208D01*
X54949998Y-46885277D01*
X54950000Y-46885277D01*
X54950002Y-46885277D01*
X54978254Y-46882805D01*
X55167977Y-46866207D01*
X55379330Y-46809575D01*
X55577639Y-46717102D01*
X55756877Y-46591598D01*
X55911598Y-46436877D01*
X56037102Y-46257639D01*
X56107618Y-46106414D01*
X56153790Y-46053977D01*
X56220984Y-46034825D01*
X56287865Y-46055041D01*
X56332381Y-46106414D01*
X56402898Y-46257639D01*
X56528402Y-46436877D01*
X56683123Y-46591598D01*
X56862361Y-46717102D01*
X57060670Y-46809575D01*
X57272023Y-46866207D01*
X57454926Y-46882208D01*
X57489998Y-46885277D01*
X57490000Y-46885277D01*
X57490002Y-46885277D01*
X57518254Y-46882805D01*
X57707977Y-46866207D01*
X57919330Y-46809575D01*
X58117639Y-46717102D01*
X58296877Y-46591598D01*
X58451598Y-46436877D01*
X58577102Y-46257639D01*
X58647619Y-46106414D01*
X58693789Y-46053977D01*
X58760982Y-46034825D01*
X58827863Y-46055040D01*
X58872381Y-46106416D01*
X58942897Y-46257638D01*
X58942898Y-46257639D01*
X59068402Y-46436877D01*
X59223123Y-46591598D01*
X59402361Y-46717102D01*
X59600670Y-46809575D01*
X59812023Y-46866207D01*
X59994926Y-46882208D01*
X60029998Y-46885277D01*
X60030000Y-46885277D01*
X60030002Y-46885277D01*
X60058254Y-46882805D01*
X60247977Y-46866207D01*
X60459330Y-46809575D01*
X60657639Y-46717102D01*
X60836877Y-46591598D01*
X60991598Y-46436877D01*
X61117102Y-46257639D01*
X61187618Y-46106414D01*
X61233790Y-46053977D01*
X61300984Y-46034825D01*
X61367865Y-46055041D01*
X61412381Y-46106414D01*
X61482898Y-46257639D01*
X61608402Y-46436877D01*
X61763123Y-46591598D01*
X61942361Y-46717102D01*
X62140670Y-46809575D01*
X62352023Y-46866207D01*
X62534926Y-46882208D01*
X62569998Y-46885277D01*
X62570000Y-46885277D01*
X62570002Y-46885277D01*
X62598254Y-46882805D01*
X62787977Y-46866207D01*
X62999330Y-46809575D01*
X63197639Y-46717102D01*
X63376877Y-46591598D01*
X63531598Y-46436877D01*
X63657102Y-46257639D01*
X63727618Y-46106414D01*
X63773790Y-46053977D01*
X63840984Y-46034825D01*
X63907865Y-46055041D01*
X63952381Y-46106414D01*
X64022898Y-46257639D01*
X64148402Y-46436877D01*
X64303123Y-46591598D01*
X64482361Y-46717102D01*
X64680670Y-46809575D01*
X64892023Y-46866207D01*
X65074926Y-46882208D01*
X65109998Y-46885277D01*
X65110000Y-46885277D01*
X65110002Y-46885277D01*
X65138254Y-46882805D01*
X65327977Y-46866207D01*
X65539330Y-46809575D01*
X65737639Y-46717102D01*
X65916877Y-46591598D01*
X66071598Y-46436877D01*
X66197102Y-46257639D01*
X66267618Y-46106414D01*
X66313790Y-46053977D01*
X66380984Y-46034825D01*
X66447865Y-46055041D01*
X66492381Y-46106414D01*
X66562898Y-46257639D01*
X66688402Y-46436877D01*
X66843123Y-46591598D01*
X67022361Y-46717102D01*
X67220670Y-46809575D01*
X67432023Y-46866207D01*
X67614926Y-46882208D01*
X67649998Y-46885277D01*
X67650000Y-46885277D01*
X67650002Y-46885277D01*
X67678254Y-46882805D01*
X67867977Y-46866207D01*
X68079330Y-46809575D01*
X68277639Y-46717102D01*
X68456877Y-46591598D01*
X68611598Y-46436877D01*
X68737102Y-46257639D01*
X68829575Y-46059330D01*
X68886207Y-45847977D01*
X68905277Y-45630000D01*
X68886207Y-45412023D01*
X68829575Y-45200670D01*
X68737102Y-45002362D01*
X68737099Y-45002358D01*
X68737099Y-45002357D01*
X68611599Y-44823124D01*
X68540295Y-44751820D01*
X68456877Y-44668402D01*
X68277639Y-44542898D01*
X68126414Y-44472381D01*
X68073977Y-44426210D01*
X68054825Y-44359016D01*
X68075041Y-44292135D01*
X68126414Y-44247618D01*
X68277639Y-44177102D01*
X68456877Y-44051598D01*
X68611598Y-43896877D01*
X68737102Y-43717639D01*
X68829575Y-43519330D01*
X68886207Y-43307977D01*
X68905277Y-43090000D01*
X68886207Y-42872023D01*
X68829575Y-42660670D01*
X68737102Y-42462362D01*
X68737100Y-42462359D01*
X68737099Y-42462357D01*
X68611599Y-42283124D01*
X68540295Y-42211820D01*
X68456877Y-42128402D01*
X68277639Y-42002898D01*
X68126414Y-41932381D01*
X68073977Y-41886210D01*
X68054825Y-41819016D01*
X68075041Y-41752135D01*
X68126414Y-41707618D01*
X68277639Y-41637102D01*
X68456877Y-41511598D01*
X68611598Y-41356877D01*
X68737102Y-41177639D01*
X68829575Y-40979330D01*
X68886207Y-40767977D01*
X68905277Y-40550000D01*
X68886207Y-40332023D01*
X68829575Y-40120670D01*
X68737102Y-39922362D01*
X68737100Y-39922359D01*
X68737099Y-39922357D01*
X68611599Y-39743124D01*
X68535365Y-39666890D01*
X68456877Y-39588402D01*
X68315798Y-39489617D01*
X68277638Y-39462897D01*
X68178484Y-39416661D01*
X68079330Y-39370425D01*
X68079326Y-39370424D01*
X68079322Y-39370422D01*
X67867977Y-39313793D01*
X67650002Y-39294723D01*
X67649998Y-39294723D01*
X67504681Y-39307436D01*
X67432023Y-39313793D01*
X67432020Y-39313793D01*
X67220677Y-39370422D01*
X67220668Y-39370426D01*
X67022361Y-39462898D01*
X67022357Y-39462900D01*
X66843121Y-39588402D01*
X66688402Y-39743121D01*
X66562900Y-39922357D01*
X66562898Y-39922361D01*
X66492382Y-40073583D01*
X66446209Y-40126022D01*
X66379016Y-40145174D01*
X66312135Y-40124958D01*
X66267618Y-40073583D01*
X66247562Y-40030573D01*
X66197102Y-39922362D01*
X66197100Y-39922359D01*
X66197099Y-39922357D01*
X66071599Y-39743124D01*
X65995365Y-39666890D01*
X65916877Y-39588402D01*
X65775798Y-39489617D01*
X65737638Y-39462897D01*
X65638484Y-39416661D01*
X65539330Y-39370425D01*
X65539326Y-39370424D01*
X65539322Y-39370422D01*
X65327977Y-39313793D01*
X65110002Y-39294723D01*
X65109998Y-39294723D01*
X64964681Y-39307436D01*
X64892023Y-39313793D01*
X64892020Y-39313793D01*
X64680677Y-39370422D01*
X64680668Y-39370426D01*
X64482361Y-39462898D01*
X64482357Y-39462900D01*
X64303121Y-39588402D01*
X64148402Y-39743121D01*
X64022900Y-39922357D01*
X64022898Y-39922361D01*
X63952382Y-40073583D01*
X63906209Y-40126022D01*
X63839016Y-40145174D01*
X63772135Y-40124958D01*
X63727618Y-40073583D01*
X63707562Y-40030573D01*
X63657102Y-39922362D01*
X63657100Y-39922359D01*
X63657099Y-39922357D01*
X63531599Y-39743124D01*
X63455365Y-39666890D01*
X63376877Y-39588402D01*
X63235798Y-39489617D01*
X63197638Y-39462897D01*
X63098484Y-39416661D01*
X62999330Y-39370425D01*
X62999326Y-39370424D01*
X62999322Y-39370422D01*
X62787977Y-39313793D01*
X62570002Y-39294723D01*
X62569998Y-39294723D01*
X62424681Y-39307436D01*
X62352023Y-39313793D01*
X62352020Y-39313793D01*
X62140677Y-39370422D01*
X62140668Y-39370426D01*
X61942361Y-39462898D01*
X61942357Y-39462900D01*
X61763121Y-39588402D01*
X61608402Y-39743121D01*
X61482900Y-39922357D01*
X61482898Y-39922361D01*
X61412382Y-40073583D01*
X61366209Y-40126022D01*
X61299016Y-40145174D01*
X61232135Y-40124958D01*
X61187618Y-40073583D01*
X61167562Y-40030573D01*
X61117102Y-39922362D01*
X61117100Y-39922359D01*
X61117099Y-39922357D01*
X60991599Y-39743124D01*
X60915365Y-39666890D01*
X60836877Y-39588402D01*
X60695798Y-39489617D01*
X60657638Y-39462897D01*
X60558484Y-39416661D01*
X60459330Y-39370425D01*
X60459326Y-39370424D01*
X60459322Y-39370422D01*
X60247977Y-39313793D01*
X60030002Y-39294723D01*
X60029998Y-39294723D01*
X59884682Y-39307436D01*
X59812023Y-39313793D01*
X59812020Y-39313793D01*
X59600677Y-39370422D01*
X59600668Y-39370426D01*
X59402361Y-39462898D01*
X59402357Y-39462900D01*
X59223121Y-39588402D01*
X59068402Y-39743121D01*
X58942900Y-39922357D01*
X58942898Y-39922361D01*
X58872382Y-40073583D01*
X58826209Y-40126022D01*
X58759016Y-40145174D01*
X58692135Y-40124958D01*
X58647618Y-40073583D01*
X58627562Y-40030573D01*
X58577102Y-39922362D01*
X58577100Y-39922359D01*
X58577099Y-39922357D01*
X58451599Y-39743124D01*
X58375365Y-39666890D01*
X58296877Y-39588402D01*
X58155798Y-39489617D01*
X58117638Y-39462897D01*
X58018484Y-39416661D01*
X57919330Y-39370425D01*
X57919326Y-39370424D01*
X57919322Y-39370422D01*
X57707977Y-39313793D01*
X57490002Y-39294723D01*
X57489998Y-39294723D01*
X57344681Y-39307436D01*
X57272023Y-39313793D01*
X57272020Y-39313793D01*
X57060677Y-39370422D01*
X57060668Y-39370426D01*
X56862361Y-39462898D01*
X56862357Y-39462900D01*
X56683121Y-39588402D01*
X56528402Y-39743121D01*
X56402900Y-39922357D01*
X56402898Y-39922361D01*
X56332382Y-40073583D01*
X56286209Y-40126022D01*
X56219016Y-40145174D01*
X56152135Y-40124958D01*
X56107618Y-40073583D01*
X56087562Y-40030573D01*
X56037102Y-39922362D01*
X56037100Y-39922359D01*
X56037099Y-39922357D01*
X55911599Y-39743124D01*
X55835365Y-39666890D01*
X55756877Y-39588402D01*
X55615798Y-39489617D01*
X55577638Y-39462897D01*
X55478484Y-39416661D01*
X55379330Y-39370425D01*
X55379326Y-39370424D01*
X55379322Y-39370422D01*
X55167977Y-39313793D01*
X54950002Y-39294723D01*
X54949998Y-39294723D01*
X54804681Y-39307436D01*
X54732023Y-39313793D01*
X54732020Y-39313793D01*
X54520677Y-39370422D01*
X54520668Y-39370426D01*
X54322361Y-39462898D01*
X54322357Y-39462900D01*
X54143121Y-39588402D01*
X53988402Y-39743121D01*
X53862900Y-39922357D01*
X53862898Y-39922361D01*
X53796374Y-40065023D01*
X53770564Y-40120373D01*
X53770426Y-40120668D01*
X53770422Y-40120677D01*
X53713793Y-40332020D01*
X53713793Y-40332023D01*
X53712494Y-40346867D01*
X53694723Y-40549997D01*
X53694723Y-40550002D01*
X53700986Y-40621592D01*
X53713767Y-40767685D01*
X53713793Y-40767975D01*
X53713793Y-40767979D01*
X53770422Y-40979322D01*
X53770424Y-40979326D01*
X53770425Y-40979330D01*
X53813752Y-41072246D01*
X53862897Y-41177638D01*
X53862898Y-41177639D01*
X53988402Y-41356877D01*
X54143123Y-41511598D01*
X54313097Y-41630615D01*
X54322361Y-41637102D01*
X54473583Y-41707618D01*
X54526022Y-41753790D01*
X54545174Y-41820984D01*
X54524958Y-41887865D01*
X54473583Y-41932382D01*
X54322361Y-42002898D01*
X54322357Y-42002900D01*
X54143121Y-42128402D01*
X53988402Y-42283121D01*
X53862900Y-42462357D01*
X53862898Y-42462361D01*
X53796374Y-42605023D01*
X53770564Y-42660373D01*
X53770426Y-42660668D01*
X53770422Y-42660677D01*
X53713793Y-42872020D01*
X53713793Y-42872023D01*
X53709025Y-42926517D01*
X53694723Y-43089997D01*
X53694723Y-43090002D01*
X53700986Y-43161592D01*
X53713055Y-43299547D01*
X53713793Y-43307975D01*
X53713793Y-43307979D01*
X53770422Y-43519322D01*
X53770424Y-43519326D01*
X53770425Y-43519330D01*
X53806902Y-43597556D01*
X53862897Y-43717638D01*
X53876013Y-43736369D01*
X53988402Y-43896877D01*
X54143123Y-44051598D01*
X54313097Y-44170615D01*
X54322361Y-44177102D01*
X54473583Y-44247618D01*
X54526022Y-44293790D01*
X54545174Y-44360984D01*
X54524958Y-44427865D01*
X54473583Y-44472382D01*
X54322361Y-44542898D01*
X54322357Y-44542900D01*
X54143121Y-44668402D01*
X53988402Y-44823121D01*
X53862900Y-45002357D01*
X53862898Y-45002361D01*
X53813701Y-45107865D01*
X53770564Y-45200373D01*
X53770426Y-45200668D01*
X53770422Y-45200677D01*
X53713793Y-45412020D01*
X53713793Y-45412024D01*
X53694723Y-45629997D01*
X53694723Y-45630002D01*
X53150500Y-45630002D01*
X53150500Y-36581875D01*
X53150557Y-36580000D01*
X54144341Y-36580000D01*
X54164936Y-36815403D01*
X54164938Y-36815413D01*
X54226094Y-37043655D01*
X54226096Y-37043659D01*
X54226097Y-37043663D01*
X54276030Y-37150746D01*
X54325964Y-37257828D01*
X54325965Y-37257830D01*
X54461505Y-37451402D01*
X54628597Y-37618494D01*
X54822169Y-37754034D01*
X54822171Y-37754035D01*
X55036337Y-37853903D01*
X55264592Y-37915063D01*
X55441032Y-37930499D01*
X55441033Y-37930500D01*
X55441034Y-37930500D01*
X55558967Y-37930500D01*
X55558967Y-37930499D01*
X55735408Y-37915063D01*
X55963663Y-37853903D01*
X56177829Y-37754035D01*
X56371401Y-37618495D01*
X56538495Y-37451401D01*
X56674035Y-37257830D01*
X56773903Y-37043663D01*
X56835063Y-36815408D01*
X56855659Y-36580000D01*
X65744341Y-36580000D01*
X65764936Y-36815403D01*
X65764938Y-36815413D01*
X65826094Y-37043655D01*
X65826096Y-37043659D01*
X65826097Y-37043663D01*
X65876030Y-37150746D01*
X65925964Y-37257828D01*
X65925965Y-37257830D01*
X66061505Y-37451402D01*
X66228597Y-37618494D01*
X66422169Y-37754034D01*
X66422171Y-37754035D01*
X66636337Y-37853903D01*
X66864592Y-37915063D01*
X67041032Y-37930499D01*
X67041033Y-37930500D01*
X67041034Y-37930500D01*
X67158967Y-37930500D01*
X67158967Y-37930499D01*
X67335408Y-37915063D01*
X67563663Y-37853903D01*
X67777829Y-37754035D01*
X67971401Y-37618495D01*
X68138495Y-37451401D01*
X68274035Y-37257830D01*
X68373903Y-37043663D01*
X68435063Y-36815408D01*
X68455659Y-36580000D01*
X68455495Y-36578131D01*
X68451539Y-36532918D01*
X68435063Y-36344592D01*
X68373903Y-36116337D01*
X68274035Y-35902171D01*
X68274034Y-35902169D01*
X68138494Y-35708597D01*
X67971402Y-35541505D01*
X67777830Y-35405965D01*
X67777828Y-35405964D01*
X67670746Y-35356031D01*
X67563663Y-35306097D01*
X67563659Y-35306096D01*
X67563655Y-35306094D01*
X67335413Y-35244938D01*
X67335403Y-35244936D01*
X67158967Y-35229500D01*
X67158966Y-35229500D01*
X67041034Y-35229500D01*
X67041033Y-35229500D01*
X66864596Y-35244936D01*
X66864586Y-35244938D01*
X66636344Y-35306094D01*
X66636335Y-35306098D01*
X66422171Y-35405964D01*
X66422169Y-35405965D01*
X66228597Y-35541505D01*
X66061506Y-35708597D01*
X66061501Y-35708604D01*
X65925967Y-35902165D01*
X65925965Y-35902169D01*
X65826098Y-36116335D01*
X65826094Y-36116344D01*
X65764938Y-36344586D01*
X65764936Y-36344596D01*
X65744341Y-36579999D01*
X65744341Y-36580000D01*
X56855659Y-36580000D01*
X56855495Y-36578131D01*
X56851539Y-36532918D01*
X56835063Y-36344592D01*
X56773903Y-36116337D01*
X56674035Y-35902171D01*
X56674034Y-35902169D01*
X56538494Y-35708597D01*
X56371402Y-35541505D01*
X56177830Y-35405965D01*
X56177828Y-35405964D01*
X56070745Y-35356030D01*
X55963663Y-35306097D01*
X55963659Y-35306096D01*
X55963655Y-35306094D01*
X55735413Y-35244938D01*
X55735403Y-35244936D01*
X55558967Y-35229500D01*
X55558966Y-35229500D01*
X55441034Y-35229500D01*
X55441033Y-35229500D01*
X55264596Y-35244936D01*
X55264586Y-35244938D01*
X55036344Y-35306094D01*
X55036335Y-35306098D01*
X54822171Y-35405964D01*
X54822169Y-35405965D01*
X54628597Y-35541505D01*
X54461506Y-35708597D01*
X54461501Y-35708604D01*
X54325967Y-35902165D01*
X54325965Y-35902169D01*
X54226098Y-36116335D01*
X54226094Y-36116344D01*
X54164938Y-36344586D01*
X54164936Y-36344596D01*
X54144341Y-36579999D01*
X54144341Y-36580000D01*
X53150557Y-36580000D01*
X53150613Y-36578131D01*
X53150633Y-36577802D01*
X53156490Y-36480968D01*
X53168847Y-36292455D01*
X53169726Y-36285361D01*
X53193482Y-36155728D01*
X53224111Y-36001748D01*
X53225718Y-35995437D01*
X53266671Y-35864012D01*
X53267070Y-35862786D01*
X53315439Y-35720297D01*
X53317587Y-35714841D01*
X53375107Y-35587036D01*
X53375951Y-35585248D01*
X53441371Y-35452589D01*
X53443912Y-35447950D01*
X53469294Y-35405964D01*
X53516991Y-35327062D01*
X53518464Y-35324745D01*
X53599986Y-35202740D01*
X53602662Y-35199044D01*
X53690195Y-35087317D01*
X53692306Y-35084771D01*
X53788731Y-34974819D01*
X53791455Y-34971911D01*
X53891911Y-34871455D01*
X53894819Y-34868731D01*
X54004771Y-34772306D01*
X54007317Y-34770195D01*
X54119044Y-34682662D01*
X54122740Y-34679986D01*
X54244745Y-34598464D01*
X54247062Y-34596991D01*
X54367957Y-34523907D01*
X54372589Y-34521371D01*
X54505248Y-34455951D01*
X54507036Y-34455107D01*
X54634841Y-34397587D01*
X54640297Y-34395439D01*
X54782786Y-34347070D01*
X54784012Y-34346671D01*
X54915437Y-34305718D01*
X54921748Y-34304111D01*
X55075728Y-34273482D01*
X55205361Y-34249726D01*
X55212455Y-34248847D01*
X55388842Y-34237285D01*
X55401083Y-34236483D01*
X55459737Y-34232935D01*
X55498134Y-34230613D01*
X55501878Y-34230500D01*
X57595915Y-34230500D01*
X57662954Y-34250185D01*
X57700230Y-34287460D01*
X57728551Y-34331528D01*
X57736945Y-34344589D01*
X57840282Y-34434130D01*
X57840283Y-34434130D01*
X57840285Y-34434132D01*
X57937827Y-34478677D01*
X57964658Y-34490931D01*
X58065989Y-34505500D01*
X58065992Y-34505500D01*
X58134008Y-34505500D01*
X58134011Y-34505500D01*
X58235342Y-34490931D01*
X58359718Y-34434130D01*
X58418800Y-34382935D01*
X58482350Y-34353912D01*
X58551509Y-34363855D01*
X58581201Y-34382937D01*
X58640278Y-34434127D01*
X58640285Y-34434132D01*
X58737827Y-34478677D01*
X58764658Y-34490931D01*
X58865989Y-34505500D01*
X58865992Y-34505500D01*
X58934008Y-34505500D01*
X58934011Y-34505500D01*
X59035342Y-34490931D01*
X59159718Y-34434130D01*
X59218800Y-34382935D01*
X59282350Y-34353912D01*
X59351509Y-34363855D01*
X59381201Y-34382937D01*
X59440278Y-34434127D01*
X59440285Y-34434132D01*
X59537827Y-34478677D01*
X59564658Y-34490931D01*
X59665989Y-34505500D01*
X59665992Y-34505500D01*
X59734008Y-34505500D01*
X59734011Y-34505500D01*
X59835342Y-34490931D01*
X59959718Y-34434130D01*
X60018800Y-34382935D01*
X60082350Y-34353912D01*
X60151509Y-34363855D01*
X60181201Y-34382937D01*
X60240278Y-34434127D01*
X60240285Y-34434132D01*
X60337827Y-34478677D01*
X60364658Y-34490931D01*
X60465989Y-34505500D01*
X60465992Y-34505500D01*
X60534008Y-34505500D01*
X60534011Y-34505500D01*
X60635342Y-34490931D01*
X60759718Y-34434130D01*
X60818800Y-34382935D01*
X60882350Y-34353912D01*
X60951509Y-34363855D01*
X60981201Y-34382937D01*
X61040278Y-34434127D01*
X61040285Y-34434132D01*
X61137827Y-34478677D01*
X61164658Y-34490931D01*
X61265989Y-34505500D01*
X61265992Y-34505500D01*
X61334008Y-34505500D01*
X61334011Y-34505500D01*
X61435342Y-34490931D01*
X61559718Y-34434130D01*
X61618800Y-34382935D01*
X61682350Y-34353912D01*
X61751509Y-34363855D01*
X61781201Y-34382937D01*
X61840278Y-34434127D01*
X61840285Y-34434132D01*
X61937827Y-34478677D01*
X61964658Y-34490931D01*
X62065989Y-34505500D01*
X62065992Y-34505500D01*
X62134008Y-34505500D01*
X62134011Y-34505500D01*
X62235342Y-34490931D01*
X62359718Y-34434130D01*
X62418800Y-34382935D01*
X62482350Y-34353912D01*
X62551509Y-34363855D01*
X62581201Y-34382937D01*
X62640278Y-34434127D01*
X62640285Y-34434132D01*
X62737827Y-34478677D01*
X62764658Y-34490931D01*
X62865989Y-34505500D01*
X62865992Y-34505500D01*
X62934008Y-34505500D01*
X62934011Y-34505500D01*
X63035342Y-34490931D01*
X63159718Y-34434130D01*
X63218800Y-34382935D01*
X63282350Y-34353912D01*
X63351509Y-34363855D01*
X63381201Y-34382937D01*
X63440278Y-34434127D01*
X63440285Y-34434132D01*
X63537827Y-34478677D01*
X63564658Y-34490931D01*
X63665989Y-34505500D01*
X63665992Y-34505500D01*
X63734008Y-34505500D01*
X63734011Y-34505500D01*
X63835342Y-34490931D01*
X63959718Y-34434130D01*
X64018800Y-34382935D01*
X64082350Y-34353912D01*
X64151509Y-34363855D01*
X64181201Y-34382937D01*
X64240278Y-34434127D01*
X64240285Y-34434132D01*
X64337827Y-34478677D01*
X64364658Y-34490931D01*
X64465989Y-34505500D01*
X64465992Y-34505500D01*
X64534008Y-34505500D01*
X64534011Y-34505500D01*
X64635342Y-34490931D01*
X64759718Y-34434130D01*
X64863055Y-34344589D01*
X64899951Y-34287174D01*
X64952751Y-34241422D01*
X65004281Y-34230215D01*
X67048147Y-34230492D01*
G37*
%TD.AperFunction*%
%TA.AperFunction,Conductor*%
G36*
X79063270Y-52842461D02*
G01*
X79107788Y-52893837D01*
X79146698Y-52977281D01*
X79282193Y-53170785D01*
X79449216Y-53337808D01*
X79642720Y-53473303D01*
X79782362Y-53538419D01*
X79834801Y-53584591D01*
X79853953Y-53651785D01*
X79833737Y-53718666D01*
X79817638Y-53738482D01*
X78672907Y-54883213D01*
X78666806Y-54888564D01*
X78639849Y-54909251D01*
X78639848Y-54909252D01*
X78637876Y-54911822D01*
X78615432Y-54941070D01*
X78589630Y-54974697D01*
X78547601Y-55029469D01*
X78547599Y-55029472D01*
X78500496Y-55143189D01*
X78456654Y-55197593D01*
X78390360Y-55219657D01*
X78333531Y-55208118D01*
X78243796Y-55166274D01*
X78243785Y-55166270D01*
X78030299Y-55109067D01*
X78030299Y-56004201D01*
X77922614Y-55955023D01*
X77816062Y-55939703D01*
X77744536Y-55939703D01*
X77637984Y-55955023D01*
X77530299Y-56004201D01*
X77530299Y-55109067D01*
X77530298Y-55109067D01*
X77316812Y-55166270D01*
X77316801Y-55166274D01*
X77272203Y-55187071D01*
X77203125Y-55197563D01*
X77139342Y-55169043D01*
X77101103Y-55110566D01*
X77095799Y-55074689D01*
X77095799Y-53621483D01*
X77096330Y-53613381D01*
X77100764Y-53579703D01*
X77099815Y-53572494D01*
X77110580Y-53503459D01*
X77156960Y-53451203D01*
X77224229Y-53432318D01*
X77275158Y-53443926D01*
X77350969Y-53479278D01*
X77562322Y-53535910D01*
X77733172Y-53550857D01*
X77780297Y-53554980D01*
X77780299Y-53554980D01*
X77780301Y-53554980D01*
X77808553Y-53552508D01*
X77998276Y-53535910D01*
X78209629Y-53479278D01*
X78407938Y-53386805D01*
X78587176Y-53261301D01*
X78741897Y-53106580D01*
X78867401Y-52927342D01*
X78883025Y-52893835D01*
X78929195Y-52841398D01*
X78996389Y-52822246D01*
X79063270Y-52842461D01*
G37*
%TD.AperFunction*%
%TA.AperFunction,Conductor*%
G36*
X83948181Y-54794033D02*
G01*
X83981666Y-54855356D01*
X83984500Y-54881714D01*
X83984500Y-55656066D01*
X83964815Y-55723105D01*
X83912011Y-55768860D01*
X83842853Y-55778804D01*
X83779297Y-55749779D01*
X83772819Y-55743748D01*
X83737335Y-55708264D01*
X83667176Y-55638105D01*
X83487938Y-55512601D01*
X83487932Y-55512598D01*
X83454432Y-55496976D01*
X83401993Y-55450803D01*
X83382842Y-55383610D01*
X83403059Y-55316729D01*
X83454435Y-55272212D01*
X83537878Y-55233302D01*
X83537881Y-55233301D01*
X83621672Y-55174629D01*
X83621672Y-55174628D01*
X82992833Y-54545789D01*
X83002614Y-54544383D01*
X83133399Y-54484655D01*
X83242060Y-54390501D01*
X83319792Y-54269547D01*
X83343375Y-54189227D01*
X83948181Y-54794033D01*
G37*
%TD.AperFunction*%
%TA.AperFunction,Conductor*%
G36*
X83903834Y-51547157D02*
G01*
X83959767Y-51589029D01*
X83984184Y-51654493D01*
X83984500Y-51663339D01*
X83984500Y-53237691D01*
X83964815Y-53304730D01*
X83948181Y-53325372D01*
X83343375Y-53930177D01*
X83319792Y-53849859D01*
X83242060Y-53728905D01*
X83133399Y-53634751D01*
X83002614Y-53575023D01*
X82992832Y-53573616D01*
X83621672Y-52944776D01*
X83621672Y-52944775D01*
X83537882Y-52886105D01*
X83537878Y-52886103D01*
X83376566Y-52810882D01*
X83324127Y-52764710D01*
X83304975Y-52697516D01*
X83325191Y-52630635D01*
X83330595Y-52623014D01*
X83371598Y-52569577D01*
X83372997Y-52567754D01*
X83397017Y-52509764D01*
X83430986Y-52427757D01*
X83445799Y-52315241D01*
X83445799Y-52315235D01*
X83450764Y-52277521D01*
X83446329Y-52243837D01*
X83445799Y-52235740D01*
X83445799Y-51897862D01*
X83465484Y-51830823D01*
X83498672Y-51796290D01*
X83677176Y-51671301D01*
X83772819Y-51575657D01*
X83834142Y-51542173D01*
X83903834Y-51547157D01*
G37*
%TD.AperFunction*%
%TA.AperFunction,Conductor*%
G36*
X80570299Y-49500336D02*
G01*
X80783782Y-49443136D01*
X80783791Y-49443132D01*
X80888394Y-49394356D01*
X80957472Y-49383864D01*
X81021256Y-49412384D01*
X81059495Y-49470860D01*
X81064799Y-49506738D01*
X81064799Y-50962667D01*
X81045114Y-51029706D01*
X80992310Y-51075461D01*
X80923152Y-51085405D01*
X80888395Y-51075049D01*
X80783796Y-51026274D01*
X80783785Y-51026270D01*
X80570299Y-50969067D01*
X80570299Y-51864201D01*
X80462614Y-51815023D01*
X80356062Y-51799703D01*
X80284536Y-51799703D01*
X80177984Y-51815023D01*
X80070299Y-51864201D01*
X80070299Y-50969067D01*
X80070298Y-50969067D01*
X79856812Y-51026270D01*
X79856801Y-51026274D01*
X79792203Y-51056397D01*
X79723125Y-51066889D01*
X79659342Y-51038369D01*
X79621103Y-50979892D01*
X79615799Y-50944015D01*
X79615799Y-49525390D01*
X79635484Y-49458351D01*
X79688288Y-49412596D01*
X79757446Y-49402652D01*
X79792204Y-49413008D01*
X79856806Y-49443133D01*
X79856815Y-49443136D01*
X80070299Y-49500337D01*
X80070299Y-48605204D01*
X80177984Y-48654383D01*
X80284536Y-48669703D01*
X80356062Y-48669703D01*
X80462614Y-48654383D01*
X80570299Y-48605204D01*
X80570299Y-49500336D01*
G37*
%TD.AperFunction*%
%TA.AperFunction,Conductor*%
G36*
X81707757Y-44909888D02*
G01*
X81753512Y-44962692D01*
X81763456Y-45031850D01*
X81753100Y-45066607D01*
X81723342Y-45130425D01*
X81690725Y-45200371D01*
X81690721Y-45200380D01*
X81634092Y-45411723D01*
X81634092Y-45411727D01*
X81615022Y-45629700D01*
X81615022Y-45629705D01*
X81619629Y-45682361D01*
X81632194Y-45825990D01*
X81634092Y-45847678D01*
X81634092Y-45847682D01*
X81690721Y-46059025D01*
X81690723Y-46059029D01*
X81690724Y-46059033D01*
X81712819Y-46106416D01*
X81783196Y-46257341D01*
X81783404Y-46257638D01*
X81908701Y-46436580D01*
X82063422Y-46591301D01*
X82196817Y-46684705D01*
X82242660Y-46716805D01*
X82393882Y-46787321D01*
X82446321Y-46833493D01*
X82465473Y-46900687D01*
X82445257Y-46967568D01*
X82393882Y-47012085D01*
X82242660Y-47082601D01*
X82242656Y-47082603D01*
X82063420Y-47208105D01*
X81908701Y-47362824D01*
X81783199Y-47542060D01*
X81783196Y-47542066D01*
X81762572Y-47586293D01*
X81716398Y-47638732D01*
X81649204Y-47657882D01*
X81582324Y-47637665D01*
X81537809Y-47586290D01*
X81493901Y-47492129D01*
X81493898Y-47492123D01*
X81358412Y-47298629D01*
X81358407Y-47298623D01*
X81191381Y-47131597D01*
X80997877Y-46996102D01*
X80783791Y-46896273D01*
X80783785Y-46896270D01*
X80570299Y-46839067D01*
X80570299Y-47734201D01*
X80462614Y-47685023D01*
X80356062Y-47669703D01*
X80284536Y-47669703D01*
X80177984Y-47685023D01*
X80070299Y-47734201D01*
X80070299Y-46839067D01*
X80070298Y-46839067D01*
X79856812Y-46896270D01*
X79856801Y-46896274D01*
X79792203Y-46926397D01*
X79723125Y-46936889D01*
X79659342Y-46908369D01*
X79621103Y-46849892D01*
X79615799Y-46814015D01*
X79615799Y-46677262D01*
X79635484Y-46610223D01*
X79652118Y-46589581D01*
X81315178Y-44926522D01*
X81376501Y-44893037D01*
X81402859Y-44890203D01*
X81640718Y-44890203D01*
X81707757Y-44909888D01*
G37*
%TD.AperFunction*%
%TA.AperFunction,Conductor*%
G36*
X78030299Y-42654201D02*
G01*
X77922614Y-42605023D01*
X77816062Y-42589703D01*
X77744536Y-42589703D01*
X77637984Y-42605023D01*
X77530299Y-42654201D01*
X77530299Y-40985204D01*
X77637984Y-41034383D01*
X77744536Y-41049703D01*
X77816062Y-41049703D01*
X77922614Y-41034383D01*
X78030299Y-40985204D01*
X78030299Y-42654201D01*
G37*
%TD.AperFunction*%
%TA.AperFunction,Conductor*%
G36*
X77962763Y-34249887D02*
G01*
X78000040Y-34287163D01*
X78036945Y-34344589D01*
X78036946Y-34344590D01*
X78140278Y-34434127D01*
X78140285Y-34434132D01*
X78237827Y-34478677D01*
X78264658Y-34490931D01*
X78365989Y-34505500D01*
X78365992Y-34505500D01*
X78434008Y-34505500D01*
X78434011Y-34505500D01*
X78535342Y-34490931D01*
X78659718Y-34434130D01*
X78718800Y-34382935D01*
X78782352Y-34353912D01*
X78851511Y-34363855D01*
X78881197Y-34382933D01*
X78940282Y-34434130D01*
X78940283Y-34434130D01*
X78940285Y-34434132D01*
X79037827Y-34478677D01*
X79064658Y-34490931D01*
X79165989Y-34505500D01*
X79165992Y-34505500D01*
X79234008Y-34505500D01*
X79234011Y-34505500D01*
X79335342Y-34490931D01*
X79459718Y-34434130D01*
X79518800Y-34382935D01*
X79582352Y-34353912D01*
X79651511Y-34363855D01*
X79681197Y-34382933D01*
X79740282Y-34434130D01*
X79740283Y-34434130D01*
X79740285Y-34434132D01*
X79837827Y-34478677D01*
X79864658Y-34490931D01*
X79965989Y-34505500D01*
X79965992Y-34505500D01*
X80034008Y-34505500D01*
X80034011Y-34505500D01*
X80135342Y-34490931D01*
X80259718Y-34434130D01*
X80318800Y-34382935D01*
X80382352Y-34353912D01*
X80451511Y-34363855D01*
X80481197Y-34382933D01*
X80540282Y-34434130D01*
X80540283Y-34434130D01*
X80540285Y-34434132D01*
X80637827Y-34478677D01*
X80664658Y-34490931D01*
X80765989Y-34505500D01*
X80765992Y-34505500D01*
X80834008Y-34505500D01*
X80834011Y-34505500D01*
X80935342Y-34490931D01*
X81059718Y-34434130D01*
X81118800Y-34382935D01*
X81182352Y-34353912D01*
X81251511Y-34363855D01*
X81281197Y-34382933D01*
X81340282Y-34434130D01*
X81340283Y-34434130D01*
X81340285Y-34434132D01*
X81437827Y-34478677D01*
X81464658Y-34490931D01*
X81565989Y-34505500D01*
X81565992Y-34505500D01*
X81634008Y-34505500D01*
X81634011Y-34505500D01*
X81735342Y-34490931D01*
X81859718Y-34434130D01*
X81918800Y-34382935D01*
X81982352Y-34353912D01*
X82051511Y-34363855D01*
X82081197Y-34382933D01*
X82140282Y-34434130D01*
X82140283Y-34434130D01*
X82140285Y-34434132D01*
X82237827Y-34478677D01*
X82264658Y-34490931D01*
X82365989Y-34505500D01*
X82365992Y-34505500D01*
X82434008Y-34505500D01*
X82434011Y-34505500D01*
X82535342Y-34490931D01*
X82659718Y-34434130D01*
X82718800Y-34382935D01*
X82782352Y-34353912D01*
X82851511Y-34363855D01*
X82881197Y-34382933D01*
X82940282Y-34434130D01*
X82940283Y-34434130D01*
X82940285Y-34434132D01*
X83037827Y-34478677D01*
X83064658Y-34490931D01*
X83165989Y-34505500D01*
X83165992Y-34505500D01*
X83234008Y-34505500D01*
X83234011Y-34505500D01*
X83335342Y-34490931D01*
X83459718Y-34434130D01*
X83518800Y-34382935D01*
X83582352Y-34353912D01*
X83651511Y-34363855D01*
X83681197Y-34382933D01*
X83740282Y-34434130D01*
X83740283Y-34434130D01*
X83740285Y-34434132D01*
X83837827Y-34478677D01*
X83864658Y-34490931D01*
X83965989Y-34505500D01*
X83965992Y-34505500D01*
X84034008Y-34505500D01*
X84034011Y-34505500D01*
X84135342Y-34490931D01*
X84259718Y-34434130D01*
X84318800Y-34382935D01*
X84382352Y-34353912D01*
X84451511Y-34363855D01*
X84481197Y-34382933D01*
X84540282Y-34434130D01*
X84540283Y-34434130D01*
X84540285Y-34434132D01*
X84637827Y-34478677D01*
X84664658Y-34490931D01*
X84765989Y-34505500D01*
X84765992Y-34505500D01*
X84834008Y-34505500D01*
X84834011Y-34505500D01*
X84935342Y-34490931D01*
X85059718Y-34434130D01*
X85163055Y-34344589D01*
X85199959Y-34287163D01*
X85252764Y-34241408D01*
X85304276Y-34230202D01*
X87398420Y-34230202D01*
X87402163Y-34230315D01*
X87405792Y-34230534D01*
X87499266Y-34236188D01*
X87687866Y-34248551D01*
X87694940Y-34249429D01*
X87824391Y-34273151D01*
X87978562Y-34303817D01*
X87984884Y-34305426D01*
X88116135Y-34346326D01*
X88117463Y-34346758D01*
X88259996Y-34395141D01*
X88265499Y-34397308D01*
X88393130Y-34454750D01*
X88395018Y-34455640D01*
X88478917Y-34497014D01*
X88527718Y-34521081D01*
X88532372Y-34523629D01*
X88565464Y-34543633D01*
X88653219Y-34596682D01*
X88655477Y-34598118D01*
X88777532Y-34679672D01*
X88781308Y-34682406D01*
X88837388Y-34726343D01*
X88892905Y-34769838D01*
X88895548Y-34772030D01*
X88948121Y-34818134D01*
X89005487Y-34868443D01*
X89008421Y-34871191D01*
X89108755Y-34971525D01*
X89108791Y-34971561D01*
X89111559Y-34974515D01*
X89207970Y-35084451D01*
X89210162Y-35087094D01*
X89297586Y-35198683D01*
X89300332Y-35202475D01*
X89318191Y-35229202D01*
X89381853Y-35324480D01*
X89383342Y-35326822D01*
X89456372Y-35447629D01*
X89458920Y-35452284D01*
X89524326Y-35584913D01*
X89525258Y-35586890D01*
X89582688Y-35714495D01*
X89584861Y-35720014D01*
X89633214Y-35862456D01*
X89633697Y-35863941D01*
X89674566Y-35995096D01*
X89676183Y-36001450D01*
X89706844Y-36155592D01*
X89730564Y-36285028D01*
X89731448Y-36292155D01*
X89743840Y-36481220D01*
X89749683Y-36577802D01*
X89749796Y-36581547D01*
X89749797Y-56074911D01*
X89730112Y-56141950D01*
X89692849Y-56179218D01*
X89690287Y-56180864D01*
X89586946Y-56270409D01*
X89586942Y-56270413D01*
X89513021Y-56385440D01*
X89474500Y-56516632D01*
X89474500Y-56653367D01*
X89513021Y-56784559D01*
X89513020Y-56784559D01*
X89586942Y-56899586D01*
X89590589Y-56903794D01*
X89619615Y-56967349D01*
X89609674Y-57036508D01*
X89590596Y-57066195D01*
X89586948Y-57070405D01*
X89513021Y-57185440D01*
X89474500Y-57316632D01*
X89474500Y-57453367D01*
X89513021Y-57584559D01*
X89513020Y-57584559D01*
X89586942Y-57699586D01*
X89590589Y-57703794D01*
X89619615Y-57767349D01*
X89609674Y-57836508D01*
X89590596Y-57866195D01*
X89586948Y-57870405D01*
X89513021Y-57985440D01*
X89474500Y-58116632D01*
X89474500Y-58253367D01*
X89513021Y-58384559D01*
X89513020Y-58384559D01*
X89586942Y-58499586D01*
X89590589Y-58503794D01*
X89619615Y-58567349D01*
X89609674Y-58636508D01*
X89590596Y-58666195D01*
X89586948Y-58670405D01*
X89513021Y-58785440D01*
X89474500Y-58916632D01*
X89474500Y-59053367D01*
X89513021Y-59184559D01*
X89513020Y-59184559D01*
X89586942Y-59299586D01*
X89590589Y-59303794D01*
X89619615Y-59367349D01*
X89609674Y-59436508D01*
X89590596Y-59466195D01*
X89586948Y-59470405D01*
X89513021Y-59585440D01*
X89474500Y-59716632D01*
X89474500Y-59853367D01*
X89513021Y-59984559D01*
X89513020Y-59984559D01*
X89586942Y-60099586D01*
X89590589Y-60103794D01*
X89619615Y-60167349D01*
X89609674Y-60236508D01*
X89590596Y-60266195D01*
X89586948Y-60270405D01*
X89513021Y-60385440D01*
X89474500Y-60516632D01*
X89474500Y-60653367D01*
X89513021Y-60784559D01*
X89513020Y-60784559D01*
X89586942Y-60899586D01*
X89590589Y-60903794D01*
X89619615Y-60967349D01*
X89609674Y-61036508D01*
X89590596Y-61066195D01*
X89586948Y-61070405D01*
X89513021Y-61185440D01*
X89474500Y-61316632D01*
X89474500Y-61453367D01*
X89513021Y-61584559D01*
X89513020Y-61584559D01*
X89586942Y-61699586D01*
X89590589Y-61703794D01*
X89619615Y-61767349D01*
X89609674Y-61836508D01*
X89590596Y-61866195D01*
X89586948Y-61870405D01*
X89513021Y-61985440D01*
X89474500Y-62116632D01*
X89474500Y-62253367D01*
X89513021Y-62384559D01*
X89513020Y-62384559D01*
X89586942Y-62499586D01*
X89590593Y-62503799D01*
X89619616Y-62567356D01*
X89609671Y-62636514D01*
X89590593Y-62666201D01*
X89586942Y-62670413D01*
X89513021Y-62785440D01*
X89474500Y-62916632D01*
X89474500Y-63053367D01*
X89513021Y-63184559D01*
X89513020Y-63184559D01*
X89586942Y-63299586D01*
X89586946Y-63299590D01*
X89686092Y-63385500D01*
X89690282Y-63389130D01*
X89690288Y-63389132D01*
X89692835Y-63390770D01*
X89694827Y-63393069D01*
X89696984Y-63394938D01*
X89696715Y-63395247D01*
X89738591Y-63443572D01*
X89749799Y-63495088D01*
X89749799Y-82987823D01*
X89749686Y-82991569D01*
X89743804Y-83088786D01*
X89731453Y-83277222D01*
X89730569Y-83284349D01*
X89706822Y-83413932D01*
X89676189Y-83567934D01*
X89674572Y-83574288D01*
X89633673Y-83705539D01*
X89633190Y-83707024D01*
X89584871Y-83849366D01*
X89582698Y-83854885D01*
X89525232Y-83982569D01*
X89524300Y-83984546D01*
X89458934Y-84117094D01*
X89456385Y-84121749D01*
X89383317Y-84242618D01*
X89381810Y-84244989D01*
X89300346Y-84366908D01*
X89297599Y-84370701D01*
X89210144Y-84482328D01*
X89207952Y-84484971D01*
X89111586Y-84594857D01*
X89108811Y-84597819D01*
X89008416Y-84698214D01*
X89005454Y-84700988D01*
X88895572Y-84797352D01*
X88892929Y-84799544D01*
X88781293Y-84887005D01*
X88777500Y-84889752D01*
X88655588Y-84971211D01*
X88653217Y-84972718D01*
X88532346Y-85045787D01*
X88527691Y-85048335D01*
X88395151Y-85113697D01*
X88393174Y-85114629D01*
X88265481Y-85172099D01*
X88259961Y-85174272D01*
X88117619Y-85222589D01*
X88116136Y-85223072D01*
X87984882Y-85263973D01*
X87978528Y-85265591D01*
X87824540Y-85296221D01*
X87694942Y-85319971D01*
X87687817Y-85320854D01*
X87660184Y-85322666D01*
X87499886Y-85333174D01*
X87402100Y-85339090D01*
X87398364Y-85339203D01*
X85304092Y-85339486D01*
X85237050Y-85319811D01*
X85199759Y-85282525D01*
X85192308Y-85270931D01*
X85163055Y-85225411D01*
X85160670Y-85223344D01*
X85059721Y-85135872D01*
X85059714Y-85135867D01*
X84935345Y-85079070D01*
X84935343Y-85079069D01*
X84935342Y-85079069D01*
X84935337Y-85079068D01*
X84935336Y-85079068D01*
X84834011Y-85064500D01*
X84765989Y-85064500D01*
X84765988Y-85064500D01*
X84664663Y-85079068D01*
X84664654Y-85079070D01*
X84540285Y-85135867D01*
X84540281Y-85135870D01*
X84481202Y-85187062D01*
X84417646Y-85216086D01*
X84348487Y-85206142D01*
X84318798Y-85187062D01*
X84259718Y-85135870D01*
X84259714Y-85135867D01*
X84135345Y-85079070D01*
X84135343Y-85079069D01*
X84135342Y-85079069D01*
X84135337Y-85079068D01*
X84135336Y-85079068D01*
X84034011Y-85064500D01*
X83965989Y-85064500D01*
X83965988Y-85064500D01*
X83864663Y-85079068D01*
X83864654Y-85079070D01*
X83740285Y-85135867D01*
X83740281Y-85135870D01*
X83681202Y-85187062D01*
X83617646Y-85216086D01*
X83548487Y-85206142D01*
X83518798Y-85187062D01*
X83459718Y-85135870D01*
X83459714Y-85135867D01*
X83335345Y-85079070D01*
X83335343Y-85079069D01*
X83335342Y-85079069D01*
X83335337Y-85079068D01*
X83335336Y-85079068D01*
X83234011Y-85064500D01*
X83165989Y-85064500D01*
X83165988Y-85064500D01*
X83064663Y-85079068D01*
X83064654Y-85079070D01*
X82940285Y-85135867D01*
X82940281Y-85135870D01*
X82881202Y-85187062D01*
X82817646Y-85216086D01*
X82748487Y-85206142D01*
X82718798Y-85187062D01*
X82659718Y-85135870D01*
X82659714Y-85135867D01*
X82535345Y-85079070D01*
X82535343Y-85079069D01*
X82535342Y-85079069D01*
X82535337Y-85079068D01*
X82535336Y-85079068D01*
X82434011Y-85064500D01*
X82365989Y-85064500D01*
X82365988Y-85064500D01*
X82264663Y-85079068D01*
X82264654Y-85079070D01*
X82140285Y-85135867D01*
X82140281Y-85135870D01*
X82081202Y-85187062D01*
X82017646Y-85216086D01*
X81948487Y-85206142D01*
X81918798Y-85187062D01*
X81859718Y-85135870D01*
X81859714Y-85135867D01*
X81735345Y-85079070D01*
X81735343Y-85079069D01*
X81735342Y-85079069D01*
X81735337Y-85079068D01*
X81735336Y-85079068D01*
X81634011Y-85064500D01*
X81565989Y-85064500D01*
X81565988Y-85064500D01*
X81464663Y-85079068D01*
X81464654Y-85079070D01*
X81340285Y-85135867D01*
X81340281Y-85135870D01*
X81281202Y-85187062D01*
X81217646Y-85216086D01*
X81148487Y-85206142D01*
X81118798Y-85187062D01*
X81059718Y-85135870D01*
X81059714Y-85135867D01*
X80935345Y-85079070D01*
X80935343Y-85079069D01*
X80935342Y-85079069D01*
X80935337Y-85079068D01*
X80935336Y-85079068D01*
X80834011Y-85064500D01*
X80765989Y-85064500D01*
X80765988Y-85064500D01*
X80664663Y-85079068D01*
X80664654Y-85079070D01*
X80540285Y-85135867D01*
X80540281Y-85135870D01*
X80481202Y-85187062D01*
X80417646Y-85216086D01*
X80348487Y-85206142D01*
X80318798Y-85187062D01*
X80259718Y-85135870D01*
X80259714Y-85135867D01*
X80135345Y-85079070D01*
X80135343Y-85079069D01*
X80135342Y-85079069D01*
X80135337Y-85079068D01*
X80135336Y-85079068D01*
X80034011Y-85064500D01*
X79965989Y-85064500D01*
X79965988Y-85064500D01*
X79864663Y-85079068D01*
X79864654Y-85079070D01*
X79740285Y-85135867D01*
X79740281Y-85135870D01*
X79681202Y-85187062D01*
X79617646Y-85216086D01*
X79548487Y-85206142D01*
X79518798Y-85187062D01*
X79459718Y-85135870D01*
X79459714Y-85135867D01*
X79335345Y-85079070D01*
X79335343Y-85079069D01*
X79335342Y-85079069D01*
X79335337Y-85079068D01*
X79335336Y-85079068D01*
X79234011Y-85064500D01*
X79165989Y-85064500D01*
X79165988Y-85064500D01*
X79064663Y-85079068D01*
X79064654Y-85079070D01*
X78940285Y-85135867D01*
X78940281Y-85135870D01*
X78881202Y-85187062D01*
X78817646Y-85216086D01*
X78748487Y-85206142D01*
X78718798Y-85187062D01*
X78659718Y-85135870D01*
X78659714Y-85135867D01*
X78535345Y-85079070D01*
X78535343Y-85079069D01*
X78535342Y-85079069D01*
X78535337Y-85079068D01*
X78535336Y-85079068D01*
X78434011Y-85064500D01*
X78365989Y-85064500D01*
X78365988Y-85064500D01*
X78264663Y-85079068D01*
X78264654Y-85079070D01*
X78140285Y-85135867D01*
X78140282Y-85135870D01*
X78036944Y-85225411D01*
X78000421Y-85282243D01*
X77947617Y-85327997D01*
X77896106Y-85339203D01*
X75802178Y-85339203D01*
X75798433Y-85339090D01*
X75701355Y-85333217D01*
X75676039Y-85331557D01*
X75512753Y-85320853D01*
X75505636Y-85319971D01*
X75376191Y-85296249D01*
X75222051Y-85265589D01*
X75215696Y-85263972D01*
X75084495Y-85223087D01*
X75083011Y-85222604D01*
X74940623Y-85174270D01*
X74935104Y-85172097D01*
X74807479Y-85114658D01*
X74805502Y-85113726D01*
X74672883Y-85048325D01*
X74668228Y-85045777D01*
X74547400Y-84972733D01*
X74545030Y-84971226D01*
X74514138Y-84950585D01*
X74423068Y-84889734D01*
X74419293Y-84887000D01*
X74363968Y-84843656D01*
X74307689Y-84799564D01*
X74305046Y-84797372D01*
X74195120Y-84700969D01*
X74192158Y-84698195D01*
X74091805Y-84597842D01*
X74089031Y-84594881D01*
X73992935Y-84485305D01*
X73992619Y-84484944D01*
X73990433Y-84482307D01*
X73903008Y-84370717D01*
X73900262Y-84366925D01*
X73818764Y-84244955D01*
X73817256Y-84242584D01*
X73744222Y-84121772D01*
X73741674Y-84117117D01*
X73697823Y-84028197D01*
X73676247Y-83984445D01*
X73675347Y-83982536D01*
X73617905Y-83854905D01*
X73615738Y-83849402D01*
X73567355Y-83706869D01*
X73566922Y-83705539D01*
X73526023Y-83574288D01*
X73524414Y-83567966D01*
X73493754Y-83413836D01*
X73470027Y-83284361D01*
X73469146Y-83277261D01*
X73456766Y-83088384D01*
X73450912Y-82991602D01*
X73450855Y-82989703D01*
X74444640Y-82989703D01*
X74465235Y-83225106D01*
X74465237Y-83225116D01*
X74526393Y-83453358D01*
X74526395Y-83453362D01*
X74526396Y-83453366D01*
X74572517Y-83552273D01*
X74626263Y-83667531D01*
X74626264Y-83667533D01*
X74761804Y-83861105D01*
X74928896Y-84028197D01*
X75122468Y-84163737D01*
X75122470Y-84163738D01*
X75336636Y-84263606D01*
X75336642Y-84263607D01*
X75336643Y-84263608D01*
X75391584Y-84278329D01*
X75564891Y-84324766D01*
X75741331Y-84340202D01*
X75741332Y-84340203D01*
X75741333Y-84340203D01*
X75859266Y-84340203D01*
X75859266Y-84340202D01*
X76035707Y-84324766D01*
X76263962Y-84263606D01*
X76478128Y-84163738D01*
X76671700Y-84028198D01*
X76838794Y-83861104D01*
X76974334Y-83667533D01*
X77074202Y-83453366D01*
X77135362Y-83225111D01*
X77155958Y-82989703D01*
X86044640Y-82989703D01*
X86065235Y-83225106D01*
X86065237Y-83225116D01*
X86126393Y-83453358D01*
X86126395Y-83453362D01*
X86126396Y-83453366D01*
X86172517Y-83552273D01*
X86226263Y-83667531D01*
X86226264Y-83667533D01*
X86361804Y-83861105D01*
X86528896Y-84028197D01*
X86722468Y-84163737D01*
X86722470Y-84163738D01*
X86936636Y-84263606D01*
X86936642Y-84263607D01*
X86936643Y-84263608D01*
X86991584Y-84278329D01*
X87164891Y-84324766D01*
X87341331Y-84340202D01*
X87341332Y-84340203D01*
X87341333Y-84340203D01*
X87459266Y-84340203D01*
X87459266Y-84340202D01*
X87635707Y-84324766D01*
X87863962Y-84263606D01*
X88078128Y-84163738D01*
X88271700Y-84028198D01*
X88438794Y-83861104D01*
X88574334Y-83667533D01*
X88674202Y-83453366D01*
X88735362Y-83225111D01*
X88755958Y-82989703D01*
X88735362Y-82754295D01*
X88674202Y-82526040D01*
X88574334Y-82311874D01*
X88574333Y-82311872D01*
X88438793Y-82118300D01*
X88271701Y-81951208D01*
X88078129Y-81815668D01*
X88078127Y-81815667D01*
X87927651Y-81745499D01*
X87863962Y-81715800D01*
X87863958Y-81715799D01*
X87863954Y-81715797D01*
X87635712Y-81654641D01*
X87635702Y-81654639D01*
X87459266Y-81639203D01*
X87459265Y-81639203D01*
X87341333Y-81639203D01*
X87341332Y-81639203D01*
X87164895Y-81654639D01*
X87164885Y-81654641D01*
X86936643Y-81715797D01*
X86936636Y-81715799D01*
X86936636Y-81715800D01*
X86935997Y-81716098D01*
X86722470Y-81815667D01*
X86722468Y-81815668D01*
X86528896Y-81951208D01*
X86361805Y-82118300D01*
X86361800Y-82118307D01*
X86226266Y-82311868D01*
X86226264Y-82311872D01*
X86126397Y-82526038D01*
X86126393Y-82526047D01*
X86065237Y-82754289D01*
X86065235Y-82754299D01*
X86044640Y-82989702D01*
X86044640Y-82989703D01*
X77155958Y-82989703D01*
X77135362Y-82754295D01*
X77074202Y-82526040D01*
X76974334Y-82311874D01*
X76974333Y-82311872D01*
X76838793Y-82118300D01*
X76671701Y-81951208D01*
X76478129Y-81815668D01*
X76478127Y-81815667D01*
X76327651Y-81745499D01*
X76263962Y-81715800D01*
X76263958Y-81715799D01*
X76263954Y-81715797D01*
X76035712Y-81654641D01*
X76035702Y-81654639D01*
X75859266Y-81639203D01*
X75859265Y-81639203D01*
X75741333Y-81639203D01*
X75741332Y-81639203D01*
X75564895Y-81654639D01*
X75564885Y-81654641D01*
X75336643Y-81715797D01*
X75336636Y-81715799D01*
X75336636Y-81715800D01*
X75335997Y-81716098D01*
X75122470Y-81815667D01*
X75122468Y-81815668D01*
X74928896Y-81951208D01*
X74761805Y-82118300D01*
X74761800Y-82118307D01*
X74626266Y-82311868D01*
X74626264Y-82311872D01*
X74526397Y-82526038D01*
X74526393Y-82526047D01*
X74465237Y-82754289D01*
X74465235Y-82754299D01*
X74444640Y-82989702D01*
X74444640Y-82989703D01*
X73450855Y-82989703D01*
X73450799Y-82987858D01*
X73450799Y-79019705D01*
X73995022Y-79019705D01*
X74001337Y-79091889D01*
X74013406Y-79229844D01*
X74014092Y-79237678D01*
X74014092Y-79237682D01*
X74070721Y-79449025D01*
X74070723Y-79449029D01*
X74070724Y-79449033D01*
X74114328Y-79542543D01*
X74163196Y-79647341D01*
X74188297Y-79683189D01*
X74288701Y-79826580D01*
X74443422Y-79981301D01*
X74622660Y-80106805D01*
X74820969Y-80199278D01*
X74820975Y-80199279D01*
X74820976Y-80199280D01*
X74851663Y-80207502D01*
X75032322Y-80255910D01*
X75215225Y-80271911D01*
X75250297Y-80274980D01*
X75250299Y-80274980D01*
X75250301Y-80274980D01*
X75278553Y-80272508D01*
X75468276Y-80255910D01*
X75679629Y-80199278D01*
X75877938Y-80106805D01*
X76057176Y-79981301D01*
X76211897Y-79826580D01*
X76337401Y-79647342D01*
X76407917Y-79496117D01*
X76454089Y-79443680D01*
X76521283Y-79424528D01*
X76588164Y-79444744D01*
X76632680Y-79496117D01*
X76703197Y-79647342D01*
X76828701Y-79826580D01*
X76983422Y-79981301D01*
X77162660Y-80106805D01*
X77360969Y-80199278D01*
X77360975Y-80199279D01*
X77360976Y-80199280D01*
X77391663Y-80207502D01*
X77572322Y-80255910D01*
X77755225Y-80271911D01*
X77790297Y-80274980D01*
X77790299Y-80274980D01*
X77790301Y-80274980D01*
X77818553Y-80272508D01*
X78008276Y-80255910D01*
X78219629Y-80199278D01*
X78417938Y-80106805D01*
X78597176Y-79981301D01*
X78751897Y-79826580D01*
X78877401Y-79647342D01*
X78947917Y-79496117D01*
X78994089Y-79443680D01*
X79061283Y-79424528D01*
X79128164Y-79444744D01*
X79172680Y-79496117D01*
X79243197Y-79647342D01*
X79368701Y-79826580D01*
X79523422Y-79981301D01*
X79702660Y-80106805D01*
X79900969Y-80199278D01*
X79900975Y-80199279D01*
X79900976Y-80199280D01*
X79931663Y-80207502D01*
X80112322Y-80255910D01*
X80295225Y-80271911D01*
X80330297Y-80274980D01*
X80330299Y-80274980D01*
X80330301Y-80274980D01*
X80358553Y-80272508D01*
X80548276Y-80255910D01*
X80759629Y-80199278D01*
X80957938Y-80106805D01*
X81137176Y-79981301D01*
X81291897Y-79826580D01*
X81417401Y-79647342D01*
X81487917Y-79496117D01*
X81534089Y-79443680D01*
X81601283Y-79424528D01*
X81668164Y-79444744D01*
X81712680Y-79496117D01*
X81783197Y-79647342D01*
X81908701Y-79826580D01*
X82063422Y-79981301D01*
X82242660Y-80106805D01*
X82440969Y-80199278D01*
X82440975Y-80199279D01*
X82440976Y-80199280D01*
X82471663Y-80207502D01*
X82652322Y-80255910D01*
X82835225Y-80271911D01*
X82870297Y-80274980D01*
X82870299Y-80274980D01*
X82870301Y-80274980D01*
X82898553Y-80272508D01*
X83088276Y-80255910D01*
X83299629Y-80199278D01*
X83497938Y-80106805D01*
X83677176Y-79981301D01*
X83831897Y-79826580D01*
X83957401Y-79647342D01*
X84027917Y-79496117D01*
X84074089Y-79443680D01*
X84141283Y-79424528D01*
X84208164Y-79444744D01*
X84252680Y-79496117D01*
X84323197Y-79647342D01*
X84448701Y-79826580D01*
X84603422Y-79981301D01*
X84782660Y-80106805D01*
X84980969Y-80199278D01*
X84980975Y-80199279D01*
X84980976Y-80199280D01*
X85011663Y-80207502D01*
X85192322Y-80255910D01*
X85375225Y-80271911D01*
X85410297Y-80274980D01*
X85410299Y-80274980D01*
X85410301Y-80274980D01*
X85438553Y-80272508D01*
X85628276Y-80255910D01*
X85839629Y-80199278D01*
X86037938Y-80106805D01*
X86217176Y-79981301D01*
X86371897Y-79826580D01*
X86497401Y-79647342D01*
X86567917Y-79496117D01*
X86614089Y-79443680D01*
X86681283Y-79424528D01*
X86748164Y-79444744D01*
X86792680Y-79496117D01*
X86863197Y-79647342D01*
X86988701Y-79826580D01*
X87143422Y-79981301D01*
X87322660Y-80106805D01*
X87520969Y-80199278D01*
X87520975Y-80199279D01*
X87520976Y-80199280D01*
X87551663Y-80207502D01*
X87732322Y-80255910D01*
X87915225Y-80271911D01*
X87950297Y-80274980D01*
X87950299Y-80274980D01*
X87950301Y-80274980D01*
X87978553Y-80272508D01*
X88168276Y-80255910D01*
X88379629Y-80199278D01*
X88577938Y-80106805D01*
X88757176Y-79981301D01*
X88911897Y-79826580D01*
X89037401Y-79647342D01*
X89129874Y-79449033D01*
X89186506Y-79237680D01*
X89203104Y-79047957D01*
X89205576Y-79019705D01*
X89205576Y-79019700D01*
X89201868Y-78977321D01*
X89186506Y-78801726D01*
X89131023Y-78594661D01*
X89129876Y-78590380D01*
X89129875Y-78590379D01*
X89129874Y-78590373D01*
X89037401Y-78392065D01*
X89037399Y-78392062D01*
X89037398Y-78392060D01*
X88911898Y-78212827D01*
X88847991Y-78148920D01*
X88757176Y-78058105D01*
X88734420Y-78042171D01*
X88578675Y-77933116D01*
X88535050Y-77878539D01*
X88525799Y-77831542D01*
X88525799Y-77667862D01*
X88545484Y-77600823D01*
X88578672Y-77566290D01*
X88757176Y-77441301D01*
X88911897Y-77286580D01*
X89037401Y-77107342D01*
X89129874Y-76909033D01*
X89186506Y-76697680D01*
X89205576Y-76479703D01*
X89186506Y-76261726D01*
X89143401Y-76100857D01*
X89129876Y-76050380D01*
X89129875Y-76050379D01*
X89129874Y-76050373D01*
X89037401Y-75852065D01*
X89037399Y-75852062D01*
X89037398Y-75852060D01*
X88911898Y-75672827D01*
X88847991Y-75608920D01*
X88757176Y-75518105D01*
X88711620Y-75486206D01*
X88578675Y-75393116D01*
X88535050Y-75338539D01*
X88525799Y-75291542D01*
X88525799Y-75127862D01*
X88545484Y-75060823D01*
X88578672Y-75026290D01*
X88757176Y-74901301D01*
X88911897Y-74746580D01*
X89037401Y-74567342D01*
X89129874Y-74369033D01*
X89186506Y-74157680D01*
X89205576Y-73939703D01*
X89186506Y-73721726D01*
X89139691Y-73547011D01*
X89129876Y-73510380D01*
X89129875Y-73510379D01*
X89129874Y-73510373D01*
X89037401Y-73312065D01*
X89037399Y-73312062D01*
X89037398Y-73312060D01*
X88911898Y-73132827D01*
X88836048Y-73056977D01*
X88757176Y-72978105D01*
X88603169Y-72870268D01*
X88577937Y-72852600D01*
X88458918Y-72797101D01*
X88379629Y-72760128D01*
X88379625Y-72760127D01*
X88379621Y-72760125D01*
X88168276Y-72703496D01*
X87950301Y-72684426D01*
X87950297Y-72684426D01*
X87804980Y-72697139D01*
X87732322Y-72703496D01*
X87732319Y-72703496D01*
X87520976Y-72760125D01*
X87520967Y-72760129D01*
X87322660Y-72852601D01*
X87322656Y-72852603D01*
X87143420Y-72978105D01*
X86988701Y-73132824D01*
X86863199Y-73312060D01*
X86863197Y-73312064D01*
X86792681Y-73463286D01*
X86746508Y-73515725D01*
X86679315Y-73534877D01*
X86612434Y-73514661D01*
X86567917Y-73463286D01*
X86542052Y-73407819D01*
X86497401Y-73312065D01*
X86497399Y-73312062D01*
X86497398Y-73312060D01*
X86371898Y-73132827D01*
X86296048Y-73056977D01*
X86217176Y-72978105D01*
X86063169Y-72870268D01*
X86037937Y-72852600D01*
X85918918Y-72797101D01*
X85839629Y-72760128D01*
X85839625Y-72760127D01*
X85839621Y-72760125D01*
X85628276Y-72703496D01*
X85410301Y-72684426D01*
X85410297Y-72684426D01*
X85264981Y-72697139D01*
X85192322Y-72703496D01*
X85192319Y-72703496D01*
X84980976Y-72760125D01*
X84980967Y-72760129D01*
X84782660Y-72852601D01*
X84782656Y-72852603D01*
X84603420Y-72978105D01*
X84448701Y-73132824D01*
X84323199Y-73312060D01*
X84323197Y-73312064D01*
X84252681Y-73463286D01*
X84206508Y-73515725D01*
X84139315Y-73534877D01*
X84072434Y-73514661D01*
X84027917Y-73463286D01*
X84002052Y-73407819D01*
X83957401Y-73312065D01*
X83957399Y-73312062D01*
X83957398Y-73312060D01*
X83831898Y-73132827D01*
X83756048Y-73056977D01*
X83677176Y-72978105D01*
X83523169Y-72870268D01*
X83497937Y-72852600D01*
X83378918Y-72797101D01*
X83299629Y-72760128D01*
X83299625Y-72760127D01*
X83299621Y-72760125D01*
X83088276Y-72703496D01*
X82870301Y-72684426D01*
X82870297Y-72684426D01*
X82724981Y-72697139D01*
X82652322Y-72703496D01*
X82652319Y-72703496D01*
X82440976Y-72760125D01*
X82440967Y-72760129D01*
X82242660Y-72852601D01*
X82242656Y-72852603D01*
X82063420Y-72978105D01*
X81908701Y-73132824D01*
X81783199Y-73312060D01*
X81783197Y-73312064D01*
X81712681Y-73463286D01*
X81666508Y-73515725D01*
X81599315Y-73534877D01*
X81532434Y-73514661D01*
X81487917Y-73463286D01*
X81462052Y-73407819D01*
X81417401Y-73312065D01*
X81417399Y-73312062D01*
X81417398Y-73312060D01*
X81291898Y-73132827D01*
X81216048Y-73056977D01*
X81137176Y-72978105D01*
X80983169Y-72870268D01*
X80957937Y-72852600D01*
X80838918Y-72797101D01*
X80759629Y-72760128D01*
X80759625Y-72760127D01*
X80759621Y-72760125D01*
X80548276Y-72703496D01*
X80330301Y-72684426D01*
X80330297Y-72684426D01*
X80184980Y-72697139D01*
X80112322Y-72703496D01*
X80112319Y-72703496D01*
X79900976Y-72760125D01*
X79900967Y-72760129D01*
X79702660Y-72852601D01*
X79702656Y-72852603D01*
X79523420Y-72978105D01*
X79368701Y-73132824D01*
X79243199Y-73312060D01*
X79243197Y-73312064D01*
X79172681Y-73463286D01*
X79126508Y-73515725D01*
X79059315Y-73534877D01*
X78992434Y-73514661D01*
X78947917Y-73463286D01*
X78922052Y-73407819D01*
X78877401Y-73312065D01*
X78877399Y-73312062D01*
X78877398Y-73312060D01*
X78751898Y-73132827D01*
X78676048Y-73056977D01*
X78597176Y-72978105D01*
X78443169Y-72870268D01*
X78417937Y-72852600D01*
X78298918Y-72797101D01*
X78219629Y-72760128D01*
X78219625Y-72760127D01*
X78219621Y-72760125D01*
X78008276Y-72703496D01*
X77790301Y-72684426D01*
X77790297Y-72684426D01*
X77644981Y-72697139D01*
X77572322Y-72703496D01*
X77572319Y-72703496D01*
X77360976Y-72760125D01*
X77360967Y-72760129D01*
X77162660Y-72852601D01*
X77162656Y-72852603D01*
X76983420Y-72978105D01*
X76828701Y-73132824D01*
X76703199Y-73312060D01*
X76703197Y-73312064D01*
X76632681Y-73463286D01*
X76586508Y-73515725D01*
X76519315Y-73534877D01*
X76452434Y-73514661D01*
X76407917Y-73463286D01*
X76382052Y-73407819D01*
X76337401Y-73312065D01*
X76337399Y-73312062D01*
X76337398Y-73312060D01*
X76211898Y-73132827D01*
X76136048Y-73056977D01*
X76057176Y-72978105D01*
X75903169Y-72870268D01*
X75877937Y-72852600D01*
X75758918Y-72797101D01*
X75679629Y-72760128D01*
X75679625Y-72760127D01*
X75679621Y-72760125D01*
X75468276Y-72703496D01*
X75250301Y-72684426D01*
X75250297Y-72684426D01*
X75104980Y-72697139D01*
X75032322Y-72703496D01*
X75032319Y-72703496D01*
X74820976Y-72760125D01*
X74820967Y-72760129D01*
X74622660Y-72852601D01*
X74622656Y-72852603D01*
X74443420Y-72978105D01*
X74288701Y-73132824D01*
X74163199Y-73312060D01*
X74163197Y-73312064D01*
X74070725Y-73510371D01*
X74070721Y-73510380D01*
X74014092Y-73721723D01*
X74014092Y-73721726D01*
X74011855Y-73747301D01*
X73995022Y-73939700D01*
X73995022Y-73939705D01*
X74014092Y-74157678D01*
X74014092Y-74157682D01*
X74070721Y-74369025D01*
X74070723Y-74369029D01*
X74070724Y-74369033D01*
X74092681Y-74416119D01*
X74163196Y-74567341D01*
X74163197Y-74567342D01*
X74288701Y-74746580D01*
X74443422Y-74901301D01*
X74621924Y-75026289D01*
X74665547Y-75080864D01*
X74674799Y-75127862D01*
X74674799Y-75291543D01*
X74655114Y-75358582D01*
X74621922Y-75393118D01*
X74443420Y-75518105D01*
X74288701Y-75672824D01*
X74163199Y-75852060D01*
X74163197Y-75852064D01*
X74070725Y-76050371D01*
X74070721Y-76050380D01*
X74014092Y-76261723D01*
X74014092Y-76261726D01*
X74010372Y-76304250D01*
X74005721Y-76357415D01*
X73995022Y-76479703D01*
X74013406Y-76689844D01*
X74014092Y-76697678D01*
X74014092Y-76697682D01*
X74070721Y-76909025D01*
X74070723Y-76909029D01*
X74070724Y-76909033D01*
X74114328Y-77002543D01*
X74163196Y-77107341D01*
X74188297Y-77143189D01*
X74288701Y-77286580D01*
X74443422Y-77441301D01*
X74621924Y-77566289D01*
X74665547Y-77620864D01*
X74674799Y-77667862D01*
X74674799Y-77831543D01*
X74655114Y-77898582D01*
X74621922Y-77933118D01*
X74443420Y-78058105D01*
X74288701Y-78212824D01*
X74163199Y-78392060D01*
X74163197Y-78392064D01*
X74070725Y-78590371D01*
X74070721Y-78590380D01*
X74014092Y-78801723D01*
X74014092Y-78801726D01*
X74012789Y-78816623D01*
X73995022Y-79019700D01*
X73995022Y-79019705D01*
X73450799Y-79019705D01*
X73450799Y-69799705D01*
X73995022Y-69799705D01*
X73997144Y-69823957D01*
X74013634Y-70012449D01*
X74014092Y-70017678D01*
X74014092Y-70017682D01*
X74070721Y-70229025D01*
X74070723Y-70229029D01*
X74070724Y-70229033D01*
X74109831Y-70312898D01*
X74163196Y-70427341D01*
X74170941Y-70438402D01*
X74288701Y-70606580D01*
X74443422Y-70761301D01*
X74622660Y-70886805D01*
X74820969Y-70979278D01*
X74820975Y-70979279D01*
X74820976Y-70979280D01*
X74837483Y-70983703D01*
X75032322Y-71035910D01*
X75215225Y-71051911D01*
X75250297Y-71054980D01*
X75250299Y-71054980D01*
X75250301Y-71054980D01*
X75278553Y-71052508D01*
X75468276Y-71035910D01*
X75679629Y-70979278D01*
X75877938Y-70886805D01*
X76057176Y-70761301D01*
X76211897Y-70606580D01*
X76337401Y-70427342D01*
X76407917Y-70276117D01*
X76454089Y-70223680D01*
X76521283Y-70204528D01*
X76588164Y-70224744D01*
X76632680Y-70276117D01*
X76703197Y-70427342D01*
X76828701Y-70606580D01*
X76983422Y-70761301D01*
X77162660Y-70886805D01*
X77360969Y-70979278D01*
X77360975Y-70979279D01*
X77360976Y-70979280D01*
X77377483Y-70983703D01*
X77572322Y-71035910D01*
X77755225Y-71051911D01*
X77790297Y-71054980D01*
X77790299Y-71054980D01*
X77790301Y-71054980D01*
X77818553Y-71052508D01*
X78008276Y-71035910D01*
X78219629Y-70979278D01*
X78417938Y-70886805D01*
X78597176Y-70761301D01*
X78751897Y-70606580D01*
X78877401Y-70427342D01*
X78947917Y-70276117D01*
X78994089Y-70223680D01*
X79061283Y-70204528D01*
X79128164Y-70224744D01*
X79172680Y-70276117D01*
X79243197Y-70427342D01*
X79368701Y-70606580D01*
X79523422Y-70761301D01*
X79702660Y-70886805D01*
X79900969Y-70979278D01*
X79900975Y-70979279D01*
X79900976Y-70979280D01*
X79917483Y-70983703D01*
X80112322Y-71035910D01*
X80295225Y-71051911D01*
X80330297Y-71054980D01*
X80330299Y-71054980D01*
X80330301Y-71054980D01*
X80358553Y-71052508D01*
X80548276Y-71035910D01*
X80759629Y-70979278D01*
X80957938Y-70886805D01*
X81137176Y-70761301D01*
X81291897Y-70606580D01*
X81417401Y-70427342D01*
X81487917Y-70276117D01*
X81534089Y-70223680D01*
X81601283Y-70204528D01*
X81668164Y-70224744D01*
X81712680Y-70276117D01*
X81783197Y-70427342D01*
X81908701Y-70606580D01*
X82063422Y-70761301D01*
X82242660Y-70886805D01*
X82440969Y-70979278D01*
X82440975Y-70979279D01*
X82440976Y-70979280D01*
X82457483Y-70983703D01*
X82652322Y-71035910D01*
X82835225Y-71051911D01*
X82870297Y-71054980D01*
X82870299Y-71054980D01*
X82870301Y-71054980D01*
X82898553Y-71052508D01*
X83088276Y-71035910D01*
X83299629Y-70979278D01*
X83497938Y-70886805D01*
X83677176Y-70761301D01*
X83831897Y-70606580D01*
X83957401Y-70427342D01*
X84027917Y-70276117D01*
X84074089Y-70223680D01*
X84141283Y-70204528D01*
X84208164Y-70224744D01*
X84252680Y-70276117D01*
X84323197Y-70427342D01*
X84448701Y-70606580D01*
X84603422Y-70761301D01*
X84782660Y-70886805D01*
X84980969Y-70979278D01*
X84980975Y-70979279D01*
X84980976Y-70979280D01*
X84997483Y-70983703D01*
X85192322Y-71035910D01*
X85375225Y-71051911D01*
X85410297Y-71054980D01*
X85410299Y-71054980D01*
X85410301Y-71054980D01*
X85438553Y-71052508D01*
X85628276Y-71035910D01*
X85839629Y-70979278D01*
X86037938Y-70886805D01*
X86217176Y-70761301D01*
X86371897Y-70606580D01*
X86497401Y-70427342D01*
X86567917Y-70276117D01*
X86614089Y-70223680D01*
X86681283Y-70204528D01*
X86748164Y-70224744D01*
X86792680Y-70276117D01*
X86863197Y-70427342D01*
X86988701Y-70606580D01*
X87143422Y-70761301D01*
X87322660Y-70886805D01*
X87520969Y-70979278D01*
X87520975Y-70979279D01*
X87520976Y-70979280D01*
X87537483Y-70983703D01*
X87732322Y-71035910D01*
X87915225Y-71051911D01*
X87950297Y-71054980D01*
X87950299Y-71054980D01*
X87950301Y-71054980D01*
X87978553Y-71052508D01*
X88168276Y-71035910D01*
X88379629Y-70979278D01*
X88577938Y-70886805D01*
X88757176Y-70761301D01*
X88911897Y-70606580D01*
X89037401Y-70427342D01*
X89129874Y-70229033D01*
X89186506Y-70017680D01*
X89203454Y-69823957D01*
X89205576Y-69799705D01*
X89205576Y-69799700D01*
X89196074Y-69691096D01*
X89186506Y-69581726D01*
X89149777Y-69444653D01*
X89129876Y-69370380D01*
X89129875Y-69370379D01*
X89129874Y-69370373D01*
X89037401Y-69172065D01*
X89037399Y-69172062D01*
X89037398Y-69172060D01*
X88911898Y-68992827D01*
X88866504Y-68947433D01*
X88757176Y-68838105D01*
X88689699Y-68790857D01*
X88578675Y-68713116D01*
X88535050Y-68658539D01*
X88525799Y-68611542D01*
X88525799Y-68447862D01*
X88545484Y-68380823D01*
X88578672Y-68346290D01*
X88757176Y-68221301D01*
X88911897Y-68066580D01*
X89037401Y-67887342D01*
X89129874Y-67689033D01*
X89186506Y-67477680D01*
X89203454Y-67283957D01*
X89205576Y-67259705D01*
X89205576Y-67259700D01*
X89201055Y-67208028D01*
X89186506Y-67041726D01*
X89149777Y-66904653D01*
X89129876Y-66830380D01*
X89129875Y-66830379D01*
X89129874Y-66830373D01*
X89037401Y-66632065D01*
X89037399Y-66632062D01*
X89037398Y-66632060D01*
X88911898Y-66452827D01*
X88839113Y-66380042D01*
X88757176Y-66298105D01*
X88710980Y-66265758D01*
X88578675Y-66173116D01*
X88535050Y-66118539D01*
X88525799Y-66071542D01*
X88525799Y-65907862D01*
X88545484Y-65840823D01*
X88578672Y-65806290D01*
X88757176Y-65681301D01*
X88911897Y-65526580D01*
X89037401Y-65347342D01*
X89129874Y-65149033D01*
X89186506Y-64937680D01*
X89203104Y-64747957D01*
X89205576Y-64719705D01*
X89205576Y-64719700D01*
X89197177Y-64623699D01*
X89186506Y-64501726D01*
X89149777Y-64364653D01*
X89129876Y-64290380D01*
X89129875Y-64290379D01*
X89129874Y-64290373D01*
X89037401Y-64092065D01*
X89037399Y-64092062D01*
X89037398Y-64092060D01*
X88911898Y-63912827D01*
X88866504Y-63867433D01*
X88757176Y-63758105D01*
X88577938Y-63632601D01*
X88577939Y-63632601D01*
X88577937Y-63632600D01*
X88461667Y-63578383D01*
X88379629Y-63540128D01*
X88379625Y-63540127D01*
X88379621Y-63540125D01*
X88168276Y-63483496D01*
X87950301Y-63464426D01*
X87950297Y-63464426D01*
X87804980Y-63477139D01*
X87732322Y-63483496D01*
X87732319Y-63483496D01*
X87520976Y-63540125D01*
X87520967Y-63540129D01*
X87322660Y-63632601D01*
X87322656Y-63632603D01*
X87143420Y-63758105D01*
X86988701Y-63912824D01*
X86863199Y-64092060D01*
X86863197Y-64092064D01*
X86792681Y-64243286D01*
X86746508Y-64295725D01*
X86679315Y-64314877D01*
X86612434Y-64294661D01*
X86567917Y-64243286D01*
X86541246Y-64186090D01*
X86497401Y-64092065D01*
X86497399Y-64092062D01*
X86497398Y-64092060D01*
X86371898Y-63912827D01*
X86326504Y-63867433D01*
X86217176Y-63758105D01*
X86037938Y-63632601D01*
X86037939Y-63632601D01*
X86037937Y-63632600D01*
X85921667Y-63578383D01*
X85839629Y-63540128D01*
X85839625Y-63540127D01*
X85839621Y-63540125D01*
X85628276Y-63483496D01*
X85410301Y-63464426D01*
X85410297Y-63464426D01*
X85264981Y-63477139D01*
X85192322Y-63483496D01*
X85192319Y-63483496D01*
X84980976Y-63540125D01*
X84980967Y-63540129D01*
X84782660Y-63632601D01*
X84782656Y-63632603D01*
X84603420Y-63758105D01*
X84448701Y-63912824D01*
X84323199Y-64092060D01*
X84323197Y-64092064D01*
X84252681Y-64243286D01*
X84206508Y-64295725D01*
X84139315Y-64314877D01*
X84072434Y-64294661D01*
X84027917Y-64243286D01*
X84001246Y-64186090D01*
X83957401Y-64092065D01*
X83957399Y-64092062D01*
X83957398Y-64092060D01*
X83831898Y-63912827D01*
X83786504Y-63867433D01*
X83677176Y-63758105D01*
X83497938Y-63632601D01*
X83497939Y-63632601D01*
X83497937Y-63632600D01*
X83381667Y-63578383D01*
X83299629Y-63540128D01*
X83299625Y-63540127D01*
X83299621Y-63540125D01*
X83088276Y-63483496D01*
X82870301Y-63464426D01*
X82870297Y-63464426D01*
X82724980Y-63477139D01*
X82652322Y-63483496D01*
X82652319Y-63483496D01*
X82440976Y-63540125D01*
X82440967Y-63540129D01*
X82242660Y-63632601D01*
X82242656Y-63632603D01*
X82063420Y-63758105D01*
X81908701Y-63912824D01*
X81783199Y-64092060D01*
X81783197Y-64092064D01*
X81712681Y-64243286D01*
X81666508Y-64295725D01*
X81599315Y-64314877D01*
X81532434Y-64294661D01*
X81487917Y-64243286D01*
X81461246Y-64186090D01*
X81417401Y-64092065D01*
X81417399Y-64092062D01*
X81417398Y-64092060D01*
X81291898Y-63912827D01*
X81246504Y-63867433D01*
X81137176Y-63758105D01*
X80957938Y-63632601D01*
X80957939Y-63632601D01*
X80957937Y-63632600D01*
X80841667Y-63578383D01*
X80759629Y-63540128D01*
X80759625Y-63540127D01*
X80759621Y-63540125D01*
X80548276Y-63483496D01*
X80330301Y-63464426D01*
X80330297Y-63464426D01*
X80184980Y-63477139D01*
X80112322Y-63483496D01*
X80112319Y-63483496D01*
X79900976Y-63540125D01*
X79900967Y-63540129D01*
X79702660Y-63632601D01*
X79702656Y-63632603D01*
X79523420Y-63758105D01*
X79368701Y-63912824D01*
X79243199Y-64092060D01*
X79243197Y-64092064D01*
X79172681Y-64243286D01*
X79126508Y-64295725D01*
X79059315Y-64314877D01*
X78992434Y-64294661D01*
X78947917Y-64243286D01*
X78921246Y-64186090D01*
X78877401Y-64092065D01*
X78877399Y-64092062D01*
X78877398Y-64092060D01*
X78751898Y-63912827D01*
X78706504Y-63867433D01*
X78597176Y-63758105D01*
X78417938Y-63632601D01*
X78417939Y-63632601D01*
X78417937Y-63632600D01*
X78301667Y-63578383D01*
X78219629Y-63540128D01*
X78219625Y-63540127D01*
X78219621Y-63540125D01*
X78008276Y-63483496D01*
X77790301Y-63464426D01*
X77790297Y-63464426D01*
X77644981Y-63477139D01*
X77572322Y-63483496D01*
X77572319Y-63483496D01*
X77360976Y-63540125D01*
X77360967Y-63540129D01*
X77162660Y-63632601D01*
X77162656Y-63632603D01*
X76983420Y-63758105D01*
X76828701Y-63912824D01*
X76703199Y-64092060D01*
X76703197Y-64092064D01*
X76632681Y-64243286D01*
X76586508Y-64295725D01*
X76519315Y-64314877D01*
X76452434Y-64294661D01*
X76407917Y-64243286D01*
X76381246Y-64186090D01*
X76337401Y-64092065D01*
X76337399Y-64092062D01*
X76337398Y-64092060D01*
X76211898Y-63912827D01*
X76166504Y-63867433D01*
X76057176Y-63758105D01*
X75877938Y-63632601D01*
X75877939Y-63632601D01*
X75877937Y-63632600D01*
X75761667Y-63578383D01*
X75679629Y-63540128D01*
X75679625Y-63540127D01*
X75679621Y-63540125D01*
X75468276Y-63483496D01*
X75250301Y-63464426D01*
X75250297Y-63464426D01*
X75104981Y-63477139D01*
X75032322Y-63483496D01*
X75032319Y-63483496D01*
X74820976Y-63540125D01*
X74820967Y-63540129D01*
X74622660Y-63632601D01*
X74622656Y-63632603D01*
X74443420Y-63758105D01*
X74288701Y-63912824D01*
X74163199Y-64092060D01*
X74163197Y-64092064D01*
X74070725Y-64290371D01*
X74070721Y-64290380D01*
X74014092Y-64501723D01*
X74014092Y-64501726D01*
X74010924Y-64537938D01*
X73995022Y-64719700D01*
X73995022Y-64719705D01*
X74014092Y-64937678D01*
X74014092Y-64937682D01*
X74070721Y-65149025D01*
X74070723Y-65149029D01*
X74070724Y-65149033D01*
X74116695Y-65247618D01*
X74163196Y-65347341D01*
X74163197Y-65347342D01*
X74288701Y-65526580D01*
X74443422Y-65681301D01*
X74621924Y-65806289D01*
X74665547Y-65860864D01*
X74674799Y-65907862D01*
X74674799Y-66071543D01*
X74655114Y-66138582D01*
X74621922Y-66173118D01*
X74443420Y-66298105D01*
X74288701Y-66452824D01*
X74163199Y-66632060D01*
X74163197Y-66632064D01*
X74070725Y-66830371D01*
X74070721Y-66830380D01*
X74014092Y-67041723D01*
X74014092Y-67041726D01*
X74011076Y-67076198D01*
X73995022Y-67259700D01*
X73995022Y-67259705D01*
X74000691Y-67324500D01*
X74013399Y-67469764D01*
X74014092Y-67477678D01*
X74014092Y-67477682D01*
X74070721Y-67689025D01*
X74070723Y-67689029D01*
X74070724Y-67689033D01*
X74109831Y-67772898D01*
X74163196Y-67887341D01*
X74171371Y-67899016D01*
X74288701Y-68066580D01*
X74443422Y-68221301D01*
X74621924Y-68346289D01*
X74665547Y-68400864D01*
X74674799Y-68447862D01*
X74674799Y-68611543D01*
X74655114Y-68678582D01*
X74621922Y-68713118D01*
X74443420Y-68838105D01*
X74288701Y-68992824D01*
X74163199Y-69172060D01*
X74163197Y-69172064D01*
X74070725Y-69370371D01*
X74070721Y-69370380D01*
X74014092Y-69581723D01*
X74014092Y-69581726D01*
X74009324Y-69636220D01*
X73995022Y-69799700D01*
X73995022Y-69799705D01*
X73450799Y-69799705D01*
X73450799Y-63494704D01*
X73470484Y-63427665D01*
X73503106Y-63395042D01*
X73503016Y-63394938D01*
X73504469Y-63393678D01*
X73507761Y-63390387D01*
X73509711Y-63389132D01*
X73509718Y-63389130D01*
X73515062Y-63384500D01*
X73557209Y-63347979D01*
X73613055Y-63299589D01*
X73686978Y-63184561D01*
X73725500Y-63053367D01*
X73725500Y-62916633D01*
X73725287Y-62915909D01*
X73688851Y-62791819D01*
X73686978Y-62785440D01*
X73686979Y-62785440D01*
X73613059Y-62670417D01*
X73613056Y-62670413D01*
X73613055Y-62670411D01*
X73613050Y-62670406D01*
X73609410Y-62666206D01*
X73580384Y-62602651D01*
X73590325Y-62533492D01*
X73609410Y-62503794D01*
X73613046Y-62499596D01*
X73613055Y-62499589D01*
X73686978Y-62384561D01*
X73725500Y-62253367D01*
X73725500Y-62116633D01*
X73723268Y-62109033D01*
X73702197Y-62037269D01*
X73686978Y-61985440D01*
X73686979Y-61985440D01*
X73613059Y-61870417D01*
X73613056Y-61870413D01*
X73613055Y-61870411D01*
X73613050Y-61870406D01*
X73609410Y-61866206D01*
X73580384Y-61802651D01*
X73590325Y-61733492D01*
X73609410Y-61703794D01*
X73613046Y-61699596D01*
X73613055Y-61699589D01*
X73686978Y-61584561D01*
X73725500Y-61453367D01*
X73725500Y-61316633D01*
X73723922Y-61311260D01*
X73702083Y-61236881D01*
X73686978Y-61185440D01*
X73686979Y-61185440D01*
X73613059Y-61070417D01*
X73613056Y-61070413D01*
X73613055Y-61070411D01*
X73613050Y-61070406D01*
X73609410Y-61066206D01*
X73580384Y-61002651D01*
X73590325Y-60933492D01*
X73609410Y-60903794D01*
X73613046Y-60899596D01*
X73613055Y-60899589D01*
X73686978Y-60784561D01*
X73725500Y-60653367D01*
X73725500Y-60579705D01*
X73985022Y-60579705D01*
X73986366Y-60595071D01*
X74003380Y-60789547D01*
X74004092Y-60797678D01*
X74004092Y-60797682D01*
X74060721Y-61009025D01*
X74060723Y-61009029D01*
X74060724Y-61009033D01*
X74086472Y-61064250D01*
X74153196Y-61207341D01*
X74160926Y-61218380D01*
X74278701Y-61386580D01*
X74433422Y-61541301D01*
X74612660Y-61666805D01*
X74810969Y-61759278D01*
X74810975Y-61759279D01*
X74810976Y-61759280D01*
X74841090Y-61767349D01*
X75022322Y-61815910D01*
X75204431Y-61831842D01*
X75240297Y-61834980D01*
X75240299Y-61834980D01*
X75240301Y-61834980D01*
X75276167Y-61831842D01*
X75458276Y-61815910D01*
X75669629Y-61759278D01*
X75867938Y-61666805D01*
X76047176Y-61541301D01*
X76201897Y-61386580D01*
X76327401Y-61207342D01*
X76343025Y-61173835D01*
X76389195Y-61121398D01*
X76456389Y-61102246D01*
X76523270Y-61122461D01*
X76567788Y-61173837D01*
X76606698Y-61257281D01*
X76742193Y-61450785D01*
X76909216Y-61617808D01*
X77102720Y-61753303D01*
X77316806Y-61853132D01*
X77316815Y-61853136D01*
X77530299Y-61910337D01*
X77530299Y-61015204D01*
X77637984Y-61064383D01*
X77744536Y-61079703D01*
X77816062Y-61079703D01*
X77922614Y-61064383D01*
X78030299Y-61015204D01*
X78030299Y-61910336D01*
X78243782Y-61853136D01*
X78243791Y-61853132D01*
X78457877Y-61753303D01*
X78651381Y-61617808D01*
X78818404Y-61450785D01*
X78953897Y-61257283D01*
X78992808Y-61173838D01*
X79038980Y-61121398D01*
X79106174Y-61102246D01*
X79173055Y-61122461D01*
X79217572Y-61173836D01*
X79233194Y-61207336D01*
X79233197Y-61207342D01*
X79358701Y-61386580D01*
X79513422Y-61541301D01*
X79692660Y-61666805D01*
X79890969Y-61759278D01*
X79890975Y-61759279D01*
X79890976Y-61759280D01*
X79921090Y-61767349D01*
X80102322Y-61815910D01*
X80284431Y-61831842D01*
X80320297Y-61834980D01*
X80320299Y-61834980D01*
X80320301Y-61834980D01*
X80356167Y-61831842D01*
X80538276Y-61815910D01*
X80749629Y-61759278D01*
X80947938Y-61666805D01*
X81127176Y-61541301D01*
X81281897Y-61386580D01*
X81407401Y-61207342D01*
X81499874Y-61009033D01*
X81556506Y-60797680D01*
X81574232Y-60595071D01*
X81575576Y-60579705D01*
X81575576Y-60579700D01*
X81561470Y-60418468D01*
X81556506Y-60361726D01*
X81531850Y-60269710D01*
X81533513Y-60199861D01*
X81563942Y-60149938D01*
X81745321Y-59968559D01*
X81806642Y-59935076D01*
X81876334Y-59940060D01*
X81920681Y-59968559D01*
X82053422Y-60101301D01*
X82226702Y-60222633D01*
X82232660Y-60226805D01*
X82383882Y-60297321D01*
X82436321Y-60343493D01*
X82455473Y-60410687D01*
X82435257Y-60477568D01*
X82383882Y-60522085D01*
X82232660Y-60592601D01*
X82232656Y-60592603D01*
X82053420Y-60718105D01*
X81898701Y-60872824D01*
X81773199Y-61052060D01*
X81773197Y-61052064D01*
X81680725Y-61250371D01*
X81680721Y-61250380D01*
X81624092Y-61461723D01*
X81624092Y-61461727D01*
X81605022Y-61679700D01*
X81605022Y-61679705D01*
X81611984Y-61759278D01*
X81623662Y-61892769D01*
X81624092Y-61897678D01*
X81624092Y-61897682D01*
X81680721Y-62109025D01*
X81680723Y-62109029D01*
X81680724Y-62109033D01*
X81688403Y-62125500D01*
X81773196Y-62307341D01*
X81797201Y-62341623D01*
X81898701Y-62486580D01*
X82053422Y-62641301D01*
X82232660Y-62766805D01*
X82430969Y-62859278D01*
X82642322Y-62915910D01*
X82825225Y-62931911D01*
X82860297Y-62934980D01*
X82860299Y-62934980D01*
X82860301Y-62934980D01*
X82889995Y-62932382D01*
X83078276Y-62915910D01*
X83289629Y-62859278D01*
X83487938Y-62766805D01*
X83667176Y-62641301D01*
X83821897Y-62486580D01*
X83947401Y-62307342D01*
X84039874Y-62109033D01*
X84096506Y-61897680D01*
X84115576Y-61679703D01*
X84114395Y-61666207D01*
X84106215Y-61572699D01*
X84096506Y-61461726D01*
X84071850Y-61369710D01*
X84073513Y-61299861D01*
X84103942Y-61249938D01*
X84882534Y-60471346D01*
X84943855Y-60437863D01*
X85013547Y-60442847D01*
X85069480Y-60484719D01*
X85093152Y-60542843D01*
X85099290Y-60589469D01*
X85099313Y-60589638D01*
X85099314Y-60589643D01*
X85130249Y-60664326D01*
X85155859Y-60726155D01*
X85157302Y-60729637D01*
X85201658Y-60787443D01*
X85228265Y-60822119D01*
X85228278Y-60822135D01*
X85249546Y-60849852D01*
X85249547Y-60849853D01*
X85249549Y-60849855D01*
X85273053Y-60867890D01*
X85276506Y-60870540D01*
X85282609Y-60875893D01*
X85656653Y-61249937D01*
X85690138Y-61311260D01*
X85688747Y-61369711D01*
X85664092Y-61461723D01*
X85664092Y-61461727D01*
X85645022Y-61679700D01*
X85645022Y-61679705D01*
X85651984Y-61759278D01*
X85663662Y-61892769D01*
X85664092Y-61897678D01*
X85664092Y-61897682D01*
X85720721Y-62109025D01*
X85720723Y-62109029D01*
X85720724Y-62109033D01*
X85728403Y-62125500D01*
X85813196Y-62307341D01*
X85837201Y-62341623D01*
X85938701Y-62486580D01*
X86093422Y-62641301D01*
X86272660Y-62766805D01*
X86470969Y-62859278D01*
X86682322Y-62915910D01*
X86865225Y-62931911D01*
X86900297Y-62934980D01*
X86900299Y-62934980D01*
X86900301Y-62934980D01*
X86929995Y-62932382D01*
X87118276Y-62915910D01*
X87329629Y-62859278D01*
X87527938Y-62766805D01*
X87707176Y-62641301D01*
X87861897Y-62486580D01*
X87987401Y-62307342D01*
X88079874Y-62109033D01*
X88136506Y-61897680D01*
X88155576Y-61679703D01*
X88136506Y-61461726D01*
X88079874Y-61250373D01*
X87987401Y-61052065D01*
X87987399Y-61052062D01*
X87987398Y-61052060D01*
X87861898Y-60872827D01*
X87786749Y-60797678D01*
X87707176Y-60718105D01*
X87527938Y-60592601D01*
X87376713Y-60522084D01*
X87324276Y-60475913D01*
X87305124Y-60408719D01*
X87325340Y-60341838D01*
X87376713Y-60297321D01*
X87527938Y-60226805D01*
X87707176Y-60101301D01*
X87861897Y-59946580D01*
X87987401Y-59767342D01*
X88079874Y-59569033D01*
X88136506Y-59357680D01*
X88153886Y-59159016D01*
X88155576Y-59139705D01*
X88155576Y-59139700D01*
X88144229Y-59009999D01*
X88136506Y-58921726D01*
X88111850Y-58829710D01*
X88113513Y-58759861D01*
X88143942Y-58709938D01*
X88547697Y-58306183D01*
X88553788Y-58300841D01*
X88580750Y-58280154D01*
X88581343Y-58279382D01*
X88597693Y-58258073D01*
X88597704Y-58258061D01*
X88672997Y-58159936D01*
X88689986Y-58118920D01*
X88730986Y-58019939D01*
X88734260Y-57995071D01*
X88735632Y-57984648D01*
X88740262Y-57949477D01*
X88745799Y-57907423D01*
X88745799Y-57907417D01*
X88750764Y-57869703D01*
X88746329Y-57836019D01*
X88745799Y-57827922D01*
X88745799Y-49481483D01*
X88746330Y-49473381D01*
X88750313Y-49443132D01*
X88750764Y-49439703D01*
X88750634Y-49438719D01*
X88748819Y-49424931D01*
X88746065Y-49404016D01*
X88746064Y-49403997D01*
X88744795Y-49394356D01*
X88730986Y-49289467D01*
X88672997Y-49149470D01*
X88652097Y-49122233D01*
X88603911Y-49059435D01*
X88603910Y-49059434D01*
X88601441Y-49056216D01*
X88601441Y-49056217D01*
X88580750Y-49029252D01*
X88580748Y-49029250D01*
X88580747Y-49029249D01*
X88565918Y-49017870D01*
X88553789Y-49008564D01*
X88547699Y-49003223D01*
X88143944Y-48599468D01*
X88110459Y-48538145D01*
X88111851Y-48479692D01*
X88130084Y-48411648D01*
X88136506Y-48387680D01*
X88155576Y-48169703D01*
X88136506Y-47951726D01*
X88079874Y-47740373D01*
X87987401Y-47542065D01*
X87987399Y-47542062D01*
X87987398Y-47542060D01*
X87861898Y-47362827D01*
X87790891Y-47291820D01*
X87707176Y-47208105D01*
X87527938Y-47082601D01*
X87376713Y-47012084D01*
X87324276Y-46965913D01*
X87305124Y-46898719D01*
X87325340Y-46831838D01*
X87376713Y-46787321D01*
X87527938Y-46716805D01*
X87707176Y-46591301D01*
X87861897Y-46436580D01*
X87987401Y-46257342D01*
X88079874Y-46059033D01*
X88136506Y-45847680D01*
X88155576Y-45629703D01*
X88136506Y-45411726D01*
X88093532Y-45251344D01*
X88079876Y-45200380D01*
X88079875Y-45200379D01*
X88079874Y-45200373D01*
X87987401Y-45002065D01*
X87987399Y-45002062D01*
X87987398Y-45002060D01*
X87861898Y-44822827D01*
X87790891Y-44751820D01*
X87707176Y-44668105D01*
X87527938Y-44542601D01*
X87376713Y-44472084D01*
X87324276Y-44425913D01*
X87305124Y-44358719D01*
X87325340Y-44291838D01*
X87376713Y-44247321D01*
X87527938Y-44176805D01*
X87707176Y-44051301D01*
X87861897Y-43896580D01*
X87987401Y-43717342D01*
X88079874Y-43519033D01*
X88136506Y-43307680D01*
X88155576Y-43089703D01*
X88136506Y-42871726D01*
X88093545Y-42711395D01*
X88079876Y-42660380D01*
X88079875Y-42660379D01*
X88079874Y-42660373D01*
X87987401Y-42462065D01*
X87987399Y-42462062D01*
X87987398Y-42462060D01*
X87861898Y-42282827D01*
X87790891Y-42211820D01*
X87707176Y-42128105D01*
X87527938Y-42002601D01*
X87376713Y-41932084D01*
X87324276Y-41885913D01*
X87305124Y-41818719D01*
X87325340Y-41751838D01*
X87376713Y-41707321D01*
X87527938Y-41636805D01*
X87707176Y-41511301D01*
X87861897Y-41356580D01*
X87987401Y-41177342D01*
X88079874Y-40979033D01*
X88136506Y-40767680D01*
X88155576Y-40549703D01*
X88136506Y-40331726D01*
X88094487Y-40174908D01*
X88079876Y-40120380D01*
X88079875Y-40120379D01*
X88079874Y-40120373D01*
X87987401Y-39922065D01*
X87987399Y-39922062D01*
X87987398Y-39922060D01*
X87861898Y-39742827D01*
X87785961Y-39666890D01*
X87707176Y-39588105D01*
X87528365Y-39462900D01*
X87527937Y-39462600D01*
X87428783Y-39416364D01*
X87329629Y-39370128D01*
X87329625Y-39370127D01*
X87329621Y-39370125D01*
X87118276Y-39313496D01*
X86900301Y-39294426D01*
X86900297Y-39294426D01*
X86754981Y-39307139D01*
X86682322Y-39313496D01*
X86682319Y-39313496D01*
X86470976Y-39370125D01*
X86470967Y-39370129D01*
X86272660Y-39462601D01*
X86272656Y-39462603D01*
X86093420Y-39588105D01*
X85938701Y-39742824D01*
X85813199Y-39922060D01*
X85813197Y-39922064D01*
X85720725Y-40120371D01*
X85720721Y-40120380D01*
X85664092Y-40331723D01*
X85664092Y-40331726D01*
X85662767Y-40346867D01*
X85645022Y-40549700D01*
X85645022Y-40549705D01*
X85651311Y-40621592D01*
X85663380Y-40759547D01*
X85664092Y-40767678D01*
X85664093Y-40767685D01*
X85688746Y-40859695D01*
X85687083Y-40929545D01*
X85656652Y-40979468D01*
X85252907Y-41383213D01*
X85246806Y-41388564D01*
X85219849Y-41409251D01*
X85219848Y-41409252D01*
X85215026Y-41415536D01*
X85195432Y-41441070D01*
X85195431Y-41441069D01*
X85174393Y-41468489D01*
X85127601Y-41529469D01*
X85127599Y-41529472D01*
X85069612Y-41669466D01*
X85069612Y-41669467D01*
X85054267Y-41786018D01*
X85054268Y-41786019D01*
X85052796Y-41797202D01*
X85049834Y-41819703D01*
X85052753Y-41841879D01*
X85054268Y-41853381D01*
X85054799Y-41861483D01*
X85054799Y-43292142D01*
X85035114Y-43359181D01*
X85018480Y-43379823D01*
X84695420Y-43702884D01*
X84634097Y-43736369D01*
X84607739Y-43739203D01*
X84141848Y-43739203D01*
X84074809Y-43719518D01*
X84029054Y-43666714D01*
X84019110Y-43597556D01*
X84029466Y-43562799D01*
X84049735Y-43519331D01*
X84049874Y-43519033D01*
X84106506Y-43307680D01*
X84125576Y-43089703D01*
X84106506Y-42871726D01*
X84063545Y-42711395D01*
X84049876Y-42660380D01*
X84049875Y-42660379D01*
X84049874Y-42660373D01*
X83957401Y-42462065D01*
X83957399Y-42462062D01*
X83957398Y-42462060D01*
X83831898Y-42282827D01*
X83760891Y-42211820D01*
X83677176Y-42128105D01*
X83497938Y-42002601D01*
X83346713Y-41932084D01*
X83294276Y-41885913D01*
X83275124Y-41818719D01*
X83295340Y-41751838D01*
X83346713Y-41707321D01*
X83497938Y-41636805D01*
X83677176Y-41511301D01*
X83831897Y-41356580D01*
X83957401Y-41177342D01*
X84049874Y-40979033D01*
X84106506Y-40767680D01*
X84125576Y-40549703D01*
X84106506Y-40331726D01*
X84064487Y-40174908D01*
X84049876Y-40120380D01*
X84049875Y-40120379D01*
X84049874Y-40120373D01*
X83957401Y-39922065D01*
X83957399Y-39922062D01*
X83957398Y-39922060D01*
X83831898Y-39742827D01*
X83755961Y-39666890D01*
X83677176Y-39588105D01*
X83498365Y-39462900D01*
X83497937Y-39462600D01*
X83398783Y-39416364D01*
X83299629Y-39370128D01*
X83299625Y-39370127D01*
X83299621Y-39370125D01*
X83088276Y-39313496D01*
X82870301Y-39294426D01*
X82870297Y-39294426D01*
X82724980Y-39307139D01*
X82652322Y-39313496D01*
X82652319Y-39313496D01*
X82440976Y-39370125D01*
X82440967Y-39370129D01*
X82242660Y-39462601D01*
X82242656Y-39462603D01*
X82063420Y-39588105D01*
X81908701Y-39742824D01*
X81783199Y-39922060D01*
X81783197Y-39922064D01*
X81690725Y-40120371D01*
X81690721Y-40120380D01*
X81634092Y-40331723D01*
X81634092Y-40331726D01*
X81632767Y-40346867D01*
X81615022Y-40549700D01*
X81615022Y-40549705D01*
X81621311Y-40621592D01*
X81633380Y-40759547D01*
X81634092Y-40767678D01*
X81634093Y-40767685D01*
X81658746Y-40859695D01*
X81657083Y-40929545D01*
X81626652Y-40979468D01*
X81222907Y-41383213D01*
X81216806Y-41388564D01*
X81189849Y-41409251D01*
X81189848Y-41409252D01*
X81185026Y-41415536D01*
X81165432Y-41441070D01*
X81165431Y-41441069D01*
X81144393Y-41468489D01*
X81097601Y-41529469D01*
X81097599Y-41529472D01*
X81039612Y-41669466D01*
X81039612Y-41669467D01*
X81024267Y-41786018D01*
X81024268Y-41786019D01*
X81022796Y-41797202D01*
X81019834Y-41819703D01*
X81022753Y-41841879D01*
X81024268Y-41853381D01*
X81024799Y-41861483D01*
X81024799Y-42759960D01*
X81005114Y-42826999D01*
X80988480Y-42847641D01*
X77402907Y-46433213D01*
X77396806Y-46438564D01*
X77369849Y-46459251D01*
X77369848Y-46459252D01*
X77363783Y-46467156D01*
X77345432Y-46491070D01*
X77345431Y-46491069D01*
X77307472Y-46540541D01*
X77277600Y-46579470D01*
X77219612Y-46719466D01*
X77219612Y-46719467D01*
X77204267Y-46836018D01*
X77204268Y-46836019D01*
X77200333Y-46865910D01*
X77199834Y-46869703D01*
X77202468Y-46889714D01*
X77204268Y-46903381D01*
X77204799Y-46911483D01*
X77204799Y-46981543D01*
X77185114Y-47048582D01*
X77151922Y-47083118D01*
X76973420Y-47208105D01*
X76818701Y-47362824D01*
X76693199Y-47542060D01*
X76693197Y-47542064D01*
X76622681Y-47693286D01*
X76576508Y-47745725D01*
X76509315Y-47764877D01*
X76442434Y-47744661D01*
X76397917Y-47693286D01*
X76360848Y-47613793D01*
X76327401Y-47542065D01*
X76327399Y-47542062D01*
X76327398Y-47542060D01*
X76201898Y-47362827D01*
X76130891Y-47291820D01*
X76047176Y-47208105D01*
X76031613Y-47197208D01*
X75868675Y-47083116D01*
X75825050Y-47028539D01*
X75815799Y-46981542D01*
X75815799Y-44277862D01*
X75835484Y-44210823D01*
X75868672Y-44176290D01*
X76047176Y-44051301D01*
X76201897Y-43896580D01*
X76327401Y-43717342D01*
X76343025Y-43683835D01*
X76389195Y-43631398D01*
X76456389Y-43612246D01*
X76523270Y-43632461D01*
X76567788Y-43683837D01*
X76606698Y-43767281D01*
X76742193Y-43960785D01*
X76909216Y-44127808D01*
X77102720Y-44263303D01*
X77316806Y-44363132D01*
X77316815Y-44363136D01*
X77530299Y-44420337D01*
X77530299Y-43525204D01*
X77637984Y-43574383D01*
X77744536Y-43589703D01*
X77816062Y-43589703D01*
X77922614Y-43574383D01*
X78030299Y-43525204D01*
X78030299Y-44420336D01*
X78243782Y-44363136D01*
X78243791Y-44363132D01*
X78457877Y-44263303D01*
X78651381Y-44127808D01*
X78818404Y-43960785D01*
X78953899Y-43767281D01*
X79053728Y-43553195D01*
X79053731Y-43553189D01*
X79110935Y-43339703D01*
X78213985Y-43339703D01*
X78239792Y-43299547D01*
X78280299Y-43161592D01*
X78280299Y-43017814D01*
X78239792Y-42879859D01*
X78213985Y-42839703D01*
X79110935Y-42839703D01*
X79110934Y-42839702D01*
X79053731Y-42626216D01*
X79053728Y-42626210D01*
X78953899Y-42412125D01*
X78953898Y-42412123D01*
X78818412Y-42218629D01*
X78818407Y-42218623D01*
X78651381Y-42051597D01*
X78465267Y-41921278D01*
X78421643Y-41866701D01*
X78414450Y-41797202D01*
X78445972Y-41734848D01*
X78465267Y-41718128D01*
X78651381Y-41587808D01*
X78818404Y-41420785D01*
X78953899Y-41227281D01*
X79053728Y-41013195D01*
X79053731Y-41013189D01*
X79110935Y-40799703D01*
X78213985Y-40799703D01*
X78239792Y-40759547D01*
X78280299Y-40621592D01*
X78280299Y-40477814D01*
X78239792Y-40339859D01*
X78213985Y-40299703D01*
X79110935Y-40299703D01*
X79110934Y-40299702D01*
X79053731Y-40086216D01*
X79053728Y-40086210D01*
X78953899Y-39872125D01*
X78953898Y-39872123D01*
X78818412Y-39678629D01*
X78818407Y-39678623D01*
X78651381Y-39511597D01*
X78457877Y-39376102D01*
X78243791Y-39276273D01*
X78243785Y-39276270D01*
X78030299Y-39219067D01*
X78030299Y-40114201D01*
X77922614Y-40065023D01*
X77816062Y-40049703D01*
X77744536Y-40049703D01*
X77637984Y-40065023D01*
X77530299Y-40114201D01*
X77530299Y-39219067D01*
X77530298Y-39219067D01*
X77316812Y-39276270D01*
X77316806Y-39276273D01*
X77102721Y-39376102D01*
X77102719Y-39376103D01*
X76909225Y-39511589D01*
X76909219Y-39511594D01*
X76742190Y-39678623D01*
X76742185Y-39678629D01*
X76606699Y-39872123D01*
X76606698Y-39872125D01*
X76567788Y-39955569D01*
X76521616Y-40008008D01*
X76454422Y-40027160D01*
X76387541Y-40006944D01*
X76343024Y-39955569D01*
X76327401Y-39922065D01*
X76327399Y-39922062D01*
X76327398Y-39922060D01*
X76201898Y-39742827D01*
X76125961Y-39666890D01*
X76047176Y-39588105D01*
X75868365Y-39462900D01*
X75867937Y-39462600D01*
X75768783Y-39416364D01*
X75669629Y-39370128D01*
X75669625Y-39370127D01*
X75669621Y-39370125D01*
X75458276Y-39313496D01*
X75240301Y-39294426D01*
X75240297Y-39294426D01*
X75094981Y-39307139D01*
X75022322Y-39313496D01*
X75022319Y-39313496D01*
X74810976Y-39370125D01*
X74810967Y-39370129D01*
X74612660Y-39462601D01*
X74612656Y-39462603D01*
X74433420Y-39588105D01*
X74278701Y-39742824D01*
X74153199Y-39922060D01*
X74153197Y-39922064D01*
X74060725Y-40120371D01*
X74060721Y-40120380D01*
X74004092Y-40331723D01*
X74004092Y-40331726D01*
X74002767Y-40346867D01*
X73985022Y-40549700D01*
X73985022Y-40549705D01*
X73991311Y-40621592D01*
X74003380Y-40759547D01*
X74004092Y-40767678D01*
X74004092Y-40767682D01*
X74060721Y-40979025D01*
X74060723Y-40979029D01*
X74060724Y-40979033D01*
X74076654Y-41013195D01*
X74153196Y-41177341D01*
X74153404Y-41177638D01*
X74278701Y-41356580D01*
X74433422Y-41511301D01*
X74611924Y-41636289D01*
X74655547Y-41690864D01*
X74664799Y-41737862D01*
X74664799Y-41901543D01*
X74645114Y-41968582D01*
X74611922Y-42003118D01*
X74433420Y-42128105D01*
X74278701Y-42282824D01*
X74153199Y-42462060D01*
X74153197Y-42462064D01*
X74060725Y-42660371D01*
X74060721Y-42660380D01*
X74004092Y-42871723D01*
X74004092Y-42871726D01*
X73999324Y-42926220D01*
X73985022Y-43089700D01*
X73985022Y-43089705D01*
X73991311Y-43161592D01*
X74003380Y-43299547D01*
X74004092Y-43307678D01*
X74004092Y-43307682D01*
X74060721Y-43519025D01*
X74060723Y-43519029D01*
X74060724Y-43519033D01*
X74082819Y-43566416D01*
X74153196Y-43717341D01*
X74166520Y-43736369D01*
X74278701Y-43896580D01*
X74433422Y-44051301D01*
X74611924Y-44176289D01*
X74655547Y-44230864D01*
X74664799Y-44277862D01*
X74664799Y-46981543D01*
X74645114Y-47048582D01*
X74611922Y-47083118D01*
X74433420Y-47208105D01*
X74278701Y-47362824D01*
X74153199Y-47542060D01*
X74153197Y-47542064D01*
X74060725Y-47740371D01*
X74060721Y-47740380D01*
X74004092Y-47951723D01*
X74004092Y-47951726D01*
X73999324Y-48006220D01*
X73985022Y-48169700D01*
X73985022Y-48169705D01*
X73989629Y-48222361D01*
X74003380Y-48379547D01*
X74004092Y-48387678D01*
X74004092Y-48387682D01*
X74060721Y-48599025D01*
X74060723Y-48599029D01*
X74060724Y-48599033D01*
X74099831Y-48682898D01*
X74153196Y-48797341D01*
X74153197Y-48797342D01*
X74278701Y-48976580D01*
X74433422Y-49131301D01*
X74611924Y-49256289D01*
X74655547Y-49310864D01*
X74664799Y-49357862D01*
X74664799Y-51111543D01*
X74645114Y-51178582D01*
X74611922Y-51213118D01*
X74433420Y-51338105D01*
X74278701Y-51492824D01*
X74153199Y-51672060D01*
X74153197Y-51672064D01*
X74060725Y-51870371D01*
X74060721Y-51870380D01*
X74004092Y-52081723D01*
X74004092Y-52081726D01*
X74003191Y-52092020D01*
X73985022Y-52299700D01*
X73985022Y-52299705D01*
X73985923Y-52310000D01*
X74004022Y-52516884D01*
X74004092Y-52517678D01*
X74004092Y-52517682D01*
X74060721Y-52729025D01*
X74060723Y-52729029D01*
X74060724Y-52729033D01*
X74103159Y-52820035D01*
X74153196Y-52927341D01*
X74167787Y-52948179D01*
X74278701Y-53106580D01*
X74433422Y-53261301D01*
X74612660Y-53386805D01*
X74810969Y-53479278D01*
X75022322Y-53535910D01*
X75193172Y-53550857D01*
X75240297Y-53554980D01*
X75240299Y-53554980D01*
X75240301Y-53554980D01*
X75270511Y-53552336D01*
X75458276Y-53535910D01*
X75550288Y-53511255D01*
X75620138Y-53512917D01*
X75670064Y-53543348D01*
X75908479Y-53781763D01*
X75941964Y-53843086D01*
X75944798Y-53869444D01*
X75944799Y-55193801D01*
X75925114Y-55260840D01*
X75872311Y-55306595D01*
X75803152Y-55316539D01*
X75768394Y-55306183D01*
X75669629Y-55260128D01*
X75669625Y-55260127D01*
X75669621Y-55260125D01*
X75458276Y-55203496D01*
X75240301Y-55184426D01*
X75240297Y-55184426D01*
X75133139Y-55193801D01*
X75022322Y-55203496D01*
X75022319Y-55203496D01*
X74810976Y-55260125D01*
X74810967Y-55260129D01*
X74612660Y-55352601D01*
X74612656Y-55352603D01*
X74433420Y-55478105D01*
X74278701Y-55632824D01*
X74153199Y-55812060D01*
X74153197Y-55812064D01*
X74060725Y-56010371D01*
X74060721Y-56010380D01*
X74004092Y-56221723D01*
X74004092Y-56221726D01*
X74000345Y-56264555D01*
X73985022Y-56439700D01*
X73985022Y-56439705D01*
X73987673Y-56470001D01*
X74003693Y-56653125D01*
X74004092Y-56657678D01*
X74004092Y-56657682D01*
X74060721Y-56869025D01*
X74060723Y-56869029D01*
X74060724Y-56869033D01*
X74079062Y-56908359D01*
X74153196Y-57067341D01*
X74174411Y-57097639D01*
X74278701Y-57246580D01*
X74433422Y-57401301D01*
X74612660Y-57526805D01*
X74810969Y-57619278D01*
X75022322Y-57675910D01*
X75205225Y-57691911D01*
X75240297Y-57694980D01*
X75240299Y-57694980D01*
X75240301Y-57694980D01*
X75268553Y-57692508D01*
X75458276Y-57675910D01*
X75669629Y-57619278D01*
X75863591Y-57528831D01*
X75932668Y-57518340D01*
X75996452Y-57546860D01*
X76014371Y-57565727D01*
X76088577Y-57662434D01*
X76109845Y-57690151D01*
X76109846Y-57690152D01*
X76109848Y-57690154D01*
X76130769Y-57706207D01*
X76136805Y-57710839D01*
X76142908Y-57716192D01*
X77493170Y-59066454D01*
X77526655Y-59127777D01*
X77521671Y-59197469D01*
X77479799Y-59253402D01*
X77437583Y-59273910D01*
X77316813Y-59306270D01*
X77316806Y-59306273D01*
X77102721Y-59406102D01*
X77102719Y-59406103D01*
X76909225Y-59541589D01*
X76909219Y-59541594D01*
X76742190Y-59708623D01*
X76742185Y-59708629D01*
X76606699Y-59902123D01*
X76606698Y-59902125D01*
X76567788Y-59985569D01*
X76521616Y-60038008D01*
X76454422Y-60057160D01*
X76387541Y-60036944D01*
X76343024Y-59985569D01*
X76336509Y-59971598D01*
X76327401Y-59952065D01*
X76327399Y-59952062D01*
X76327398Y-59952060D01*
X76201898Y-59772827D01*
X76125606Y-59696535D01*
X76047176Y-59618105D01*
X75896418Y-59512543D01*
X75867937Y-59492600D01*
X75751476Y-59438294D01*
X75669629Y-59400128D01*
X75669625Y-59400127D01*
X75669621Y-59400125D01*
X75458276Y-59343496D01*
X75240301Y-59324426D01*
X75240297Y-59324426D01*
X75107364Y-59336056D01*
X75022322Y-59343496D01*
X75022319Y-59343496D01*
X74810976Y-59400125D01*
X74810969Y-59400127D01*
X74810969Y-59400128D01*
X74798158Y-59406102D01*
X74612660Y-59492601D01*
X74612656Y-59492603D01*
X74433420Y-59618105D01*
X74278701Y-59772824D01*
X74153199Y-59952060D01*
X74153197Y-59952064D01*
X74060725Y-60150371D01*
X74060721Y-60150380D01*
X74004092Y-60361723D01*
X74004092Y-60361726D01*
X74003331Y-60370425D01*
X73985022Y-60579700D01*
X73985022Y-60579705D01*
X73725500Y-60579705D01*
X73725500Y-60516633D01*
X73716443Y-60485789D01*
X73703009Y-60440035D01*
X73686978Y-60385440D01*
X73686979Y-60385440D01*
X73613059Y-60270417D01*
X73613056Y-60270413D01*
X73613055Y-60270411D01*
X73613050Y-60270406D01*
X73609410Y-60266206D01*
X73580384Y-60202651D01*
X73590325Y-60133492D01*
X73609410Y-60103794D01*
X73613046Y-60099596D01*
X73613055Y-60099589D01*
X73686978Y-59984561D01*
X73725500Y-59853367D01*
X73725500Y-59716633D01*
X73686978Y-59585440D01*
X73686979Y-59585440D01*
X73613059Y-59470417D01*
X73613056Y-59470413D01*
X73613055Y-59470411D01*
X73613050Y-59470406D01*
X73609410Y-59466206D01*
X73580384Y-59402651D01*
X73590325Y-59333492D01*
X73609410Y-59303794D01*
X73613046Y-59299596D01*
X73613055Y-59299589D01*
X73686978Y-59184561D01*
X73725500Y-59053367D01*
X73725500Y-58916633D01*
X73686978Y-58785440D01*
X73686979Y-58785440D01*
X73613059Y-58670417D01*
X73613056Y-58670413D01*
X73613055Y-58670411D01*
X73613050Y-58670406D01*
X73609410Y-58666206D01*
X73580384Y-58602651D01*
X73590325Y-58533492D01*
X73609410Y-58503794D01*
X73613046Y-58499596D01*
X73613055Y-58499589D01*
X73686978Y-58384561D01*
X73725500Y-58253367D01*
X73725500Y-58116633D01*
X73722958Y-58107977D01*
X73705466Y-58048402D01*
X73686978Y-57985440D01*
X73686979Y-57985440D01*
X73613059Y-57870417D01*
X73613056Y-57870413D01*
X73613055Y-57870411D01*
X73613050Y-57870406D01*
X73609410Y-57866206D01*
X73580384Y-57802651D01*
X73590325Y-57733492D01*
X73609410Y-57703794D01*
X73613046Y-57699596D01*
X73613055Y-57699589D01*
X73686978Y-57584561D01*
X73725500Y-57453367D01*
X73725500Y-57316633D01*
X73718809Y-57293847D01*
X73695853Y-57215665D01*
X73686978Y-57185440D01*
X73686979Y-57185440D01*
X73613059Y-57070417D01*
X73613056Y-57070413D01*
X73613055Y-57070411D01*
X73613050Y-57070406D01*
X73609410Y-57066206D01*
X73580384Y-57002651D01*
X73590325Y-56933492D01*
X73609410Y-56903794D01*
X73613046Y-56899596D01*
X73613055Y-56899589D01*
X73686978Y-56784561D01*
X73725500Y-56653367D01*
X73725500Y-56516633D01*
X73711806Y-56469997D01*
X73702910Y-56439700D01*
X73686978Y-56385440D01*
X73686979Y-56385440D01*
X73613057Y-56270413D01*
X73613053Y-56270409D01*
X73509720Y-56180871D01*
X73507762Y-56179613D01*
X73506236Y-56177852D01*
X73503016Y-56175062D01*
X73503417Y-56174599D01*
X73462005Y-56126811D01*
X73450797Y-56075299D01*
X73450796Y-36581577D01*
X73450853Y-36579702D01*
X74444637Y-36579702D01*
X74465232Y-36815105D01*
X74465234Y-36815115D01*
X74526390Y-37043357D01*
X74526392Y-37043361D01*
X74526393Y-37043365D01*
X74576327Y-37150447D01*
X74626260Y-37257530D01*
X74626261Y-37257532D01*
X74761801Y-37451104D01*
X74928893Y-37618196D01*
X75122465Y-37753736D01*
X75122467Y-37753737D01*
X75336633Y-37853605D01*
X75336639Y-37853606D01*
X75336640Y-37853607D01*
X75391581Y-37868328D01*
X75564888Y-37914765D01*
X75741328Y-37930201D01*
X75741329Y-37930202D01*
X75741330Y-37930202D01*
X75859263Y-37930202D01*
X75859263Y-37930201D01*
X76035704Y-37914765D01*
X76263959Y-37853605D01*
X76478125Y-37753737D01*
X76671697Y-37618197D01*
X76838791Y-37451103D01*
X76974331Y-37257532D01*
X77074199Y-37043365D01*
X77135359Y-36815110D01*
X77155955Y-36579702D01*
X86044637Y-36579702D01*
X86065232Y-36815105D01*
X86065234Y-36815115D01*
X86126390Y-37043357D01*
X86126392Y-37043361D01*
X86126393Y-37043365D01*
X86176327Y-37150447D01*
X86226260Y-37257530D01*
X86226261Y-37257532D01*
X86361801Y-37451104D01*
X86528893Y-37618196D01*
X86722465Y-37753736D01*
X86722467Y-37753737D01*
X86936633Y-37853605D01*
X86936639Y-37853606D01*
X86936640Y-37853607D01*
X86991581Y-37868328D01*
X87164888Y-37914765D01*
X87341328Y-37930201D01*
X87341329Y-37930202D01*
X87341330Y-37930202D01*
X87459263Y-37930202D01*
X87459263Y-37930201D01*
X87635704Y-37914765D01*
X87863959Y-37853605D01*
X88078125Y-37753737D01*
X88271697Y-37618197D01*
X88438791Y-37451103D01*
X88574331Y-37257532D01*
X88674199Y-37043365D01*
X88735359Y-36815110D01*
X88755955Y-36579702D01*
X88735359Y-36344294D01*
X88674199Y-36116039D01*
X88574331Y-35901873D01*
X88574330Y-35901871D01*
X88438790Y-35708299D01*
X88271698Y-35541207D01*
X88078126Y-35405667D01*
X88078124Y-35405666D01*
X87971041Y-35355732D01*
X87863959Y-35305799D01*
X87863955Y-35305798D01*
X87863951Y-35305796D01*
X87635709Y-35244640D01*
X87635699Y-35244638D01*
X87459263Y-35229202D01*
X87459262Y-35229202D01*
X87341330Y-35229202D01*
X87341329Y-35229202D01*
X87164892Y-35244638D01*
X87164882Y-35244640D01*
X86936640Y-35305796D01*
X86936633Y-35305798D01*
X86936633Y-35305799D01*
X86935994Y-35306097D01*
X86722467Y-35405666D01*
X86722465Y-35405667D01*
X86528893Y-35541207D01*
X86361802Y-35708299D01*
X86361797Y-35708306D01*
X86226263Y-35901867D01*
X86226261Y-35901871D01*
X86126394Y-36116037D01*
X86126390Y-36116046D01*
X86065234Y-36344288D01*
X86065232Y-36344298D01*
X86044637Y-36579701D01*
X86044637Y-36579702D01*
X77155955Y-36579702D01*
X77135359Y-36344294D01*
X77074199Y-36116039D01*
X76974331Y-35901873D01*
X76974330Y-35901871D01*
X76838790Y-35708299D01*
X76671698Y-35541207D01*
X76478126Y-35405667D01*
X76478124Y-35405666D01*
X76371042Y-35355733D01*
X76263959Y-35305799D01*
X76263955Y-35305798D01*
X76263951Y-35305796D01*
X76035709Y-35244640D01*
X76035699Y-35244638D01*
X75859263Y-35229202D01*
X75859262Y-35229202D01*
X75741330Y-35229202D01*
X75741329Y-35229202D01*
X75564892Y-35244638D01*
X75564882Y-35244640D01*
X75336640Y-35305796D01*
X75336633Y-35305798D01*
X75336633Y-35305799D01*
X75335994Y-35306097D01*
X75122467Y-35405666D01*
X75122465Y-35405667D01*
X74928893Y-35541207D01*
X74761802Y-35708299D01*
X74761797Y-35708306D01*
X74626263Y-35901867D01*
X74626261Y-35901871D01*
X74526394Y-36116037D01*
X74526390Y-36116046D01*
X74465234Y-36344288D01*
X74465232Y-36344298D01*
X74444637Y-36579701D01*
X74444637Y-36579702D01*
X73450853Y-36579702D01*
X73450909Y-36577834D01*
X73451096Y-36574740D01*
X73456764Y-36481029D01*
X73469151Y-36292107D01*
X73470027Y-36285032D01*
X73493699Y-36155861D01*
X73524426Y-36001385D01*
X73526029Y-35995089D01*
X73566897Y-35863937D01*
X73567310Y-35862672D01*
X73615759Y-35719944D01*
X73617907Y-35714487D01*
X73675302Y-35586962D01*
X73676195Y-35585066D01*
X73741706Y-35452222D01*
X73744236Y-35447602D01*
X73817211Y-35326887D01*
X73818702Y-35324542D01*
X73900317Y-35202396D01*
X73903020Y-35198665D01*
X73990431Y-35087094D01*
X73992531Y-35084561D01*
X74089079Y-34974468D01*
X74091824Y-34971536D01*
X74192153Y-34871207D01*
X74195040Y-34868503D01*
X74305135Y-34771952D01*
X74307697Y-34769828D01*
X74419274Y-34682413D01*
X74422994Y-34679718D01*
X74545193Y-34598068D01*
X74547424Y-34596649D01*
X74668224Y-34523622D01*
X74672775Y-34521130D01*
X74805688Y-34455584D01*
X74807532Y-34454715D01*
X74935091Y-34397305D01*
X74940542Y-34395160D01*
X75083294Y-34346702D01*
X75084538Y-34346297D01*
X75215693Y-34305427D01*
X75221975Y-34303828D01*
X75376455Y-34273100D01*
X75505611Y-34249431D01*
X75512695Y-34248552D01*
X75702384Y-34236118D01*
X75788266Y-34230923D01*
X75798331Y-34230315D01*
X75802075Y-34230202D01*
X77895724Y-34230202D01*
X77962763Y-34249887D01*
G37*
%TD.AperFunction*%
%TD*%
M02*
