M48
; DRILL file {KiCad 7.0.5} date Wed Jan 10 23:57:24 2024
; FORMAT={-:-/ absolute / metric / decimal}
; #@! TF.CreationDate,2024-01-10T23:57:24+08:00
; #@! TF.GenerationSoftware,Kicad,Pcbnew,7.0.5
; #@! TF.FileFunction,Plated,1,2,PTH
FMAT,2
METRIC
; #@! TA.AperFunction,Plated,PTH,ViaDrill
T1C0.400
; #@! TA.AperFunction,Plated,PTH,ComponentDrill
T2C1.000
; #@! TA.AperFunction,Plated,PTH,ComponentDrill
T3C1.092
%
G90
G05
T1
X53.87Y-61.03
X56.21Y-73.36
X58.75Y-59.76
X58.75Y-62.36
X63.33Y-64.24
X74.17Y-58.54
X76.51Y-46.19
X79.05Y-57.21
X79.05Y-59.81
X83.63Y-55.33
T2
X25.87Y-51.39
X25.87Y-53.93
X25.87Y-56.47
X28.465Y-51.39
X31.005Y-51.39
X31.49Y-40.91
X33.545Y-51.39
X34.03Y-40.91
X36.085Y-51.39
X36.57Y-40.91
X38.625Y-51.39
X39.11Y-40.91
X41.22Y-51.39
X41.22Y-53.93
X41.22Y-56.47
X41.65Y-40.91
X45.19Y-46.31
X45.19Y-48.85
X45.19Y-51.39
X45.19Y-53.93
X45.19Y-56.47
X45.19Y-59.01
X45.19Y-61.55
X45.19Y-64.09
X45.19Y-66.63
X45.19Y-69.17
X45.19Y-71.71
X45.19Y-74.25
X47.73Y-46.31
X47.73Y-48.85
X47.73Y-51.39
X47.73Y-53.93
X47.73Y-56.47
X47.73Y-59.01
X47.73Y-61.55
X47.73Y-64.09
X47.73Y-66.63
X47.73Y-69.17
X47.73Y-71.71
X47.73Y-74.25
X54.94Y-58.99
X54.94Y-63.13
X54.94Y-67.27
X54.94Y-71.4
X54.94Y-76.48
X54.94Y-79.02
X54.95Y-40.55
X54.95Y-43.09
X54.95Y-45.63
X54.95Y-49.77
X54.95Y-52.31
X54.95Y-54.85
X57.48Y-58.99
X57.48Y-63.13
X57.48Y-67.27
X57.48Y-71.4
X57.48Y-76.48
X57.48Y-79.02
X57.49Y-40.55
X57.49Y-43.09
X57.49Y-45.63
X57.49Y-49.77
X57.49Y-52.31
X57.49Y-54.85
X60.02Y-58.99
X60.02Y-63.13
X60.02Y-67.27
X60.02Y-71.4
X60.03Y-40.55
X60.03Y-43.09
X60.03Y-45.63
X60.03Y-49.77
X60.03Y-52.31
X60.03Y-54.85
X62.56Y-57.89
X62.56Y-60.43
X62.56Y-62.97
X62.56Y-65.51
X62.57Y-40.55
X62.57Y-43.09
X62.57Y-45.63
X62.57Y-49.77
X62.57Y-52.31
X62.57Y-54.85
X62.57Y-68.86
X62.57Y-71.4
X62.57Y-73.94
X62.57Y-76.48
X62.57Y-79.02
X65.11Y-40.55
X65.11Y-43.09
X65.11Y-45.63
X65.11Y-49.77
X65.11Y-52.31
X65.11Y-54.85
X66.6Y-57.89
X66.6Y-60.43
X66.6Y-62.97
X66.6Y-65.51
X66.6Y-68.86
X66.6Y-71.4
X66.6Y-73.94
X66.6Y-76.48
X66.6Y-79.02
X67.65Y-40.55
X67.65Y-43.09
X67.65Y-45.63
X67.65Y-49.77
X67.65Y-52.31
X67.65Y-54.85
X75.24Y-40.55
X75.24Y-43.09
X75.24Y-48.17
X75.24Y-52.3
X75.24Y-56.44
X75.24Y-60.58
X75.25Y-64.72
X75.25Y-67.26
X75.25Y-69.8
X75.25Y-73.94
X75.25Y-76.48
X75.25Y-79.02
X77.78Y-40.55
X77.78Y-43.09
X77.78Y-48.17
X77.78Y-52.3
X77.78Y-56.44
X77.78Y-60.58
X77.79Y-64.72
X77.79Y-67.26
X77.79Y-69.8
X77.79Y-73.94
X77.79Y-76.48
X77.79Y-79.02
X80.32Y-48.17
X80.32Y-52.3
X80.32Y-56.44
X80.32Y-60.58
X80.33Y-64.72
X80.33Y-67.26
X80.33Y-69.8
X80.33Y-73.94
X80.33Y-76.48
X80.33Y-79.02
X82.86Y-54.06
X82.86Y-56.6
X82.86Y-59.14
X82.86Y-61.68
X82.87Y-40.55
X82.87Y-43.09
X82.87Y-45.63
X82.87Y-48.17
X82.87Y-50.71
X82.87Y-64.72
X82.87Y-67.26
X82.87Y-69.8
X82.87Y-73.94
X82.87Y-76.48
X82.87Y-79.02
X85.41Y-64.72
X85.41Y-67.26
X85.41Y-69.8
X85.41Y-73.94
X85.41Y-76.48
X85.41Y-79.02
X86.9Y-40.55
X86.9Y-43.09
X86.9Y-45.63
X86.9Y-48.17
X86.9Y-50.71
X86.9Y-54.06
X86.9Y-56.6
X86.9Y-59.14
X86.9Y-61.68
X87.95Y-64.72
X87.95Y-67.26
X87.95Y-69.8
X87.95Y-73.94
X87.95Y-76.48
X87.95Y-79.02
X95.17Y-64.09
X95.17Y-66.63
X95.17Y-69.17
X97.765Y-69.17
X100.305Y-69.17
X100.79Y-79.65
X102.845Y-69.17
X103.33Y-79.65
X105.385Y-69.17
X105.87Y-79.65
X107.925Y-69.17
X108.41Y-79.65
X110.52Y-64.09
X110.52Y-66.63
X110.52Y-69.17
X110.95Y-79.65
X114.49Y-46.31
X114.49Y-48.85
X114.49Y-51.39
X114.49Y-53.93
X114.49Y-56.47
X114.49Y-59.01
X114.49Y-61.55
X114.49Y-64.09
X114.49Y-66.63
X114.49Y-69.17
X114.49Y-71.71
X114.49Y-74.25
X117.03Y-46.31
X117.03Y-48.85
X117.03Y-51.39
X117.03Y-53.93
X117.03Y-56.47
X117.03Y-59.01
X117.03Y-61.55
X117.03Y-64.09
X117.03Y-66.63
X117.03Y-69.17
X117.03Y-71.71
X117.03Y-74.25
T3
X25.87Y-59.01
X25.87Y-61.55
X25.87Y-64.09
X25.87Y-66.63
X25.87Y-69.17
X25.87Y-71.71
X25.87Y-74.25
X25.87Y-76.79
X25.87Y-79.33
X28.465Y-59.01
X31.005Y-59.01
X33.545Y-59.01
X36.085Y-59.01
X38.625Y-59.01
X41.22Y-59.01
X41.22Y-61.55
X41.22Y-64.09
X41.22Y-66.63
X41.22Y-69.17
X41.22Y-71.71
X41.22Y-74.25
X41.22Y-76.79
X41.22Y-79.33
X95.17Y-41.23
X95.17Y-43.77
X95.17Y-46.31
X95.17Y-48.85
X95.17Y-51.39
X95.17Y-53.93
X95.17Y-56.47
X95.17Y-59.01
X95.17Y-61.55
X97.765Y-61.55
X100.305Y-61.55
X102.845Y-61.55
X105.385Y-61.55
X107.925Y-61.55
X110.52Y-41.23
X110.52Y-43.77
X110.52Y-46.31
X110.52Y-48.85
X110.52Y-51.39
X110.52Y-53.93
X110.52Y-56.47
X110.52Y-59.01
X110.52Y-61.55
T0
M30
