%TF.GenerationSoftware,KiCad,Pcbnew,7.0.5*%
%TF.CreationDate,2024-01-16T16:22:41+08:00*%
%TF.ProjectId,ZeroMini,5a65726f-4d69-46e6-992e-6b696361645f,rev?*%
%TF.SameCoordinates,Original*%
%TF.FileFunction,Copper,L2,Bot*%
%TF.FilePolarity,Positive*%
%FSLAX46Y46*%
G04 Gerber Fmt 4.6, Leading zero omitted, Abs format (unit mm)*
G04 Created by KiCad (PCBNEW 7.0.5) date 2024-01-16 16:22:41*
%MOMM*%
%LPD*%
G01*
G04 APERTURE LIST*
G04 Aperture macros list*
%AMRoundRect*
0 Rectangle with rounded corners*
0 $1 Rounding radius*
0 $2 $3 $4 $5 $6 $7 $8 $9 X,Y pos of 4 corners*
0 Add a 4 corners polygon primitive as box body*
4,1,4,$2,$3,$4,$5,$6,$7,$8,$9,$2,$3,0*
0 Add four circle primitives for the rounded corners*
1,1,$1+$1,$2,$3*
1,1,$1+$1,$4,$5*
1,1,$1+$1,$6,$7*
1,1,$1+$1,$8,$9*
0 Add four rect primitives between the rounded corners*
20,1,$1+$1,$2,$3,$4,$5,0*
20,1,$1+$1,$4,$5,$6,$7,0*
20,1,$1+$1,$6,$7,$8,$9,0*
20,1,$1+$1,$8,$9,$2,$3,0*%
%AMFreePoly0*
4,1,6,1.000000,0.000000,0.500000,-0.750000,-0.500000,-0.750000,-0.500000,0.750000,0.500000,0.750000,1.000000,0.000000,1.000000,0.000000,$1*%
%AMFreePoly1*
4,1,6,0.500000,-0.750000,-0.650000,-0.750000,-0.150000,0.000000,-0.650000,0.750000,0.500000,0.750000,0.500000,-0.750000,0.500000,-0.750000,$1*%
G04 Aperture macros list end*
%TA.AperFunction,WasherPad*%
%ADD10O,3.200000X2.000000*%
%TD*%
%TA.AperFunction,ComponentPad*%
%ADD11R,2.000000X2.000000*%
%TD*%
%TA.AperFunction,ComponentPad*%
%ADD12C,2.000000*%
%TD*%
%TA.AperFunction,ComponentPad*%
%ADD13O,1.500000X1.900000*%
%TD*%
%TA.AperFunction,ComponentPad*%
%ADD14O,1.500000X1.800000*%
%TD*%
%TA.AperFunction,ComponentPad*%
%ADD15C,1.700000*%
%TD*%
%TA.AperFunction,ComponentPad*%
%ADD16O,1.700000X1.700000*%
%TD*%
%TA.AperFunction,ComponentPad*%
%ADD17R,1.600000X1.600000*%
%TD*%
%TA.AperFunction,SMDPad,CuDef*%
%ADD18RoundRect,0.225000X0.225000X0.375000X-0.225000X0.375000X-0.225000X-0.375000X0.225000X-0.375000X0*%
%TD*%
%TA.AperFunction,ComponentPad*%
%ADD19O,1.600000X1.600000*%
%TD*%
%TA.AperFunction,SMDPad,CuDef*%
%ADD20FreePoly0,270.000000*%
%TD*%
%TA.AperFunction,SMDPad,CuDef*%
%ADD21FreePoly1,270.000000*%
%TD*%
%TA.AperFunction,ViaPad*%
%ADD22C,0.800000*%
%TD*%
%TA.AperFunction,Conductor*%
%ADD23C,0.350000*%
%TD*%
%TA.AperFunction,Conductor*%
%ADD24C,0.250000*%
%TD*%
G04 APERTURE END LIST*
D10*
%TO.P,RE1,*%
%TO.N,*%
X178956000Y-55834000D03*
X178956000Y-44634000D03*
D11*
%TO.P,RE1,A,CLK*%
%TO.N,LA11*%
X186456000Y-52734000D03*
D12*
%TO.P,RE1,B,DT*%
%TO.N,LB11*%
X186456000Y-47734000D03*
%TO.P,RE1,C,GND*%
%TO.N,GND*%
X186456000Y-50234000D03*
%TO.P,RE1,S1,GND*%
%TO.N,col_re*%
X171956000Y-47734000D03*
%TO.P,RE1,S2,SW*%
%TO.N,Net-(RE1-SW)*%
X171956000Y-52734000D03*
%TD*%
D13*
%TO.P,T1,1,T/VCC*%
%TO.N,5V1*%
X162728000Y-65816000D03*
X156128000Y-65816000D03*
D14*
%TO.P,T1,2,R/SNL*%
%TO.N,LTRRS*%
X162728000Y-72116000D03*
X156128000Y-72116000D03*
D13*
%TO.P,T1,3,R/GND*%
%TO.N,GND*%
X162728000Y-69816000D03*
X156128000Y-69816000D03*
%TO.P,T1,4,S/No*%
%TO.N,unconnected-(T1-S{slash}No-Pad4)*%
X160728000Y-64716000D03*
X158128000Y-64716000D03*
%TD*%
%TO.P,T1,1,T/VCC*%
%TO.N,5V1*%
X151028000Y-50070000D03*
X157628000Y-50070000D03*
D14*
%TO.P,T1,2,R/SNL*%
%TO.N,LTRRS*%
X151028000Y-43770000D03*
X157628000Y-43770000D03*
D13*
%TO.P,T1,3,R/GND*%
%TO.N,GND*%
X151028000Y-46070000D03*
X157628000Y-46070000D03*
%TO.P,T1,4,S/No*%
%TO.N,unconnected-(T1-S{slash}No-Pad4)*%
X153028000Y-51170000D03*
X155628000Y-51170000D03*
%TD*%
D15*
%TO.P,J12,1,Pin_1*%
%TO.N,col_re*%
X176416000Y-40990000D03*
D16*
%TO.P,J12,2,Pin_2*%
%TO.N,row_re*%
X178956000Y-40990000D03*
%TO.P,J12,3,Pin_3*%
%TO.N,col_re*%
X181496000Y-40990000D03*
%TD*%
D15*
%TO.P,J1,1,Pin_1*%
%TO.N,5V1*%
X151070000Y-69293000D03*
D16*
%TO.P,J1,2,Pin_2*%
%TO.N,LTRRS*%
X151070000Y-66753000D03*
%TO.P,J1,3,Pin_3*%
%TO.N,GND*%
X151070000Y-64213000D03*
%TD*%
D15*
%TO.P,J10,1,Pin_1*%
%TO.N,row_re*%
X184026000Y-58584000D03*
%TD*%
%TO.P,J1,1,Pin_1*%
%TO.N,5V1*%
X162686000Y-46593000D03*
D16*
%TO.P,J1,2,Pin_2*%
%TO.N,LTRRS*%
X162686000Y-49133000D03*
%TO.P,J1,3,Pin_3*%
%TO.N,GND*%
X162686000Y-51673000D03*
%TD*%
D17*
%TO.P,D1,1*%
%TO.N,row_re*%
X181486000Y-58584000D03*
D18*
X179336000Y-58584000D03*
%TO.P,D1,2*%
%TO.N,Net-(RE1-SW)*%
X176036000Y-58584000D03*
D19*
X173886000Y-58584000D03*
%TD*%
D15*
%TO.P,J11,1,Pin_1*%
%TO.N,LA11*%
X176416000Y-61504000D03*
D16*
%TO.P,J11,2,Pin_2*%
%TO.N,GND*%
X178956000Y-61504000D03*
%TO.P,J11,3,Pin_3*%
%TO.N,LB11*%
X181496000Y-61504000D03*
%TD*%
D20*
%TO.P,JP1,1,1*%
%TO.N,Net-(RE1-SW)*%
X174856000Y-53509000D03*
D21*
%TO.P,JP1,2,2*%
%TO.N,row_re*%
X174856000Y-54959000D03*
%TD*%
D22*
%TO.N,GND*%
X181176000Y-50229000D03*
%TO.N,LA11*%
X177806000Y-53979000D03*
%TO.N,LB11*%
X183286000Y-47734000D03*
%TD*%
D23*
%TO.N,5V1*%
X162686000Y-46593000D02*
X159923000Y-46593000D01*
X159923000Y-46593000D02*
X157628000Y-48888000D01*
X157628000Y-48888000D02*
X157628000Y-50070000D01*
X151070000Y-69293000D02*
X153833000Y-69293000D01*
X153833000Y-69293000D02*
X156128000Y-66998000D01*
X156128000Y-66998000D02*
X156128000Y-65816000D01*
D24*
%TO.N,LTRRS*%
X157628000Y-43770000D02*
X151028000Y-43770000D01*
X156128000Y-72116000D02*
X162728000Y-72116000D01*
%TO.N,GND*%
X181176000Y-50229000D02*
X181181000Y-50234000D01*
X151028000Y-46070000D02*
X157628000Y-46070000D01*
X181181000Y-50234000D02*
X186456000Y-50234000D01*
X162728000Y-69816000D02*
X156128000Y-69816000D01*
%TO.N,unconnected-(T1-S{slash}No-Pad4)*%
X160728000Y-64716000D02*
X158128000Y-64716000D01*
X153028000Y-51170000D02*
X155628000Y-51170000D01*
%TO.N,row_re*%
X181486000Y-58584000D02*
X184026000Y-58584000D01*
X175946000Y-57329000D02*
X178081000Y-57329000D01*
X178081000Y-57329000D02*
X179336000Y-58584000D01*
X174856000Y-56239000D02*
X175946000Y-57329000D01*
X174856000Y-54959000D02*
X174856000Y-56239000D01*
X179336000Y-58584000D02*
X181486000Y-58584000D01*
%TO.N,Net-(RE1-SW)*%
X171956000Y-52734000D02*
X174081000Y-52734000D01*
X174081000Y-52734000D02*
X174856000Y-53509000D01*
X171956000Y-52734000D02*
X171956000Y-54829000D01*
X173886000Y-56759000D02*
X173886000Y-58584000D01*
X173886000Y-58584000D02*
X176036000Y-58584000D01*
X171956000Y-54829000D02*
X173886000Y-56759000D01*
%TO.N,LA11*%
X185211000Y-53979000D02*
X186456000Y-52734000D01*
X177806000Y-53979000D02*
X185211000Y-53979000D01*
%TO.N,LB11*%
X183286000Y-47734000D02*
X186456000Y-47734000D01*
%TO.N,col_re*%
X177591000Y-42165000D02*
X180321000Y-42165000D01*
X180321000Y-42165000D02*
X181496000Y-40990000D01*
X176416000Y-40990000D02*
X177591000Y-42165000D01*
%TD*%
%TA.AperFunction,Conductor*%
%TO.N,GND*%
G36*
X154826398Y-69215994D02*
G01*
X154882331Y-69257866D01*
X154906748Y-69323330D01*
X154905071Y-69354317D01*
X154878000Y-69503493D01*
X154878000Y-69566000D01*
X155678000Y-69566000D01*
X155678000Y-70049724D01*
X155680453Y-70066000D01*
X154878000Y-70066000D01*
X154878000Y-70072129D01*
X154893116Y-70240096D01*
X154893117Y-70240102D01*
X154952973Y-70456984D01*
X154952978Y-70456997D01*
X155050598Y-70659708D01*
X155050602Y-70659716D01*
X155182851Y-70841741D01*
X155182857Y-70841749D01*
X155316575Y-70969596D01*
X155351427Y-71030152D01*
X155348008Y-71099938D01*
X155314424Y-71150857D01*
X155274126Y-71187595D01*
X155274125Y-71187596D01*
X155145632Y-71357746D01*
X155050596Y-71548605D01*
X155050596Y-71548607D01*
X154992244Y-71753689D01*
X154977500Y-71912809D01*
X154977500Y-72319190D01*
X154992244Y-72478310D01*
X155050596Y-72683392D01*
X155050596Y-72683394D01*
X155145632Y-72874253D01*
X155274127Y-73044406D01*
X155274128Y-73044407D01*
X155431698Y-73188052D01*
X155612981Y-73300298D01*
X155811802Y-73377321D01*
X156021390Y-73416500D01*
X156021392Y-73416500D01*
X156234608Y-73416500D01*
X156234610Y-73416500D01*
X156444198Y-73377321D01*
X156643019Y-73300298D01*
X156824302Y-73188052D01*
X156981872Y-73044407D01*
X157110366Y-72874255D01*
X157116728Y-72861479D01*
X157192041Y-72710229D01*
X157239543Y-72658992D01*
X157303041Y-72641500D01*
X161552959Y-72641500D01*
X161619998Y-72661185D01*
X161663959Y-72710229D01*
X161745632Y-72874253D01*
X161874127Y-73044406D01*
X161874128Y-73044407D01*
X162031698Y-73188052D01*
X162212981Y-73300298D01*
X162411802Y-73377321D01*
X162621390Y-73416500D01*
X162621392Y-73416500D01*
X162834608Y-73416500D01*
X162834610Y-73416500D01*
X163044198Y-73377321D01*
X163243019Y-73300298D01*
X163424302Y-73188052D01*
X163581872Y-73044407D01*
X163710366Y-72874255D01*
X163720500Y-72853902D01*
X163768001Y-72802666D01*
X163835664Y-72785244D01*
X163902004Y-72807168D01*
X163945960Y-72861479D01*
X163955500Y-72909174D01*
X163955500Y-75932758D01*
X163935815Y-75999797D01*
X163883011Y-76045552D01*
X163813853Y-76055496D01*
X163779989Y-76045553D01*
X163779762Y-76045449D01*
X163691342Y-76005069D01*
X163691339Y-76005068D01*
X163691338Y-76005068D01*
X163590011Y-75990500D01*
X163521989Y-75990500D01*
X163521988Y-75990500D01*
X163420663Y-76005068D01*
X163420654Y-76005070D01*
X163296285Y-76061867D01*
X163296281Y-76061870D01*
X163237202Y-76113062D01*
X163173646Y-76142086D01*
X163104487Y-76132142D01*
X163074798Y-76113062D01*
X163015718Y-76061870D01*
X163015714Y-76061867D01*
X162891345Y-76005070D01*
X162891343Y-76005069D01*
X162891342Y-76005069D01*
X162891337Y-76005068D01*
X162891336Y-76005068D01*
X162790011Y-75990500D01*
X162721989Y-75990500D01*
X162721988Y-75990500D01*
X162620663Y-76005068D01*
X162620654Y-76005070D01*
X162496285Y-76061867D01*
X162496281Y-76061870D01*
X162437202Y-76113062D01*
X162373646Y-76142086D01*
X162304487Y-76132142D01*
X162274798Y-76113062D01*
X162215718Y-76061870D01*
X162215714Y-76061867D01*
X162091345Y-76005070D01*
X162091343Y-76005069D01*
X162091342Y-76005069D01*
X162091337Y-76005068D01*
X162091336Y-76005068D01*
X161990011Y-75990500D01*
X161921989Y-75990500D01*
X161921988Y-75990500D01*
X161820663Y-76005068D01*
X161820654Y-76005070D01*
X161696285Y-76061867D01*
X161696281Y-76061870D01*
X161637202Y-76113062D01*
X161573646Y-76142086D01*
X161504487Y-76132142D01*
X161474798Y-76113062D01*
X161415718Y-76061870D01*
X161415714Y-76061867D01*
X161291345Y-76005070D01*
X161291343Y-76005069D01*
X161291342Y-76005069D01*
X161291337Y-76005068D01*
X161291336Y-76005068D01*
X161190011Y-75990500D01*
X161121989Y-75990500D01*
X161121988Y-75990500D01*
X161020663Y-76005068D01*
X161020654Y-76005070D01*
X160896285Y-76061867D01*
X160896281Y-76061870D01*
X160837202Y-76113062D01*
X160773646Y-76142086D01*
X160704487Y-76132142D01*
X160674798Y-76113062D01*
X160615718Y-76061870D01*
X160615714Y-76061867D01*
X160491345Y-76005070D01*
X160491343Y-76005069D01*
X160491342Y-76005069D01*
X160491337Y-76005068D01*
X160491336Y-76005068D01*
X160390011Y-75990500D01*
X160321989Y-75990500D01*
X160321988Y-75990500D01*
X160220663Y-76005068D01*
X160220654Y-76005070D01*
X160096285Y-76061867D01*
X160096281Y-76061870D01*
X160037202Y-76113062D01*
X159973646Y-76142086D01*
X159904487Y-76132142D01*
X159874798Y-76113062D01*
X159815718Y-76061870D01*
X159815714Y-76061867D01*
X159691345Y-76005070D01*
X159691343Y-76005069D01*
X159691342Y-76005069D01*
X159691337Y-76005068D01*
X159691336Y-76005068D01*
X159590011Y-75990500D01*
X159521989Y-75990500D01*
X159521988Y-75990500D01*
X159420663Y-76005068D01*
X159420654Y-76005070D01*
X159296285Y-76061867D01*
X159296281Y-76061870D01*
X159237202Y-76113062D01*
X159173646Y-76142086D01*
X159104487Y-76132142D01*
X159074798Y-76113062D01*
X159015718Y-76061870D01*
X159015714Y-76061867D01*
X158891345Y-76005070D01*
X158891343Y-76005069D01*
X158891342Y-76005069D01*
X158891337Y-76005068D01*
X158891336Y-76005068D01*
X158790011Y-75990500D01*
X158721989Y-75990500D01*
X158721988Y-75990500D01*
X158620663Y-76005068D01*
X158620654Y-76005070D01*
X158496285Y-76061867D01*
X158496281Y-76061870D01*
X158437202Y-76113062D01*
X158373646Y-76142086D01*
X158304487Y-76132142D01*
X158274798Y-76113062D01*
X158215718Y-76061870D01*
X158215714Y-76061867D01*
X158091345Y-76005070D01*
X158091343Y-76005069D01*
X158091342Y-76005069D01*
X158091337Y-76005068D01*
X158091336Y-76005068D01*
X157990011Y-75990500D01*
X157921989Y-75990500D01*
X157921988Y-75990500D01*
X157820663Y-76005068D01*
X157820654Y-76005070D01*
X157696285Y-76061867D01*
X157696281Y-76061870D01*
X157637202Y-76113062D01*
X157573646Y-76142086D01*
X157504487Y-76132142D01*
X157474798Y-76113062D01*
X157415718Y-76061870D01*
X157415714Y-76061867D01*
X157291345Y-76005070D01*
X157291343Y-76005069D01*
X157291342Y-76005069D01*
X157291337Y-76005068D01*
X157291336Y-76005068D01*
X157190011Y-75990500D01*
X157121989Y-75990500D01*
X157121988Y-75990500D01*
X157020663Y-76005068D01*
X157020654Y-76005070D01*
X156896285Y-76061867D01*
X156896277Y-76061872D01*
X156811638Y-76135213D01*
X156748082Y-76164238D01*
X156730436Y-76165500D01*
X152001878Y-76165500D01*
X151998133Y-76165387D01*
X151900896Y-76159504D01*
X151731340Y-76148391D01*
X151724214Y-76147507D01*
X151600767Y-76124885D01*
X151493618Y-76103572D01*
X151459172Y-76096720D01*
X151452831Y-76095107D01*
X151346177Y-76061872D01*
X151328682Y-76056420D01*
X151327198Y-76055937D01*
X151195704Y-76011300D01*
X151190185Y-76009127D01*
X151103604Y-75970161D01*
X151069745Y-75954923D01*
X151067818Y-75954015D01*
X151015179Y-75928056D01*
X150945047Y-75893470D01*
X150940391Y-75890921D01*
X150826548Y-75822100D01*
X150824178Y-75820593D01*
X150711180Y-75745089D01*
X150707387Y-75742343D01*
X150602288Y-75660003D01*
X150599645Y-75657811D01*
X150497771Y-75568470D01*
X150494809Y-75565696D01*
X150400302Y-75471189D01*
X150397528Y-75468227D01*
X150308187Y-75366353D01*
X150305995Y-75363710D01*
X150269008Y-75316500D01*
X150223651Y-75258606D01*
X150220909Y-75254818D01*
X150145405Y-75141820D01*
X150143898Y-75139450D01*
X150099798Y-75066500D01*
X150075074Y-75025602D01*
X150072528Y-75020951D01*
X150011960Y-74898132D01*
X150011099Y-74896305D01*
X149956871Y-74775813D01*
X149954698Y-74770294D01*
X149910039Y-74638735D01*
X149909601Y-74637388D01*
X149870884Y-74513142D01*
X149869284Y-74506854D01*
X149841118Y-74365257D01*
X149818490Y-74241780D01*
X149817610Y-74234683D01*
X149806485Y-74064958D01*
X149800613Y-73967866D01*
X149800557Y-73966000D01*
X150644341Y-73966000D01*
X150664936Y-74201403D01*
X150664938Y-74201413D01*
X150726094Y-74429655D01*
X150726096Y-74429659D01*
X150726097Y-74429663D01*
X150762092Y-74506854D01*
X150825964Y-74643828D01*
X150825965Y-74643830D01*
X150961505Y-74837402D01*
X151128597Y-75004494D01*
X151322169Y-75140034D01*
X151322171Y-75140035D01*
X151536337Y-75239903D01*
X151764592Y-75301063D01*
X151941032Y-75316499D01*
X151941033Y-75316500D01*
X151941034Y-75316500D01*
X152058967Y-75316500D01*
X152058967Y-75316499D01*
X152235408Y-75301063D01*
X152463663Y-75239903D01*
X152677829Y-75140035D01*
X152871401Y-75004495D01*
X153038495Y-74837401D01*
X153174035Y-74643830D01*
X153273903Y-74429663D01*
X153288594Y-74374833D01*
X157773624Y-74374833D01*
X157783944Y-74538860D01*
X157834732Y-74695171D01*
X157834734Y-74695175D01*
X157922798Y-74833940D01*
X158042603Y-74946445D01*
X158042611Y-74946451D01*
X158186628Y-75025625D01*
X158186632Y-75025627D01*
X158345823Y-75066500D01*
X158345827Y-75066500D01*
X158468923Y-75066500D01*
X158468925Y-75066500D01*
X158468930Y-75066499D01*
X158468934Y-75066499D01*
X158482174Y-75064826D01*
X158591058Y-75051071D01*
X158743871Y-74990568D01*
X158747187Y-74988159D01*
X158876835Y-74893965D01*
X158876835Y-74893963D01*
X158876837Y-74893963D01*
X158981600Y-74767326D01*
X159051579Y-74618613D01*
X159082376Y-74457170D01*
X159077196Y-74374833D01*
X159773624Y-74374833D01*
X159783944Y-74538860D01*
X159834732Y-74695171D01*
X159834734Y-74695175D01*
X159922798Y-74833940D01*
X160042603Y-74946445D01*
X160042611Y-74946451D01*
X160186628Y-75025625D01*
X160186632Y-75025627D01*
X160345823Y-75066500D01*
X160345827Y-75066500D01*
X160468923Y-75066500D01*
X160468925Y-75066500D01*
X160468930Y-75066499D01*
X160468934Y-75066499D01*
X160482174Y-75064826D01*
X160591058Y-75051071D01*
X160743871Y-74990568D01*
X160747187Y-74988159D01*
X160876835Y-74893965D01*
X160876835Y-74893963D01*
X160876837Y-74893963D01*
X160981600Y-74767326D01*
X161051579Y-74618613D01*
X161082376Y-74457170D01*
X161072056Y-74293140D01*
X161021268Y-74136829D01*
X160933202Y-73998060D01*
X160899062Y-73966000D01*
X160813396Y-73885554D01*
X160813388Y-73885548D01*
X160669371Y-73806374D01*
X160669361Y-73806371D01*
X160510180Y-73765500D01*
X160510177Y-73765500D01*
X160387075Y-73765500D01*
X160387065Y-73765500D01*
X160264942Y-73780929D01*
X160264939Y-73780929D01*
X160112130Y-73841431D01*
X160112121Y-73841436D01*
X159979164Y-73938034D01*
X159979162Y-73938037D01*
X159874400Y-74064673D01*
X159804420Y-74213387D01*
X159789207Y-74293139D01*
X159773624Y-74374830D01*
X159773624Y-74374832D01*
X159773624Y-74374833D01*
X159077196Y-74374833D01*
X159072056Y-74293140D01*
X159021268Y-74136829D01*
X158933202Y-73998060D01*
X158899062Y-73966000D01*
X158813396Y-73885554D01*
X158813388Y-73885548D01*
X158669371Y-73806374D01*
X158669361Y-73806371D01*
X158510180Y-73765500D01*
X158510177Y-73765500D01*
X158387075Y-73765500D01*
X158387065Y-73765500D01*
X158264942Y-73780929D01*
X158264939Y-73780929D01*
X158112130Y-73841431D01*
X158112121Y-73841436D01*
X157979164Y-73938034D01*
X157979162Y-73938037D01*
X157874400Y-74064673D01*
X157804420Y-74213387D01*
X157789207Y-74293139D01*
X157773624Y-74374830D01*
X157773624Y-74374832D01*
X157773624Y-74374833D01*
X153288594Y-74374833D01*
X153335063Y-74201408D01*
X153355659Y-73966000D01*
X153353212Y-73938037D01*
X153348621Y-73885554D01*
X153335063Y-73730592D01*
X153273903Y-73502337D01*
X153174035Y-73288171D01*
X153174034Y-73288169D01*
X153038494Y-73094597D01*
X152871402Y-72927505D01*
X152677830Y-72791965D01*
X152677828Y-72791964D01*
X152570746Y-72742031D01*
X152463663Y-72692097D01*
X152463659Y-72692096D01*
X152463655Y-72692094D01*
X152235413Y-72630938D01*
X152235403Y-72630936D01*
X152058967Y-72615500D01*
X152058966Y-72615500D01*
X151941034Y-72615500D01*
X151941033Y-72615500D01*
X151764596Y-72630936D01*
X151764586Y-72630938D01*
X151536344Y-72692094D01*
X151536335Y-72692098D01*
X151322171Y-72791964D01*
X151322169Y-72791965D01*
X151128597Y-72927505D01*
X150961506Y-73094597D01*
X150961501Y-73094604D01*
X150825967Y-73288165D01*
X150825965Y-73288169D01*
X150726098Y-73502335D01*
X150726094Y-73502344D01*
X150664938Y-73730586D01*
X150664936Y-73730596D01*
X150644341Y-73965999D01*
X150644341Y-73966000D01*
X149800557Y-73966000D01*
X149800500Y-73964123D01*
X149800500Y-70053425D01*
X149820185Y-69986386D01*
X149872989Y-69940631D01*
X149942147Y-69930687D01*
X150005703Y-69959712D01*
X150026071Y-69982297D01*
X150108402Y-70099877D01*
X150263123Y-70254598D01*
X150442361Y-70380102D01*
X150640670Y-70472575D01*
X150852023Y-70529207D01*
X151034926Y-70545208D01*
X151069998Y-70548277D01*
X151070000Y-70548277D01*
X151070002Y-70548277D01*
X151098254Y-70545805D01*
X151287977Y-70529207D01*
X151499330Y-70472575D01*
X151697639Y-70380102D01*
X151876877Y-70254598D01*
X152031598Y-70099877D01*
X152156587Y-69921374D01*
X152211162Y-69877752D01*
X152258160Y-69868500D01*
X153791219Y-69868500D01*
X153799317Y-69869030D01*
X153819734Y-69871718D01*
X153832999Y-69873465D01*
X153833000Y-69873465D01*
X153868785Y-69868754D01*
X153868809Y-69868751D01*
X153870715Y-69868500D01*
X153870720Y-69868500D01*
X153983236Y-69853687D01*
X154123233Y-69795698D01*
X154123232Y-69795697D01*
X154142173Y-69787852D01*
X154146509Y-69779563D01*
X154160249Y-69767293D01*
X154213268Y-69726612D01*
X154213268Y-69726610D01*
X154221362Y-69720401D01*
X154221364Y-69720398D01*
X154243451Y-69703451D01*
X154264138Y-69676489D01*
X154269480Y-69670398D01*
X154695385Y-69244493D01*
X154756706Y-69211010D01*
X154826398Y-69215994D01*
G37*
%TD.AperFunction*%
%TA.AperFunction,Conductor*%
G36*
X159597849Y-65261185D02*
G01*
X159643604Y-65313989D01*
X159650074Y-65331559D01*
X159650594Y-65333387D01*
X159650596Y-65333394D01*
X159745632Y-65524253D01*
X159852598Y-65665897D01*
X159874128Y-65694407D01*
X160031698Y-65838052D01*
X160212981Y-65950298D01*
X160411802Y-66027321D01*
X160621390Y-66066500D01*
X160621392Y-66066500D01*
X160834608Y-66066500D01*
X160834610Y-66066500D01*
X161044198Y-66027321D01*
X161243019Y-65950298D01*
X161388224Y-65860390D01*
X161455583Y-65841835D01*
X161522282Y-65862643D01*
X161567144Y-65916208D01*
X161577500Y-65965818D01*
X161577500Y-66069190D01*
X161592244Y-66228310D01*
X161650596Y-66433392D01*
X161650596Y-66433394D01*
X161745632Y-66624253D01*
X161842860Y-66753002D01*
X161874128Y-66794407D01*
X162031698Y-66938052D01*
X162212981Y-67050298D01*
X162411802Y-67127321D01*
X162621390Y-67166500D01*
X162621392Y-67166500D01*
X162834608Y-67166500D01*
X162834610Y-67166500D01*
X163044198Y-67127321D01*
X163243019Y-67050298D01*
X163424302Y-66938052D01*
X163581872Y-66794407D01*
X163710366Y-66624255D01*
X163720500Y-66603902D01*
X163768001Y-66552666D01*
X163835664Y-66535244D01*
X163902004Y-66557168D01*
X163945960Y-66611479D01*
X163955500Y-66659174D01*
X163955500Y-68797249D01*
X163935815Y-68864288D01*
X163883011Y-68910043D01*
X163813853Y-68919987D01*
X163750297Y-68890962D01*
X163731182Y-68870135D01*
X163673144Y-68790253D01*
X163673142Y-68790250D01*
X163510513Y-68634762D01*
X163322733Y-68510808D01*
X163115830Y-68422375D01*
X163115823Y-68422373D01*
X162978000Y-68390915D01*
X162978000Y-69240722D01*
X162894260Y-69192375D01*
X162762008Y-69162190D01*
X162626735Y-69172327D01*
X162500459Y-69221887D01*
X162478000Y-69239797D01*
X162478000Y-68388449D01*
X162477999Y-68388449D01*
X162448721Y-68392415D01*
X162234731Y-68461945D01*
X162036598Y-68568565D01*
X162036595Y-68568567D01*
X161860679Y-68708854D01*
X161712647Y-68878292D01*
X161712640Y-68878300D01*
X161597240Y-69071446D01*
X161597238Y-69071451D01*
X161518175Y-69282110D01*
X161518175Y-69282111D01*
X161478000Y-69503494D01*
X161478000Y-69566000D01*
X162278000Y-69566000D01*
X162278000Y-70049724D01*
X162280453Y-70066000D01*
X161478000Y-70066000D01*
X161478000Y-70072129D01*
X161493116Y-70240096D01*
X161493117Y-70240102D01*
X161552973Y-70456984D01*
X161552978Y-70456997D01*
X161650598Y-70659708D01*
X161650602Y-70659716D01*
X161782851Y-70841741D01*
X161782857Y-70841749D01*
X161916575Y-70969596D01*
X161951427Y-71030152D01*
X161948008Y-71099938D01*
X161914424Y-71150857D01*
X161874126Y-71187595D01*
X161874125Y-71187596D01*
X161745632Y-71357746D01*
X161663959Y-71521771D01*
X161616457Y-71573008D01*
X161552959Y-71590500D01*
X157303041Y-71590500D01*
X157236002Y-71570815D01*
X157192041Y-71521771D01*
X157110367Y-71357746D01*
X156981874Y-71187596D01*
X156981872Y-71187593D01*
X156981869Y-71187590D01*
X156981870Y-71187590D01*
X156940852Y-71150197D01*
X156904571Y-71090486D01*
X156906332Y-71020638D01*
X156945576Y-70962831D01*
X156947081Y-70961612D01*
X156995315Y-70923148D01*
X156995326Y-70923137D01*
X157143352Y-70753707D01*
X157143359Y-70753699D01*
X157258759Y-70560553D01*
X157258761Y-70560548D01*
X157337824Y-70349889D01*
X157337824Y-70349888D01*
X157378000Y-70128505D01*
X157378000Y-70066000D01*
X156578000Y-70066000D01*
X156578000Y-69582276D01*
X156575547Y-69566000D01*
X157378000Y-69566000D01*
X157378000Y-69559874D01*
X157377999Y-69559870D01*
X157362883Y-69391903D01*
X157362882Y-69391897D01*
X157303026Y-69175015D01*
X157303021Y-69175002D01*
X157205401Y-68972291D01*
X157205397Y-68972283D01*
X157073148Y-68790258D01*
X157073142Y-68790250D01*
X156910513Y-68634762D01*
X156722733Y-68510808D01*
X156515830Y-68422375D01*
X156515823Y-68422373D01*
X156378000Y-68390915D01*
X156377999Y-68390915D01*
X156377999Y-69240722D01*
X156294260Y-69192375D01*
X156162008Y-69162190D01*
X156026735Y-69172327D01*
X155900459Y-69221887D01*
X155878000Y-69239797D01*
X155878000Y-68388449D01*
X155877999Y-68388449D01*
X155864484Y-68390280D01*
X155795409Y-68379773D01*
X155742980Y-68333589D01*
X155723842Y-68266391D01*
X155744072Y-68199515D01*
X155760152Y-68179726D01*
X156505398Y-67434480D01*
X156511489Y-67429138D01*
X156538451Y-67408451D01*
X156544452Y-67400631D01*
X156555394Y-67386370D01*
X156555405Y-67386358D01*
X156564248Y-67374833D01*
X157773624Y-67374833D01*
X157783944Y-67538860D01*
X157834732Y-67695171D01*
X157834734Y-67695175D01*
X157922798Y-67833940D01*
X158042603Y-67946445D01*
X158042611Y-67946451D01*
X158183643Y-68023984D01*
X158186632Y-68025627D01*
X158345823Y-68066500D01*
X158345827Y-68066500D01*
X158468923Y-68066500D01*
X158468925Y-68066500D01*
X158468930Y-68066499D01*
X158468934Y-68066499D01*
X158482174Y-68064826D01*
X158591058Y-68051071D01*
X158743871Y-67990568D01*
X158792641Y-67955135D01*
X158876835Y-67893965D01*
X158876835Y-67893963D01*
X158876837Y-67893963D01*
X158981600Y-67767326D01*
X159051579Y-67618613D01*
X159082376Y-67457170D01*
X159077196Y-67374833D01*
X159773624Y-67374833D01*
X159783944Y-67538860D01*
X159834732Y-67695171D01*
X159834734Y-67695175D01*
X159922798Y-67833940D01*
X160042603Y-67946445D01*
X160042611Y-67946451D01*
X160183643Y-68023984D01*
X160186632Y-68025627D01*
X160345823Y-68066500D01*
X160345827Y-68066500D01*
X160468923Y-68066500D01*
X160468925Y-68066500D01*
X160468930Y-68066499D01*
X160468934Y-68066499D01*
X160482174Y-68064826D01*
X160591058Y-68051071D01*
X160743871Y-67990568D01*
X160792641Y-67955135D01*
X160876835Y-67893965D01*
X160876835Y-67893963D01*
X160876837Y-67893963D01*
X160981600Y-67767326D01*
X161051579Y-67618613D01*
X161082376Y-67457170D01*
X161072056Y-67293140D01*
X161021268Y-67136829D01*
X160933202Y-66998060D01*
X160933201Y-66998059D01*
X160813396Y-66885554D01*
X160813388Y-66885548D01*
X160669371Y-66806374D01*
X160669361Y-66806371D01*
X160510180Y-66765500D01*
X160510177Y-66765500D01*
X160387075Y-66765500D01*
X160387065Y-66765500D01*
X160264942Y-66780929D01*
X160264939Y-66780929D01*
X160112130Y-66841431D01*
X160112121Y-66841436D01*
X159979164Y-66938034D01*
X159979162Y-66938037D01*
X159874400Y-67064673D01*
X159804420Y-67213387D01*
X159790143Y-67288233D01*
X159773624Y-67374830D01*
X159773624Y-67374832D01*
X159773624Y-67374833D01*
X159077196Y-67374833D01*
X159072056Y-67293140D01*
X159021268Y-67136829D01*
X158933202Y-66998060D01*
X158933201Y-66998059D01*
X158813396Y-66885554D01*
X158813388Y-66885548D01*
X158669371Y-66806374D01*
X158669361Y-66806371D01*
X158510180Y-66765500D01*
X158510177Y-66765500D01*
X158387075Y-66765500D01*
X158387065Y-66765500D01*
X158264942Y-66780929D01*
X158264939Y-66780929D01*
X158112130Y-66841431D01*
X158112121Y-66841436D01*
X157979164Y-66938034D01*
X157979162Y-66938037D01*
X157874400Y-67064673D01*
X157804420Y-67213387D01*
X157790143Y-67288233D01*
X157773624Y-67374830D01*
X157773624Y-67374832D01*
X157773624Y-67374833D01*
X156564248Y-67374833D01*
X156630698Y-67288233D01*
X156674564Y-67182331D01*
X156688687Y-67148236D01*
X156690189Y-67136829D01*
X156699104Y-67069110D01*
X156727370Y-67005214D01*
X156756760Y-66979871D01*
X156824302Y-66938052D01*
X156981872Y-66794407D01*
X157110366Y-66624255D01*
X157116728Y-66611479D01*
X157205403Y-66433394D01*
X157205403Y-66433393D01*
X157205405Y-66433389D01*
X157263756Y-66228310D01*
X157278500Y-66069194D01*
X157278500Y-65965818D01*
X157298185Y-65898779D01*
X157350989Y-65853024D01*
X157420147Y-65843080D01*
X157467774Y-65860389D01*
X157612981Y-65950298D01*
X157811802Y-66027321D01*
X158021390Y-66066500D01*
X158021392Y-66066500D01*
X158234608Y-66066500D01*
X158234610Y-66066500D01*
X158444198Y-66027321D01*
X158643019Y-65950298D01*
X158824302Y-65838052D01*
X158981872Y-65694407D01*
X159110366Y-65524255D01*
X159123577Y-65497723D01*
X159205403Y-65333394D01*
X159205403Y-65333391D01*
X159205405Y-65333389D01*
X159205925Y-65331559D01*
X159206412Y-65330787D01*
X159207473Y-65328050D01*
X159208008Y-65328257D01*
X159243208Y-65272468D01*
X159306519Y-65242914D01*
X159325190Y-65241500D01*
X159530810Y-65241500D01*
X159597849Y-65261185D01*
G37*
%TD.AperFunction*%
%TA.AperFunction,Conductor*%
G36*
X161854945Y-58549485D02*
G01*
X162024683Y-58560610D01*
X162031780Y-58561490D01*
X162155257Y-58584118D01*
X162296854Y-58612284D01*
X162303142Y-58613884D01*
X162427388Y-58652601D01*
X162428735Y-58653039D01*
X162560294Y-58697698D01*
X162565813Y-58699871D01*
X162581164Y-58706779D01*
X162686305Y-58754099D01*
X162688132Y-58754960D01*
X162810955Y-58815530D01*
X162815602Y-58818074D01*
X162929450Y-58886898D01*
X162931805Y-58888395D01*
X162993015Y-58929295D01*
X163044818Y-58963909D01*
X163048606Y-58966651D01*
X163119470Y-59022170D01*
X163153710Y-59048995D01*
X163156353Y-59051187D01*
X163258227Y-59140528D01*
X163261189Y-59143302D01*
X163355696Y-59237809D01*
X163358470Y-59240771D01*
X163447811Y-59342645D01*
X163450003Y-59345288D01*
X163532343Y-59450387D01*
X163535089Y-59454180D01*
X163610593Y-59567178D01*
X163612100Y-59569548D01*
X163680921Y-59683391D01*
X163683470Y-59688047D01*
X163710875Y-59743617D01*
X163744015Y-59810818D01*
X163744923Y-59812745D01*
X163748282Y-59820207D01*
X163799127Y-59933185D01*
X163801300Y-59938704D01*
X163845937Y-60070198D01*
X163846420Y-60071682D01*
X163885107Y-60195831D01*
X163886720Y-60202172D01*
X163893572Y-60236618D01*
X163914885Y-60343767D01*
X163937507Y-60467214D01*
X163938391Y-60474340D01*
X163949504Y-60643896D01*
X163955387Y-60741131D01*
X163955500Y-60744877D01*
X163955500Y-64972825D01*
X163935815Y-65039864D01*
X163883011Y-65085619D01*
X163813853Y-65095563D01*
X163750297Y-65066538D01*
X163720500Y-65028096D01*
X163710367Y-65007746D01*
X163581872Y-64837593D01*
X163577500Y-64833607D01*
X163424302Y-64693948D01*
X163243019Y-64581702D01*
X163243017Y-64581701D01*
X163143608Y-64543190D01*
X163044198Y-64504679D01*
X162834610Y-64465500D01*
X162621390Y-64465500D01*
X162411802Y-64504679D01*
X162411799Y-64504679D01*
X162411799Y-64504680D01*
X162212982Y-64581701D01*
X162212975Y-64581705D01*
X162067777Y-64671608D01*
X162000417Y-64690163D01*
X161933717Y-64669355D01*
X161888856Y-64615790D01*
X161878500Y-64566181D01*
X161878500Y-64462809D01*
X161874797Y-64422844D01*
X161863756Y-64303690D01*
X161805405Y-64098611D01*
X161805403Y-64098606D01*
X161805403Y-64098605D01*
X161710367Y-63907746D01*
X161581872Y-63737593D01*
X161554895Y-63713000D01*
X161424302Y-63593948D01*
X161243019Y-63481702D01*
X161243017Y-63481701D01*
X161143608Y-63443190D01*
X161044198Y-63404679D01*
X160834610Y-63365500D01*
X160621390Y-63365500D01*
X160411802Y-63404679D01*
X160411799Y-63404679D01*
X160411799Y-63404680D01*
X160212982Y-63481701D01*
X160212980Y-63481702D01*
X160031699Y-63593947D01*
X159874127Y-63737593D01*
X159745632Y-63907746D01*
X159650596Y-64098605D01*
X159650594Y-64098612D01*
X159650074Y-64100441D01*
X159649587Y-64101212D01*
X159648527Y-64103950D01*
X159647991Y-64103742D01*
X159612792Y-64159532D01*
X159549481Y-64189086D01*
X159530810Y-64190500D01*
X159325190Y-64190500D01*
X159258151Y-64170815D01*
X159212396Y-64118011D01*
X159205926Y-64100441D01*
X159205405Y-64098612D01*
X159205403Y-64098605D01*
X159110367Y-63907746D01*
X158981872Y-63737593D01*
X158954895Y-63713000D01*
X158824302Y-63593948D01*
X158643019Y-63481702D01*
X158643017Y-63481701D01*
X158543608Y-63443190D01*
X158444198Y-63404679D01*
X158234610Y-63365500D01*
X158021390Y-63365500D01*
X157811802Y-63404679D01*
X157811799Y-63404679D01*
X157811799Y-63404680D01*
X157612982Y-63481701D01*
X157612980Y-63481702D01*
X157431699Y-63593947D01*
X157274127Y-63737593D01*
X157145632Y-63907746D01*
X157050596Y-64098605D01*
X157050596Y-64098607D01*
X156992244Y-64303689D01*
X156977500Y-64462809D01*
X156977500Y-64566181D01*
X156957815Y-64633220D01*
X156905011Y-64678975D01*
X156835853Y-64688919D01*
X156788223Y-64671608D01*
X156643024Y-64581705D01*
X156643017Y-64581701D01*
X156543608Y-64543190D01*
X156444198Y-64504679D01*
X156234610Y-64465500D01*
X156021390Y-64465500D01*
X155811802Y-64504679D01*
X155811799Y-64504679D01*
X155811799Y-64504680D01*
X155612982Y-64581701D01*
X155612980Y-64581702D01*
X155431699Y-64693947D01*
X155274127Y-64837593D01*
X155145632Y-65007746D01*
X155050596Y-65198605D01*
X155050596Y-65198607D01*
X155012247Y-65333389D01*
X154992244Y-65403690D01*
X154979718Y-65538875D01*
X154977500Y-65562809D01*
X154977500Y-66069190D01*
X154992244Y-66228310D01*
X155050596Y-66433392D01*
X155050596Y-66433394D01*
X155145632Y-66624253D01*
X155274127Y-66794406D01*
X155305580Y-66823080D01*
X155341860Y-66882792D01*
X155340099Y-66952639D01*
X155309721Y-67002397D01*
X153630939Y-68681181D01*
X153569616Y-68714666D01*
X153543258Y-68717500D01*
X152258159Y-68717500D01*
X152191120Y-68697815D01*
X152156585Y-68664624D01*
X152031598Y-68486123D01*
X151876877Y-68331402D01*
X151697639Y-68205898D01*
X151546414Y-68135381D01*
X151493977Y-68089210D01*
X151474825Y-68022016D01*
X151495041Y-67955135D01*
X151546414Y-67910618D01*
X151697639Y-67840102D01*
X151876877Y-67714598D01*
X152031598Y-67559877D01*
X152157102Y-67380639D01*
X152249575Y-67182330D01*
X152306207Y-66970977D01*
X152322834Y-66780929D01*
X152325277Y-66753002D01*
X152325277Y-66752997D01*
X152321569Y-66710618D01*
X152306207Y-66535023D01*
X152249575Y-66323670D01*
X152157102Y-66125362D01*
X152157100Y-66125359D01*
X152157099Y-66125357D01*
X152031599Y-65946124D01*
X151984254Y-65898779D01*
X151876877Y-65791402D01*
X151697639Y-65665898D01*
X151697633Y-65665895D01*
X151664133Y-65650273D01*
X151611694Y-65604100D01*
X151592543Y-65536907D01*
X151612760Y-65470026D01*
X151664135Y-65425509D01*
X151747580Y-65386598D01*
X151941082Y-65251105D01*
X152108105Y-65084082D01*
X152243600Y-64890578D01*
X152343429Y-64676492D01*
X152343432Y-64676486D01*
X152400636Y-64463000D01*
X151503686Y-64463000D01*
X151529493Y-64422844D01*
X151570000Y-64284889D01*
X151570000Y-64141111D01*
X151529493Y-64003156D01*
X151503686Y-63963000D01*
X152400636Y-63963000D01*
X152400635Y-63962999D01*
X152343432Y-63749513D01*
X152343429Y-63749507D01*
X152243600Y-63535422D01*
X152243599Y-63535420D01*
X152108113Y-63341926D01*
X152108108Y-63341920D01*
X151941080Y-63174892D01*
X151932771Y-63169074D01*
X151889147Y-63114496D01*
X151881955Y-63044997D01*
X151913479Y-62982643D01*
X151973709Y-62947231D01*
X152003896Y-62943500D01*
X157338965Y-62943500D01*
X157340681Y-62944004D01*
X157346346Y-62943633D01*
X157350402Y-62943500D01*
X157489108Y-62943500D01*
X157545257Y-62936681D01*
X157652508Y-62923659D01*
X157655911Y-62923342D01*
X157732642Y-62918312D01*
X157749732Y-62912338D01*
X157749687Y-62912088D01*
X157751290Y-62911794D01*
X157751855Y-62911596D01*
X157753376Y-62911412D01*
X157944560Y-62864289D01*
X157947246Y-62863691D01*
X158004292Y-62852344D01*
X158008711Y-62849989D01*
X158008348Y-62849032D01*
X158020676Y-62844356D01*
X158184709Y-62782146D01*
X158184993Y-62782124D01*
X158186524Y-62781458D01*
X158237339Y-62762186D01*
X158239368Y-62761458D01*
X158262136Y-62753728D01*
X158267230Y-62749909D01*
X158435948Y-62661359D01*
X158436819Y-62661185D01*
X158440890Y-62658765D01*
X158496483Y-62629589D01*
X158496494Y-62629580D01*
X158499695Y-62627647D01*
X158499760Y-62627754D01*
X158507798Y-62623031D01*
X158512385Y-62618611D01*
X158669623Y-62510077D01*
X158671070Y-62509600D01*
X158671166Y-62509517D01*
X158676817Y-62505112D01*
X158715570Y-62478363D01*
X158728707Y-62466724D01*
X158735380Y-62461577D01*
X158736302Y-62460960D01*
X158739067Y-62457547D01*
X158882244Y-62330703D01*
X158884398Y-62329690D01*
X158885346Y-62328610D01*
X158890848Y-62323079D01*
X158914832Y-62301832D01*
X158936079Y-62277848D01*
X158941610Y-62272346D01*
X158941961Y-62272038D01*
X158943703Y-62269244D01*
X159070547Y-62126067D01*
X159073244Y-62124375D01*
X159074577Y-62122380D01*
X159079724Y-62115707D01*
X159091363Y-62102570D01*
X159118112Y-62063816D01*
X159122135Y-62058654D01*
X159123076Y-62056625D01*
X159231610Y-61899387D01*
X159234902Y-61896720D01*
X159240754Y-61886760D01*
X159240647Y-61886695D01*
X159242580Y-61883494D01*
X159242589Y-61883483D01*
X159271765Y-61827890D01*
X159273956Y-61824204D01*
X159274359Y-61822949D01*
X159362907Y-61654233D01*
X159366129Y-61650903D01*
X159374458Y-61626368D01*
X159375186Y-61624339D01*
X159394458Y-61573525D01*
X159395067Y-61572126D01*
X159395145Y-61571712D01*
X159460703Y-61398852D01*
X159460702Y-61398852D01*
X159462032Y-61395348D01*
X159463614Y-61395948D01*
X159464761Y-61394225D01*
X159476691Y-61334246D01*
X159477289Y-61331560D01*
X159524412Y-61140376D01*
X159524596Y-61138856D01*
X159524760Y-61138476D01*
X159525088Y-61136687D01*
X159525497Y-61136762D01*
X159531033Y-61123894D01*
X159536342Y-61042911D01*
X159536661Y-61039492D01*
X159539111Y-61019320D01*
X159556500Y-60876106D01*
X159556500Y-60744875D01*
X159556557Y-60743000D01*
X160400341Y-60743000D01*
X160420936Y-60978403D01*
X160420938Y-60978413D01*
X160482094Y-61206655D01*
X160482096Y-61206659D01*
X160482097Y-61206663D01*
X160519104Y-61286024D01*
X160581964Y-61420828D01*
X160581965Y-61420830D01*
X160717505Y-61614402D01*
X160884597Y-61781494D01*
X161078169Y-61917034D01*
X161078171Y-61917035D01*
X161292337Y-62016903D01*
X161520592Y-62078063D01*
X161697032Y-62093499D01*
X161697033Y-62093500D01*
X161697034Y-62093500D01*
X161814967Y-62093500D01*
X161814967Y-62093499D01*
X161991408Y-62078063D01*
X162219663Y-62016903D01*
X162433829Y-61917035D01*
X162627401Y-61781495D01*
X162794495Y-61614401D01*
X162930035Y-61420830D01*
X163029903Y-61206663D01*
X163091063Y-60978408D01*
X163111659Y-60743000D01*
X163111495Y-60741131D01*
X163102988Y-60643896D01*
X163091063Y-60507592D01*
X163029903Y-60279337D01*
X162930035Y-60065171D01*
X162930034Y-60065169D01*
X162794494Y-59871597D01*
X162627402Y-59704505D01*
X162433830Y-59568965D01*
X162433828Y-59568964D01*
X162326746Y-59519031D01*
X162219663Y-59469097D01*
X162219659Y-59469096D01*
X162219655Y-59469094D01*
X161991413Y-59407938D01*
X161991403Y-59407936D01*
X161814967Y-59392500D01*
X161814966Y-59392500D01*
X161697034Y-59392500D01*
X161697033Y-59392500D01*
X161520596Y-59407936D01*
X161520586Y-59407938D01*
X161292344Y-59469094D01*
X161292335Y-59469098D01*
X161078171Y-59568964D01*
X161078169Y-59568965D01*
X160884597Y-59704505D01*
X160717506Y-59871597D01*
X160717501Y-59871604D01*
X160581967Y-60065165D01*
X160581965Y-60065169D01*
X160482098Y-60279335D01*
X160482094Y-60279344D01*
X160420938Y-60507586D01*
X160420936Y-60507596D01*
X160400341Y-60742999D01*
X160400341Y-60743000D01*
X159556557Y-60743000D01*
X159556613Y-60741133D01*
X159556855Y-60737126D01*
X159562495Y-60643896D01*
X159573610Y-60474312D01*
X159574489Y-60467223D01*
X159597113Y-60343766D01*
X159625286Y-60202136D01*
X159626881Y-60195866D01*
X159665615Y-60071566D01*
X159666024Y-60070311D01*
X159710703Y-59938689D01*
X159712866Y-59933196D01*
X159767119Y-59812649D01*
X159767939Y-59810910D01*
X159828540Y-59688023D01*
X159831062Y-59683416D01*
X159899927Y-59569501D01*
X159901369Y-59567234D01*
X159976921Y-59454163D01*
X159979632Y-59450417D01*
X160062027Y-59345248D01*
X160064160Y-59342677D01*
X160153549Y-59240748D01*
X160156272Y-59237840D01*
X160250840Y-59143272D01*
X160253748Y-59140549D01*
X160355677Y-59051160D01*
X160358248Y-59049027D01*
X160463417Y-58966632D01*
X160467163Y-58963921D01*
X160580234Y-58888369D01*
X160582501Y-58886927D01*
X160696416Y-58818062D01*
X160701023Y-58815540D01*
X160823910Y-58754939D01*
X160825649Y-58754119D01*
X160946196Y-58699866D01*
X160951689Y-58697703D01*
X161083311Y-58653024D01*
X161084566Y-58652615D01*
X161208866Y-58613881D01*
X161215136Y-58612286D01*
X161356766Y-58584113D01*
X161480223Y-58561489D01*
X161487312Y-58560610D01*
X161656944Y-58549491D01*
X161752264Y-58543726D01*
X161759736Y-58543726D01*
X161854945Y-58549485D01*
G37*
%TD.AperFunction*%
%TA.AperFunction,Conductor*%
G36*
X177879007Y-57874185D02*
G01*
X177899649Y-57890819D01*
X178449181Y-58440350D01*
X178482666Y-58501673D01*
X178485500Y-58528031D01*
X178485500Y-59022150D01*
X178485501Y-59022175D01*
X178488291Y-59057627D01*
X178532380Y-59209385D01*
X178532382Y-59209390D01*
X178612827Y-59345416D01*
X178612834Y-59345425D01*
X178724574Y-59457165D01*
X178724578Y-59457168D01*
X178724580Y-59457170D01*
X178860610Y-59537618D01*
X179012373Y-59581709D01*
X179047837Y-59584500D01*
X179624162Y-59584499D01*
X179659627Y-59581709D01*
X179811390Y-59537618D01*
X179947420Y-59457170D01*
X180059170Y-59345420D01*
X180059172Y-59345415D01*
X180063519Y-59339813D01*
X180120161Y-59298904D01*
X180189927Y-59295112D01*
X180250669Y-59329641D01*
X180283100Y-59391528D01*
X180284993Y-59410676D01*
X180285119Y-59410667D01*
X180285500Y-59415511D01*
X180285501Y-59415517D01*
X180285501Y-59415518D01*
X180300354Y-59509304D01*
X180357950Y-59622342D01*
X180357952Y-59622344D01*
X180357954Y-59622347D01*
X180447652Y-59712045D01*
X180447654Y-59712046D01*
X180447658Y-59712050D01*
X180548777Y-59763573D01*
X180560698Y-59769647D01*
X180654475Y-59784499D01*
X180654481Y-59784500D01*
X182317518Y-59784499D01*
X182411304Y-59769646D01*
X182524342Y-59712050D01*
X182614050Y-59622342D01*
X182671646Y-59509304D01*
X182671646Y-59509302D01*
X182671647Y-59509301D01*
X182686500Y-59415524D01*
X182686500Y-59233500D01*
X182706185Y-59166461D01*
X182758989Y-59120706D01*
X182810500Y-59109500D01*
X182812274Y-59109500D01*
X182879313Y-59129185D01*
X182924655Y-59181094D01*
X182938898Y-59211639D01*
X183064402Y-59390877D01*
X183219123Y-59545598D01*
X183398361Y-59671102D01*
X183596670Y-59763575D01*
X183808023Y-59820207D01*
X183990926Y-59836208D01*
X184025998Y-59839277D01*
X184026000Y-59839277D01*
X184026002Y-59839277D01*
X184054254Y-59836805D01*
X184243977Y-59820207D01*
X184455330Y-59763575D01*
X184653639Y-59671102D01*
X184832877Y-59545598D01*
X184987598Y-59390877D01*
X185071862Y-59270534D01*
X185126438Y-59226911D01*
X185195937Y-59219719D01*
X185258291Y-59251241D01*
X185293705Y-59311471D01*
X185297436Y-59341660D01*
X185297436Y-62649500D01*
X185277751Y-62716539D01*
X185224947Y-62762294D01*
X185173436Y-62773500D01*
X182581564Y-62773500D01*
X182514525Y-62753815D01*
X182500362Y-62743213D01*
X182415722Y-62669872D01*
X182415719Y-62669871D01*
X182415718Y-62669870D01*
X182360474Y-62644641D01*
X182307673Y-62598888D01*
X182287988Y-62531848D01*
X182307672Y-62464809D01*
X182324298Y-62444176D01*
X182457598Y-62310877D01*
X182583102Y-62131639D01*
X182675575Y-61933330D01*
X182732207Y-61721977D01*
X182751277Y-61504000D01*
X182732207Y-61286023D01*
X182675575Y-61074670D01*
X182583102Y-60876362D01*
X182583100Y-60876359D01*
X182583099Y-60876357D01*
X182457599Y-60697124D01*
X182393395Y-60632920D01*
X182302877Y-60542402D01*
X182123639Y-60416898D01*
X182123640Y-60416898D01*
X182123638Y-60416897D01*
X181970791Y-60345624D01*
X181925330Y-60324425D01*
X181925326Y-60324424D01*
X181925322Y-60324422D01*
X181713977Y-60267793D01*
X181496002Y-60248723D01*
X181495998Y-60248723D01*
X181350682Y-60261436D01*
X181278023Y-60267793D01*
X181278020Y-60267793D01*
X181066677Y-60324422D01*
X181066668Y-60324426D01*
X180868361Y-60416898D01*
X180868357Y-60416900D01*
X180689121Y-60542402D01*
X180534402Y-60697121D01*
X180408900Y-60876357D01*
X180408897Y-60876363D01*
X180393273Y-60909868D01*
X180347099Y-60962307D01*
X180279905Y-60981457D01*
X180213025Y-60961240D01*
X180168509Y-60909865D01*
X180129598Y-60826419D01*
X179994113Y-60632926D01*
X179994108Y-60632920D01*
X179827082Y-60465894D01*
X179633578Y-60330399D01*
X179419492Y-60230570D01*
X179419486Y-60230567D01*
X179206000Y-60173364D01*
X179206000Y-61068498D01*
X179098315Y-61019320D01*
X178991763Y-61004000D01*
X178920237Y-61004000D01*
X178813685Y-61019320D01*
X178706000Y-61068498D01*
X178706000Y-60173364D01*
X178705999Y-60173364D01*
X178492513Y-60230567D01*
X178492507Y-60230570D01*
X178278422Y-60330399D01*
X178278420Y-60330400D01*
X178084926Y-60465886D01*
X178084920Y-60465891D01*
X177917891Y-60632920D01*
X177917886Y-60632926D01*
X177782400Y-60826420D01*
X177782399Y-60826422D01*
X177743489Y-60909866D01*
X177697317Y-60962305D01*
X177630123Y-60981457D01*
X177563242Y-60961241D01*
X177518725Y-60909866D01*
X177503102Y-60876363D01*
X177503102Y-60876362D01*
X177503100Y-60876359D01*
X177503099Y-60876357D01*
X177377599Y-60697124D01*
X177313395Y-60632920D01*
X177222877Y-60542402D01*
X177043639Y-60416898D01*
X177043640Y-60416898D01*
X177043638Y-60416897D01*
X176890791Y-60345624D01*
X176845330Y-60324425D01*
X176845326Y-60324424D01*
X176845322Y-60324422D01*
X176633977Y-60267793D01*
X176416002Y-60248723D01*
X176415998Y-60248723D01*
X176270681Y-60261436D01*
X176198023Y-60267793D01*
X176198020Y-60267793D01*
X175986677Y-60324422D01*
X175986668Y-60324426D01*
X175788361Y-60416898D01*
X175788357Y-60416900D01*
X175609121Y-60542402D01*
X175454402Y-60697121D01*
X175328900Y-60876357D01*
X175328898Y-60876361D01*
X175236426Y-61074668D01*
X175236422Y-61074677D01*
X175179793Y-61286020D01*
X175179793Y-61286023D01*
X175178017Y-61306324D01*
X175170229Y-61395348D01*
X175160723Y-61504000D01*
X175179081Y-61713844D01*
X175179793Y-61721975D01*
X175179793Y-61721979D01*
X175236422Y-61933322D01*
X175236424Y-61933326D01*
X175236425Y-61933330D01*
X175262235Y-61988680D01*
X175328897Y-62131638D01*
X175353998Y-62167486D01*
X175454402Y-62310877D01*
X175454406Y-62310880D01*
X175454406Y-62310881D01*
X175587692Y-62444167D01*
X175621177Y-62505490D01*
X175616193Y-62575182D01*
X175574321Y-62631115D01*
X175551523Y-62644642D01*
X175496283Y-62669869D01*
X175496277Y-62669872D01*
X175411638Y-62743213D01*
X175348082Y-62772238D01*
X175330436Y-62773500D01*
X172949724Y-62773500D01*
X172882685Y-62753815D01*
X172836930Y-62701011D01*
X172825724Y-62649500D01*
X172825724Y-59522736D01*
X172845409Y-59455697D01*
X172898213Y-59409942D01*
X172967371Y-59399998D01*
X173030927Y-59429023D01*
X173033216Y-59431057D01*
X173159438Y-59546124D01*
X173159440Y-59546125D01*
X173159441Y-59546126D01*
X173348595Y-59663245D01*
X173348596Y-59663245D01*
X173348599Y-59663247D01*
X173556060Y-59743618D01*
X173774757Y-59784500D01*
X173774759Y-59784500D01*
X173997241Y-59784500D01*
X173997243Y-59784500D01*
X174215940Y-59743618D01*
X174423401Y-59663247D01*
X174612562Y-59546124D01*
X174776981Y-59396236D01*
X174911058Y-59218689D01*
X174914569Y-59211639D01*
X174931206Y-59178228D01*
X174978709Y-59126991D01*
X175042206Y-59109500D01*
X175110259Y-59109500D01*
X175177298Y-59129185D01*
X175223053Y-59181989D01*
X175229335Y-59198904D01*
X175232380Y-59209386D01*
X175232381Y-59209388D01*
X175232382Y-59209390D01*
X175237883Y-59218691D01*
X175312827Y-59345416D01*
X175312834Y-59345425D01*
X175424574Y-59457165D01*
X175424578Y-59457168D01*
X175424580Y-59457170D01*
X175560610Y-59537618D01*
X175712373Y-59581709D01*
X175747837Y-59584500D01*
X176324162Y-59584499D01*
X176359627Y-59581709D01*
X176511390Y-59537618D01*
X176647420Y-59457170D01*
X176759170Y-59345420D01*
X176839618Y-59209390D01*
X176883709Y-59057627D01*
X176886500Y-59022163D01*
X176886499Y-58145838D01*
X176883709Y-58110373D01*
X176855446Y-58013094D01*
X176855647Y-57943225D01*
X176893590Y-57884555D01*
X176957228Y-57855712D01*
X176974524Y-57854500D01*
X177811968Y-57854500D01*
X177879007Y-57874185D01*
G37*
%TD.AperFunction*%
%TA.AperFunction,Conductor*%
G36*
X175133778Y-41074858D02*
G01*
X175171072Y-41133942D01*
X175175341Y-41157097D01*
X175178292Y-41190824D01*
X175179793Y-41207975D01*
X175179793Y-41207979D01*
X175236422Y-41419322D01*
X175236424Y-41419326D01*
X175236425Y-41419330D01*
X175253681Y-41456335D01*
X175328897Y-41617638D01*
X175328898Y-41617639D01*
X175454402Y-41796877D01*
X175609123Y-41951598D01*
X175788361Y-42077102D01*
X175986670Y-42169575D01*
X176198023Y-42226207D01*
X176380926Y-42242208D01*
X176415998Y-42245277D01*
X176416000Y-42245277D01*
X176416002Y-42245277D01*
X176444254Y-42242805D01*
X176633977Y-42226207D01*
X176781761Y-42186608D01*
X176851608Y-42188271D01*
X176901533Y-42218702D01*
X177212320Y-42529489D01*
X177213763Y-42530982D01*
X177256243Y-42576468D01*
X177256245Y-42576469D01*
X177292222Y-42598346D01*
X177297466Y-42601915D01*
X177331025Y-42627364D01*
X177346510Y-42633470D01*
X177365447Y-42642876D01*
X177379669Y-42651525D01*
X177379671Y-42651525D01*
X177379672Y-42651526D01*
X177420216Y-42662885D01*
X177426220Y-42664903D01*
X177465411Y-42680359D01*
X177471067Y-42680940D01*
X177481968Y-42682061D01*
X177502746Y-42686009D01*
X177518772Y-42690500D01*
X177560880Y-42690500D01*
X177567221Y-42690824D01*
X177609110Y-42695131D01*
X177625514Y-42692302D01*
X177646580Y-42690500D01*
X180310948Y-42690500D01*
X180313065Y-42690536D01*
X180321850Y-42690835D01*
X180375245Y-42692660D01*
X180416169Y-42682686D01*
X180422368Y-42681507D01*
X180464111Y-42675771D01*
X180479386Y-42669135D01*
X180499421Y-42662397D01*
X180515594Y-42658457D01*
X180552316Y-42637808D01*
X180557955Y-42635007D01*
X180596609Y-42618219D01*
X180609528Y-42607707D01*
X180626997Y-42595818D01*
X180641512Y-42587658D01*
X180671298Y-42557870D01*
X180675999Y-42553628D01*
X180708665Y-42527054D01*
X180718264Y-42513453D01*
X180731881Y-42497287D01*
X181010467Y-42218700D01*
X181071788Y-42185217D01*
X181130237Y-42186607D01*
X181278023Y-42226207D01*
X181465787Y-42242633D01*
X181495998Y-42245277D01*
X181496000Y-42245277D01*
X181496002Y-42245277D01*
X181524254Y-42242805D01*
X181713977Y-42226207D01*
X181925330Y-42169575D01*
X182123639Y-42077102D01*
X182302877Y-41951598D01*
X182457598Y-41796877D01*
X182583102Y-41617639D01*
X182675575Y-41419330D01*
X182732207Y-41207977D01*
X182736750Y-41156040D01*
X182762202Y-41090973D01*
X182818792Y-41049994D01*
X182888554Y-41046115D01*
X182911016Y-41053704D01*
X183265364Y-41212640D01*
X183265448Y-41212712D01*
X183265460Y-41212683D01*
X183265525Y-41212712D01*
X183322403Y-41238287D01*
X183325681Y-41239880D01*
X183673949Y-41422219D01*
X183867770Y-41524378D01*
X183870842Y-41526113D01*
X184180545Y-41713025D01*
X184394452Y-41843468D01*
X184397369Y-41845361D01*
X184684158Y-42043120D01*
X184900560Y-42194408D01*
X184903197Y-42196361D01*
X185171718Y-42406651D01*
X185384020Y-42575767D01*
X185386462Y-42577820D01*
X185508564Y-42686010D01*
X185638364Y-42801022D01*
X185843063Y-42986128D01*
X185845335Y-42988290D01*
X186080986Y-43224107D01*
X186275987Y-43423967D01*
X186278044Y-43426180D01*
X186497515Y-43674223D01*
X186681131Y-43887601D01*
X186682975Y-43889849D01*
X186886004Y-44149474D01*
X187056962Y-44375275D01*
X187058598Y-44377539D01*
X187244797Y-44647969D01*
X187402055Y-44885131D01*
X187403487Y-44887396D01*
X187572448Y-45167799D01*
X187715095Y-45415219D01*
X187716331Y-45417467D01*
X187867369Y-45706446D01*
X187867964Y-45707614D01*
X187994911Y-45963543D01*
X187995957Y-45965760D01*
X188128938Y-46262799D01*
X188129506Y-46264106D01*
X188240445Y-46528016D01*
X188241310Y-46530187D01*
X188355882Y-46834352D01*
X188356407Y-46835799D01*
X188450766Y-47106491D01*
X188451460Y-47108603D01*
X188547284Y-47418866D01*
X188547751Y-47420452D01*
X188625082Y-47696759D01*
X188625616Y-47698799D01*
X188702402Y-48014120D01*
X188702796Y-48015843D01*
X188762739Y-48296578D01*
X188763124Y-48298535D01*
X188820634Y-48617873D01*
X188820938Y-48619717D01*
X188861536Y-48892325D01*
X188863231Y-48903703D01*
X188863478Y-48905556D01*
X188864596Y-48915020D01*
X188901511Y-49227773D01*
X188901713Y-49229758D01*
X188926176Y-49515801D01*
X188926302Y-49517564D01*
X188944728Y-49841567D01*
X188944812Y-49843675D01*
X188951351Y-50130547D01*
X188951366Y-50132200D01*
X188950107Y-50456904D01*
X188950058Y-50459127D01*
X188938670Y-50745565D01*
X188938589Y-50747102D01*
X188917617Y-51071472D01*
X188917423Y-51073801D01*
X188888205Y-51358515D01*
X188888044Y-51359931D01*
X188847380Y-51682900D01*
X188847025Y-51685327D01*
X188800162Y-51967128D01*
X188799933Y-51968419D01*
X188739657Y-52288855D01*
X188739130Y-52291366D01*
X188674766Y-52569621D01*
X188594843Y-52887094D01*
X188594133Y-52889677D01*
X188512813Y-53162344D01*
X188413484Y-53475328D01*
X188412579Y-53477971D01*
X188314836Y-53743788D01*
X188196277Y-54051283D01*
X188195168Y-54053971D01*
X188081675Y-54311640D01*
X187944025Y-54612827D01*
X187942702Y-54615544D01*
X187814409Y-54863535D01*
X187657679Y-55157819D01*
X187656136Y-55160549D01*
X187514227Y-55397320D01*
X187338342Y-55684160D01*
X187336571Y-55686885D01*
X187182838Y-55910411D01*
X186987199Y-56189886D01*
X186985196Y-56192588D01*
X186822311Y-56400313D01*
X186605598Y-56673052D01*
X186603359Y-56675713D01*
X186436563Y-56863029D01*
X186194974Y-57131839D01*
X186192497Y-57134440D01*
X186036573Y-57288922D01*
X185756864Y-57564519D01*
X185754149Y-57567039D01*
X185706760Y-57608456D01*
X185312634Y-57952256D01*
X185307456Y-57955491D01*
X185299305Y-57963613D01*
X185295059Y-57967469D01*
X185288297Y-57973062D01*
X185224092Y-58000621D01*
X185155180Y-57989094D01*
X185107691Y-57948634D01*
X184987599Y-57777124D01*
X184921302Y-57710827D01*
X184832877Y-57622402D01*
X184653639Y-57496898D01*
X184653640Y-57496898D01*
X184653638Y-57496897D01*
X184506564Y-57428316D01*
X184455330Y-57404425D01*
X184455326Y-57404424D01*
X184455322Y-57404422D01*
X184243977Y-57347793D01*
X184026002Y-57328723D01*
X184025998Y-57328723D01*
X183937060Y-57336504D01*
X183808023Y-57347793D01*
X183808020Y-57347793D01*
X183596677Y-57404422D01*
X183596668Y-57404426D01*
X183398361Y-57496898D01*
X183398357Y-57496900D01*
X183219121Y-57622402D01*
X183064402Y-57777121D01*
X182938899Y-57956359D01*
X182924655Y-57986906D01*
X182878482Y-58039345D01*
X182812273Y-58058500D01*
X182810499Y-58058500D01*
X182743460Y-58038815D01*
X182697705Y-57986011D01*
X182686499Y-57934500D01*
X182686499Y-57752482D01*
X182679903Y-57710834D01*
X182671646Y-57658696D01*
X182614050Y-57545658D01*
X182614046Y-57545654D01*
X182614045Y-57545652D01*
X182524347Y-57455954D01*
X182524344Y-57455952D01*
X182524342Y-57455950D01*
X182447517Y-57416805D01*
X182411301Y-57398352D01*
X182317524Y-57383500D01*
X180654482Y-57383500D01*
X180573519Y-57396323D01*
X180560696Y-57398354D01*
X180447658Y-57455950D01*
X180447657Y-57455950D01*
X180447657Y-57455951D01*
X180447652Y-57455954D01*
X180357954Y-57545652D01*
X180357951Y-57545657D01*
X180357950Y-57545658D01*
X180347056Y-57567039D01*
X180300352Y-57658698D01*
X180285499Y-57752477D01*
X180285118Y-57757331D01*
X180284015Y-57757244D01*
X180265815Y-57819227D01*
X180213011Y-57864982D01*
X180143853Y-57874926D01*
X180080297Y-57845901D01*
X180063520Y-57828188D01*
X180059166Y-57822575D01*
X179947425Y-57710834D01*
X179947416Y-57710827D01*
X179811390Y-57630382D01*
X179811385Y-57630380D01*
X179659633Y-57586292D01*
X179659620Y-57586290D01*
X179624170Y-57583500D01*
X179624163Y-57583500D01*
X179130032Y-57583500D01*
X179062993Y-57563815D01*
X179042351Y-57547181D01*
X178941351Y-57446181D01*
X178907866Y-57384858D01*
X178912850Y-57315166D01*
X178954722Y-57259233D01*
X179020186Y-57234816D01*
X179029032Y-57234500D01*
X179615496Y-57234500D01*
X179615497Y-57234500D01*
X179615498Y-57234499D01*
X179615515Y-57234499D01*
X179793536Y-57219347D01*
X179793539Y-57219346D01*
X179793541Y-57219346D01*
X180024249Y-57159275D01*
X180156973Y-57099279D01*
X180241480Y-57061080D01*
X180241481Y-57061078D01*
X180241486Y-57061077D01*
X180439003Y-56927579D01*
X180611118Y-56762621D01*
X180752879Y-56570947D01*
X180860207Y-56358074D01*
X180930016Y-56130123D01*
X180960298Y-55893654D01*
X180959895Y-55884177D01*
X180951654Y-55690176D01*
X180950180Y-55655468D01*
X180899954Y-55422419D01*
X180811064Y-55201210D01*
X180686069Y-54998205D01*
X180528564Y-54819245D01*
X180528563Y-54819244D01*
X180528559Y-54819240D01*
X180411815Y-54724976D01*
X180372022Y-54667546D01*
X180369595Y-54597718D01*
X180405306Y-54537664D01*
X180467815Y-54506449D01*
X180489714Y-54504500D01*
X185200948Y-54504500D01*
X185203065Y-54504536D01*
X185211850Y-54504835D01*
X185265245Y-54506660D01*
X185306169Y-54496686D01*
X185312368Y-54495507D01*
X185354111Y-54489771D01*
X185369386Y-54483135D01*
X185389421Y-54476397D01*
X185405594Y-54472457D01*
X185442316Y-54451808D01*
X185447955Y-54449007D01*
X185486609Y-54432219D01*
X185499528Y-54421707D01*
X185516997Y-54409818D01*
X185531512Y-54401658D01*
X185561298Y-54371870D01*
X185565999Y-54367628D01*
X185598665Y-54341054D01*
X185608264Y-54327453D01*
X185621881Y-54311287D01*
X185762350Y-54170817D01*
X185823673Y-54137333D01*
X185850031Y-54134499D01*
X187487517Y-54134499D01*
X187487518Y-54134499D01*
X187581304Y-54119646D01*
X187694342Y-54062050D01*
X187784050Y-53972342D01*
X187841646Y-53859304D01*
X187841646Y-53859302D01*
X187841647Y-53859301D01*
X187856120Y-53767918D01*
X187856500Y-53765519D01*
X187856499Y-51702482D01*
X187841646Y-51608696D01*
X187784050Y-51495658D01*
X187784046Y-51495654D01*
X187784045Y-51495652D01*
X187694347Y-51405954D01*
X187694343Y-51405951D01*
X187694343Y-51405950D01*
X187694342Y-51405950D01*
X187650477Y-51383600D01*
X187599684Y-51335628D01*
X187582889Y-51267807D01*
X187605426Y-51201672D01*
X187615546Y-51189133D01*
X187643770Y-51158474D01*
X187779732Y-50950367D01*
X187879587Y-50722717D01*
X187940612Y-50481738D01*
X187940614Y-50481729D01*
X187961141Y-50234005D01*
X187961141Y-50233994D01*
X187940614Y-49986270D01*
X187940612Y-49986261D01*
X187879587Y-49745282D01*
X187779731Y-49517630D01*
X187679434Y-49364116D01*
X186939076Y-50104474D01*
X186915493Y-50024156D01*
X186837761Y-49903202D01*
X186729100Y-49809048D01*
X186598315Y-49749320D01*
X186588532Y-49747913D01*
X187326056Y-49010389D01*
X187325607Y-49003150D01*
X187296063Y-48962098D01*
X187292388Y-48892325D01*
X187327019Y-48831642D01*
X187336866Y-48823109D01*
X187407784Y-48767913D01*
X187564979Y-48597153D01*
X187691924Y-48402849D01*
X187785157Y-48190300D01*
X187842134Y-47965305D01*
X187842135Y-47965297D01*
X187861300Y-47734006D01*
X187861300Y-47733993D01*
X187842135Y-47502702D01*
X187842133Y-47502691D01*
X187785157Y-47277699D01*
X187691924Y-47065151D01*
X187564983Y-46870852D01*
X187564980Y-46870849D01*
X187564979Y-46870847D01*
X187407784Y-46700087D01*
X187407779Y-46700083D01*
X187407777Y-46700081D01*
X187224634Y-46557535D01*
X187224628Y-46557531D01*
X187020504Y-46447064D01*
X187020495Y-46447061D01*
X186800984Y-46371702D01*
X186597979Y-46337827D01*
X186572049Y-46333500D01*
X186339951Y-46333500D01*
X186314021Y-46337827D01*
X186111015Y-46371702D01*
X185891504Y-46447061D01*
X185891495Y-46447064D01*
X185687371Y-46557531D01*
X185687365Y-46557535D01*
X185504222Y-46700081D01*
X185504219Y-46700084D01*
X185347016Y-46870852D01*
X185220075Y-47065151D01*
X185189740Y-47134310D01*
X185144784Y-47187796D01*
X185078048Y-47208486D01*
X185076184Y-47208500D01*
X183943940Y-47208500D01*
X183876901Y-47188815D01*
X183856259Y-47172181D01*
X183788262Y-47104184D01*
X183635523Y-47008211D01*
X183465254Y-46948631D01*
X183465249Y-46948630D01*
X183286004Y-46928435D01*
X183285996Y-46928435D01*
X183106750Y-46948630D01*
X183106745Y-46948631D01*
X182936476Y-47008211D01*
X182783737Y-47104184D01*
X182656184Y-47231737D01*
X182560211Y-47384476D01*
X182500631Y-47554745D01*
X182500630Y-47554750D01*
X182480435Y-47733996D01*
X182480435Y-47734003D01*
X182500630Y-47913249D01*
X182500631Y-47913254D01*
X182560211Y-48083523D01*
X182656183Y-48236262D01*
X182656184Y-48236262D01*
X182783738Y-48363816D01*
X182797678Y-48372575D01*
X182927885Y-48454390D01*
X182936478Y-48459789D01*
X183106745Y-48519367D01*
X183106745Y-48519368D01*
X183106750Y-48519369D01*
X183285996Y-48539565D01*
X183286000Y-48539565D01*
X183286004Y-48539565D01*
X183465249Y-48519369D01*
X183465252Y-48519368D01*
X183465255Y-48519368D01*
X183635522Y-48459789D01*
X183788262Y-48363816D01*
X183856259Y-48295819D01*
X183917582Y-48262334D01*
X183943940Y-48259500D01*
X185076184Y-48259500D01*
X185143223Y-48279185D01*
X185188978Y-48331989D01*
X185189740Y-48333690D01*
X185220075Y-48402848D01*
X185347016Y-48597147D01*
X185347019Y-48597151D01*
X185347021Y-48597153D01*
X185504216Y-48767913D01*
X185575124Y-48823103D01*
X185615936Y-48879811D01*
X185619611Y-48949584D01*
X185586068Y-49008360D01*
X185585942Y-49010390D01*
X186323464Y-49747913D01*
X186313685Y-49749320D01*
X186182900Y-49809048D01*
X186074239Y-49903202D01*
X185996507Y-50024156D01*
X185972923Y-50104475D01*
X185232564Y-49364116D01*
X185132267Y-49517632D01*
X185032412Y-49745282D01*
X184971387Y-49986261D01*
X184971385Y-49986270D01*
X184950859Y-50233994D01*
X184950859Y-50234005D01*
X184971385Y-50481729D01*
X184971387Y-50481738D01*
X185032412Y-50722717D01*
X185132267Y-50950367D01*
X185268229Y-51158474D01*
X185296454Y-51189134D01*
X185327376Y-51251789D01*
X185319516Y-51321215D01*
X185275369Y-51375370D01*
X185261519Y-51383601D01*
X185217661Y-51405947D01*
X185217652Y-51405954D01*
X185127954Y-51495652D01*
X185127951Y-51495657D01*
X185127950Y-51495658D01*
X185111276Y-51528382D01*
X185070352Y-51608698D01*
X185055500Y-51702475D01*
X185055500Y-53329500D01*
X185035815Y-53396539D01*
X184983011Y-53442294D01*
X184931500Y-53453500D01*
X178463940Y-53453500D01*
X178396901Y-53433815D01*
X178376259Y-53417181D01*
X178308262Y-53349184D01*
X178155523Y-53253211D01*
X177985254Y-53193631D01*
X177985249Y-53193630D01*
X177806004Y-53173435D01*
X177805996Y-53173435D01*
X177626750Y-53193630D01*
X177626745Y-53193631D01*
X177456476Y-53253211D01*
X177303737Y-53349184D01*
X177176184Y-53476737D01*
X177080211Y-53629476D01*
X177020631Y-53799745D01*
X177020630Y-53799750D01*
X177000435Y-53978996D01*
X177000435Y-53979003D01*
X177020630Y-54158249D01*
X177020631Y-54158254D01*
X177080211Y-54328523D01*
X177176184Y-54481262D01*
X177303739Y-54608817D01*
X177354348Y-54640617D01*
X177400638Y-54692952D01*
X177411286Y-54762005D01*
X177382911Y-54825853D01*
X177374176Y-54835132D01*
X177300882Y-54905378D01*
X177159123Y-55097050D01*
X177159120Y-55097054D01*
X177051796Y-55309920D01*
X177051793Y-55309926D01*
X176981983Y-55537878D01*
X176951702Y-55774346D01*
X176961819Y-56012528D01*
X176961819Y-56012532D01*
X177012045Y-56245580D01*
X177099109Y-56462243D01*
X177100936Y-56466790D01*
X177165067Y-56570945D01*
X177191876Y-56614486D01*
X177210263Y-56681893D01*
X177189288Y-56748540D01*
X177135611Y-56793267D01*
X177086286Y-56803500D01*
X176215032Y-56803500D01*
X176147993Y-56783815D01*
X176127351Y-56767181D01*
X175436343Y-56076173D01*
X175402858Y-56014850D01*
X175407842Y-55945158D01*
X175449714Y-55889225D01*
X175515178Y-55864808D01*
X175524024Y-55864492D01*
X175606005Y-55864492D01*
X175731301Y-55844647D01*
X175731302Y-55844646D01*
X175731304Y-55844646D01*
X175844342Y-55787050D01*
X175934050Y-55697342D01*
X175991646Y-55584304D01*
X175991646Y-55584302D01*
X175991647Y-55584301D01*
X176011492Y-55459005D01*
X176011492Y-54309007D01*
X176011492Y-54309000D01*
X175996383Y-54199341D01*
X175996379Y-54199332D01*
X175994420Y-54192615D01*
X175990984Y-54138485D01*
X176011492Y-54009005D01*
X176011492Y-53008994D01*
X175991647Y-52883698D01*
X175978205Y-52857317D01*
X175934050Y-52770658D01*
X175934046Y-52770654D01*
X175934045Y-52770652D01*
X175844347Y-52680954D01*
X175844344Y-52680952D01*
X175844342Y-52680950D01*
X175767517Y-52641805D01*
X175731301Y-52623352D01*
X175606005Y-52603508D01*
X175606000Y-52603508D01*
X174745039Y-52603508D01*
X174678000Y-52583823D01*
X174657358Y-52567189D01*
X174571488Y-52481319D01*
X174459662Y-52369493D01*
X174458220Y-52368000D01*
X174415753Y-52322529D01*
X174415752Y-52322528D01*
X174379775Y-52300651D01*
X174374529Y-52297081D01*
X174348972Y-52277700D01*
X174340976Y-52271636D01*
X174332406Y-52268256D01*
X174325485Y-52265527D01*
X174306553Y-52256124D01*
X174292329Y-52247474D01*
X174251785Y-52236113D01*
X174245766Y-52234089D01*
X174212025Y-52220784D01*
X174206589Y-52218641D01*
X174206585Y-52218640D01*
X174206583Y-52218640D01*
X174190022Y-52216937D01*
X174169255Y-52212990D01*
X174153231Y-52208500D01*
X174153228Y-52208500D01*
X174111120Y-52208500D01*
X174104778Y-52208175D01*
X174086853Y-52206332D01*
X174062892Y-52203869D01*
X174062888Y-52203869D01*
X174053576Y-52205474D01*
X174046485Y-52206697D01*
X174025420Y-52208500D01*
X173335816Y-52208500D01*
X173268777Y-52188815D01*
X173223022Y-52136011D01*
X173222260Y-52134310D01*
X173191924Y-52065151D01*
X173064983Y-51870852D01*
X173064980Y-51870849D01*
X173064979Y-51870847D01*
X172907784Y-51700087D01*
X172907779Y-51700083D01*
X172907777Y-51700081D01*
X172724634Y-51557535D01*
X172724628Y-51557531D01*
X172520504Y-51447064D01*
X172520495Y-51447061D01*
X172300984Y-51371702D01*
X172084801Y-51335628D01*
X172072049Y-51333500D01*
X171839951Y-51333500D01*
X171827199Y-51335628D01*
X171611015Y-51371702D01*
X171391504Y-51447061D01*
X171391495Y-51447064D01*
X171187371Y-51557531D01*
X171187365Y-51557535D01*
X171004222Y-51700081D01*
X171004219Y-51700084D01*
X171004216Y-51700086D01*
X171004216Y-51700087D01*
X170979931Y-51726468D01*
X170847016Y-51870852D01*
X170720075Y-52065151D01*
X170626842Y-52277699D01*
X170569866Y-52502691D01*
X170569864Y-52502702D01*
X170550700Y-52733993D01*
X170550700Y-52734006D01*
X170569864Y-52965297D01*
X170569866Y-52965308D01*
X170626842Y-53190300D01*
X170720075Y-53402848D01*
X170847016Y-53597147D01*
X170847019Y-53597151D01*
X170847021Y-53597153D01*
X171004216Y-53767913D01*
X171004219Y-53767915D01*
X171004222Y-53767918D01*
X171187365Y-53910464D01*
X171187372Y-53910468D01*
X171187374Y-53910470D01*
X171365517Y-54006876D01*
X171415108Y-54056095D01*
X171430500Y-54115931D01*
X171430500Y-54818948D01*
X171430464Y-54821065D01*
X171428340Y-54883250D01*
X171438308Y-54924153D01*
X171439494Y-54930394D01*
X171445228Y-54972109D01*
X171451864Y-54987387D01*
X171458602Y-55007424D01*
X171462542Y-55023593D01*
X171462543Y-55023594D01*
X171483175Y-55060289D01*
X171486000Y-55065977D01*
X171502782Y-55104611D01*
X171513283Y-55117518D01*
X171525182Y-55135000D01*
X171530730Y-55144866D01*
X171533342Y-55149512D01*
X171563115Y-55179285D01*
X171567372Y-55184002D01*
X171593946Y-55216665D01*
X171607544Y-55226264D01*
X171623715Y-55239885D01*
X172486147Y-56102317D01*
X173324181Y-56940350D01*
X173357666Y-57001673D01*
X173360500Y-57028031D01*
X173360500Y-57428316D01*
X173340815Y-57495355D01*
X173301778Y-57533743D01*
X173159436Y-57621877D01*
X172995020Y-57771761D01*
X172860943Y-57949308D01*
X172860940Y-57949313D01*
X172855138Y-57960966D01*
X172807633Y-58012201D01*
X172739970Y-58029621D01*
X172673630Y-58007694D01*
X172665142Y-58001271D01*
X172647761Y-57986906D01*
X172605838Y-57952256D01*
X172411615Y-57791731D01*
X172352304Y-57742618D01*
X172349487Y-57740137D01*
X172155625Y-57558749D01*
X172062264Y-57471394D01*
X171897035Y-57315927D01*
X171894510Y-57313408D01*
X171644879Y-57049256D01*
X171494256Y-56888377D01*
X171469328Y-56861751D01*
X171466994Y-56859112D01*
X171325298Y-56689396D01*
X171242289Y-56589972D01*
X171070749Y-56381767D01*
X171068675Y-56379103D01*
X170865024Y-56102230D01*
X170702892Y-55877887D01*
X170701057Y-55875200D01*
X170517166Y-55590003D01*
X170484308Y-55537878D01*
X170367196Y-55352097D01*
X170365577Y-55349374D01*
X170201027Y-55056038D01*
X170064923Y-54806372D01*
X170063550Y-54803697D01*
X170037297Y-54749313D01*
X169964118Y-54597718D01*
X169918222Y-54502641D01*
X169836653Y-54327458D01*
X169797313Y-54242968D01*
X169796146Y-54240296D01*
X169795303Y-54238236D01*
X169752873Y-54134499D01*
X169670162Y-53932279D01*
X169565346Y-53663970D01*
X169564383Y-53661331D01*
X169457943Y-53347281D01*
X169369923Y-53071625D01*
X169369169Y-53069074D01*
X169282441Y-52749867D01*
X169211830Y-52468323D01*
X169211252Y-52465791D01*
X169144542Y-52143027D01*
X169144360Y-52142095D01*
X169091657Y-51856348D01*
X169091267Y-51853970D01*
X169044600Y-51528315D01*
X169044439Y-51527098D01*
X169009869Y-51238077D01*
X169009639Y-51235773D01*
X169008089Y-51216643D01*
X168983107Y-50908331D01*
X168983007Y-50906859D01*
X168981412Y-50878256D01*
X168966790Y-50616023D01*
X168966707Y-50613832D01*
X168960347Y-50285545D01*
X168960339Y-50284169D01*
X168962569Y-49992413D01*
X168962617Y-49990450D01*
X168976429Y-49662662D01*
X168976528Y-49660918D01*
X168976758Y-49657689D01*
X168997222Y-49369887D01*
X168997384Y-49368034D01*
X169031303Y-49041772D01*
X169031509Y-49040045D01*
X169070603Y-48750768D01*
X169070865Y-48749032D01*
X169124762Y-48425499D01*
X169125101Y-48423646D01*
X169182417Y-48137482D01*
X169182747Y-48135945D01*
X169256467Y-47816133D01*
X169256938Y-47814241D01*
X169278370Y-47734006D01*
X170550700Y-47734006D01*
X170569864Y-47965297D01*
X170569866Y-47965308D01*
X170626842Y-48190300D01*
X170720075Y-48402848D01*
X170847016Y-48597147D01*
X170847019Y-48597151D01*
X170847021Y-48597153D01*
X171004216Y-48767913D01*
X171004219Y-48767915D01*
X171004222Y-48767918D01*
X171187365Y-48910464D01*
X171187371Y-48910468D01*
X171187374Y-48910470D01*
X171391497Y-49020936D01*
X171460335Y-49044568D01*
X171611015Y-49096297D01*
X171611017Y-49096297D01*
X171611019Y-49096298D01*
X171839951Y-49134500D01*
X171839952Y-49134500D01*
X172072048Y-49134500D01*
X172072049Y-49134500D01*
X172300981Y-49096298D01*
X172520503Y-49020936D01*
X172724626Y-48910470D01*
X172730204Y-48906129D01*
X172820688Y-48835702D01*
X172907784Y-48767913D01*
X173064979Y-48597153D01*
X173191924Y-48402849D01*
X173285157Y-48190300D01*
X173342134Y-47965305D01*
X173342135Y-47965297D01*
X173361300Y-47734006D01*
X173361300Y-47733993D01*
X173342135Y-47502702D01*
X173342133Y-47502691D01*
X173285157Y-47277699D01*
X173191924Y-47065151D01*
X173064983Y-46870852D01*
X173064980Y-46870849D01*
X173064979Y-46870847D01*
X172907784Y-46700087D01*
X172907779Y-46700083D01*
X172907777Y-46700081D01*
X172724634Y-46557535D01*
X172724628Y-46557531D01*
X172520504Y-46447064D01*
X172520495Y-46447061D01*
X172300984Y-46371702D01*
X172097979Y-46337827D01*
X172072049Y-46333500D01*
X171839951Y-46333500D01*
X171814021Y-46337827D01*
X171611015Y-46371702D01*
X171391504Y-46447061D01*
X171391495Y-46447064D01*
X171187371Y-46557531D01*
X171187365Y-46557535D01*
X171004222Y-46700081D01*
X171004219Y-46700084D01*
X170847016Y-46870852D01*
X170720075Y-47065151D01*
X170626842Y-47277699D01*
X170569866Y-47502691D01*
X170569864Y-47502702D01*
X170550700Y-47733993D01*
X170550700Y-47734006D01*
X169278370Y-47734006D01*
X169332215Y-47532424D01*
X169332620Y-47530986D01*
X169425888Y-47216185D01*
X169426524Y-47214170D01*
X169519399Y-46937954D01*
X169519845Y-46936681D01*
X169632393Y-46627890D01*
X169633175Y-46625864D01*
X169743210Y-46356421D01*
X169743724Y-46355202D01*
X169875161Y-46053611D01*
X169876137Y-46051491D01*
X170002790Y-45790000D01*
X170003303Y-45788970D01*
X170153280Y-45495522D01*
X170154437Y-45493371D01*
X170297279Y-45240616D01*
X170465647Y-44955850D01*
X170467029Y-44953625D01*
X170625038Y-44711258D01*
X170717791Y-44574346D01*
X176951702Y-44574346D01*
X176961819Y-44812528D01*
X176961819Y-44812532D01*
X177012045Y-45045580D01*
X177084659Y-45226283D01*
X177100936Y-45266790D01*
X177225931Y-45469795D01*
X177383436Y-45648755D01*
X177568920Y-45798523D01*
X177777046Y-45914790D01*
X177921305Y-45965760D01*
X178001829Y-45994211D01*
X178236790Y-46034499D01*
X178236798Y-46034499D01*
X178236800Y-46034500D01*
X178236801Y-46034500D01*
X179615496Y-46034500D01*
X179615497Y-46034500D01*
X179615498Y-46034499D01*
X179615515Y-46034499D01*
X179793536Y-46019347D01*
X179793539Y-46019346D01*
X179793541Y-46019346D01*
X180024249Y-45959275D01*
X180214842Y-45873121D01*
X180241480Y-45861080D01*
X180241481Y-45861078D01*
X180241486Y-45861077D01*
X180439003Y-45727579D01*
X180611118Y-45562621D01*
X180752879Y-45370947D01*
X180860207Y-45158074D01*
X180930016Y-44930123D01*
X180960298Y-44693654D01*
X180950180Y-44455468D01*
X180949083Y-44450380D01*
X180899954Y-44222419D01*
X180811064Y-44001211D01*
X180811064Y-44001210D01*
X180686069Y-43798205D01*
X180528564Y-43619245D01*
X180343080Y-43469477D01*
X180189383Y-43383616D01*
X180134955Y-43353210D01*
X179910170Y-43273788D01*
X179675209Y-43233500D01*
X179675200Y-43233500D01*
X178296503Y-43233500D01*
X178296484Y-43233500D01*
X178118463Y-43248652D01*
X177887751Y-43308724D01*
X177670519Y-43406919D01*
X177670511Y-43406924D01*
X177473006Y-43540413D01*
X177472997Y-43540421D01*
X177300881Y-43705379D01*
X177159123Y-43897050D01*
X177159120Y-43897054D01*
X177051796Y-44109920D01*
X177051793Y-44109926D01*
X176981983Y-44337878D01*
X176951702Y-44574346D01*
X170717791Y-44574346D01*
X170811072Y-44436654D01*
X170812638Y-44434450D01*
X170984951Y-44203539D01*
X171188186Y-43940002D01*
X171190002Y-43937759D01*
X171375495Y-43719500D01*
X171595574Y-43467764D01*
X171597602Y-43465556D01*
X171795021Y-43261053D01*
X172031631Y-43021818D01*
X172033832Y-43019703D01*
X172241527Y-42830180D01*
X172494636Y-42603927D01*
X172497071Y-42601863D01*
X172712847Y-42428676D01*
X172982834Y-42215676D01*
X172985468Y-42213713D01*
X173205958Y-42058623D01*
X173494296Y-41858609D01*
X173497135Y-41856758D01*
X173716161Y-41722577D01*
X174027009Y-41534131D01*
X174030099Y-41532380D01*
X174230661Y-41426352D01*
X174578247Y-41243842D01*
X174581692Y-41242171D01*
X175001226Y-41054694D01*
X175070461Y-41045316D01*
X175133778Y-41074858D01*
G37*
%TD.AperFunction*%
%TA.AperFunction,Conductor*%
G36*
X161564879Y-47188185D02*
G01*
X161599412Y-47221373D01*
X161724402Y-47399877D01*
X161879123Y-47554598D01*
X162058360Y-47680101D01*
X162058361Y-47680102D01*
X162209583Y-47750618D01*
X162262022Y-47796790D01*
X162281174Y-47863984D01*
X162260958Y-47930865D01*
X162209583Y-47975382D01*
X162058361Y-48045898D01*
X162058357Y-48045900D01*
X161879121Y-48171402D01*
X161724402Y-48326121D01*
X161598900Y-48505357D01*
X161598898Y-48505361D01*
X161506426Y-48703668D01*
X161506422Y-48703677D01*
X161449793Y-48915020D01*
X161449793Y-48915024D01*
X161431817Y-49120500D01*
X161430723Y-49133000D01*
X161448249Y-49333334D01*
X161449793Y-49350975D01*
X161449793Y-49350979D01*
X161506422Y-49562322D01*
X161506424Y-49562326D01*
X161506425Y-49562330D01*
X161550892Y-49657689D01*
X161598897Y-49760638D01*
X161598898Y-49760639D01*
X161724402Y-49939877D01*
X161879123Y-50094598D01*
X162058361Y-50220102D01*
X162091862Y-50235724D01*
X162091865Y-50235725D01*
X162144304Y-50281897D01*
X162163456Y-50349091D01*
X162143240Y-50415972D01*
X162091865Y-50460489D01*
X162008422Y-50499399D01*
X162008420Y-50499400D01*
X161814926Y-50634886D01*
X161814920Y-50634891D01*
X161647891Y-50801920D01*
X161647886Y-50801926D01*
X161512400Y-50995420D01*
X161512399Y-50995422D01*
X161412573Y-51209500D01*
X161412567Y-51209513D01*
X161355364Y-51422999D01*
X161355364Y-51423000D01*
X162252314Y-51423000D01*
X162226507Y-51463156D01*
X162186000Y-51601111D01*
X162186000Y-51744889D01*
X162226507Y-51882844D01*
X162252314Y-51923000D01*
X161355364Y-51923000D01*
X161412567Y-52136486D01*
X161412570Y-52136492D01*
X161512399Y-52350578D01*
X161647894Y-52544082D01*
X161814919Y-52711107D01*
X161823229Y-52716926D01*
X161866853Y-52771504D01*
X161874045Y-52841003D01*
X161842521Y-52903357D01*
X161782291Y-52938769D01*
X161752104Y-52942500D01*
X156417034Y-52942500D01*
X156415314Y-52941994D01*
X156409640Y-52942367D01*
X156405583Y-52942500D01*
X156266890Y-52942500D01*
X156103517Y-52962337D01*
X156100099Y-52962656D01*
X156023382Y-52967684D01*
X156006268Y-52973667D01*
X156006313Y-52973912D01*
X156004746Y-52974199D01*
X156004172Y-52974400D01*
X156002628Y-52974587D01*
X155836679Y-53015490D01*
X155836675Y-53015489D01*
X155811527Y-53021689D01*
X155808785Y-53022299D01*
X155751801Y-53033634D01*
X155747298Y-53036037D01*
X155747651Y-53036968D01*
X155571292Y-53103852D01*
X155570999Y-53103874D01*
X155569419Y-53104562D01*
X155518730Y-53123786D01*
X155516675Y-53124524D01*
X155493869Y-53132266D01*
X155488765Y-53136093D01*
X155438748Y-53162344D01*
X155320051Y-53224640D01*
X155319173Y-53224816D01*
X155315086Y-53227245D01*
X155270355Y-53250722D01*
X155259517Y-53256411D01*
X155259515Y-53256412D01*
X155259510Y-53256415D01*
X155256305Y-53258353D01*
X155256240Y-53258245D01*
X155248204Y-53262965D01*
X155243610Y-53267390D01*
X155086377Y-53375921D01*
X155084923Y-53376400D01*
X155084820Y-53376492D01*
X155079156Y-53380906D01*
X155040426Y-53407640D01*
X155027304Y-53419264D01*
X155020631Y-53424411D01*
X155019706Y-53425028D01*
X155016933Y-53428453D01*
X154873754Y-53555298D01*
X154871593Y-53556313D01*
X154870639Y-53557402D01*
X154865135Y-53562934D01*
X154841167Y-53584167D01*
X154819934Y-53608135D01*
X154814402Y-53613639D01*
X154814044Y-53613952D01*
X154812298Y-53616754D01*
X154685453Y-53759933D01*
X154682748Y-53761629D01*
X154681411Y-53763631D01*
X154676264Y-53770304D01*
X154664640Y-53783426D01*
X154664638Y-53783428D01*
X154664637Y-53783430D01*
X154653372Y-53799750D01*
X154637906Y-53822156D01*
X154633865Y-53827340D01*
X154632922Y-53829376D01*
X154588632Y-53893542D01*
X154524390Y-53986611D01*
X154521095Y-53989280D01*
X154515245Y-53999240D01*
X154515353Y-53999305D01*
X154513415Y-54002510D01*
X154513412Y-54002515D01*
X154513411Y-54002517D01*
X154510006Y-54009005D01*
X154484245Y-54058086D01*
X154482046Y-54061785D01*
X154481640Y-54063050D01*
X154431674Y-54158255D01*
X154393093Y-54231765D01*
X154389867Y-54235098D01*
X154381524Y-54259675D01*
X154380786Y-54261730D01*
X154361562Y-54312419D01*
X154360933Y-54313865D01*
X154360852Y-54314292D01*
X154293968Y-54490651D01*
X154292424Y-54490065D01*
X154291216Y-54491875D01*
X154279299Y-54551785D01*
X154278689Y-54554527D01*
X154272490Y-54579674D01*
X154272490Y-54579679D01*
X154231587Y-54745628D01*
X154231400Y-54747172D01*
X154231233Y-54747558D01*
X154230912Y-54749313D01*
X154230510Y-54749239D01*
X154224963Y-54762123D01*
X154219656Y-54843099D01*
X154219337Y-54846517D01*
X154199500Y-55009890D01*
X154199500Y-55141122D01*
X154199387Y-55144868D01*
X154193504Y-55242102D01*
X154182391Y-55411658D01*
X154181507Y-55418784D01*
X154158885Y-55542231D01*
X154130722Y-55683821D01*
X154129105Y-55690176D01*
X154090420Y-55814316D01*
X154089937Y-55815800D01*
X154045300Y-55947294D01*
X154043127Y-55952813D01*
X153988935Y-56073228D01*
X153988003Y-56075205D01*
X153927470Y-56197951D01*
X153924921Y-56202607D01*
X153856100Y-56316450D01*
X153854593Y-56318820D01*
X153779089Y-56431818D01*
X153776343Y-56435611D01*
X153694003Y-56540710D01*
X153691811Y-56543353D01*
X153602470Y-56645227D01*
X153599696Y-56648189D01*
X153505189Y-56742696D01*
X153502227Y-56745470D01*
X153400353Y-56834811D01*
X153397710Y-56837003D01*
X153292611Y-56919343D01*
X153288818Y-56922089D01*
X153175820Y-56997593D01*
X153173450Y-56999100D01*
X153059607Y-57067921D01*
X153054951Y-57070470D01*
X152932205Y-57131003D01*
X152930228Y-57131935D01*
X152809813Y-57186127D01*
X152804294Y-57188300D01*
X152672800Y-57232937D01*
X152671316Y-57233420D01*
X152547176Y-57272105D01*
X152540821Y-57273722D01*
X152399231Y-57301885D01*
X152275784Y-57324507D01*
X152268658Y-57325391D01*
X152099102Y-57336504D01*
X152003747Y-57342273D01*
X151996251Y-57342273D01*
X151900896Y-57336504D01*
X151731340Y-57325391D01*
X151724214Y-57324507D01*
X151600767Y-57301885D01*
X151493618Y-57280572D01*
X151459172Y-57273720D01*
X151452831Y-57272107D01*
X151374516Y-57247703D01*
X151328682Y-57233420D01*
X151327198Y-57232937D01*
X151195704Y-57188300D01*
X151190185Y-57186127D01*
X151089173Y-57140667D01*
X151069745Y-57131923D01*
X151067818Y-57131015D01*
X151015179Y-57105056D01*
X150945047Y-57070470D01*
X150940391Y-57067921D01*
X150826548Y-56999100D01*
X150824178Y-56997593D01*
X150711180Y-56922089D01*
X150707387Y-56919343D01*
X150602288Y-56837003D01*
X150599645Y-56834811D01*
X150497771Y-56745470D01*
X150494809Y-56742696D01*
X150400302Y-56648189D01*
X150397528Y-56645227D01*
X150308187Y-56543353D01*
X150305995Y-56540710D01*
X150223651Y-56435606D01*
X150220909Y-56431818D01*
X150185685Y-56379103D01*
X150145395Y-56318805D01*
X150143898Y-56316450D01*
X150101056Y-56245581D01*
X150075074Y-56202602D01*
X150072528Y-56197951D01*
X150011960Y-56075132D01*
X150011099Y-56073305D01*
X149956871Y-55952813D01*
X149954698Y-55947294D01*
X149934986Y-55889225D01*
X149910039Y-55815735D01*
X149909601Y-55814388D01*
X149870884Y-55690142D01*
X149869284Y-55683854D01*
X149841113Y-55542231D01*
X149818490Y-55418780D01*
X149817610Y-55411683D01*
X149806485Y-55241958D01*
X149800613Y-55144866D01*
X149800557Y-55143000D01*
X150644341Y-55143000D01*
X150664936Y-55378403D01*
X150664938Y-55378413D01*
X150726094Y-55606655D01*
X150726096Y-55606659D01*
X150726097Y-55606663D01*
X150765040Y-55690176D01*
X150825964Y-55820828D01*
X150825965Y-55820830D01*
X150961505Y-56014402D01*
X151128597Y-56181494D01*
X151322169Y-56317034D01*
X151322171Y-56317035D01*
X151536337Y-56416903D01*
X151764592Y-56478063D01*
X151941032Y-56493499D01*
X151941033Y-56493500D01*
X151941034Y-56493500D01*
X152058967Y-56493500D01*
X152058967Y-56493499D01*
X152235408Y-56478063D01*
X152463663Y-56416903D01*
X152677829Y-56317035D01*
X152871401Y-56181495D01*
X153038495Y-56014401D01*
X153174035Y-55820830D01*
X153273903Y-55606663D01*
X153335063Y-55378408D01*
X153355659Y-55143000D01*
X153335063Y-54907592D01*
X153273903Y-54679337D01*
X153174035Y-54465171D01*
X153174034Y-54465169D01*
X153038494Y-54271597D01*
X152871402Y-54104505D01*
X152677830Y-53968965D01*
X152677828Y-53968964D01*
X152552374Y-53910464D01*
X152463663Y-53869097D01*
X152463659Y-53869096D01*
X152463655Y-53869094D01*
X152235413Y-53807938D01*
X152235403Y-53807936D01*
X152058967Y-53792500D01*
X152058966Y-53792500D01*
X151941034Y-53792500D01*
X151941033Y-53792500D01*
X151764596Y-53807936D01*
X151764586Y-53807938D01*
X151536344Y-53869094D01*
X151536335Y-53869098D01*
X151322171Y-53968964D01*
X151322169Y-53968965D01*
X151128597Y-54104505D01*
X150961506Y-54271597D01*
X150961501Y-54271604D01*
X150825967Y-54465165D01*
X150825965Y-54465169D01*
X150726098Y-54679335D01*
X150726094Y-54679344D01*
X150664938Y-54907586D01*
X150664936Y-54907596D01*
X150644341Y-55142999D01*
X150644341Y-55143000D01*
X149800557Y-55143000D01*
X149800500Y-55141123D01*
X149800500Y-50913174D01*
X149820185Y-50846135D01*
X149872989Y-50800380D01*
X149942147Y-50790436D01*
X150005703Y-50819461D01*
X150035501Y-50857904D01*
X150045634Y-50878256D01*
X150174127Y-51048406D01*
X150174128Y-51048407D01*
X150331698Y-51192052D01*
X150512981Y-51304298D01*
X150711802Y-51381321D01*
X150921390Y-51420500D01*
X150921392Y-51420500D01*
X151134608Y-51420500D01*
X151134610Y-51420500D01*
X151344198Y-51381321D01*
X151543019Y-51304298D01*
X151688224Y-51214390D01*
X151755583Y-51195835D01*
X151822282Y-51216643D01*
X151867144Y-51270208D01*
X151877500Y-51319817D01*
X151877500Y-51423194D01*
X151892244Y-51582310D01*
X151950594Y-51787387D01*
X151950596Y-51787392D01*
X151950596Y-51787394D01*
X152045632Y-51978253D01*
X152165130Y-52136492D01*
X152174128Y-52148407D01*
X152331698Y-52292052D01*
X152512981Y-52404298D01*
X152711802Y-52481321D01*
X152921390Y-52520500D01*
X152921392Y-52520500D01*
X153134608Y-52520500D01*
X153134610Y-52520500D01*
X153344198Y-52481321D01*
X153543019Y-52404298D01*
X153724302Y-52292052D01*
X153881872Y-52148407D01*
X154010366Y-51978255D01*
X154021436Y-51956024D01*
X154105403Y-51787394D01*
X154105403Y-51787391D01*
X154105405Y-51787389D01*
X154105925Y-51785559D01*
X154106412Y-51784787D01*
X154107473Y-51782050D01*
X154108008Y-51782257D01*
X154143208Y-51726468D01*
X154206519Y-51696914D01*
X154225190Y-51695500D01*
X154430810Y-51695500D01*
X154497849Y-51715185D01*
X154543604Y-51767989D01*
X154550074Y-51785559D01*
X154550594Y-51787387D01*
X154550596Y-51787394D01*
X154645632Y-51978253D01*
X154765130Y-52136492D01*
X154774128Y-52148407D01*
X154931698Y-52292052D01*
X155112981Y-52404298D01*
X155311802Y-52481321D01*
X155521390Y-52520500D01*
X155521392Y-52520500D01*
X155734608Y-52520500D01*
X155734610Y-52520500D01*
X155944198Y-52481321D01*
X156143019Y-52404298D01*
X156324302Y-52292052D01*
X156481872Y-52148407D01*
X156610366Y-51978255D01*
X156621436Y-51956024D01*
X156705403Y-51787394D01*
X156705403Y-51787393D01*
X156705405Y-51787389D01*
X156763756Y-51582310D01*
X156778500Y-51423194D01*
X156778500Y-51319817D01*
X156798185Y-51252779D01*
X156850989Y-51207024D01*
X156920147Y-51197080D01*
X156967774Y-51214389D01*
X157112981Y-51304298D01*
X157311802Y-51381321D01*
X157521390Y-51420500D01*
X157521392Y-51420500D01*
X157734608Y-51420500D01*
X157734610Y-51420500D01*
X157944198Y-51381321D01*
X158143019Y-51304298D01*
X158324302Y-51192052D01*
X158481872Y-51048407D01*
X158610366Y-50878255D01*
X158618539Y-50861841D01*
X158705403Y-50687394D01*
X158705403Y-50687393D01*
X158705405Y-50687389D01*
X158763756Y-50482310D01*
X158778500Y-50323194D01*
X158778500Y-49816806D01*
X158763756Y-49657690D01*
X158705405Y-49452611D01*
X158705403Y-49452606D01*
X158705403Y-49452605D01*
X158610367Y-49261746D01*
X158481872Y-49091593D01*
X158450418Y-49062918D01*
X158414138Y-49003206D01*
X158415900Y-48933358D01*
X158446275Y-48883603D01*
X160125060Y-47204819D01*
X160186384Y-47171334D01*
X160212742Y-47168500D01*
X161497840Y-47168500D01*
X161564879Y-47188185D01*
G37*
%TD.AperFunction*%
%TA.AperFunction,Conductor*%
G36*
X156519998Y-44315185D02*
G01*
X156563959Y-44364229D01*
X156645632Y-44528253D01*
X156774127Y-44698406D01*
X156815146Y-44735800D01*
X156851427Y-44795512D01*
X156849666Y-44865359D01*
X156810422Y-44923167D01*
X156808921Y-44924383D01*
X156760680Y-44962853D01*
X156612647Y-45132292D01*
X156612640Y-45132300D01*
X156497240Y-45325446D01*
X156497238Y-45325451D01*
X156418175Y-45536110D01*
X156418175Y-45536111D01*
X156378000Y-45757494D01*
X156378000Y-45820000D01*
X157178000Y-45820000D01*
X157178000Y-46303724D01*
X157180453Y-46320000D01*
X156378000Y-46320000D01*
X156378000Y-46326129D01*
X156393116Y-46494096D01*
X156393117Y-46494102D01*
X156452973Y-46710984D01*
X156452978Y-46710997D01*
X156550598Y-46913708D01*
X156550602Y-46913716D01*
X156682851Y-47095741D01*
X156682857Y-47095749D01*
X156845486Y-47251237D01*
X157033266Y-47375191D01*
X157240169Y-47463624D01*
X157240178Y-47463627D01*
X157377999Y-47495084D01*
X157378000Y-47495083D01*
X157378000Y-46645277D01*
X157461740Y-46693625D01*
X157593992Y-46723810D01*
X157729265Y-46713673D01*
X157855541Y-46664113D01*
X157878000Y-46646202D01*
X157878000Y-47497549D01*
X157891516Y-47495719D01*
X157960591Y-47506228D01*
X158013019Y-47552413D01*
X158032155Y-47619611D01*
X158011923Y-47686487D01*
X157995840Y-47706278D01*
X157250608Y-48451510D01*
X157244507Y-48456861D01*
X157217550Y-48477548D01*
X157193133Y-48509367D01*
X157169963Y-48539564D01*
X157125302Y-48597766D01*
X157125300Y-48597769D01*
X157067313Y-48737763D01*
X157067313Y-48737764D01*
X157056895Y-48816890D01*
X157028627Y-48880786D01*
X156999235Y-48906129D01*
X156931701Y-48947945D01*
X156774127Y-49091593D01*
X156645632Y-49261746D01*
X156550596Y-49452605D01*
X156550596Y-49452607D01*
X156532095Y-49517632D01*
X156492244Y-49657690D01*
X156483754Y-49749320D01*
X156477500Y-49816809D01*
X156477500Y-49920181D01*
X156457815Y-49987220D01*
X156405011Y-50032975D01*
X156335853Y-50042919D01*
X156288223Y-50025608D01*
X156143024Y-49935705D01*
X156143017Y-49935701D01*
X156043608Y-49897190D01*
X155944198Y-49858679D01*
X155734610Y-49819500D01*
X155521390Y-49819500D01*
X155311802Y-49858679D01*
X155311799Y-49858679D01*
X155311799Y-49858680D01*
X155112982Y-49935701D01*
X155112980Y-49935702D01*
X154931699Y-50047947D01*
X154774127Y-50191593D01*
X154645632Y-50361746D01*
X154550596Y-50552605D01*
X154550594Y-50552612D01*
X154550074Y-50554441D01*
X154549587Y-50555212D01*
X154548527Y-50557950D01*
X154547991Y-50557742D01*
X154512792Y-50613532D01*
X154449481Y-50643086D01*
X154430810Y-50644500D01*
X154225190Y-50644500D01*
X154158151Y-50624815D01*
X154112396Y-50572011D01*
X154105926Y-50554441D01*
X154105405Y-50552612D01*
X154105403Y-50552605D01*
X154010367Y-50361746D01*
X153881872Y-50191593D01*
X153775474Y-50094598D01*
X153724302Y-50047948D01*
X153543019Y-49935702D01*
X153543017Y-49935701D01*
X153443608Y-49897190D01*
X153344198Y-49858679D01*
X153134610Y-49819500D01*
X152921390Y-49819500D01*
X152711802Y-49858679D01*
X152711799Y-49858679D01*
X152711799Y-49858680D01*
X152512982Y-49935701D01*
X152512975Y-49935705D01*
X152367777Y-50025608D01*
X152300417Y-50044163D01*
X152233717Y-50023355D01*
X152188856Y-49969790D01*
X152178500Y-49920181D01*
X152178500Y-49816809D01*
X152177221Y-49803006D01*
X152163756Y-49657690D01*
X152105405Y-49452611D01*
X152105403Y-49452606D01*
X152105403Y-49452605D01*
X152010367Y-49261746D01*
X151881872Y-49091593D01*
X151825327Y-49040045D01*
X151724302Y-48947948D01*
X151543019Y-48835702D01*
X151543017Y-48835701D01*
X151443608Y-48797190D01*
X151344198Y-48758679D01*
X151134610Y-48719500D01*
X150921390Y-48719500D01*
X150711802Y-48758679D01*
X150711799Y-48758679D01*
X150711799Y-48758680D01*
X150512982Y-48835701D01*
X150512980Y-48835702D01*
X150331699Y-48947947D01*
X150174127Y-49091593D01*
X150045632Y-49261746D01*
X150035500Y-49282096D01*
X149987997Y-49333334D01*
X149920334Y-49350755D01*
X149853994Y-49328830D01*
X149810039Y-49274518D01*
X149800500Y-49226825D01*
X149800500Y-48428833D01*
X152673624Y-48428833D01*
X152683944Y-48592860D01*
X152734732Y-48749171D01*
X152734734Y-48749175D01*
X152822798Y-48887940D01*
X152942603Y-49000445D01*
X152942611Y-49000451D01*
X153086628Y-49079625D01*
X153086632Y-49079627D01*
X153245823Y-49120500D01*
X153245827Y-49120500D01*
X153368923Y-49120500D01*
X153368925Y-49120500D01*
X153368930Y-49120499D01*
X153368934Y-49120499D01*
X153382174Y-49118826D01*
X153491058Y-49105071D01*
X153643871Y-49044568D01*
X153647598Y-49041860D01*
X153776835Y-48947965D01*
X153776835Y-48947963D01*
X153776837Y-48947963D01*
X153881600Y-48821326D01*
X153951579Y-48672613D01*
X153982376Y-48511170D01*
X153977196Y-48428833D01*
X154673624Y-48428833D01*
X154683944Y-48592860D01*
X154734732Y-48749171D01*
X154734734Y-48749175D01*
X154822798Y-48887940D01*
X154942603Y-49000445D01*
X154942611Y-49000451D01*
X155086628Y-49079625D01*
X155086632Y-49079627D01*
X155245823Y-49120500D01*
X155245827Y-49120500D01*
X155368923Y-49120500D01*
X155368925Y-49120500D01*
X155368930Y-49120499D01*
X155368934Y-49120499D01*
X155382174Y-49118826D01*
X155491058Y-49105071D01*
X155643871Y-49044568D01*
X155647598Y-49041860D01*
X155776835Y-48947965D01*
X155776835Y-48947963D01*
X155776837Y-48947963D01*
X155881600Y-48821326D01*
X155951579Y-48672613D01*
X155982376Y-48511170D01*
X155972056Y-48347140D01*
X155921268Y-48190829D01*
X155833202Y-48052060D01*
X155763519Y-47986623D01*
X155713396Y-47939554D01*
X155713388Y-47939548D01*
X155569371Y-47860374D01*
X155569361Y-47860371D01*
X155410180Y-47819500D01*
X155410177Y-47819500D01*
X155287075Y-47819500D01*
X155287065Y-47819500D01*
X155164942Y-47834929D01*
X155164939Y-47834929D01*
X155012130Y-47895431D01*
X155012121Y-47895436D01*
X154879164Y-47992034D01*
X154879162Y-47992037D01*
X154774400Y-48118673D01*
X154704420Y-48267387D01*
X154693216Y-48326123D01*
X154673624Y-48428830D01*
X154673624Y-48428832D01*
X154673624Y-48428833D01*
X153977196Y-48428833D01*
X153972056Y-48347140D01*
X153921268Y-48190829D01*
X153833202Y-48052060D01*
X153763519Y-47986623D01*
X153713396Y-47939554D01*
X153713388Y-47939548D01*
X153569371Y-47860374D01*
X153569361Y-47860371D01*
X153410180Y-47819500D01*
X153410177Y-47819500D01*
X153287075Y-47819500D01*
X153287065Y-47819500D01*
X153164942Y-47834929D01*
X153164939Y-47834929D01*
X153012130Y-47895431D01*
X153012121Y-47895436D01*
X152879164Y-47992034D01*
X152879162Y-47992037D01*
X152774400Y-48118673D01*
X152704420Y-48267387D01*
X152693216Y-48326123D01*
X152673624Y-48428830D01*
X152673624Y-48428832D01*
X152673624Y-48428833D01*
X149800500Y-48428833D01*
X149800500Y-47088750D01*
X149820185Y-47021711D01*
X149872989Y-46975956D01*
X149942147Y-46966012D01*
X150005703Y-46995037D01*
X150024818Y-47015865D01*
X150082851Y-47095741D01*
X150082857Y-47095749D01*
X150245486Y-47251237D01*
X150433266Y-47375191D01*
X150640169Y-47463624D01*
X150640178Y-47463627D01*
X150777999Y-47495084D01*
X150778000Y-47495084D01*
X150778000Y-46645277D01*
X150861740Y-46693625D01*
X150993992Y-46723810D01*
X151129265Y-46713673D01*
X151255541Y-46664113D01*
X151278000Y-46646202D01*
X151278000Y-47497549D01*
X151307267Y-47493586D01*
X151307273Y-47493585D01*
X151521268Y-47424054D01*
X151719401Y-47317434D01*
X151719404Y-47317432D01*
X151895320Y-47177145D01*
X152043352Y-47007707D01*
X152043359Y-47007699D01*
X152158759Y-46814553D01*
X152158761Y-46814548D01*
X152237824Y-46603889D01*
X152237824Y-46603888D01*
X152278000Y-46382505D01*
X152278000Y-46320000D01*
X151478000Y-46320000D01*
X151478000Y-45836276D01*
X151475547Y-45820000D01*
X152278000Y-45820000D01*
X152278000Y-45813874D01*
X152277999Y-45813870D01*
X152262883Y-45645903D01*
X152262882Y-45645897D01*
X152203026Y-45429015D01*
X152203021Y-45429002D01*
X152105401Y-45226291D01*
X152105397Y-45226283D01*
X151973148Y-45044258D01*
X151973142Y-45044250D01*
X151839424Y-44916403D01*
X151804572Y-44855847D01*
X151807991Y-44786061D01*
X151841578Y-44735140D01*
X151881872Y-44698407D01*
X152010366Y-44528255D01*
X152010367Y-44528253D01*
X152092041Y-44364229D01*
X152139543Y-44312992D01*
X152203041Y-44295500D01*
X156452959Y-44295500D01*
X156519998Y-44315185D01*
G37*
%TD.AperFunction*%
%TA.AperFunction,Conductor*%
G36*
X161757867Y-39720613D02*
G01*
X161764349Y-39721005D01*
X161854958Y-39726485D01*
X162024683Y-39737610D01*
X162031780Y-39738490D01*
X162155257Y-39761118D01*
X162296854Y-39789284D01*
X162303142Y-39790884D01*
X162427388Y-39829601D01*
X162428735Y-39830039D01*
X162560294Y-39874698D01*
X162565813Y-39876871D01*
X162576008Y-39881459D01*
X162686305Y-39931099D01*
X162688132Y-39931960D01*
X162810955Y-39992530D01*
X162815602Y-39995074D01*
X162929450Y-40063898D01*
X162931805Y-40065395D01*
X162941359Y-40071779D01*
X163044818Y-40140909D01*
X163048606Y-40143651D01*
X163153710Y-40225995D01*
X163156353Y-40228187D01*
X163258227Y-40317528D01*
X163261189Y-40320302D01*
X163355696Y-40414809D01*
X163358470Y-40417771D01*
X163447811Y-40519645D01*
X163450003Y-40522288D01*
X163532343Y-40627387D01*
X163535089Y-40631180D01*
X163610593Y-40744178D01*
X163612100Y-40746548D01*
X163680921Y-40860391D01*
X163683470Y-40865047D01*
X163698454Y-40895431D01*
X163744015Y-40987818D01*
X163744923Y-40989745D01*
X163745955Y-40992037D01*
X163799127Y-41110185D01*
X163801300Y-41115704D01*
X163845937Y-41247198D01*
X163846420Y-41248682D01*
X163885107Y-41372831D01*
X163886722Y-41379177D01*
X163914885Y-41520767D01*
X163937507Y-41644214D01*
X163938391Y-41651340D01*
X163949504Y-41820896D01*
X163955387Y-41918131D01*
X163955500Y-41921877D01*
X163955500Y-45832575D01*
X163935815Y-45899614D01*
X163883011Y-45945369D01*
X163813853Y-45955313D01*
X163750297Y-45926288D01*
X163729925Y-45903698D01*
X163647599Y-45786124D01*
X163589053Y-45727578D01*
X163492877Y-45631402D01*
X163354978Y-45534844D01*
X163313638Y-45505897D01*
X163214484Y-45459661D01*
X163115330Y-45413425D01*
X163115326Y-45413424D01*
X163115322Y-45413422D01*
X162903977Y-45356793D01*
X162686002Y-45337723D01*
X162685998Y-45337723D01*
X162540682Y-45350436D01*
X162468023Y-45356793D01*
X162468020Y-45356793D01*
X162256677Y-45413422D01*
X162256670Y-45413424D01*
X162256670Y-45413425D01*
X162248002Y-45417467D01*
X162058361Y-45505898D01*
X162058357Y-45505900D01*
X161879121Y-45631402D01*
X161724403Y-45786120D01*
X161660797Y-45876961D01*
X161599414Y-45964623D01*
X161544840Y-46008248D01*
X161497841Y-46017500D01*
X159964781Y-46017500D01*
X159956682Y-46016969D01*
X159936265Y-46014281D01*
X159923001Y-46012535D01*
X159922999Y-46012535D01*
X159887654Y-46017188D01*
X159887625Y-46017191D01*
X159758957Y-46034129D01*
X159746050Y-46043378D01*
X159632767Y-46090301D01*
X159544366Y-46158132D01*
X159544367Y-46158133D01*
X159512548Y-46182550D01*
X159491861Y-46209507D01*
X159486510Y-46215608D01*
X159060616Y-46641502D01*
X158999293Y-46674987D01*
X158929601Y-46670003D01*
X158873668Y-46628131D01*
X158849251Y-46562667D01*
X158850928Y-46531679D01*
X158878000Y-46382504D01*
X158878000Y-46320000D01*
X158078000Y-46320000D01*
X158078000Y-45836276D01*
X158075547Y-45820000D01*
X158878000Y-45820000D01*
X158878000Y-45813874D01*
X158877999Y-45813870D01*
X158862883Y-45645903D01*
X158862882Y-45645897D01*
X158803026Y-45429015D01*
X158803021Y-45429002D01*
X158705401Y-45226291D01*
X158705397Y-45226283D01*
X158573148Y-45044258D01*
X158573142Y-45044250D01*
X158439424Y-44916403D01*
X158404572Y-44855847D01*
X158407991Y-44786061D01*
X158441578Y-44735140D01*
X158481872Y-44698407D01*
X158610366Y-44528255D01*
X158610367Y-44528253D01*
X158705403Y-44337394D01*
X158705403Y-44337393D01*
X158705405Y-44337389D01*
X158763756Y-44132310D01*
X158778500Y-43973194D01*
X158778500Y-43566806D01*
X158763756Y-43407690D01*
X158705405Y-43202611D01*
X158705403Y-43202606D01*
X158705403Y-43202605D01*
X158610367Y-43011746D01*
X158481872Y-42841593D01*
X158426814Y-42791401D01*
X158324302Y-42697948D01*
X158143019Y-42585702D01*
X158143017Y-42585701D01*
X157997840Y-42529460D01*
X157944198Y-42508679D01*
X157734610Y-42469500D01*
X157521390Y-42469500D01*
X157311802Y-42508679D01*
X157311799Y-42508679D01*
X157311799Y-42508680D01*
X157112982Y-42585701D01*
X157112980Y-42585702D01*
X156931699Y-42697947D01*
X156774127Y-42841593D01*
X156645632Y-43011746D01*
X156563959Y-43175771D01*
X156516457Y-43227008D01*
X156452959Y-43244500D01*
X152203041Y-43244500D01*
X152136002Y-43224815D01*
X152092041Y-43175771D01*
X152010367Y-43011746D01*
X151881872Y-42841593D01*
X151826814Y-42791401D01*
X151724302Y-42697948D01*
X151543019Y-42585702D01*
X151543017Y-42585701D01*
X151397840Y-42529460D01*
X151344198Y-42508679D01*
X151134610Y-42469500D01*
X150921390Y-42469500D01*
X150711802Y-42508679D01*
X150711799Y-42508679D01*
X150711799Y-42508680D01*
X150512982Y-42585701D01*
X150512980Y-42585702D01*
X150331699Y-42697947D01*
X150174127Y-42841593D01*
X150045632Y-43011746D01*
X150035500Y-43032096D01*
X149987997Y-43083334D01*
X149920334Y-43100755D01*
X149853994Y-43078830D01*
X149810039Y-43024518D01*
X149800500Y-42976825D01*
X149800500Y-41428833D01*
X152673624Y-41428833D01*
X152683944Y-41592860D01*
X152734732Y-41749171D01*
X152734734Y-41749175D01*
X152822798Y-41887940D01*
X152942603Y-42000445D01*
X152942611Y-42000451D01*
X153082039Y-42077102D01*
X153086632Y-42079627D01*
X153245823Y-42120500D01*
X153245827Y-42120500D01*
X153368923Y-42120500D01*
X153368925Y-42120500D01*
X153368930Y-42120499D01*
X153368934Y-42120499D01*
X153382174Y-42118826D01*
X153491058Y-42105071D01*
X153643871Y-42044568D01*
X153687258Y-42013046D01*
X153776835Y-41947965D01*
X153776835Y-41947963D01*
X153776837Y-41947963D01*
X153881600Y-41821326D01*
X153951579Y-41672613D01*
X153982376Y-41511170D01*
X153977196Y-41428833D01*
X154673624Y-41428833D01*
X154683944Y-41592860D01*
X154734732Y-41749171D01*
X154734734Y-41749175D01*
X154822798Y-41887940D01*
X154942603Y-42000445D01*
X154942611Y-42000451D01*
X155082039Y-42077102D01*
X155086632Y-42079627D01*
X155245823Y-42120500D01*
X155245827Y-42120500D01*
X155368923Y-42120500D01*
X155368925Y-42120500D01*
X155368930Y-42120499D01*
X155368934Y-42120499D01*
X155382174Y-42118826D01*
X155491058Y-42105071D01*
X155643871Y-42044568D01*
X155687258Y-42013046D01*
X155776835Y-41947965D01*
X155776835Y-41947963D01*
X155776837Y-41947963D01*
X155799970Y-41920000D01*
X160400341Y-41920000D01*
X160420936Y-42155403D01*
X160420938Y-42155413D01*
X160482094Y-42383655D01*
X160482096Y-42383659D01*
X160482097Y-42383663D01*
X160492769Y-42406549D01*
X160581964Y-42597828D01*
X160581965Y-42597830D01*
X160717505Y-42791402D01*
X160884597Y-42958494D01*
X161078169Y-43094034D01*
X161078171Y-43094035D01*
X161292337Y-43193903D01*
X161520592Y-43255063D01*
X161697032Y-43270499D01*
X161697033Y-43270500D01*
X161697034Y-43270500D01*
X161814967Y-43270500D01*
X161814967Y-43270499D01*
X161991408Y-43255063D01*
X162219663Y-43193903D01*
X162433829Y-43094035D01*
X162627401Y-42958495D01*
X162794495Y-42791401D01*
X162930035Y-42597830D01*
X163029903Y-42383663D01*
X163091063Y-42155408D01*
X163111659Y-41920000D01*
X163111495Y-41918131D01*
X163094367Y-41722360D01*
X163091063Y-41684592D01*
X163029903Y-41456337D01*
X162930035Y-41242171D01*
X162930034Y-41242169D01*
X162794494Y-41048597D01*
X162627402Y-40881505D01*
X162433830Y-40745965D01*
X162433828Y-40745964D01*
X162326746Y-40696030D01*
X162219663Y-40646097D01*
X162219659Y-40646096D01*
X162219655Y-40646094D01*
X161991413Y-40584938D01*
X161991403Y-40584936D01*
X161814967Y-40569500D01*
X161814966Y-40569500D01*
X161697034Y-40569500D01*
X161697033Y-40569500D01*
X161520596Y-40584936D01*
X161520586Y-40584938D01*
X161292344Y-40646094D01*
X161292335Y-40646098D01*
X161078171Y-40745964D01*
X161078169Y-40745965D01*
X160884597Y-40881505D01*
X160717506Y-41048597D01*
X160717501Y-41048604D01*
X160581967Y-41242165D01*
X160581965Y-41242169D01*
X160482098Y-41456335D01*
X160482094Y-41456344D01*
X160420938Y-41684586D01*
X160420936Y-41684596D01*
X160400341Y-41919999D01*
X160400341Y-41920000D01*
X155799970Y-41920000D01*
X155881600Y-41821326D01*
X155951579Y-41672613D01*
X155982376Y-41511170D01*
X155972056Y-41347140D01*
X155921268Y-41190829D01*
X155833202Y-41052060D01*
X155826020Y-41045316D01*
X155713396Y-40939554D01*
X155713388Y-40939548D01*
X155569371Y-40860374D01*
X155569361Y-40860371D01*
X155410180Y-40819500D01*
X155410177Y-40819500D01*
X155287075Y-40819500D01*
X155287065Y-40819500D01*
X155164942Y-40834929D01*
X155164939Y-40834929D01*
X155012130Y-40895431D01*
X155012121Y-40895436D01*
X154879164Y-40992034D01*
X154879162Y-40992037D01*
X154774400Y-41118673D01*
X154704420Y-41267387D01*
X154689207Y-41347139D01*
X154673624Y-41428830D01*
X154673624Y-41428832D01*
X154673624Y-41428833D01*
X153977196Y-41428833D01*
X153972056Y-41347140D01*
X153921268Y-41190829D01*
X153833202Y-41052060D01*
X153826020Y-41045316D01*
X153713396Y-40939554D01*
X153713388Y-40939548D01*
X153569371Y-40860374D01*
X153569361Y-40860371D01*
X153410180Y-40819500D01*
X153410177Y-40819500D01*
X153287075Y-40819500D01*
X153287065Y-40819500D01*
X153164942Y-40834929D01*
X153164939Y-40834929D01*
X153012130Y-40895431D01*
X153012121Y-40895436D01*
X152879164Y-40992034D01*
X152879162Y-40992037D01*
X152774400Y-41118673D01*
X152704420Y-41267387D01*
X152689207Y-41347139D01*
X152673624Y-41428830D01*
X152673624Y-41428832D01*
X152673624Y-41428833D01*
X149800500Y-41428833D01*
X149800500Y-39953241D01*
X149820185Y-39886202D01*
X149872989Y-39840447D01*
X149942147Y-39830503D01*
X149976009Y-39840446D01*
X150064658Y-39880931D01*
X150165989Y-39895500D01*
X150165992Y-39895500D01*
X150234008Y-39895500D01*
X150234011Y-39895500D01*
X150335342Y-39880931D01*
X150459718Y-39824130D01*
X150518800Y-39772935D01*
X150582352Y-39743912D01*
X150651511Y-39753855D01*
X150681197Y-39772933D01*
X150740282Y-39824130D01*
X150740283Y-39824130D01*
X150740285Y-39824132D01*
X150814199Y-39857887D01*
X150864658Y-39880931D01*
X150965989Y-39895500D01*
X150965992Y-39895500D01*
X151034008Y-39895500D01*
X151034011Y-39895500D01*
X151135342Y-39880931D01*
X151259718Y-39824130D01*
X151318800Y-39772935D01*
X151382352Y-39743912D01*
X151451511Y-39753855D01*
X151481197Y-39772933D01*
X151540282Y-39824130D01*
X151540283Y-39824130D01*
X151540285Y-39824132D01*
X151614199Y-39857887D01*
X151664658Y-39880931D01*
X151765989Y-39895500D01*
X151765992Y-39895500D01*
X151834008Y-39895500D01*
X151834011Y-39895500D01*
X151935342Y-39880931D01*
X152059718Y-39824130D01*
X152118800Y-39772935D01*
X152182352Y-39743912D01*
X152251511Y-39753855D01*
X152281197Y-39772933D01*
X152340282Y-39824130D01*
X152340283Y-39824130D01*
X152340285Y-39824132D01*
X152414199Y-39857887D01*
X152464658Y-39880931D01*
X152565989Y-39895500D01*
X152565992Y-39895500D01*
X152634008Y-39895500D01*
X152634011Y-39895500D01*
X152735342Y-39880931D01*
X152859718Y-39824130D01*
X152918800Y-39772935D01*
X152982352Y-39743912D01*
X153051511Y-39753855D01*
X153081197Y-39772933D01*
X153140282Y-39824130D01*
X153140283Y-39824130D01*
X153140285Y-39824132D01*
X153214199Y-39857887D01*
X153264658Y-39880931D01*
X153365989Y-39895500D01*
X153365992Y-39895500D01*
X153434008Y-39895500D01*
X153434011Y-39895500D01*
X153535342Y-39880931D01*
X153659718Y-39824130D01*
X153718800Y-39772935D01*
X153782352Y-39743912D01*
X153851511Y-39753855D01*
X153881197Y-39772933D01*
X153940282Y-39824130D01*
X153940283Y-39824130D01*
X153940285Y-39824132D01*
X154014199Y-39857887D01*
X154064658Y-39880931D01*
X154165989Y-39895500D01*
X154165992Y-39895500D01*
X154234008Y-39895500D01*
X154234011Y-39895500D01*
X154335342Y-39880931D01*
X154459718Y-39824130D01*
X154518800Y-39772935D01*
X154582352Y-39743912D01*
X154651511Y-39753855D01*
X154681197Y-39772933D01*
X154740282Y-39824130D01*
X154740283Y-39824130D01*
X154740285Y-39824132D01*
X154814199Y-39857887D01*
X154864658Y-39880931D01*
X154965989Y-39895500D01*
X154965992Y-39895500D01*
X155034008Y-39895500D01*
X155034011Y-39895500D01*
X155135342Y-39880931D01*
X155259718Y-39824130D01*
X155318800Y-39772935D01*
X155382352Y-39743912D01*
X155451511Y-39753855D01*
X155481197Y-39772933D01*
X155540282Y-39824130D01*
X155540283Y-39824130D01*
X155540285Y-39824132D01*
X155614199Y-39857887D01*
X155664658Y-39880931D01*
X155765989Y-39895500D01*
X155765992Y-39895500D01*
X155834008Y-39895500D01*
X155834011Y-39895500D01*
X155935342Y-39880931D01*
X156059718Y-39824130D01*
X156118800Y-39772935D01*
X156182352Y-39743912D01*
X156251511Y-39753855D01*
X156281197Y-39772933D01*
X156340282Y-39824130D01*
X156340283Y-39824130D01*
X156340285Y-39824132D01*
X156414199Y-39857887D01*
X156464658Y-39880931D01*
X156565989Y-39895500D01*
X156565992Y-39895500D01*
X156634008Y-39895500D01*
X156634011Y-39895500D01*
X156735342Y-39880931D01*
X156859718Y-39824130D01*
X156859720Y-39824128D01*
X156859722Y-39824127D01*
X156944362Y-39750787D01*
X157007918Y-39721762D01*
X157025564Y-39720500D01*
X161754124Y-39720500D01*
X161757867Y-39720613D01*
G37*
%TD.AperFunction*%
%TD*%
M02*
