%TF.GenerationSoftware,KiCad,Pcbnew,7.0.5*%
%TF.CreationDate,2024-01-16T16:22:41+08:00*%
%TF.ProjectId,ZeroMini,5a65726f-4d69-46e6-992e-6b696361645f,rev?*%
%TF.SameCoordinates,Original*%
%TF.FileFunction,Legend,Bot*%
%TF.FilePolarity,Positive*%
%FSLAX46Y46*%
G04 Gerber Fmt 4.6, Leading zero omitted, Abs format (unit mm)*
G04 Created by KiCad (PCBNEW 7.0.5) date 2024-01-16 16:22:41*
%MOMM*%
%LPD*%
G01*
G04 APERTURE LIST*
%ADD10C,0.150000*%
%ADD11C,0.120000*%
%ADD12C,0.100000*%
G04 APERTURE END LIST*
D10*
%TO.C,J12*%
X176702104Y-43037619D02*
X176740200Y-42999523D01*
X176740200Y-42999523D02*
X176778295Y-42885238D01*
X176778295Y-42885238D02*
X176778295Y-42809047D01*
X176778295Y-42809047D02*
X176740200Y-42694761D01*
X176740200Y-42694761D02*
X176664009Y-42618571D01*
X176664009Y-42618571D02*
X176587819Y-42580476D01*
X176587819Y-42580476D02*
X176435438Y-42542380D01*
X176435438Y-42542380D02*
X176321152Y-42542380D01*
X176321152Y-42542380D02*
X176168771Y-42580476D01*
X176168771Y-42580476D02*
X176092580Y-42618571D01*
X176092580Y-42618571D02*
X176016390Y-42694761D01*
X176016390Y-42694761D02*
X175978295Y-42809047D01*
X175978295Y-42809047D02*
X175978295Y-42885238D01*
X175978295Y-42885238D02*
X176016390Y-42999523D01*
X176016390Y-42999523D02*
X176054485Y-43037619D01*
X179318295Y-43037619D02*
X178937342Y-42770952D01*
X179318295Y-42580476D02*
X178518295Y-42580476D01*
X178518295Y-42580476D02*
X178518295Y-42885238D01*
X178518295Y-42885238D02*
X178556390Y-42961428D01*
X178556390Y-42961428D02*
X178594485Y-42999523D01*
X178594485Y-42999523D02*
X178670676Y-43037619D01*
X178670676Y-43037619D02*
X178784961Y-43037619D01*
X178784961Y-43037619D02*
X178861152Y-42999523D01*
X178861152Y-42999523D02*
X178899247Y-42961428D01*
X178899247Y-42961428D02*
X178937342Y-42885238D01*
X178937342Y-42885238D02*
X178937342Y-42580476D01*
X181782104Y-43037619D02*
X181820200Y-42999523D01*
X181820200Y-42999523D02*
X181858295Y-42885238D01*
X181858295Y-42885238D02*
X181858295Y-42809047D01*
X181858295Y-42809047D02*
X181820200Y-42694761D01*
X181820200Y-42694761D02*
X181744009Y-42618571D01*
X181744009Y-42618571D02*
X181667819Y-42580476D01*
X181667819Y-42580476D02*
X181515438Y-42542380D01*
X181515438Y-42542380D02*
X181401152Y-42542380D01*
X181401152Y-42542380D02*
X181248771Y-42580476D01*
X181248771Y-42580476D02*
X181172580Y-42618571D01*
X181172580Y-42618571D02*
X181096390Y-42694761D01*
X181096390Y-42694761D02*
X181058295Y-42809047D01*
X181058295Y-42809047D02*
X181058295Y-42885238D01*
X181058295Y-42885238D02*
X181096390Y-42999523D01*
X181096390Y-42999523D02*
X181134485Y-43037619D01*
%TO.C,J1*%
X153307704Y-68162523D02*
X153307704Y-67705380D01*
X152507704Y-67933952D02*
X153307704Y-67933952D01*
X152507704Y-66981570D02*
X152888657Y-67248237D01*
X152507704Y-67438713D02*
X153307704Y-67438713D01*
X153307704Y-67438713D02*
X153307704Y-67133951D01*
X153307704Y-67133951D02*
X153269609Y-67057761D01*
X153269609Y-67057761D02*
X153231514Y-67019666D01*
X153231514Y-67019666D02*
X153155323Y-66981570D01*
X153155323Y-66981570D02*
X153041038Y-66981570D01*
X153041038Y-66981570D02*
X152964847Y-67019666D01*
X152964847Y-67019666D02*
X152926752Y-67057761D01*
X152926752Y-67057761D02*
X152888657Y-67133951D01*
X152888657Y-67133951D02*
X152888657Y-67438713D01*
X152507704Y-66181570D02*
X152888657Y-66448237D01*
X152507704Y-66638713D02*
X153307704Y-66638713D01*
X153307704Y-66638713D02*
X153307704Y-66333951D01*
X153307704Y-66333951D02*
X153269609Y-66257761D01*
X153269609Y-66257761D02*
X153231514Y-66219666D01*
X153231514Y-66219666D02*
X153155323Y-66181570D01*
X153155323Y-66181570D02*
X153041038Y-66181570D01*
X153041038Y-66181570D02*
X152964847Y-66219666D01*
X152964847Y-66219666D02*
X152926752Y-66257761D01*
X152926752Y-66257761D02*
X152888657Y-66333951D01*
X152888657Y-66333951D02*
X152888657Y-66638713D01*
X152545800Y-65876809D02*
X152507704Y-65762523D01*
X152507704Y-65762523D02*
X152507704Y-65572047D01*
X152507704Y-65572047D02*
X152545800Y-65495856D01*
X152545800Y-65495856D02*
X152583895Y-65457761D01*
X152583895Y-65457761D02*
X152660085Y-65419666D01*
X152660085Y-65419666D02*
X152736276Y-65419666D01*
X152736276Y-65419666D02*
X152812466Y-65457761D01*
X152812466Y-65457761D02*
X152850561Y-65495856D01*
X152850561Y-65495856D02*
X152888657Y-65572047D01*
X152888657Y-65572047D02*
X152926752Y-65724428D01*
X152926752Y-65724428D02*
X152964847Y-65800618D01*
X152964847Y-65800618D02*
X153002942Y-65838713D01*
X153002942Y-65838713D02*
X153079133Y-65876809D01*
X153079133Y-65876809D02*
X153155323Y-65876809D01*
X153155323Y-65876809D02*
X153231514Y-65838713D01*
X153231514Y-65838713D02*
X153269609Y-65800618D01*
X153269609Y-65800618D02*
X153307704Y-65724428D01*
X153307704Y-65724428D02*
X153307704Y-65533951D01*
X153307704Y-65533951D02*
X153269609Y-65419666D01*
%TO.C,J10*%
X184388295Y-57031619D02*
X184007342Y-56764952D01*
X184388295Y-56574476D02*
X183588295Y-56574476D01*
X183588295Y-56574476D02*
X183588295Y-56879238D01*
X183588295Y-56879238D02*
X183626390Y-56955428D01*
X183626390Y-56955428D02*
X183664485Y-56993523D01*
X183664485Y-56993523D02*
X183740676Y-57031619D01*
X183740676Y-57031619D02*
X183854961Y-57031619D01*
X183854961Y-57031619D02*
X183931152Y-56993523D01*
X183931152Y-56993523D02*
X183969247Y-56955428D01*
X183969247Y-56955428D02*
X184007342Y-56879238D01*
X184007342Y-56879238D02*
X184007342Y-56574476D01*
%TO.C,J1*%
X160448295Y-47723476D02*
X160448295Y-48180619D01*
X161248295Y-47952047D02*
X160448295Y-47952047D01*
X161248295Y-48904429D02*
X160867342Y-48637762D01*
X161248295Y-48447286D02*
X160448295Y-48447286D01*
X160448295Y-48447286D02*
X160448295Y-48752048D01*
X160448295Y-48752048D02*
X160486390Y-48828238D01*
X160486390Y-48828238D02*
X160524485Y-48866333D01*
X160524485Y-48866333D02*
X160600676Y-48904429D01*
X160600676Y-48904429D02*
X160714961Y-48904429D01*
X160714961Y-48904429D02*
X160791152Y-48866333D01*
X160791152Y-48866333D02*
X160829247Y-48828238D01*
X160829247Y-48828238D02*
X160867342Y-48752048D01*
X160867342Y-48752048D02*
X160867342Y-48447286D01*
X161248295Y-49704429D02*
X160867342Y-49437762D01*
X161248295Y-49247286D02*
X160448295Y-49247286D01*
X160448295Y-49247286D02*
X160448295Y-49552048D01*
X160448295Y-49552048D02*
X160486390Y-49628238D01*
X160486390Y-49628238D02*
X160524485Y-49666333D01*
X160524485Y-49666333D02*
X160600676Y-49704429D01*
X160600676Y-49704429D02*
X160714961Y-49704429D01*
X160714961Y-49704429D02*
X160791152Y-49666333D01*
X160791152Y-49666333D02*
X160829247Y-49628238D01*
X160829247Y-49628238D02*
X160867342Y-49552048D01*
X160867342Y-49552048D02*
X160867342Y-49247286D01*
X161210200Y-50009190D02*
X161248295Y-50123476D01*
X161248295Y-50123476D02*
X161248295Y-50313952D01*
X161248295Y-50313952D02*
X161210200Y-50390143D01*
X161210200Y-50390143D02*
X161172104Y-50428238D01*
X161172104Y-50428238D02*
X161095914Y-50466333D01*
X161095914Y-50466333D02*
X161019723Y-50466333D01*
X161019723Y-50466333D02*
X160943533Y-50428238D01*
X160943533Y-50428238D02*
X160905438Y-50390143D01*
X160905438Y-50390143D02*
X160867342Y-50313952D01*
X160867342Y-50313952D02*
X160829247Y-50161571D01*
X160829247Y-50161571D02*
X160791152Y-50085381D01*
X160791152Y-50085381D02*
X160753057Y-50047286D01*
X160753057Y-50047286D02*
X160676866Y-50009190D01*
X160676866Y-50009190D02*
X160600676Y-50009190D01*
X160600676Y-50009190D02*
X160524485Y-50047286D01*
X160524485Y-50047286D02*
X160486390Y-50085381D01*
X160486390Y-50085381D02*
X160448295Y-50161571D01*
X160448295Y-50161571D02*
X160448295Y-50352048D01*
X160448295Y-50352048D02*
X160486390Y-50466333D01*
%TO.C,J11*%
X174978295Y-61389714D02*
X174597342Y-61123047D01*
X174978295Y-60932571D02*
X174178295Y-60932571D01*
X174178295Y-60932571D02*
X174178295Y-61237333D01*
X174178295Y-61237333D02*
X174216390Y-61313523D01*
X174216390Y-61313523D02*
X174254485Y-61351618D01*
X174254485Y-61351618D02*
X174330676Y-61389714D01*
X174330676Y-61389714D02*
X174444961Y-61389714D01*
X174444961Y-61389714D02*
X174521152Y-61351618D01*
X174521152Y-61351618D02*
X174559247Y-61313523D01*
X174559247Y-61313523D02*
X174597342Y-61237333D01*
X174597342Y-61237333D02*
X174597342Y-60932571D01*
X174559247Y-61732571D02*
X174559247Y-61999237D01*
X174978295Y-62113523D02*
X174978295Y-61732571D01*
X174978295Y-61732571D02*
X174178295Y-61732571D01*
X174178295Y-61732571D02*
X174178295Y-62113523D01*
%TO.C,T1*%
X163806200Y-76016000D02*
X163806200Y-63443000D01*
X163806200Y-63443000D02*
X157049800Y-63443000D01*
X157049800Y-76016000D02*
X163806200Y-76016000D01*
X157049800Y-76016000D02*
X157049800Y-63443000D01*
X149949800Y-39870000D02*
X149949800Y-52443000D01*
X149949800Y-52443000D02*
X156706200Y-52443000D01*
X156706200Y-39870000D02*
X149949800Y-39870000D01*
X156706200Y-39870000D02*
X156706200Y-52443000D01*
D11*
%TO.C,J1*%
X152570000Y-69643000D02*
X152220000Y-69293000D01*
X152570000Y-68943000D02*
X152570000Y-69643000D01*
X152570000Y-68943000D02*
X152220000Y-69293000D01*
X161186000Y-46243000D02*
X161536000Y-46593000D01*
X161186000Y-46943000D02*
X161186000Y-46243000D01*
X161186000Y-46943000D02*
X161536000Y-46593000D01*
%TO.C,D1*%
X180446000Y-58584000D02*
X179986000Y-58584000D01*
D12*
X178411600Y-58584000D02*
X178011600Y-58584000D01*
X178011600Y-58584000D02*
X178011600Y-59134000D01*
X178011600Y-58584000D02*
X178011600Y-58034000D01*
X178011600Y-58584000D02*
X177411600Y-58184000D01*
X177411600Y-58984000D02*
X178011600Y-58584000D01*
X177411600Y-58584000D02*
X176911600Y-58584000D01*
X177411600Y-58184000D02*
X177411600Y-58984000D01*
D11*
X174906000Y-58584000D02*
X175386000Y-58584000D01*
%TO.C,J11*%
X176766000Y-60004000D02*
X176416000Y-60354000D01*
X176066000Y-60004000D02*
X176766000Y-60004000D01*
X176066000Y-60004000D02*
X176416000Y-60354000D01*
%TO.C,JP1*%
X175856000Y-52834000D02*
X173856000Y-52834000D01*
X173856000Y-52834000D02*
X173856000Y-55634000D01*
X175856000Y-55634000D02*
X175856000Y-52834000D01*
X173856000Y-55634000D02*
X175856000Y-55634000D01*
%TD*%
M02*
