M48
; DRILL file {KiCad 7.0.5} date Tue Jan 16 16:22:40 2024
; FORMAT={-:-/ absolute / metric / decimal}
; #@! TF.CreationDate,2024-01-16T16:22:40+08:00
; #@! TF.GenerationSoftware,Kicad,Pcbnew,7.0.5
; #@! TF.FileFunction,Plated,1,2,PTH
FMAT,2
METRIC
; #@! TA.AperFunction,Plated,PTH,ViaDrill
T1C0.400
; #@! TA.AperFunction,Plated,PTH,ComponentDrill
T2C0.800
; #@! TA.AperFunction,Plated,PTH,ComponentDrill
T3C0.900
; #@! TA.AperFunction,Plated,PTH,ComponentDrill
T4C1.000
%
G90
G05
T1
X177.806Y-53.979
X181.176Y-50.229
X183.286Y-47.734
T2
X173.886Y-58.584
X181.486Y-58.584
T4
X151.07Y-64.213
X151.07Y-66.753
X151.07Y-69.293
X162.686Y-46.593
X162.686Y-49.133
X162.686Y-51.673
X171.956Y-47.734
X171.956Y-52.734
X176.416Y-40.99
X176.416Y-61.504
X178.956Y-40.99
X178.956Y-61.504
X181.496Y-40.99
X181.496Y-61.504
X184.026Y-58.584
X186.456Y-47.734
X186.456Y-50.234
X186.456Y-52.734
T3
X151.028Y-43.57G85X151.028Y-43.97
G05
X151.028Y-45.87G85X151.028Y-46.27
G05
X151.028Y-49.87G85X151.028Y-50.27
G05
X153.028Y-50.97G85X153.028Y-51.37
G05
X155.628Y-50.97G85X155.628Y-51.37
G05
X156.128Y-66.016G85X156.128Y-65.616
G05
X156.128Y-70.016G85X156.128Y-69.616
G05
X156.128Y-72.316G85X156.128Y-71.916
G05
X157.628Y-43.57G85X157.628Y-43.97
G05
X157.628Y-45.87G85X157.628Y-46.27
G05
X157.628Y-49.87G85X157.628Y-50.27
G05
X158.128Y-64.916G85X158.128Y-64.516
G05
X160.728Y-64.916G85X160.728Y-64.516
G05
X162.728Y-66.016G85X162.728Y-65.616
G05
X162.728Y-70.016G85X162.728Y-69.616
G05
X162.728Y-72.316G85X162.728Y-71.916
G05
T0
M30
