%TF.GenerationSoftware,KiCad,Pcbnew,7.0.5*%
%TF.CreationDate,2024-01-16T16:22:39+08:00*%
%TF.ProjectId,ZeroMini,5a65726f-4d69-46e6-992e-6b696361645f,rev?*%
%TF.SameCoordinates,Original*%
%TF.FileFunction,Drillmap*%
%TF.FilePolarity,Positive*%
%FSLAX45Y45*%
G04 Gerber Fmt 4.5, Leading zero omitted, Abs format (unit mm)*
G04 Created by KiCad (PCBNEW 7.0.5) date 2024-01-16 16:22:39*
%MOMM*%
%LPD*%
G01*
G04 APERTURE LIST*
%ADD10C,0.100000*%
%ADD11C,0.200000*%
%ADD12C,0.040000*%
%ADD13C,0.080000*%
%ADD14C,0.090000*%
G04 APERTURE END LIST*
D10*
X14580000Y-3641000D02*
X14980000Y-3641000D01*
X14580000Y-3341000D02*
X14580000Y-3641000D01*
X15200000Y-5734300D02*
G75*
G03*
X15420000Y-5514300I0J220000D01*
G01*
X15735600Y-6294300D02*
G75*
G03*
X15955600Y-6074300I0J220000D01*
G01*
X15735600Y-6294300D02*
X14980000Y-6294300D01*
X18234600Y-3641000D02*
X18234600Y-3972000D01*
X17535600Y-8028000D02*
X16395600Y-8028000D01*
X15700000Y-3641000D02*
X17514600Y-3641000D01*
X14980000Y-7396600D02*
X14980000Y-6294300D01*
X16395600Y-4192000D02*
X16395600Y-5294300D01*
X17514221Y-4098981D02*
G75*
G03*
X17282522Y-5813423I381379J-924419D01*
G01*
X17535600Y-6277400D02*
X17535600Y-8028000D01*
X18276600Y-3972000D02*
X18276600Y-4099000D01*
X17535600Y-6277400D02*
X17282522Y-6277400D01*
X16395600Y-8028000D02*
X16395600Y-7616600D01*
X18255600Y-8028000D02*
X18895640Y-8028000D01*
X15700000Y-3972000D02*
X16175600Y-3972000D01*
X15675600Y-7616600D02*
X15200000Y-7616600D01*
X16175600Y-5854300D02*
G75*
G03*
X15955600Y-6074300I0J-220000D01*
G01*
X16395600Y-6074300D02*
G75*
G03*
X16175600Y-5854300I-220000J0D01*
G01*
X16395600Y-7616600D02*
X16395600Y-6074300D01*
X14580000Y-8028000D02*
X15675600Y-8028000D01*
X14980000Y-5514300D02*
G75*
G03*
X15200000Y-5734300I220000J0D01*
G01*
X14980000Y-3972000D02*
X14980000Y-5514300D01*
X17514600Y-4099000D02*
X17514600Y-3972000D01*
X18255600Y-6277400D02*
X18529794Y-6277400D01*
X15700000Y-3641000D02*
X15700000Y-3972000D01*
X18529794Y-5796574D02*
X18529794Y-6277400D01*
X18529794Y-5796574D02*
G75*
G03*
X18276979Y-4098981I-634194J773174D01*
G01*
X17282522Y-5813423D02*
X17282522Y-6277400D01*
X14580000Y-8028000D02*
X14580000Y-8328000D01*
X14980000Y-7396600D02*
G75*
G03*
X15200000Y-7616600I220000J0D01*
G01*
X18895640Y-3341000D02*
X18895640Y-3641000D01*
X15675600Y-8028000D02*
X15675600Y-7616600D01*
X16395600Y-4192000D02*
G75*
G03*
X16175600Y-3972000I-220000J0D01*
G01*
X18255600Y-6277400D02*
X18255600Y-8028000D01*
X14580000Y-8328000D02*
X18895640Y-8328000D01*
X18234600Y-3972000D02*
X18276600Y-3972000D01*
X14980000Y-3641000D02*
X14980000Y-3972000D01*
X14580000Y-3341000D02*
X18895640Y-3341000D01*
X17514600Y-3641000D02*
X17514600Y-3972000D01*
X15640000Y-5294300D02*
G75*
G03*
X15420000Y-5514300I0J-220000D01*
G01*
X18234600Y-3641000D02*
X18895640Y-3641000D01*
X15640000Y-5294300D02*
X16395600Y-5294300D01*
X18895640Y-8328000D02*
X18895640Y-8028000D01*
D11*
D12*
X17760600Y-5377900D02*
X17800600Y-5417900D01*
X17800600Y-5377900D02*
X17760600Y-5417900D01*
X18097600Y-5002900D02*
X18137600Y-5042900D01*
X18137600Y-5002900D02*
X18097600Y-5042900D01*
X18308600Y-4753400D02*
X18348600Y-4793400D01*
X18348600Y-4753400D02*
X18308600Y-4793400D01*
D13*
X17428600Y-5858400D02*
G75*
G03*
X17428600Y-5858400I-40000J0D01*
G01*
X18188600Y-5858400D02*
G75*
G03*
X18188600Y-5858400I-40000J0D01*
G01*
D14*
X15102800Y-4332000D02*
X15102800Y-4422000D01*
X15057800Y-4377000D02*
X15147800Y-4377000D01*
D11*
X15057800Y-4357000D02*
X15057800Y-4397000D01*
X15057800Y-4397000D02*
G75*
G03*
X15147800Y-4397000I45000J0D01*
G01*
X15147800Y-4397000D02*
X15147800Y-4357000D01*
X15147800Y-4357000D02*
G75*
G03*
X15057800Y-4357000I-45000J0D01*
G01*
D14*
X15102800Y-4562000D02*
X15102800Y-4652000D01*
X15057800Y-4607000D02*
X15147800Y-4607000D01*
D11*
X15057800Y-4587000D02*
X15057800Y-4627000D01*
X15057800Y-4627000D02*
G75*
G03*
X15147800Y-4627000I45000J0D01*
G01*
X15147800Y-4627000D02*
X15147800Y-4587000D01*
X15147800Y-4587000D02*
G75*
G03*
X15057800Y-4587000I-45000J0D01*
G01*
D14*
X15102800Y-4962000D02*
X15102800Y-5052000D01*
X15057800Y-5007000D02*
X15147800Y-5007000D01*
D11*
X15057800Y-4987000D02*
X15057800Y-5027000D01*
X15057800Y-5027000D02*
G75*
G03*
X15147800Y-5027000I45000J0D01*
G01*
X15147800Y-5027000D02*
X15147800Y-4987000D01*
X15147800Y-4987000D02*
G75*
G03*
X15057800Y-4987000I-45000J0D01*
G01*
D14*
X15302800Y-5072000D02*
X15302800Y-5162000D01*
X15257800Y-5117000D02*
X15347800Y-5117000D01*
D11*
X15257800Y-5097000D02*
X15257800Y-5137000D01*
X15257800Y-5137000D02*
G75*
G03*
X15347800Y-5137000I45000J0D01*
G01*
X15347800Y-5137000D02*
X15347800Y-5097000D01*
X15347800Y-5097000D02*
G75*
G03*
X15257800Y-5097000I-45000J0D01*
G01*
D14*
X15562800Y-5072000D02*
X15562800Y-5162000D01*
X15517800Y-5117000D02*
X15607800Y-5117000D01*
D11*
X15517800Y-5097000D02*
X15517800Y-5137000D01*
X15517800Y-5137000D02*
G75*
G03*
X15607800Y-5137000I45000J0D01*
G01*
X15607800Y-5137000D02*
X15607800Y-5097000D01*
X15607800Y-5097000D02*
G75*
G03*
X15517800Y-5097000I-45000J0D01*
G01*
D14*
X15612800Y-6536600D02*
X15612800Y-6626600D01*
X15567800Y-6581600D02*
X15657800Y-6581600D01*
D11*
X15657800Y-6601600D02*
X15657800Y-6561600D01*
X15657800Y-6561600D02*
G75*
G03*
X15567800Y-6561600I-45000J0D01*
G01*
X15567800Y-6561600D02*
X15567800Y-6601600D01*
X15567800Y-6601600D02*
G75*
G03*
X15657800Y-6601600I45000J0D01*
G01*
D14*
X15612800Y-6936600D02*
X15612800Y-7026600D01*
X15567800Y-6981600D02*
X15657800Y-6981600D01*
D11*
X15657800Y-7001600D02*
X15657800Y-6961600D01*
X15657800Y-6961600D02*
G75*
G03*
X15567800Y-6961600I-45000J0D01*
G01*
X15567800Y-6961600D02*
X15567800Y-7001600D01*
X15567800Y-7001600D02*
G75*
G03*
X15657800Y-7001600I45000J0D01*
G01*
D14*
X15612800Y-7166600D02*
X15612800Y-7256600D01*
X15567800Y-7211600D02*
X15657800Y-7211600D01*
D11*
X15657800Y-7231600D02*
X15657800Y-7191600D01*
X15657800Y-7191600D02*
G75*
G03*
X15567800Y-7191600I-45000J0D01*
G01*
X15567800Y-7191600D02*
X15567800Y-7231600D01*
X15567800Y-7231600D02*
G75*
G03*
X15657800Y-7231600I45000J0D01*
G01*
D14*
X15762800Y-4332000D02*
X15762800Y-4422000D01*
X15717800Y-4377000D02*
X15807800Y-4377000D01*
D11*
X15717800Y-4357000D02*
X15717800Y-4397000D01*
X15717800Y-4397000D02*
G75*
G03*
X15807800Y-4397000I45000J0D01*
G01*
X15807800Y-4397000D02*
X15807800Y-4357000D01*
X15807800Y-4357000D02*
G75*
G03*
X15717800Y-4357000I-45000J0D01*
G01*
D14*
X15762800Y-4562000D02*
X15762800Y-4652000D01*
X15717800Y-4607000D02*
X15807800Y-4607000D01*
D11*
X15717800Y-4587000D02*
X15717800Y-4627000D01*
X15717800Y-4627000D02*
G75*
G03*
X15807800Y-4627000I45000J0D01*
G01*
X15807800Y-4627000D02*
X15807800Y-4587000D01*
X15807800Y-4587000D02*
G75*
G03*
X15717800Y-4587000I-45000J0D01*
G01*
D14*
X15762800Y-4962000D02*
X15762800Y-5052000D01*
X15717800Y-5007000D02*
X15807800Y-5007000D01*
D11*
X15717800Y-4987000D02*
X15717800Y-5027000D01*
X15717800Y-5027000D02*
G75*
G03*
X15807800Y-5027000I45000J0D01*
G01*
X15807800Y-5027000D02*
X15807800Y-4987000D01*
X15807800Y-4987000D02*
G75*
G03*
X15717800Y-4987000I-45000J0D01*
G01*
D14*
X15812800Y-6426600D02*
X15812800Y-6516600D01*
X15767800Y-6471600D02*
X15857800Y-6471600D01*
D11*
X15857800Y-6491600D02*
X15857800Y-6451600D01*
X15857800Y-6451600D02*
G75*
G03*
X15767800Y-6451600I-45000J0D01*
G01*
X15767800Y-6451600D02*
X15767800Y-6491600D01*
X15767800Y-6491600D02*
G75*
G03*
X15857800Y-6491600I45000J0D01*
G01*
D14*
X16072800Y-6426600D02*
X16072800Y-6516600D01*
X16027800Y-6471600D02*
X16117800Y-6471600D01*
D11*
X16117800Y-6491600D02*
X16117800Y-6451600D01*
X16117800Y-6451600D02*
G75*
G03*
X16027800Y-6451600I-45000J0D01*
G01*
X16027800Y-6451600D02*
X16027800Y-6491600D01*
X16027800Y-6491600D02*
G75*
G03*
X16117800Y-6491600I45000J0D01*
G01*
D14*
X16272800Y-6536600D02*
X16272800Y-6626600D01*
X16227800Y-6581600D02*
X16317800Y-6581600D01*
D11*
X16317800Y-6601600D02*
X16317800Y-6561600D01*
X16317800Y-6561600D02*
G75*
G03*
X16227800Y-6561600I-45000J0D01*
G01*
X16227800Y-6561600D02*
X16227800Y-6601600D01*
X16227800Y-6601600D02*
G75*
G03*
X16317800Y-6601600I45000J0D01*
G01*
D14*
X16272800Y-6936600D02*
X16272800Y-7026600D01*
X16227800Y-6981600D02*
X16317800Y-6981600D01*
D11*
X16317800Y-7001600D02*
X16317800Y-6961600D01*
X16317800Y-6961600D02*
G75*
G03*
X16227800Y-6961600I-45000J0D01*
G01*
X16227800Y-6961600D02*
X16227800Y-7001600D01*
X16227800Y-7001600D02*
G75*
G03*
X16317800Y-7001600I45000J0D01*
G01*
D14*
X16272800Y-7166600D02*
X16272800Y-7256600D01*
X16227800Y-7211600D02*
X16317800Y-7211600D01*
D11*
X16317800Y-7231600D02*
X16317800Y-7191600D01*
X16317800Y-7191600D02*
G75*
G03*
X16227800Y-7191600I-45000J0D01*
G01*
X16227800Y-7191600D02*
X16227800Y-7231600D01*
X16227800Y-7231600D02*
G75*
G03*
X16317800Y-7231600I45000J0D01*
G01*
D10*
X15142356Y-6456656D02*
X15142356Y-6385944D01*
X15071644Y-6385944D01*
X15071644Y-6456656D01*
X15142356Y-6456656D01*
X15142356Y-6710656D02*
X15142356Y-6639944D01*
X15071644Y-6639944D01*
X15071644Y-6710656D01*
X15142356Y-6710656D01*
X15142356Y-6964656D02*
X15142356Y-6893944D01*
X15071644Y-6893944D01*
X15071644Y-6964656D01*
X15142356Y-6964656D01*
X16303956Y-4694656D02*
X16303956Y-4623944D01*
X16233244Y-4623944D01*
X16233244Y-4694656D01*
X16303956Y-4694656D01*
X16303956Y-4948656D02*
X16303956Y-4877944D01*
X16233244Y-4877944D01*
X16233244Y-4948656D01*
X16303956Y-4948656D01*
X16303956Y-5202656D02*
X16303956Y-5131944D01*
X16233244Y-5131944D01*
X16233244Y-5202656D01*
X16303956Y-5202656D01*
X17230956Y-4808756D02*
X17230956Y-4738044D01*
X17160244Y-4738044D01*
X17160244Y-4808756D01*
X17230956Y-4808756D01*
X17230956Y-5308756D02*
X17230956Y-5238044D01*
X17160244Y-5238044D01*
X17160244Y-5308756D01*
X17230956Y-5308756D01*
X17676956Y-4134356D02*
X17676956Y-4063644D01*
X17606244Y-4063644D01*
X17606244Y-4134356D01*
X17676956Y-4134356D01*
X17676956Y-6185756D02*
X17676956Y-6115044D01*
X17606244Y-6115044D01*
X17606244Y-6185756D01*
X17676956Y-6185756D01*
X17930956Y-4134356D02*
X17930956Y-4063644D01*
X17860244Y-4063644D01*
X17860244Y-4134356D01*
X17930956Y-4134356D01*
X17930956Y-6185756D02*
X17930956Y-6115044D01*
X17860244Y-6115044D01*
X17860244Y-6185756D01*
X17930956Y-6185756D01*
X18184956Y-4134356D02*
X18184956Y-4063644D01*
X18114244Y-4063644D01*
X18114244Y-4134356D01*
X18184956Y-4134356D01*
X18184956Y-6185756D02*
X18184956Y-6115044D01*
X18114244Y-6115044D01*
X18114244Y-6185756D01*
X18184956Y-6185756D01*
X18437956Y-5893756D02*
X18437956Y-5823044D01*
X18367244Y-5823044D01*
X18367244Y-5893756D01*
X18437956Y-5893756D01*
X18680956Y-4808756D02*
X18680956Y-4738044D01*
X18610244Y-4738044D01*
X18610244Y-4808756D01*
X18680956Y-4808756D01*
X18680956Y-5058756D02*
X18680956Y-4988044D01*
X18610244Y-4988044D01*
X18610244Y-5058756D01*
X18680956Y-5058756D01*
X18680956Y-5308756D02*
X18680956Y-5238044D01*
X18610244Y-5238044D01*
X18610244Y-5308756D01*
X18680956Y-5308756D01*
D11*
X14835777Y-8644484D02*
X14835777Y-8444484D01*
X14835777Y-8444484D02*
X14883396Y-8444484D01*
X14883396Y-8444484D02*
X14911967Y-8454008D01*
X14911967Y-8454008D02*
X14931015Y-8473055D01*
X14931015Y-8473055D02*
X14940539Y-8492103D01*
X14940539Y-8492103D02*
X14950062Y-8530198D01*
X14950062Y-8530198D02*
X14950062Y-8558770D01*
X14950062Y-8558770D02*
X14940539Y-8596865D01*
X14940539Y-8596865D02*
X14931015Y-8615912D01*
X14931015Y-8615912D02*
X14911967Y-8634960D01*
X14911967Y-8634960D02*
X14883396Y-8644484D01*
X14883396Y-8644484D02*
X14835777Y-8644484D01*
X15035777Y-8644484D02*
X15035777Y-8511150D01*
X15035777Y-8549246D02*
X15045301Y-8530198D01*
X15045301Y-8530198D02*
X15054824Y-8520674D01*
X15054824Y-8520674D02*
X15073872Y-8511150D01*
X15073872Y-8511150D02*
X15092920Y-8511150D01*
X15159586Y-8644484D02*
X15159586Y-8511150D01*
X15159586Y-8444484D02*
X15150062Y-8454008D01*
X15150062Y-8454008D02*
X15159586Y-8463531D01*
X15159586Y-8463531D02*
X15169110Y-8454008D01*
X15169110Y-8454008D02*
X15159586Y-8444484D01*
X15159586Y-8444484D02*
X15159586Y-8463531D01*
X15283396Y-8644484D02*
X15264348Y-8634960D01*
X15264348Y-8634960D02*
X15254824Y-8615912D01*
X15254824Y-8615912D02*
X15254824Y-8444484D01*
X15388158Y-8644484D02*
X15369110Y-8634960D01*
X15369110Y-8634960D02*
X15359586Y-8615912D01*
X15359586Y-8615912D02*
X15359586Y-8444484D01*
X15616729Y-8644484D02*
X15616729Y-8444484D01*
X15616729Y-8444484D02*
X15683396Y-8587341D01*
X15683396Y-8587341D02*
X15750062Y-8444484D01*
X15750062Y-8444484D02*
X15750062Y-8644484D01*
X15931015Y-8644484D02*
X15931015Y-8539722D01*
X15931015Y-8539722D02*
X15921491Y-8520674D01*
X15921491Y-8520674D02*
X15902443Y-8511150D01*
X15902443Y-8511150D02*
X15864348Y-8511150D01*
X15864348Y-8511150D02*
X15845301Y-8520674D01*
X15931015Y-8634960D02*
X15911967Y-8644484D01*
X15911967Y-8644484D02*
X15864348Y-8644484D01*
X15864348Y-8644484D02*
X15845301Y-8634960D01*
X15845301Y-8634960D02*
X15835777Y-8615912D01*
X15835777Y-8615912D02*
X15835777Y-8596865D01*
X15835777Y-8596865D02*
X15845301Y-8577817D01*
X15845301Y-8577817D02*
X15864348Y-8568293D01*
X15864348Y-8568293D02*
X15911967Y-8568293D01*
X15911967Y-8568293D02*
X15931015Y-8558770D01*
X16026253Y-8511150D02*
X16026253Y-8711150D01*
X16026253Y-8520674D02*
X16045301Y-8511150D01*
X16045301Y-8511150D02*
X16083396Y-8511150D01*
X16083396Y-8511150D02*
X16102443Y-8520674D01*
X16102443Y-8520674D02*
X16111967Y-8530198D01*
X16111967Y-8530198D02*
X16121491Y-8549246D01*
X16121491Y-8549246D02*
X16121491Y-8606389D01*
X16121491Y-8606389D02*
X16111967Y-8625436D01*
X16111967Y-8625436D02*
X16102443Y-8634960D01*
X16102443Y-8634960D02*
X16083396Y-8644484D01*
X16083396Y-8644484D02*
X16045301Y-8644484D01*
X16045301Y-8644484D02*
X16026253Y-8634960D01*
X16207205Y-8625436D02*
X16216729Y-8634960D01*
X16216729Y-8634960D02*
X16207205Y-8644484D01*
X16207205Y-8644484D02*
X16197682Y-8634960D01*
X16197682Y-8634960D02*
X16207205Y-8625436D01*
X16207205Y-8625436D02*
X16207205Y-8644484D01*
X16207205Y-8520674D02*
X16216729Y-8530198D01*
X16216729Y-8530198D02*
X16207205Y-8539722D01*
X16207205Y-8539722D02*
X16197682Y-8530198D01*
X16197682Y-8530198D02*
X16207205Y-8520674D01*
X16207205Y-8520674D02*
X16207205Y-8539722D01*
D12*
X14535000Y-8953000D02*
X14575000Y-8993000D01*
X14575000Y-8953000D02*
X14535000Y-8993000D01*
D11*
X14873872Y-8864484D02*
X14892920Y-8864484D01*
X14892920Y-8864484D02*
X14911967Y-8874008D01*
X14911967Y-8874008D02*
X14921491Y-8883531D01*
X14921491Y-8883531D02*
X14931015Y-8902579D01*
X14931015Y-8902579D02*
X14940539Y-8940674D01*
X14940539Y-8940674D02*
X14940539Y-8988293D01*
X14940539Y-8988293D02*
X14931015Y-9026389D01*
X14931015Y-9026389D02*
X14921491Y-9045436D01*
X14921491Y-9045436D02*
X14911967Y-9054960D01*
X14911967Y-9054960D02*
X14892920Y-9064484D01*
X14892920Y-9064484D02*
X14873872Y-9064484D01*
X14873872Y-9064484D02*
X14854824Y-9054960D01*
X14854824Y-9054960D02*
X14845301Y-9045436D01*
X14845301Y-9045436D02*
X14835777Y-9026389D01*
X14835777Y-9026389D02*
X14826253Y-8988293D01*
X14826253Y-8988293D02*
X14826253Y-8940674D01*
X14826253Y-8940674D02*
X14835777Y-8902579D01*
X14835777Y-8902579D02*
X14845301Y-8883531D01*
X14845301Y-8883531D02*
X14854824Y-8874008D01*
X14854824Y-8874008D02*
X14873872Y-8864484D01*
X15026253Y-9045436D02*
X15035777Y-9054960D01*
X15035777Y-9054960D02*
X15026253Y-9064484D01*
X15026253Y-9064484D02*
X15016729Y-9054960D01*
X15016729Y-9054960D02*
X15026253Y-9045436D01*
X15026253Y-9045436D02*
X15026253Y-9064484D01*
X15207205Y-8931150D02*
X15207205Y-9064484D01*
X15159586Y-8854960D02*
X15111967Y-8997817D01*
X15111967Y-8997817D02*
X15235777Y-8997817D01*
X15350062Y-8864484D02*
X15369110Y-8864484D01*
X15369110Y-8864484D02*
X15388158Y-8874008D01*
X15388158Y-8874008D02*
X15397682Y-8883531D01*
X15397682Y-8883531D02*
X15407205Y-8902579D01*
X15407205Y-8902579D02*
X15416729Y-8940674D01*
X15416729Y-8940674D02*
X15416729Y-8988293D01*
X15416729Y-8988293D02*
X15407205Y-9026389D01*
X15407205Y-9026389D02*
X15397682Y-9045436D01*
X15397682Y-9045436D02*
X15388158Y-9054960D01*
X15388158Y-9054960D02*
X15369110Y-9064484D01*
X15369110Y-9064484D02*
X15350062Y-9064484D01*
X15350062Y-9064484D02*
X15331015Y-9054960D01*
X15331015Y-9054960D02*
X15321491Y-9045436D01*
X15321491Y-9045436D02*
X15311967Y-9026389D01*
X15311967Y-9026389D02*
X15302443Y-8988293D01*
X15302443Y-8988293D02*
X15302443Y-8940674D01*
X15302443Y-8940674D02*
X15311967Y-8902579D01*
X15311967Y-8902579D02*
X15321491Y-8883531D01*
X15321491Y-8883531D02*
X15331015Y-8874008D01*
X15331015Y-8874008D02*
X15350062Y-8864484D01*
X15540539Y-8864484D02*
X15559586Y-8864484D01*
X15559586Y-8864484D02*
X15578634Y-8874008D01*
X15578634Y-8874008D02*
X15588158Y-8883531D01*
X15588158Y-8883531D02*
X15597682Y-8902579D01*
X15597682Y-8902579D02*
X15607205Y-8940674D01*
X15607205Y-8940674D02*
X15607205Y-8988293D01*
X15607205Y-8988293D02*
X15597682Y-9026389D01*
X15597682Y-9026389D02*
X15588158Y-9045436D01*
X15588158Y-9045436D02*
X15578634Y-9054960D01*
X15578634Y-9054960D02*
X15559586Y-9064484D01*
X15559586Y-9064484D02*
X15540539Y-9064484D01*
X15540539Y-9064484D02*
X15521491Y-9054960D01*
X15521491Y-9054960D02*
X15511967Y-9045436D01*
X15511967Y-9045436D02*
X15502443Y-9026389D01*
X15502443Y-9026389D02*
X15492920Y-8988293D01*
X15492920Y-8988293D02*
X15492920Y-8940674D01*
X15492920Y-8940674D02*
X15502443Y-8902579D01*
X15502443Y-8902579D02*
X15511967Y-8883531D01*
X15511967Y-8883531D02*
X15521491Y-8874008D01*
X15521491Y-8874008D02*
X15540539Y-8864484D01*
X15692920Y-9064484D02*
X15692920Y-8931150D01*
X15692920Y-8950198D02*
X15702443Y-8940674D01*
X15702443Y-8940674D02*
X15721491Y-8931150D01*
X15721491Y-8931150D02*
X15750063Y-8931150D01*
X15750063Y-8931150D02*
X15769110Y-8940674D01*
X15769110Y-8940674D02*
X15778634Y-8959722D01*
X15778634Y-8959722D02*
X15778634Y-9064484D01*
X15778634Y-8959722D02*
X15788158Y-8940674D01*
X15788158Y-8940674D02*
X15807205Y-8931150D01*
X15807205Y-8931150D02*
X15835777Y-8931150D01*
X15835777Y-8931150D02*
X15854824Y-8940674D01*
X15854824Y-8940674D02*
X15864348Y-8959722D01*
X15864348Y-8959722D02*
X15864348Y-9064484D01*
X15959586Y-9064484D02*
X15959586Y-8931150D01*
X15959586Y-8950198D02*
X15969110Y-8940674D01*
X15969110Y-8940674D02*
X15988158Y-8931150D01*
X15988158Y-8931150D02*
X16016729Y-8931150D01*
X16016729Y-8931150D02*
X16035777Y-8940674D01*
X16035777Y-8940674D02*
X16045301Y-8959722D01*
X16045301Y-8959722D02*
X16045301Y-9064484D01*
X16045301Y-8959722D02*
X16054824Y-8940674D01*
X16054824Y-8940674D02*
X16073872Y-8931150D01*
X16073872Y-8931150D02*
X16102443Y-8931150D01*
X16102443Y-8931150D02*
X16121491Y-8940674D01*
X16121491Y-8940674D02*
X16131015Y-8959722D01*
X16131015Y-8959722D02*
X16131015Y-9064484D01*
X16521491Y-8854960D02*
X16350063Y-9112103D01*
X16778634Y-8864484D02*
X16797682Y-8864484D01*
X16797682Y-8864484D02*
X16816729Y-8874008D01*
X16816729Y-8874008D02*
X16826253Y-8883531D01*
X16826253Y-8883531D02*
X16835777Y-8902579D01*
X16835777Y-8902579D02*
X16845301Y-8940674D01*
X16845301Y-8940674D02*
X16845301Y-8988293D01*
X16845301Y-8988293D02*
X16835777Y-9026389D01*
X16835777Y-9026389D02*
X16826253Y-9045436D01*
X16826253Y-9045436D02*
X16816729Y-9054960D01*
X16816729Y-9054960D02*
X16797682Y-9064484D01*
X16797682Y-9064484D02*
X16778634Y-9064484D01*
X16778634Y-9064484D02*
X16759586Y-9054960D01*
X16759586Y-9054960D02*
X16750063Y-9045436D01*
X16750063Y-9045436D02*
X16740539Y-9026389D01*
X16740539Y-9026389D02*
X16731015Y-8988293D01*
X16731015Y-8988293D02*
X16731015Y-8940674D01*
X16731015Y-8940674D02*
X16740539Y-8902579D01*
X16740539Y-8902579D02*
X16750063Y-8883531D01*
X16750063Y-8883531D02*
X16759586Y-8874008D01*
X16759586Y-8874008D02*
X16778634Y-8864484D01*
X16931015Y-9045436D02*
X16940539Y-9054960D01*
X16940539Y-9054960D02*
X16931015Y-9064484D01*
X16931015Y-9064484D02*
X16921491Y-9054960D01*
X16921491Y-9054960D02*
X16931015Y-9045436D01*
X16931015Y-9045436D02*
X16931015Y-9064484D01*
X17064348Y-8864484D02*
X17083396Y-8864484D01*
X17083396Y-8864484D02*
X17102444Y-8874008D01*
X17102444Y-8874008D02*
X17111968Y-8883531D01*
X17111968Y-8883531D02*
X17121491Y-8902579D01*
X17121491Y-8902579D02*
X17131015Y-8940674D01*
X17131015Y-8940674D02*
X17131015Y-8988293D01*
X17131015Y-8988293D02*
X17121491Y-9026389D01*
X17121491Y-9026389D02*
X17111968Y-9045436D01*
X17111968Y-9045436D02*
X17102444Y-9054960D01*
X17102444Y-9054960D02*
X17083396Y-9064484D01*
X17083396Y-9064484D02*
X17064348Y-9064484D01*
X17064348Y-9064484D02*
X17045301Y-9054960D01*
X17045301Y-9054960D02*
X17035777Y-9045436D01*
X17035777Y-9045436D02*
X17026253Y-9026389D01*
X17026253Y-9026389D02*
X17016729Y-8988293D01*
X17016729Y-8988293D02*
X17016729Y-8940674D01*
X17016729Y-8940674D02*
X17026253Y-8902579D01*
X17026253Y-8902579D02*
X17035777Y-8883531D01*
X17035777Y-8883531D02*
X17045301Y-8874008D01*
X17045301Y-8874008D02*
X17064348Y-8864484D01*
X17321491Y-9064484D02*
X17207206Y-9064484D01*
X17264348Y-9064484D02*
X17264348Y-8864484D01*
X17264348Y-8864484D02*
X17245301Y-8893055D01*
X17245301Y-8893055D02*
X17226253Y-8912103D01*
X17226253Y-8912103D02*
X17207206Y-8921627D01*
X17502444Y-8864484D02*
X17407206Y-8864484D01*
X17407206Y-8864484D02*
X17397682Y-8959722D01*
X17397682Y-8959722D02*
X17407206Y-8950198D01*
X17407206Y-8950198D02*
X17426253Y-8940674D01*
X17426253Y-8940674D02*
X17473872Y-8940674D01*
X17473872Y-8940674D02*
X17492920Y-8950198D01*
X17492920Y-8950198D02*
X17502444Y-8959722D01*
X17502444Y-8959722D02*
X17511968Y-8978770D01*
X17511968Y-8978770D02*
X17511968Y-9026389D01*
X17511968Y-9026389D02*
X17502444Y-9045436D01*
X17502444Y-9045436D02*
X17492920Y-9054960D01*
X17492920Y-9054960D02*
X17473872Y-9064484D01*
X17473872Y-9064484D02*
X17426253Y-9064484D01*
X17426253Y-9064484D02*
X17407206Y-9054960D01*
X17407206Y-9054960D02*
X17397682Y-9045436D01*
X17578634Y-8864484D02*
X17711968Y-8864484D01*
X17711968Y-8864484D02*
X17626253Y-9064484D01*
X17778634Y-8864484D02*
X17778634Y-8902579D01*
X17854825Y-8864484D02*
X17854825Y-8902579D01*
X18150063Y-9140674D02*
X18140539Y-9131150D01*
X18140539Y-9131150D02*
X18121491Y-9102579D01*
X18121491Y-9102579D02*
X18111968Y-9083531D01*
X18111968Y-9083531D02*
X18102444Y-9054960D01*
X18102444Y-9054960D02*
X18092920Y-9007341D01*
X18092920Y-9007341D02*
X18092920Y-8969246D01*
X18092920Y-8969246D02*
X18102444Y-8921627D01*
X18102444Y-8921627D02*
X18111968Y-8893055D01*
X18111968Y-8893055D02*
X18121491Y-8874008D01*
X18121491Y-8874008D02*
X18140539Y-8845436D01*
X18140539Y-8845436D02*
X18150063Y-8835912D01*
X18207206Y-8864484D02*
X18331015Y-8864484D01*
X18331015Y-8864484D02*
X18264349Y-8940674D01*
X18264349Y-8940674D02*
X18292920Y-8940674D01*
X18292920Y-8940674D02*
X18311968Y-8950198D01*
X18311968Y-8950198D02*
X18321491Y-8959722D01*
X18321491Y-8959722D02*
X18331015Y-8978770D01*
X18331015Y-8978770D02*
X18331015Y-9026389D01*
X18331015Y-9026389D02*
X18321491Y-9045436D01*
X18321491Y-9045436D02*
X18311968Y-9054960D01*
X18311968Y-9054960D02*
X18292920Y-9064484D01*
X18292920Y-9064484D02*
X18235777Y-9064484D01*
X18235777Y-9064484D02*
X18216730Y-9054960D01*
X18216730Y-9054960D02*
X18207206Y-9045436D01*
X18569111Y-9064484D02*
X18569111Y-8864484D01*
X18654825Y-9064484D02*
X18654825Y-8959722D01*
X18654825Y-8959722D02*
X18645301Y-8940674D01*
X18645301Y-8940674D02*
X18626253Y-8931150D01*
X18626253Y-8931150D02*
X18597682Y-8931150D01*
X18597682Y-8931150D02*
X18578634Y-8940674D01*
X18578634Y-8940674D02*
X18569111Y-8950198D01*
X18778634Y-9064484D02*
X18759587Y-9054960D01*
X18759587Y-9054960D02*
X18750063Y-9045436D01*
X18750063Y-9045436D02*
X18740539Y-9026389D01*
X18740539Y-9026389D02*
X18740539Y-8969246D01*
X18740539Y-8969246D02*
X18750063Y-8950198D01*
X18750063Y-8950198D02*
X18759587Y-8940674D01*
X18759587Y-8940674D02*
X18778634Y-8931150D01*
X18778634Y-8931150D02*
X18807206Y-8931150D01*
X18807206Y-8931150D02*
X18826253Y-8940674D01*
X18826253Y-8940674D02*
X18835777Y-8950198D01*
X18835777Y-8950198D02*
X18845301Y-8969246D01*
X18845301Y-8969246D02*
X18845301Y-9026389D01*
X18845301Y-9026389D02*
X18835777Y-9045436D01*
X18835777Y-9045436D02*
X18826253Y-9054960D01*
X18826253Y-9054960D02*
X18807206Y-9064484D01*
X18807206Y-9064484D02*
X18778634Y-9064484D01*
X18959587Y-9064484D02*
X18940539Y-9054960D01*
X18940539Y-9054960D02*
X18931015Y-9035912D01*
X18931015Y-9035912D02*
X18931015Y-8864484D01*
X19111968Y-9054960D02*
X19092920Y-9064484D01*
X19092920Y-9064484D02*
X19054825Y-9064484D01*
X19054825Y-9064484D02*
X19035777Y-9054960D01*
X19035777Y-9054960D02*
X19026253Y-9035912D01*
X19026253Y-9035912D02*
X19026253Y-8959722D01*
X19026253Y-8959722D02*
X19035777Y-8940674D01*
X19035777Y-8940674D02*
X19054825Y-8931150D01*
X19054825Y-8931150D02*
X19092920Y-8931150D01*
X19092920Y-8931150D02*
X19111968Y-8940674D01*
X19111968Y-8940674D02*
X19121492Y-8959722D01*
X19121492Y-8959722D02*
X19121492Y-8978770D01*
X19121492Y-8978770D02*
X19026253Y-8997817D01*
X19197682Y-9054960D02*
X19216730Y-9064484D01*
X19216730Y-9064484D02*
X19254825Y-9064484D01*
X19254825Y-9064484D02*
X19273873Y-9054960D01*
X19273873Y-9054960D02*
X19283396Y-9035912D01*
X19283396Y-9035912D02*
X19283396Y-9026389D01*
X19283396Y-9026389D02*
X19273873Y-9007341D01*
X19273873Y-9007341D02*
X19254825Y-8997817D01*
X19254825Y-8997817D02*
X19226253Y-8997817D01*
X19226253Y-8997817D02*
X19207206Y-8988293D01*
X19207206Y-8988293D02*
X19197682Y-8969246D01*
X19197682Y-8969246D02*
X19197682Y-8959722D01*
X19197682Y-8959722D02*
X19207206Y-8940674D01*
X19207206Y-8940674D02*
X19226253Y-8931150D01*
X19226253Y-8931150D02*
X19254825Y-8931150D01*
X19254825Y-8931150D02*
X19273873Y-8940674D01*
X19350063Y-9140674D02*
X19359587Y-9131150D01*
X19359587Y-9131150D02*
X19378634Y-9102579D01*
X19378634Y-9102579D02*
X19388158Y-9083531D01*
X19388158Y-9083531D02*
X19397682Y-9054960D01*
X19397682Y-9054960D02*
X19407206Y-9007341D01*
X19407206Y-9007341D02*
X19407206Y-8969246D01*
X19407206Y-8969246D02*
X19397682Y-8921627D01*
X19397682Y-8921627D02*
X19388158Y-8893055D01*
X19388158Y-8893055D02*
X19378634Y-8874008D01*
X19378634Y-8874008D02*
X19359587Y-8845436D01*
X19359587Y-8845436D02*
X19350063Y-8835912D01*
D13*
X14575000Y-9237000D02*
G75*
G03*
X14575000Y-9237000I-40000J0D01*
G01*
D11*
X14873872Y-9128484D02*
X14892920Y-9128484D01*
X14892920Y-9128484D02*
X14911967Y-9138008D01*
X14911967Y-9138008D02*
X14921491Y-9147531D01*
X14921491Y-9147531D02*
X14931015Y-9166579D01*
X14931015Y-9166579D02*
X14940539Y-9204674D01*
X14940539Y-9204674D02*
X14940539Y-9252293D01*
X14940539Y-9252293D02*
X14931015Y-9290389D01*
X14931015Y-9290389D02*
X14921491Y-9309436D01*
X14921491Y-9309436D02*
X14911967Y-9318960D01*
X14911967Y-9318960D02*
X14892920Y-9328484D01*
X14892920Y-9328484D02*
X14873872Y-9328484D01*
X14873872Y-9328484D02*
X14854824Y-9318960D01*
X14854824Y-9318960D02*
X14845301Y-9309436D01*
X14845301Y-9309436D02*
X14835777Y-9290389D01*
X14835777Y-9290389D02*
X14826253Y-9252293D01*
X14826253Y-9252293D02*
X14826253Y-9204674D01*
X14826253Y-9204674D02*
X14835777Y-9166579D01*
X14835777Y-9166579D02*
X14845301Y-9147531D01*
X14845301Y-9147531D02*
X14854824Y-9138008D01*
X14854824Y-9138008D02*
X14873872Y-9128484D01*
X15026253Y-9309436D02*
X15035777Y-9318960D01*
X15035777Y-9318960D02*
X15026253Y-9328484D01*
X15026253Y-9328484D02*
X15016729Y-9318960D01*
X15016729Y-9318960D02*
X15026253Y-9309436D01*
X15026253Y-9309436D02*
X15026253Y-9328484D01*
X15150062Y-9214198D02*
X15131015Y-9204674D01*
X15131015Y-9204674D02*
X15121491Y-9195150D01*
X15121491Y-9195150D02*
X15111967Y-9176103D01*
X15111967Y-9176103D02*
X15111967Y-9166579D01*
X15111967Y-9166579D02*
X15121491Y-9147531D01*
X15121491Y-9147531D02*
X15131015Y-9138008D01*
X15131015Y-9138008D02*
X15150062Y-9128484D01*
X15150062Y-9128484D02*
X15188158Y-9128484D01*
X15188158Y-9128484D02*
X15207205Y-9138008D01*
X15207205Y-9138008D02*
X15216729Y-9147531D01*
X15216729Y-9147531D02*
X15226253Y-9166579D01*
X15226253Y-9166579D02*
X15226253Y-9176103D01*
X15226253Y-9176103D02*
X15216729Y-9195150D01*
X15216729Y-9195150D02*
X15207205Y-9204674D01*
X15207205Y-9204674D02*
X15188158Y-9214198D01*
X15188158Y-9214198D02*
X15150062Y-9214198D01*
X15150062Y-9214198D02*
X15131015Y-9223722D01*
X15131015Y-9223722D02*
X15121491Y-9233246D01*
X15121491Y-9233246D02*
X15111967Y-9252293D01*
X15111967Y-9252293D02*
X15111967Y-9290389D01*
X15111967Y-9290389D02*
X15121491Y-9309436D01*
X15121491Y-9309436D02*
X15131015Y-9318960D01*
X15131015Y-9318960D02*
X15150062Y-9328484D01*
X15150062Y-9328484D02*
X15188158Y-9328484D01*
X15188158Y-9328484D02*
X15207205Y-9318960D01*
X15207205Y-9318960D02*
X15216729Y-9309436D01*
X15216729Y-9309436D02*
X15226253Y-9290389D01*
X15226253Y-9290389D02*
X15226253Y-9252293D01*
X15226253Y-9252293D02*
X15216729Y-9233246D01*
X15216729Y-9233246D02*
X15207205Y-9223722D01*
X15207205Y-9223722D02*
X15188158Y-9214198D01*
X15350062Y-9128484D02*
X15369110Y-9128484D01*
X15369110Y-9128484D02*
X15388158Y-9138008D01*
X15388158Y-9138008D02*
X15397682Y-9147531D01*
X15397682Y-9147531D02*
X15407205Y-9166579D01*
X15407205Y-9166579D02*
X15416729Y-9204674D01*
X15416729Y-9204674D02*
X15416729Y-9252293D01*
X15416729Y-9252293D02*
X15407205Y-9290389D01*
X15407205Y-9290389D02*
X15397682Y-9309436D01*
X15397682Y-9309436D02*
X15388158Y-9318960D01*
X15388158Y-9318960D02*
X15369110Y-9328484D01*
X15369110Y-9328484D02*
X15350062Y-9328484D01*
X15350062Y-9328484D02*
X15331015Y-9318960D01*
X15331015Y-9318960D02*
X15321491Y-9309436D01*
X15321491Y-9309436D02*
X15311967Y-9290389D01*
X15311967Y-9290389D02*
X15302443Y-9252293D01*
X15302443Y-9252293D02*
X15302443Y-9204674D01*
X15302443Y-9204674D02*
X15311967Y-9166579D01*
X15311967Y-9166579D02*
X15321491Y-9147531D01*
X15321491Y-9147531D02*
X15331015Y-9138008D01*
X15331015Y-9138008D02*
X15350062Y-9128484D01*
X15540539Y-9128484D02*
X15559586Y-9128484D01*
X15559586Y-9128484D02*
X15578634Y-9138008D01*
X15578634Y-9138008D02*
X15588158Y-9147531D01*
X15588158Y-9147531D02*
X15597682Y-9166579D01*
X15597682Y-9166579D02*
X15607205Y-9204674D01*
X15607205Y-9204674D02*
X15607205Y-9252293D01*
X15607205Y-9252293D02*
X15597682Y-9290389D01*
X15597682Y-9290389D02*
X15588158Y-9309436D01*
X15588158Y-9309436D02*
X15578634Y-9318960D01*
X15578634Y-9318960D02*
X15559586Y-9328484D01*
X15559586Y-9328484D02*
X15540539Y-9328484D01*
X15540539Y-9328484D02*
X15521491Y-9318960D01*
X15521491Y-9318960D02*
X15511967Y-9309436D01*
X15511967Y-9309436D02*
X15502443Y-9290389D01*
X15502443Y-9290389D02*
X15492920Y-9252293D01*
X15492920Y-9252293D02*
X15492920Y-9204674D01*
X15492920Y-9204674D02*
X15502443Y-9166579D01*
X15502443Y-9166579D02*
X15511967Y-9147531D01*
X15511967Y-9147531D02*
X15521491Y-9138008D01*
X15521491Y-9138008D02*
X15540539Y-9128484D01*
X15692920Y-9328484D02*
X15692920Y-9195150D01*
X15692920Y-9214198D02*
X15702443Y-9204674D01*
X15702443Y-9204674D02*
X15721491Y-9195150D01*
X15721491Y-9195150D02*
X15750063Y-9195150D01*
X15750063Y-9195150D02*
X15769110Y-9204674D01*
X15769110Y-9204674D02*
X15778634Y-9223722D01*
X15778634Y-9223722D02*
X15778634Y-9328484D01*
X15778634Y-9223722D02*
X15788158Y-9204674D01*
X15788158Y-9204674D02*
X15807205Y-9195150D01*
X15807205Y-9195150D02*
X15835777Y-9195150D01*
X15835777Y-9195150D02*
X15854824Y-9204674D01*
X15854824Y-9204674D02*
X15864348Y-9223722D01*
X15864348Y-9223722D02*
X15864348Y-9328484D01*
X15959586Y-9328484D02*
X15959586Y-9195150D01*
X15959586Y-9214198D02*
X15969110Y-9204674D01*
X15969110Y-9204674D02*
X15988158Y-9195150D01*
X15988158Y-9195150D02*
X16016729Y-9195150D01*
X16016729Y-9195150D02*
X16035777Y-9204674D01*
X16035777Y-9204674D02*
X16045301Y-9223722D01*
X16045301Y-9223722D02*
X16045301Y-9328484D01*
X16045301Y-9223722D02*
X16054824Y-9204674D01*
X16054824Y-9204674D02*
X16073872Y-9195150D01*
X16073872Y-9195150D02*
X16102443Y-9195150D01*
X16102443Y-9195150D02*
X16121491Y-9204674D01*
X16121491Y-9204674D02*
X16131015Y-9223722D01*
X16131015Y-9223722D02*
X16131015Y-9328484D01*
X16521491Y-9118960D02*
X16350063Y-9376103D01*
X16778634Y-9128484D02*
X16797682Y-9128484D01*
X16797682Y-9128484D02*
X16816729Y-9138008D01*
X16816729Y-9138008D02*
X16826253Y-9147531D01*
X16826253Y-9147531D02*
X16835777Y-9166579D01*
X16835777Y-9166579D02*
X16845301Y-9204674D01*
X16845301Y-9204674D02*
X16845301Y-9252293D01*
X16845301Y-9252293D02*
X16835777Y-9290389D01*
X16835777Y-9290389D02*
X16826253Y-9309436D01*
X16826253Y-9309436D02*
X16816729Y-9318960D01*
X16816729Y-9318960D02*
X16797682Y-9328484D01*
X16797682Y-9328484D02*
X16778634Y-9328484D01*
X16778634Y-9328484D02*
X16759586Y-9318960D01*
X16759586Y-9318960D02*
X16750063Y-9309436D01*
X16750063Y-9309436D02*
X16740539Y-9290389D01*
X16740539Y-9290389D02*
X16731015Y-9252293D01*
X16731015Y-9252293D02*
X16731015Y-9204674D01*
X16731015Y-9204674D02*
X16740539Y-9166579D01*
X16740539Y-9166579D02*
X16750063Y-9147531D01*
X16750063Y-9147531D02*
X16759586Y-9138008D01*
X16759586Y-9138008D02*
X16778634Y-9128484D01*
X16931015Y-9309436D02*
X16940539Y-9318960D01*
X16940539Y-9318960D02*
X16931015Y-9328484D01*
X16931015Y-9328484D02*
X16921491Y-9318960D01*
X16921491Y-9318960D02*
X16931015Y-9309436D01*
X16931015Y-9309436D02*
X16931015Y-9328484D01*
X17064348Y-9128484D02*
X17083396Y-9128484D01*
X17083396Y-9128484D02*
X17102444Y-9138008D01*
X17102444Y-9138008D02*
X17111968Y-9147531D01*
X17111968Y-9147531D02*
X17121491Y-9166579D01*
X17121491Y-9166579D02*
X17131015Y-9204674D01*
X17131015Y-9204674D02*
X17131015Y-9252293D01*
X17131015Y-9252293D02*
X17121491Y-9290389D01*
X17121491Y-9290389D02*
X17111968Y-9309436D01*
X17111968Y-9309436D02*
X17102444Y-9318960D01*
X17102444Y-9318960D02*
X17083396Y-9328484D01*
X17083396Y-9328484D02*
X17064348Y-9328484D01*
X17064348Y-9328484D02*
X17045301Y-9318960D01*
X17045301Y-9318960D02*
X17035777Y-9309436D01*
X17035777Y-9309436D02*
X17026253Y-9290389D01*
X17026253Y-9290389D02*
X17016729Y-9252293D01*
X17016729Y-9252293D02*
X17016729Y-9204674D01*
X17016729Y-9204674D02*
X17026253Y-9166579D01*
X17026253Y-9166579D02*
X17035777Y-9147531D01*
X17035777Y-9147531D02*
X17045301Y-9138008D01*
X17045301Y-9138008D02*
X17064348Y-9128484D01*
X17197682Y-9128484D02*
X17321491Y-9128484D01*
X17321491Y-9128484D02*
X17254825Y-9204674D01*
X17254825Y-9204674D02*
X17283396Y-9204674D01*
X17283396Y-9204674D02*
X17302444Y-9214198D01*
X17302444Y-9214198D02*
X17311968Y-9223722D01*
X17311968Y-9223722D02*
X17321491Y-9242770D01*
X17321491Y-9242770D02*
X17321491Y-9290389D01*
X17321491Y-9290389D02*
X17311968Y-9309436D01*
X17311968Y-9309436D02*
X17302444Y-9318960D01*
X17302444Y-9318960D02*
X17283396Y-9328484D01*
X17283396Y-9328484D02*
X17226253Y-9328484D01*
X17226253Y-9328484D02*
X17207206Y-9318960D01*
X17207206Y-9318960D02*
X17197682Y-9309436D01*
X17511968Y-9328484D02*
X17397682Y-9328484D01*
X17454825Y-9328484D02*
X17454825Y-9128484D01*
X17454825Y-9128484D02*
X17435777Y-9157055D01*
X17435777Y-9157055D02*
X17416729Y-9176103D01*
X17416729Y-9176103D02*
X17397682Y-9185627D01*
X17692920Y-9128484D02*
X17597682Y-9128484D01*
X17597682Y-9128484D02*
X17588158Y-9223722D01*
X17588158Y-9223722D02*
X17597682Y-9214198D01*
X17597682Y-9214198D02*
X17616729Y-9204674D01*
X17616729Y-9204674D02*
X17664349Y-9204674D01*
X17664349Y-9204674D02*
X17683396Y-9214198D01*
X17683396Y-9214198D02*
X17692920Y-9223722D01*
X17692920Y-9223722D02*
X17702444Y-9242770D01*
X17702444Y-9242770D02*
X17702444Y-9290389D01*
X17702444Y-9290389D02*
X17692920Y-9309436D01*
X17692920Y-9309436D02*
X17683396Y-9318960D01*
X17683396Y-9318960D02*
X17664349Y-9328484D01*
X17664349Y-9328484D02*
X17616729Y-9328484D01*
X17616729Y-9328484D02*
X17597682Y-9318960D01*
X17597682Y-9318960D02*
X17588158Y-9309436D01*
X17778634Y-9128484D02*
X17778634Y-9166579D01*
X17854825Y-9128484D02*
X17854825Y-9166579D01*
X18150063Y-9404674D02*
X18140539Y-9395150D01*
X18140539Y-9395150D02*
X18121491Y-9366579D01*
X18121491Y-9366579D02*
X18111968Y-9347531D01*
X18111968Y-9347531D02*
X18102444Y-9318960D01*
X18102444Y-9318960D02*
X18092920Y-9271341D01*
X18092920Y-9271341D02*
X18092920Y-9233246D01*
X18092920Y-9233246D02*
X18102444Y-9185627D01*
X18102444Y-9185627D02*
X18111968Y-9157055D01*
X18111968Y-9157055D02*
X18121491Y-9138008D01*
X18121491Y-9138008D02*
X18140539Y-9109436D01*
X18140539Y-9109436D02*
X18150063Y-9099912D01*
X18216730Y-9147531D02*
X18226253Y-9138008D01*
X18226253Y-9138008D02*
X18245301Y-9128484D01*
X18245301Y-9128484D02*
X18292920Y-9128484D01*
X18292920Y-9128484D02*
X18311968Y-9138008D01*
X18311968Y-9138008D02*
X18321491Y-9147531D01*
X18321491Y-9147531D02*
X18331015Y-9166579D01*
X18331015Y-9166579D02*
X18331015Y-9185627D01*
X18331015Y-9185627D02*
X18321491Y-9214198D01*
X18321491Y-9214198D02*
X18207206Y-9328484D01*
X18207206Y-9328484D02*
X18331015Y-9328484D01*
X18569111Y-9328484D02*
X18569111Y-9128484D01*
X18654825Y-9328484D02*
X18654825Y-9223722D01*
X18654825Y-9223722D02*
X18645301Y-9204674D01*
X18645301Y-9204674D02*
X18626253Y-9195150D01*
X18626253Y-9195150D02*
X18597682Y-9195150D01*
X18597682Y-9195150D02*
X18578634Y-9204674D01*
X18578634Y-9204674D02*
X18569111Y-9214198D01*
X18778634Y-9328484D02*
X18759587Y-9318960D01*
X18759587Y-9318960D02*
X18750063Y-9309436D01*
X18750063Y-9309436D02*
X18740539Y-9290389D01*
X18740539Y-9290389D02*
X18740539Y-9233246D01*
X18740539Y-9233246D02*
X18750063Y-9214198D01*
X18750063Y-9214198D02*
X18759587Y-9204674D01*
X18759587Y-9204674D02*
X18778634Y-9195150D01*
X18778634Y-9195150D02*
X18807206Y-9195150D01*
X18807206Y-9195150D02*
X18826253Y-9204674D01*
X18826253Y-9204674D02*
X18835777Y-9214198D01*
X18835777Y-9214198D02*
X18845301Y-9233246D01*
X18845301Y-9233246D02*
X18845301Y-9290389D01*
X18845301Y-9290389D02*
X18835777Y-9309436D01*
X18835777Y-9309436D02*
X18826253Y-9318960D01*
X18826253Y-9318960D02*
X18807206Y-9328484D01*
X18807206Y-9328484D02*
X18778634Y-9328484D01*
X18959587Y-9328484D02*
X18940539Y-9318960D01*
X18940539Y-9318960D02*
X18931015Y-9299912D01*
X18931015Y-9299912D02*
X18931015Y-9128484D01*
X19111968Y-9318960D02*
X19092920Y-9328484D01*
X19092920Y-9328484D02*
X19054825Y-9328484D01*
X19054825Y-9328484D02*
X19035777Y-9318960D01*
X19035777Y-9318960D02*
X19026253Y-9299912D01*
X19026253Y-9299912D02*
X19026253Y-9223722D01*
X19026253Y-9223722D02*
X19035777Y-9204674D01*
X19035777Y-9204674D02*
X19054825Y-9195150D01*
X19054825Y-9195150D02*
X19092920Y-9195150D01*
X19092920Y-9195150D02*
X19111968Y-9204674D01*
X19111968Y-9204674D02*
X19121492Y-9223722D01*
X19121492Y-9223722D02*
X19121492Y-9242770D01*
X19121492Y-9242770D02*
X19026253Y-9261817D01*
X19197682Y-9318960D02*
X19216730Y-9328484D01*
X19216730Y-9328484D02*
X19254825Y-9328484D01*
X19254825Y-9328484D02*
X19273873Y-9318960D01*
X19273873Y-9318960D02*
X19283396Y-9299912D01*
X19283396Y-9299912D02*
X19283396Y-9290389D01*
X19283396Y-9290389D02*
X19273873Y-9271341D01*
X19273873Y-9271341D02*
X19254825Y-9261817D01*
X19254825Y-9261817D02*
X19226253Y-9261817D01*
X19226253Y-9261817D02*
X19207206Y-9252293D01*
X19207206Y-9252293D02*
X19197682Y-9233246D01*
X19197682Y-9233246D02*
X19197682Y-9223722D01*
X19197682Y-9223722D02*
X19207206Y-9204674D01*
X19207206Y-9204674D02*
X19226253Y-9195150D01*
X19226253Y-9195150D02*
X19254825Y-9195150D01*
X19254825Y-9195150D02*
X19273873Y-9204674D01*
X19350063Y-9404674D02*
X19359587Y-9395150D01*
X19359587Y-9395150D02*
X19378634Y-9366579D01*
X19378634Y-9366579D02*
X19388158Y-9347531D01*
X19388158Y-9347531D02*
X19397682Y-9318960D01*
X19397682Y-9318960D02*
X19407206Y-9271341D01*
X19407206Y-9271341D02*
X19407206Y-9233246D01*
X19407206Y-9233246D02*
X19397682Y-9185627D01*
X19397682Y-9185627D02*
X19388158Y-9157055D01*
X19388158Y-9157055D02*
X19378634Y-9138008D01*
X19378634Y-9138008D02*
X19359587Y-9109436D01*
X19359587Y-9109436D02*
X19350063Y-9099912D01*
D14*
X14530000Y-9456000D02*
X14530000Y-9546000D01*
X14485000Y-9501000D02*
X14575000Y-9501000D01*
D11*
X14873872Y-9392484D02*
X14892920Y-9392484D01*
X14892920Y-9392484D02*
X14911967Y-9402008D01*
X14911967Y-9402008D02*
X14921491Y-9411531D01*
X14921491Y-9411531D02*
X14931015Y-9430579D01*
X14931015Y-9430579D02*
X14940539Y-9468674D01*
X14940539Y-9468674D02*
X14940539Y-9516293D01*
X14940539Y-9516293D02*
X14931015Y-9554389D01*
X14931015Y-9554389D02*
X14921491Y-9573436D01*
X14921491Y-9573436D02*
X14911967Y-9582960D01*
X14911967Y-9582960D02*
X14892920Y-9592484D01*
X14892920Y-9592484D02*
X14873872Y-9592484D01*
X14873872Y-9592484D02*
X14854824Y-9582960D01*
X14854824Y-9582960D02*
X14845301Y-9573436D01*
X14845301Y-9573436D02*
X14835777Y-9554389D01*
X14835777Y-9554389D02*
X14826253Y-9516293D01*
X14826253Y-9516293D02*
X14826253Y-9468674D01*
X14826253Y-9468674D02*
X14835777Y-9430579D01*
X14835777Y-9430579D02*
X14845301Y-9411531D01*
X14845301Y-9411531D02*
X14854824Y-9402008D01*
X14854824Y-9402008D02*
X14873872Y-9392484D01*
X15026253Y-9573436D02*
X15035777Y-9582960D01*
X15035777Y-9582960D02*
X15026253Y-9592484D01*
X15026253Y-9592484D02*
X15016729Y-9582960D01*
X15016729Y-9582960D02*
X15026253Y-9573436D01*
X15026253Y-9573436D02*
X15026253Y-9592484D01*
X15131015Y-9592484D02*
X15169110Y-9592484D01*
X15169110Y-9592484D02*
X15188158Y-9582960D01*
X15188158Y-9582960D02*
X15197682Y-9573436D01*
X15197682Y-9573436D02*
X15216729Y-9544865D01*
X15216729Y-9544865D02*
X15226253Y-9506770D01*
X15226253Y-9506770D02*
X15226253Y-9430579D01*
X15226253Y-9430579D02*
X15216729Y-9411531D01*
X15216729Y-9411531D02*
X15207205Y-9402008D01*
X15207205Y-9402008D02*
X15188158Y-9392484D01*
X15188158Y-9392484D02*
X15150062Y-9392484D01*
X15150062Y-9392484D02*
X15131015Y-9402008D01*
X15131015Y-9402008D02*
X15121491Y-9411531D01*
X15121491Y-9411531D02*
X15111967Y-9430579D01*
X15111967Y-9430579D02*
X15111967Y-9478198D01*
X15111967Y-9478198D02*
X15121491Y-9497246D01*
X15121491Y-9497246D02*
X15131015Y-9506770D01*
X15131015Y-9506770D02*
X15150062Y-9516293D01*
X15150062Y-9516293D02*
X15188158Y-9516293D01*
X15188158Y-9516293D02*
X15207205Y-9506770D01*
X15207205Y-9506770D02*
X15216729Y-9497246D01*
X15216729Y-9497246D02*
X15226253Y-9478198D01*
X15350062Y-9392484D02*
X15369110Y-9392484D01*
X15369110Y-9392484D02*
X15388158Y-9402008D01*
X15388158Y-9402008D02*
X15397682Y-9411531D01*
X15397682Y-9411531D02*
X15407205Y-9430579D01*
X15407205Y-9430579D02*
X15416729Y-9468674D01*
X15416729Y-9468674D02*
X15416729Y-9516293D01*
X15416729Y-9516293D02*
X15407205Y-9554389D01*
X15407205Y-9554389D02*
X15397682Y-9573436D01*
X15397682Y-9573436D02*
X15388158Y-9582960D01*
X15388158Y-9582960D02*
X15369110Y-9592484D01*
X15369110Y-9592484D02*
X15350062Y-9592484D01*
X15350062Y-9592484D02*
X15331015Y-9582960D01*
X15331015Y-9582960D02*
X15321491Y-9573436D01*
X15321491Y-9573436D02*
X15311967Y-9554389D01*
X15311967Y-9554389D02*
X15302443Y-9516293D01*
X15302443Y-9516293D02*
X15302443Y-9468674D01*
X15302443Y-9468674D02*
X15311967Y-9430579D01*
X15311967Y-9430579D02*
X15321491Y-9411531D01*
X15321491Y-9411531D02*
X15331015Y-9402008D01*
X15331015Y-9402008D02*
X15350062Y-9392484D01*
X15540539Y-9392484D02*
X15559586Y-9392484D01*
X15559586Y-9392484D02*
X15578634Y-9402008D01*
X15578634Y-9402008D02*
X15588158Y-9411531D01*
X15588158Y-9411531D02*
X15597682Y-9430579D01*
X15597682Y-9430579D02*
X15607205Y-9468674D01*
X15607205Y-9468674D02*
X15607205Y-9516293D01*
X15607205Y-9516293D02*
X15597682Y-9554389D01*
X15597682Y-9554389D02*
X15588158Y-9573436D01*
X15588158Y-9573436D02*
X15578634Y-9582960D01*
X15578634Y-9582960D02*
X15559586Y-9592484D01*
X15559586Y-9592484D02*
X15540539Y-9592484D01*
X15540539Y-9592484D02*
X15521491Y-9582960D01*
X15521491Y-9582960D02*
X15511967Y-9573436D01*
X15511967Y-9573436D02*
X15502443Y-9554389D01*
X15502443Y-9554389D02*
X15492920Y-9516293D01*
X15492920Y-9516293D02*
X15492920Y-9468674D01*
X15492920Y-9468674D02*
X15502443Y-9430579D01*
X15502443Y-9430579D02*
X15511967Y-9411531D01*
X15511967Y-9411531D02*
X15521491Y-9402008D01*
X15521491Y-9402008D02*
X15540539Y-9392484D01*
X15692920Y-9592484D02*
X15692920Y-9459150D01*
X15692920Y-9478198D02*
X15702443Y-9468674D01*
X15702443Y-9468674D02*
X15721491Y-9459150D01*
X15721491Y-9459150D02*
X15750063Y-9459150D01*
X15750063Y-9459150D02*
X15769110Y-9468674D01*
X15769110Y-9468674D02*
X15778634Y-9487722D01*
X15778634Y-9487722D02*
X15778634Y-9592484D01*
X15778634Y-9487722D02*
X15788158Y-9468674D01*
X15788158Y-9468674D02*
X15807205Y-9459150D01*
X15807205Y-9459150D02*
X15835777Y-9459150D01*
X15835777Y-9459150D02*
X15854824Y-9468674D01*
X15854824Y-9468674D02*
X15864348Y-9487722D01*
X15864348Y-9487722D02*
X15864348Y-9592484D01*
X15959586Y-9592484D02*
X15959586Y-9459150D01*
X15959586Y-9478198D02*
X15969110Y-9468674D01*
X15969110Y-9468674D02*
X15988158Y-9459150D01*
X15988158Y-9459150D02*
X16016729Y-9459150D01*
X16016729Y-9459150D02*
X16035777Y-9468674D01*
X16035777Y-9468674D02*
X16045301Y-9487722D01*
X16045301Y-9487722D02*
X16045301Y-9592484D01*
X16045301Y-9487722D02*
X16054824Y-9468674D01*
X16054824Y-9468674D02*
X16073872Y-9459150D01*
X16073872Y-9459150D02*
X16102443Y-9459150D01*
X16102443Y-9459150D02*
X16121491Y-9468674D01*
X16121491Y-9468674D02*
X16131015Y-9487722D01*
X16131015Y-9487722D02*
X16131015Y-9592484D01*
X16521491Y-9382960D02*
X16350063Y-9640103D01*
X16778634Y-9392484D02*
X16797682Y-9392484D01*
X16797682Y-9392484D02*
X16816729Y-9402008D01*
X16816729Y-9402008D02*
X16826253Y-9411531D01*
X16826253Y-9411531D02*
X16835777Y-9430579D01*
X16835777Y-9430579D02*
X16845301Y-9468674D01*
X16845301Y-9468674D02*
X16845301Y-9516293D01*
X16845301Y-9516293D02*
X16835777Y-9554389D01*
X16835777Y-9554389D02*
X16826253Y-9573436D01*
X16826253Y-9573436D02*
X16816729Y-9582960D01*
X16816729Y-9582960D02*
X16797682Y-9592484D01*
X16797682Y-9592484D02*
X16778634Y-9592484D01*
X16778634Y-9592484D02*
X16759586Y-9582960D01*
X16759586Y-9582960D02*
X16750063Y-9573436D01*
X16750063Y-9573436D02*
X16740539Y-9554389D01*
X16740539Y-9554389D02*
X16731015Y-9516293D01*
X16731015Y-9516293D02*
X16731015Y-9468674D01*
X16731015Y-9468674D02*
X16740539Y-9430579D01*
X16740539Y-9430579D02*
X16750063Y-9411531D01*
X16750063Y-9411531D02*
X16759586Y-9402008D01*
X16759586Y-9402008D02*
X16778634Y-9392484D01*
X16931015Y-9573436D02*
X16940539Y-9582960D01*
X16940539Y-9582960D02*
X16931015Y-9592484D01*
X16931015Y-9592484D02*
X16921491Y-9582960D01*
X16921491Y-9582960D02*
X16931015Y-9573436D01*
X16931015Y-9573436D02*
X16931015Y-9592484D01*
X17064348Y-9392484D02*
X17083396Y-9392484D01*
X17083396Y-9392484D02*
X17102444Y-9402008D01*
X17102444Y-9402008D02*
X17111968Y-9411531D01*
X17111968Y-9411531D02*
X17121491Y-9430579D01*
X17121491Y-9430579D02*
X17131015Y-9468674D01*
X17131015Y-9468674D02*
X17131015Y-9516293D01*
X17131015Y-9516293D02*
X17121491Y-9554389D01*
X17121491Y-9554389D02*
X17111968Y-9573436D01*
X17111968Y-9573436D02*
X17102444Y-9582960D01*
X17102444Y-9582960D02*
X17083396Y-9592484D01*
X17083396Y-9592484D02*
X17064348Y-9592484D01*
X17064348Y-9592484D02*
X17045301Y-9582960D01*
X17045301Y-9582960D02*
X17035777Y-9573436D01*
X17035777Y-9573436D02*
X17026253Y-9554389D01*
X17026253Y-9554389D02*
X17016729Y-9516293D01*
X17016729Y-9516293D02*
X17016729Y-9468674D01*
X17016729Y-9468674D02*
X17026253Y-9430579D01*
X17026253Y-9430579D02*
X17035777Y-9411531D01*
X17035777Y-9411531D02*
X17045301Y-9402008D01*
X17045301Y-9402008D02*
X17064348Y-9392484D01*
X17197682Y-9392484D02*
X17321491Y-9392484D01*
X17321491Y-9392484D02*
X17254825Y-9468674D01*
X17254825Y-9468674D02*
X17283396Y-9468674D01*
X17283396Y-9468674D02*
X17302444Y-9478198D01*
X17302444Y-9478198D02*
X17311968Y-9487722D01*
X17311968Y-9487722D02*
X17321491Y-9506770D01*
X17321491Y-9506770D02*
X17321491Y-9554389D01*
X17321491Y-9554389D02*
X17311968Y-9573436D01*
X17311968Y-9573436D02*
X17302444Y-9582960D01*
X17302444Y-9582960D02*
X17283396Y-9592484D01*
X17283396Y-9592484D02*
X17226253Y-9592484D01*
X17226253Y-9592484D02*
X17207206Y-9582960D01*
X17207206Y-9582960D02*
X17197682Y-9573436D01*
X17502444Y-9392484D02*
X17407206Y-9392484D01*
X17407206Y-9392484D02*
X17397682Y-9487722D01*
X17397682Y-9487722D02*
X17407206Y-9478198D01*
X17407206Y-9478198D02*
X17426253Y-9468674D01*
X17426253Y-9468674D02*
X17473872Y-9468674D01*
X17473872Y-9468674D02*
X17492920Y-9478198D01*
X17492920Y-9478198D02*
X17502444Y-9487722D01*
X17502444Y-9487722D02*
X17511968Y-9506770D01*
X17511968Y-9506770D02*
X17511968Y-9554389D01*
X17511968Y-9554389D02*
X17502444Y-9573436D01*
X17502444Y-9573436D02*
X17492920Y-9582960D01*
X17492920Y-9582960D02*
X17473872Y-9592484D01*
X17473872Y-9592484D02*
X17426253Y-9592484D01*
X17426253Y-9592484D02*
X17407206Y-9582960D01*
X17407206Y-9582960D02*
X17397682Y-9573436D01*
X17683396Y-9459150D02*
X17683396Y-9592484D01*
X17635777Y-9382960D02*
X17588158Y-9525817D01*
X17588158Y-9525817D02*
X17711968Y-9525817D01*
X17778634Y-9392484D02*
X17778634Y-9430579D01*
X17854825Y-9392484D02*
X17854825Y-9430579D01*
X18150063Y-9668674D02*
X18140539Y-9659150D01*
X18140539Y-9659150D02*
X18121491Y-9630579D01*
X18121491Y-9630579D02*
X18111968Y-9611531D01*
X18111968Y-9611531D02*
X18102444Y-9582960D01*
X18102444Y-9582960D02*
X18092920Y-9535341D01*
X18092920Y-9535341D02*
X18092920Y-9497246D01*
X18092920Y-9497246D02*
X18102444Y-9449627D01*
X18102444Y-9449627D02*
X18111968Y-9421055D01*
X18111968Y-9421055D02*
X18121491Y-9402008D01*
X18121491Y-9402008D02*
X18140539Y-9373436D01*
X18140539Y-9373436D02*
X18150063Y-9363912D01*
X18264349Y-9392484D02*
X18283396Y-9392484D01*
X18283396Y-9392484D02*
X18302444Y-9402008D01*
X18302444Y-9402008D02*
X18311968Y-9411531D01*
X18311968Y-9411531D02*
X18321491Y-9430579D01*
X18321491Y-9430579D02*
X18331015Y-9468674D01*
X18331015Y-9468674D02*
X18331015Y-9516293D01*
X18331015Y-9516293D02*
X18321491Y-9554389D01*
X18321491Y-9554389D02*
X18311968Y-9573436D01*
X18311968Y-9573436D02*
X18302444Y-9582960D01*
X18302444Y-9582960D02*
X18283396Y-9592484D01*
X18283396Y-9592484D02*
X18264349Y-9592484D01*
X18264349Y-9592484D02*
X18245301Y-9582960D01*
X18245301Y-9582960D02*
X18235777Y-9573436D01*
X18235777Y-9573436D02*
X18226253Y-9554389D01*
X18226253Y-9554389D02*
X18216730Y-9516293D01*
X18216730Y-9516293D02*
X18216730Y-9468674D01*
X18216730Y-9468674D02*
X18226253Y-9430579D01*
X18226253Y-9430579D02*
X18235777Y-9411531D01*
X18235777Y-9411531D02*
X18245301Y-9402008D01*
X18245301Y-9402008D02*
X18264349Y-9392484D01*
X18569111Y-9592484D02*
X18569111Y-9392484D01*
X18654825Y-9592484D02*
X18654825Y-9487722D01*
X18654825Y-9487722D02*
X18645301Y-9468674D01*
X18645301Y-9468674D02*
X18626253Y-9459150D01*
X18626253Y-9459150D02*
X18597682Y-9459150D01*
X18597682Y-9459150D02*
X18578634Y-9468674D01*
X18578634Y-9468674D02*
X18569111Y-9478198D01*
X18778634Y-9592484D02*
X18759587Y-9582960D01*
X18759587Y-9582960D02*
X18750063Y-9573436D01*
X18750063Y-9573436D02*
X18740539Y-9554389D01*
X18740539Y-9554389D02*
X18740539Y-9497246D01*
X18740539Y-9497246D02*
X18750063Y-9478198D01*
X18750063Y-9478198D02*
X18759587Y-9468674D01*
X18759587Y-9468674D02*
X18778634Y-9459150D01*
X18778634Y-9459150D02*
X18807206Y-9459150D01*
X18807206Y-9459150D02*
X18826253Y-9468674D01*
X18826253Y-9468674D02*
X18835777Y-9478198D01*
X18835777Y-9478198D02*
X18845301Y-9497246D01*
X18845301Y-9497246D02*
X18845301Y-9554389D01*
X18845301Y-9554389D02*
X18835777Y-9573436D01*
X18835777Y-9573436D02*
X18826253Y-9582960D01*
X18826253Y-9582960D02*
X18807206Y-9592484D01*
X18807206Y-9592484D02*
X18778634Y-9592484D01*
X18959587Y-9592484D02*
X18940539Y-9582960D01*
X18940539Y-9582960D02*
X18931015Y-9563912D01*
X18931015Y-9563912D02*
X18931015Y-9392484D01*
X19111968Y-9582960D02*
X19092920Y-9592484D01*
X19092920Y-9592484D02*
X19054825Y-9592484D01*
X19054825Y-9592484D02*
X19035777Y-9582960D01*
X19035777Y-9582960D02*
X19026253Y-9563912D01*
X19026253Y-9563912D02*
X19026253Y-9487722D01*
X19026253Y-9487722D02*
X19035777Y-9468674D01*
X19035777Y-9468674D02*
X19054825Y-9459150D01*
X19054825Y-9459150D02*
X19092920Y-9459150D01*
X19092920Y-9459150D02*
X19111968Y-9468674D01*
X19111968Y-9468674D02*
X19121492Y-9487722D01*
X19121492Y-9487722D02*
X19121492Y-9506770D01*
X19121492Y-9506770D02*
X19026253Y-9525817D01*
X19197682Y-9582960D02*
X19216730Y-9592484D01*
X19216730Y-9592484D02*
X19254825Y-9592484D01*
X19254825Y-9592484D02*
X19273873Y-9582960D01*
X19273873Y-9582960D02*
X19283396Y-9563912D01*
X19283396Y-9563912D02*
X19283396Y-9554389D01*
X19283396Y-9554389D02*
X19273873Y-9535341D01*
X19273873Y-9535341D02*
X19254825Y-9525817D01*
X19254825Y-9525817D02*
X19226253Y-9525817D01*
X19226253Y-9525817D02*
X19207206Y-9516293D01*
X19207206Y-9516293D02*
X19197682Y-9497246D01*
X19197682Y-9497246D02*
X19197682Y-9487722D01*
X19197682Y-9487722D02*
X19207206Y-9468674D01*
X19207206Y-9468674D02*
X19226253Y-9459150D01*
X19226253Y-9459150D02*
X19254825Y-9459150D01*
X19254825Y-9459150D02*
X19273873Y-9468674D01*
X19521492Y-9516293D02*
X19673873Y-9516293D01*
X19597682Y-9592484D02*
X19597682Y-9440103D01*
X20026254Y-9592484D02*
X19911968Y-9592484D01*
X19969111Y-9592484D02*
X19969111Y-9392484D01*
X19969111Y-9392484D02*
X19950063Y-9421055D01*
X19950063Y-9421055D02*
X19931015Y-9440103D01*
X19931015Y-9440103D02*
X19911968Y-9449627D01*
X20197682Y-9392484D02*
X20159587Y-9392484D01*
X20159587Y-9392484D02*
X20140539Y-9402008D01*
X20140539Y-9402008D02*
X20131015Y-9411531D01*
X20131015Y-9411531D02*
X20111968Y-9440103D01*
X20111968Y-9440103D02*
X20102444Y-9478198D01*
X20102444Y-9478198D02*
X20102444Y-9554389D01*
X20102444Y-9554389D02*
X20111968Y-9573436D01*
X20111968Y-9573436D02*
X20121492Y-9582960D01*
X20121492Y-9582960D02*
X20140539Y-9592484D01*
X20140539Y-9592484D02*
X20178635Y-9592484D01*
X20178635Y-9592484D02*
X20197682Y-9582960D01*
X20197682Y-9582960D02*
X20207206Y-9573436D01*
X20207206Y-9573436D02*
X20216730Y-9554389D01*
X20216730Y-9554389D02*
X20216730Y-9506770D01*
X20216730Y-9506770D02*
X20207206Y-9487722D01*
X20207206Y-9487722D02*
X20197682Y-9478198D01*
X20197682Y-9478198D02*
X20178635Y-9468674D01*
X20178635Y-9468674D02*
X20140539Y-9468674D01*
X20140539Y-9468674D02*
X20121492Y-9478198D01*
X20121492Y-9478198D02*
X20111968Y-9487722D01*
X20111968Y-9487722D02*
X20102444Y-9506770D01*
X20445301Y-9582960D02*
X20464349Y-9592484D01*
X20464349Y-9592484D02*
X20502444Y-9592484D01*
X20502444Y-9592484D02*
X20521492Y-9582960D01*
X20521492Y-9582960D02*
X20531016Y-9563912D01*
X20531016Y-9563912D02*
X20531016Y-9554389D01*
X20531016Y-9554389D02*
X20521492Y-9535341D01*
X20521492Y-9535341D02*
X20502444Y-9525817D01*
X20502444Y-9525817D02*
X20473873Y-9525817D01*
X20473873Y-9525817D02*
X20454825Y-9516293D01*
X20454825Y-9516293D02*
X20445301Y-9497246D01*
X20445301Y-9497246D02*
X20445301Y-9487722D01*
X20445301Y-9487722D02*
X20454825Y-9468674D01*
X20454825Y-9468674D02*
X20473873Y-9459150D01*
X20473873Y-9459150D02*
X20502444Y-9459150D01*
X20502444Y-9459150D02*
X20521492Y-9468674D01*
X20645301Y-9592484D02*
X20626254Y-9582960D01*
X20626254Y-9582960D02*
X20616730Y-9563912D01*
X20616730Y-9563912D02*
X20616730Y-9392484D01*
X20750063Y-9592484D02*
X20731016Y-9582960D01*
X20731016Y-9582960D02*
X20721492Y-9573436D01*
X20721492Y-9573436D02*
X20711968Y-9554389D01*
X20711968Y-9554389D02*
X20711968Y-9497246D01*
X20711968Y-9497246D02*
X20721492Y-9478198D01*
X20721492Y-9478198D02*
X20731016Y-9468674D01*
X20731016Y-9468674D02*
X20750063Y-9459150D01*
X20750063Y-9459150D02*
X20778635Y-9459150D01*
X20778635Y-9459150D02*
X20797682Y-9468674D01*
X20797682Y-9468674D02*
X20807206Y-9478198D01*
X20807206Y-9478198D02*
X20816730Y-9497246D01*
X20816730Y-9497246D02*
X20816730Y-9554389D01*
X20816730Y-9554389D02*
X20807206Y-9573436D01*
X20807206Y-9573436D02*
X20797682Y-9582960D01*
X20797682Y-9582960D02*
X20778635Y-9592484D01*
X20778635Y-9592484D02*
X20750063Y-9592484D01*
X20873873Y-9459150D02*
X20950063Y-9459150D01*
X20902444Y-9392484D02*
X20902444Y-9563912D01*
X20902444Y-9563912D02*
X20911968Y-9582960D01*
X20911968Y-9582960D02*
X20931016Y-9592484D01*
X20931016Y-9592484D02*
X20950063Y-9592484D01*
X21007206Y-9582960D02*
X21026254Y-9592484D01*
X21026254Y-9592484D02*
X21064349Y-9592484D01*
X21064349Y-9592484D02*
X21083397Y-9582960D01*
X21083397Y-9582960D02*
X21092920Y-9563912D01*
X21092920Y-9563912D02*
X21092920Y-9554389D01*
X21092920Y-9554389D02*
X21083397Y-9535341D01*
X21083397Y-9535341D02*
X21064349Y-9525817D01*
X21064349Y-9525817D02*
X21035777Y-9525817D01*
X21035777Y-9525817D02*
X21016730Y-9516293D01*
X21016730Y-9516293D02*
X21007206Y-9497246D01*
X21007206Y-9497246D02*
X21007206Y-9487722D01*
X21007206Y-9487722D02*
X21016730Y-9468674D01*
X21016730Y-9468674D02*
X21035777Y-9459150D01*
X21035777Y-9459150D02*
X21064349Y-9459150D01*
X21064349Y-9459150D02*
X21083397Y-9468674D01*
X21159587Y-9668674D02*
X21169111Y-9659150D01*
X21169111Y-9659150D02*
X21188158Y-9630579D01*
X21188158Y-9630579D02*
X21197682Y-9611531D01*
X21197682Y-9611531D02*
X21207206Y-9582960D01*
X21207206Y-9582960D02*
X21216730Y-9535341D01*
X21216730Y-9535341D02*
X21216730Y-9497246D01*
X21216730Y-9497246D02*
X21207206Y-9449627D01*
X21207206Y-9449627D02*
X21197682Y-9421055D01*
X21197682Y-9421055D02*
X21188158Y-9402008D01*
X21188158Y-9402008D02*
X21169111Y-9373436D01*
X21169111Y-9373436D02*
X21159587Y-9363912D01*
D10*
X14560356Y-9800356D02*
X14560356Y-9729644D01*
X14489644Y-9729644D01*
X14489644Y-9800356D01*
X14560356Y-9800356D01*
D11*
X14940539Y-9856484D02*
X14826253Y-9856484D01*
X14883396Y-9856484D02*
X14883396Y-9656484D01*
X14883396Y-9656484D02*
X14864348Y-9685055D01*
X14864348Y-9685055D02*
X14845301Y-9704103D01*
X14845301Y-9704103D02*
X14826253Y-9713627D01*
X15026253Y-9837436D02*
X15035777Y-9846960D01*
X15035777Y-9846960D02*
X15026253Y-9856484D01*
X15026253Y-9856484D02*
X15016729Y-9846960D01*
X15016729Y-9846960D02*
X15026253Y-9837436D01*
X15026253Y-9837436D02*
X15026253Y-9856484D01*
X15159586Y-9656484D02*
X15178634Y-9656484D01*
X15178634Y-9656484D02*
X15197682Y-9666008D01*
X15197682Y-9666008D02*
X15207205Y-9675531D01*
X15207205Y-9675531D02*
X15216729Y-9694579D01*
X15216729Y-9694579D02*
X15226253Y-9732674D01*
X15226253Y-9732674D02*
X15226253Y-9780293D01*
X15226253Y-9780293D02*
X15216729Y-9818389D01*
X15216729Y-9818389D02*
X15207205Y-9837436D01*
X15207205Y-9837436D02*
X15197682Y-9846960D01*
X15197682Y-9846960D02*
X15178634Y-9856484D01*
X15178634Y-9856484D02*
X15159586Y-9856484D01*
X15159586Y-9856484D02*
X15140539Y-9846960D01*
X15140539Y-9846960D02*
X15131015Y-9837436D01*
X15131015Y-9837436D02*
X15121491Y-9818389D01*
X15121491Y-9818389D02*
X15111967Y-9780293D01*
X15111967Y-9780293D02*
X15111967Y-9732674D01*
X15111967Y-9732674D02*
X15121491Y-9694579D01*
X15121491Y-9694579D02*
X15131015Y-9675531D01*
X15131015Y-9675531D02*
X15140539Y-9666008D01*
X15140539Y-9666008D02*
X15159586Y-9656484D01*
X15350062Y-9656484D02*
X15369110Y-9656484D01*
X15369110Y-9656484D02*
X15388158Y-9666008D01*
X15388158Y-9666008D02*
X15397682Y-9675531D01*
X15397682Y-9675531D02*
X15407205Y-9694579D01*
X15407205Y-9694579D02*
X15416729Y-9732674D01*
X15416729Y-9732674D02*
X15416729Y-9780293D01*
X15416729Y-9780293D02*
X15407205Y-9818389D01*
X15407205Y-9818389D02*
X15397682Y-9837436D01*
X15397682Y-9837436D02*
X15388158Y-9846960D01*
X15388158Y-9846960D02*
X15369110Y-9856484D01*
X15369110Y-9856484D02*
X15350062Y-9856484D01*
X15350062Y-9856484D02*
X15331015Y-9846960D01*
X15331015Y-9846960D02*
X15321491Y-9837436D01*
X15321491Y-9837436D02*
X15311967Y-9818389D01*
X15311967Y-9818389D02*
X15302443Y-9780293D01*
X15302443Y-9780293D02*
X15302443Y-9732674D01*
X15302443Y-9732674D02*
X15311967Y-9694579D01*
X15311967Y-9694579D02*
X15321491Y-9675531D01*
X15321491Y-9675531D02*
X15331015Y-9666008D01*
X15331015Y-9666008D02*
X15350062Y-9656484D01*
X15540539Y-9656484D02*
X15559586Y-9656484D01*
X15559586Y-9656484D02*
X15578634Y-9666008D01*
X15578634Y-9666008D02*
X15588158Y-9675531D01*
X15588158Y-9675531D02*
X15597682Y-9694579D01*
X15597682Y-9694579D02*
X15607205Y-9732674D01*
X15607205Y-9732674D02*
X15607205Y-9780293D01*
X15607205Y-9780293D02*
X15597682Y-9818389D01*
X15597682Y-9818389D02*
X15588158Y-9837436D01*
X15588158Y-9837436D02*
X15578634Y-9846960D01*
X15578634Y-9846960D02*
X15559586Y-9856484D01*
X15559586Y-9856484D02*
X15540539Y-9856484D01*
X15540539Y-9856484D02*
X15521491Y-9846960D01*
X15521491Y-9846960D02*
X15511967Y-9837436D01*
X15511967Y-9837436D02*
X15502443Y-9818389D01*
X15502443Y-9818389D02*
X15492920Y-9780293D01*
X15492920Y-9780293D02*
X15492920Y-9732674D01*
X15492920Y-9732674D02*
X15502443Y-9694579D01*
X15502443Y-9694579D02*
X15511967Y-9675531D01*
X15511967Y-9675531D02*
X15521491Y-9666008D01*
X15521491Y-9666008D02*
X15540539Y-9656484D01*
X15692920Y-9856484D02*
X15692920Y-9723150D01*
X15692920Y-9742198D02*
X15702443Y-9732674D01*
X15702443Y-9732674D02*
X15721491Y-9723150D01*
X15721491Y-9723150D02*
X15750063Y-9723150D01*
X15750063Y-9723150D02*
X15769110Y-9732674D01*
X15769110Y-9732674D02*
X15778634Y-9751722D01*
X15778634Y-9751722D02*
X15778634Y-9856484D01*
X15778634Y-9751722D02*
X15788158Y-9732674D01*
X15788158Y-9732674D02*
X15807205Y-9723150D01*
X15807205Y-9723150D02*
X15835777Y-9723150D01*
X15835777Y-9723150D02*
X15854824Y-9732674D01*
X15854824Y-9732674D02*
X15864348Y-9751722D01*
X15864348Y-9751722D02*
X15864348Y-9856484D01*
X15959586Y-9856484D02*
X15959586Y-9723150D01*
X15959586Y-9742198D02*
X15969110Y-9732674D01*
X15969110Y-9732674D02*
X15988158Y-9723150D01*
X15988158Y-9723150D02*
X16016729Y-9723150D01*
X16016729Y-9723150D02*
X16035777Y-9732674D01*
X16035777Y-9732674D02*
X16045301Y-9751722D01*
X16045301Y-9751722D02*
X16045301Y-9856484D01*
X16045301Y-9751722D02*
X16054824Y-9732674D01*
X16054824Y-9732674D02*
X16073872Y-9723150D01*
X16073872Y-9723150D02*
X16102443Y-9723150D01*
X16102443Y-9723150D02*
X16121491Y-9732674D01*
X16121491Y-9732674D02*
X16131015Y-9751722D01*
X16131015Y-9751722D02*
X16131015Y-9856484D01*
X16521491Y-9646960D02*
X16350063Y-9904103D01*
X16778634Y-9656484D02*
X16797682Y-9656484D01*
X16797682Y-9656484D02*
X16816729Y-9666008D01*
X16816729Y-9666008D02*
X16826253Y-9675531D01*
X16826253Y-9675531D02*
X16835777Y-9694579D01*
X16835777Y-9694579D02*
X16845301Y-9732674D01*
X16845301Y-9732674D02*
X16845301Y-9780293D01*
X16845301Y-9780293D02*
X16835777Y-9818389D01*
X16835777Y-9818389D02*
X16826253Y-9837436D01*
X16826253Y-9837436D02*
X16816729Y-9846960D01*
X16816729Y-9846960D02*
X16797682Y-9856484D01*
X16797682Y-9856484D02*
X16778634Y-9856484D01*
X16778634Y-9856484D02*
X16759586Y-9846960D01*
X16759586Y-9846960D02*
X16750063Y-9837436D01*
X16750063Y-9837436D02*
X16740539Y-9818389D01*
X16740539Y-9818389D02*
X16731015Y-9780293D01*
X16731015Y-9780293D02*
X16731015Y-9732674D01*
X16731015Y-9732674D02*
X16740539Y-9694579D01*
X16740539Y-9694579D02*
X16750063Y-9675531D01*
X16750063Y-9675531D02*
X16759586Y-9666008D01*
X16759586Y-9666008D02*
X16778634Y-9656484D01*
X16931015Y-9837436D02*
X16940539Y-9846960D01*
X16940539Y-9846960D02*
X16931015Y-9856484D01*
X16931015Y-9856484D02*
X16921491Y-9846960D01*
X16921491Y-9846960D02*
X16931015Y-9837436D01*
X16931015Y-9837436D02*
X16931015Y-9856484D01*
X17064348Y-9656484D02*
X17083396Y-9656484D01*
X17083396Y-9656484D02*
X17102444Y-9666008D01*
X17102444Y-9666008D02*
X17111968Y-9675531D01*
X17111968Y-9675531D02*
X17121491Y-9694579D01*
X17121491Y-9694579D02*
X17131015Y-9732674D01*
X17131015Y-9732674D02*
X17131015Y-9780293D01*
X17131015Y-9780293D02*
X17121491Y-9818389D01*
X17121491Y-9818389D02*
X17111968Y-9837436D01*
X17111968Y-9837436D02*
X17102444Y-9846960D01*
X17102444Y-9846960D02*
X17083396Y-9856484D01*
X17083396Y-9856484D02*
X17064348Y-9856484D01*
X17064348Y-9856484D02*
X17045301Y-9846960D01*
X17045301Y-9846960D02*
X17035777Y-9837436D01*
X17035777Y-9837436D02*
X17026253Y-9818389D01*
X17026253Y-9818389D02*
X17016729Y-9780293D01*
X17016729Y-9780293D02*
X17016729Y-9732674D01*
X17016729Y-9732674D02*
X17026253Y-9694579D01*
X17026253Y-9694579D02*
X17035777Y-9675531D01*
X17035777Y-9675531D02*
X17045301Y-9666008D01*
X17045301Y-9666008D02*
X17064348Y-9656484D01*
X17197682Y-9656484D02*
X17321491Y-9656484D01*
X17321491Y-9656484D02*
X17254825Y-9732674D01*
X17254825Y-9732674D02*
X17283396Y-9732674D01*
X17283396Y-9732674D02*
X17302444Y-9742198D01*
X17302444Y-9742198D02*
X17311968Y-9751722D01*
X17311968Y-9751722D02*
X17321491Y-9770770D01*
X17321491Y-9770770D02*
X17321491Y-9818389D01*
X17321491Y-9818389D02*
X17311968Y-9837436D01*
X17311968Y-9837436D02*
X17302444Y-9846960D01*
X17302444Y-9846960D02*
X17283396Y-9856484D01*
X17283396Y-9856484D02*
X17226253Y-9856484D01*
X17226253Y-9856484D02*
X17207206Y-9846960D01*
X17207206Y-9846960D02*
X17197682Y-9837436D01*
X17416729Y-9856484D02*
X17454825Y-9856484D01*
X17454825Y-9856484D02*
X17473872Y-9846960D01*
X17473872Y-9846960D02*
X17483396Y-9837436D01*
X17483396Y-9837436D02*
X17502444Y-9808865D01*
X17502444Y-9808865D02*
X17511968Y-9770770D01*
X17511968Y-9770770D02*
X17511968Y-9694579D01*
X17511968Y-9694579D02*
X17502444Y-9675531D01*
X17502444Y-9675531D02*
X17492920Y-9666008D01*
X17492920Y-9666008D02*
X17473872Y-9656484D01*
X17473872Y-9656484D02*
X17435777Y-9656484D01*
X17435777Y-9656484D02*
X17416729Y-9666008D01*
X17416729Y-9666008D02*
X17407206Y-9675531D01*
X17407206Y-9675531D02*
X17397682Y-9694579D01*
X17397682Y-9694579D02*
X17397682Y-9742198D01*
X17397682Y-9742198D02*
X17407206Y-9761246D01*
X17407206Y-9761246D02*
X17416729Y-9770770D01*
X17416729Y-9770770D02*
X17435777Y-9780293D01*
X17435777Y-9780293D02*
X17473872Y-9780293D01*
X17473872Y-9780293D02*
X17492920Y-9770770D01*
X17492920Y-9770770D02*
X17502444Y-9761246D01*
X17502444Y-9761246D02*
X17511968Y-9742198D01*
X17683396Y-9723150D02*
X17683396Y-9856484D01*
X17635777Y-9646960D02*
X17588158Y-9789817D01*
X17588158Y-9789817D02*
X17711968Y-9789817D01*
X17778634Y-9656484D02*
X17778634Y-9694579D01*
X17854825Y-9656484D02*
X17854825Y-9694579D01*
X18150063Y-9932674D02*
X18140539Y-9923150D01*
X18140539Y-9923150D02*
X18121491Y-9894579D01*
X18121491Y-9894579D02*
X18111968Y-9875531D01*
X18111968Y-9875531D02*
X18102444Y-9846960D01*
X18102444Y-9846960D02*
X18092920Y-9799341D01*
X18092920Y-9799341D02*
X18092920Y-9761246D01*
X18092920Y-9761246D02*
X18102444Y-9713627D01*
X18102444Y-9713627D02*
X18111968Y-9685055D01*
X18111968Y-9685055D02*
X18121491Y-9666008D01*
X18121491Y-9666008D02*
X18140539Y-9637436D01*
X18140539Y-9637436D02*
X18150063Y-9627912D01*
X18331015Y-9856484D02*
X18216730Y-9856484D01*
X18273872Y-9856484D02*
X18273872Y-9656484D01*
X18273872Y-9656484D02*
X18254825Y-9685055D01*
X18254825Y-9685055D02*
X18235777Y-9704103D01*
X18235777Y-9704103D02*
X18216730Y-9713627D01*
X18445301Y-9742198D02*
X18426253Y-9732674D01*
X18426253Y-9732674D02*
X18416730Y-9723150D01*
X18416730Y-9723150D02*
X18407206Y-9704103D01*
X18407206Y-9704103D02*
X18407206Y-9694579D01*
X18407206Y-9694579D02*
X18416730Y-9675531D01*
X18416730Y-9675531D02*
X18426253Y-9666008D01*
X18426253Y-9666008D02*
X18445301Y-9656484D01*
X18445301Y-9656484D02*
X18483396Y-9656484D01*
X18483396Y-9656484D02*
X18502444Y-9666008D01*
X18502444Y-9666008D02*
X18511968Y-9675531D01*
X18511968Y-9675531D02*
X18521491Y-9694579D01*
X18521491Y-9694579D02*
X18521491Y-9704103D01*
X18521491Y-9704103D02*
X18511968Y-9723150D01*
X18511968Y-9723150D02*
X18502444Y-9732674D01*
X18502444Y-9732674D02*
X18483396Y-9742198D01*
X18483396Y-9742198D02*
X18445301Y-9742198D01*
X18445301Y-9742198D02*
X18426253Y-9751722D01*
X18426253Y-9751722D02*
X18416730Y-9761246D01*
X18416730Y-9761246D02*
X18407206Y-9780293D01*
X18407206Y-9780293D02*
X18407206Y-9818389D01*
X18407206Y-9818389D02*
X18416730Y-9837436D01*
X18416730Y-9837436D02*
X18426253Y-9846960D01*
X18426253Y-9846960D02*
X18445301Y-9856484D01*
X18445301Y-9856484D02*
X18483396Y-9856484D01*
X18483396Y-9856484D02*
X18502444Y-9846960D01*
X18502444Y-9846960D02*
X18511968Y-9837436D01*
X18511968Y-9837436D02*
X18521491Y-9818389D01*
X18521491Y-9818389D02*
X18521491Y-9780293D01*
X18521491Y-9780293D02*
X18511968Y-9761246D01*
X18511968Y-9761246D02*
X18502444Y-9751722D01*
X18502444Y-9751722D02*
X18483396Y-9742198D01*
X18759587Y-9856484D02*
X18759587Y-9656484D01*
X18845301Y-9856484D02*
X18845301Y-9751722D01*
X18845301Y-9751722D02*
X18835777Y-9732674D01*
X18835777Y-9732674D02*
X18816730Y-9723150D01*
X18816730Y-9723150D02*
X18788158Y-9723150D01*
X18788158Y-9723150D02*
X18769111Y-9732674D01*
X18769111Y-9732674D02*
X18759587Y-9742198D01*
X18969111Y-9856484D02*
X18950063Y-9846960D01*
X18950063Y-9846960D02*
X18940539Y-9837436D01*
X18940539Y-9837436D02*
X18931015Y-9818389D01*
X18931015Y-9818389D02*
X18931015Y-9761246D01*
X18931015Y-9761246D02*
X18940539Y-9742198D01*
X18940539Y-9742198D02*
X18950063Y-9732674D01*
X18950063Y-9732674D02*
X18969111Y-9723150D01*
X18969111Y-9723150D02*
X18997682Y-9723150D01*
X18997682Y-9723150D02*
X19016730Y-9732674D01*
X19016730Y-9732674D02*
X19026253Y-9742198D01*
X19026253Y-9742198D02*
X19035777Y-9761246D01*
X19035777Y-9761246D02*
X19035777Y-9818389D01*
X19035777Y-9818389D02*
X19026253Y-9837436D01*
X19026253Y-9837436D02*
X19016730Y-9846960D01*
X19016730Y-9846960D02*
X18997682Y-9856484D01*
X18997682Y-9856484D02*
X18969111Y-9856484D01*
X19150063Y-9856484D02*
X19131015Y-9846960D01*
X19131015Y-9846960D02*
X19121492Y-9827912D01*
X19121492Y-9827912D02*
X19121492Y-9656484D01*
X19302444Y-9846960D02*
X19283396Y-9856484D01*
X19283396Y-9856484D02*
X19245301Y-9856484D01*
X19245301Y-9856484D02*
X19226253Y-9846960D01*
X19226253Y-9846960D02*
X19216730Y-9827912D01*
X19216730Y-9827912D02*
X19216730Y-9751722D01*
X19216730Y-9751722D02*
X19226253Y-9732674D01*
X19226253Y-9732674D02*
X19245301Y-9723150D01*
X19245301Y-9723150D02*
X19283396Y-9723150D01*
X19283396Y-9723150D02*
X19302444Y-9732674D01*
X19302444Y-9732674D02*
X19311968Y-9751722D01*
X19311968Y-9751722D02*
X19311968Y-9770770D01*
X19311968Y-9770770D02*
X19216730Y-9789817D01*
X19388158Y-9846960D02*
X19407206Y-9856484D01*
X19407206Y-9856484D02*
X19445301Y-9856484D01*
X19445301Y-9856484D02*
X19464349Y-9846960D01*
X19464349Y-9846960D02*
X19473873Y-9827912D01*
X19473873Y-9827912D02*
X19473873Y-9818389D01*
X19473873Y-9818389D02*
X19464349Y-9799341D01*
X19464349Y-9799341D02*
X19445301Y-9789817D01*
X19445301Y-9789817D02*
X19416730Y-9789817D01*
X19416730Y-9789817D02*
X19397682Y-9780293D01*
X19397682Y-9780293D02*
X19388158Y-9761246D01*
X19388158Y-9761246D02*
X19388158Y-9751722D01*
X19388158Y-9751722D02*
X19397682Y-9732674D01*
X19397682Y-9732674D02*
X19416730Y-9723150D01*
X19416730Y-9723150D02*
X19445301Y-9723150D01*
X19445301Y-9723150D02*
X19464349Y-9732674D01*
X19540539Y-9932674D02*
X19550063Y-9923150D01*
X19550063Y-9923150D02*
X19569111Y-9894579D01*
X19569111Y-9894579D02*
X19578634Y-9875531D01*
X19578634Y-9875531D02*
X19588158Y-9846960D01*
X19588158Y-9846960D02*
X19597682Y-9799341D01*
X19597682Y-9799341D02*
X19597682Y-9761246D01*
X19597682Y-9761246D02*
X19588158Y-9713627D01*
X19588158Y-9713627D02*
X19578634Y-9685055D01*
X19578634Y-9685055D02*
X19569111Y-9666008D01*
X19569111Y-9666008D02*
X19550063Y-9637436D01*
X19550063Y-9637436D02*
X19540539Y-9627912D01*
M02*
