%TF.GenerationSoftware,KiCad,Pcbnew,7.0.5*%
%TF.CreationDate,2024-01-16T16:22:41+08:00*%
%TF.ProjectId,ZeroMini,5a65726f-4d69-46e6-992e-6b696361645f,rev?*%
%TF.SameCoordinates,Original*%
%TF.FileFunction,Soldermask,Top*%
%TF.FilePolarity,Negative*%
%FSLAX46Y46*%
G04 Gerber Fmt 4.6, Leading zero omitted, Abs format (unit mm)*
G04 Created by KiCad (PCBNEW 7.0.5) date 2024-01-16 16:22:41*
%MOMM*%
%LPD*%
G01*
G04 APERTURE LIST*
%ADD10O,3.200000X2.000000*%
%ADD11R,2.000000X2.000000*%
%ADD12C,2.000000*%
%ADD13C,0.800000*%
%ADD14O,1.500000X1.900000*%
%ADD15O,1.500000X1.800000*%
%ADD16C,1.700000*%
%ADD17O,1.700000X1.700000*%
%ADD18C,0.450000*%
%ADD19C,2.200000*%
%ADD20C,1.596000*%
%ADD21R,1.600000X1.600000*%
%ADD22O,1.600000X1.600000*%
G04 APERTURE END LIST*
D10*
%TO.C,RE1*%
X178956000Y-55834000D03*
X178956000Y-44634000D03*
D11*
X186456000Y-52734000D03*
D12*
X186456000Y-47734000D03*
X186456000Y-50234000D03*
X171956000Y-47734000D03*
X171956000Y-52734000D03*
%TD*%
D13*
%TO.C,T1*%
X160428000Y-74416000D03*
X160428000Y-67416000D03*
X158428000Y-74416000D03*
X158428000Y-67416000D03*
D14*
X162728000Y-65816000D03*
X156128000Y-65816000D03*
D15*
X162728000Y-72116000D03*
X156128000Y-72116000D03*
D14*
X162728000Y-69816000D03*
X156128000Y-69816000D03*
X160728000Y-64716000D03*
X158128000Y-64716000D03*
%TD*%
D13*
%TO.C,T1*%
X153328000Y-41470000D03*
X153328000Y-48470000D03*
X155328000Y-41470000D03*
X155328000Y-48470000D03*
D14*
X151028000Y-50070000D03*
X157628000Y-50070000D03*
D15*
X151028000Y-43770000D03*
X157628000Y-43770000D03*
D14*
X151028000Y-46070000D03*
X157628000Y-46070000D03*
X153028000Y-51170000D03*
X155628000Y-51170000D03*
%TD*%
D16*
%TO.C,J12*%
X176416000Y-40990000D03*
D17*
X178956000Y-40990000D03*
X181496000Y-40990000D03*
%TD*%
D18*
%TO.C,H7*%
X175756000Y-63074000D03*
X176556000Y-63074000D03*
X177356000Y-63074000D03*
X178156000Y-63074000D03*
X178956000Y-63074000D03*
X179756000Y-63074000D03*
X180556000Y-63074000D03*
X181356000Y-63074000D03*
X182156000Y-63074000D03*
%TD*%
D19*
%TO.C,H1*%
X152000000Y-55143000D03*
%TD*%
D20*
%TO.C,H10*%
X147300000Y-34910000D03*
%TD*%
D16*
%TO.C,J1*%
X151070000Y-69293000D03*
D17*
X151070000Y-66753000D03*
X151070000Y-64213000D03*
%TD*%
D18*
%TO.C,H8*%
X150200000Y-39420000D03*
X151000000Y-39420000D03*
X151800000Y-39420000D03*
X152600000Y-39420000D03*
X153400000Y-39420000D03*
X154200000Y-39420000D03*
X155000000Y-39420000D03*
X155800000Y-39420000D03*
X156600000Y-39420000D03*
%TD*%
D20*
%TO.C,H13*%
X187456400Y-81780000D03*
%TD*%
D16*
%TO.C,J10*%
X184026000Y-58584000D03*
%TD*%
D19*
%TO.C,H2*%
X152000000Y-73966000D03*
%TD*%
D20*
%TO.C,H15*%
X187456400Y-34910000D03*
%TD*%
D16*
%TO.C,J1*%
X162686000Y-46593000D03*
D17*
X162686000Y-49133000D03*
X162686000Y-51673000D03*
%TD*%
D19*
%TO.C,H2*%
X161756000Y-41920000D03*
%TD*%
D18*
%TO.C,H9*%
X175546000Y-39420000D03*
X176346000Y-39420000D03*
X177146000Y-39420000D03*
X177946000Y-39420000D03*
X178746000Y-39420000D03*
X179546000Y-39420000D03*
X180346000Y-39420000D03*
X181146000Y-39420000D03*
X181946000Y-39420000D03*
%TD*%
D19*
%TO.C,H1*%
X161756000Y-60743000D03*
%TD*%
D18*
%TO.C,H3*%
X163556000Y-76466000D03*
X162756000Y-76466000D03*
X161956000Y-76466000D03*
X161156000Y-76466000D03*
X160356000Y-76466000D03*
X159556000Y-76466000D03*
X158756000Y-76466000D03*
X157956000Y-76466000D03*
X157156000Y-76466000D03*
%TD*%
D20*
%TO.C,H14*%
X147300000Y-81780000D03*
%TD*%
D21*
%TO.C,D1*%
X181486000Y-58584000D03*
D22*
X173886000Y-58584000D03*
%TD*%
D16*
%TO.C,J11*%
X176416000Y-61504000D03*
D17*
X178956000Y-61504000D03*
X181496000Y-61504000D03*
%TD*%
M02*
