%TF.GenerationSoftware,KiCad,Pcbnew,7.0.5*%
%TF.CreationDate,2024-01-16T16:22:41+08:00*%
%TF.ProjectId,ZeroMini,5a65726f-4d69-46e6-992e-6b696361645f,rev?*%
%TF.SameCoordinates,Original*%
%TF.FileFunction,Profile,NP*%
%FSLAX46Y46*%
G04 Gerber Fmt 4.6, Leading zero omitted, Abs format (unit mm)*
G04 Created by KiCad (PCBNEW 7.0.5) date 2024-01-16 16:22:41*
%MOMM*%
%LPD*%
G01*
G04 APERTURE LIST*
%TA.AperFunction,Profile*%
%ADD10C,0.100000*%
%TD*%
G04 APERTURE END LIST*
D10*
X145800000Y-36410000D02*
X149800000Y-36410000D01*
X145800000Y-33410000D02*
X145800000Y-36410000D01*
X152000000Y-57343000D02*
G75*
G03*
X154200000Y-55143000I0J2200000D01*
G01*
X157356000Y-62943000D02*
G75*
G03*
X159556000Y-60743000I0J2200000D01*
G01*
X157356000Y-62943000D02*
X149800000Y-62943000D01*
X182346000Y-36410000D02*
X182346000Y-39720000D01*
X175356000Y-80280000D02*
X163956000Y-80280000D01*
X157000000Y-36410000D02*
X175146000Y-36410000D01*
X149800000Y-73966000D02*
X149800000Y-62943000D01*
X163956000Y-41920000D02*
X163956000Y-52943000D01*
X175142210Y-40989812D02*
G75*
G03*
X172825224Y-58134227I3813790J-9244188D01*
G01*
X175356000Y-62774000D02*
X175356000Y-80280000D01*
X182766000Y-39720000D02*
X182766000Y-40990000D01*
X175356000Y-62774000D02*
X172825224Y-62774000D01*
X163956000Y-80280000D02*
X163956000Y-76166000D01*
X182556000Y-80280000D02*
X188956400Y-80280000D01*
X157000000Y-39720000D02*
X161756000Y-39720000D01*
X156756000Y-76166000D02*
X152000000Y-76166000D01*
X161756000Y-58543000D02*
G75*
G03*
X159556000Y-60743000I0J-2200000D01*
G01*
X163956000Y-60743000D02*
G75*
G03*
X161756000Y-58543000I-2200000J0D01*
G01*
X163956000Y-76166000D02*
X163956000Y-60743000D01*
X145800000Y-80280000D02*
X156756000Y-80280000D01*
X149800000Y-55143000D02*
G75*
G03*
X152000000Y-57343000I2200000J0D01*
G01*
X149800000Y-39720000D02*
X149800000Y-55143000D01*
X175146000Y-40990000D02*
X175146000Y-39720000D01*
X182556000Y-62774000D02*
X185297936Y-62774000D01*
X157000000Y-36410000D02*
X157000000Y-39720000D01*
X185297936Y-57965743D02*
X185297936Y-62774000D01*
X185297936Y-57965743D02*
G75*
G03*
X182769790Y-40989812I-6341936J7731743D01*
G01*
X172825224Y-58134227D02*
X172825224Y-62774000D01*
X145800000Y-80280000D02*
X145800000Y-83280000D01*
X149800000Y-73966000D02*
G75*
G03*
X152000000Y-76166000I2200000J0D01*
G01*
X188956400Y-33410000D02*
X188956400Y-36410000D01*
X156756000Y-80280000D02*
X156756000Y-76166000D01*
X163956000Y-41920000D02*
G75*
G03*
X161756000Y-39720000I-2200000J0D01*
G01*
X182556000Y-62774000D02*
X182556000Y-80280000D01*
X145800000Y-83280000D02*
X188956400Y-83280000D01*
X182346000Y-39720000D02*
X182766000Y-39720000D01*
X149800000Y-36410000D02*
X149800000Y-39720000D01*
X145800000Y-33410000D02*
X188956400Y-33410000D01*
X175146000Y-36410000D02*
X175146000Y-39720000D01*
X156400000Y-52943000D02*
G75*
G03*
X154200000Y-55143000I0J-2200000D01*
G01*
X182346000Y-36410000D02*
X188956400Y-36410000D01*
X156400000Y-52943000D02*
X163956000Y-52943000D01*
X188956400Y-83280000D02*
X188956400Y-80280000D01*
M02*
