M48
; DRILL file {KiCad 7.0.5} date Tue Jan 16 16:22:40 2024
; FORMAT={-:-/ absolute / metric / decimal}
; #@! TF.CreationDate,2024-01-16T16:22:40+08:00
; #@! TF.GenerationSoftware,Kicad,Pcbnew,7.0.5
; #@! TF.FileFunction,NonPlated,1,2,NPTH
FMAT,2
METRIC
; #@! TA.AperFunction,NonPlated,NPTH,ComponentDrill
T1C0.450
; #@! TA.AperFunction,NonPlated,NPTH,ComponentDrill
T2C0.800
; #@! TA.AperFunction,NonPlated,NPTH,ComponentDrill
T3C1.500
; #@! TA.AperFunction,NonPlated,NPTH,ComponentDrill
T4C2.200
%
G90
G05
T1
X150.2Y-39.42
X151.0Y-39.42
X151.8Y-39.42
X152.6Y-39.42
X153.4Y-39.42
X154.2Y-39.42
X155.0Y-39.42
X155.8Y-39.42
X156.6Y-39.42
X157.156Y-76.466
X157.956Y-76.466
X158.756Y-76.466
X159.556Y-76.466
X160.356Y-76.466
X161.156Y-76.466
X161.956Y-76.466
X162.756Y-76.466
X163.556Y-76.466
X175.546Y-39.42
X175.756Y-63.074
X176.346Y-39.42
X176.556Y-63.074
X177.146Y-39.42
X177.356Y-63.074
X177.946Y-39.42
X178.156Y-63.074
X178.746Y-39.42
X178.956Y-63.074
X179.546Y-39.42
X179.756Y-63.074
X180.346Y-39.42
X180.556Y-63.074
X181.146Y-39.42
X181.356Y-63.074
X181.946Y-39.42
X182.156Y-63.074
T2
X153.328Y-41.47
X153.328Y-48.47
X155.328Y-41.47
X155.328Y-48.47
X158.428Y-67.416
X158.428Y-74.416
X160.428Y-67.416
X160.428Y-74.416
T4
X152.0Y-55.143
X152.0Y-73.966
X161.756Y-41.92
X161.756Y-60.743
T3
X179.606Y-44.634G85X178.306Y-44.634
G05
X179.606Y-55.834G85X178.306Y-55.834
G05
T0
M30
