%TF.GenerationSoftware,KiCad,Pcbnew,7.0.5*%
%TF.CreationDate,2024-01-16T16:22:40+08:00*%
%TF.ProjectId,ZeroMini,5a65726f-4d69-46e6-992e-6b696361645f,rev?*%
%TF.SameCoordinates,Original*%
%TF.FileFunction,Drillmap*%
%TF.FilePolarity,Positive*%
%FSLAX45Y45*%
G04 Gerber Fmt 4.5, Leading zero omitted, Abs format (unit mm)*
G04 Created by KiCad (PCBNEW 7.0.5) date 2024-01-16 16:22:40*
%MOMM*%
%LPD*%
G01*
G04 APERTURE LIST*
%ADD10C,0.100000*%
%ADD11C,0.200000*%
%ADD12C,0.045000*%
%ADD13C,0.080000*%
%ADD14C,0.150000*%
%ADD15C,0.220000*%
G04 APERTURE END LIST*
D10*
X14580000Y-3641000D02*
X14980000Y-3641000D01*
X14580000Y-3341000D02*
X14580000Y-3641000D01*
X15200000Y-5734300D02*
G75*
G03*
X15420000Y-5514300I0J220000D01*
G01*
X15735600Y-6294300D02*
G75*
G03*
X15955600Y-6074300I0J220000D01*
G01*
X15735600Y-6294300D02*
X14980000Y-6294300D01*
X18234600Y-3641000D02*
X18234600Y-3972000D01*
X17535600Y-8028000D02*
X16395600Y-8028000D01*
X15700000Y-3641000D02*
X17514600Y-3641000D01*
X14980000Y-7396600D02*
X14980000Y-6294300D01*
X16395600Y-4192000D02*
X16395600Y-5294300D01*
X17514221Y-4098981D02*
G75*
G03*
X17282522Y-5813423I381379J-924419D01*
G01*
X17535600Y-6277400D02*
X17535600Y-8028000D01*
X18276600Y-3972000D02*
X18276600Y-4099000D01*
X17535600Y-6277400D02*
X17282522Y-6277400D01*
X16395600Y-8028000D02*
X16395600Y-7616600D01*
X18255600Y-8028000D02*
X18895640Y-8028000D01*
X15700000Y-3972000D02*
X16175600Y-3972000D01*
X15675600Y-7616600D02*
X15200000Y-7616600D01*
X16175600Y-5854300D02*
G75*
G03*
X15955600Y-6074300I0J-220000D01*
G01*
X16395600Y-6074300D02*
G75*
G03*
X16175600Y-5854300I-220000J0D01*
G01*
X16395600Y-7616600D02*
X16395600Y-6074300D01*
X14580000Y-8028000D02*
X15675600Y-8028000D01*
X14980000Y-5514300D02*
G75*
G03*
X15200000Y-5734300I220000J0D01*
G01*
X14980000Y-3972000D02*
X14980000Y-5514300D01*
X17514600Y-4099000D02*
X17514600Y-3972000D01*
X18255600Y-6277400D02*
X18529794Y-6277400D01*
X15700000Y-3641000D02*
X15700000Y-3972000D01*
X18529794Y-5796574D02*
X18529794Y-6277400D01*
X18529794Y-5796574D02*
G75*
G03*
X18276979Y-4098981I-634194J773174D01*
G01*
X17282522Y-5813423D02*
X17282522Y-6277400D01*
X14580000Y-8028000D02*
X14580000Y-8328000D01*
X14980000Y-7396600D02*
G75*
G03*
X15200000Y-7616600I220000J0D01*
G01*
X18895640Y-3341000D02*
X18895640Y-3641000D01*
X15675600Y-8028000D02*
X15675600Y-7616600D01*
X16395600Y-4192000D02*
G75*
G03*
X16175600Y-3972000I-220000J0D01*
G01*
X18255600Y-6277400D02*
X18255600Y-8028000D01*
X14580000Y-8328000D02*
X18895640Y-8328000D01*
X18234600Y-3972000D02*
X18276600Y-3972000D01*
X14980000Y-3641000D02*
X14980000Y-3972000D01*
X14580000Y-3341000D02*
X18895640Y-3341000D01*
X17514600Y-3641000D02*
X17514600Y-3972000D01*
X15640000Y-5294300D02*
G75*
G03*
X15420000Y-5514300I0J-220000D01*
G01*
X18234600Y-3641000D02*
X18895640Y-3641000D01*
X15640000Y-5294300D02*
X16395600Y-5294300D01*
X18895640Y-8328000D02*
X18895640Y-8028000D01*
D11*
D12*
X14997500Y-3919500D02*
X15042500Y-3964500D01*
X15042500Y-3919500D02*
X14997500Y-3964500D01*
X15077500Y-3919500D02*
X15122500Y-3964500D01*
X15122500Y-3919500D02*
X15077500Y-3964500D01*
X15157500Y-3919500D02*
X15202500Y-3964500D01*
X15202500Y-3919500D02*
X15157500Y-3964500D01*
X15237500Y-3919500D02*
X15282500Y-3964500D01*
X15282500Y-3919500D02*
X15237500Y-3964500D01*
X15317500Y-3919500D02*
X15362500Y-3964500D01*
X15362500Y-3919500D02*
X15317500Y-3964500D01*
X15397500Y-3919500D02*
X15442500Y-3964500D01*
X15442500Y-3919500D02*
X15397500Y-3964500D01*
X15477500Y-3919500D02*
X15522500Y-3964500D01*
X15522500Y-3919500D02*
X15477500Y-3964500D01*
X15557500Y-3919500D02*
X15602500Y-3964500D01*
X15602500Y-3919500D02*
X15557500Y-3964500D01*
X15637500Y-3919500D02*
X15682500Y-3964500D01*
X15682500Y-3919500D02*
X15637500Y-3964500D01*
X15693100Y-7624100D02*
X15738100Y-7669100D01*
X15738100Y-7624100D02*
X15693100Y-7669100D01*
X15773100Y-7624100D02*
X15818100Y-7669100D01*
X15818100Y-7624100D02*
X15773100Y-7669100D01*
X15853100Y-7624100D02*
X15898100Y-7669100D01*
X15898100Y-7624100D02*
X15853100Y-7669100D01*
X15933100Y-7624100D02*
X15978100Y-7669100D01*
X15978100Y-7624100D02*
X15933100Y-7669100D01*
X16013100Y-7624100D02*
X16058100Y-7669100D01*
X16058100Y-7624100D02*
X16013100Y-7669100D01*
X16093100Y-7624100D02*
X16138100Y-7669100D01*
X16138100Y-7624100D02*
X16093100Y-7669100D01*
X16173100Y-7624100D02*
X16218100Y-7669100D01*
X16218100Y-7624100D02*
X16173100Y-7669100D01*
X16253100Y-7624100D02*
X16298100Y-7669100D01*
X16298100Y-7624100D02*
X16253100Y-7669100D01*
X16333100Y-7624100D02*
X16378100Y-7669100D01*
X16378100Y-7624100D02*
X16333100Y-7669100D01*
X17532100Y-3919500D02*
X17577100Y-3964500D01*
X17577100Y-3919500D02*
X17532100Y-3964500D01*
X17553100Y-6284900D02*
X17598100Y-6329900D01*
X17598100Y-6284900D02*
X17553100Y-6329900D01*
X17612100Y-3919500D02*
X17657100Y-3964500D01*
X17657100Y-3919500D02*
X17612100Y-3964500D01*
X17633100Y-6284900D02*
X17678100Y-6329900D01*
X17678100Y-6284900D02*
X17633100Y-6329900D01*
X17692100Y-3919500D02*
X17737100Y-3964500D01*
X17737100Y-3919500D02*
X17692100Y-3964500D01*
X17713100Y-6284900D02*
X17758100Y-6329900D01*
X17758100Y-6284900D02*
X17713100Y-6329900D01*
X17772100Y-3919500D02*
X17817100Y-3964500D01*
X17817100Y-3919500D02*
X17772100Y-3964500D01*
X17793100Y-6284900D02*
X17838100Y-6329900D01*
X17838100Y-6284900D02*
X17793100Y-6329900D01*
X17852100Y-3919500D02*
X17897100Y-3964500D01*
X17897100Y-3919500D02*
X17852100Y-3964500D01*
X17873100Y-6284900D02*
X17918100Y-6329900D01*
X17918100Y-6284900D02*
X17873100Y-6329900D01*
X17932100Y-3919500D02*
X17977100Y-3964500D01*
X17977100Y-3919500D02*
X17932100Y-3964500D01*
X17953100Y-6284900D02*
X17998100Y-6329900D01*
X17998100Y-6284900D02*
X17953100Y-6329900D01*
X18012100Y-3919500D02*
X18057100Y-3964500D01*
X18057100Y-3919500D02*
X18012100Y-3964500D01*
X18033100Y-6284900D02*
X18078100Y-6329900D01*
X18078100Y-6284900D02*
X18033100Y-6329900D01*
X18092100Y-3919500D02*
X18137100Y-3964500D01*
X18137100Y-3919500D02*
X18092100Y-3964500D01*
X18113100Y-6284900D02*
X18158100Y-6329900D01*
X18158100Y-6284900D02*
X18113100Y-6329900D01*
X18172100Y-3919500D02*
X18217100Y-3964500D01*
X18217100Y-3919500D02*
X18172100Y-3964500D01*
X18193100Y-6284900D02*
X18238100Y-6329900D01*
X18238100Y-6284900D02*
X18193100Y-6329900D01*
D13*
X15372800Y-4147000D02*
G75*
G03*
X15372800Y-4147000I-40000J0D01*
G01*
X15372800Y-4847000D02*
G75*
G03*
X15372800Y-4847000I-40000J0D01*
G01*
X15572800Y-4147000D02*
G75*
G03*
X15572800Y-4147000I-40000J0D01*
G01*
X15572800Y-4847000D02*
G75*
G03*
X15572800Y-4847000I-40000J0D01*
G01*
X15882800Y-6741600D02*
G75*
G03*
X15882800Y-6741600I-40000J0D01*
G01*
X15882800Y-7441600D02*
G75*
G03*
X15882800Y-7441600I-40000J0D01*
G01*
X16082800Y-6741600D02*
G75*
G03*
X16082800Y-6741600I-40000J0D01*
G01*
X16082800Y-7441600D02*
G75*
G03*
X16082800Y-7441600I-40000J0D01*
G01*
D14*
X17895600Y-4388400D02*
X17895600Y-4538400D01*
X17820600Y-4463400D02*
X17970600Y-4463400D01*
D11*
X17960600Y-4388400D02*
X17830600Y-4388400D01*
X17830600Y-4388400D02*
G75*
G03*
X17830600Y-4538400I0J-75000D01*
G01*
X17830600Y-4538400D02*
X17960600Y-4538400D01*
X17960600Y-4538400D02*
G75*
G03*
X17960600Y-4388400I0J75000D01*
G01*
D14*
X17895600Y-5508400D02*
X17895600Y-5658400D01*
X17820600Y-5583400D02*
X17970600Y-5583400D01*
D11*
X17960600Y-5508400D02*
X17830600Y-5508400D01*
X17830600Y-5508400D02*
G75*
G03*
X17830600Y-5658400I0J-75000D01*
G01*
X17830600Y-5658400D02*
X17960600Y-5658400D01*
X17960600Y-5658400D02*
G75*
G03*
X17960600Y-5508400I0J75000D01*
G01*
D15*
X15277782Y-5592083D02*
X15277782Y-5436518D01*
X15122217Y-5436518D01*
X15122217Y-5592083D01*
X15277782Y-5592083D01*
X15277782Y-7474382D02*
X15277782Y-7318817D01*
X15122217Y-7318817D01*
X15122217Y-7474382D01*
X15277782Y-7474382D01*
X16253382Y-4269783D02*
X16253382Y-4114217D01*
X16097817Y-4114217D01*
X16097817Y-4269783D01*
X16253382Y-4269783D01*
X16253382Y-6152082D02*
X16253382Y-5996517D01*
X16097817Y-5996517D01*
X16097817Y-6152082D01*
X16253382Y-6152082D01*
D11*
X14835777Y-8644484D02*
X14835777Y-8444484D01*
X14835777Y-8444484D02*
X14883396Y-8444484D01*
X14883396Y-8444484D02*
X14911967Y-8454008D01*
X14911967Y-8454008D02*
X14931015Y-8473055D01*
X14931015Y-8473055D02*
X14940539Y-8492103D01*
X14940539Y-8492103D02*
X14950062Y-8530198D01*
X14950062Y-8530198D02*
X14950062Y-8558770D01*
X14950062Y-8558770D02*
X14940539Y-8596865D01*
X14940539Y-8596865D02*
X14931015Y-8615912D01*
X14931015Y-8615912D02*
X14911967Y-8634960D01*
X14911967Y-8634960D02*
X14883396Y-8644484D01*
X14883396Y-8644484D02*
X14835777Y-8644484D01*
X15035777Y-8644484D02*
X15035777Y-8511150D01*
X15035777Y-8549246D02*
X15045301Y-8530198D01*
X15045301Y-8530198D02*
X15054824Y-8520674D01*
X15054824Y-8520674D02*
X15073872Y-8511150D01*
X15073872Y-8511150D02*
X15092920Y-8511150D01*
X15159586Y-8644484D02*
X15159586Y-8511150D01*
X15159586Y-8444484D02*
X15150062Y-8454008D01*
X15150062Y-8454008D02*
X15159586Y-8463531D01*
X15159586Y-8463531D02*
X15169110Y-8454008D01*
X15169110Y-8454008D02*
X15159586Y-8444484D01*
X15159586Y-8444484D02*
X15159586Y-8463531D01*
X15283396Y-8644484D02*
X15264348Y-8634960D01*
X15264348Y-8634960D02*
X15254824Y-8615912D01*
X15254824Y-8615912D02*
X15254824Y-8444484D01*
X15388158Y-8644484D02*
X15369110Y-8634960D01*
X15369110Y-8634960D02*
X15359586Y-8615912D01*
X15359586Y-8615912D02*
X15359586Y-8444484D01*
X15616729Y-8644484D02*
X15616729Y-8444484D01*
X15616729Y-8444484D02*
X15683396Y-8587341D01*
X15683396Y-8587341D02*
X15750062Y-8444484D01*
X15750062Y-8444484D02*
X15750062Y-8644484D01*
X15931015Y-8644484D02*
X15931015Y-8539722D01*
X15931015Y-8539722D02*
X15921491Y-8520674D01*
X15921491Y-8520674D02*
X15902443Y-8511150D01*
X15902443Y-8511150D02*
X15864348Y-8511150D01*
X15864348Y-8511150D02*
X15845301Y-8520674D01*
X15931015Y-8634960D02*
X15911967Y-8644484D01*
X15911967Y-8644484D02*
X15864348Y-8644484D01*
X15864348Y-8644484D02*
X15845301Y-8634960D01*
X15845301Y-8634960D02*
X15835777Y-8615912D01*
X15835777Y-8615912D02*
X15835777Y-8596865D01*
X15835777Y-8596865D02*
X15845301Y-8577817D01*
X15845301Y-8577817D02*
X15864348Y-8568293D01*
X15864348Y-8568293D02*
X15911967Y-8568293D01*
X15911967Y-8568293D02*
X15931015Y-8558770D01*
X16026253Y-8511150D02*
X16026253Y-8711150D01*
X16026253Y-8520674D02*
X16045301Y-8511150D01*
X16045301Y-8511150D02*
X16083396Y-8511150D01*
X16083396Y-8511150D02*
X16102443Y-8520674D01*
X16102443Y-8520674D02*
X16111967Y-8530198D01*
X16111967Y-8530198D02*
X16121491Y-8549246D01*
X16121491Y-8549246D02*
X16121491Y-8606389D01*
X16121491Y-8606389D02*
X16111967Y-8625436D01*
X16111967Y-8625436D02*
X16102443Y-8634960D01*
X16102443Y-8634960D02*
X16083396Y-8644484D01*
X16083396Y-8644484D02*
X16045301Y-8644484D01*
X16045301Y-8644484D02*
X16026253Y-8634960D01*
X16207205Y-8625436D02*
X16216729Y-8634960D01*
X16216729Y-8634960D02*
X16207205Y-8644484D01*
X16207205Y-8644484D02*
X16197682Y-8634960D01*
X16197682Y-8634960D02*
X16207205Y-8625436D01*
X16207205Y-8625436D02*
X16207205Y-8644484D01*
X16207205Y-8520674D02*
X16216729Y-8530198D01*
X16216729Y-8530198D02*
X16207205Y-8539722D01*
X16207205Y-8539722D02*
X16197682Y-8530198D01*
X16197682Y-8530198D02*
X16207205Y-8520674D01*
X16207205Y-8520674D02*
X16207205Y-8539722D01*
D12*
X14530000Y-8950500D02*
X14575000Y-8995500D01*
X14575000Y-8950500D02*
X14530000Y-8995500D01*
D11*
X14873872Y-8864484D02*
X14892920Y-8864484D01*
X14892920Y-8864484D02*
X14911967Y-8874008D01*
X14911967Y-8874008D02*
X14921491Y-8883531D01*
X14921491Y-8883531D02*
X14931015Y-8902579D01*
X14931015Y-8902579D02*
X14940539Y-8940674D01*
X14940539Y-8940674D02*
X14940539Y-8988293D01*
X14940539Y-8988293D02*
X14931015Y-9026389D01*
X14931015Y-9026389D02*
X14921491Y-9045436D01*
X14921491Y-9045436D02*
X14911967Y-9054960D01*
X14911967Y-9054960D02*
X14892920Y-9064484D01*
X14892920Y-9064484D02*
X14873872Y-9064484D01*
X14873872Y-9064484D02*
X14854824Y-9054960D01*
X14854824Y-9054960D02*
X14845301Y-9045436D01*
X14845301Y-9045436D02*
X14835777Y-9026389D01*
X14835777Y-9026389D02*
X14826253Y-8988293D01*
X14826253Y-8988293D02*
X14826253Y-8940674D01*
X14826253Y-8940674D02*
X14835777Y-8902579D01*
X14835777Y-8902579D02*
X14845301Y-8883531D01*
X14845301Y-8883531D02*
X14854824Y-8874008D01*
X14854824Y-8874008D02*
X14873872Y-8864484D01*
X15026253Y-9045436D02*
X15035777Y-9054960D01*
X15035777Y-9054960D02*
X15026253Y-9064484D01*
X15026253Y-9064484D02*
X15016729Y-9054960D01*
X15016729Y-9054960D02*
X15026253Y-9045436D01*
X15026253Y-9045436D02*
X15026253Y-9064484D01*
X15207205Y-8931150D02*
X15207205Y-9064484D01*
X15159586Y-8854960D02*
X15111967Y-8997817D01*
X15111967Y-8997817D02*
X15235777Y-8997817D01*
X15407205Y-8864484D02*
X15311967Y-8864484D01*
X15311967Y-8864484D02*
X15302443Y-8959722D01*
X15302443Y-8959722D02*
X15311967Y-8950198D01*
X15311967Y-8950198D02*
X15331015Y-8940674D01*
X15331015Y-8940674D02*
X15378634Y-8940674D01*
X15378634Y-8940674D02*
X15397682Y-8950198D01*
X15397682Y-8950198D02*
X15407205Y-8959722D01*
X15407205Y-8959722D02*
X15416729Y-8978770D01*
X15416729Y-8978770D02*
X15416729Y-9026389D01*
X15416729Y-9026389D02*
X15407205Y-9045436D01*
X15407205Y-9045436D02*
X15397682Y-9054960D01*
X15397682Y-9054960D02*
X15378634Y-9064484D01*
X15378634Y-9064484D02*
X15331015Y-9064484D01*
X15331015Y-9064484D02*
X15311967Y-9054960D01*
X15311967Y-9054960D02*
X15302443Y-9045436D01*
X15540539Y-8864484D02*
X15559586Y-8864484D01*
X15559586Y-8864484D02*
X15578634Y-8874008D01*
X15578634Y-8874008D02*
X15588158Y-8883531D01*
X15588158Y-8883531D02*
X15597682Y-8902579D01*
X15597682Y-8902579D02*
X15607205Y-8940674D01*
X15607205Y-8940674D02*
X15607205Y-8988293D01*
X15607205Y-8988293D02*
X15597682Y-9026389D01*
X15597682Y-9026389D02*
X15588158Y-9045436D01*
X15588158Y-9045436D02*
X15578634Y-9054960D01*
X15578634Y-9054960D02*
X15559586Y-9064484D01*
X15559586Y-9064484D02*
X15540539Y-9064484D01*
X15540539Y-9064484D02*
X15521491Y-9054960D01*
X15521491Y-9054960D02*
X15511967Y-9045436D01*
X15511967Y-9045436D02*
X15502443Y-9026389D01*
X15502443Y-9026389D02*
X15492920Y-8988293D01*
X15492920Y-8988293D02*
X15492920Y-8940674D01*
X15492920Y-8940674D02*
X15502443Y-8902579D01*
X15502443Y-8902579D02*
X15511967Y-8883531D01*
X15511967Y-8883531D02*
X15521491Y-8874008D01*
X15521491Y-8874008D02*
X15540539Y-8864484D01*
X15692920Y-9064484D02*
X15692920Y-8931150D01*
X15692920Y-8950198D02*
X15702443Y-8940674D01*
X15702443Y-8940674D02*
X15721491Y-8931150D01*
X15721491Y-8931150D02*
X15750063Y-8931150D01*
X15750063Y-8931150D02*
X15769110Y-8940674D01*
X15769110Y-8940674D02*
X15778634Y-8959722D01*
X15778634Y-8959722D02*
X15778634Y-9064484D01*
X15778634Y-8959722D02*
X15788158Y-8940674D01*
X15788158Y-8940674D02*
X15807205Y-8931150D01*
X15807205Y-8931150D02*
X15835777Y-8931150D01*
X15835777Y-8931150D02*
X15854824Y-8940674D01*
X15854824Y-8940674D02*
X15864348Y-8959722D01*
X15864348Y-8959722D02*
X15864348Y-9064484D01*
X15959586Y-9064484D02*
X15959586Y-8931150D01*
X15959586Y-8950198D02*
X15969110Y-8940674D01*
X15969110Y-8940674D02*
X15988158Y-8931150D01*
X15988158Y-8931150D02*
X16016729Y-8931150D01*
X16016729Y-8931150D02*
X16035777Y-8940674D01*
X16035777Y-8940674D02*
X16045301Y-8959722D01*
X16045301Y-8959722D02*
X16045301Y-9064484D01*
X16045301Y-8959722D02*
X16054824Y-8940674D01*
X16054824Y-8940674D02*
X16073872Y-8931150D01*
X16073872Y-8931150D02*
X16102443Y-8931150D01*
X16102443Y-8931150D02*
X16121491Y-8940674D01*
X16121491Y-8940674D02*
X16131015Y-8959722D01*
X16131015Y-8959722D02*
X16131015Y-9064484D01*
X16521491Y-8854960D02*
X16350063Y-9112103D01*
X16778634Y-8864484D02*
X16797682Y-8864484D01*
X16797682Y-8864484D02*
X16816729Y-8874008D01*
X16816729Y-8874008D02*
X16826253Y-8883531D01*
X16826253Y-8883531D02*
X16835777Y-8902579D01*
X16835777Y-8902579D02*
X16845301Y-8940674D01*
X16845301Y-8940674D02*
X16845301Y-8988293D01*
X16845301Y-8988293D02*
X16835777Y-9026389D01*
X16835777Y-9026389D02*
X16826253Y-9045436D01*
X16826253Y-9045436D02*
X16816729Y-9054960D01*
X16816729Y-9054960D02*
X16797682Y-9064484D01*
X16797682Y-9064484D02*
X16778634Y-9064484D01*
X16778634Y-9064484D02*
X16759586Y-9054960D01*
X16759586Y-9054960D02*
X16750063Y-9045436D01*
X16750063Y-9045436D02*
X16740539Y-9026389D01*
X16740539Y-9026389D02*
X16731015Y-8988293D01*
X16731015Y-8988293D02*
X16731015Y-8940674D01*
X16731015Y-8940674D02*
X16740539Y-8902579D01*
X16740539Y-8902579D02*
X16750063Y-8883531D01*
X16750063Y-8883531D02*
X16759586Y-8874008D01*
X16759586Y-8874008D02*
X16778634Y-8864484D01*
X16931015Y-9045436D02*
X16940539Y-9054960D01*
X16940539Y-9054960D02*
X16931015Y-9064484D01*
X16931015Y-9064484D02*
X16921491Y-9054960D01*
X16921491Y-9054960D02*
X16931015Y-9045436D01*
X16931015Y-9045436D02*
X16931015Y-9064484D01*
X17064348Y-8864484D02*
X17083396Y-8864484D01*
X17083396Y-8864484D02*
X17102444Y-8874008D01*
X17102444Y-8874008D02*
X17111968Y-8883531D01*
X17111968Y-8883531D02*
X17121491Y-8902579D01*
X17121491Y-8902579D02*
X17131015Y-8940674D01*
X17131015Y-8940674D02*
X17131015Y-8988293D01*
X17131015Y-8988293D02*
X17121491Y-9026389D01*
X17121491Y-9026389D02*
X17111968Y-9045436D01*
X17111968Y-9045436D02*
X17102444Y-9054960D01*
X17102444Y-9054960D02*
X17083396Y-9064484D01*
X17083396Y-9064484D02*
X17064348Y-9064484D01*
X17064348Y-9064484D02*
X17045301Y-9054960D01*
X17045301Y-9054960D02*
X17035777Y-9045436D01*
X17035777Y-9045436D02*
X17026253Y-9026389D01*
X17026253Y-9026389D02*
X17016729Y-8988293D01*
X17016729Y-8988293D02*
X17016729Y-8940674D01*
X17016729Y-8940674D02*
X17026253Y-8902579D01*
X17026253Y-8902579D02*
X17035777Y-8883531D01*
X17035777Y-8883531D02*
X17045301Y-8874008D01*
X17045301Y-8874008D02*
X17064348Y-8864484D01*
X17321491Y-9064484D02*
X17207206Y-9064484D01*
X17264348Y-9064484D02*
X17264348Y-8864484D01*
X17264348Y-8864484D02*
X17245301Y-8893055D01*
X17245301Y-8893055D02*
X17226253Y-8912103D01*
X17226253Y-8912103D02*
X17207206Y-8921627D01*
X17388158Y-8864484D02*
X17521491Y-8864484D01*
X17521491Y-8864484D02*
X17435777Y-9064484D01*
X17578634Y-8864484D02*
X17711968Y-8864484D01*
X17711968Y-8864484D02*
X17626253Y-9064484D01*
X17778634Y-8864484D02*
X17778634Y-8902579D01*
X17854825Y-8864484D02*
X17854825Y-8902579D01*
X18150063Y-9140674D02*
X18140539Y-9131150D01*
X18140539Y-9131150D02*
X18121491Y-9102579D01*
X18121491Y-9102579D02*
X18111968Y-9083531D01*
X18111968Y-9083531D02*
X18102444Y-9054960D01*
X18102444Y-9054960D02*
X18092920Y-9007341D01*
X18092920Y-9007341D02*
X18092920Y-8969246D01*
X18092920Y-8969246D02*
X18102444Y-8921627D01*
X18102444Y-8921627D02*
X18111968Y-8893055D01*
X18111968Y-8893055D02*
X18121491Y-8874008D01*
X18121491Y-8874008D02*
X18140539Y-8845436D01*
X18140539Y-8845436D02*
X18150063Y-8835912D01*
X18207206Y-8864484D02*
X18331015Y-8864484D01*
X18331015Y-8864484D02*
X18264349Y-8940674D01*
X18264349Y-8940674D02*
X18292920Y-8940674D01*
X18292920Y-8940674D02*
X18311968Y-8950198D01*
X18311968Y-8950198D02*
X18321491Y-8959722D01*
X18321491Y-8959722D02*
X18331015Y-8978770D01*
X18331015Y-8978770D02*
X18331015Y-9026389D01*
X18331015Y-9026389D02*
X18321491Y-9045436D01*
X18321491Y-9045436D02*
X18311968Y-9054960D01*
X18311968Y-9054960D02*
X18292920Y-9064484D01*
X18292920Y-9064484D02*
X18235777Y-9064484D01*
X18235777Y-9064484D02*
X18216730Y-9054960D01*
X18216730Y-9054960D02*
X18207206Y-9045436D01*
X18502444Y-8864484D02*
X18464349Y-8864484D01*
X18464349Y-8864484D02*
X18445301Y-8874008D01*
X18445301Y-8874008D02*
X18435777Y-8883531D01*
X18435777Y-8883531D02*
X18416730Y-8912103D01*
X18416730Y-8912103D02*
X18407206Y-8950198D01*
X18407206Y-8950198D02*
X18407206Y-9026389D01*
X18407206Y-9026389D02*
X18416730Y-9045436D01*
X18416730Y-9045436D02*
X18426253Y-9054960D01*
X18426253Y-9054960D02*
X18445301Y-9064484D01*
X18445301Y-9064484D02*
X18483396Y-9064484D01*
X18483396Y-9064484D02*
X18502444Y-9054960D01*
X18502444Y-9054960D02*
X18511968Y-9045436D01*
X18511968Y-9045436D02*
X18521491Y-9026389D01*
X18521491Y-9026389D02*
X18521491Y-8978770D01*
X18521491Y-8978770D02*
X18511968Y-8959722D01*
X18511968Y-8959722D02*
X18502444Y-8950198D01*
X18502444Y-8950198D02*
X18483396Y-8940674D01*
X18483396Y-8940674D02*
X18445301Y-8940674D01*
X18445301Y-8940674D02*
X18426253Y-8950198D01*
X18426253Y-8950198D02*
X18416730Y-8959722D01*
X18416730Y-8959722D02*
X18407206Y-8978770D01*
X18759587Y-9064484D02*
X18759587Y-8864484D01*
X18845301Y-9064484D02*
X18845301Y-8959722D01*
X18845301Y-8959722D02*
X18835777Y-8940674D01*
X18835777Y-8940674D02*
X18816730Y-8931150D01*
X18816730Y-8931150D02*
X18788158Y-8931150D01*
X18788158Y-8931150D02*
X18769111Y-8940674D01*
X18769111Y-8940674D02*
X18759587Y-8950198D01*
X18969111Y-9064484D02*
X18950063Y-9054960D01*
X18950063Y-9054960D02*
X18940539Y-9045436D01*
X18940539Y-9045436D02*
X18931015Y-9026389D01*
X18931015Y-9026389D02*
X18931015Y-8969246D01*
X18931015Y-8969246D02*
X18940539Y-8950198D01*
X18940539Y-8950198D02*
X18950063Y-8940674D01*
X18950063Y-8940674D02*
X18969111Y-8931150D01*
X18969111Y-8931150D02*
X18997682Y-8931150D01*
X18997682Y-8931150D02*
X19016730Y-8940674D01*
X19016730Y-8940674D02*
X19026253Y-8950198D01*
X19026253Y-8950198D02*
X19035777Y-8969246D01*
X19035777Y-8969246D02*
X19035777Y-9026389D01*
X19035777Y-9026389D02*
X19026253Y-9045436D01*
X19026253Y-9045436D02*
X19016730Y-9054960D01*
X19016730Y-9054960D02*
X18997682Y-9064484D01*
X18997682Y-9064484D02*
X18969111Y-9064484D01*
X19150063Y-9064484D02*
X19131015Y-9054960D01*
X19131015Y-9054960D02*
X19121492Y-9035912D01*
X19121492Y-9035912D02*
X19121492Y-8864484D01*
X19302444Y-9054960D02*
X19283396Y-9064484D01*
X19283396Y-9064484D02*
X19245301Y-9064484D01*
X19245301Y-9064484D02*
X19226253Y-9054960D01*
X19226253Y-9054960D02*
X19216730Y-9035912D01*
X19216730Y-9035912D02*
X19216730Y-8959722D01*
X19216730Y-8959722D02*
X19226253Y-8940674D01*
X19226253Y-8940674D02*
X19245301Y-8931150D01*
X19245301Y-8931150D02*
X19283396Y-8931150D01*
X19283396Y-8931150D02*
X19302444Y-8940674D01*
X19302444Y-8940674D02*
X19311968Y-8959722D01*
X19311968Y-8959722D02*
X19311968Y-8978770D01*
X19311968Y-8978770D02*
X19216730Y-8997817D01*
X19388158Y-9054960D02*
X19407206Y-9064484D01*
X19407206Y-9064484D02*
X19445301Y-9064484D01*
X19445301Y-9064484D02*
X19464349Y-9054960D01*
X19464349Y-9054960D02*
X19473873Y-9035912D01*
X19473873Y-9035912D02*
X19473873Y-9026389D01*
X19473873Y-9026389D02*
X19464349Y-9007341D01*
X19464349Y-9007341D02*
X19445301Y-8997817D01*
X19445301Y-8997817D02*
X19416730Y-8997817D01*
X19416730Y-8997817D02*
X19397682Y-8988293D01*
X19397682Y-8988293D02*
X19388158Y-8969246D01*
X19388158Y-8969246D02*
X19388158Y-8959722D01*
X19388158Y-8959722D02*
X19397682Y-8940674D01*
X19397682Y-8940674D02*
X19416730Y-8931150D01*
X19416730Y-8931150D02*
X19445301Y-8931150D01*
X19445301Y-8931150D02*
X19464349Y-8940674D01*
X19540539Y-9140674D02*
X19550063Y-9131150D01*
X19550063Y-9131150D02*
X19569111Y-9102579D01*
X19569111Y-9102579D02*
X19578634Y-9083531D01*
X19578634Y-9083531D02*
X19588158Y-9054960D01*
X19588158Y-9054960D02*
X19597682Y-9007341D01*
X19597682Y-9007341D02*
X19597682Y-8969246D01*
X19597682Y-8969246D02*
X19588158Y-8921627D01*
X19588158Y-8921627D02*
X19578634Y-8893055D01*
X19578634Y-8893055D02*
X19569111Y-8874008D01*
X19569111Y-8874008D02*
X19550063Y-8845436D01*
X19550063Y-8845436D02*
X19540539Y-8835912D01*
X19902444Y-9140674D02*
X19892920Y-9131150D01*
X19892920Y-9131150D02*
X19873873Y-9102579D01*
X19873873Y-9102579D02*
X19864349Y-9083531D01*
X19864349Y-9083531D02*
X19854825Y-9054960D01*
X19854825Y-9054960D02*
X19845301Y-9007341D01*
X19845301Y-9007341D02*
X19845301Y-8969246D01*
X19845301Y-8969246D02*
X19854825Y-8921627D01*
X19854825Y-8921627D02*
X19864349Y-8893055D01*
X19864349Y-8893055D02*
X19873873Y-8874008D01*
X19873873Y-8874008D02*
X19892920Y-8845436D01*
X19892920Y-8845436D02*
X19902444Y-8835912D01*
X19978634Y-8931150D02*
X19978634Y-9064484D01*
X19978634Y-8950198D02*
X19988158Y-8940674D01*
X19988158Y-8940674D02*
X20007206Y-8931150D01*
X20007206Y-8931150D02*
X20035777Y-8931150D01*
X20035777Y-8931150D02*
X20054825Y-8940674D01*
X20054825Y-8940674D02*
X20064349Y-8959722D01*
X20064349Y-8959722D02*
X20064349Y-9064484D01*
X20188158Y-9064484D02*
X20169111Y-9054960D01*
X20169111Y-9054960D02*
X20159587Y-9045436D01*
X20159587Y-9045436D02*
X20150063Y-9026389D01*
X20150063Y-9026389D02*
X20150063Y-8969246D01*
X20150063Y-8969246D02*
X20159587Y-8950198D01*
X20159587Y-8950198D02*
X20169111Y-8940674D01*
X20169111Y-8940674D02*
X20188158Y-8931150D01*
X20188158Y-8931150D02*
X20216730Y-8931150D01*
X20216730Y-8931150D02*
X20235777Y-8940674D01*
X20235777Y-8940674D02*
X20245301Y-8950198D01*
X20245301Y-8950198D02*
X20254825Y-8969246D01*
X20254825Y-8969246D02*
X20254825Y-9026389D01*
X20254825Y-9026389D02*
X20245301Y-9045436D01*
X20245301Y-9045436D02*
X20235777Y-9054960D01*
X20235777Y-9054960D02*
X20216730Y-9064484D01*
X20216730Y-9064484D02*
X20188158Y-9064484D01*
X20311968Y-8931150D02*
X20388158Y-8931150D01*
X20340539Y-8864484D02*
X20340539Y-9035912D01*
X20340539Y-9035912D02*
X20350063Y-9054960D01*
X20350063Y-9054960D02*
X20369111Y-9064484D01*
X20369111Y-9064484D02*
X20388158Y-9064484D01*
X20607206Y-8931150D02*
X20607206Y-9131150D01*
X20607206Y-8940674D02*
X20626254Y-8931150D01*
X20626254Y-8931150D02*
X20664349Y-8931150D01*
X20664349Y-8931150D02*
X20683396Y-8940674D01*
X20683396Y-8940674D02*
X20692920Y-8950198D01*
X20692920Y-8950198D02*
X20702444Y-8969246D01*
X20702444Y-8969246D02*
X20702444Y-9026389D01*
X20702444Y-9026389D02*
X20692920Y-9045436D01*
X20692920Y-9045436D02*
X20683396Y-9054960D01*
X20683396Y-9054960D02*
X20664349Y-9064484D01*
X20664349Y-9064484D02*
X20626254Y-9064484D01*
X20626254Y-9064484D02*
X20607206Y-9054960D01*
X20816730Y-9064484D02*
X20797682Y-9054960D01*
X20797682Y-9054960D02*
X20788158Y-9035912D01*
X20788158Y-9035912D02*
X20788158Y-8864484D01*
X20978635Y-9064484D02*
X20978635Y-8959722D01*
X20978635Y-8959722D02*
X20969111Y-8940674D01*
X20969111Y-8940674D02*
X20950063Y-8931150D01*
X20950063Y-8931150D02*
X20911968Y-8931150D01*
X20911968Y-8931150D02*
X20892920Y-8940674D01*
X20978635Y-9054960D02*
X20959587Y-9064484D01*
X20959587Y-9064484D02*
X20911968Y-9064484D01*
X20911968Y-9064484D02*
X20892920Y-9054960D01*
X20892920Y-9054960D02*
X20883396Y-9035912D01*
X20883396Y-9035912D02*
X20883396Y-9016865D01*
X20883396Y-9016865D02*
X20892920Y-8997817D01*
X20892920Y-8997817D02*
X20911968Y-8988293D01*
X20911968Y-8988293D02*
X20959587Y-8988293D01*
X20959587Y-8988293D02*
X20978635Y-8978770D01*
X21045301Y-8931150D02*
X21121492Y-8931150D01*
X21073873Y-8864484D02*
X21073873Y-9035912D01*
X21073873Y-9035912D02*
X21083396Y-9054960D01*
X21083396Y-9054960D02*
X21102444Y-9064484D01*
X21102444Y-9064484D02*
X21121492Y-9064484D01*
X21264349Y-9054960D02*
X21245301Y-9064484D01*
X21245301Y-9064484D02*
X21207206Y-9064484D01*
X21207206Y-9064484D02*
X21188158Y-9054960D01*
X21188158Y-9054960D02*
X21178635Y-9035912D01*
X21178635Y-9035912D02*
X21178635Y-8959722D01*
X21178635Y-8959722D02*
X21188158Y-8940674D01*
X21188158Y-8940674D02*
X21207206Y-8931150D01*
X21207206Y-8931150D02*
X21245301Y-8931150D01*
X21245301Y-8931150D02*
X21264349Y-8940674D01*
X21264349Y-8940674D02*
X21273873Y-8959722D01*
X21273873Y-8959722D02*
X21273873Y-8978770D01*
X21273873Y-8978770D02*
X21178635Y-8997817D01*
X21445301Y-9064484D02*
X21445301Y-8864484D01*
X21445301Y-9054960D02*
X21426254Y-9064484D01*
X21426254Y-9064484D02*
X21388158Y-9064484D01*
X21388158Y-9064484D02*
X21369111Y-9054960D01*
X21369111Y-9054960D02*
X21359587Y-9045436D01*
X21359587Y-9045436D02*
X21350063Y-9026389D01*
X21350063Y-9026389D02*
X21350063Y-8969246D01*
X21350063Y-8969246D02*
X21359587Y-8950198D01*
X21359587Y-8950198D02*
X21369111Y-8940674D01*
X21369111Y-8940674D02*
X21388158Y-8931150D01*
X21388158Y-8931150D02*
X21426254Y-8931150D01*
X21426254Y-8931150D02*
X21445301Y-8940674D01*
X21521492Y-9140674D02*
X21531016Y-9131150D01*
X21531016Y-9131150D02*
X21550063Y-9102579D01*
X21550063Y-9102579D02*
X21559587Y-9083531D01*
X21559587Y-9083531D02*
X21569111Y-9054960D01*
X21569111Y-9054960D02*
X21578635Y-9007341D01*
X21578635Y-9007341D02*
X21578635Y-8969246D01*
X21578635Y-8969246D02*
X21569111Y-8921627D01*
X21569111Y-8921627D02*
X21559587Y-8893055D01*
X21559587Y-8893055D02*
X21550063Y-8874008D01*
X21550063Y-8874008D02*
X21531016Y-8845436D01*
X21531016Y-8845436D02*
X21521492Y-8835912D01*
D13*
X14575000Y-9237000D02*
G75*
G03*
X14575000Y-9237000I-40000J0D01*
G01*
D11*
X14873872Y-9128484D02*
X14892920Y-9128484D01*
X14892920Y-9128484D02*
X14911967Y-9138008D01*
X14911967Y-9138008D02*
X14921491Y-9147531D01*
X14921491Y-9147531D02*
X14931015Y-9166579D01*
X14931015Y-9166579D02*
X14940539Y-9204674D01*
X14940539Y-9204674D02*
X14940539Y-9252293D01*
X14940539Y-9252293D02*
X14931015Y-9290389D01*
X14931015Y-9290389D02*
X14921491Y-9309436D01*
X14921491Y-9309436D02*
X14911967Y-9318960D01*
X14911967Y-9318960D02*
X14892920Y-9328484D01*
X14892920Y-9328484D02*
X14873872Y-9328484D01*
X14873872Y-9328484D02*
X14854824Y-9318960D01*
X14854824Y-9318960D02*
X14845301Y-9309436D01*
X14845301Y-9309436D02*
X14835777Y-9290389D01*
X14835777Y-9290389D02*
X14826253Y-9252293D01*
X14826253Y-9252293D02*
X14826253Y-9204674D01*
X14826253Y-9204674D02*
X14835777Y-9166579D01*
X14835777Y-9166579D02*
X14845301Y-9147531D01*
X14845301Y-9147531D02*
X14854824Y-9138008D01*
X14854824Y-9138008D02*
X14873872Y-9128484D01*
X15026253Y-9309436D02*
X15035777Y-9318960D01*
X15035777Y-9318960D02*
X15026253Y-9328484D01*
X15026253Y-9328484D02*
X15016729Y-9318960D01*
X15016729Y-9318960D02*
X15026253Y-9309436D01*
X15026253Y-9309436D02*
X15026253Y-9328484D01*
X15150062Y-9214198D02*
X15131015Y-9204674D01*
X15131015Y-9204674D02*
X15121491Y-9195150D01*
X15121491Y-9195150D02*
X15111967Y-9176103D01*
X15111967Y-9176103D02*
X15111967Y-9166579D01*
X15111967Y-9166579D02*
X15121491Y-9147531D01*
X15121491Y-9147531D02*
X15131015Y-9138008D01*
X15131015Y-9138008D02*
X15150062Y-9128484D01*
X15150062Y-9128484D02*
X15188158Y-9128484D01*
X15188158Y-9128484D02*
X15207205Y-9138008D01*
X15207205Y-9138008D02*
X15216729Y-9147531D01*
X15216729Y-9147531D02*
X15226253Y-9166579D01*
X15226253Y-9166579D02*
X15226253Y-9176103D01*
X15226253Y-9176103D02*
X15216729Y-9195150D01*
X15216729Y-9195150D02*
X15207205Y-9204674D01*
X15207205Y-9204674D02*
X15188158Y-9214198D01*
X15188158Y-9214198D02*
X15150062Y-9214198D01*
X15150062Y-9214198D02*
X15131015Y-9223722D01*
X15131015Y-9223722D02*
X15121491Y-9233246D01*
X15121491Y-9233246D02*
X15111967Y-9252293D01*
X15111967Y-9252293D02*
X15111967Y-9290389D01*
X15111967Y-9290389D02*
X15121491Y-9309436D01*
X15121491Y-9309436D02*
X15131015Y-9318960D01*
X15131015Y-9318960D02*
X15150062Y-9328484D01*
X15150062Y-9328484D02*
X15188158Y-9328484D01*
X15188158Y-9328484D02*
X15207205Y-9318960D01*
X15207205Y-9318960D02*
X15216729Y-9309436D01*
X15216729Y-9309436D02*
X15226253Y-9290389D01*
X15226253Y-9290389D02*
X15226253Y-9252293D01*
X15226253Y-9252293D02*
X15216729Y-9233246D01*
X15216729Y-9233246D02*
X15207205Y-9223722D01*
X15207205Y-9223722D02*
X15188158Y-9214198D01*
X15350062Y-9128484D02*
X15369110Y-9128484D01*
X15369110Y-9128484D02*
X15388158Y-9138008D01*
X15388158Y-9138008D02*
X15397682Y-9147531D01*
X15397682Y-9147531D02*
X15407205Y-9166579D01*
X15407205Y-9166579D02*
X15416729Y-9204674D01*
X15416729Y-9204674D02*
X15416729Y-9252293D01*
X15416729Y-9252293D02*
X15407205Y-9290389D01*
X15407205Y-9290389D02*
X15397682Y-9309436D01*
X15397682Y-9309436D02*
X15388158Y-9318960D01*
X15388158Y-9318960D02*
X15369110Y-9328484D01*
X15369110Y-9328484D02*
X15350062Y-9328484D01*
X15350062Y-9328484D02*
X15331015Y-9318960D01*
X15331015Y-9318960D02*
X15321491Y-9309436D01*
X15321491Y-9309436D02*
X15311967Y-9290389D01*
X15311967Y-9290389D02*
X15302443Y-9252293D01*
X15302443Y-9252293D02*
X15302443Y-9204674D01*
X15302443Y-9204674D02*
X15311967Y-9166579D01*
X15311967Y-9166579D02*
X15321491Y-9147531D01*
X15321491Y-9147531D02*
X15331015Y-9138008D01*
X15331015Y-9138008D02*
X15350062Y-9128484D01*
X15540539Y-9128484D02*
X15559586Y-9128484D01*
X15559586Y-9128484D02*
X15578634Y-9138008D01*
X15578634Y-9138008D02*
X15588158Y-9147531D01*
X15588158Y-9147531D02*
X15597682Y-9166579D01*
X15597682Y-9166579D02*
X15607205Y-9204674D01*
X15607205Y-9204674D02*
X15607205Y-9252293D01*
X15607205Y-9252293D02*
X15597682Y-9290389D01*
X15597682Y-9290389D02*
X15588158Y-9309436D01*
X15588158Y-9309436D02*
X15578634Y-9318960D01*
X15578634Y-9318960D02*
X15559586Y-9328484D01*
X15559586Y-9328484D02*
X15540539Y-9328484D01*
X15540539Y-9328484D02*
X15521491Y-9318960D01*
X15521491Y-9318960D02*
X15511967Y-9309436D01*
X15511967Y-9309436D02*
X15502443Y-9290389D01*
X15502443Y-9290389D02*
X15492920Y-9252293D01*
X15492920Y-9252293D02*
X15492920Y-9204674D01*
X15492920Y-9204674D02*
X15502443Y-9166579D01*
X15502443Y-9166579D02*
X15511967Y-9147531D01*
X15511967Y-9147531D02*
X15521491Y-9138008D01*
X15521491Y-9138008D02*
X15540539Y-9128484D01*
X15692920Y-9328484D02*
X15692920Y-9195150D01*
X15692920Y-9214198D02*
X15702443Y-9204674D01*
X15702443Y-9204674D02*
X15721491Y-9195150D01*
X15721491Y-9195150D02*
X15750063Y-9195150D01*
X15750063Y-9195150D02*
X15769110Y-9204674D01*
X15769110Y-9204674D02*
X15778634Y-9223722D01*
X15778634Y-9223722D02*
X15778634Y-9328484D01*
X15778634Y-9223722D02*
X15788158Y-9204674D01*
X15788158Y-9204674D02*
X15807205Y-9195150D01*
X15807205Y-9195150D02*
X15835777Y-9195150D01*
X15835777Y-9195150D02*
X15854824Y-9204674D01*
X15854824Y-9204674D02*
X15864348Y-9223722D01*
X15864348Y-9223722D02*
X15864348Y-9328484D01*
X15959586Y-9328484D02*
X15959586Y-9195150D01*
X15959586Y-9214198D02*
X15969110Y-9204674D01*
X15969110Y-9204674D02*
X15988158Y-9195150D01*
X15988158Y-9195150D02*
X16016729Y-9195150D01*
X16016729Y-9195150D02*
X16035777Y-9204674D01*
X16035777Y-9204674D02*
X16045301Y-9223722D01*
X16045301Y-9223722D02*
X16045301Y-9328484D01*
X16045301Y-9223722D02*
X16054824Y-9204674D01*
X16054824Y-9204674D02*
X16073872Y-9195150D01*
X16073872Y-9195150D02*
X16102443Y-9195150D01*
X16102443Y-9195150D02*
X16121491Y-9204674D01*
X16121491Y-9204674D02*
X16131015Y-9223722D01*
X16131015Y-9223722D02*
X16131015Y-9328484D01*
X16521491Y-9118960D02*
X16350063Y-9376103D01*
X16778634Y-9128484D02*
X16797682Y-9128484D01*
X16797682Y-9128484D02*
X16816729Y-9138008D01*
X16816729Y-9138008D02*
X16826253Y-9147531D01*
X16826253Y-9147531D02*
X16835777Y-9166579D01*
X16835777Y-9166579D02*
X16845301Y-9204674D01*
X16845301Y-9204674D02*
X16845301Y-9252293D01*
X16845301Y-9252293D02*
X16835777Y-9290389D01*
X16835777Y-9290389D02*
X16826253Y-9309436D01*
X16826253Y-9309436D02*
X16816729Y-9318960D01*
X16816729Y-9318960D02*
X16797682Y-9328484D01*
X16797682Y-9328484D02*
X16778634Y-9328484D01*
X16778634Y-9328484D02*
X16759586Y-9318960D01*
X16759586Y-9318960D02*
X16750063Y-9309436D01*
X16750063Y-9309436D02*
X16740539Y-9290389D01*
X16740539Y-9290389D02*
X16731015Y-9252293D01*
X16731015Y-9252293D02*
X16731015Y-9204674D01*
X16731015Y-9204674D02*
X16740539Y-9166579D01*
X16740539Y-9166579D02*
X16750063Y-9147531D01*
X16750063Y-9147531D02*
X16759586Y-9138008D01*
X16759586Y-9138008D02*
X16778634Y-9128484D01*
X16931015Y-9309436D02*
X16940539Y-9318960D01*
X16940539Y-9318960D02*
X16931015Y-9328484D01*
X16931015Y-9328484D02*
X16921491Y-9318960D01*
X16921491Y-9318960D02*
X16931015Y-9309436D01*
X16931015Y-9309436D02*
X16931015Y-9328484D01*
X17064348Y-9128484D02*
X17083396Y-9128484D01*
X17083396Y-9128484D02*
X17102444Y-9138008D01*
X17102444Y-9138008D02*
X17111968Y-9147531D01*
X17111968Y-9147531D02*
X17121491Y-9166579D01*
X17121491Y-9166579D02*
X17131015Y-9204674D01*
X17131015Y-9204674D02*
X17131015Y-9252293D01*
X17131015Y-9252293D02*
X17121491Y-9290389D01*
X17121491Y-9290389D02*
X17111968Y-9309436D01*
X17111968Y-9309436D02*
X17102444Y-9318960D01*
X17102444Y-9318960D02*
X17083396Y-9328484D01*
X17083396Y-9328484D02*
X17064348Y-9328484D01*
X17064348Y-9328484D02*
X17045301Y-9318960D01*
X17045301Y-9318960D02*
X17035777Y-9309436D01*
X17035777Y-9309436D02*
X17026253Y-9290389D01*
X17026253Y-9290389D02*
X17016729Y-9252293D01*
X17016729Y-9252293D02*
X17016729Y-9204674D01*
X17016729Y-9204674D02*
X17026253Y-9166579D01*
X17026253Y-9166579D02*
X17035777Y-9147531D01*
X17035777Y-9147531D02*
X17045301Y-9138008D01*
X17045301Y-9138008D02*
X17064348Y-9128484D01*
X17197682Y-9128484D02*
X17321491Y-9128484D01*
X17321491Y-9128484D02*
X17254825Y-9204674D01*
X17254825Y-9204674D02*
X17283396Y-9204674D01*
X17283396Y-9204674D02*
X17302444Y-9214198D01*
X17302444Y-9214198D02*
X17311968Y-9223722D01*
X17311968Y-9223722D02*
X17321491Y-9242770D01*
X17321491Y-9242770D02*
X17321491Y-9290389D01*
X17321491Y-9290389D02*
X17311968Y-9309436D01*
X17311968Y-9309436D02*
X17302444Y-9318960D01*
X17302444Y-9318960D02*
X17283396Y-9328484D01*
X17283396Y-9328484D02*
X17226253Y-9328484D01*
X17226253Y-9328484D02*
X17207206Y-9318960D01*
X17207206Y-9318960D02*
X17197682Y-9309436D01*
X17511968Y-9328484D02*
X17397682Y-9328484D01*
X17454825Y-9328484D02*
X17454825Y-9128484D01*
X17454825Y-9128484D02*
X17435777Y-9157055D01*
X17435777Y-9157055D02*
X17416729Y-9176103D01*
X17416729Y-9176103D02*
X17397682Y-9185627D01*
X17692920Y-9128484D02*
X17597682Y-9128484D01*
X17597682Y-9128484D02*
X17588158Y-9223722D01*
X17588158Y-9223722D02*
X17597682Y-9214198D01*
X17597682Y-9214198D02*
X17616729Y-9204674D01*
X17616729Y-9204674D02*
X17664349Y-9204674D01*
X17664349Y-9204674D02*
X17683396Y-9214198D01*
X17683396Y-9214198D02*
X17692920Y-9223722D01*
X17692920Y-9223722D02*
X17702444Y-9242770D01*
X17702444Y-9242770D02*
X17702444Y-9290389D01*
X17702444Y-9290389D02*
X17692920Y-9309436D01*
X17692920Y-9309436D02*
X17683396Y-9318960D01*
X17683396Y-9318960D02*
X17664349Y-9328484D01*
X17664349Y-9328484D02*
X17616729Y-9328484D01*
X17616729Y-9328484D02*
X17597682Y-9318960D01*
X17597682Y-9318960D02*
X17588158Y-9309436D01*
X17778634Y-9128484D02*
X17778634Y-9166579D01*
X17854825Y-9128484D02*
X17854825Y-9166579D01*
X18150063Y-9404674D02*
X18140539Y-9395150D01*
X18140539Y-9395150D02*
X18121491Y-9366579D01*
X18121491Y-9366579D02*
X18111968Y-9347531D01*
X18111968Y-9347531D02*
X18102444Y-9318960D01*
X18102444Y-9318960D02*
X18092920Y-9271341D01*
X18092920Y-9271341D02*
X18092920Y-9233246D01*
X18092920Y-9233246D02*
X18102444Y-9185627D01*
X18102444Y-9185627D02*
X18111968Y-9157055D01*
X18111968Y-9157055D02*
X18121491Y-9138008D01*
X18121491Y-9138008D02*
X18140539Y-9109436D01*
X18140539Y-9109436D02*
X18150063Y-9099912D01*
X18254825Y-9214198D02*
X18235777Y-9204674D01*
X18235777Y-9204674D02*
X18226253Y-9195150D01*
X18226253Y-9195150D02*
X18216730Y-9176103D01*
X18216730Y-9176103D02*
X18216730Y-9166579D01*
X18216730Y-9166579D02*
X18226253Y-9147531D01*
X18226253Y-9147531D02*
X18235777Y-9138008D01*
X18235777Y-9138008D02*
X18254825Y-9128484D01*
X18254825Y-9128484D02*
X18292920Y-9128484D01*
X18292920Y-9128484D02*
X18311968Y-9138008D01*
X18311968Y-9138008D02*
X18321491Y-9147531D01*
X18321491Y-9147531D02*
X18331015Y-9166579D01*
X18331015Y-9166579D02*
X18331015Y-9176103D01*
X18331015Y-9176103D02*
X18321491Y-9195150D01*
X18321491Y-9195150D02*
X18311968Y-9204674D01*
X18311968Y-9204674D02*
X18292920Y-9214198D01*
X18292920Y-9214198D02*
X18254825Y-9214198D01*
X18254825Y-9214198D02*
X18235777Y-9223722D01*
X18235777Y-9223722D02*
X18226253Y-9233246D01*
X18226253Y-9233246D02*
X18216730Y-9252293D01*
X18216730Y-9252293D02*
X18216730Y-9290389D01*
X18216730Y-9290389D02*
X18226253Y-9309436D01*
X18226253Y-9309436D02*
X18235777Y-9318960D01*
X18235777Y-9318960D02*
X18254825Y-9328484D01*
X18254825Y-9328484D02*
X18292920Y-9328484D01*
X18292920Y-9328484D02*
X18311968Y-9318960D01*
X18311968Y-9318960D02*
X18321491Y-9309436D01*
X18321491Y-9309436D02*
X18331015Y-9290389D01*
X18331015Y-9290389D02*
X18331015Y-9252293D01*
X18331015Y-9252293D02*
X18321491Y-9233246D01*
X18321491Y-9233246D02*
X18311968Y-9223722D01*
X18311968Y-9223722D02*
X18292920Y-9214198D01*
X18569111Y-9328484D02*
X18569111Y-9128484D01*
X18654825Y-9328484D02*
X18654825Y-9223722D01*
X18654825Y-9223722D02*
X18645301Y-9204674D01*
X18645301Y-9204674D02*
X18626253Y-9195150D01*
X18626253Y-9195150D02*
X18597682Y-9195150D01*
X18597682Y-9195150D02*
X18578634Y-9204674D01*
X18578634Y-9204674D02*
X18569111Y-9214198D01*
X18778634Y-9328484D02*
X18759587Y-9318960D01*
X18759587Y-9318960D02*
X18750063Y-9309436D01*
X18750063Y-9309436D02*
X18740539Y-9290389D01*
X18740539Y-9290389D02*
X18740539Y-9233246D01*
X18740539Y-9233246D02*
X18750063Y-9214198D01*
X18750063Y-9214198D02*
X18759587Y-9204674D01*
X18759587Y-9204674D02*
X18778634Y-9195150D01*
X18778634Y-9195150D02*
X18807206Y-9195150D01*
X18807206Y-9195150D02*
X18826253Y-9204674D01*
X18826253Y-9204674D02*
X18835777Y-9214198D01*
X18835777Y-9214198D02*
X18845301Y-9233246D01*
X18845301Y-9233246D02*
X18845301Y-9290389D01*
X18845301Y-9290389D02*
X18835777Y-9309436D01*
X18835777Y-9309436D02*
X18826253Y-9318960D01*
X18826253Y-9318960D02*
X18807206Y-9328484D01*
X18807206Y-9328484D02*
X18778634Y-9328484D01*
X18959587Y-9328484D02*
X18940539Y-9318960D01*
X18940539Y-9318960D02*
X18931015Y-9299912D01*
X18931015Y-9299912D02*
X18931015Y-9128484D01*
X19111968Y-9318960D02*
X19092920Y-9328484D01*
X19092920Y-9328484D02*
X19054825Y-9328484D01*
X19054825Y-9328484D02*
X19035777Y-9318960D01*
X19035777Y-9318960D02*
X19026253Y-9299912D01*
X19026253Y-9299912D02*
X19026253Y-9223722D01*
X19026253Y-9223722D02*
X19035777Y-9204674D01*
X19035777Y-9204674D02*
X19054825Y-9195150D01*
X19054825Y-9195150D02*
X19092920Y-9195150D01*
X19092920Y-9195150D02*
X19111968Y-9204674D01*
X19111968Y-9204674D02*
X19121492Y-9223722D01*
X19121492Y-9223722D02*
X19121492Y-9242770D01*
X19121492Y-9242770D02*
X19026253Y-9261817D01*
X19197682Y-9318960D02*
X19216730Y-9328484D01*
X19216730Y-9328484D02*
X19254825Y-9328484D01*
X19254825Y-9328484D02*
X19273873Y-9318960D01*
X19273873Y-9318960D02*
X19283396Y-9299912D01*
X19283396Y-9299912D02*
X19283396Y-9290389D01*
X19283396Y-9290389D02*
X19273873Y-9271341D01*
X19273873Y-9271341D02*
X19254825Y-9261817D01*
X19254825Y-9261817D02*
X19226253Y-9261817D01*
X19226253Y-9261817D02*
X19207206Y-9252293D01*
X19207206Y-9252293D02*
X19197682Y-9233246D01*
X19197682Y-9233246D02*
X19197682Y-9223722D01*
X19197682Y-9223722D02*
X19207206Y-9204674D01*
X19207206Y-9204674D02*
X19226253Y-9195150D01*
X19226253Y-9195150D02*
X19254825Y-9195150D01*
X19254825Y-9195150D02*
X19273873Y-9204674D01*
X19350063Y-9404674D02*
X19359587Y-9395150D01*
X19359587Y-9395150D02*
X19378634Y-9366579D01*
X19378634Y-9366579D02*
X19388158Y-9347531D01*
X19388158Y-9347531D02*
X19397682Y-9318960D01*
X19397682Y-9318960D02*
X19407206Y-9271341D01*
X19407206Y-9271341D02*
X19407206Y-9233246D01*
X19407206Y-9233246D02*
X19397682Y-9185627D01*
X19397682Y-9185627D02*
X19388158Y-9157055D01*
X19388158Y-9157055D02*
X19378634Y-9138008D01*
X19378634Y-9138008D02*
X19359587Y-9109436D01*
X19359587Y-9109436D02*
X19350063Y-9099912D01*
X19711968Y-9404674D02*
X19702444Y-9395150D01*
X19702444Y-9395150D02*
X19683396Y-9366579D01*
X19683396Y-9366579D02*
X19673873Y-9347531D01*
X19673873Y-9347531D02*
X19664349Y-9318960D01*
X19664349Y-9318960D02*
X19654825Y-9271341D01*
X19654825Y-9271341D02*
X19654825Y-9233246D01*
X19654825Y-9233246D02*
X19664349Y-9185627D01*
X19664349Y-9185627D02*
X19673873Y-9157055D01*
X19673873Y-9157055D02*
X19683396Y-9138008D01*
X19683396Y-9138008D02*
X19702444Y-9109436D01*
X19702444Y-9109436D02*
X19711968Y-9099912D01*
X19788158Y-9195150D02*
X19788158Y-9328484D01*
X19788158Y-9214198D02*
X19797682Y-9204674D01*
X19797682Y-9204674D02*
X19816730Y-9195150D01*
X19816730Y-9195150D02*
X19845301Y-9195150D01*
X19845301Y-9195150D02*
X19864349Y-9204674D01*
X19864349Y-9204674D02*
X19873873Y-9223722D01*
X19873873Y-9223722D02*
X19873873Y-9328484D01*
X19997682Y-9328484D02*
X19978634Y-9318960D01*
X19978634Y-9318960D02*
X19969111Y-9309436D01*
X19969111Y-9309436D02*
X19959587Y-9290389D01*
X19959587Y-9290389D02*
X19959587Y-9233246D01*
X19959587Y-9233246D02*
X19969111Y-9214198D01*
X19969111Y-9214198D02*
X19978634Y-9204674D01*
X19978634Y-9204674D02*
X19997682Y-9195150D01*
X19997682Y-9195150D02*
X20026254Y-9195150D01*
X20026254Y-9195150D02*
X20045301Y-9204674D01*
X20045301Y-9204674D02*
X20054825Y-9214198D01*
X20054825Y-9214198D02*
X20064349Y-9233246D01*
X20064349Y-9233246D02*
X20064349Y-9290389D01*
X20064349Y-9290389D02*
X20054825Y-9309436D01*
X20054825Y-9309436D02*
X20045301Y-9318960D01*
X20045301Y-9318960D02*
X20026254Y-9328484D01*
X20026254Y-9328484D02*
X19997682Y-9328484D01*
X20121492Y-9195150D02*
X20197682Y-9195150D01*
X20150063Y-9128484D02*
X20150063Y-9299912D01*
X20150063Y-9299912D02*
X20159587Y-9318960D01*
X20159587Y-9318960D02*
X20178634Y-9328484D01*
X20178634Y-9328484D02*
X20197682Y-9328484D01*
X20416730Y-9195150D02*
X20416730Y-9395150D01*
X20416730Y-9204674D02*
X20435777Y-9195150D01*
X20435777Y-9195150D02*
X20473873Y-9195150D01*
X20473873Y-9195150D02*
X20492920Y-9204674D01*
X20492920Y-9204674D02*
X20502444Y-9214198D01*
X20502444Y-9214198D02*
X20511968Y-9233246D01*
X20511968Y-9233246D02*
X20511968Y-9290389D01*
X20511968Y-9290389D02*
X20502444Y-9309436D01*
X20502444Y-9309436D02*
X20492920Y-9318960D01*
X20492920Y-9318960D02*
X20473873Y-9328484D01*
X20473873Y-9328484D02*
X20435777Y-9328484D01*
X20435777Y-9328484D02*
X20416730Y-9318960D01*
X20626254Y-9328484D02*
X20607206Y-9318960D01*
X20607206Y-9318960D02*
X20597682Y-9299912D01*
X20597682Y-9299912D02*
X20597682Y-9128484D01*
X20788158Y-9328484D02*
X20788158Y-9223722D01*
X20788158Y-9223722D02*
X20778635Y-9204674D01*
X20778635Y-9204674D02*
X20759587Y-9195150D01*
X20759587Y-9195150D02*
X20721492Y-9195150D01*
X20721492Y-9195150D02*
X20702444Y-9204674D01*
X20788158Y-9318960D02*
X20769111Y-9328484D01*
X20769111Y-9328484D02*
X20721492Y-9328484D01*
X20721492Y-9328484D02*
X20702444Y-9318960D01*
X20702444Y-9318960D02*
X20692920Y-9299912D01*
X20692920Y-9299912D02*
X20692920Y-9280865D01*
X20692920Y-9280865D02*
X20702444Y-9261817D01*
X20702444Y-9261817D02*
X20721492Y-9252293D01*
X20721492Y-9252293D02*
X20769111Y-9252293D01*
X20769111Y-9252293D02*
X20788158Y-9242770D01*
X20854825Y-9195150D02*
X20931015Y-9195150D01*
X20883396Y-9128484D02*
X20883396Y-9299912D01*
X20883396Y-9299912D02*
X20892920Y-9318960D01*
X20892920Y-9318960D02*
X20911968Y-9328484D01*
X20911968Y-9328484D02*
X20931015Y-9328484D01*
X21073873Y-9318960D02*
X21054825Y-9328484D01*
X21054825Y-9328484D02*
X21016730Y-9328484D01*
X21016730Y-9328484D02*
X20997682Y-9318960D01*
X20997682Y-9318960D02*
X20988158Y-9299912D01*
X20988158Y-9299912D02*
X20988158Y-9223722D01*
X20988158Y-9223722D02*
X20997682Y-9204674D01*
X20997682Y-9204674D02*
X21016730Y-9195150D01*
X21016730Y-9195150D02*
X21054825Y-9195150D01*
X21054825Y-9195150D02*
X21073873Y-9204674D01*
X21073873Y-9204674D02*
X21083396Y-9223722D01*
X21083396Y-9223722D02*
X21083396Y-9242770D01*
X21083396Y-9242770D02*
X20988158Y-9261817D01*
X21254825Y-9328484D02*
X21254825Y-9128484D01*
X21254825Y-9318960D02*
X21235777Y-9328484D01*
X21235777Y-9328484D02*
X21197682Y-9328484D01*
X21197682Y-9328484D02*
X21178635Y-9318960D01*
X21178635Y-9318960D02*
X21169111Y-9309436D01*
X21169111Y-9309436D02*
X21159587Y-9290389D01*
X21159587Y-9290389D02*
X21159587Y-9233246D01*
X21159587Y-9233246D02*
X21169111Y-9214198D01*
X21169111Y-9214198D02*
X21178635Y-9204674D01*
X21178635Y-9204674D02*
X21197682Y-9195150D01*
X21197682Y-9195150D02*
X21235777Y-9195150D01*
X21235777Y-9195150D02*
X21254825Y-9204674D01*
X21331016Y-9404674D02*
X21340539Y-9395150D01*
X21340539Y-9395150D02*
X21359587Y-9366579D01*
X21359587Y-9366579D02*
X21369111Y-9347531D01*
X21369111Y-9347531D02*
X21378635Y-9318960D01*
X21378635Y-9318960D02*
X21388158Y-9271341D01*
X21388158Y-9271341D02*
X21388158Y-9233246D01*
X21388158Y-9233246D02*
X21378635Y-9185627D01*
X21378635Y-9185627D02*
X21369111Y-9157055D01*
X21369111Y-9157055D02*
X21359587Y-9138008D01*
X21359587Y-9138008D02*
X21340539Y-9109436D01*
X21340539Y-9109436D02*
X21331016Y-9099912D01*
D14*
X14500000Y-9426000D02*
X14500000Y-9576000D01*
X14425000Y-9501000D02*
X14575000Y-9501000D01*
D11*
X14940539Y-9592484D02*
X14826253Y-9592484D01*
X14883396Y-9592484D02*
X14883396Y-9392484D01*
X14883396Y-9392484D02*
X14864348Y-9421055D01*
X14864348Y-9421055D02*
X14845301Y-9440103D01*
X14845301Y-9440103D02*
X14826253Y-9449627D01*
X15026253Y-9573436D02*
X15035777Y-9582960D01*
X15035777Y-9582960D02*
X15026253Y-9592484D01*
X15026253Y-9592484D02*
X15016729Y-9582960D01*
X15016729Y-9582960D02*
X15026253Y-9573436D01*
X15026253Y-9573436D02*
X15026253Y-9592484D01*
X15216729Y-9392484D02*
X15121491Y-9392484D01*
X15121491Y-9392484D02*
X15111967Y-9487722D01*
X15111967Y-9487722D02*
X15121491Y-9478198D01*
X15121491Y-9478198D02*
X15140539Y-9468674D01*
X15140539Y-9468674D02*
X15188158Y-9468674D01*
X15188158Y-9468674D02*
X15207205Y-9478198D01*
X15207205Y-9478198D02*
X15216729Y-9487722D01*
X15216729Y-9487722D02*
X15226253Y-9506770D01*
X15226253Y-9506770D02*
X15226253Y-9554389D01*
X15226253Y-9554389D02*
X15216729Y-9573436D01*
X15216729Y-9573436D02*
X15207205Y-9582960D01*
X15207205Y-9582960D02*
X15188158Y-9592484D01*
X15188158Y-9592484D02*
X15140539Y-9592484D01*
X15140539Y-9592484D02*
X15121491Y-9582960D01*
X15121491Y-9582960D02*
X15111967Y-9573436D01*
X15350062Y-9392484D02*
X15369110Y-9392484D01*
X15369110Y-9392484D02*
X15388158Y-9402008D01*
X15388158Y-9402008D02*
X15397682Y-9411531D01*
X15397682Y-9411531D02*
X15407205Y-9430579D01*
X15407205Y-9430579D02*
X15416729Y-9468674D01*
X15416729Y-9468674D02*
X15416729Y-9516293D01*
X15416729Y-9516293D02*
X15407205Y-9554389D01*
X15407205Y-9554389D02*
X15397682Y-9573436D01*
X15397682Y-9573436D02*
X15388158Y-9582960D01*
X15388158Y-9582960D02*
X15369110Y-9592484D01*
X15369110Y-9592484D02*
X15350062Y-9592484D01*
X15350062Y-9592484D02*
X15331015Y-9582960D01*
X15331015Y-9582960D02*
X15321491Y-9573436D01*
X15321491Y-9573436D02*
X15311967Y-9554389D01*
X15311967Y-9554389D02*
X15302443Y-9516293D01*
X15302443Y-9516293D02*
X15302443Y-9468674D01*
X15302443Y-9468674D02*
X15311967Y-9430579D01*
X15311967Y-9430579D02*
X15321491Y-9411531D01*
X15321491Y-9411531D02*
X15331015Y-9402008D01*
X15331015Y-9402008D02*
X15350062Y-9392484D01*
X15540539Y-9392484D02*
X15559586Y-9392484D01*
X15559586Y-9392484D02*
X15578634Y-9402008D01*
X15578634Y-9402008D02*
X15588158Y-9411531D01*
X15588158Y-9411531D02*
X15597682Y-9430579D01*
X15597682Y-9430579D02*
X15607205Y-9468674D01*
X15607205Y-9468674D02*
X15607205Y-9516293D01*
X15607205Y-9516293D02*
X15597682Y-9554389D01*
X15597682Y-9554389D02*
X15588158Y-9573436D01*
X15588158Y-9573436D02*
X15578634Y-9582960D01*
X15578634Y-9582960D02*
X15559586Y-9592484D01*
X15559586Y-9592484D02*
X15540539Y-9592484D01*
X15540539Y-9592484D02*
X15521491Y-9582960D01*
X15521491Y-9582960D02*
X15511967Y-9573436D01*
X15511967Y-9573436D02*
X15502443Y-9554389D01*
X15502443Y-9554389D02*
X15492920Y-9516293D01*
X15492920Y-9516293D02*
X15492920Y-9468674D01*
X15492920Y-9468674D02*
X15502443Y-9430579D01*
X15502443Y-9430579D02*
X15511967Y-9411531D01*
X15511967Y-9411531D02*
X15521491Y-9402008D01*
X15521491Y-9402008D02*
X15540539Y-9392484D01*
X15692920Y-9592484D02*
X15692920Y-9459150D01*
X15692920Y-9478198D02*
X15702443Y-9468674D01*
X15702443Y-9468674D02*
X15721491Y-9459150D01*
X15721491Y-9459150D02*
X15750063Y-9459150D01*
X15750063Y-9459150D02*
X15769110Y-9468674D01*
X15769110Y-9468674D02*
X15778634Y-9487722D01*
X15778634Y-9487722D02*
X15778634Y-9592484D01*
X15778634Y-9487722D02*
X15788158Y-9468674D01*
X15788158Y-9468674D02*
X15807205Y-9459150D01*
X15807205Y-9459150D02*
X15835777Y-9459150D01*
X15835777Y-9459150D02*
X15854824Y-9468674D01*
X15854824Y-9468674D02*
X15864348Y-9487722D01*
X15864348Y-9487722D02*
X15864348Y-9592484D01*
X15959586Y-9592484D02*
X15959586Y-9459150D01*
X15959586Y-9478198D02*
X15969110Y-9468674D01*
X15969110Y-9468674D02*
X15988158Y-9459150D01*
X15988158Y-9459150D02*
X16016729Y-9459150D01*
X16016729Y-9459150D02*
X16035777Y-9468674D01*
X16035777Y-9468674D02*
X16045301Y-9487722D01*
X16045301Y-9487722D02*
X16045301Y-9592484D01*
X16045301Y-9487722D02*
X16054824Y-9468674D01*
X16054824Y-9468674D02*
X16073872Y-9459150D01*
X16073872Y-9459150D02*
X16102443Y-9459150D01*
X16102443Y-9459150D02*
X16121491Y-9468674D01*
X16121491Y-9468674D02*
X16131015Y-9487722D01*
X16131015Y-9487722D02*
X16131015Y-9592484D01*
X16521491Y-9382960D02*
X16350063Y-9640103D01*
X16778634Y-9392484D02*
X16797682Y-9392484D01*
X16797682Y-9392484D02*
X16816729Y-9402008D01*
X16816729Y-9402008D02*
X16826253Y-9411531D01*
X16826253Y-9411531D02*
X16835777Y-9430579D01*
X16835777Y-9430579D02*
X16845301Y-9468674D01*
X16845301Y-9468674D02*
X16845301Y-9516293D01*
X16845301Y-9516293D02*
X16835777Y-9554389D01*
X16835777Y-9554389D02*
X16826253Y-9573436D01*
X16826253Y-9573436D02*
X16816729Y-9582960D01*
X16816729Y-9582960D02*
X16797682Y-9592484D01*
X16797682Y-9592484D02*
X16778634Y-9592484D01*
X16778634Y-9592484D02*
X16759586Y-9582960D01*
X16759586Y-9582960D02*
X16750063Y-9573436D01*
X16750063Y-9573436D02*
X16740539Y-9554389D01*
X16740539Y-9554389D02*
X16731015Y-9516293D01*
X16731015Y-9516293D02*
X16731015Y-9468674D01*
X16731015Y-9468674D02*
X16740539Y-9430579D01*
X16740539Y-9430579D02*
X16750063Y-9411531D01*
X16750063Y-9411531D02*
X16759586Y-9402008D01*
X16759586Y-9402008D02*
X16778634Y-9392484D01*
X16931015Y-9573436D02*
X16940539Y-9582960D01*
X16940539Y-9582960D02*
X16931015Y-9592484D01*
X16931015Y-9592484D02*
X16921491Y-9582960D01*
X16921491Y-9582960D02*
X16931015Y-9573436D01*
X16931015Y-9573436D02*
X16931015Y-9592484D01*
X17064348Y-9392484D02*
X17083396Y-9392484D01*
X17083396Y-9392484D02*
X17102444Y-9402008D01*
X17102444Y-9402008D02*
X17111968Y-9411531D01*
X17111968Y-9411531D02*
X17121491Y-9430579D01*
X17121491Y-9430579D02*
X17131015Y-9468674D01*
X17131015Y-9468674D02*
X17131015Y-9516293D01*
X17131015Y-9516293D02*
X17121491Y-9554389D01*
X17121491Y-9554389D02*
X17111968Y-9573436D01*
X17111968Y-9573436D02*
X17102444Y-9582960D01*
X17102444Y-9582960D02*
X17083396Y-9592484D01*
X17083396Y-9592484D02*
X17064348Y-9592484D01*
X17064348Y-9592484D02*
X17045301Y-9582960D01*
X17045301Y-9582960D02*
X17035777Y-9573436D01*
X17035777Y-9573436D02*
X17026253Y-9554389D01*
X17026253Y-9554389D02*
X17016729Y-9516293D01*
X17016729Y-9516293D02*
X17016729Y-9468674D01*
X17016729Y-9468674D02*
X17026253Y-9430579D01*
X17026253Y-9430579D02*
X17035777Y-9411531D01*
X17035777Y-9411531D02*
X17045301Y-9402008D01*
X17045301Y-9402008D02*
X17064348Y-9392484D01*
X17311968Y-9392484D02*
X17216729Y-9392484D01*
X17216729Y-9392484D02*
X17207206Y-9487722D01*
X17207206Y-9487722D02*
X17216729Y-9478198D01*
X17216729Y-9478198D02*
X17235777Y-9468674D01*
X17235777Y-9468674D02*
X17283396Y-9468674D01*
X17283396Y-9468674D02*
X17302444Y-9478198D01*
X17302444Y-9478198D02*
X17311968Y-9487722D01*
X17311968Y-9487722D02*
X17321491Y-9506770D01*
X17321491Y-9506770D02*
X17321491Y-9554389D01*
X17321491Y-9554389D02*
X17311968Y-9573436D01*
X17311968Y-9573436D02*
X17302444Y-9582960D01*
X17302444Y-9582960D02*
X17283396Y-9592484D01*
X17283396Y-9592484D02*
X17235777Y-9592484D01*
X17235777Y-9592484D02*
X17216729Y-9582960D01*
X17216729Y-9582960D02*
X17207206Y-9573436D01*
X17416729Y-9592484D02*
X17454825Y-9592484D01*
X17454825Y-9592484D02*
X17473872Y-9582960D01*
X17473872Y-9582960D02*
X17483396Y-9573436D01*
X17483396Y-9573436D02*
X17502444Y-9544865D01*
X17502444Y-9544865D02*
X17511968Y-9506770D01*
X17511968Y-9506770D02*
X17511968Y-9430579D01*
X17511968Y-9430579D02*
X17502444Y-9411531D01*
X17502444Y-9411531D02*
X17492920Y-9402008D01*
X17492920Y-9402008D02*
X17473872Y-9392484D01*
X17473872Y-9392484D02*
X17435777Y-9392484D01*
X17435777Y-9392484D02*
X17416729Y-9402008D01*
X17416729Y-9402008D02*
X17407206Y-9411531D01*
X17407206Y-9411531D02*
X17397682Y-9430579D01*
X17397682Y-9430579D02*
X17397682Y-9478198D01*
X17397682Y-9478198D02*
X17407206Y-9497246D01*
X17407206Y-9497246D02*
X17416729Y-9506770D01*
X17416729Y-9506770D02*
X17435777Y-9516293D01*
X17435777Y-9516293D02*
X17473872Y-9516293D01*
X17473872Y-9516293D02*
X17492920Y-9506770D01*
X17492920Y-9506770D02*
X17502444Y-9497246D01*
X17502444Y-9497246D02*
X17511968Y-9478198D01*
X17702444Y-9592484D02*
X17588158Y-9592484D01*
X17645301Y-9592484D02*
X17645301Y-9392484D01*
X17645301Y-9392484D02*
X17626253Y-9421055D01*
X17626253Y-9421055D02*
X17607206Y-9440103D01*
X17607206Y-9440103D02*
X17588158Y-9449627D01*
X17778634Y-9392484D02*
X17778634Y-9430579D01*
X17854825Y-9392484D02*
X17854825Y-9430579D01*
X18150063Y-9668674D02*
X18140539Y-9659150D01*
X18140539Y-9659150D02*
X18121491Y-9630579D01*
X18121491Y-9630579D02*
X18111968Y-9611531D01*
X18111968Y-9611531D02*
X18102444Y-9582960D01*
X18102444Y-9582960D02*
X18092920Y-9535341D01*
X18092920Y-9535341D02*
X18092920Y-9497246D01*
X18092920Y-9497246D02*
X18102444Y-9449627D01*
X18102444Y-9449627D02*
X18111968Y-9421055D01*
X18111968Y-9421055D02*
X18121491Y-9402008D01*
X18121491Y-9402008D02*
X18140539Y-9373436D01*
X18140539Y-9373436D02*
X18150063Y-9363912D01*
X18264349Y-9392484D02*
X18283396Y-9392484D01*
X18283396Y-9392484D02*
X18302444Y-9402008D01*
X18302444Y-9402008D02*
X18311968Y-9411531D01*
X18311968Y-9411531D02*
X18321491Y-9430579D01*
X18321491Y-9430579D02*
X18331015Y-9468674D01*
X18331015Y-9468674D02*
X18331015Y-9516293D01*
X18331015Y-9516293D02*
X18321491Y-9554389D01*
X18321491Y-9554389D02*
X18311968Y-9573436D01*
X18311968Y-9573436D02*
X18302444Y-9582960D01*
X18302444Y-9582960D02*
X18283396Y-9592484D01*
X18283396Y-9592484D02*
X18264349Y-9592484D01*
X18264349Y-9592484D02*
X18245301Y-9582960D01*
X18245301Y-9582960D02*
X18235777Y-9573436D01*
X18235777Y-9573436D02*
X18226253Y-9554389D01*
X18226253Y-9554389D02*
X18216730Y-9516293D01*
X18216730Y-9516293D02*
X18216730Y-9468674D01*
X18216730Y-9468674D02*
X18226253Y-9430579D01*
X18226253Y-9430579D02*
X18235777Y-9411531D01*
X18235777Y-9411531D02*
X18245301Y-9402008D01*
X18245301Y-9402008D02*
X18264349Y-9392484D01*
X18569111Y-9592484D02*
X18569111Y-9392484D01*
X18654825Y-9592484D02*
X18654825Y-9487722D01*
X18654825Y-9487722D02*
X18645301Y-9468674D01*
X18645301Y-9468674D02*
X18626253Y-9459150D01*
X18626253Y-9459150D02*
X18597682Y-9459150D01*
X18597682Y-9459150D02*
X18578634Y-9468674D01*
X18578634Y-9468674D02*
X18569111Y-9478198D01*
X18778634Y-9592484D02*
X18759587Y-9582960D01*
X18759587Y-9582960D02*
X18750063Y-9573436D01*
X18750063Y-9573436D02*
X18740539Y-9554389D01*
X18740539Y-9554389D02*
X18740539Y-9497246D01*
X18740539Y-9497246D02*
X18750063Y-9478198D01*
X18750063Y-9478198D02*
X18759587Y-9468674D01*
X18759587Y-9468674D02*
X18778634Y-9459150D01*
X18778634Y-9459150D02*
X18807206Y-9459150D01*
X18807206Y-9459150D02*
X18826253Y-9468674D01*
X18826253Y-9468674D02*
X18835777Y-9478198D01*
X18835777Y-9478198D02*
X18845301Y-9497246D01*
X18845301Y-9497246D02*
X18845301Y-9554389D01*
X18845301Y-9554389D02*
X18835777Y-9573436D01*
X18835777Y-9573436D02*
X18826253Y-9582960D01*
X18826253Y-9582960D02*
X18807206Y-9592484D01*
X18807206Y-9592484D02*
X18778634Y-9592484D01*
X18959587Y-9592484D02*
X18940539Y-9582960D01*
X18940539Y-9582960D02*
X18931015Y-9563912D01*
X18931015Y-9563912D02*
X18931015Y-9392484D01*
X19111968Y-9582960D02*
X19092920Y-9592484D01*
X19092920Y-9592484D02*
X19054825Y-9592484D01*
X19054825Y-9592484D02*
X19035777Y-9582960D01*
X19035777Y-9582960D02*
X19026253Y-9563912D01*
X19026253Y-9563912D02*
X19026253Y-9487722D01*
X19026253Y-9487722D02*
X19035777Y-9468674D01*
X19035777Y-9468674D02*
X19054825Y-9459150D01*
X19054825Y-9459150D02*
X19092920Y-9459150D01*
X19092920Y-9459150D02*
X19111968Y-9468674D01*
X19111968Y-9468674D02*
X19121492Y-9487722D01*
X19121492Y-9487722D02*
X19121492Y-9506770D01*
X19121492Y-9506770D02*
X19026253Y-9525817D01*
X19197682Y-9582960D02*
X19216730Y-9592484D01*
X19216730Y-9592484D02*
X19254825Y-9592484D01*
X19254825Y-9592484D02*
X19273873Y-9582960D01*
X19273873Y-9582960D02*
X19283396Y-9563912D01*
X19283396Y-9563912D02*
X19283396Y-9554389D01*
X19283396Y-9554389D02*
X19273873Y-9535341D01*
X19273873Y-9535341D02*
X19254825Y-9525817D01*
X19254825Y-9525817D02*
X19226253Y-9525817D01*
X19226253Y-9525817D02*
X19207206Y-9516293D01*
X19207206Y-9516293D02*
X19197682Y-9497246D01*
X19197682Y-9497246D02*
X19197682Y-9487722D01*
X19197682Y-9487722D02*
X19207206Y-9468674D01*
X19207206Y-9468674D02*
X19226253Y-9459150D01*
X19226253Y-9459150D02*
X19254825Y-9459150D01*
X19254825Y-9459150D02*
X19273873Y-9468674D01*
X19521492Y-9516293D02*
X19673873Y-9516293D01*
X19597682Y-9592484D02*
X19597682Y-9440103D01*
X19911968Y-9411531D02*
X19921492Y-9402008D01*
X19921492Y-9402008D02*
X19940539Y-9392484D01*
X19940539Y-9392484D02*
X19988158Y-9392484D01*
X19988158Y-9392484D02*
X20007206Y-9402008D01*
X20007206Y-9402008D02*
X20016730Y-9411531D01*
X20016730Y-9411531D02*
X20026254Y-9430579D01*
X20026254Y-9430579D02*
X20026254Y-9449627D01*
X20026254Y-9449627D02*
X20016730Y-9478198D01*
X20016730Y-9478198D02*
X19902444Y-9592484D01*
X19902444Y-9592484D02*
X20026254Y-9592484D01*
X20254825Y-9582960D02*
X20273873Y-9592484D01*
X20273873Y-9592484D02*
X20311968Y-9592484D01*
X20311968Y-9592484D02*
X20331016Y-9582960D01*
X20331016Y-9582960D02*
X20340539Y-9563912D01*
X20340539Y-9563912D02*
X20340539Y-9554389D01*
X20340539Y-9554389D02*
X20331016Y-9535341D01*
X20331016Y-9535341D02*
X20311968Y-9525817D01*
X20311968Y-9525817D02*
X20283396Y-9525817D01*
X20283396Y-9525817D02*
X20264349Y-9516293D01*
X20264349Y-9516293D02*
X20254825Y-9497246D01*
X20254825Y-9497246D02*
X20254825Y-9487722D01*
X20254825Y-9487722D02*
X20264349Y-9468674D01*
X20264349Y-9468674D02*
X20283396Y-9459150D01*
X20283396Y-9459150D02*
X20311968Y-9459150D01*
X20311968Y-9459150D02*
X20331016Y-9468674D01*
X20454825Y-9592484D02*
X20435777Y-9582960D01*
X20435777Y-9582960D02*
X20426254Y-9563912D01*
X20426254Y-9563912D02*
X20426254Y-9392484D01*
X20559587Y-9592484D02*
X20540539Y-9582960D01*
X20540539Y-9582960D02*
X20531016Y-9573436D01*
X20531016Y-9573436D02*
X20521492Y-9554389D01*
X20521492Y-9554389D02*
X20521492Y-9497246D01*
X20521492Y-9497246D02*
X20531016Y-9478198D01*
X20531016Y-9478198D02*
X20540539Y-9468674D01*
X20540539Y-9468674D02*
X20559587Y-9459150D01*
X20559587Y-9459150D02*
X20588158Y-9459150D01*
X20588158Y-9459150D02*
X20607206Y-9468674D01*
X20607206Y-9468674D02*
X20616730Y-9478198D01*
X20616730Y-9478198D02*
X20626254Y-9497246D01*
X20626254Y-9497246D02*
X20626254Y-9554389D01*
X20626254Y-9554389D02*
X20616730Y-9573436D01*
X20616730Y-9573436D02*
X20607206Y-9582960D01*
X20607206Y-9582960D02*
X20588158Y-9592484D01*
X20588158Y-9592484D02*
X20559587Y-9592484D01*
X20683397Y-9459150D02*
X20759587Y-9459150D01*
X20711968Y-9392484D02*
X20711968Y-9563912D01*
X20711968Y-9563912D02*
X20721492Y-9582960D01*
X20721492Y-9582960D02*
X20740539Y-9592484D01*
X20740539Y-9592484D02*
X20759587Y-9592484D01*
X20816730Y-9582960D02*
X20835777Y-9592484D01*
X20835777Y-9592484D02*
X20873873Y-9592484D01*
X20873873Y-9592484D02*
X20892920Y-9582960D01*
X20892920Y-9582960D02*
X20902444Y-9563912D01*
X20902444Y-9563912D02*
X20902444Y-9554389D01*
X20902444Y-9554389D02*
X20892920Y-9535341D01*
X20892920Y-9535341D02*
X20873873Y-9525817D01*
X20873873Y-9525817D02*
X20845301Y-9525817D01*
X20845301Y-9525817D02*
X20826254Y-9516293D01*
X20826254Y-9516293D02*
X20816730Y-9497246D01*
X20816730Y-9497246D02*
X20816730Y-9487722D01*
X20816730Y-9487722D02*
X20826254Y-9468674D01*
X20826254Y-9468674D02*
X20845301Y-9459150D01*
X20845301Y-9459150D02*
X20873873Y-9459150D01*
X20873873Y-9459150D02*
X20892920Y-9468674D01*
X20969111Y-9668674D02*
X20978635Y-9659150D01*
X20978635Y-9659150D02*
X20997682Y-9630579D01*
X20997682Y-9630579D02*
X21007206Y-9611531D01*
X21007206Y-9611531D02*
X21016730Y-9582960D01*
X21016730Y-9582960D02*
X21026254Y-9535341D01*
X21026254Y-9535341D02*
X21026254Y-9497246D01*
X21026254Y-9497246D02*
X21016730Y-9449627D01*
X21016730Y-9449627D02*
X21007206Y-9421055D01*
X21007206Y-9421055D02*
X20997682Y-9402008D01*
X20997682Y-9402008D02*
X20978635Y-9373436D01*
X20978635Y-9373436D02*
X20969111Y-9363912D01*
X21331016Y-9668674D02*
X21321492Y-9659150D01*
X21321492Y-9659150D02*
X21302444Y-9630579D01*
X21302444Y-9630579D02*
X21292920Y-9611531D01*
X21292920Y-9611531D02*
X21283397Y-9582960D01*
X21283397Y-9582960D02*
X21273873Y-9535341D01*
X21273873Y-9535341D02*
X21273873Y-9497246D01*
X21273873Y-9497246D02*
X21283397Y-9449627D01*
X21283397Y-9449627D02*
X21292920Y-9421055D01*
X21292920Y-9421055D02*
X21302444Y-9402008D01*
X21302444Y-9402008D02*
X21321492Y-9373436D01*
X21321492Y-9373436D02*
X21331016Y-9363912D01*
X21407206Y-9459150D02*
X21407206Y-9592484D01*
X21407206Y-9478198D02*
X21416730Y-9468674D01*
X21416730Y-9468674D02*
X21435777Y-9459150D01*
X21435777Y-9459150D02*
X21464349Y-9459150D01*
X21464349Y-9459150D02*
X21483397Y-9468674D01*
X21483397Y-9468674D02*
X21492920Y-9487722D01*
X21492920Y-9487722D02*
X21492920Y-9592484D01*
X21616730Y-9592484D02*
X21597682Y-9582960D01*
X21597682Y-9582960D02*
X21588158Y-9573436D01*
X21588158Y-9573436D02*
X21578635Y-9554389D01*
X21578635Y-9554389D02*
X21578635Y-9497246D01*
X21578635Y-9497246D02*
X21588158Y-9478198D01*
X21588158Y-9478198D02*
X21597682Y-9468674D01*
X21597682Y-9468674D02*
X21616730Y-9459150D01*
X21616730Y-9459150D02*
X21645301Y-9459150D01*
X21645301Y-9459150D02*
X21664349Y-9468674D01*
X21664349Y-9468674D02*
X21673873Y-9478198D01*
X21673873Y-9478198D02*
X21683397Y-9497246D01*
X21683397Y-9497246D02*
X21683397Y-9554389D01*
X21683397Y-9554389D02*
X21673873Y-9573436D01*
X21673873Y-9573436D02*
X21664349Y-9582960D01*
X21664349Y-9582960D02*
X21645301Y-9592484D01*
X21645301Y-9592484D02*
X21616730Y-9592484D01*
X21740539Y-9459150D02*
X21816730Y-9459150D01*
X21769111Y-9392484D02*
X21769111Y-9563912D01*
X21769111Y-9563912D02*
X21778635Y-9582960D01*
X21778635Y-9582960D02*
X21797682Y-9592484D01*
X21797682Y-9592484D02*
X21816730Y-9592484D01*
X22035778Y-9459150D02*
X22035778Y-9659150D01*
X22035778Y-9468674D02*
X22054825Y-9459150D01*
X22054825Y-9459150D02*
X22092920Y-9459150D01*
X22092920Y-9459150D02*
X22111968Y-9468674D01*
X22111968Y-9468674D02*
X22121492Y-9478198D01*
X22121492Y-9478198D02*
X22131016Y-9497246D01*
X22131016Y-9497246D02*
X22131016Y-9554389D01*
X22131016Y-9554389D02*
X22121492Y-9573436D01*
X22121492Y-9573436D02*
X22111968Y-9582960D01*
X22111968Y-9582960D02*
X22092920Y-9592484D01*
X22092920Y-9592484D02*
X22054825Y-9592484D01*
X22054825Y-9592484D02*
X22035778Y-9582960D01*
X22245301Y-9592484D02*
X22226254Y-9582960D01*
X22226254Y-9582960D02*
X22216730Y-9563912D01*
X22216730Y-9563912D02*
X22216730Y-9392484D01*
X22407206Y-9592484D02*
X22407206Y-9487722D01*
X22407206Y-9487722D02*
X22397682Y-9468674D01*
X22397682Y-9468674D02*
X22378635Y-9459150D01*
X22378635Y-9459150D02*
X22340539Y-9459150D01*
X22340539Y-9459150D02*
X22321492Y-9468674D01*
X22407206Y-9582960D02*
X22388158Y-9592484D01*
X22388158Y-9592484D02*
X22340539Y-9592484D01*
X22340539Y-9592484D02*
X22321492Y-9582960D01*
X22321492Y-9582960D02*
X22311968Y-9563912D01*
X22311968Y-9563912D02*
X22311968Y-9544865D01*
X22311968Y-9544865D02*
X22321492Y-9525817D01*
X22321492Y-9525817D02*
X22340539Y-9516293D01*
X22340539Y-9516293D02*
X22388158Y-9516293D01*
X22388158Y-9516293D02*
X22407206Y-9506770D01*
X22473873Y-9459150D02*
X22550063Y-9459150D01*
X22502444Y-9392484D02*
X22502444Y-9563912D01*
X22502444Y-9563912D02*
X22511968Y-9582960D01*
X22511968Y-9582960D02*
X22531016Y-9592484D01*
X22531016Y-9592484D02*
X22550063Y-9592484D01*
X22692920Y-9582960D02*
X22673873Y-9592484D01*
X22673873Y-9592484D02*
X22635777Y-9592484D01*
X22635777Y-9592484D02*
X22616730Y-9582960D01*
X22616730Y-9582960D02*
X22607206Y-9563912D01*
X22607206Y-9563912D02*
X22607206Y-9487722D01*
X22607206Y-9487722D02*
X22616730Y-9468674D01*
X22616730Y-9468674D02*
X22635777Y-9459150D01*
X22635777Y-9459150D02*
X22673873Y-9459150D01*
X22673873Y-9459150D02*
X22692920Y-9468674D01*
X22692920Y-9468674D02*
X22702444Y-9487722D01*
X22702444Y-9487722D02*
X22702444Y-9506770D01*
X22702444Y-9506770D02*
X22607206Y-9525817D01*
X22873873Y-9592484D02*
X22873873Y-9392484D01*
X22873873Y-9582960D02*
X22854825Y-9592484D01*
X22854825Y-9592484D02*
X22816730Y-9592484D01*
X22816730Y-9592484D02*
X22797682Y-9582960D01*
X22797682Y-9582960D02*
X22788158Y-9573436D01*
X22788158Y-9573436D02*
X22778635Y-9554389D01*
X22778635Y-9554389D02*
X22778635Y-9497246D01*
X22778635Y-9497246D02*
X22788158Y-9478198D01*
X22788158Y-9478198D02*
X22797682Y-9468674D01*
X22797682Y-9468674D02*
X22816730Y-9459150D01*
X22816730Y-9459150D02*
X22854825Y-9459150D01*
X22854825Y-9459150D02*
X22873873Y-9468674D01*
X22950063Y-9668674D02*
X22959587Y-9659150D01*
X22959587Y-9659150D02*
X22978635Y-9630579D01*
X22978635Y-9630579D02*
X22988158Y-9611531D01*
X22988158Y-9611531D02*
X22997682Y-9582960D01*
X22997682Y-9582960D02*
X23007206Y-9535341D01*
X23007206Y-9535341D02*
X23007206Y-9497246D01*
X23007206Y-9497246D02*
X22997682Y-9449627D01*
X22997682Y-9449627D02*
X22988158Y-9421055D01*
X22988158Y-9421055D02*
X22978635Y-9402008D01*
X22978635Y-9402008D02*
X22959587Y-9373436D01*
X22959587Y-9373436D02*
X22950063Y-9363912D01*
X14545711Y-9841711D02*
X14545711Y-9700289D01*
X14404289Y-9700289D01*
X14404289Y-9841711D01*
X14545711Y-9841711D01*
X14826253Y-9681531D02*
X14835777Y-9672008D01*
X14835777Y-9672008D02*
X14854824Y-9662484D01*
X14854824Y-9662484D02*
X14902443Y-9662484D01*
X14902443Y-9662484D02*
X14921491Y-9672008D01*
X14921491Y-9672008D02*
X14931015Y-9681531D01*
X14931015Y-9681531D02*
X14940539Y-9700579D01*
X14940539Y-9700579D02*
X14940539Y-9719627D01*
X14940539Y-9719627D02*
X14931015Y-9748198D01*
X14931015Y-9748198D02*
X14816729Y-9862484D01*
X14816729Y-9862484D02*
X14940539Y-9862484D01*
X15026253Y-9843436D02*
X15035777Y-9852960D01*
X15035777Y-9852960D02*
X15026253Y-9862484D01*
X15026253Y-9862484D02*
X15016729Y-9852960D01*
X15016729Y-9852960D02*
X15026253Y-9843436D01*
X15026253Y-9843436D02*
X15026253Y-9862484D01*
X15111967Y-9681531D02*
X15121491Y-9672008D01*
X15121491Y-9672008D02*
X15140539Y-9662484D01*
X15140539Y-9662484D02*
X15188158Y-9662484D01*
X15188158Y-9662484D02*
X15207205Y-9672008D01*
X15207205Y-9672008D02*
X15216729Y-9681531D01*
X15216729Y-9681531D02*
X15226253Y-9700579D01*
X15226253Y-9700579D02*
X15226253Y-9719627D01*
X15226253Y-9719627D02*
X15216729Y-9748198D01*
X15216729Y-9748198D02*
X15102443Y-9862484D01*
X15102443Y-9862484D02*
X15226253Y-9862484D01*
X15350062Y-9662484D02*
X15369110Y-9662484D01*
X15369110Y-9662484D02*
X15388158Y-9672008D01*
X15388158Y-9672008D02*
X15397682Y-9681531D01*
X15397682Y-9681531D02*
X15407205Y-9700579D01*
X15407205Y-9700579D02*
X15416729Y-9738674D01*
X15416729Y-9738674D02*
X15416729Y-9786293D01*
X15416729Y-9786293D02*
X15407205Y-9824389D01*
X15407205Y-9824389D02*
X15397682Y-9843436D01*
X15397682Y-9843436D02*
X15388158Y-9852960D01*
X15388158Y-9852960D02*
X15369110Y-9862484D01*
X15369110Y-9862484D02*
X15350062Y-9862484D01*
X15350062Y-9862484D02*
X15331015Y-9852960D01*
X15331015Y-9852960D02*
X15321491Y-9843436D01*
X15321491Y-9843436D02*
X15311967Y-9824389D01*
X15311967Y-9824389D02*
X15302443Y-9786293D01*
X15302443Y-9786293D02*
X15302443Y-9738674D01*
X15302443Y-9738674D02*
X15311967Y-9700579D01*
X15311967Y-9700579D02*
X15321491Y-9681531D01*
X15321491Y-9681531D02*
X15331015Y-9672008D01*
X15331015Y-9672008D02*
X15350062Y-9662484D01*
X15540539Y-9662484D02*
X15559586Y-9662484D01*
X15559586Y-9662484D02*
X15578634Y-9672008D01*
X15578634Y-9672008D02*
X15588158Y-9681531D01*
X15588158Y-9681531D02*
X15597682Y-9700579D01*
X15597682Y-9700579D02*
X15607205Y-9738674D01*
X15607205Y-9738674D02*
X15607205Y-9786293D01*
X15607205Y-9786293D02*
X15597682Y-9824389D01*
X15597682Y-9824389D02*
X15588158Y-9843436D01*
X15588158Y-9843436D02*
X15578634Y-9852960D01*
X15578634Y-9852960D02*
X15559586Y-9862484D01*
X15559586Y-9862484D02*
X15540539Y-9862484D01*
X15540539Y-9862484D02*
X15521491Y-9852960D01*
X15521491Y-9852960D02*
X15511967Y-9843436D01*
X15511967Y-9843436D02*
X15502443Y-9824389D01*
X15502443Y-9824389D02*
X15492920Y-9786293D01*
X15492920Y-9786293D02*
X15492920Y-9738674D01*
X15492920Y-9738674D02*
X15502443Y-9700579D01*
X15502443Y-9700579D02*
X15511967Y-9681531D01*
X15511967Y-9681531D02*
X15521491Y-9672008D01*
X15521491Y-9672008D02*
X15540539Y-9662484D01*
X15692920Y-9862484D02*
X15692920Y-9729150D01*
X15692920Y-9748198D02*
X15702443Y-9738674D01*
X15702443Y-9738674D02*
X15721491Y-9729150D01*
X15721491Y-9729150D02*
X15750063Y-9729150D01*
X15750063Y-9729150D02*
X15769110Y-9738674D01*
X15769110Y-9738674D02*
X15778634Y-9757722D01*
X15778634Y-9757722D02*
X15778634Y-9862484D01*
X15778634Y-9757722D02*
X15788158Y-9738674D01*
X15788158Y-9738674D02*
X15807205Y-9729150D01*
X15807205Y-9729150D02*
X15835777Y-9729150D01*
X15835777Y-9729150D02*
X15854824Y-9738674D01*
X15854824Y-9738674D02*
X15864348Y-9757722D01*
X15864348Y-9757722D02*
X15864348Y-9862484D01*
X15959586Y-9862484D02*
X15959586Y-9729150D01*
X15959586Y-9748198D02*
X15969110Y-9738674D01*
X15969110Y-9738674D02*
X15988158Y-9729150D01*
X15988158Y-9729150D02*
X16016729Y-9729150D01*
X16016729Y-9729150D02*
X16035777Y-9738674D01*
X16035777Y-9738674D02*
X16045301Y-9757722D01*
X16045301Y-9757722D02*
X16045301Y-9862484D01*
X16045301Y-9757722D02*
X16054824Y-9738674D01*
X16054824Y-9738674D02*
X16073872Y-9729150D01*
X16073872Y-9729150D02*
X16102443Y-9729150D01*
X16102443Y-9729150D02*
X16121491Y-9738674D01*
X16121491Y-9738674D02*
X16131015Y-9757722D01*
X16131015Y-9757722D02*
X16131015Y-9862484D01*
X16521491Y-9652960D02*
X16350063Y-9910103D01*
X16778634Y-9662484D02*
X16797682Y-9662484D01*
X16797682Y-9662484D02*
X16816729Y-9672008D01*
X16816729Y-9672008D02*
X16826253Y-9681531D01*
X16826253Y-9681531D02*
X16835777Y-9700579D01*
X16835777Y-9700579D02*
X16845301Y-9738674D01*
X16845301Y-9738674D02*
X16845301Y-9786293D01*
X16845301Y-9786293D02*
X16835777Y-9824389D01*
X16835777Y-9824389D02*
X16826253Y-9843436D01*
X16826253Y-9843436D02*
X16816729Y-9852960D01*
X16816729Y-9852960D02*
X16797682Y-9862484D01*
X16797682Y-9862484D02*
X16778634Y-9862484D01*
X16778634Y-9862484D02*
X16759586Y-9852960D01*
X16759586Y-9852960D02*
X16750063Y-9843436D01*
X16750063Y-9843436D02*
X16740539Y-9824389D01*
X16740539Y-9824389D02*
X16731015Y-9786293D01*
X16731015Y-9786293D02*
X16731015Y-9738674D01*
X16731015Y-9738674D02*
X16740539Y-9700579D01*
X16740539Y-9700579D02*
X16750063Y-9681531D01*
X16750063Y-9681531D02*
X16759586Y-9672008D01*
X16759586Y-9672008D02*
X16778634Y-9662484D01*
X16931015Y-9843436D02*
X16940539Y-9852960D01*
X16940539Y-9852960D02*
X16931015Y-9862484D01*
X16931015Y-9862484D02*
X16921491Y-9852960D01*
X16921491Y-9852960D02*
X16931015Y-9843436D01*
X16931015Y-9843436D02*
X16931015Y-9862484D01*
X17064348Y-9662484D02*
X17083396Y-9662484D01*
X17083396Y-9662484D02*
X17102444Y-9672008D01*
X17102444Y-9672008D02*
X17111968Y-9681531D01*
X17111968Y-9681531D02*
X17121491Y-9700579D01*
X17121491Y-9700579D02*
X17131015Y-9738674D01*
X17131015Y-9738674D02*
X17131015Y-9786293D01*
X17131015Y-9786293D02*
X17121491Y-9824389D01*
X17121491Y-9824389D02*
X17111968Y-9843436D01*
X17111968Y-9843436D02*
X17102444Y-9852960D01*
X17102444Y-9852960D02*
X17083396Y-9862484D01*
X17083396Y-9862484D02*
X17064348Y-9862484D01*
X17064348Y-9862484D02*
X17045301Y-9852960D01*
X17045301Y-9852960D02*
X17035777Y-9843436D01*
X17035777Y-9843436D02*
X17026253Y-9824389D01*
X17026253Y-9824389D02*
X17016729Y-9786293D01*
X17016729Y-9786293D02*
X17016729Y-9738674D01*
X17016729Y-9738674D02*
X17026253Y-9700579D01*
X17026253Y-9700579D02*
X17035777Y-9681531D01*
X17035777Y-9681531D02*
X17045301Y-9672008D01*
X17045301Y-9672008D02*
X17064348Y-9662484D01*
X17245301Y-9748198D02*
X17226253Y-9738674D01*
X17226253Y-9738674D02*
X17216729Y-9729150D01*
X17216729Y-9729150D02*
X17207206Y-9710103D01*
X17207206Y-9710103D02*
X17207206Y-9700579D01*
X17207206Y-9700579D02*
X17216729Y-9681531D01*
X17216729Y-9681531D02*
X17226253Y-9672008D01*
X17226253Y-9672008D02*
X17245301Y-9662484D01*
X17245301Y-9662484D02*
X17283396Y-9662484D01*
X17283396Y-9662484D02*
X17302444Y-9672008D01*
X17302444Y-9672008D02*
X17311968Y-9681531D01*
X17311968Y-9681531D02*
X17321491Y-9700579D01*
X17321491Y-9700579D02*
X17321491Y-9710103D01*
X17321491Y-9710103D02*
X17311968Y-9729150D01*
X17311968Y-9729150D02*
X17302444Y-9738674D01*
X17302444Y-9738674D02*
X17283396Y-9748198D01*
X17283396Y-9748198D02*
X17245301Y-9748198D01*
X17245301Y-9748198D02*
X17226253Y-9757722D01*
X17226253Y-9757722D02*
X17216729Y-9767246D01*
X17216729Y-9767246D02*
X17207206Y-9786293D01*
X17207206Y-9786293D02*
X17207206Y-9824389D01*
X17207206Y-9824389D02*
X17216729Y-9843436D01*
X17216729Y-9843436D02*
X17226253Y-9852960D01*
X17226253Y-9852960D02*
X17245301Y-9862484D01*
X17245301Y-9862484D02*
X17283396Y-9862484D01*
X17283396Y-9862484D02*
X17302444Y-9852960D01*
X17302444Y-9852960D02*
X17311968Y-9843436D01*
X17311968Y-9843436D02*
X17321491Y-9824389D01*
X17321491Y-9824389D02*
X17321491Y-9786293D01*
X17321491Y-9786293D02*
X17311968Y-9767246D01*
X17311968Y-9767246D02*
X17302444Y-9757722D01*
X17302444Y-9757722D02*
X17283396Y-9748198D01*
X17492920Y-9662484D02*
X17454825Y-9662484D01*
X17454825Y-9662484D02*
X17435777Y-9672008D01*
X17435777Y-9672008D02*
X17426253Y-9681531D01*
X17426253Y-9681531D02*
X17407206Y-9710103D01*
X17407206Y-9710103D02*
X17397682Y-9748198D01*
X17397682Y-9748198D02*
X17397682Y-9824389D01*
X17397682Y-9824389D02*
X17407206Y-9843436D01*
X17407206Y-9843436D02*
X17416729Y-9852960D01*
X17416729Y-9852960D02*
X17435777Y-9862484D01*
X17435777Y-9862484D02*
X17473872Y-9862484D01*
X17473872Y-9862484D02*
X17492920Y-9852960D01*
X17492920Y-9852960D02*
X17502444Y-9843436D01*
X17502444Y-9843436D02*
X17511968Y-9824389D01*
X17511968Y-9824389D02*
X17511968Y-9776770D01*
X17511968Y-9776770D02*
X17502444Y-9757722D01*
X17502444Y-9757722D02*
X17492920Y-9748198D01*
X17492920Y-9748198D02*
X17473872Y-9738674D01*
X17473872Y-9738674D02*
X17435777Y-9738674D01*
X17435777Y-9738674D02*
X17416729Y-9748198D01*
X17416729Y-9748198D02*
X17407206Y-9757722D01*
X17407206Y-9757722D02*
X17397682Y-9776770D01*
X17683396Y-9662484D02*
X17645301Y-9662484D01*
X17645301Y-9662484D02*
X17626253Y-9672008D01*
X17626253Y-9672008D02*
X17616729Y-9681531D01*
X17616729Y-9681531D02*
X17597682Y-9710103D01*
X17597682Y-9710103D02*
X17588158Y-9748198D01*
X17588158Y-9748198D02*
X17588158Y-9824389D01*
X17588158Y-9824389D02*
X17597682Y-9843436D01*
X17597682Y-9843436D02*
X17607206Y-9852960D01*
X17607206Y-9852960D02*
X17626253Y-9862484D01*
X17626253Y-9862484D02*
X17664349Y-9862484D01*
X17664349Y-9862484D02*
X17683396Y-9852960D01*
X17683396Y-9852960D02*
X17692920Y-9843436D01*
X17692920Y-9843436D02*
X17702444Y-9824389D01*
X17702444Y-9824389D02*
X17702444Y-9776770D01*
X17702444Y-9776770D02*
X17692920Y-9757722D01*
X17692920Y-9757722D02*
X17683396Y-9748198D01*
X17683396Y-9748198D02*
X17664349Y-9738674D01*
X17664349Y-9738674D02*
X17626253Y-9738674D01*
X17626253Y-9738674D02*
X17607206Y-9748198D01*
X17607206Y-9748198D02*
X17597682Y-9757722D01*
X17597682Y-9757722D02*
X17588158Y-9776770D01*
X17778634Y-9662484D02*
X17778634Y-9700579D01*
X17854825Y-9662484D02*
X17854825Y-9700579D01*
X18150063Y-9938674D02*
X18140539Y-9929150D01*
X18140539Y-9929150D02*
X18121491Y-9900579D01*
X18121491Y-9900579D02*
X18111968Y-9881531D01*
X18111968Y-9881531D02*
X18102444Y-9852960D01*
X18102444Y-9852960D02*
X18092920Y-9805341D01*
X18092920Y-9805341D02*
X18092920Y-9767246D01*
X18092920Y-9767246D02*
X18102444Y-9719627D01*
X18102444Y-9719627D02*
X18111968Y-9691055D01*
X18111968Y-9691055D02*
X18121491Y-9672008D01*
X18121491Y-9672008D02*
X18140539Y-9643436D01*
X18140539Y-9643436D02*
X18150063Y-9633912D01*
X18311968Y-9729150D02*
X18311968Y-9862484D01*
X18264349Y-9652960D02*
X18216730Y-9795817D01*
X18216730Y-9795817D02*
X18340539Y-9795817D01*
X18569111Y-9862484D02*
X18569111Y-9662484D01*
X18654825Y-9862484D02*
X18654825Y-9757722D01*
X18654825Y-9757722D02*
X18645301Y-9738674D01*
X18645301Y-9738674D02*
X18626253Y-9729150D01*
X18626253Y-9729150D02*
X18597682Y-9729150D01*
X18597682Y-9729150D02*
X18578634Y-9738674D01*
X18578634Y-9738674D02*
X18569111Y-9748198D01*
X18778634Y-9862484D02*
X18759587Y-9852960D01*
X18759587Y-9852960D02*
X18750063Y-9843436D01*
X18750063Y-9843436D02*
X18740539Y-9824389D01*
X18740539Y-9824389D02*
X18740539Y-9767246D01*
X18740539Y-9767246D02*
X18750063Y-9748198D01*
X18750063Y-9748198D02*
X18759587Y-9738674D01*
X18759587Y-9738674D02*
X18778634Y-9729150D01*
X18778634Y-9729150D02*
X18807206Y-9729150D01*
X18807206Y-9729150D02*
X18826253Y-9738674D01*
X18826253Y-9738674D02*
X18835777Y-9748198D01*
X18835777Y-9748198D02*
X18845301Y-9767246D01*
X18845301Y-9767246D02*
X18845301Y-9824389D01*
X18845301Y-9824389D02*
X18835777Y-9843436D01*
X18835777Y-9843436D02*
X18826253Y-9852960D01*
X18826253Y-9852960D02*
X18807206Y-9862484D01*
X18807206Y-9862484D02*
X18778634Y-9862484D01*
X18959587Y-9862484D02*
X18940539Y-9852960D01*
X18940539Y-9852960D02*
X18931015Y-9833912D01*
X18931015Y-9833912D02*
X18931015Y-9662484D01*
X19111968Y-9852960D02*
X19092920Y-9862484D01*
X19092920Y-9862484D02*
X19054825Y-9862484D01*
X19054825Y-9862484D02*
X19035777Y-9852960D01*
X19035777Y-9852960D02*
X19026253Y-9833912D01*
X19026253Y-9833912D02*
X19026253Y-9757722D01*
X19026253Y-9757722D02*
X19035777Y-9738674D01*
X19035777Y-9738674D02*
X19054825Y-9729150D01*
X19054825Y-9729150D02*
X19092920Y-9729150D01*
X19092920Y-9729150D02*
X19111968Y-9738674D01*
X19111968Y-9738674D02*
X19121492Y-9757722D01*
X19121492Y-9757722D02*
X19121492Y-9776770D01*
X19121492Y-9776770D02*
X19026253Y-9795817D01*
X19197682Y-9852960D02*
X19216730Y-9862484D01*
X19216730Y-9862484D02*
X19254825Y-9862484D01*
X19254825Y-9862484D02*
X19273873Y-9852960D01*
X19273873Y-9852960D02*
X19283396Y-9833912D01*
X19283396Y-9833912D02*
X19283396Y-9824389D01*
X19283396Y-9824389D02*
X19273873Y-9805341D01*
X19273873Y-9805341D02*
X19254825Y-9795817D01*
X19254825Y-9795817D02*
X19226253Y-9795817D01*
X19226253Y-9795817D02*
X19207206Y-9786293D01*
X19207206Y-9786293D02*
X19197682Y-9767246D01*
X19197682Y-9767246D02*
X19197682Y-9757722D01*
X19197682Y-9757722D02*
X19207206Y-9738674D01*
X19207206Y-9738674D02*
X19226253Y-9729150D01*
X19226253Y-9729150D02*
X19254825Y-9729150D01*
X19254825Y-9729150D02*
X19273873Y-9738674D01*
X19350063Y-9938674D02*
X19359587Y-9929150D01*
X19359587Y-9929150D02*
X19378634Y-9900579D01*
X19378634Y-9900579D02*
X19388158Y-9881531D01*
X19388158Y-9881531D02*
X19397682Y-9852960D01*
X19397682Y-9852960D02*
X19407206Y-9805341D01*
X19407206Y-9805341D02*
X19407206Y-9767246D01*
X19407206Y-9767246D02*
X19397682Y-9719627D01*
X19397682Y-9719627D02*
X19388158Y-9691055D01*
X19388158Y-9691055D02*
X19378634Y-9672008D01*
X19378634Y-9672008D02*
X19359587Y-9643436D01*
X19359587Y-9643436D02*
X19350063Y-9633912D01*
X19711968Y-9938674D02*
X19702444Y-9929150D01*
X19702444Y-9929150D02*
X19683396Y-9900579D01*
X19683396Y-9900579D02*
X19673873Y-9881531D01*
X19673873Y-9881531D02*
X19664349Y-9852960D01*
X19664349Y-9852960D02*
X19654825Y-9805341D01*
X19654825Y-9805341D02*
X19654825Y-9767246D01*
X19654825Y-9767246D02*
X19664349Y-9719627D01*
X19664349Y-9719627D02*
X19673873Y-9691055D01*
X19673873Y-9691055D02*
X19683396Y-9672008D01*
X19683396Y-9672008D02*
X19702444Y-9643436D01*
X19702444Y-9643436D02*
X19711968Y-9633912D01*
X19788158Y-9729150D02*
X19788158Y-9862484D01*
X19788158Y-9748198D02*
X19797682Y-9738674D01*
X19797682Y-9738674D02*
X19816730Y-9729150D01*
X19816730Y-9729150D02*
X19845301Y-9729150D01*
X19845301Y-9729150D02*
X19864349Y-9738674D01*
X19864349Y-9738674D02*
X19873873Y-9757722D01*
X19873873Y-9757722D02*
X19873873Y-9862484D01*
X19997682Y-9862484D02*
X19978634Y-9852960D01*
X19978634Y-9852960D02*
X19969111Y-9843436D01*
X19969111Y-9843436D02*
X19959587Y-9824389D01*
X19959587Y-9824389D02*
X19959587Y-9767246D01*
X19959587Y-9767246D02*
X19969111Y-9748198D01*
X19969111Y-9748198D02*
X19978634Y-9738674D01*
X19978634Y-9738674D02*
X19997682Y-9729150D01*
X19997682Y-9729150D02*
X20026254Y-9729150D01*
X20026254Y-9729150D02*
X20045301Y-9738674D01*
X20045301Y-9738674D02*
X20054825Y-9748198D01*
X20054825Y-9748198D02*
X20064349Y-9767246D01*
X20064349Y-9767246D02*
X20064349Y-9824389D01*
X20064349Y-9824389D02*
X20054825Y-9843436D01*
X20054825Y-9843436D02*
X20045301Y-9852960D01*
X20045301Y-9852960D02*
X20026254Y-9862484D01*
X20026254Y-9862484D02*
X19997682Y-9862484D01*
X20121492Y-9729150D02*
X20197682Y-9729150D01*
X20150063Y-9662484D02*
X20150063Y-9833912D01*
X20150063Y-9833912D02*
X20159587Y-9852960D01*
X20159587Y-9852960D02*
X20178634Y-9862484D01*
X20178634Y-9862484D02*
X20197682Y-9862484D01*
X20416730Y-9729150D02*
X20416730Y-9929150D01*
X20416730Y-9738674D02*
X20435777Y-9729150D01*
X20435777Y-9729150D02*
X20473873Y-9729150D01*
X20473873Y-9729150D02*
X20492920Y-9738674D01*
X20492920Y-9738674D02*
X20502444Y-9748198D01*
X20502444Y-9748198D02*
X20511968Y-9767246D01*
X20511968Y-9767246D02*
X20511968Y-9824389D01*
X20511968Y-9824389D02*
X20502444Y-9843436D01*
X20502444Y-9843436D02*
X20492920Y-9852960D01*
X20492920Y-9852960D02*
X20473873Y-9862484D01*
X20473873Y-9862484D02*
X20435777Y-9862484D01*
X20435777Y-9862484D02*
X20416730Y-9852960D01*
X20626254Y-9862484D02*
X20607206Y-9852960D01*
X20607206Y-9852960D02*
X20597682Y-9833912D01*
X20597682Y-9833912D02*
X20597682Y-9662484D01*
X20788158Y-9862484D02*
X20788158Y-9757722D01*
X20788158Y-9757722D02*
X20778635Y-9738674D01*
X20778635Y-9738674D02*
X20759587Y-9729150D01*
X20759587Y-9729150D02*
X20721492Y-9729150D01*
X20721492Y-9729150D02*
X20702444Y-9738674D01*
X20788158Y-9852960D02*
X20769111Y-9862484D01*
X20769111Y-9862484D02*
X20721492Y-9862484D01*
X20721492Y-9862484D02*
X20702444Y-9852960D01*
X20702444Y-9852960D02*
X20692920Y-9833912D01*
X20692920Y-9833912D02*
X20692920Y-9814865D01*
X20692920Y-9814865D02*
X20702444Y-9795817D01*
X20702444Y-9795817D02*
X20721492Y-9786293D01*
X20721492Y-9786293D02*
X20769111Y-9786293D01*
X20769111Y-9786293D02*
X20788158Y-9776770D01*
X20854825Y-9729150D02*
X20931015Y-9729150D01*
X20883396Y-9662484D02*
X20883396Y-9833912D01*
X20883396Y-9833912D02*
X20892920Y-9852960D01*
X20892920Y-9852960D02*
X20911968Y-9862484D01*
X20911968Y-9862484D02*
X20931015Y-9862484D01*
X21073873Y-9852960D02*
X21054825Y-9862484D01*
X21054825Y-9862484D02*
X21016730Y-9862484D01*
X21016730Y-9862484D02*
X20997682Y-9852960D01*
X20997682Y-9852960D02*
X20988158Y-9833912D01*
X20988158Y-9833912D02*
X20988158Y-9757722D01*
X20988158Y-9757722D02*
X20997682Y-9738674D01*
X20997682Y-9738674D02*
X21016730Y-9729150D01*
X21016730Y-9729150D02*
X21054825Y-9729150D01*
X21054825Y-9729150D02*
X21073873Y-9738674D01*
X21073873Y-9738674D02*
X21083396Y-9757722D01*
X21083396Y-9757722D02*
X21083396Y-9776770D01*
X21083396Y-9776770D02*
X20988158Y-9795817D01*
X21254825Y-9862484D02*
X21254825Y-9662484D01*
X21254825Y-9852960D02*
X21235777Y-9862484D01*
X21235777Y-9862484D02*
X21197682Y-9862484D01*
X21197682Y-9862484D02*
X21178635Y-9852960D01*
X21178635Y-9852960D02*
X21169111Y-9843436D01*
X21169111Y-9843436D02*
X21159587Y-9824389D01*
X21159587Y-9824389D02*
X21159587Y-9767246D01*
X21159587Y-9767246D02*
X21169111Y-9748198D01*
X21169111Y-9748198D02*
X21178635Y-9738674D01*
X21178635Y-9738674D02*
X21197682Y-9729150D01*
X21197682Y-9729150D02*
X21235777Y-9729150D01*
X21235777Y-9729150D02*
X21254825Y-9738674D01*
X21331016Y-9938674D02*
X21340539Y-9929150D01*
X21340539Y-9929150D02*
X21359587Y-9900579D01*
X21359587Y-9900579D02*
X21369111Y-9881531D01*
X21369111Y-9881531D02*
X21378635Y-9852960D01*
X21378635Y-9852960D02*
X21388158Y-9805341D01*
X21388158Y-9805341D02*
X21388158Y-9767246D01*
X21388158Y-9767246D02*
X21378635Y-9719627D01*
X21378635Y-9719627D02*
X21369111Y-9691055D01*
X21369111Y-9691055D02*
X21359587Y-9672008D01*
X21359587Y-9672008D02*
X21340539Y-9643436D01*
X21340539Y-9643436D02*
X21331016Y-9633912D01*
M02*
