%TF.GenerationSoftware,KiCad,Pcbnew,7.0.5*%
%TF.CreationDate,2024-01-10T23:57:27+08:00*%
%TF.ProjectId,4th,3474682e-6b69-4636-9164-5f7063625858,rev?*%
%TF.SameCoordinates,Original*%
%TF.FileFunction,Profile,NP*%
%FSLAX46Y46*%
G04 Gerber Fmt 4.6, Leading zero omitted, Abs format (unit mm)*
G04 Created by KiCad (PCBNEW 7.0.5) date 2024-01-10 23:57:27*
%MOMM*%
%LPD*%
G01*
G04 APERTURE LIST*
%TA.AperFunction,Profile*%
%ADD10C,0.100000*%
%TD*%
%TA.AperFunction,Profile*%
%ADD11C,0.150000*%
%TD*%
G04 APERTURE END LIST*
D10*
X69449997Y-63385000D02*
X69449997Y-82990001D01*
X40400000Y-30490000D02*
X57700000Y-30490000D01*
D11*
X93750000Y-39490000D02*
X93750063Y-56185000D01*
X102500000Y-81070299D02*
X102500000Y-89080000D01*
D10*
X40400472Y-39490000D02*
X40400000Y-30490000D01*
D11*
X108095000Y-39490000D02*
X116100000Y-39490000D01*
X46800236Y-81070000D02*
X38795236Y-81070000D01*
D10*
X69450000Y-36580000D02*
X69449997Y-56185000D01*
X57700000Y-34230000D02*
X57700000Y-30490000D01*
D11*
X89750299Y-63385000D02*
X89750299Y-82989703D01*
X37995236Y-73620000D02*
X29095236Y-73620000D01*
X108095000Y-39490000D02*
X107695000Y-39890000D01*
X26800236Y-39490036D02*
G75*
G03*
X24450236Y-41840000I-36J-2349964D01*
G01*
X64900000Y-89080000D02*
X78000000Y-89079702D01*
X28695236Y-80670000D02*
X28295236Y-81070000D01*
D10*
X57700000Y-89080000D02*
X57700000Y-85340001D01*
X49150236Y-56185000D02*
X53150000Y-56185000D01*
D11*
X26800236Y-39490000D02*
X33200000Y-39490000D01*
X24450236Y-81070000D02*
X24450236Y-41840000D01*
D10*
X64900000Y-34229702D02*
X64900000Y-30490000D01*
D11*
X38395236Y-80670000D02*
X38395236Y-74020000D01*
X97595000Y-39490000D02*
X93750000Y-39490000D01*
D10*
X55499997Y-85340001D02*
X57700000Y-85340001D01*
X85200000Y-30490000D02*
X118450000Y-30490000D01*
X89750296Y-36579702D02*
X89750299Y-56185000D01*
D11*
X73450299Y-63385000D02*
X69449997Y-63385000D01*
D10*
X64900000Y-85340001D02*
X67099997Y-85340001D01*
X67099997Y-85339997D02*
G75*
G03*
X69449997Y-82990001I3J2349997D01*
G01*
X49150236Y-41840000D02*
X49150236Y-56185000D01*
D11*
X24450236Y-89080000D02*
X57700000Y-89080000D01*
D10*
X69450000Y-36580000D02*
G75*
G03*
X67100000Y-34230000I-2350000J0D01*
G01*
X85200000Y-34229702D02*
X87400296Y-34229702D01*
X73450299Y-63385000D02*
X73450299Y-82989703D01*
X24450236Y-26490000D02*
X118450000Y-26490000D01*
X49150236Y-78720000D02*
X49150236Y-63385000D01*
D11*
X97995000Y-46540000D02*
X97995000Y-39890000D01*
D10*
X73450297Y-82989703D02*
G75*
G03*
X75800299Y-85339703I2350003J3D01*
G01*
D11*
X118450000Y-41840000D02*
G75*
G03*
X116100000Y-39490000I-2350000J0D01*
G01*
D10*
X75800296Y-34229696D02*
G75*
G03*
X73450296Y-36579702I4J-2350004D01*
G01*
X87400299Y-85339699D02*
G75*
G03*
X89750299Y-82989703I1J2349999D01*
G01*
X85200000Y-34229702D02*
X85200000Y-30490000D01*
X78000000Y-34229702D02*
X78000000Y-30490000D01*
X64900000Y-34229702D02*
X67100000Y-34230000D01*
D11*
X38395236Y-80670000D02*
X38795236Y-81070000D01*
D10*
X118450000Y-89080000D02*
X118450000Y-93080000D01*
X118450000Y-26490000D02*
X118450000Y-30490000D01*
D11*
X28695236Y-80670000D02*
X28695236Y-74020000D01*
D10*
X53150000Y-56185000D02*
X53150000Y-36580000D01*
D11*
X38395236Y-74020000D02*
X37995236Y-73620000D01*
D10*
X24450236Y-26490000D02*
X24450236Y-30490000D01*
D11*
X93750063Y-63385000D02*
X93750000Y-78720000D01*
X118450000Y-41840000D02*
X118450000Y-78720000D01*
D10*
X78000000Y-30490000D02*
X64900000Y-30490000D01*
D11*
X98395000Y-46940000D02*
X107295000Y-46940000D01*
X107295000Y-46940000D02*
X107695000Y-46540000D01*
D10*
X96100000Y-81070000D02*
X102500000Y-81070299D01*
D11*
X46800236Y-81070036D02*
G75*
G03*
X49150236Y-78720000I-36J2350036D01*
G01*
D10*
X49150236Y-63385000D02*
X53150000Y-63385000D01*
X33200000Y-39490000D02*
X33200000Y-30490000D01*
X55500000Y-34230000D02*
X57700000Y-34230000D01*
D11*
X93750000Y-78720000D02*
G75*
G03*
X96100000Y-81070000I2350000J0D01*
G01*
D10*
X85200000Y-89080000D02*
X85200000Y-85340001D01*
D11*
X107695000Y-46540000D02*
X107695000Y-39890000D01*
D10*
X24450236Y-93080000D02*
X118450000Y-93080000D01*
D11*
X116100000Y-81070000D02*
G75*
G03*
X118450000Y-78720000I0J2350000D01*
G01*
X97595000Y-39490000D02*
X97995000Y-39890000D01*
X24450236Y-81070000D02*
X28295236Y-81070000D01*
D10*
X89750298Y-36579702D02*
G75*
G03*
X87400296Y-34229702I-2349998J2D01*
G01*
X53149999Y-82990001D02*
G75*
G03*
X55499997Y-85340001I2350001J1D01*
G01*
X24450236Y-30490000D02*
X33200000Y-30490000D01*
D11*
X93750063Y-63385000D02*
X89750299Y-63385000D01*
X28695236Y-74020000D02*
X29095236Y-73620000D01*
D10*
X55500000Y-34230000D02*
G75*
G03*
X53150000Y-36580000I0J-2350000D01*
G01*
X73450299Y-56185000D02*
X73450296Y-36579702D01*
X24450236Y-89080000D02*
X24450236Y-93080000D01*
X53149997Y-82990001D02*
X53150000Y-63385000D01*
X69449997Y-56185000D02*
X73450299Y-56185000D01*
D11*
X102500000Y-89080000D02*
X85200000Y-89080000D01*
D10*
X78000000Y-89079702D02*
X78000000Y-85339703D01*
X64900000Y-89080000D02*
X64900000Y-85340001D01*
X78000000Y-34229702D02*
X75800296Y-34229702D01*
D11*
X40400472Y-39490000D02*
X46800236Y-39490000D01*
D10*
X89750299Y-56185000D02*
X93750063Y-56185000D01*
X78000000Y-85339703D02*
X75800299Y-85339703D01*
X109700000Y-89080000D02*
X118450000Y-89080000D01*
D11*
X49150200Y-41840000D02*
G75*
G03*
X46800236Y-39490000I-2350000J0D01*
G01*
D10*
X85200000Y-85340001D02*
X87400299Y-85339703D01*
X109700000Y-89080000D02*
X109700000Y-81070299D01*
D11*
X116100000Y-81070000D02*
X109700000Y-81070299D01*
X98395000Y-46940000D02*
X97995000Y-46540000D01*
M02*
