M48
; DRILL file {KiCad 7.0.5} date Wed Jan 10 23:57:24 2024
; FORMAT={-:-/ absolute / metric / decimal}
; #@! TF.CreationDate,2024-01-10T23:57:24+08:00
; #@! TF.GenerationSoftware,Kicad,Pcbnew,7.0.5
; #@! TF.FileFunction,NonPlated,1,2,NPTH
FMAT,2
METRIC
; #@! TA.AperFunction,NonPlated,NPTH,ComponentDrill
T1C0.450
; #@! TA.AperFunction,NonPlated,NPTH,ComponentDrill
T2C2.200
%
G90
G05
T1
X33.6Y-39.29
X34.4Y-39.29
X35.2Y-39.29
X36.0Y-39.29
X36.8Y-39.29
X37.6Y-39.29
X38.4Y-39.29
X39.2Y-39.29
X40.0Y-39.29
X49.35Y-56.585
X49.35Y-57.385
X49.35Y-58.185
X49.35Y-58.985
X49.35Y-59.785
X49.35Y-60.585
X49.35Y-61.385
X49.35Y-62.185
X49.35Y-62.985
X52.95Y-56.585
X52.95Y-57.385
X52.95Y-58.185
X52.95Y-58.985
X52.95Y-59.785
X52.95Y-60.585
X52.95Y-61.385
X52.95Y-62.185
X52.95Y-62.985
X58.1Y-34.03
X58.1Y-85.54
X58.9Y-34.03
X58.9Y-85.54
X59.7Y-34.03
X59.7Y-85.54
X60.5Y-34.03
X60.5Y-85.54
X61.3Y-34.03
X61.3Y-85.54
X62.1Y-34.03
X62.1Y-85.54
X62.9Y-34.03
X62.9Y-85.54
X63.7Y-34.03
X63.7Y-85.54
X64.5Y-34.03
X64.5Y-85.54
X69.65Y-56.585
X69.65Y-57.385
X69.65Y-58.185
X69.65Y-58.985
X69.65Y-59.785
X69.65Y-60.585
X69.65Y-61.385
X69.65Y-62.185
X69.65Y-62.985
X73.25Y-56.585
X73.25Y-57.385
X73.25Y-58.185
X73.25Y-58.985
X73.25Y-59.785
X73.25Y-60.585
X73.25Y-61.385
X73.25Y-62.185
X73.25Y-62.985
X78.4Y-34.03
X78.4Y-85.54
X79.2Y-34.03
X79.2Y-85.54
X80.0Y-34.03
X80.0Y-85.54
X80.8Y-34.03
X80.8Y-85.54
X81.6Y-34.03
X81.6Y-85.54
X82.4Y-34.03
X82.4Y-85.54
X83.2Y-34.03
X83.2Y-85.54
X84.0Y-34.03
X84.0Y-85.54
X84.8Y-34.03
X84.8Y-85.54
X89.95Y-56.585
X89.95Y-57.385
X89.95Y-58.185
X89.95Y-58.985
X89.95Y-59.785
X89.95Y-60.585
X89.95Y-61.385
X89.95Y-62.185
X89.95Y-62.985
X93.55Y-56.585
X93.55Y-57.385
X93.55Y-58.185
X93.55Y-58.985
X93.55Y-59.785
X93.55Y-60.585
X93.55Y-61.385
X93.55Y-62.185
X93.55Y-62.985
X102.9Y-81.27
X103.7Y-81.27
X104.5Y-81.27
X105.3Y-81.27
X106.1Y-81.27
X106.9Y-81.27
X107.7Y-81.27
X108.5Y-81.27
X109.3Y-81.27
T2
X26.8Y-41.84
X46.8Y-41.84
X46.8Y-78.72
X55.5Y-82.99
X55.5Y-36.58
X67.1Y-82.99
X67.1Y-36.58
X75.8Y-36.58
X75.8Y-82.99
X87.4Y-36.58
X87.4Y-82.99
X96.1Y-78.72
X116.1Y-41.84
X116.1Y-78.72
T0
M30
