%TF.GenerationSoftware,KiCad,Pcbnew,7.0.5*%
%TF.CreationDate,2024-01-10T23:57:24+08:00*%
%TF.ProjectId,4th,3474682e-6b69-4636-9164-5f7063625858,rev?*%
%TF.SameCoordinates,Original*%
%TF.FileFunction,Drillmap*%
%TF.FilePolarity,Positive*%
%FSLAX45Y45*%
G04 Gerber Fmt 4.5, Leading zero omitted, Abs format (unit mm)*
G04 Created by KiCad (PCBNEW 7.0.5) date 2024-01-10 23:57:24*
%MOMM*%
%LPD*%
G01*
G04 APERTURE LIST*
%ADD10C,0.100000*%
%ADD11C,0.150000*%
%ADD12C,0.200000*%
%ADD13C,0.040000*%
%ADD14C,0.109220*%
G04 APERTURE END LIST*
D10*
X6945000Y-6338500D02*
X6945000Y-8299000D01*
X4040000Y-3049000D02*
X5770000Y-3049000D01*
D11*
X9375000Y-3949000D02*
X9375006Y-5618500D01*
X10250000Y-8107030D02*
X10250000Y-8908000D01*
D10*
X4040047Y-3949000D02*
X4040000Y-3049000D01*
D11*
X10809500Y-3949000D02*
X11610000Y-3949000D01*
X4680024Y-8107000D02*
X3879524Y-8107000D01*
D10*
X6945000Y-3658000D02*
X6945000Y-5618500D01*
X5770000Y-3423000D02*
X5770000Y-3049000D01*
D11*
X8975030Y-6338500D02*
X8975030Y-8298970D01*
X3799524Y-7362000D02*
X2909524Y-7362000D01*
X10809500Y-3949000D02*
X10769500Y-3989000D01*
X2680024Y-3949004D02*
G75*
G03*
X2445024Y-4184000I-4J-234996D01*
G01*
X6490000Y-8908000D02*
X7800000Y-8907970D01*
X2869524Y-8067000D02*
X2829524Y-8107000D01*
D10*
X5770000Y-8908000D02*
X5770000Y-8534000D01*
X4915024Y-5618500D02*
X5315000Y-5618500D01*
D11*
X2680024Y-3949000D02*
X3320000Y-3949000D01*
X2445024Y-8107000D02*
X2445024Y-4184000D01*
D10*
X6490000Y-3422970D02*
X6490000Y-3049000D01*
D11*
X3839524Y-8067000D02*
X3839524Y-7402000D01*
X9759500Y-3949000D02*
X9375000Y-3949000D01*
D10*
X5550000Y-8534000D02*
X5770000Y-8534000D01*
X8520000Y-3049000D02*
X11845000Y-3049000D01*
X8975030Y-3657970D02*
X8975030Y-5618500D01*
D11*
X7345030Y-6338500D02*
X6945000Y-6338500D01*
D10*
X6490000Y-8534000D02*
X6710000Y-8534000D01*
X6710000Y-8534000D02*
G75*
G03*
X6945000Y-8299000I0J235000D01*
G01*
X4915024Y-4184000D02*
X4915024Y-5618500D01*
D11*
X2445024Y-8908000D02*
X5770000Y-8908000D01*
D10*
X6945000Y-3658000D02*
G75*
G03*
X6710000Y-3423000I-235000J0D01*
G01*
X8520000Y-3422970D02*
X8740030Y-3422970D01*
X7345030Y-6338500D02*
X7345030Y-8298970D01*
X2445024Y-2649000D02*
X11845000Y-2649000D01*
X4915024Y-7872000D02*
X4915024Y-6338500D01*
D11*
X9799500Y-4654000D02*
X9799500Y-3989000D01*
D10*
X7345030Y-8298970D02*
G75*
G03*
X7580030Y-8533970I235000J0D01*
G01*
D11*
X11845000Y-4184000D02*
G75*
G03*
X11610000Y-3949000I-235000J0D01*
G01*
D10*
X7580030Y-3422970D02*
G75*
G03*
X7345030Y-3657970I0J-235000D01*
G01*
X8740030Y-8533970D02*
G75*
G03*
X8975030Y-8298970I0J235000D01*
G01*
X8520000Y-3422970D02*
X8520000Y-3049000D01*
X7800000Y-3422970D02*
X7800000Y-3049000D01*
X6490000Y-3422970D02*
X6710000Y-3423000D01*
D11*
X3839524Y-8067000D02*
X3879524Y-8107000D01*
D10*
X11845000Y-8908000D02*
X11845000Y-9308000D01*
X11845000Y-2649000D02*
X11845000Y-3049000D01*
D11*
X2869524Y-8067000D02*
X2869524Y-7402000D01*
D10*
X5315000Y-5618500D02*
X5315000Y-3658000D01*
D11*
X3839524Y-7402000D02*
X3799524Y-7362000D01*
D10*
X2445024Y-2649000D02*
X2445024Y-3049000D01*
D11*
X9375006Y-6338500D02*
X9375000Y-7872000D01*
X11845000Y-4184000D02*
X11845000Y-7872000D01*
D10*
X7800000Y-3049000D02*
X6490000Y-3049000D01*
D11*
X9839500Y-4694000D02*
X10729500Y-4694000D01*
X10729500Y-4694000D02*
X10769500Y-4654000D01*
D10*
X9610000Y-8107000D02*
X10250000Y-8107030D01*
D11*
X4680024Y-8107004D02*
G75*
G03*
X4915024Y-7872000I-4J235004D01*
G01*
D10*
X4915024Y-6338500D02*
X5315000Y-6338500D01*
X3320000Y-3949000D02*
X3320000Y-3049000D01*
X5550000Y-3423000D02*
X5770000Y-3423000D01*
D11*
X9375000Y-7872000D02*
G75*
G03*
X9610000Y-8107000I235000J0D01*
G01*
D10*
X8520000Y-8908000D02*
X8520000Y-8534000D01*
D11*
X10769500Y-4654000D02*
X10769500Y-3989000D01*
D10*
X2445024Y-9308000D02*
X11845000Y-9308000D01*
D11*
X11610000Y-8107000D02*
G75*
G03*
X11845000Y-7872000I0J235000D01*
G01*
X9759500Y-3949000D02*
X9799500Y-3989000D01*
X2445024Y-8107000D02*
X2829524Y-8107000D01*
D10*
X8975030Y-3657970D02*
G75*
G03*
X8740030Y-3422970I-235000J0D01*
G01*
X5315000Y-8299000D02*
G75*
G03*
X5550000Y-8534000I235000J0D01*
G01*
X2445024Y-3049000D02*
X3320000Y-3049000D01*
D11*
X9375006Y-6338500D02*
X8975030Y-6338500D01*
X2869524Y-7402000D02*
X2909524Y-7362000D01*
D10*
X5550000Y-3423000D02*
G75*
G03*
X5315000Y-3658000I0J-235000D01*
G01*
X7345030Y-5618500D02*
X7345030Y-3657970D01*
X2445024Y-8908000D02*
X2445024Y-9308000D01*
X5315000Y-8299000D02*
X5315000Y-6338500D01*
X6945000Y-5618500D02*
X7345030Y-5618500D01*
D11*
X10250000Y-8908000D02*
X8520000Y-8908000D01*
D10*
X7800000Y-8907970D02*
X7800000Y-8533970D01*
X6490000Y-8908000D02*
X6490000Y-8534000D01*
X7800000Y-3422970D02*
X7580030Y-3422970D01*
D11*
X4040047Y-3949000D02*
X4680024Y-3949000D01*
D10*
X8975030Y-5618500D02*
X9375006Y-5618500D01*
X7800000Y-8533970D02*
X7580030Y-8533970D01*
X10970000Y-8908000D02*
X11845000Y-8908000D01*
D11*
X4915020Y-4184000D02*
G75*
G03*
X4680024Y-3949000I-235000J0D01*
G01*
D10*
X8520000Y-8534000D02*
X8740030Y-8533970D01*
X10970000Y-8908000D02*
X10970000Y-8107030D01*
D11*
X11610000Y-8107000D02*
X10970000Y-8107030D01*
X9839500Y-4694000D02*
X9799500Y-4654000D01*
D12*
D13*
X5367000Y-6083000D02*
X5407000Y-6123000D01*
X5407000Y-6083000D02*
X5367000Y-6123000D01*
X5601000Y-7316000D02*
X5641000Y-7356000D01*
X5641000Y-7316000D02*
X5601000Y-7356000D01*
X5855000Y-5956000D02*
X5895000Y-5996000D01*
X5895000Y-5956000D02*
X5855000Y-5996000D01*
X5855000Y-6216000D02*
X5895000Y-6256000D01*
X5895000Y-6216000D02*
X5855000Y-6256000D01*
X6313000Y-6404000D02*
X6353000Y-6444000D01*
X6353000Y-6404000D02*
X6313000Y-6444000D01*
X7397030Y-5833970D02*
X7437030Y-5873970D01*
X7437030Y-5833970D02*
X7397030Y-5873970D01*
X7631000Y-4599000D02*
X7671000Y-4639000D01*
X7671000Y-4599000D02*
X7631000Y-4639000D01*
X7885030Y-5700970D02*
X7925030Y-5740970D01*
X7925030Y-5700970D02*
X7885030Y-5740970D01*
X7885030Y-5960970D02*
X7925030Y-6000970D01*
X7925030Y-5960970D02*
X7885030Y-6000970D01*
X8343000Y-5513000D02*
X8383000Y-5553000D01*
X8383000Y-5513000D02*
X8343000Y-5553000D01*
D10*
X2637024Y-5139000D02*
G75*
G03*
X2637024Y-5139000I-50000J0D01*
G01*
X2637024Y-5393000D02*
G75*
G03*
X2637024Y-5393000I-50000J0D01*
G01*
X2637024Y-5647000D02*
G75*
G03*
X2637024Y-5647000I-50000J0D01*
G01*
X2896524Y-5139000D02*
G75*
G03*
X2896524Y-5139000I-50000J0D01*
G01*
X3150524Y-5139000D02*
G75*
G03*
X3150524Y-5139000I-50000J0D01*
G01*
X3199024Y-4091000D02*
G75*
G03*
X3199024Y-4091000I-50000J0D01*
G01*
X3404524Y-5139000D02*
G75*
G03*
X3404524Y-5139000I-50000J0D01*
G01*
X3453024Y-4091000D02*
G75*
G03*
X3453024Y-4091000I-50000J0D01*
G01*
X3658524Y-5139000D02*
G75*
G03*
X3658524Y-5139000I-50000J0D01*
G01*
X3707024Y-4091000D02*
G75*
G03*
X3707024Y-4091000I-50000J0D01*
G01*
X3912524Y-5139000D02*
G75*
G03*
X3912524Y-5139000I-50000J0D01*
G01*
X3961024Y-4091000D02*
G75*
G03*
X3961024Y-4091000I-50000J0D01*
G01*
X4172024Y-5139000D02*
G75*
G03*
X4172024Y-5139000I-50000J0D01*
G01*
X4172024Y-5393000D02*
G75*
G03*
X4172024Y-5393000I-50000J0D01*
G01*
X4172024Y-5647000D02*
G75*
G03*
X4172024Y-5647000I-50000J0D01*
G01*
X4215024Y-4091000D02*
G75*
G03*
X4215024Y-4091000I-50000J0D01*
G01*
X4569024Y-4631000D02*
G75*
G03*
X4569024Y-4631000I-50000J0D01*
G01*
X4569024Y-4885000D02*
G75*
G03*
X4569024Y-4885000I-50000J0D01*
G01*
X4569024Y-5139000D02*
G75*
G03*
X4569024Y-5139000I-50000J0D01*
G01*
X4569024Y-5393000D02*
G75*
G03*
X4569024Y-5393000I-50000J0D01*
G01*
X4569024Y-5647000D02*
G75*
G03*
X4569024Y-5647000I-50000J0D01*
G01*
X4569024Y-5901000D02*
G75*
G03*
X4569024Y-5901000I-50000J0D01*
G01*
X4569024Y-6155000D02*
G75*
G03*
X4569024Y-6155000I-50000J0D01*
G01*
X4569024Y-6409000D02*
G75*
G03*
X4569024Y-6409000I-50000J0D01*
G01*
X4569024Y-6663000D02*
G75*
G03*
X4569024Y-6663000I-50000J0D01*
G01*
X4569024Y-6917000D02*
G75*
G03*
X4569024Y-6917000I-50000J0D01*
G01*
X4569024Y-7171000D02*
G75*
G03*
X4569024Y-7171000I-50000J0D01*
G01*
X4569024Y-7425000D02*
G75*
G03*
X4569024Y-7425000I-50000J0D01*
G01*
X4823024Y-4631000D02*
G75*
G03*
X4823024Y-4631000I-50000J0D01*
G01*
X4823024Y-4885000D02*
G75*
G03*
X4823024Y-4885000I-50000J0D01*
G01*
X4823024Y-5139000D02*
G75*
G03*
X4823024Y-5139000I-50000J0D01*
G01*
X4823024Y-5393000D02*
G75*
G03*
X4823024Y-5393000I-50000J0D01*
G01*
X4823024Y-5647000D02*
G75*
G03*
X4823024Y-5647000I-50000J0D01*
G01*
X4823024Y-5901000D02*
G75*
G03*
X4823024Y-5901000I-50000J0D01*
G01*
X4823024Y-6155000D02*
G75*
G03*
X4823024Y-6155000I-50000J0D01*
G01*
X4823024Y-6409000D02*
G75*
G03*
X4823024Y-6409000I-50000J0D01*
G01*
X4823024Y-6663000D02*
G75*
G03*
X4823024Y-6663000I-50000J0D01*
G01*
X4823024Y-6917000D02*
G75*
G03*
X4823024Y-6917000I-50000J0D01*
G01*
X4823024Y-7171000D02*
G75*
G03*
X4823024Y-7171000I-50000J0D01*
G01*
X4823024Y-7425000D02*
G75*
G03*
X4823024Y-7425000I-50000J0D01*
G01*
X5544000Y-5899000D02*
G75*
G03*
X5544000Y-5899000I-50000J0D01*
G01*
X5544000Y-6313000D02*
G75*
G03*
X5544000Y-6313000I-50000J0D01*
G01*
X5544000Y-6727000D02*
G75*
G03*
X5544000Y-6727000I-50000J0D01*
G01*
X5544000Y-7140000D02*
G75*
G03*
X5544000Y-7140000I-50000J0D01*
G01*
X5544000Y-7648000D02*
G75*
G03*
X5544000Y-7648000I-50000J0D01*
G01*
X5544000Y-7902000D02*
G75*
G03*
X5544000Y-7902000I-50000J0D01*
G01*
X5545000Y-4055000D02*
G75*
G03*
X5545000Y-4055000I-50000J0D01*
G01*
X5545000Y-4309000D02*
G75*
G03*
X5545000Y-4309000I-50000J0D01*
G01*
X5545000Y-4563000D02*
G75*
G03*
X5545000Y-4563000I-50000J0D01*
G01*
X5545000Y-4977000D02*
G75*
G03*
X5545000Y-4977000I-50000J0D01*
G01*
X5545000Y-5231000D02*
G75*
G03*
X5545000Y-5231000I-50000J0D01*
G01*
X5545000Y-5485000D02*
G75*
G03*
X5545000Y-5485000I-50000J0D01*
G01*
X5798000Y-5899000D02*
G75*
G03*
X5798000Y-5899000I-50000J0D01*
G01*
X5798000Y-6313000D02*
G75*
G03*
X5798000Y-6313000I-50000J0D01*
G01*
X5798000Y-6727000D02*
G75*
G03*
X5798000Y-6727000I-50000J0D01*
G01*
X5798000Y-7140000D02*
G75*
G03*
X5798000Y-7140000I-50000J0D01*
G01*
X5798000Y-7648000D02*
G75*
G03*
X5798000Y-7648000I-50000J0D01*
G01*
X5798000Y-7902000D02*
G75*
G03*
X5798000Y-7902000I-50000J0D01*
G01*
X5799000Y-4055000D02*
G75*
G03*
X5799000Y-4055000I-50000J0D01*
G01*
X5799000Y-4309000D02*
G75*
G03*
X5799000Y-4309000I-50000J0D01*
G01*
X5799000Y-4563000D02*
G75*
G03*
X5799000Y-4563000I-50000J0D01*
G01*
X5799000Y-4977000D02*
G75*
G03*
X5799000Y-4977000I-50000J0D01*
G01*
X5799000Y-5231000D02*
G75*
G03*
X5799000Y-5231000I-50000J0D01*
G01*
X5799000Y-5485000D02*
G75*
G03*
X5799000Y-5485000I-50000J0D01*
G01*
X6052000Y-5899000D02*
G75*
G03*
X6052000Y-5899000I-50000J0D01*
G01*
X6052000Y-6313000D02*
G75*
G03*
X6052000Y-6313000I-50000J0D01*
G01*
X6052000Y-6727000D02*
G75*
G03*
X6052000Y-6727000I-50000J0D01*
G01*
X6052000Y-7140000D02*
G75*
G03*
X6052000Y-7140000I-50000J0D01*
G01*
X6053000Y-4055000D02*
G75*
G03*
X6053000Y-4055000I-50000J0D01*
G01*
X6053000Y-4309000D02*
G75*
G03*
X6053000Y-4309000I-50000J0D01*
G01*
X6053000Y-4563000D02*
G75*
G03*
X6053000Y-4563000I-50000J0D01*
G01*
X6053000Y-4977000D02*
G75*
G03*
X6053000Y-4977000I-50000J0D01*
G01*
X6053000Y-5231000D02*
G75*
G03*
X6053000Y-5231000I-50000J0D01*
G01*
X6053000Y-5485000D02*
G75*
G03*
X6053000Y-5485000I-50000J0D01*
G01*
X6306000Y-5789000D02*
G75*
G03*
X6306000Y-5789000I-50000J0D01*
G01*
X6306000Y-6043000D02*
G75*
G03*
X6306000Y-6043000I-50000J0D01*
G01*
X6306000Y-6297000D02*
G75*
G03*
X6306000Y-6297000I-50000J0D01*
G01*
X6306000Y-6551000D02*
G75*
G03*
X6306000Y-6551000I-50000J0D01*
G01*
X6307000Y-4055000D02*
G75*
G03*
X6307000Y-4055000I-50000J0D01*
G01*
X6307000Y-4309000D02*
G75*
G03*
X6307000Y-4309000I-50000J0D01*
G01*
X6307000Y-4563000D02*
G75*
G03*
X6307000Y-4563000I-50000J0D01*
G01*
X6307000Y-4977000D02*
G75*
G03*
X6307000Y-4977000I-50000J0D01*
G01*
X6307000Y-5231000D02*
G75*
G03*
X6307000Y-5231000I-50000J0D01*
G01*
X6307000Y-5485000D02*
G75*
G03*
X6307000Y-5485000I-50000J0D01*
G01*
X6307000Y-6886000D02*
G75*
G03*
X6307000Y-6886000I-50000J0D01*
G01*
X6307000Y-7140000D02*
G75*
G03*
X6307000Y-7140000I-50000J0D01*
G01*
X6307000Y-7394000D02*
G75*
G03*
X6307000Y-7394000I-50000J0D01*
G01*
X6307000Y-7648000D02*
G75*
G03*
X6307000Y-7648000I-50000J0D01*
G01*
X6307000Y-7902000D02*
G75*
G03*
X6307000Y-7902000I-50000J0D01*
G01*
X6561000Y-4055000D02*
G75*
G03*
X6561000Y-4055000I-50000J0D01*
G01*
X6561000Y-4309000D02*
G75*
G03*
X6561000Y-4309000I-50000J0D01*
G01*
X6561000Y-4563000D02*
G75*
G03*
X6561000Y-4563000I-50000J0D01*
G01*
X6561000Y-4977000D02*
G75*
G03*
X6561000Y-4977000I-50000J0D01*
G01*
X6561000Y-5231000D02*
G75*
G03*
X6561000Y-5231000I-50000J0D01*
G01*
X6561000Y-5485000D02*
G75*
G03*
X6561000Y-5485000I-50000J0D01*
G01*
X6710000Y-5789000D02*
G75*
G03*
X6710000Y-5789000I-50000J0D01*
G01*
X6710000Y-6043000D02*
G75*
G03*
X6710000Y-6043000I-50000J0D01*
G01*
X6710000Y-6297000D02*
G75*
G03*
X6710000Y-6297000I-50000J0D01*
G01*
X6710000Y-6551000D02*
G75*
G03*
X6710000Y-6551000I-50000J0D01*
G01*
X6710000Y-6886000D02*
G75*
G03*
X6710000Y-6886000I-50000J0D01*
G01*
X6710000Y-7140000D02*
G75*
G03*
X6710000Y-7140000I-50000J0D01*
G01*
X6710000Y-7394000D02*
G75*
G03*
X6710000Y-7394000I-50000J0D01*
G01*
X6710000Y-7648000D02*
G75*
G03*
X6710000Y-7648000I-50000J0D01*
G01*
X6710000Y-7902000D02*
G75*
G03*
X6710000Y-7902000I-50000J0D01*
G01*
X6815000Y-4055000D02*
G75*
G03*
X6815000Y-4055000I-50000J0D01*
G01*
X6815000Y-4309000D02*
G75*
G03*
X6815000Y-4309000I-50000J0D01*
G01*
X6815000Y-4563000D02*
G75*
G03*
X6815000Y-4563000I-50000J0D01*
G01*
X6815000Y-4977000D02*
G75*
G03*
X6815000Y-4977000I-50000J0D01*
G01*
X6815000Y-5231000D02*
G75*
G03*
X6815000Y-5231000I-50000J0D01*
G01*
X6815000Y-5485000D02*
G75*
G03*
X6815000Y-5485000I-50000J0D01*
G01*
X7574030Y-4054970D02*
G75*
G03*
X7574030Y-4054970I-50000J0D01*
G01*
X7574030Y-4308970D02*
G75*
G03*
X7574030Y-4308970I-50000J0D01*
G01*
X7574030Y-4816970D02*
G75*
G03*
X7574030Y-4816970I-50000J0D01*
G01*
X7574030Y-5229970D02*
G75*
G03*
X7574030Y-5229970I-50000J0D01*
G01*
X7574030Y-5643970D02*
G75*
G03*
X7574030Y-5643970I-50000J0D01*
G01*
X7574030Y-6057970D02*
G75*
G03*
X7574030Y-6057970I-50000J0D01*
G01*
X7575030Y-6471970D02*
G75*
G03*
X7575030Y-6471970I-50000J0D01*
G01*
X7575030Y-6725970D02*
G75*
G03*
X7575030Y-6725970I-50000J0D01*
G01*
X7575030Y-6979970D02*
G75*
G03*
X7575030Y-6979970I-50000J0D01*
G01*
X7575030Y-7393970D02*
G75*
G03*
X7575030Y-7393970I-50000J0D01*
G01*
X7575030Y-7647970D02*
G75*
G03*
X7575030Y-7647970I-50000J0D01*
G01*
X7575030Y-7901970D02*
G75*
G03*
X7575030Y-7901970I-50000J0D01*
G01*
X7828030Y-4054970D02*
G75*
G03*
X7828030Y-4054970I-50000J0D01*
G01*
X7828030Y-4308970D02*
G75*
G03*
X7828030Y-4308970I-50000J0D01*
G01*
X7828030Y-4816970D02*
G75*
G03*
X7828030Y-4816970I-50000J0D01*
G01*
X7828030Y-5229970D02*
G75*
G03*
X7828030Y-5229970I-50000J0D01*
G01*
X7828030Y-5643970D02*
G75*
G03*
X7828030Y-5643970I-50000J0D01*
G01*
X7828030Y-6057970D02*
G75*
G03*
X7828030Y-6057970I-50000J0D01*
G01*
X7829030Y-6471970D02*
G75*
G03*
X7829030Y-6471970I-50000J0D01*
G01*
X7829030Y-6725970D02*
G75*
G03*
X7829030Y-6725970I-50000J0D01*
G01*
X7829030Y-6979970D02*
G75*
G03*
X7829030Y-6979970I-50000J0D01*
G01*
X7829030Y-7393970D02*
G75*
G03*
X7829030Y-7393970I-50000J0D01*
G01*
X7829030Y-7647970D02*
G75*
G03*
X7829030Y-7647970I-50000J0D01*
G01*
X7829030Y-7901970D02*
G75*
G03*
X7829030Y-7901970I-50000J0D01*
G01*
X8082030Y-4816970D02*
G75*
G03*
X8082030Y-4816970I-50000J0D01*
G01*
X8082030Y-5229970D02*
G75*
G03*
X8082030Y-5229970I-50000J0D01*
G01*
X8082030Y-5643970D02*
G75*
G03*
X8082030Y-5643970I-50000J0D01*
G01*
X8082030Y-6057970D02*
G75*
G03*
X8082030Y-6057970I-50000J0D01*
G01*
X8083030Y-6471970D02*
G75*
G03*
X8083030Y-6471970I-50000J0D01*
G01*
X8083030Y-6725970D02*
G75*
G03*
X8083030Y-6725970I-50000J0D01*
G01*
X8083030Y-6979970D02*
G75*
G03*
X8083030Y-6979970I-50000J0D01*
G01*
X8083030Y-7393970D02*
G75*
G03*
X8083030Y-7393970I-50000J0D01*
G01*
X8083030Y-7647970D02*
G75*
G03*
X8083030Y-7647970I-50000J0D01*
G01*
X8083030Y-7901970D02*
G75*
G03*
X8083030Y-7901970I-50000J0D01*
G01*
X8336030Y-5405970D02*
G75*
G03*
X8336030Y-5405970I-50000J0D01*
G01*
X8336030Y-5659970D02*
G75*
G03*
X8336030Y-5659970I-50000J0D01*
G01*
X8336030Y-5913970D02*
G75*
G03*
X8336030Y-5913970I-50000J0D01*
G01*
X8336030Y-6167970D02*
G75*
G03*
X8336030Y-6167970I-50000J0D01*
G01*
X8337030Y-4054970D02*
G75*
G03*
X8337030Y-4054970I-50000J0D01*
G01*
X8337030Y-4308970D02*
G75*
G03*
X8337030Y-4308970I-50000J0D01*
G01*
X8337030Y-4562970D02*
G75*
G03*
X8337030Y-4562970I-50000J0D01*
G01*
X8337030Y-4816970D02*
G75*
G03*
X8337030Y-4816970I-50000J0D01*
G01*
X8337030Y-5070970D02*
G75*
G03*
X8337030Y-5070970I-50000J0D01*
G01*
X8337030Y-6471970D02*
G75*
G03*
X8337030Y-6471970I-50000J0D01*
G01*
X8337030Y-6725970D02*
G75*
G03*
X8337030Y-6725970I-50000J0D01*
G01*
X8337030Y-6979970D02*
G75*
G03*
X8337030Y-6979970I-50000J0D01*
G01*
X8337030Y-7393970D02*
G75*
G03*
X8337030Y-7393970I-50000J0D01*
G01*
X8337030Y-7647970D02*
G75*
G03*
X8337030Y-7647970I-50000J0D01*
G01*
X8337030Y-7901970D02*
G75*
G03*
X8337030Y-7901970I-50000J0D01*
G01*
X8591030Y-6471970D02*
G75*
G03*
X8591030Y-6471970I-50000J0D01*
G01*
X8591030Y-6725970D02*
G75*
G03*
X8591030Y-6725970I-50000J0D01*
G01*
X8591030Y-6979970D02*
G75*
G03*
X8591030Y-6979970I-50000J0D01*
G01*
X8591030Y-7393970D02*
G75*
G03*
X8591030Y-7393970I-50000J0D01*
G01*
X8591030Y-7647970D02*
G75*
G03*
X8591030Y-7647970I-50000J0D01*
G01*
X8591030Y-7901970D02*
G75*
G03*
X8591030Y-7901970I-50000J0D01*
G01*
X8740030Y-4054970D02*
G75*
G03*
X8740030Y-4054970I-50000J0D01*
G01*
X8740030Y-4308970D02*
G75*
G03*
X8740030Y-4308970I-50000J0D01*
G01*
X8740030Y-4562970D02*
G75*
G03*
X8740030Y-4562970I-50000J0D01*
G01*
X8740030Y-4816970D02*
G75*
G03*
X8740030Y-4816970I-50000J0D01*
G01*
X8740030Y-5070970D02*
G75*
G03*
X8740030Y-5070970I-50000J0D01*
G01*
X8740030Y-5405970D02*
G75*
G03*
X8740030Y-5405970I-50000J0D01*
G01*
X8740030Y-5659970D02*
G75*
G03*
X8740030Y-5659970I-50000J0D01*
G01*
X8740030Y-5913970D02*
G75*
G03*
X8740030Y-5913970I-50000J0D01*
G01*
X8740030Y-6167970D02*
G75*
G03*
X8740030Y-6167970I-50000J0D01*
G01*
X8845030Y-6471970D02*
G75*
G03*
X8845030Y-6471970I-50000J0D01*
G01*
X8845030Y-6725970D02*
G75*
G03*
X8845030Y-6725970I-50000J0D01*
G01*
X8845030Y-6979970D02*
G75*
G03*
X8845030Y-6979970I-50000J0D01*
G01*
X8845030Y-7393970D02*
G75*
G03*
X8845030Y-7393970I-50000J0D01*
G01*
X8845030Y-7647970D02*
G75*
G03*
X8845030Y-7647970I-50000J0D01*
G01*
X8845030Y-7901970D02*
G75*
G03*
X8845030Y-7901970I-50000J0D01*
G01*
X9567000Y-6409000D02*
G75*
G03*
X9567000Y-6409000I-50000J0D01*
G01*
X9567000Y-6663000D02*
G75*
G03*
X9567000Y-6663000I-50000J0D01*
G01*
X9567000Y-6917000D02*
G75*
G03*
X9567000Y-6917000I-50000J0D01*
G01*
X9826500Y-6917000D02*
G75*
G03*
X9826500Y-6917000I-50000J0D01*
G01*
X10080500Y-6917000D02*
G75*
G03*
X10080500Y-6917000I-50000J0D01*
G01*
X10129000Y-7965000D02*
G75*
G03*
X10129000Y-7965000I-50000J0D01*
G01*
X10334500Y-6917000D02*
G75*
G03*
X10334500Y-6917000I-50000J0D01*
G01*
X10383000Y-7965000D02*
G75*
G03*
X10383000Y-7965000I-50000J0D01*
G01*
X10588500Y-6917000D02*
G75*
G03*
X10588500Y-6917000I-50000J0D01*
G01*
X10637000Y-7965000D02*
G75*
G03*
X10637000Y-7965000I-50000J0D01*
G01*
X10842500Y-6917000D02*
G75*
G03*
X10842500Y-6917000I-50000J0D01*
G01*
X10891000Y-7965000D02*
G75*
G03*
X10891000Y-7965000I-50000J0D01*
G01*
X11102000Y-6409000D02*
G75*
G03*
X11102000Y-6409000I-50000J0D01*
G01*
X11102000Y-6663000D02*
G75*
G03*
X11102000Y-6663000I-50000J0D01*
G01*
X11102000Y-6917000D02*
G75*
G03*
X11102000Y-6917000I-50000J0D01*
G01*
X11145000Y-7965000D02*
G75*
G03*
X11145000Y-7965000I-50000J0D01*
G01*
X11499000Y-4631000D02*
G75*
G03*
X11499000Y-4631000I-50000J0D01*
G01*
X11499000Y-4885000D02*
G75*
G03*
X11499000Y-4885000I-50000J0D01*
G01*
X11499000Y-5139000D02*
G75*
G03*
X11499000Y-5139000I-50000J0D01*
G01*
X11499000Y-5393000D02*
G75*
G03*
X11499000Y-5393000I-50000J0D01*
G01*
X11499000Y-5647000D02*
G75*
G03*
X11499000Y-5647000I-50000J0D01*
G01*
X11499000Y-5901000D02*
G75*
G03*
X11499000Y-5901000I-50000J0D01*
G01*
X11499000Y-6155000D02*
G75*
G03*
X11499000Y-6155000I-50000J0D01*
G01*
X11499000Y-6409000D02*
G75*
G03*
X11499000Y-6409000I-50000J0D01*
G01*
X11499000Y-6663000D02*
G75*
G03*
X11499000Y-6663000I-50000J0D01*
G01*
X11499000Y-6917000D02*
G75*
G03*
X11499000Y-6917000I-50000J0D01*
G01*
X11499000Y-7171000D02*
G75*
G03*
X11499000Y-7171000I-50000J0D01*
G01*
X11499000Y-7425000D02*
G75*
G03*
X11499000Y-7425000I-50000J0D01*
G01*
X11753000Y-4631000D02*
G75*
G03*
X11753000Y-4631000I-50000J0D01*
G01*
X11753000Y-4885000D02*
G75*
G03*
X11753000Y-4885000I-50000J0D01*
G01*
X11753000Y-5139000D02*
G75*
G03*
X11753000Y-5139000I-50000J0D01*
G01*
X11753000Y-5393000D02*
G75*
G03*
X11753000Y-5393000I-50000J0D01*
G01*
X11753000Y-5647000D02*
G75*
G03*
X11753000Y-5647000I-50000J0D01*
G01*
X11753000Y-5901000D02*
G75*
G03*
X11753000Y-5901000I-50000J0D01*
G01*
X11753000Y-6155000D02*
G75*
G03*
X11753000Y-6155000I-50000J0D01*
G01*
X11753000Y-6409000D02*
G75*
G03*
X11753000Y-6409000I-50000J0D01*
G01*
X11753000Y-6663000D02*
G75*
G03*
X11753000Y-6663000I-50000J0D01*
G01*
X11753000Y-6917000D02*
G75*
G03*
X11753000Y-6917000I-50000J0D01*
G01*
X11753000Y-7171000D02*
G75*
G03*
X11753000Y-7171000I-50000J0D01*
G01*
X11753000Y-7425000D02*
G75*
G03*
X11753000Y-7425000I-50000J0D01*
G01*
D14*
X2587024Y-5846390D02*
X2587024Y-5955610D01*
X2532414Y-5901000D02*
X2641634Y-5901000D01*
X2587024Y-6100390D02*
X2587024Y-6209610D01*
X2532414Y-6155000D02*
X2641634Y-6155000D01*
X2587024Y-6354390D02*
X2587024Y-6463610D01*
X2532414Y-6409000D02*
X2641634Y-6409000D01*
X2587024Y-6608390D02*
X2587024Y-6717610D01*
X2532414Y-6663000D02*
X2641634Y-6663000D01*
X2587024Y-6862390D02*
X2587024Y-6971610D01*
X2532414Y-6917000D02*
X2641634Y-6917000D01*
X2587024Y-7116390D02*
X2587024Y-7225610D01*
X2532414Y-7171000D02*
X2641634Y-7171000D01*
X2587024Y-7370390D02*
X2587024Y-7479610D01*
X2532414Y-7425000D02*
X2641634Y-7425000D01*
X2587024Y-7624390D02*
X2587024Y-7733610D01*
X2532414Y-7679000D02*
X2641634Y-7679000D01*
X2587024Y-7878390D02*
X2587024Y-7987610D01*
X2532414Y-7933000D02*
X2641634Y-7933000D01*
X2846524Y-5846390D02*
X2846524Y-5955610D01*
X2791914Y-5901000D02*
X2901134Y-5901000D01*
X3100524Y-5846390D02*
X3100524Y-5955610D01*
X3045914Y-5901000D02*
X3155134Y-5901000D01*
X3354524Y-5846390D02*
X3354524Y-5955610D01*
X3299914Y-5901000D02*
X3409134Y-5901000D01*
X3608524Y-5846390D02*
X3608524Y-5955610D01*
X3553914Y-5901000D02*
X3663134Y-5901000D01*
X3862524Y-5846390D02*
X3862524Y-5955610D01*
X3807914Y-5901000D02*
X3917134Y-5901000D01*
X4122024Y-5846390D02*
X4122024Y-5955610D01*
X4067414Y-5901000D02*
X4176634Y-5901000D01*
X4122024Y-6100390D02*
X4122024Y-6209610D01*
X4067414Y-6155000D02*
X4176634Y-6155000D01*
X4122024Y-6354390D02*
X4122024Y-6463610D01*
X4067414Y-6409000D02*
X4176634Y-6409000D01*
X4122024Y-6608390D02*
X4122024Y-6717610D01*
X4067414Y-6663000D02*
X4176634Y-6663000D01*
X4122024Y-6862390D02*
X4122024Y-6971610D01*
X4067414Y-6917000D02*
X4176634Y-6917000D01*
X4122024Y-7116390D02*
X4122024Y-7225610D01*
X4067414Y-7171000D02*
X4176634Y-7171000D01*
X4122024Y-7370390D02*
X4122024Y-7479610D01*
X4067414Y-7425000D02*
X4176634Y-7425000D01*
X4122024Y-7624390D02*
X4122024Y-7733610D01*
X4067414Y-7679000D02*
X4176634Y-7679000D01*
X4122024Y-7878390D02*
X4122024Y-7987610D01*
X4067414Y-7933000D02*
X4176634Y-7933000D01*
X9517000Y-4068390D02*
X9517000Y-4177610D01*
X9462390Y-4123000D02*
X9571610Y-4123000D01*
X9517000Y-4322390D02*
X9517000Y-4431610D01*
X9462390Y-4377000D02*
X9571610Y-4377000D01*
X9517000Y-4576390D02*
X9517000Y-4685610D01*
X9462390Y-4631000D02*
X9571610Y-4631000D01*
X9517000Y-4830390D02*
X9517000Y-4939610D01*
X9462390Y-4885000D02*
X9571610Y-4885000D01*
X9517000Y-5084390D02*
X9517000Y-5193610D01*
X9462390Y-5139000D02*
X9571610Y-5139000D01*
X9517000Y-5338390D02*
X9517000Y-5447610D01*
X9462390Y-5393000D02*
X9571610Y-5393000D01*
X9517000Y-5592390D02*
X9517000Y-5701610D01*
X9462390Y-5647000D02*
X9571610Y-5647000D01*
X9517000Y-5846390D02*
X9517000Y-5955610D01*
X9462390Y-5901000D02*
X9571610Y-5901000D01*
X9517000Y-6100390D02*
X9517000Y-6209610D01*
X9462390Y-6155000D02*
X9571610Y-6155000D01*
X9776500Y-6100390D02*
X9776500Y-6209610D01*
X9721890Y-6155000D02*
X9831110Y-6155000D01*
X10030500Y-6100390D02*
X10030500Y-6209610D01*
X9975890Y-6155000D02*
X10085110Y-6155000D01*
X10284500Y-6100390D02*
X10284500Y-6209610D01*
X10229890Y-6155000D02*
X10339110Y-6155000D01*
X10538500Y-6100390D02*
X10538500Y-6209610D01*
X10483890Y-6155000D02*
X10593110Y-6155000D01*
X10792500Y-6100390D02*
X10792500Y-6209610D01*
X10737890Y-6155000D02*
X10847110Y-6155000D01*
X11052000Y-4068390D02*
X11052000Y-4177610D01*
X10997390Y-4123000D02*
X11106610Y-4123000D01*
X11052000Y-4322390D02*
X11052000Y-4431610D01*
X10997390Y-4377000D02*
X11106610Y-4377000D01*
X11052000Y-4576390D02*
X11052000Y-4685610D01*
X10997390Y-4631000D02*
X11106610Y-4631000D01*
X11052000Y-4830390D02*
X11052000Y-4939610D01*
X10997390Y-4885000D02*
X11106610Y-4885000D01*
X11052000Y-5084390D02*
X11052000Y-5193610D01*
X10997390Y-5139000D02*
X11106610Y-5139000D01*
X11052000Y-5338390D02*
X11052000Y-5447610D01*
X10997390Y-5393000D02*
X11106610Y-5393000D01*
X11052000Y-5592390D02*
X11052000Y-5701610D01*
X10997390Y-5647000D02*
X11106610Y-5647000D01*
X11052000Y-5846390D02*
X11052000Y-5955610D01*
X10997390Y-5901000D02*
X11106610Y-5901000D01*
X11052000Y-6100390D02*
X11052000Y-6209610D01*
X10997390Y-6155000D02*
X11106610Y-6155000D01*
D12*
X2698300Y-9624484D02*
X2698300Y-9424484D01*
X2698300Y-9424484D02*
X2745919Y-9424484D01*
X2745919Y-9424484D02*
X2774491Y-9434008D01*
X2774491Y-9434008D02*
X2793539Y-9453055D01*
X2793539Y-9453055D02*
X2803062Y-9472103D01*
X2803062Y-9472103D02*
X2812586Y-9510198D01*
X2812586Y-9510198D02*
X2812586Y-9538770D01*
X2812586Y-9538770D02*
X2803062Y-9576865D01*
X2803062Y-9576865D02*
X2793539Y-9595912D01*
X2793539Y-9595912D02*
X2774491Y-9614960D01*
X2774491Y-9614960D02*
X2745919Y-9624484D01*
X2745919Y-9624484D02*
X2698300Y-9624484D01*
X2898300Y-9624484D02*
X2898300Y-9491150D01*
X2898300Y-9529246D02*
X2907824Y-9510198D01*
X2907824Y-9510198D02*
X2917348Y-9500674D01*
X2917348Y-9500674D02*
X2936396Y-9491150D01*
X2936396Y-9491150D02*
X2955443Y-9491150D01*
X3022110Y-9624484D02*
X3022110Y-9491150D01*
X3022110Y-9424484D02*
X3012586Y-9434008D01*
X3012586Y-9434008D02*
X3022110Y-9443531D01*
X3022110Y-9443531D02*
X3031634Y-9434008D01*
X3031634Y-9434008D02*
X3022110Y-9424484D01*
X3022110Y-9424484D02*
X3022110Y-9443531D01*
X3145919Y-9624484D02*
X3126872Y-9614960D01*
X3126872Y-9614960D02*
X3117348Y-9595912D01*
X3117348Y-9595912D02*
X3117348Y-9424484D01*
X3250681Y-9624484D02*
X3231634Y-9614960D01*
X3231634Y-9614960D02*
X3222110Y-9595912D01*
X3222110Y-9595912D02*
X3222110Y-9424484D01*
X3479253Y-9624484D02*
X3479253Y-9424484D01*
X3479253Y-9424484D02*
X3545919Y-9567341D01*
X3545919Y-9567341D02*
X3612586Y-9424484D01*
X3612586Y-9424484D02*
X3612586Y-9624484D01*
X3793538Y-9624484D02*
X3793538Y-9519722D01*
X3793538Y-9519722D02*
X3784015Y-9500674D01*
X3784015Y-9500674D02*
X3764967Y-9491150D01*
X3764967Y-9491150D02*
X3726872Y-9491150D01*
X3726872Y-9491150D02*
X3707824Y-9500674D01*
X3793538Y-9614960D02*
X3774491Y-9624484D01*
X3774491Y-9624484D02*
X3726872Y-9624484D01*
X3726872Y-9624484D02*
X3707824Y-9614960D01*
X3707824Y-9614960D02*
X3698300Y-9595912D01*
X3698300Y-9595912D02*
X3698300Y-9576865D01*
X3698300Y-9576865D02*
X3707824Y-9557817D01*
X3707824Y-9557817D02*
X3726872Y-9548293D01*
X3726872Y-9548293D02*
X3774491Y-9548293D01*
X3774491Y-9548293D02*
X3793538Y-9538770D01*
X3888777Y-9491150D02*
X3888777Y-9691150D01*
X3888777Y-9500674D02*
X3907824Y-9491150D01*
X3907824Y-9491150D02*
X3945919Y-9491150D01*
X3945919Y-9491150D02*
X3964967Y-9500674D01*
X3964967Y-9500674D02*
X3974491Y-9510198D01*
X3974491Y-9510198D02*
X3984015Y-9529246D01*
X3984015Y-9529246D02*
X3984015Y-9586389D01*
X3984015Y-9586389D02*
X3974491Y-9605436D01*
X3974491Y-9605436D02*
X3964967Y-9614960D01*
X3964967Y-9614960D02*
X3945919Y-9624484D01*
X3945919Y-9624484D02*
X3907824Y-9624484D01*
X3907824Y-9624484D02*
X3888777Y-9614960D01*
X4069729Y-9605436D02*
X4079253Y-9614960D01*
X4079253Y-9614960D02*
X4069729Y-9624484D01*
X4069729Y-9624484D02*
X4060205Y-9614960D01*
X4060205Y-9614960D02*
X4069729Y-9605436D01*
X4069729Y-9605436D02*
X4069729Y-9624484D01*
X4069729Y-9500674D02*
X4079253Y-9510198D01*
X4079253Y-9510198D02*
X4069729Y-9519722D01*
X4069729Y-9519722D02*
X4060205Y-9510198D01*
X4060205Y-9510198D02*
X4069729Y-9500674D01*
X4069729Y-9500674D02*
X4069729Y-9519722D01*
D13*
X2397524Y-9933000D02*
X2437524Y-9973000D01*
X2437524Y-9933000D02*
X2397524Y-9973000D01*
D12*
X2736396Y-9844484D02*
X2755443Y-9844484D01*
X2755443Y-9844484D02*
X2774491Y-9854008D01*
X2774491Y-9854008D02*
X2784015Y-9863531D01*
X2784015Y-9863531D02*
X2793539Y-9882579D01*
X2793539Y-9882579D02*
X2803062Y-9920674D01*
X2803062Y-9920674D02*
X2803062Y-9968293D01*
X2803062Y-9968293D02*
X2793539Y-10006389D01*
X2793539Y-10006389D02*
X2784015Y-10025436D01*
X2784015Y-10025436D02*
X2774491Y-10034960D01*
X2774491Y-10034960D02*
X2755443Y-10044484D01*
X2755443Y-10044484D02*
X2736396Y-10044484D01*
X2736396Y-10044484D02*
X2717348Y-10034960D01*
X2717348Y-10034960D02*
X2707824Y-10025436D01*
X2707824Y-10025436D02*
X2698300Y-10006389D01*
X2698300Y-10006389D02*
X2688777Y-9968293D01*
X2688777Y-9968293D02*
X2688777Y-9920674D01*
X2688777Y-9920674D02*
X2698300Y-9882579D01*
X2698300Y-9882579D02*
X2707824Y-9863531D01*
X2707824Y-9863531D02*
X2717348Y-9854008D01*
X2717348Y-9854008D02*
X2736396Y-9844484D01*
X2888777Y-10025436D02*
X2898300Y-10034960D01*
X2898300Y-10034960D02*
X2888777Y-10044484D01*
X2888777Y-10044484D02*
X2879253Y-10034960D01*
X2879253Y-10034960D02*
X2888777Y-10025436D01*
X2888777Y-10025436D02*
X2888777Y-10044484D01*
X3069729Y-9911150D02*
X3069729Y-10044484D01*
X3022110Y-9834960D02*
X2974491Y-9977817D01*
X2974491Y-9977817D02*
X3098300Y-9977817D01*
X3212586Y-9844484D02*
X3231634Y-9844484D01*
X3231634Y-9844484D02*
X3250681Y-9854008D01*
X3250681Y-9854008D02*
X3260205Y-9863531D01*
X3260205Y-9863531D02*
X3269729Y-9882579D01*
X3269729Y-9882579D02*
X3279253Y-9920674D01*
X3279253Y-9920674D02*
X3279253Y-9968293D01*
X3279253Y-9968293D02*
X3269729Y-10006389D01*
X3269729Y-10006389D02*
X3260205Y-10025436D01*
X3260205Y-10025436D02*
X3250681Y-10034960D01*
X3250681Y-10034960D02*
X3231634Y-10044484D01*
X3231634Y-10044484D02*
X3212586Y-10044484D01*
X3212586Y-10044484D02*
X3193538Y-10034960D01*
X3193538Y-10034960D02*
X3184015Y-10025436D01*
X3184015Y-10025436D02*
X3174491Y-10006389D01*
X3174491Y-10006389D02*
X3164967Y-9968293D01*
X3164967Y-9968293D02*
X3164967Y-9920674D01*
X3164967Y-9920674D02*
X3174491Y-9882579D01*
X3174491Y-9882579D02*
X3184015Y-9863531D01*
X3184015Y-9863531D02*
X3193538Y-9854008D01*
X3193538Y-9854008D02*
X3212586Y-9844484D01*
X3403062Y-9844484D02*
X3422110Y-9844484D01*
X3422110Y-9844484D02*
X3441158Y-9854008D01*
X3441158Y-9854008D02*
X3450681Y-9863531D01*
X3450681Y-9863531D02*
X3460205Y-9882579D01*
X3460205Y-9882579D02*
X3469729Y-9920674D01*
X3469729Y-9920674D02*
X3469729Y-9968293D01*
X3469729Y-9968293D02*
X3460205Y-10006389D01*
X3460205Y-10006389D02*
X3450681Y-10025436D01*
X3450681Y-10025436D02*
X3441158Y-10034960D01*
X3441158Y-10034960D02*
X3422110Y-10044484D01*
X3422110Y-10044484D02*
X3403062Y-10044484D01*
X3403062Y-10044484D02*
X3384015Y-10034960D01*
X3384015Y-10034960D02*
X3374491Y-10025436D01*
X3374491Y-10025436D02*
X3364967Y-10006389D01*
X3364967Y-10006389D02*
X3355443Y-9968293D01*
X3355443Y-9968293D02*
X3355443Y-9920674D01*
X3355443Y-9920674D02*
X3364967Y-9882579D01*
X3364967Y-9882579D02*
X3374491Y-9863531D01*
X3374491Y-9863531D02*
X3384015Y-9854008D01*
X3384015Y-9854008D02*
X3403062Y-9844484D01*
X3555443Y-10044484D02*
X3555443Y-9911150D01*
X3555443Y-9930198D02*
X3564967Y-9920674D01*
X3564967Y-9920674D02*
X3584015Y-9911150D01*
X3584015Y-9911150D02*
X3612586Y-9911150D01*
X3612586Y-9911150D02*
X3631634Y-9920674D01*
X3631634Y-9920674D02*
X3641158Y-9939722D01*
X3641158Y-9939722D02*
X3641158Y-10044484D01*
X3641158Y-9939722D02*
X3650681Y-9920674D01*
X3650681Y-9920674D02*
X3669729Y-9911150D01*
X3669729Y-9911150D02*
X3698300Y-9911150D01*
X3698300Y-9911150D02*
X3717348Y-9920674D01*
X3717348Y-9920674D02*
X3726872Y-9939722D01*
X3726872Y-9939722D02*
X3726872Y-10044484D01*
X3822110Y-10044484D02*
X3822110Y-9911150D01*
X3822110Y-9930198D02*
X3831634Y-9920674D01*
X3831634Y-9920674D02*
X3850681Y-9911150D01*
X3850681Y-9911150D02*
X3879253Y-9911150D01*
X3879253Y-9911150D02*
X3898300Y-9920674D01*
X3898300Y-9920674D02*
X3907824Y-9939722D01*
X3907824Y-9939722D02*
X3907824Y-10044484D01*
X3907824Y-9939722D02*
X3917348Y-9920674D01*
X3917348Y-9920674D02*
X3936396Y-9911150D01*
X3936396Y-9911150D02*
X3964967Y-9911150D01*
X3964967Y-9911150D02*
X3984015Y-9920674D01*
X3984015Y-9920674D02*
X3993539Y-9939722D01*
X3993539Y-9939722D02*
X3993539Y-10044484D01*
X4384015Y-9834960D02*
X4212586Y-10092103D01*
X4641158Y-9844484D02*
X4660205Y-9844484D01*
X4660205Y-9844484D02*
X4679253Y-9854008D01*
X4679253Y-9854008D02*
X4688777Y-9863531D01*
X4688777Y-9863531D02*
X4698301Y-9882579D01*
X4698301Y-9882579D02*
X4707824Y-9920674D01*
X4707824Y-9920674D02*
X4707824Y-9968293D01*
X4707824Y-9968293D02*
X4698301Y-10006389D01*
X4698301Y-10006389D02*
X4688777Y-10025436D01*
X4688777Y-10025436D02*
X4679253Y-10034960D01*
X4679253Y-10034960D02*
X4660205Y-10044484D01*
X4660205Y-10044484D02*
X4641158Y-10044484D01*
X4641158Y-10044484D02*
X4622110Y-10034960D01*
X4622110Y-10034960D02*
X4612586Y-10025436D01*
X4612586Y-10025436D02*
X4603063Y-10006389D01*
X4603063Y-10006389D02*
X4593539Y-9968293D01*
X4593539Y-9968293D02*
X4593539Y-9920674D01*
X4593539Y-9920674D02*
X4603063Y-9882579D01*
X4603063Y-9882579D02*
X4612586Y-9863531D01*
X4612586Y-9863531D02*
X4622110Y-9854008D01*
X4622110Y-9854008D02*
X4641158Y-9844484D01*
X4793539Y-10025436D02*
X4803063Y-10034960D01*
X4803063Y-10034960D02*
X4793539Y-10044484D01*
X4793539Y-10044484D02*
X4784015Y-10034960D01*
X4784015Y-10034960D02*
X4793539Y-10025436D01*
X4793539Y-10025436D02*
X4793539Y-10044484D01*
X4926872Y-9844484D02*
X4945920Y-9844484D01*
X4945920Y-9844484D02*
X4964967Y-9854008D01*
X4964967Y-9854008D02*
X4974491Y-9863531D01*
X4974491Y-9863531D02*
X4984015Y-9882579D01*
X4984015Y-9882579D02*
X4993539Y-9920674D01*
X4993539Y-9920674D02*
X4993539Y-9968293D01*
X4993539Y-9968293D02*
X4984015Y-10006389D01*
X4984015Y-10006389D02*
X4974491Y-10025436D01*
X4974491Y-10025436D02*
X4964967Y-10034960D01*
X4964967Y-10034960D02*
X4945920Y-10044484D01*
X4945920Y-10044484D02*
X4926872Y-10044484D01*
X4926872Y-10044484D02*
X4907824Y-10034960D01*
X4907824Y-10034960D02*
X4898301Y-10025436D01*
X4898301Y-10025436D02*
X4888777Y-10006389D01*
X4888777Y-10006389D02*
X4879253Y-9968293D01*
X4879253Y-9968293D02*
X4879253Y-9920674D01*
X4879253Y-9920674D02*
X4888777Y-9882579D01*
X4888777Y-9882579D02*
X4898301Y-9863531D01*
X4898301Y-9863531D02*
X4907824Y-9854008D01*
X4907824Y-9854008D02*
X4926872Y-9844484D01*
X5184015Y-10044484D02*
X5069729Y-10044484D01*
X5126872Y-10044484D02*
X5126872Y-9844484D01*
X5126872Y-9844484D02*
X5107824Y-9873055D01*
X5107824Y-9873055D02*
X5088777Y-9892103D01*
X5088777Y-9892103D02*
X5069729Y-9901627D01*
X5364967Y-9844484D02*
X5269729Y-9844484D01*
X5269729Y-9844484D02*
X5260205Y-9939722D01*
X5260205Y-9939722D02*
X5269729Y-9930198D01*
X5269729Y-9930198D02*
X5288777Y-9920674D01*
X5288777Y-9920674D02*
X5336396Y-9920674D01*
X5336396Y-9920674D02*
X5355444Y-9930198D01*
X5355444Y-9930198D02*
X5364967Y-9939722D01*
X5364967Y-9939722D02*
X5374491Y-9958770D01*
X5374491Y-9958770D02*
X5374491Y-10006389D01*
X5374491Y-10006389D02*
X5364967Y-10025436D01*
X5364967Y-10025436D02*
X5355444Y-10034960D01*
X5355444Y-10034960D02*
X5336396Y-10044484D01*
X5336396Y-10044484D02*
X5288777Y-10044484D01*
X5288777Y-10044484D02*
X5269729Y-10034960D01*
X5269729Y-10034960D02*
X5260205Y-10025436D01*
X5441158Y-9844484D02*
X5574491Y-9844484D01*
X5574491Y-9844484D02*
X5488777Y-10044484D01*
X5641158Y-9844484D02*
X5641158Y-9882579D01*
X5717348Y-9844484D02*
X5717348Y-9882579D01*
X6012586Y-10120674D02*
X6003063Y-10111150D01*
X6003063Y-10111150D02*
X5984015Y-10082579D01*
X5984015Y-10082579D02*
X5974491Y-10063531D01*
X5974491Y-10063531D02*
X5964967Y-10034960D01*
X5964967Y-10034960D02*
X5955444Y-9987341D01*
X5955444Y-9987341D02*
X5955444Y-9949246D01*
X5955444Y-9949246D02*
X5964967Y-9901627D01*
X5964967Y-9901627D02*
X5974491Y-9873055D01*
X5974491Y-9873055D02*
X5984015Y-9854008D01*
X5984015Y-9854008D02*
X6003063Y-9825436D01*
X6003063Y-9825436D02*
X6012586Y-9815912D01*
X6193539Y-10044484D02*
X6079253Y-10044484D01*
X6136396Y-10044484D02*
X6136396Y-9844484D01*
X6136396Y-9844484D02*
X6117348Y-9873055D01*
X6117348Y-9873055D02*
X6098301Y-9892103D01*
X6098301Y-9892103D02*
X6079253Y-9901627D01*
X6317348Y-9844484D02*
X6336396Y-9844484D01*
X6336396Y-9844484D02*
X6355444Y-9854008D01*
X6355444Y-9854008D02*
X6364967Y-9863531D01*
X6364967Y-9863531D02*
X6374491Y-9882579D01*
X6374491Y-9882579D02*
X6384015Y-9920674D01*
X6384015Y-9920674D02*
X6384015Y-9968293D01*
X6384015Y-9968293D02*
X6374491Y-10006389D01*
X6374491Y-10006389D02*
X6364967Y-10025436D01*
X6364967Y-10025436D02*
X6355444Y-10034960D01*
X6355444Y-10034960D02*
X6336396Y-10044484D01*
X6336396Y-10044484D02*
X6317348Y-10044484D01*
X6317348Y-10044484D02*
X6298301Y-10034960D01*
X6298301Y-10034960D02*
X6288777Y-10025436D01*
X6288777Y-10025436D02*
X6279253Y-10006389D01*
X6279253Y-10006389D02*
X6269729Y-9968293D01*
X6269729Y-9968293D02*
X6269729Y-9920674D01*
X6269729Y-9920674D02*
X6279253Y-9882579D01*
X6279253Y-9882579D02*
X6288777Y-9863531D01*
X6288777Y-9863531D02*
X6298301Y-9854008D01*
X6298301Y-9854008D02*
X6317348Y-9844484D01*
X6622110Y-10044484D02*
X6622110Y-9844484D01*
X6707825Y-10044484D02*
X6707825Y-9939722D01*
X6707825Y-9939722D02*
X6698301Y-9920674D01*
X6698301Y-9920674D02*
X6679253Y-9911150D01*
X6679253Y-9911150D02*
X6650682Y-9911150D01*
X6650682Y-9911150D02*
X6631634Y-9920674D01*
X6631634Y-9920674D02*
X6622110Y-9930198D01*
X6831634Y-10044484D02*
X6812586Y-10034960D01*
X6812586Y-10034960D02*
X6803063Y-10025436D01*
X6803063Y-10025436D02*
X6793539Y-10006389D01*
X6793539Y-10006389D02*
X6793539Y-9949246D01*
X6793539Y-9949246D02*
X6803063Y-9930198D01*
X6803063Y-9930198D02*
X6812586Y-9920674D01*
X6812586Y-9920674D02*
X6831634Y-9911150D01*
X6831634Y-9911150D02*
X6860206Y-9911150D01*
X6860206Y-9911150D02*
X6879253Y-9920674D01*
X6879253Y-9920674D02*
X6888777Y-9930198D01*
X6888777Y-9930198D02*
X6898301Y-9949246D01*
X6898301Y-9949246D02*
X6898301Y-10006389D01*
X6898301Y-10006389D02*
X6888777Y-10025436D01*
X6888777Y-10025436D02*
X6879253Y-10034960D01*
X6879253Y-10034960D02*
X6860206Y-10044484D01*
X6860206Y-10044484D02*
X6831634Y-10044484D01*
X7012586Y-10044484D02*
X6993539Y-10034960D01*
X6993539Y-10034960D02*
X6984015Y-10015912D01*
X6984015Y-10015912D02*
X6984015Y-9844484D01*
X7164967Y-10034960D02*
X7145920Y-10044484D01*
X7145920Y-10044484D02*
X7107825Y-10044484D01*
X7107825Y-10044484D02*
X7088777Y-10034960D01*
X7088777Y-10034960D02*
X7079253Y-10015912D01*
X7079253Y-10015912D02*
X7079253Y-9939722D01*
X7079253Y-9939722D02*
X7088777Y-9920674D01*
X7088777Y-9920674D02*
X7107825Y-9911150D01*
X7107825Y-9911150D02*
X7145920Y-9911150D01*
X7145920Y-9911150D02*
X7164967Y-9920674D01*
X7164967Y-9920674D02*
X7174491Y-9939722D01*
X7174491Y-9939722D02*
X7174491Y-9958770D01*
X7174491Y-9958770D02*
X7079253Y-9977817D01*
X7250682Y-10034960D02*
X7269729Y-10044484D01*
X7269729Y-10044484D02*
X7307825Y-10044484D01*
X7307825Y-10044484D02*
X7326872Y-10034960D01*
X7326872Y-10034960D02*
X7336396Y-10015912D01*
X7336396Y-10015912D02*
X7336396Y-10006389D01*
X7336396Y-10006389D02*
X7326872Y-9987341D01*
X7326872Y-9987341D02*
X7307825Y-9977817D01*
X7307825Y-9977817D02*
X7279253Y-9977817D01*
X7279253Y-9977817D02*
X7260206Y-9968293D01*
X7260206Y-9968293D02*
X7250682Y-9949246D01*
X7250682Y-9949246D02*
X7250682Y-9939722D01*
X7250682Y-9939722D02*
X7260206Y-9920674D01*
X7260206Y-9920674D02*
X7279253Y-9911150D01*
X7279253Y-9911150D02*
X7307825Y-9911150D01*
X7307825Y-9911150D02*
X7326872Y-9920674D01*
X7403063Y-10120674D02*
X7412587Y-10111150D01*
X7412587Y-10111150D02*
X7431634Y-10082579D01*
X7431634Y-10082579D02*
X7441158Y-10063531D01*
X7441158Y-10063531D02*
X7450682Y-10034960D01*
X7450682Y-10034960D02*
X7460206Y-9987341D01*
X7460206Y-9987341D02*
X7460206Y-9949246D01*
X7460206Y-9949246D02*
X7450682Y-9901627D01*
X7450682Y-9901627D02*
X7441158Y-9873055D01*
X7441158Y-9873055D02*
X7431634Y-9854008D01*
X7431634Y-9854008D02*
X7412587Y-9825436D01*
X7412587Y-9825436D02*
X7403063Y-9815912D01*
D10*
X2437524Y-10217000D02*
G75*
G03*
X2437524Y-10217000I-50000J0D01*
G01*
D12*
X2803062Y-10308484D02*
X2688777Y-10308484D01*
X2745919Y-10308484D02*
X2745919Y-10108484D01*
X2745919Y-10108484D02*
X2726872Y-10137055D01*
X2726872Y-10137055D02*
X2707824Y-10156103D01*
X2707824Y-10156103D02*
X2688777Y-10165627D01*
X2888777Y-10289436D02*
X2898300Y-10298960D01*
X2898300Y-10298960D02*
X2888777Y-10308484D01*
X2888777Y-10308484D02*
X2879253Y-10298960D01*
X2879253Y-10298960D02*
X2888777Y-10289436D01*
X2888777Y-10289436D02*
X2888777Y-10308484D01*
X3022110Y-10108484D02*
X3041158Y-10108484D01*
X3041158Y-10108484D02*
X3060205Y-10118008D01*
X3060205Y-10118008D02*
X3069729Y-10127531D01*
X3069729Y-10127531D02*
X3079253Y-10146579D01*
X3079253Y-10146579D02*
X3088777Y-10184674D01*
X3088777Y-10184674D02*
X3088777Y-10232293D01*
X3088777Y-10232293D02*
X3079253Y-10270389D01*
X3079253Y-10270389D02*
X3069729Y-10289436D01*
X3069729Y-10289436D02*
X3060205Y-10298960D01*
X3060205Y-10298960D02*
X3041158Y-10308484D01*
X3041158Y-10308484D02*
X3022110Y-10308484D01*
X3022110Y-10308484D02*
X3003062Y-10298960D01*
X3003062Y-10298960D02*
X2993538Y-10289436D01*
X2993538Y-10289436D02*
X2984015Y-10270389D01*
X2984015Y-10270389D02*
X2974491Y-10232293D01*
X2974491Y-10232293D02*
X2974491Y-10184674D01*
X2974491Y-10184674D02*
X2984015Y-10146579D01*
X2984015Y-10146579D02*
X2993538Y-10127531D01*
X2993538Y-10127531D02*
X3003062Y-10118008D01*
X3003062Y-10118008D02*
X3022110Y-10108484D01*
X3212586Y-10108484D02*
X3231634Y-10108484D01*
X3231634Y-10108484D02*
X3250681Y-10118008D01*
X3250681Y-10118008D02*
X3260205Y-10127531D01*
X3260205Y-10127531D02*
X3269729Y-10146579D01*
X3269729Y-10146579D02*
X3279253Y-10184674D01*
X3279253Y-10184674D02*
X3279253Y-10232293D01*
X3279253Y-10232293D02*
X3269729Y-10270389D01*
X3269729Y-10270389D02*
X3260205Y-10289436D01*
X3260205Y-10289436D02*
X3250681Y-10298960D01*
X3250681Y-10298960D02*
X3231634Y-10308484D01*
X3231634Y-10308484D02*
X3212586Y-10308484D01*
X3212586Y-10308484D02*
X3193538Y-10298960D01*
X3193538Y-10298960D02*
X3184015Y-10289436D01*
X3184015Y-10289436D02*
X3174491Y-10270389D01*
X3174491Y-10270389D02*
X3164967Y-10232293D01*
X3164967Y-10232293D02*
X3164967Y-10184674D01*
X3164967Y-10184674D02*
X3174491Y-10146579D01*
X3174491Y-10146579D02*
X3184015Y-10127531D01*
X3184015Y-10127531D02*
X3193538Y-10118008D01*
X3193538Y-10118008D02*
X3212586Y-10108484D01*
X3403062Y-10108484D02*
X3422110Y-10108484D01*
X3422110Y-10108484D02*
X3441158Y-10118008D01*
X3441158Y-10118008D02*
X3450681Y-10127531D01*
X3450681Y-10127531D02*
X3460205Y-10146579D01*
X3460205Y-10146579D02*
X3469729Y-10184674D01*
X3469729Y-10184674D02*
X3469729Y-10232293D01*
X3469729Y-10232293D02*
X3460205Y-10270389D01*
X3460205Y-10270389D02*
X3450681Y-10289436D01*
X3450681Y-10289436D02*
X3441158Y-10298960D01*
X3441158Y-10298960D02*
X3422110Y-10308484D01*
X3422110Y-10308484D02*
X3403062Y-10308484D01*
X3403062Y-10308484D02*
X3384015Y-10298960D01*
X3384015Y-10298960D02*
X3374491Y-10289436D01*
X3374491Y-10289436D02*
X3364967Y-10270389D01*
X3364967Y-10270389D02*
X3355443Y-10232293D01*
X3355443Y-10232293D02*
X3355443Y-10184674D01*
X3355443Y-10184674D02*
X3364967Y-10146579D01*
X3364967Y-10146579D02*
X3374491Y-10127531D01*
X3374491Y-10127531D02*
X3384015Y-10118008D01*
X3384015Y-10118008D02*
X3403062Y-10108484D01*
X3555443Y-10308484D02*
X3555443Y-10175150D01*
X3555443Y-10194198D02*
X3564967Y-10184674D01*
X3564967Y-10184674D02*
X3584015Y-10175150D01*
X3584015Y-10175150D02*
X3612586Y-10175150D01*
X3612586Y-10175150D02*
X3631634Y-10184674D01*
X3631634Y-10184674D02*
X3641158Y-10203722D01*
X3641158Y-10203722D02*
X3641158Y-10308484D01*
X3641158Y-10203722D02*
X3650681Y-10184674D01*
X3650681Y-10184674D02*
X3669729Y-10175150D01*
X3669729Y-10175150D02*
X3698300Y-10175150D01*
X3698300Y-10175150D02*
X3717348Y-10184674D01*
X3717348Y-10184674D02*
X3726872Y-10203722D01*
X3726872Y-10203722D02*
X3726872Y-10308484D01*
X3822110Y-10308484D02*
X3822110Y-10175150D01*
X3822110Y-10194198D02*
X3831634Y-10184674D01*
X3831634Y-10184674D02*
X3850681Y-10175150D01*
X3850681Y-10175150D02*
X3879253Y-10175150D01*
X3879253Y-10175150D02*
X3898300Y-10184674D01*
X3898300Y-10184674D02*
X3907824Y-10203722D01*
X3907824Y-10203722D02*
X3907824Y-10308484D01*
X3907824Y-10203722D02*
X3917348Y-10184674D01*
X3917348Y-10184674D02*
X3936396Y-10175150D01*
X3936396Y-10175150D02*
X3964967Y-10175150D01*
X3964967Y-10175150D02*
X3984015Y-10184674D01*
X3984015Y-10184674D02*
X3993539Y-10203722D01*
X3993539Y-10203722D02*
X3993539Y-10308484D01*
X4384015Y-10098960D02*
X4212586Y-10356103D01*
X4641158Y-10108484D02*
X4660205Y-10108484D01*
X4660205Y-10108484D02*
X4679253Y-10118008D01*
X4679253Y-10118008D02*
X4688777Y-10127531D01*
X4688777Y-10127531D02*
X4698301Y-10146579D01*
X4698301Y-10146579D02*
X4707824Y-10184674D01*
X4707824Y-10184674D02*
X4707824Y-10232293D01*
X4707824Y-10232293D02*
X4698301Y-10270389D01*
X4698301Y-10270389D02*
X4688777Y-10289436D01*
X4688777Y-10289436D02*
X4679253Y-10298960D01*
X4679253Y-10298960D02*
X4660205Y-10308484D01*
X4660205Y-10308484D02*
X4641158Y-10308484D01*
X4641158Y-10308484D02*
X4622110Y-10298960D01*
X4622110Y-10298960D02*
X4612586Y-10289436D01*
X4612586Y-10289436D02*
X4603063Y-10270389D01*
X4603063Y-10270389D02*
X4593539Y-10232293D01*
X4593539Y-10232293D02*
X4593539Y-10184674D01*
X4593539Y-10184674D02*
X4603063Y-10146579D01*
X4603063Y-10146579D02*
X4612586Y-10127531D01*
X4612586Y-10127531D02*
X4622110Y-10118008D01*
X4622110Y-10118008D02*
X4641158Y-10108484D01*
X4793539Y-10289436D02*
X4803063Y-10298960D01*
X4803063Y-10298960D02*
X4793539Y-10308484D01*
X4793539Y-10308484D02*
X4784015Y-10298960D01*
X4784015Y-10298960D02*
X4793539Y-10289436D01*
X4793539Y-10289436D02*
X4793539Y-10308484D01*
X4926872Y-10108484D02*
X4945920Y-10108484D01*
X4945920Y-10108484D02*
X4964967Y-10118008D01*
X4964967Y-10118008D02*
X4974491Y-10127531D01*
X4974491Y-10127531D02*
X4984015Y-10146579D01*
X4984015Y-10146579D02*
X4993539Y-10184674D01*
X4993539Y-10184674D02*
X4993539Y-10232293D01*
X4993539Y-10232293D02*
X4984015Y-10270389D01*
X4984015Y-10270389D02*
X4974491Y-10289436D01*
X4974491Y-10289436D02*
X4964967Y-10298960D01*
X4964967Y-10298960D02*
X4945920Y-10308484D01*
X4945920Y-10308484D02*
X4926872Y-10308484D01*
X4926872Y-10308484D02*
X4907824Y-10298960D01*
X4907824Y-10298960D02*
X4898301Y-10289436D01*
X4898301Y-10289436D02*
X4888777Y-10270389D01*
X4888777Y-10270389D02*
X4879253Y-10232293D01*
X4879253Y-10232293D02*
X4879253Y-10184674D01*
X4879253Y-10184674D02*
X4888777Y-10146579D01*
X4888777Y-10146579D02*
X4898301Y-10127531D01*
X4898301Y-10127531D02*
X4907824Y-10118008D01*
X4907824Y-10118008D02*
X4926872Y-10108484D01*
X5060205Y-10108484D02*
X5184015Y-10108484D01*
X5184015Y-10108484D02*
X5117348Y-10184674D01*
X5117348Y-10184674D02*
X5145920Y-10184674D01*
X5145920Y-10184674D02*
X5164967Y-10194198D01*
X5164967Y-10194198D02*
X5174491Y-10203722D01*
X5174491Y-10203722D02*
X5184015Y-10222770D01*
X5184015Y-10222770D02*
X5184015Y-10270389D01*
X5184015Y-10270389D02*
X5174491Y-10289436D01*
X5174491Y-10289436D02*
X5164967Y-10298960D01*
X5164967Y-10298960D02*
X5145920Y-10308484D01*
X5145920Y-10308484D02*
X5088777Y-10308484D01*
X5088777Y-10308484D02*
X5069729Y-10298960D01*
X5069729Y-10298960D02*
X5060205Y-10289436D01*
X5279253Y-10308484D02*
X5317348Y-10308484D01*
X5317348Y-10308484D02*
X5336396Y-10298960D01*
X5336396Y-10298960D02*
X5345920Y-10289436D01*
X5345920Y-10289436D02*
X5364967Y-10260865D01*
X5364967Y-10260865D02*
X5374491Y-10222770D01*
X5374491Y-10222770D02*
X5374491Y-10146579D01*
X5374491Y-10146579D02*
X5364967Y-10127531D01*
X5364967Y-10127531D02*
X5355444Y-10118008D01*
X5355444Y-10118008D02*
X5336396Y-10108484D01*
X5336396Y-10108484D02*
X5298301Y-10108484D01*
X5298301Y-10108484D02*
X5279253Y-10118008D01*
X5279253Y-10118008D02*
X5269729Y-10127531D01*
X5269729Y-10127531D02*
X5260205Y-10146579D01*
X5260205Y-10146579D02*
X5260205Y-10194198D01*
X5260205Y-10194198D02*
X5269729Y-10213246D01*
X5269729Y-10213246D02*
X5279253Y-10222770D01*
X5279253Y-10222770D02*
X5298301Y-10232293D01*
X5298301Y-10232293D02*
X5336396Y-10232293D01*
X5336396Y-10232293D02*
X5355444Y-10222770D01*
X5355444Y-10222770D02*
X5364967Y-10213246D01*
X5364967Y-10213246D02*
X5374491Y-10194198D01*
X5545920Y-10175150D02*
X5545920Y-10308484D01*
X5498301Y-10098960D02*
X5450682Y-10241817D01*
X5450682Y-10241817D02*
X5574491Y-10241817D01*
X5641158Y-10108484D02*
X5641158Y-10146579D01*
X5717348Y-10108484D02*
X5717348Y-10146579D01*
X6012586Y-10384674D02*
X6003063Y-10375150D01*
X6003063Y-10375150D02*
X5984015Y-10346579D01*
X5984015Y-10346579D02*
X5974491Y-10327531D01*
X5974491Y-10327531D02*
X5964967Y-10298960D01*
X5964967Y-10298960D02*
X5955444Y-10251341D01*
X5955444Y-10251341D02*
X5955444Y-10213246D01*
X5955444Y-10213246D02*
X5964967Y-10165627D01*
X5964967Y-10165627D02*
X5974491Y-10137055D01*
X5974491Y-10137055D02*
X5984015Y-10118008D01*
X5984015Y-10118008D02*
X6003063Y-10089436D01*
X6003063Y-10089436D02*
X6012586Y-10079912D01*
X6079253Y-10127531D02*
X6088777Y-10118008D01*
X6088777Y-10118008D02*
X6107824Y-10108484D01*
X6107824Y-10108484D02*
X6155444Y-10108484D01*
X6155444Y-10108484D02*
X6174491Y-10118008D01*
X6174491Y-10118008D02*
X6184015Y-10127531D01*
X6184015Y-10127531D02*
X6193539Y-10146579D01*
X6193539Y-10146579D02*
X6193539Y-10165627D01*
X6193539Y-10165627D02*
X6184015Y-10194198D01*
X6184015Y-10194198D02*
X6069729Y-10308484D01*
X6069729Y-10308484D02*
X6193539Y-10308484D01*
X6269729Y-10127531D02*
X6279253Y-10118008D01*
X6279253Y-10118008D02*
X6298301Y-10108484D01*
X6298301Y-10108484D02*
X6345920Y-10108484D01*
X6345920Y-10108484D02*
X6364967Y-10118008D01*
X6364967Y-10118008D02*
X6374491Y-10127531D01*
X6374491Y-10127531D02*
X6384015Y-10146579D01*
X6384015Y-10146579D02*
X6384015Y-10165627D01*
X6384015Y-10165627D02*
X6374491Y-10194198D01*
X6374491Y-10194198D02*
X6260205Y-10308484D01*
X6260205Y-10308484D02*
X6384015Y-10308484D01*
X6507824Y-10108484D02*
X6526872Y-10108484D01*
X6526872Y-10108484D02*
X6545920Y-10118008D01*
X6545920Y-10118008D02*
X6555444Y-10127531D01*
X6555444Y-10127531D02*
X6564967Y-10146579D01*
X6564967Y-10146579D02*
X6574491Y-10184674D01*
X6574491Y-10184674D02*
X6574491Y-10232293D01*
X6574491Y-10232293D02*
X6564967Y-10270389D01*
X6564967Y-10270389D02*
X6555444Y-10289436D01*
X6555444Y-10289436D02*
X6545920Y-10298960D01*
X6545920Y-10298960D02*
X6526872Y-10308484D01*
X6526872Y-10308484D02*
X6507824Y-10308484D01*
X6507824Y-10308484D02*
X6488777Y-10298960D01*
X6488777Y-10298960D02*
X6479253Y-10289436D01*
X6479253Y-10289436D02*
X6469729Y-10270389D01*
X6469729Y-10270389D02*
X6460205Y-10232293D01*
X6460205Y-10232293D02*
X6460205Y-10184674D01*
X6460205Y-10184674D02*
X6469729Y-10146579D01*
X6469729Y-10146579D02*
X6479253Y-10127531D01*
X6479253Y-10127531D02*
X6488777Y-10118008D01*
X6488777Y-10118008D02*
X6507824Y-10108484D01*
X6812586Y-10308484D02*
X6812586Y-10108484D01*
X6898301Y-10308484D02*
X6898301Y-10203722D01*
X6898301Y-10203722D02*
X6888777Y-10184674D01*
X6888777Y-10184674D02*
X6869729Y-10175150D01*
X6869729Y-10175150D02*
X6841158Y-10175150D01*
X6841158Y-10175150D02*
X6822110Y-10184674D01*
X6822110Y-10184674D02*
X6812586Y-10194198D01*
X7022110Y-10308484D02*
X7003063Y-10298960D01*
X7003063Y-10298960D02*
X6993539Y-10289436D01*
X6993539Y-10289436D02*
X6984015Y-10270389D01*
X6984015Y-10270389D02*
X6984015Y-10213246D01*
X6984015Y-10213246D02*
X6993539Y-10194198D01*
X6993539Y-10194198D02*
X7003063Y-10184674D01*
X7003063Y-10184674D02*
X7022110Y-10175150D01*
X7022110Y-10175150D02*
X7050682Y-10175150D01*
X7050682Y-10175150D02*
X7069729Y-10184674D01*
X7069729Y-10184674D02*
X7079253Y-10194198D01*
X7079253Y-10194198D02*
X7088777Y-10213246D01*
X7088777Y-10213246D02*
X7088777Y-10270389D01*
X7088777Y-10270389D02*
X7079253Y-10289436D01*
X7079253Y-10289436D02*
X7069729Y-10298960D01*
X7069729Y-10298960D02*
X7050682Y-10308484D01*
X7050682Y-10308484D02*
X7022110Y-10308484D01*
X7203063Y-10308484D02*
X7184015Y-10298960D01*
X7184015Y-10298960D02*
X7174491Y-10279912D01*
X7174491Y-10279912D02*
X7174491Y-10108484D01*
X7355444Y-10298960D02*
X7336396Y-10308484D01*
X7336396Y-10308484D02*
X7298301Y-10308484D01*
X7298301Y-10308484D02*
X7279253Y-10298960D01*
X7279253Y-10298960D02*
X7269729Y-10279912D01*
X7269729Y-10279912D02*
X7269729Y-10203722D01*
X7269729Y-10203722D02*
X7279253Y-10184674D01*
X7279253Y-10184674D02*
X7298301Y-10175150D01*
X7298301Y-10175150D02*
X7336396Y-10175150D01*
X7336396Y-10175150D02*
X7355444Y-10184674D01*
X7355444Y-10184674D02*
X7364967Y-10203722D01*
X7364967Y-10203722D02*
X7364967Y-10222770D01*
X7364967Y-10222770D02*
X7269729Y-10241817D01*
X7441158Y-10298960D02*
X7460206Y-10308484D01*
X7460206Y-10308484D02*
X7498301Y-10308484D01*
X7498301Y-10308484D02*
X7517348Y-10298960D01*
X7517348Y-10298960D02*
X7526872Y-10279912D01*
X7526872Y-10279912D02*
X7526872Y-10270389D01*
X7526872Y-10270389D02*
X7517348Y-10251341D01*
X7517348Y-10251341D02*
X7498301Y-10241817D01*
X7498301Y-10241817D02*
X7469729Y-10241817D01*
X7469729Y-10241817D02*
X7450682Y-10232293D01*
X7450682Y-10232293D02*
X7441158Y-10213246D01*
X7441158Y-10213246D02*
X7441158Y-10203722D01*
X7441158Y-10203722D02*
X7450682Y-10184674D01*
X7450682Y-10184674D02*
X7469729Y-10175150D01*
X7469729Y-10175150D02*
X7498301Y-10175150D01*
X7498301Y-10175150D02*
X7517348Y-10184674D01*
X7593539Y-10384674D02*
X7603063Y-10375150D01*
X7603063Y-10375150D02*
X7622110Y-10346579D01*
X7622110Y-10346579D02*
X7631634Y-10327531D01*
X7631634Y-10327531D02*
X7641158Y-10298960D01*
X7641158Y-10298960D02*
X7650682Y-10251341D01*
X7650682Y-10251341D02*
X7650682Y-10213246D01*
X7650682Y-10213246D02*
X7641158Y-10165627D01*
X7641158Y-10165627D02*
X7631634Y-10137055D01*
X7631634Y-10137055D02*
X7622110Y-10118008D01*
X7622110Y-10118008D02*
X7603063Y-10089436D01*
X7603063Y-10089436D02*
X7593539Y-10079912D01*
D14*
X2382914Y-10426390D02*
X2382914Y-10535610D01*
X2328304Y-10481000D02*
X2437524Y-10481000D01*
D12*
X2803062Y-10572484D02*
X2688777Y-10572484D01*
X2745919Y-10572484D02*
X2745919Y-10372484D01*
X2745919Y-10372484D02*
X2726872Y-10401055D01*
X2726872Y-10401055D02*
X2707824Y-10420103D01*
X2707824Y-10420103D02*
X2688777Y-10429627D01*
X2888777Y-10553436D02*
X2898300Y-10562960D01*
X2898300Y-10562960D02*
X2888777Y-10572484D01*
X2888777Y-10572484D02*
X2879253Y-10562960D01*
X2879253Y-10562960D02*
X2888777Y-10553436D01*
X2888777Y-10553436D02*
X2888777Y-10572484D01*
X3022110Y-10372484D02*
X3041158Y-10372484D01*
X3041158Y-10372484D02*
X3060205Y-10382008D01*
X3060205Y-10382008D02*
X3069729Y-10391531D01*
X3069729Y-10391531D02*
X3079253Y-10410579D01*
X3079253Y-10410579D02*
X3088777Y-10448674D01*
X3088777Y-10448674D02*
X3088777Y-10496293D01*
X3088777Y-10496293D02*
X3079253Y-10534389D01*
X3079253Y-10534389D02*
X3069729Y-10553436D01*
X3069729Y-10553436D02*
X3060205Y-10562960D01*
X3060205Y-10562960D02*
X3041158Y-10572484D01*
X3041158Y-10572484D02*
X3022110Y-10572484D01*
X3022110Y-10572484D02*
X3003062Y-10562960D01*
X3003062Y-10562960D02*
X2993538Y-10553436D01*
X2993538Y-10553436D02*
X2984015Y-10534389D01*
X2984015Y-10534389D02*
X2974491Y-10496293D01*
X2974491Y-10496293D02*
X2974491Y-10448674D01*
X2974491Y-10448674D02*
X2984015Y-10410579D01*
X2984015Y-10410579D02*
X2993538Y-10391531D01*
X2993538Y-10391531D02*
X3003062Y-10382008D01*
X3003062Y-10382008D02*
X3022110Y-10372484D01*
X3184015Y-10572484D02*
X3222110Y-10572484D01*
X3222110Y-10572484D02*
X3241158Y-10562960D01*
X3241158Y-10562960D02*
X3250681Y-10553436D01*
X3250681Y-10553436D02*
X3269729Y-10524865D01*
X3269729Y-10524865D02*
X3279253Y-10486770D01*
X3279253Y-10486770D02*
X3279253Y-10410579D01*
X3279253Y-10410579D02*
X3269729Y-10391531D01*
X3269729Y-10391531D02*
X3260205Y-10382008D01*
X3260205Y-10382008D02*
X3241158Y-10372484D01*
X3241158Y-10372484D02*
X3203062Y-10372484D01*
X3203062Y-10372484D02*
X3184015Y-10382008D01*
X3184015Y-10382008D02*
X3174491Y-10391531D01*
X3174491Y-10391531D02*
X3164967Y-10410579D01*
X3164967Y-10410579D02*
X3164967Y-10458198D01*
X3164967Y-10458198D02*
X3174491Y-10477246D01*
X3174491Y-10477246D02*
X3184015Y-10486770D01*
X3184015Y-10486770D02*
X3203062Y-10496293D01*
X3203062Y-10496293D02*
X3241158Y-10496293D01*
X3241158Y-10496293D02*
X3260205Y-10486770D01*
X3260205Y-10486770D02*
X3269729Y-10477246D01*
X3269729Y-10477246D02*
X3279253Y-10458198D01*
X3355443Y-10391531D02*
X3364967Y-10382008D01*
X3364967Y-10382008D02*
X3384015Y-10372484D01*
X3384015Y-10372484D02*
X3431634Y-10372484D01*
X3431634Y-10372484D02*
X3450681Y-10382008D01*
X3450681Y-10382008D02*
X3460205Y-10391531D01*
X3460205Y-10391531D02*
X3469729Y-10410579D01*
X3469729Y-10410579D02*
X3469729Y-10429627D01*
X3469729Y-10429627D02*
X3460205Y-10458198D01*
X3460205Y-10458198D02*
X3345919Y-10572484D01*
X3345919Y-10572484D02*
X3469729Y-10572484D01*
X3555443Y-10572484D02*
X3555443Y-10439150D01*
X3555443Y-10458198D02*
X3564967Y-10448674D01*
X3564967Y-10448674D02*
X3584015Y-10439150D01*
X3584015Y-10439150D02*
X3612586Y-10439150D01*
X3612586Y-10439150D02*
X3631634Y-10448674D01*
X3631634Y-10448674D02*
X3641158Y-10467722D01*
X3641158Y-10467722D02*
X3641158Y-10572484D01*
X3641158Y-10467722D02*
X3650681Y-10448674D01*
X3650681Y-10448674D02*
X3669729Y-10439150D01*
X3669729Y-10439150D02*
X3698300Y-10439150D01*
X3698300Y-10439150D02*
X3717348Y-10448674D01*
X3717348Y-10448674D02*
X3726872Y-10467722D01*
X3726872Y-10467722D02*
X3726872Y-10572484D01*
X3822110Y-10572484D02*
X3822110Y-10439150D01*
X3822110Y-10458198D02*
X3831634Y-10448674D01*
X3831634Y-10448674D02*
X3850681Y-10439150D01*
X3850681Y-10439150D02*
X3879253Y-10439150D01*
X3879253Y-10439150D02*
X3898300Y-10448674D01*
X3898300Y-10448674D02*
X3907824Y-10467722D01*
X3907824Y-10467722D02*
X3907824Y-10572484D01*
X3907824Y-10467722D02*
X3917348Y-10448674D01*
X3917348Y-10448674D02*
X3936396Y-10439150D01*
X3936396Y-10439150D02*
X3964967Y-10439150D01*
X3964967Y-10439150D02*
X3984015Y-10448674D01*
X3984015Y-10448674D02*
X3993539Y-10467722D01*
X3993539Y-10467722D02*
X3993539Y-10572484D01*
X4384015Y-10362960D02*
X4212586Y-10620103D01*
X4641158Y-10372484D02*
X4660205Y-10372484D01*
X4660205Y-10372484D02*
X4679253Y-10382008D01*
X4679253Y-10382008D02*
X4688777Y-10391531D01*
X4688777Y-10391531D02*
X4698301Y-10410579D01*
X4698301Y-10410579D02*
X4707824Y-10448674D01*
X4707824Y-10448674D02*
X4707824Y-10496293D01*
X4707824Y-10496293D02*
X4698301Y-10534389D01*
X4698301Y-10534389D02*
X4688777Y-10553436D01*
X4688777Y-10553436D02*
X4679253Y-10562960D01*
X4679253Y-10562960D02*
X4660205Y-10572484D01*
X4660205Y-10572484D02*
X4641158Y-10572484D01*
X4641158Y-10572484D02*
X4622110Y-10562960D01*
X4622110Y-10562960D02*
X4612586Y-10553436D01*
X4612586Y-10553436D02*
X4603063Y-10534389D01*
X4603063Y-10534389D02*
X4593539Y-10496293D01*
X4593539Y-10496293D02*
X4593539Y-10448674D01*
X4593539Y-10448674D02*
X4603063Y-10410579D01*
X4603063Y-10410579D02*
X4612586Y-10391531D01*
X4612586Y-10391531D02*
X4622110Y-10382008D01*
X4622110Y-10382008D02*
X4641158Y-10372484D01*
X4793539Y-10553436D02*
X4803063Y-10562960D01*
X4803063Y-10562960D02*
X4793539Y-10572484D01*
X4793539Y-10572484D02*
X4784015Y-10562960D01*
X4784015Y-10562960D02*
X4793539Y-10553436D01*
X4793539Y-10553436D02*
X4793539Y-10572484D01*
X4926872Y-10372484D02*
X4945920Y-10372484D01*
X4945920Y-10372484D02*
X4964967Y-10382008D01*
X4964967Y-10382008D02*
X4974491Y-10391531D01*
X4974491Y-10391531D02*
X4984015Y-10410579D01*
X4984015Y-10410579D02*
X4993539Y-10448674D01*
X4993539Y-10448674D02*
X4993539Y-10496293D01*
X4993539Y-10496293D02*
X4984015Y-10534389D01*
X4984015Y-10534389D02*
X4974491Y-10553436D01*
X4974491Y-10553436D02*
X4964967Y-10562960D01*
X4964967Y-10562960D02*
X4945920Y-10572484D01*
X4945920Y-10572484D02*
X4926872Y-10572484D01*
X4926872Y-10572484D02*
X4907824Y-10562960D01*
X4907824Y-10562960D02*
X4898301Y-10553436D01*
X4898301Y-10553436D02*
X4888777Y-10534389D01*
X4888777Y-10534389D02*
X4879253Y-10496293D01*
X4879253Y-10496293D02*
X4879253Y-10448674D01*
X4879253Y-10448674D02*
X4888777Y-10410579D01*
X4888777Y-10410579D02*
X4898301Y-10391531D01*
X4898301Y-10391531D02*
X4907824Y-10382008D01*
X4907824Y-10382008D02*
X4926872Y-10372484D01*
X5164967Y-10439150D02*
X5164967Y-10572484D01*
X5117348Y-10362960D02*
X5069729Y-10505817D01*
X5069729Y-10505817D02*
X5193539Y-10505817D01*
X5250682Y-10372484D02*
X5374491Y-10372484D01*
X5374491Y-10372484D02*
X5307824Y-10448674D01*
X5307824Y-10448674D02*
X5336396Y-10448674D01*
X5336396Y-10448674D02*
X5355444Y-10458198D01*
X5355444Y-10458198D02*
X5364967Y-10467722D01*
X5364967Y-10467722D02*
X5374491Y-10486770D01*
X5374491Y-10486770D02*
X5374491Y-10534389D01*
X5374491Y-10534389D02*
X5364967Y-10553436D01*
X5364967Y-10553436D02*
X5355444Y-10562960D01*
X5355444Y-10562960D02*
X5336396Y-10572484D01*
X5336396Y-10572484D02*
X5279253Y-10572484D01*
X5279253Y-10572484D02*
X5260205Y-10562960D01*
X5260205Y-10562960D02*
X5250682Y-10553436D01*
X5498301Y-10372484D02*
X5517348Y-10372484D01*
X5517348Y-10372484D02*
X5536396Y-10382008D01*
X5536396Y-10382008D02*
X5545920Y-10391531D01*
X5545920Y-10391531D02*
X5555444Y-10410579D01*
X5555444Y-10410579D02*
X5564967Y-10448674D01*
X5564967Y-10448674D02*
X5564967Y-10496293D01*
X5564967Y-10496293D02*
X5555444Y-10534389D01*
X5555444Y-10534389D02*
X5545920Y-10553436D01*
X5545920Y-10553436D02*
X5536396Y-10562960D01*
X5536396Y-10562960D02*
X5517348Y-10572484D01*
X5517348Y-10572484D02*
X5498301Y-10572484D01*
X5498301Y-10572484D02*
X5479253Y-10562960D01*
X5479253Y-10562960D02*
X5469729Y-10553436D01*
X5469729Y-10553436D02*
X5460205Y-10534389D01*
X5460205Y-10534389D02*
X5450682Y-10496293D01*
X5450682Y-10496293D02*
X5450682Y-10448674D01*
X5450682Y-10448674D02*
X5460205Y-10410579D01*
X5460205Y-10410579D02*
X5469729Y-10391531D01*
X5469729Y-10391531D02*
X5479253Y-10382008D01*
X5479253Y-10382008D02*
X5498301Y-10372484D01*
X5641158Y-10372484D02*
X5641158Y-10410579D01*
X5717348Y-10372484D02*
X5717348Y-10410579D01*
X6012586Y-10648674D02*
X6003063Y-10639150D01*
X6003063Y-10639150D02*
X5984015Y-10610579D01*
X5984015Y-10610579D02*
X5974491Y-10591531D01*
X5974491Y-10591531D02*
X5964967Y-10562960D01*
X5964967Y-10562960D02*
X5955444Y-10515341D01*
X5955444Y-10515341D02*
X5955444Y-10477246D01*
X5955444Y-10477246D02*
X5964967Y-10429627D01*
X5964967Y-10429627D02*
X5974491Y-10401055D01*
X5974491Y-10401055D02*
X5984015Y-10382008D01*
X5984015Y-10382008D02*
X6003063Y-10353436D01*
X6003063Y-10353436D02*
X6012586Y-10343912D01*
X6174491Y-10439150D02*
X6174491Y-10572484D01*
X6126872Y-10362960D02*
X6079253Y-10505817D01*
X6079253Y-10505817D02*
X6203063Y-10505817D01*
X6364967Y-10372484D02*
X6326872Y-10372484D01*
X6326872Y-10372484D02*
X6307824Y-10382008D01*
X6307824Y-10382008D02*
X6298301Y-10391531D01*
X6298301Y-10391531D02*
X6279253Y-10420103D01*
X6279253Y-10420103D02*
X6269729Y-10458198D01*
X6269729Y-10458198D02*
X6269729Y-10534389D01*
X6269729Y-10534389D02*
X6279253Y-10553436D01*
X6279253Y-10553436D02*
X6288777Y-10562960D01*
X6288777Y-10562960D02*
X6307824Y-10572484D01*
X6307824Y-10572484D02*
X6345920Y-10572484D01*
X6345920Y-10572484D02*
X6364967Y-10562960D01*
X6364967Y-10562960D02*
X6374491Y-10553436D01*
X6374491Y-10553436D02*
X6384015Y-10534389D01*
X6384015Y-10534389D02*
X6384015Y-10486770D01*
X6384015Y-10486770D02*
X6374491Y-10467722D01*
X6374491Y-10467722D02*
X6364967Y-10458198D01*
X6364967Y-10458198D02*
X6345920Y-10448674D01*
X6345920Y-10448674D02*
X6307824Y-10448674D01*
X6307824Y-10448674D02*
X6288777Y-10458198D01*
X6288777Y-10458198D02*
X6279253Y-10467722D01*
X6279253Y-10467722D02*
X6269729Y-10486770D01*
X6622110Y-10572484D02*
X6622110Y-10372484D01*
X6707825Y-10572484D02*
X6707825Y-10467722D01*
X6707825Y-10467722D02*
X6698301Y-10448674D01*
X6698301Y-10448674D02*
X6679253Y-10439150D01*
X6679253Y-10439150D02*
X6650682Y-10439150D01*
X6650682Y-10439150D02*
X6631634Y-10448674D01*
X6631634Y-10448674D02*
X6622110Y-10458198D01*
X6831634Y-10572484D02*
X6812586Y-10562960D01*
X6812586Y-10562960D02*
X6803063Y-10553436D01*
X6803063Y-10553436D02*
X6793539Y-10534389D01*
X6793539Y-10534389D02*
X6793539Y-10477246D01*
X6793539Y-10477246D02*
X6803063Y-10458198D01*
X6803063Y-10458198D02*
X6812586Y-10448674D01*
X6812586Y-10448674D02*
X6831634Y-10439150D01*
X6831634Y-10439150D02*
X6860206Y-10439150D01*
X6860206Y-10439150D02*
X6879253Y-10448674D01*
X6879253Y-10448674D02*
X6888777Y-10458198D01*
X6888777Y-10458198D02*
X6898301Y-10477246D01*
X6898301Y-10477246D02*
X6898301Y-10534389D01*
X6898301Y-10534389D02*
X6888777Y-10553436D01*
X6888777Y-10553436D02*
X6879253Y-10562960D01*
X6879253Y-10562960D02*
X6860206Y-10572484D01*
X6860206Y-10572484D02*
X6831634Y-10572484D01*
X7012586Y-10572484D02*
X6993539Y-10562960D01*
X6993539Y-10562960D02*
X6984015Y-10543912D01*
X6984015Y-10543912D02*
X6984015Y-10372484D01*
X7164967Y-10562960D02*
X7145920Y-10572484D01*
X7145920Y-10572484D02*
X7107825Y-10572484D01*
X7107825Y-10572484D02*
X7088777Y-10562960D01*
X7088777Y-10562960D02*
X7079253Y-10543912D01*
X7079253Y-10543912D02*
X7079253Y-10467722D01*
X7079253Y-10467722D02*
X7088777Y-10448674D01*
X7088777Y-10448674D02*
X7107825Y-10439150D01*
X7107825Y-10439150D02*
X7145920Y-10439150D01*
X7145920Y-10439150D02*
X7164967Y-10448674D01*
X7164967Y-10448674D02*
X7174491Y-10467722D01*
X7174491Y-10467722D02*
X7174491Y-10486770D01*
X7174491Y-10486770D02*
X7079253Y-10505817D01*
X7250682Y-10562960D02*
X7269729Y-10572484D01*
X7269729Y-10572484D02*
X7307825Y-10572484D01*
X7307825Y-10572484D02*
X7326872Y-10562960D01*
X7326872Y-10562960D02*
X7336396Y-10543912D01*
X7336396Y-10543912D02*
X7336396Y-10534389D01*
X7336396Y-10534389D02*
X7326872Y-10515341D01*
X7326872Y-10515341D02*
X7307825Y-10505817D01*
X7307825Y-10505817D02*
X7279253Y-10505817D01*
X7279253Y-10505817D02*
X7260206Y-10496293D01*
X7260206Y-10496293D02*
X7250682Y-10477246D01*
X7250682Y-10477246D02*
X7250682Y-10467722D01*
X7250682Y-10467722D02*
X7260206Y-10448674D01*
X7260206Y-10448674D02*
X7279253Y-10439150D01*
X7279253Y-10439150D02*
X7307825Y-10439150D01*
X7307825Y-10439150D02*
X7326872Y-10448674D01*
X7403063Y-10648674D02*
X7412587Y-10639150D01*
X7412587Y-10639150D02*
X7431634Y-10610579D01*
X7431634Y-10610579D02*
X7441158Y-10591531D01*
X7441158Y-10591531D02*
X7450682Y-10562960D01*
X7450682Y-10562960D02*
X7460206Y-10515341D01*
X7460206Y-10515341D02*
X7460206Y-10477246D01*
X7460206Y-10477246D02*
X7450682Y-10429627D01*
X7450682Y-10429627D02*
X7441158Y-10401055D01*
X7441158Y-10401055D02*
X7431634Y-10382008D01*
X7431634Y-10382008D02*
X7412587Y-10353436D01*
X7412587Y-10353436D02*
X7403063Y-10343912D01*
M02*
