%TF.GenerationSoftware,KiCad,Pcbnew,7.0.5*%
%TF.CreationDate,2024-01-24T21:19:46+08:00*%
%TF.ProjectId,main,6d61696e-2e6b-4696-9361-645f70636258,rev?*%
%TF.SameCoordinates,Original*%
%TF.FileFunction,Legend,Bot*%
%TF.FilePolarity,Positive*%
%FSLAX46Y46*%
G04 Gerber Fmt 4.6, Leading zero omitted, Abs format (unit mm)*
G04 Created by KiCad (PCBNEW 7.0.5) date 2024-01-24 21:19:46*
%MOMM*%
%LPD*%
G01*
G04 APERTURE LIST*
%ADD10C,0.100000*%
%ADD11C,0.120000*%
%ADD12C,0.150000*%
%ADD13C,0.010000*%
G04 APERTURE END LIST*
D10*
X203860000Y-79834850D02*
X203860000Y-87454850D01*
D11*
X159530299Y-51214553D02*
X164610299Y-51214553D01*
X164610299Y-56294553D01*
X159530299Y-56294553D01*
X159530299Y-51214553D01*
D10*
X132020236Y-56974850D02*
X132020236Y-64594850D01*
X134560236Y-87454850D02*
X129480236Y-87454850D01*
X198780000Y-79834850D02*
X198780000Y-87454850D01*
X198780000Y-56974850D02*
X203860000Y-56974850D01*
D11*
X159540299Y-75384553D02*
X174780299Y-75384553D01*
X174780299Y-83004553D01*
X159540299Y-83004553D01*
X159540299Y-75384553D01*
X139230000Y-87144850D02*
X144310000Y-87144850D01*
X144310000Y-92224850D01*
X139230000Y-92224850D01*
X139230000Y-87144850D01*
D10*
X201320000Y-79834850D02*
X201320000Y-87454850D01*
D11*
X139240000Y-51214850D02*
X154480000Y-51214850D01*
X154480000Y-58834850D01*
X139240000Y-58834850D01*
X139240000Y-51214850D01*
X159540299Y-84604553D02*
X174780299Y-84604553D01*
X174780299Y-92224553D01*
X159540299Y-92224553D01*
X159540299Y-84604553D01*
D10*
X134560236Y-56974850D02*
X134560236Y-64594850D01*
X198780000Y-87454850D02*
X203860000Y-87454850D01*
X129480236Y-56974850D02*
X129480236Y-64594850D01*
X134560236Y-56974850D02*
X129480236Y-56974850D01*
D11*
X139240000Y-60434850D02*
X154480000Y-60434850D01*
X154480000Y-68054850D01*
X139240000Y-68054850D01*
X139240000Y-60434850D01*
%TO.C,J13*%
X146189523Y-76766800D02*
X146265713Y-76728705D01*
X146265713Y-76728705D02*
X146379999Y-76728705D01*
X146379999Y-76728705D02*
X146494285Y-76766800D01*
X146494285Y-76766800D02*
X146570475Y-76842990D01*
X146570475Y-76842990D02*
X146608570Y-76919181D01*
X146608570Y-76919181D02*
X146646666Y-77071562D01*
X146646666Y-77071562D02*
X146646666Y-77185848D01*
X146646666Y-77185848D02*
X146608570Y-77338229D01*
X146608570Y-77338229D02*
X146570475Y-77414419D01*
X146570475Y-77414419D02*
X146494285Y-77490610D01*
X146494285Y-77490610D02*
X146379999Y-77528705D01*
X146379999Y-77528705D02*
X146303808Y-77528705D01*
X146303808Y-77528705D02*
X146189523Y-77490610D01*
X146189523Y-77490610D02*
X146151427Y-77452514D01*
X146151427Y-77452514D02*
X146151427Y-77185848D01*
X146151427Y-77185848D02*
X146303808Y-77185848D01*
X145808570Y-77528705D02*
X145808570Y-76728705D01*
X145808570Y-76728705D02*
X145351427Y-77528705D01*
X145351427Y-77528705D02*
X145351427Y-76728705D01*
X144970475Y-77528705D02*
X144970475Y-76728705D01*
X144970475Y-76728705D02*
X144779999Y-76728705D01*
X144779999Y-76728705D02*
X144665713Y-76766800D01*
X144665713Y-76766800D02*
X144589523Y-76842990D01*
X144589523Y-76842990D02*
X144551428Y-76919181D01*
X144551428Y-76919181D02*
X144513332Y-77071562D01*
X144513332Y-77071562D02*
X144513332Y-77185848D01*
X144513332Y-77185848D02*
X144551428Y-77338229D01*
X144551428Y-77338229D02*
X144589523Y-77414419D01*
X144589523Y-77414419D02*
X144665713Y-77490610D01*
X144665713Y-77490610D02*
X144779999Y-77528705D01*
X144779999Y-77528705D02*
X144970475Y-77528705D01*
X143649524Y-77490610D02*
X143535238Y-77528705D01*
X143535238Y-77528705D02*
X143344762Y-77528705D01*
X143344762Y-77528705D02*
X143268571Y-77490610D01*
X143268571Y-77490610D02*
X143230476Y-77452514D01*
X143230476Y-77452514D02*
X143192381Y-77376324D01*
X143192381Y-77376324D02*
X143192381Y-77300133D01*
X143192381Y-77300133D02*
X143230476Y-77223943D01*
X143230476Y-77223943D02*
X143268571Y-77185848D01*
X143268571Y-77185848D02*
X143344762Y-77147752D01*
X143344762Y-77147752D02*
X143497143Y-77109657D01*
X143497143Y-77109657D02*
X143573333Y-77071562D01*
X143573333Y-77071562D02*
X143611428Y-77033467D01*
X143611428Y-77033467D02*
X143649524Y-76957276D01*
X143649524Y-76957276D02*
X143649524Y-76881086D01*
X143649524Y-76881086D02*
X143611428Y-76804895D01*
X143611428Y-76804895D02*
X143573333Y-76766800D01*
X143573333Y-76766800D02*
X143497143Y-76728705D01*
X143497143Y-76728705D02*
X143306666Y-76728705D01*
X143306666Y-76728705D02*
X143192381Y-76766800D01*
X142887619Y-76804895D02*
X142849523Y-76766800D01*
X142849523Y-76766800D02*
X142773333Y-76728705D01*
X142773333Y-76728705D02*
X142582857Y-76728705D01*
X142582857Y-76728705D02*
X142506666Y-76766800D01*
X142506666Y-76766800D02*
X142468571Y-76804895D01*
X142468571Y-76804895D02*
X142430476Y-76881086D01*
X142430476Y-76881086D02*
X142430476Y-76957276D01*
X142430476Y-76957276D02*
X142468571Y-77071562D01*
X142468571Y-77071562D02*
X142925714Y-77528705D01*
X142925714Y-77528705D02*
X142430476Y-77528705D01*
X141566666Y-76728705D02*
X141299999Y-77528705D01*
X141299999Y-77528705D02*
X141033333Y-76728705D01*
X140309523Y-77452514D02*
X140347619Y-77490610D01*
X140347619Y-77490610D02*
X140461904Y-77528705D01*
X140461904Y-77528705D02*
X140538095Y-77528705D01*
X140538095Y-77528705D02*
X140652381Y-77490610D01*
X140652381Y-77490610D02*
X140728571Y-77414419D01*
X140728571Y-77414419D02*
X140766666Y-77338229D01*
X140766666Y-77338229D02*
X140804762Y-77185848D01*
X140804762Y-77185848D02*
X140804762Y-77071562D01*
X140804762Y-77071562D02*
X140766666Y-76919181D01*
X140766666Y-76919181D02*
X140728571Y-76842990D01*
X140728571Y-76842990D02*
X140652381Y-76766800D01*
X140652381Y-76766800D02*
X140538095Y-76728705D01*
X140538095Y-76728705D02*
X140461904Y-76728705D01*
X140461904Y-76728705D02*
X140347619Y-76766800D01*
X140347619Y-76766800D02*
X140309523Y-76804895D01*
X139509523Y-77452514D02*
X139547619Y-77490610D01*
X139547619Y-77490610D02*
X139661904Y-77528705D01*
X139661904Y-77528705D02*
X139738095Y-77528705D01*
X139738095Y-77528705D02*
X139852381Y-77490610D01*
X139852381Y-77490610D02*
X139928571Y-77414419D01*
X139928571Y-77414419D02*
X139966666Y-77338229D01*
X139966666Y-77338229D02*
X140004762Y-77185848D01*
X140004762Y-77185848D02*
X140004762Y-77071562D01*
X140004762Y-77071562D02*
X139966666Y-76919181D01*
X139966666Y-76919181D02*
X139928571Y-76842990D01*
X139928571Y-76842990D02*
X139852381Y-76766800D01*
X139852381Y-76766800D02*
X139738095Y-76728705D01*
X139738095Y-76728705D02*
X139661904Y-76728705D01*
X139661904Y-76728705D02*
X139547619Y-76766800D01*
X139547619Y-76766800D02*
X139509523Y-76804895D01*
%TO.C,J19*%
X153801950Y-76835326D02*
X153763855Y-76759136D01*
X153763855Y-76759136D02*
X153763855Y-76644850D01*
X153763855Y-76644850D02*
X153801950Y-76530564D01*
X153801950Y-76530564D02*
X153878140Y-76454374D01*
X153878140Y-76454374D02*
X153954331Y-76416279D01*
X153954331Y-76416279D02*
X154106712Y-76378183D01*
X154106712Y-76378183D02*
X154220998Y-76378183D01*
X154220998Y-76378183D02*
X154373379Y-76416279D01*
X154373379Y-76416279D02*
X154449569Y-76454374D01*
X154449569Y-76454374D02*
X154525760Y-76530564D01*
X154525760Y-76530564D02*
X154563855Y-76644850D01*
X154563855Y-76644850D02*
X154563855Y-76721041D01*
X154563855Y-76721041D02*
X154525760Y-76835326D01*
X154525760Y-76835326D02*
X154487664Y-76873422D01*
X154487664Y-76873422D02*
X154220998Y-76873422D01*
X154220998Y-76873422D02*
X154220998Y-76721041D01*
X154563855Y-77216279D02*
X153763855Y-77216279D01*
X153763855Y-77216279D02*
X154563855Y-77673422D01*
X154563855Y-77673422D02*
X153763855Y-77673422D01*
X154563855Y-78054374D02*
X153763855Y-78054374D01*
X153763855Y-78054374D02*
X153763855Y-78244850D01*
X153763855Y-78244850D02*
X153801950Y-78359136D01*
X153801950Y-78359136D02*
X153878140Y-78435326D01*
X153878140Y-78435326D02*
X153954331Y-78473421D01*
X153954331Y-78473421D02*
X154106712Y-78511517D01*
X154106712Y-78511517D02*
X154220998Y-78511517D01*
X154220998Y-78511517D02*
X154373379Y-78473421D01*
X154373379Y-78473421D02*
X154449569Y-78435326D01*
X154449569Y-78435326D02*
X154525760Y-78359136D01*
X154525760Y-78359136D02*
X154563855Y-78244850D01*
X154563855Y-78244850D02*
X154563855Y-78054374D01*
X154525760Y-68853421D02*
X154563855Y-68967707D01*
X154563855Y-68967707D02*
X154563855Y-69158183D01*
X154563855Y-69158183D02*
X154525760Y-69234374D01*
X154525760Y-69234374D02*
X154487664Y-69272469D01*
X154487664Y-69272469D02*
X154411474Y-69310564D01*
X154411474Y-69310564D02*
X154335283Y-69310564D01*
X154335283Y-69310564D02*
X154259093Y-69272469D01*
X154259093Y-69272469D02*
X154220998Y-69234374D01*
X154220998Y-69234374D02*
X154182902Y-69158183D01*
X154182902Y-69158183D02*
X154144807Y-69005802D01*
X154144807Y-69005802D02*
X154106712Y-68929612D01*
X154106712Y-68929612D02*
X154068617Y-68891517D01*
X154068617Y-68891517D02*
X153992426Y-68853421D01*
X153992426Y-68853421D02*
X153916236Y-68853421D01*
X153916236Y-68853421D02*
X153840045Y-68891517D01*
X153840045Y-68891517D02*
X153801950Y-68929612D01*
X153801950Y-68929612D02*
X153763855Y-69005802D01*
X153763855Y-69005802D02*
X153763855Y-69196279D01*
X153763855Y-69196279D02*
X153801950Y-69310564D01*
X154563855Y-69653422D02*
X153763855Y-69653422D01*
X153763855Y-69653422D02*
X153763855Y-69843898D01*
X153763855Y-69843898D02*
X153801950Y-69958184D01*
X153801950Y-69958184D02*
X153878140Y-70034374D01*
X153878140Y-70034374D02*
X153954331Y-70072469D01*
X153954331Y-70072469D02*
X154106712Y-70110565D01*
X154106712Y-70110565D02*
X154220998Y-70110565D01*
X154220998Y-70110565D02*
X154373379Y-70072469D01*
X154373379Y-70072469D02*
X154449569Y-70034374D01*
X154449569Y-70034374D02*
X154525760Y-69958184D01*
X154525760Y-69958184D02*
X154563855Y-69843898D01*
X154563855Y-69843898D02*
X154563855Y-69653422D01*
X154335283Y-70415326D02*
X154335283Y-70796279D01*
X154563855Y-70339136D02*
X153763855Y-70605803D01*
X153763855Y-70605803D02*
X154563855Y-70872469D01*
X154525760Y-71412468D02*
X154563855Y-71526754D01*
X154563855Y-71526754D02*
X154563855Y-71717230D01*
X154563855Y-71717230D02*
X154525760Y-71793421D01*
X154525760Y-71793421D02*
X154487664Y-71831516D01*
X154487664Y-71831516D02*
X154411474Y-71869611D01*
X154411474Y-71869611D02*
X154335283Y-71869611D01*
X154335283Y-71869611D02*
X154259093Y-71831516D01*
X154259093Y-71831516D02*
X154220998Y-71793421D01*
X154220998Y-71793421D02*
X154182902Y-71717230D01*
X154182902Y-71717230D02*
X154144807Y-71564849D01*
X154144807Y-71564849D02*
X154106712Y-71488659D01*
X154106712Y-71488659D02*
X154068617Y-71450564D01*
X154068617Y-71450564D02*
X153992426Y-71412468D01*
X153992426Y-71412468D02*
X153916236Y-71412468D01*
X153916236Y-71412468D02*
X153840045Y-71450564D01*
X153840045Y-71450564D02*
X153801950Y-71488659D01*
X153801950Y-71488659D02*
X153763855Y-71564849D01*
X153763855Y-71564849D02*
X153763855Y-71755326D01*
X153763855Y-71755326D02*
X153801950Y-71869611D01*
X154487664Y-72669612D02*
X154525760Y-72631516D01*
X154525760Y-72631516D02*
X154563855Y-72517231D01*
X154563855Y-72517231D02*
X154563855Y-72441040D01*
X154563855Y-72441040D02*
X154525760Y-72326754D01*
X154525760Y-72326754D02*
X154449569Y-72250564D01*
X154449569Y-72250564D02*
X154373379Y-72212469D01*
X154373379Y-72212469D02*
X154220998Y-72174373D01*
X154220998Y-72174373D02*
X154106712Y-72174373D01*
X154106712Y-72174373D02*
X153954331Y-72212469D01*
X153954331Y-72212469D02*
X153878140Y-72250564D01*
X153878140Y-72250564D02*
X153801950Y-72326754D01*
X153801950Y-72326754D02*
X153763855Y-72441040D01*
X153763855Y-72441040D02*
X153763855Y-72517231D01*
X153763855Y-72517231D02*
X153801950Y-72631516D01*
X153801950Y-72631516D02*
X153840045Y-72669612D01*
X154563855Y-73393421D02*
X154563855Y-73012469D01*
X154563855Y-73012469D02*
X153763855Y-73012469D01*
X153763855Y-73838183D02*
X154563855Y-74104850D01*
X154563855Y-74104850D02*
X153763855Y-74371516D01*
X154487664Y-75095326D02*
X154525760Y-75057230D01*
X154525760Y-75057230D02*
X154563855Y-74942945D01*
X154563855Y-74942945D02*
X154563855Y-74866754D01*
X154563855Y-74866754D02*
X154525760Y-74752468D01*
X154525760Y-74752468D02*
X154449569Y-74676278D01*
X154449569Y-74676278D02*
X154373379Y-74638183D01*
X154373379Y-74638183D02*
X154220998Y-74600087D01*
X154220998Y-74600087D02*
X154106712Y-74600087D01*
X154106712Y-74600087D02*
X153954331Y-74638183D01*
X153954331Y-74638183D02*
X153878140Y-74676278D01*
X153878140Y-74676278D02*
X153801950Y-74752468D01*
X153801950Y-74752468D02*
X153763855Y-74866754D01*
X153763855Y-74866754D02*
X153763855Y-74942945D01*
X153763855Y-74942945D02*
X153801950Y-75057230D01*
X153801950Y-75057230D02*
X153840045Y-75095326D01*
X154487664Y-75895326D02*
X154525760Y-75857230D01*
X154525760Y-75857230D02*
X154563855Y-75742945D01*
X154563855Y-75742945D02*
X154563855Y-75666754D01*
X154563855Y-75666754D02*
X154525760Y-75552468D01*
X154525760Y-75552468D02*
X154449569Y-75476278D01*
X154449569Y-75476278D02*
X154373379Y-75438183D01*
X154373379Y-75438183D02*
X154220998Y-75400087D01*
X154220998Y-75400087D02*
X154106712Y-75400087D01*
X154106712Y-75400087D02*
X153954331Y-75438183D01*
X153954331Y-75438183D02*
X153878140Y-75476278D01*
X153878140Y-75476278D02*
X153801950Y-75552468D01*
X153801950Y-75552468D02*
X153763855Y-75666754D01*
X153763855Y-75666754D02*
X153763855Y-75742945D01*
X153763855Y-75742945D02*
X153801950Y-75857230D01*
X153801950Y-75857230D02*
X153840045Y-75895326D01*
%TO.C,J26*%
X94794857Y-77365807D02*
X94680571Y-77403902D01*
X94680571Y-77403902D02*
X94642476Y-77441998D01*
X94642476Y-77441998D02*
X94604380Y-77518188D01*
X94604380Y-77518188D02*
X94604380Y-77632474D01*
X94604380Y-77632474D02*
X94642476Y-77708664D01*
X94642476Y-77708664D02*
X94680571Y-77746760D01*
X94680571Y-77746760D02*
X94756761Y-77784855D01*
X94756761Y-77784855D02*
X95061523Y-77784855D01*
X95061523Y-77784855D02*
X95061523Y-76984855D01*
X95061523Y-76984855D02*
X94794857Y-76984855D01*
X94794857Y-76984855D02*
X94718666Y-77022950D01*
X94718666Y-77022950D02*
X94680571Y-77061045D01*
X94680571Y-77061045D02*
X94642476Y-77137236D01*
X94642476Y-77137236D02*
X94642476Y-77213426D01*
X94642476Y-77213426D02*
X94680571Y-77289617D01*
X94680571Y-77289617D02*
X94718666Y-77327712D01*
X94718666Y-77327712D02*
X94794857Y-77365807D01*
X94794857Y-77365807D02*
X95061523Y-77365807D01*
X98001523Y-77022950D02*
X98077713Y-76984855D01*
X98077713Y-76984855D02*
X98191999Y-76984855D01*
X98191999Y-76984855D02*
X98306285Y-77022950D01*
X98306285Y-77022950D02*
X98382475Y-77099140D01*
X98382475Y-77099140D02*
X98420570Y-77175331D01*
X98420570Y-77175331D02*
X98458666Y-77327712D01*
X98458666Y-77327712D02*
X98458666Y-77441998D01*
X98458666Y-77441998D02*
X98420570Y-77594379D01*
X98420570Y-77594379D02*
X98382475Y-77670569D01*
X98382475Y-77670569D02*
X98306285Y-77746760D01*
X98306285Y-77746760D02*
X98191999Y-77784855D01*
X98191999Y-77784855D02*
X98115808Y-77784855D01*
X98115808Y-77784855D02*
X98001523Y-77746760D01*
X98001523Y-77746760D02*
X97963427Y-77708664D01*
X97963427Y-77708664D02*
X97963427Y-77441998D01*
X97963427Y-77441998D02*
X98115808Y-77441998D01*
X97620570Y-77784855D02*
X97620570Y-76984855D01*
X97620570Y-76984855D02*
X97163427Y-77784855D01*
X97163427Y-77784855D02*
X97163427Y-76984855D01*
X96782475Y-77784855D02*
X96782475Y-76984855D01*
X96782475Y-76984855D02*
X96591999Y-76984855D01*
X96591999Y-76984855D02*
X96477713Y-77022950D01*
X96477713Y-77022950D02*
X96401523Y-77099140D01*
X96401523Y-77099140D02*
X96363428Y-77175331D01*
X96363428Y-77175331D02*
X96325332Y-77327712D01*
X96325332Y-77327712D02*
X96325332Y-77441998D01*
X96325332Y-77441998D02*
X96363428Y-77594379D01*
X96363428Y-77594379D02*
X96401523Y-77670569D01*
X96401523Y-77670569D02*
X96477713Y-77746760D01*
X96477713Y-77746760D02*
X96591999Y-77784855D01*
X96591999Y-77784855D02*
X96782475Y-77784855D01*
X100122476Y-77556283D02*
X99741523Y-77556283D01*
X100198666Y-77784855D02*
X99931999Y-76984855D01*
X99931999Y-76984855D02*
X99665333Y-77784855D01*
%TO.C,J21*%
X150142902Y-69824850D02*
X150523855Y-69824850D01*
X149723855Y-69558183D02*
X150142902Y-69824850D01*
X150142902Y-69824850D02*
X149723855Y-70091516D01*
X149723855Y-72098183D02*
X150523855Y-72631517D01*
X149723855Y-72631517D02*
X150523855Y-72098183D01*
X149723855Y-73838183D02*
X150523855Y-74104850D01*
X150523855Y-74104850D02*
X149723855Y-74371516D01*
X150447664Y-75095326D02*
X150485760Y-75057230D01*
X150485760Y-75057230D02*
X150523855Y-74942945D01*
X150523855Y-74942945D02*
X150523855Y-74866754D01*
X150523855Y-74866754D02*
X150485760Y-74752468D01*
X150485760Y-74752468D02*
X150409569Y-74676278D01*
X150409569Y-74676278D02*
X150333379Y-74638183D01*
X150333379Y-74638183D02*
X150180998Y-74600087D01*
X150180998Y-74600087D02*
X150066712Y-74600087D01*
X150066712Y-74600087D02*
X149914331Y-74638183D01*
X149914331Y-74638183D02*
X149838140Y-74676278D01*
X149838140Y-74676278D02*
X149761950Y-74752468D01*
X149761950Y-74752468D02*
X149723855Y-74866754D01*
X149723855Y-74866754D02*
X149723855Y-74942945D01*
X149723855Y-74942945D02*
X149761950Y-75057230D01*
X149761950Y-75057230D02*
X149800045Y-75095326D01*
X150447664Y-75895326D02*
X150485760Y-75857230D01*
X150485760Y-75857230D02*
X150523855Y-75742945D01*
X150523855Y-75742945D02*
X150523855Y-75666754D01*
X150523855Y-75666754D02*
X150485760Y-75552468D01*
X150485760Y-75552468D02*
X150409569Y-75476278D01*
X150409569Y-75476278D02*
X150333379Y-75438183D01*
X150333379Y-75438183D02*
X150180998Y-75400087D01*
X150180998Y-75400087D02*
X150066712Y-75400087D01*
X150066712Y-75400087D02*
X149914331Y-75438183D01*
X149914331Y-75438183D02*
X149838140Y-75476278D01*
X149838140Y-75476278D02*
X149761950Y-75552468D01*
X149761950Y-75552468D02*
X149723855Y-75666754D01*
X149723855Y-75666754D02*
X149723855Y-75742945D01*
X149723855Y-75742945D02*
X149761950Y-75857230D01*
X149761950Y-75857230D02*
X149800045Y-75895326D01*
X149761950Y-76835326D02*
X149723855Y-76759136D01*
X149723855Y-76759136D02*
X149723855Y-76644850D01*
X149723855Y-76644850D02*
X149761950Y-76530564D01*
X149761950Y-76530564D02*
X149838140Y-76454374D01*
X149838140Y-76454374D02*
X149914331Y-76416279D01*
X149914331Y-76416279D02*
X150066712Y-76378183D01*
X150066712Y-76378183D02*
X150180998Y-76378183D01*
X150180998Y-76378183D02*
X150333379Y-76416279D01*
X150333379Y-76416279D02*
X150409569Y-76454374D01*
X150409569Y-76454374D02*
X150485760Y-76530564D01*
X150485760Y-76530564D02*
X150523855Y-76644850D01*
X150523855Y-76644850D02*
X150523855Y-76721041D01*
X150523855Y-76721041D02*
X150485760Y-76835326D01*
X150485760Y-76835326D02*
X150447664Y-76873422D01*
X150447664Y-76873422D02*
X150180998Y-76873422D01*
X150180998Y-76873422D02*
X150180998Y-76721041D01*
X150523855Y-77216279D02*
X149723855Y-77216279D01*
X149723855Y-77216279D02*
X150523855Y-77673422D01*
X150523855Y-77673422D02*
X149723855Y-77673422D01*
X150523855Y-78054374D02*
X149723855Y-78054374D01*
X149723855Y-78054374D02*
X149723855Y-78244850D01*
X149723855Y-78244850D02*
X149761950Y-78359136D01*
X149761950Y-78359136D02*
X149838140Y-78435326D01*
X149838140Y-78435326D02*
X149914331Y-78473421D01*
X149914331Y-78473421D02*
X150066712Y-78511517D01*
X150066712Y-78511517D02*
X150180998Y-78511517D01*
X150180998Y-78511517D02*
X150333379Y-78473421D01*
X150333379Y-78473421D02*
X150409569Y-78435326D01*
X150409569Y-78435326D02*
X150485760Y-78359136D01*
X150485760Y-78359136D02*
X150523855Y-78244850D01*
X150523855Y-78244850D02*
X150523855Y-78054374D01*
%TO.C,J9*%
X147693855Y-59338183D02*
X147693855Y-59833421D01*
X147693855Y-59833421D02*
X147998617Y-59566755D01*
X147998617Y-59566755D02*
X147998617Y-59681040D01*
X147998617Y-59681040D02*
X148036712Y-59757231D01*
X148036712Y-59757231D02*
X148074807Y-59795326D01*
X148074807Y-59795326D02*
X148150998Y-59833421D01*
X148150998Y-59833421D02*
X148341474Y-59833421D01*
X148341474Y-59833421D02*
X148417664Y-59795326D01*
X148417664Y-59795326D02*
X148455760Y-59757231D01*
X148455760Y-59757231D02*
X148493855Y-59681040D01*
X148493855Y-59681040D02*
X148493855Y-59452469D01*
X148493855Y-59452469D02*
X148455760Y-59376278D01*
X148455760Y-59376278D02*
X148417664Y-59338183D01*
X150500521Y-59757231D02*
X151033855Y-59757231D01*
X150195760Y-59566755D02*
X150767188Y-59376278D01*
X150767188Y-59376278D02*
X150767188Y-59871517D01*
X140946144Y-59642944D02*
X140946144Y-59566754D01*
X140946144Y-59566754D02*
X140908049Y-59490563D01*
X140908049Y-59490563D02*
X140869954Y-59452468D01*
X140869954Y-59452468D02*
X140793763Y-59414373D01*
X140793763Y-59414373D02*
X140641382Y-59376278D01*
X140641382Y-59376278D02*
X140450906Y-59376278D01*
X140450906Y-59376278D02*
X140298525Y-59414373D01*
X140298525Y-59414373D02*
X140222335Y-59452468D01*
X140222335Y-59452468D02*
X140184240Y-59490563D01*
X140184240Y-59490563D02*
X140146144Y-59566754D01*
X140146144Y-59566754D02*
X140146144Y-59642944D01*
X140146144Y-59642944D02*
X140184240Y-59719135D01*
X140184240Y-59719135D02*
X140222335Y-59757230D01*
X140222335Y-59757230D02*
X140298525Y-59795325D01*
X140298525Y-59795325D02*
X140450906Y-59833421D01*
X140450906Y-59833421D02*
X140641382Y-59833421D01*
X140641382Y-59833421D02*
X140793763Y-59795325D01*
X140793763Y-59795325D02*
X140869954Y-59757230D01*
X140869954Y-59757230D02*
X140908049Y-59719135D01*
X140908049Y-59719135D02*
X140946144Y-59642944D01*
X143413855Y-59833421D02*
X143413855Y-59376278D01*
X143413855Y-59604850D02*
X142613855Y-59604850D01*
X142613855Y-59604850D02*
X142728140Y-59528659D01*
X142728140Y-59528659D02*
X142804331Y-59452469D01*
X142804331Y-59452469D02*
X142842426Y-59376278D01*
X145230045Y-59376278D02*
X145191950Y-59414374D01*
X145191950Y-59414374D02*
X145153855Y-59490564D01*
X145153855Y-59490564D02*
X145153855Y-59681040D01*
X145153855Y-59681040D02*
X145191950Y-59757231D01*
X145191950Y-59757231D02*
X145230045Y-59795326D01*
X145230045Y-59795326D02*
X145306236Y-59833421D01*
X145306236Y-59833421D02*
X145382426Y-59833421D01*
X145382426Y-59833421D02*
X145496712Y-59795326D01*
X145496712Y-59795326D02*
X145953855Y-59338183D01*
X145953855Y-59338183D02*
X145953855Y-59833421D01*
X152773855Y-59795326D02*
X152773855Y-59414374D01*
X152773855Y-59414374D02*
X153154807Y-59376278D01*
X153154807Y-59376278D02*
X153116712Y-59414374D01*
X153116712Y-59414374D02*
X153078617Y-59490564D01*
X153078617Y-59490564D02*
X153078617Y-59681040D01*
X153078617Y-59681040D02*
X153116712Y-59757231D01*
X153116712Y-59757231D02*
X153154807Y-59795326D01*
X153154807Y-59795326D02*
X153230998Y-59833421D01*
X153230998Y-59833421D02*
X153421474Y-59833421D01*
X153421474Y-59833421D02*
X153497664Y-59795326D01*
X153497664Y-59795326D02*
X153535760Y-59757231D01*
X153535760Y-59757231D02*
X153573855Y-59681040D01*
X153573855Y-59681040D02*
X153573855Y-59490564D01*
X153573855Y-59490564D02*
X153535760Y-59414374D01*
X153535760Y-59414374D02*
X153497664Y-59376278D01*
%TO.C,J4*%
X202342380Y-56578705D02*
X202723332Y-56578705D01*
X202723332Y-56578705D02*
X202723332Y-55778705D01*
%TO.C,J6*%
X198759523Y-91948705D02*
X198759523Y-91148705D01*
X198759523Y-91148705D02*
X198569047Y-91148705D01*
X198569047Y-91148705D02*
X198454761Y-91186800D01*
X198454761Y-91186800D02*
X198378571Y-91262990D01*
X198378571Y-91262990D02*
X198340476Y-91339181D01*
X198340476Y-91339181D02*
X198302380Y-91491562D01*
X198302380Y-91491562D02*
X198302380Y-91605848D01*
X198302380Y-91605848D02*
X198340476Y-91758229D01*
X198340476Y-91758229D02*
X198378571Y-91834419D01*
X198378571Y-91834419D02*
X198454761Y-91910610D01*
X198454761Y-91910610D02*
X198569047Y-91948705D01*
X198569047Y-91948705D02*
X198759523Y-91948705D01*
%TO.C,U1*%
X180482380Y-83788705D02*
X180749047Y-83407752D01*
X180939523Y-83788705D02*
X180939523Y-82988705D01*
X180939523Y-82988705D02*
X180634761Y-82988705D01*
X180634761Y-82988705D02*
X180558571Y-83026800D01*
X180558571Y-83026800D02*
X180520476Y-83064895D01*
X180520476Y-83064895D02*
X180482380Y-83141086D01*
X180482380Y-83141086D02*
X180482380Y-83255371D01*
X180482380Y-83255371D02*
X180520476Y-83331562D01*
X180520476Y-83331562D02*
X180558571Y-83369657D01*
X180558571Y-83369657D02*
X180634761Y-83407752D01*
X180634761Y-83407752D02*
X180939523Y-83407752D01*
X195832380Y-83788705D02*
X196213332Y-83788705D01*
X196213332Y-83788705D02*
X196213332Y-82988705D01*
%TO.C,J14*%
X153763855Y-88148183D02*
X154563855Y-88681517D01*
X153763855Y-88681517D02*
X154563855Y-88148183D01*
X154182902Y-85874850D02*
X154563855Y-85874850D01*
X153763855Y-85608183D02*
X154182902Y-85874850D01*
X154182902Y-85874850D02*
X153763855Y-86141516D01*
X154525760Y-90345325D02*
X154563855Y-90459611D01*
X154563855Y-90459611D02*
X154563855Y-90650087D01*
X154563855Y-90650087D02*
X154525760Y-90726278D01*
X154525760Y-90726278D02*
X154487664Y-90764373D01*
X154487664Y-90764373D02*
X154411474Y-90802468D01*
X154411474Y-90802468D02*
X154335283Y-90802468D01*
X154335283Y-90802468D02*
X154259093Y-90764373D01*
X154259093Y-90764373D02*
X154220998Y-90726278D01*
X154220998Y-90726278D02*
X154182902Y-90650087D01*
X154182902Y-90650087D02*
X154144807Y-90497706D01*
X154144807Y-90497706D02*
X154106712Y-90421516D01*
X154106712Y-90421516D02*
X154068617Y-90383421D01*
X154068617Y-90383421D02*
X153992426Y-90345325D01*
X153992426Y-90345325D02*
X153916236Y-90345325D01*
X153916236Y-90345325D02*
X153840045Y-90383421D01*
X153840045Y-90383421D02*
X153801950Y-90421516D01*
X153801950Y-90421516D02*
X153763855Y-90497706D01*
X153763855Y-90497706D02*
X153763855Y-90688183D01*
X153763855Y-90688183D02*
X153801950Y-90802468D01*
X153840045Y-91107230D02*
X153801950Y-91145326D01*
X153801950Y-91145326D02*
X153763855Y-91221516D01*
X153763855Y-91221516D02*
X153763855Y-91411992D01*
X153763855Y-91411992D02*
X153801950Y-91488183D01*
X153801950Y-91488183D02*
X153840045Y-91526278D01*
X153840045Y-91526278D02*
X153916236Y-91564373D01*
X153916236Y-91564373D02*
X153992426Y-91564373D01*
X153992426Y-91564373D02*
X154106712Y-91526278D01*
X154106712Y-91526278D02*
X154563855Y-91069135D01*
X154563855Y-91069135D02*
X154563855Y-91564373D01*
X154525760Y-79823421D02*
X154563855Y-79937707D01*
X154563855Y-79937707D02*
X154563855Y-80128183D01*
X154563855Y-80128183D02*
X154525760Y-80204374D01*
X154525760Y-80204374D02*
X154487664Y-80242469D01*
X154487664Y-80242469D02*
X154411474Y-80280564D01*
X154411474Y-80280564D02*
X154335283Y-80280564D01*
X154335283Y-80280564D02*
X154259093Y-80242469D01*
X154259093Y-80242469D02*
X154220998Y-80204374D01*
X154220998Y-80204374D02*
X154182902Y-80128183D01*
X154182902Y-80128183D02*
X154144807Y-79975802D01*
X154144807Y-79975802D02*
X154106712Y-79899612D01*
X154106712Y-79899612D02*
X154068617Y-79861517D01*
X154068617Y-79861517D02*
X153992426Y-79823421D01*
X153992426Y-79823421D02*
X153916236Y-79823421D01*
X153916236Y-79823421D02*
X153840045Y-79861517D01*
X153840045Y-79861517D02*
X153801950Y-79899612D01*
X153801950Y-79899612D02*
X153763855Y-79975802D01*
X153763855Y-79975802D02*
X153763855Y-80166279D01*
X153763855Y-80166279D02*
X153801950Y-80280564D01*
X154563855Y-80623422D02*
X153763855Y-80623422D01*
X153763855Y-80623422D02*
X153763855Y-80813898D01*
X153763855Y-80813898D02*
X153801950Y-80928184D01*
X153801950Y-80928184D02*
X153878140Y-81004374D01*
X153878140Y-81004374D02*
X153954331Y-81042469D01*
X153954331Y-81042469D02*
X154106712Y-81080565D01*
X154106712Y-81080565D02*
X154220998Y-81080565D01*
X154220998Y-81080565D02*
X154373379Y-81042469D01*
X154373379Y-81042469D02*
X154449569Y-81004374D01*
X154449569Y-81004374D02*
X154525760Y-80928184D01*
X154525760Y-80928184D02*
X154563855Y-80813898D01*
X154563855Y-80813898D02*
X154563855Y-80623422D01*
X154335283Y-81385326D02*
X154335283Y-81766279D01*
X154563855Y-81309136D02*
X153763855Y-81575803D01*
X153763855Y-81575803D02*
X154563855Y-81842469D01*
X154525760Y-82382468D02*
X154563855Y-82496754D01*
X154563855Y-82496754D02*
X154563855Y-82687230D01*
X154563855Y-82687230D02*
X154525760Y-82763421D01*
X154525760Y-82763421D02*
X154487664Y-82801516D01*
X154487664Y-82801516D02*
X154411474Y-82839611D01*
X154411474Y-82839611D02*
X154335283Y-82839611D01*
X154335283Y-82839611D02*
X154259093Y-82801516D01*
X154259093Y-82801516D02*
X154220998Y-82763421D01*
X154220998Y-82763421D02*
X154182902Y-82687230D01*
X154182902Y-82687230D02*
X154144807Y-82534849D01*
X154144807Y-82534849D02*
X154106712Y-82458659D01*
X154106712Y-82458659D02*
X154068617Y-82420564D01*
X154068617Y-82420564D02*
X153992426Y-82382468D01*
X153992426Y-82382468D02*
X153916236Y-82382468D01*
X153916236Y-82382468D02*
X153840045Y-82420564D01*
X153840045Y-82420564D02*
X153801950Y-82458659D01*
X153801950Y-82458659D02*
X153763855Y-82534849D01*
X153763855Y-82534849D02*
X153763855Y-82725326D01*
X153763855Y-82725326D02*
X153801950Y-82839611D01*
X154487664Y-83639612D02*
X154525760Y-83601516D01*
X154525760Y-83601516D02*
X154563855Y-83487231D01*
X154563855Y-83487231D02*
X154563855Y-83411040D01*
X154563855Y-83411040D02*
X154525760Y-83296754D01*
X154525760Y-83296754D02*
X154449569Y-83220564D01*
X154449569Y-83220564D02*
X154373379Y-83182469D01*
X154373379Y-83182469D02*
X154220998Y-83144373D01*
X154220998Y-83144373D02*
X154106712Y-83144373D01*
X154106712Y-83144373D02*
X153954331Y-83182469D01*
X153954331Y-83182469D02*
X153878140Y-83220564D01*
X153878140Y-83220564D02*
X153801950Y-83296754D01*
X153801950Y-83296754D02*
X153763855Y-83411040D01*
X153763855Y-83411040D02*
X153763855Y-83487231D01*
X153763855Y-83487231D02*
X153801950Y-83601516D01*
X153801950Y-83601516D02*
X153840045Y-83639612D01*
X154563855Y-84363421D02*
X154563855Y-83982469D01*
X154563855Y-83982469D02*
X153763855Y-83982469D01*
%TO.C,J25*%
X211205760Y-88063428D02*
X211243855Y-88177714D01*
X211243855Y-88177714D02*
X211243855Y-88368190D01*
X211243855Y-88368190D02*
X211205760Y-88444381D01*
X211205760Y-88444381D02*
X211167664Y-88482476D01*
X211167664Y-88482476D02*
X211091474Y-88520571D01*
X211091474Y-88520571D02*
X211015283Y-88520571D01*
X211015283Y-88520571D02*
X210939093Y-88482476D01*
X210939093Y-88482476D02*
X210900998Y-88444381D01*
X210900998Y-88444381D02*
X210862902Y-88368190D01*
X210862902Y-88368190D02*
X210824807Y-88215809D01*
X210824807Y-88215809D02*
X210786712Y-88139619D01*
X210786712Y-88139619D02*
X210748617Y-88101524D01*
X210748617Y-88101524D02*
X210672426Y-88063428D01*
X210672426Y-88063428D02*
X210596236Y-88063428D01*
X210596236Y-88063428D02*
X210520045Y-88101524D01*
X210520045Y-88101524D02*
X210481950Y-88139619D01*
X210481950Y-88139619D02*
X210443855Y-88215809D01*
X210443855Y-88215809D02*
X210443855Y-88406286D01*
X210443855Y-88406286D02*
X210481950Y-88520571D01*
X210481950Y-85142476D02*
X210443855Y-85066286D01*
X210443855Y-85066286D02*
X210443855Y-84952000D01*
X210443855Y-84952000D02*
X210481950Y-84837714D01*
X210481950Y-84837714D02*
X210558140Y-84761524D01*
X210558140Y-84761524D02*
X210634331Y-84723429D01*
X210634331Y-84723429D02*
X210786712Y-84685333D01*
X210786712Y-84685333D02*
X210900998Y-84685333D01*
X210900998Y-84685333D02*
X211053379Y-84723429D01*
X211053379Y-84723429D02*
X211129569Y-84761524D01*
X211129569Y-84761524D02*
X211205760Y-84837714D01*
X211205760Y-84837714D02*
X211243855Y-84952000D01*
X211243855Y-84952000D02*
X211243855Y-85028191D01*
X211243855Y-85028191D02*
X211205760Y-85142476D01*
X211205760Y-85142476D02*
X211167664Y-85180572D01*
X211167664Y-85180572D02*
X210900998Y-85180572D01*
X210900998Y-85180572D02*
X210900998Y-85028191D01*
X211243855Y-85523429D02*
X210443855Y-85523429D01*
X210443855Y-85523429D02*
X211243855Y-85980572D01*
X211243855Y-85980572D02*
X210443855Y-85980572D01*
X211243855Y-86361524D02*
X210443855Y-86361524D01*
X210443855Y-86361524D02*
X210443855Y-86552000D01*
X210443855Y-86552000D02*
X210481950Y-86666286D01*
X210481950Y-86666286D02*
X210558140Y-86742476D01*
X210558140Y-86742476D02*
X210634331Y-86780571D01*
X210634331Y-86780571D02*
X210786712Y-86818667D01*
X210786712Y-86818667D02*
X210900998Y-86818667D01*
X210900998Y-86818667D02*
X211053379Y-86780571D01*
X211053379Y-86780571D02*
X211129569Y-86742476D01*
X211129569Y-86742476D02*
X211205760Y-86666286D01*
X211205760Y-86666286D02*
X211243855Y-86552000D01*
X211243855Y-86552000D02*
X211243855Y-86361524D01*
X210443855Y-89765333D02*
X211243855Y-90032000D01*
X211243855Y-90032000D02*
X210443855Y-90298666D01*
X211167664Y-91022476D02*
X211205760Y-90984380D01*
X211205760Y-90984380D02*
X211243855Y-90870095D01*
X211243855Y-90870095D02*
X211243855Y-90793904D01*
X211243855Y-90793904D02*
X211205760Y-90679618D01*
X211205760Y-90679618D02*
X211129569Y-90603428D01*
X211129569Y-90603428D02*
X211053379Y-90565333D01*
X211053379Y-90565333D02*
X210900998Y-90527237D01*
X210900998Y-90527237D02*
X210786712Y-90527237D01*
X210786712Y-90527237D02*
X210634331Y-90565333D01*
X210634331Y-90565333D02*
X210558140Y-90603428D01*
X210558140Y-90603428D02*
X210481950Y-90679618D01*
X210481950Y-90679618D02*
X210443855Y-90793904D01*
X210443855Y-90793904D02*
X210443855Y-90870095D01*
X210443855Y-90870095D02*
X210481950Y-90984380D01*
X210481950Y-90984380D02*
X210520045Y-91022476D01*
X211167664Y-91822476D02*
X211205760Y-91784380D01*
X211205760Y-91784380D02*
X211243855Y-91670095D01*
X211243855Y-91670095D02*
X211243855Y-91593904D01*
X211243855Y-91593904D02*
X211205760Y-91479618D01*
X211205760Y-91479618D02*
X211129569Y-91403428D01*
X211129569Y-91403428D02*
X211053379Y-91365333D01*
X211053379Y-91365333D02*
X210900998Y-91327237D01*
X210900998Y-91327237D02*
X210786712Y-91327237D01*
X210786712Y-91327237D02*
X210634331Y-91365333D01*
X210634331Y-91365333D02*
X210558140Y-91403428D01*
X210558140Y-91403428D02*
X210481950Y-91479618D01*
X210481950Y-91479618D02*
X210443855Y-91593904D01*
X210443855Y-91593904D02*
X210443855Y-91670095D01*
X210443855Y-91670095D02*
X210481950Y-91784380D01*
X210481950Y-91784380D02*
X210520045Y-91822476D01*
%TO.C,J28*%
X91958144Y-80193380D02*
X92339097Y-80460047D01*
X91958144Y-80650523D02*
X92758144Y-80650523D01*
X92758144Y-80650523D02*
X92758144Y-80345761D01*
X92758144Y-80345761D02*
X92720049Y-80269571D01*
X92720049Y-80269571D02*
X92681954Y-80231476D01*
X92681954Y-80231476D02*
X92605763Y-80193380D01*
X92605763Y-80193380D02*
X92491478Y-80193380D01*
X92491478Y-80193380D02*
X92415287Y-80231476D01*
X92415287Y-80231476D02*
X92377192Y-80269571D01*
X92377192Y-80269571D02*
X92339097Y-80345761D01*
X92339097Y-80345761D02*
X92339097Y-80650523D01*
%TO.C,J8*%
X150114807Y-85541040D02*
X150152902Y-85655326D01*
X150152902Y-85655326D02*
X150190998Y-85693421D01*
X150190998Y-85693421D02*
X150267188Y-85731517D01*
X150267188Y-85731517D02*
X150381474Y-85731517D01*
X150381474Y-85731517D02*
X150457664Y-85693421D01*
X150457664Y-85693421D02*
X150495760Y-85655326D01*
X150495760Y-85655326D02*
X150533855Y-85579136D01*
X150533855Y-85579136D02*
X150533855Y-85274374D01*
X150533855Y-85274374D02*
X149733855Y-85274374D01*
X149733855Y-85274374D02*
X149733855Y-85541040D01*
X149733855Y-85541040D02*
X149771950Y-85617231D01*
X149771950Y-85617231D02*
X149810045Y-85655326D01*
X149810045Y-85655326D02*
X149886236Y-85693421D01*
X149886236Y-85693421D02*
X149962426Y-85693421D01*
X149962426Y-85693421D02*
X150038617Y-85655326D01*
X150038617Y-85655326D02*
X150076712Y-85617231D01*
X150076712Y-85617231D02*
X150114807Y-85541040D01*
X150114807Y-85541040D02*
X150114807Y-85274374D01*
X150533855Y-86493421D02*
X150533855Y-86036278D01*
X150533855Y-86264850D02*
X149733855Y-86264850D01*
X149733855Y-86264850D02*
X149848140Y-86188659D01*
X149848140Y-86188659D02*
X149924331Y-86112469D01*
X149924331Y-86112469D02*
X149962426Y-86036278D01*
X150114807Y-80461040D02*
X150152902Y-80575326D01*
X150152902Y-80575326D02*
X150190998Y-80613421D01*
X150190998Y-80613421D02*
X150267188Y-80651517D01*
X150267188Y-80651517D02*
X150381474Y-80651517D01*
X150381474Y-80651517D02*
X150457664Y-80613421D01*
X150457664Y-80613421D02*
X150495760Y-80575326D01*
X150495760Y-80575326D02*
X150533855Y-80499136D01*
X150533855Y-80499136D02*
X150533855Y-80194374D01*
X150533855Y-80194374D02*
X149733855Y-80194374D01*
X149733855Y-80194374D02*
X149733855Y-80461040D01*
X149733855Y-80461040D02*
X149771950Y-80537231D01*
X149771950Y-80537231D02*
X149810045Y-80575326D01*
X149810045Y-80575326D02*
X149886236Y-80613421D01*
X149886236Y-80613421D02*
X149962426Y-80613421D01*
X149962426Y-80613421D02*
X150038617Y-80575326D01*
X150038617Y-80575326D02*
X150076712Y-80537231D01*
X150076712Y-80537231D02*
X150114807Y-80461040D01*
X150114807Y-80461040D02*
X150114807Y-80194374D01*
X149810045Y-80956278D02*
X149771950Y-80994374D01*
X149771950Y-80994374D02*
X149733855Y-81070564D01*
X149733855Y-81070564D02*
X149733855Y-81261040D01*
X149733855Y-81261040D02*
X149771950Y-81337231D01*
X149771950Y-81337231D02*
X149810045Y-81375326D01*
X149810045Y-81375326D02*
X149886236Y-81413421D01*
X149886236Y-81413421D02*
X149962426Y-81413421D01*
X149962426Y-81413421D02*
X150076712Y-81375326D01*
X150076712Y-81375326D02*
X150533855Y-80918183D01*
X150533855Y-80918183D02*
X150533855Y-81413421D01*
X150305283Y-87833421D02*
X150305283Y-88214374D01*
X150533855Y-87757231D02*
X149733855Y-88023898D01*
X149733855Y-88023898D02*
X150533855Y-88290564D01*
X150533855Y-88976278D02*
X150533855Y-88519135D01*
X150533855Y-88747707D02*
X149733855Y-88747707D01*
X149733855Y-88747707D02*
X149848140Y-88671516D01*
X149848140Y-88671516D02*
X149924331Y-88595326D01*
X149924331Y-88595326D02*
X149962426Y-88519135D01*
X150495760Y-90335325D02*
X150533855Y-90449611D01*
X150533855Y-90449611D02*
X150533855Y-90640087D01*
X150533855Y-90640087D02*
X150495760Y-90716278D01*
X150495760Y-90716278D02*
X150457664Y-90754373D01*
X150457664Y-90754373D02*
X150381474Y-90792468D01*
X150381474Y-90792468D02*
X150305283Y-90792468D01*
X150305283Y-90792468D02*
X150229093Y-90754373D01*
X150229093Y-90754373D02*
X150190998Y-90716278D01*
X150190998Y-90716278D02*
X150152902Y-90640087D01*
X150152902Y-90640087D02*
X150114807Y-90487706D01*
X150114807Y-90487706D02*
X150076712Y-90411516D01*
X150076712Y-90411516D02*
X150038617Y-90373421D01*
X150038617Y-90373421D02*
X149962426Y-90335325D01*
X149962426Y-90335325D02*
X149886236Y-90335325D01*
X149886236Y-90335325D02*
X149810045Y-90373421D01*
X149810045Y-90373421D02*
X149771950Y-90411516D01*
X149771950Y-90411516D02*
X149733855Y-90487706D01*
X149733855Y-90487706D02*
X149733855Y-90678183D01*
X149733855Y-90678183D02*
X149771950Y-90792468D01*
X150533855Y-91554373D02*
X150533855Y-91097230D01*
X150533855Y-91325802D02*
X149733855Y-91325802D01*
X149733855Y-91325802D02*
X149848140Y-91249611D01*
X149848140Y-91249611D02*
X149924331Y-91173421D01*
X149924331Y-91173421D02*
X149962426Y-91097230D01*
X150305283Y-82753421D02*
X150305283Y-83134374D01*
X150533855Y-82677231D02*
X149733855Y-82943898D01*
X149733855Y-82943898D02*
X150533855Y-83210564D01*
X149810045Y-83439135D02*
X149771950Y-83477231D01*
X149771950Y-83477231D02*
X149733855Y-83553421D01*
X149733855Y-83553421D02*
X149733855Y-83743897D01*
X149733855Y-83743897D02*
X149771950Y-83820088D01*
X149771950Y-83820088D02*
X149810045Y-83858183D01*
X149810045Y-83858183D02*
X149886236Y-83896278D01*
X149886236Y-83896278D02*
X149962426Y-83896278D01*
X149962426Y-83896278D02*
X150076712Y-83858183D01*
X150076712Y-83858183D02*
X150533855Y-83401040D01*
X150533855Y-83401040D02*
X150533855Y-83896278D01*
%TO.C,J27*%
X97541823Y-48857587D02*
X97160870Y-48590920D01*
X97541823Y-48400444D02*
X96741823Y-48400444D01*
X96741823Y-48400444D02*
X96741823Y-48705206D01*
X96741823Y-48705206D02*
X96779918Y-48781396D01*
X96779918Y-48781396D02*
X96818013Y-48819491D01*
X96818013Y-48819491D02*
X96894204Y-48857587D01*
X96894204Y-48857587D02*
X97008489Y-48857587D01*
X97008489Y-48857587D02*
X97084680Y-48819491D01*
X97084680Y-48819491D02*
X97122775Y-48781396D01*
X97122775Y-48781396D02*
X97160870Y-48705206D01*
X97160870Y-48705206D02*
X97160870Y-48400444D01*
X100005632Y-48857587D02*
X100043728Y-48819491D01*
X100043728Y-48819491D02*
X100081823Y-48705206D01*
X100081823Y-48705206D02*
X100081823Y-48629015D01*
X100081823Y-48629015D02*
X100043728Y-48514729D01*
X100043728Y-48514729D02*
X99967537Y-48438539D01*
X99967537Y-48438539D02*
X99891347Y-48400444D01*
X99891347Y-48400444D02*
X99738966Y-48362348D01*
X99738966Y-48362348D02*
X99624680Y-48362348D01*
X99624680Y-48362348D02*
X99472299Y-48400444D01*
X99472299Y-48400444D02*
X99396108Y-48438539D01*
X99396108Y-48438539D02*
X99319918Y-48514729D01*
X99319918Y-48514729D02*
X99281823Y-48629015D01*
X99281823Y-48629015D02*
X99281823Y-48705206D01*
X99281823Y-48705206D02*
X99319918Y-48819491D01*
X99319918Y-48819491D02*
X99358013Y-48857587D01*
X94925632Y-48857587D02*
X94963728Y-48819491D01*
X94963728Y-48819491D02*
X95001823Y-48705206D01*
X95001823Y-48705206D02*
X95001823Y-48629015D01*
X95001823Y-48629015D02*
X94963728Y-48514729D01*
X94963728Y-48514729D02*
X94887537Y-48438539D01*
X94887537Y-48438539D02*
X94811347Y-48400444D01*
X94811347Y-48400444D02*
X94658966Y-48362348D01*
X94658966Y-48362348D02*
X94544680Y-48362348D01*
X94544680Y-48362348D02*
X94392299Y-48400444D01*
X94392299Y-48400444D02*
X94316108Y-48438539D01*
X94316108Y-48438539D02*
X94239918Y-48514729D01*
X94239918Y-48514729D02*
X94201823Y-48629015D01*
X94201823Y-48629015D02*
X94201823Y-48705206D01*
X94201823Y-48705206D02*
X94239918Y-48819491D01*
X94239918Y-48819491D02*
X94278013Y-48857587D01*
%TO.C,J2*%
X143649523Y-85976800D02*
X143725713Y-85938705D01*
X143725713Y-85938705D02*
X143839999Y-85938705D01*
X143839999Y-85938705D02*
X143954285Y-85976800D01*
X143954285Y-85976800D02*
X144030475Y-86052990D01*
X144030475Y-86052990D02*
X144068570Y-86129181D01*
X144068570Y-86129181D02*
X144106666Y-86281562D01*
X144106666Y-86281562D02*
X144106666Y-86395848D01*
X144106666Y-86395848D02*
X144068570Y-86548229D01*
X144068570Y-86548229D02*
X144030475Y-86624419D01*
X144030475Y-86624419D02*
X143954285Y-86700610D01*
X143954285Y-86700610D02*
X143839999Y-86738705D01*
X143839999Y-86738705D02*
X143763808Y-86738705D01*
X143763808Y-86738705D02*
X143649523Y-86700610D01*
X143649523Y-86700610D02*
X143611427Y-86662514D01*
X143611427Y-86662514D02*
X143611427Y-86395848D01*
X143611427Y-86395848D02*
X143763808Y-86395848D01*
X143268570Y-86738705D02*
X143268570Y-85938705D01*
X143268570Y-85938705D02*
X142811427Y-86738705D01*
X142811427Y-86738705D02*
X142811427Y-85938705D01*
X142430475Y-86738705D02*
X142430475Y-85938705D01*
X142430475Y-85938705D02*
X142239999Y-85938705D01*
X142239999Y-85938705D02*
X142125713Y-85976800D01*
X142125713Y-85976800D02*
X142049523Y-86052990D01*
X142049523Y-86052990D02*
X142011428Y-86129181D01*
X142011428Y-86129181D02*
X141973332Y-86281562D01*
X141973332Y-86281562D02*
X141973332Y-86395848D01*
X141973332Y-86395848D02*
X142011428Y-86548229D01*
X142011428Y-86548229D02*
X142049523Y-86624419D01*
X142049523Y-86624419D02*
X142125713Y-86700610D01*
X142125713Y-86700610D02*
X142239999Y-86738705D01*
X142239999Y-86738705D02*
X142430475Y-86738705D01*
X141566666Y-85938705D02*
X141299999Y-86738705D01*
X141299999Y-86738705D02*
X141033333Y-85938705D01*
X140309523Y-86662514D02*
X140347619Y-86700610D01*
X140347619Y-86700610D02*
X140461904Y-86738705D01*
X140461904Y-86738705D02*
X140538095Y-86738705D01*
X140538095Y-86738705D02*
X140652381Y-86700610D01*
X140652381Y-86700610D02*
X140728571Y-86624419D01*
X140728571Y-86624419D02*
X140766666Y-86548229D01*
X140766666Y-86548229D02*
X140804762Y-86395848D01*
X140804762Y-86395848D02*
X140804762Y-86281562D01*
X140804762Y-86281562D02*
X140766666Y-86129181D01*
X140766666Y-86129181D02*
X140728571Y-86052990D01*
X140728571Y-86052990D02*
X140652381Y-85976800D01*
X140652381Y-85976800D02*
X140538095Y-85938705D01*
X140538095Y-85938705D02*
X140461904Y-85938705D01*
X140461904Y-85938705D02*
X140347619Y-85976800D01*
X140347619Y-85976800D02*
X140309523Y-86014895D01*
X139509523Y-86662514D02*
X139547619Y-86700610D01*
X139547619Y-86700610D02*
X139661904Y-86738705D01*
X139661904Y-86738705D02*
X139738095Y-86738705D01*
X139738095Y-86738705D02*
X139852381Y-86700610D01*
X139852381Y-86700610D02*
X139928571Y-86624419D01*
X139928571Y-86624419D02*
X139966666Y-86548229D01*
X139966666Y-86548229D02*
X140004762Y-86395848D01*
X140004762Y-86395848D02*
X140004762Y-86281562D01*
X140004762Y-86281562D02*
X139966666Y-86129181D01*
X139966666Y-86129181D02*
X139928571Y-86052990D01*
X139928571Y-86052990D02*
X139852381Y-85976800D01*
X139852381Y-85976800D02*
X139738095Y-85938705D01*
X139738095Y-85938705D02*
X139661904Y-85938705D01*
X139661904Y-85938705D02*
X139547619Y-85976800D01*
X139547619Y-85976800D02*
X139509523Y-86014895D01*
%TO.C,J27*%
X97758887Y-95077651D02*
X97377934Y-94810984D01*
X97758887Y-94620508D02*
X96958887Y-94620508D01*
X96958887Y-94620508D02*
X96958887Y-94925270D01*
X96958887Y-94925270D02*
X96996982Y-95001460D01*
X96996982Y-95001460D02*
X97035077Y-95039555D01*
X97035077Y-95039555D02*
X97111268Y-95077651D01*
X97111268Y-95077651D02*
X97225553Y-95077651D01*
X97225553Y-95077651D02*
X97301744Y-95039555D01*
X97301744Y-95039555D02*
X97339839Y-95001460D01*
X97339839Y-95001460D02*
X97377934Y-94925270D01*
X97377934Y-94925270D02*
X97377934Y-94620508D01*
X95142696Y-95077651D02*
X95180792Y-95039555D01*
X95180792Y-95039555D02*
X95218887Y-94925270D01*
X95218887Y-94925270D02*
X95218887Y-94849079D01*
X95218887Y-94849079D02*
X95180792Y-94734793D01*
X95180792Y-94734793D02*
X95104601Y-94658603D01*
X95104601Y-94658603D02*
X95028411Y-94620508D01*
X95028411Y-94620508D02*
X94876030Y-94582412D01*
X94876030Y-94582412D02*
X94761744Y-94582412D01*
X94761744Y-94582412D02*
X94609363Y-94620508D01*
X94609363Y-94620508D02*
X94533172Y-94658603D01*
X94533172Y-94658603D02*
X94456982Y-94734793D01*
X94456982Y-94734793D02*
X94418887Y-94849079D01*
X94418887Y-94849079D02*
X94418887Y-94925270D01*
X94418887Y-94925270D02*
X94456982Y-95039555D01*
X94456982Y-95039555D02*
X94495077Y-95077651D01*
X100222696Y-95077651D02*
X100260792Y-95039555D01*
X100260792Y-95039555D02*
X100298887Y-94925270D01*
X100298887Y-94925270D02*
X100298887Y-94849079D01*
X100298887Y-94849079D02*
X100260792Y-94734793D01*
X100260792Y-94734793D02*
X100184601Y-94658603D01*
X100184601Y-94658603D02*
X100108411Y-94620508D01*
X100108411Y-94620508D02*
X99956030Y-94582412D01*
X99956030Y-94582412D02*
X99841744Y-94582412D01*
X99841744Y-94582412D02*
X99689363Y-94620508D01*
X99689363Y-94620508D02*
X99613172Y-94658603D01*
X99613172Y-94658603D02*
X99536982Y-94734793D01*
X99536982Y-94734793D02*
X99498887Y-94849079D01*
X99498887Y-94849079D02*
X99498887Y-94925270D01*
X99498887Y-94925270D02*
X99536982Y-95039555D01*
X99536982Y-95039555D02*
X99575077Y-95077651D01*
%TO.C,J25*%
X219621760Y-54919428D02*
X219659855Y-55033714D01*
X219659855Y-55033714D02*
X219659855Y-55224190D01*
X219659855Y-55224190D02*
X219621760Y-55300381D01*
X219621760Y-55300381D02*
X219583664Y-55338476D01*
X219583664Y-55338476D02*
X219507474Y-55376571D01*
X219507474Y-55376571D02*
X219431283Y-55376571D01*
X219431283Y-55376571D02*
X219355093Y-55338476D01*
X219355093Y-55338476D02*
X219316998Y-55300381D01*
X219316998Y-55300381D02*
X219278902Y-55224190D01*
X219278902Y-55224190D02*
X219240807Y-55071809D01*
X219240807Y-55071809D02*
X219202712Y-54995619D01*
X219202712Y-54995619D02*
X219164617Y-54957524D01*
X219164617Y-54957524D02*
X219088426Y-54919428D01*
X219088426Y-54919428D02*
X219012236Y-54919428D01*
X219012236Y-54919428D02*
X218936045Y-54957524D01*
X218936045Y-54957524D02*
X218897950Y-54995619D01*
X218897950Y-54995619D02*
X218859855Y-55071809D01*
X218859855Y-55071809D02*
X218859855Y-55262286D01*
X218859855Y-55262286D02*
X218897950Y-55376571D01*
X218897950Y-57078476D02*
X218859855Y-57002286D01*
X218859855Y-57002286D02*
X218859855Y-56888000D01*
X218859855Y-56888000D02*
X218897950Y-56773714D01*
X218897950Y-56773714D02*
X218974140Y-56697524D01*
X218974140Y-56697524D02*
X219050331Y-56659429D01*
X219050331Y-56659429D02*
X219202712Y-56621333D01*
X219202712Y-56621333D02*
X219316998Y-56621333D01*
X219316998Y-56621333D02*
X219469379Y-56659429D01*
X219469379Y-56659429D02*
X219545569Y-56697524D01*
X219545569Y-56697524D02*
X219621760Y-56773714D01*
X219621760Y-56773714D02*
X219659855Y-56888000D01*
X219659855Y-56888000D02*
X219659855Y-56964191D01*
X219659855Y-56964191D02*
X219621760Y-57078476D01*
X219621760Y-57078476D02*
X219583664Y-57116572D01*
X219583664Y-57116572D02*
X219316998Y-57116572D01*
X219316998Y-57116572D02*
X219316998Y-56964191D01*
X219659855Y-57459429D02*
X218859855Y-57459429D01*
X218859855Y-57459429D02*
X219659855Y-57916572D01*
X219659855Y-57916572D02*
X218859855Y-57916572D01*
X219659855Y-58297524D02*
X218859855Y-58297524D01*
X218859855Y-58297524D02*
X218859855Y-58488000D01*
X218859855Y-58488000D02*
X218897950Y-58602286D01*
X218897950Y-58602286D02*
X218974140Y-58678476D01*
X218974140Y-58678476D02*
X219050331Y-58716571D01*
X219050331Y-58716571D02*
X219202712Y-58754667D01*
X219202712Y-58754667D02*
X219316998Y-58754667D01*
X219316998Y-58754667D02*
X219469379Y-58716571D01*
X219469379Y-58716571D02*
X219545569Y-58678476D01*
X219545569Y-58678476D02*
X219621760Y-58602286D01*
X219621760Y-58602286D02*
X219659855Y-58488000D01*
X219659855Y-58488000D02*
X219659855Y-58297524D01*
X218859855Y-51541333D02*
X219659855Y-51808000D01*
X219659855Y-51808000D02*
X218859855Y-52074666D01*
X219583664Y-52798476D02*
X219621760Y-52760380D01*
X219621760Y-52760380D02*
X219659855Y-52646095D01*
X219659855Y-52646095D02*
X219659855Y-52569904D01*
X219659855Y-52569904D02*
X219621760Y-52455618D01*
X219621760Y-52455618D02*
X219545569Y-52379428D01*
X219545569Y-52379428D02*
X219469379Y-52341333D01*
X219469379Y-52341333D02*
X219316998Y-52303237D01*
X219316998Y-52303237D02*
X219202712Y-52303237D01*
X219202712Y-52303237D02*
X219050331Y-52341333D01*
X219050331Y-52341333D02*
X218974140Y-52379428D01*
X218974140Y-52379428D02*
X218897950Y-52455618D01*
X218897950Y-52455618D02*
X218859855Y-52569904D01*
X218859855Y-52569904D02*
X218859855Y-52646095D01*
X218859855Y-52646095D02*
X218897950Y-52760380D01*
X218897950Y-52760380D02*
X218936045Y-52798476D01*
X219583664Y-53598476D02*
X219621760Y-53560380D01*
X219621760Y-53560380D02*
X219659855Y-53446095D01*
X219659855Y-53446095D02*
X219659855Y-53369904D01*
X219659855Y-53369904D02*
X219621760Y-53255618D01*
X219621760Y-53255618D02*
X219545569Y-53179428D01*
X219545569Y-53179428D02*
X219469379Y-53141333D01*
X219469379Y-53141333D02*
X219316998Y-53103237D01*
X219316998Y-53103237D02*
X219202712Y-53103237D01*
X219202712Y-53103237D02*
X219050331Y-53141333D01*
X219050331Y-53141333D02*
X218974140Y-53179428D01*
X218974140Y-53179428D02*
X218897950Y-53255618D01*
X218897950Y-53255618D02*
X218859855Y-53369904D01*
X218859855Y-53369904D02*
X218859855Y-53446095D01*
X218859855Y-53446095D02*
X218897950Y-53560380D01*
X218897950Y-53560380D02*
X218936045Y-53598476D01*
%TO.C,J3*%
X141031428Y-69020133D02*
X140650475Y-69020133D01*
X141107618Y-69248705D02*
X140840951Y-68448705D01*
X140840951Y-68448705D02*
X140574285Y-69248705D01*
X140345714Y-68524895D02*
X140307618Y-68486800D01*
X140307618Y-68486800D02*
X140231428Y-68448705D01*
X140231428Y-68448705D02*
X140040952Y-68448705D01*
X140040952Y-68448705D02*
X139964761Y-68486800D01*
X139964761Y-68486800D02*
X139926666Y-68524895D01*
X139926666Y-68524895D02*
X139888571Y-68601086D01*
X139888571Y-68601086D02*
X139888571Y-68677276D01*
X139888571Y-68677276D02*
X139926666Y-68791562D01*
X139926666Y-68791562D02*
X140383809Y-69248705D01*
X140383809Y-69248705D02*
X139888571Y-69248705D01*
X143609523Y-68486800D02*
X143685713Y-68448705D01*
X143685713Y-68448705D02*
X143799999Y-68448705D01*
X143799999Y-68448705D02*
X143914285Y-68486800D01*
X143914285Y-68486800D02*
X143990475Y-68562990D01*
X143990475Y-68562990D02*
X144028570Y-68639181D01*
X144028570Y-68639181D02*
X144066666Y-68791562D01*
X144066666Y-68791562D02*
X144066666Y-68905848D01*
X144066666Y-68905848D02*
X144028570Y-69058229D01*
X144028570Y-69058229D02*
X143990475Y-69134419D01*
X143990475Y-69134419D02*
X143914285Y-69210610D01*
X143914285Y-69210610D02*
X143799999Y-69248705D01*
X143799999Y-69248705D02*
X143723808Y-69248705D01*
X143723808Y-69248705D02*
X143609523Y-69210610D01*
X143609523Y-69210610D02*
X143571427Y-69172514D01*
X143571427Y-69172514D02*
X143571427Y-68905848D01*
X143571427Y-68905848D02*
X143723808Y-68905848D01*
X143228570Y-69248705D02*
X143228570Y-68448705D01*
X143228570Y-68448705D02*
X142771427Y-69248705D01*
X142771427Y-69248705D02*
X142771427Y-68448705D01*
X142390475Y-69248705D02*
X142390475Y-68448705D01*
X142390475Y-68448705D02*
X142199999Y-68448705D01*
X142199999Y-68448705D02*
X142085713Y-68486800D01*
X142085713Y-68486800D02*
X142009523Y-68562990D01*
X142009523Y-68562990D02*
X141971428Y-68639181D01*
X141971428Y-68639181D02*
X141933332Y-68791562D01*
X141933332Y-68791562D02*
X141933332Y-68905848D01*
X141933332Y-68905848D02*
X141971428Y-69058229D01*
X141971428Y-69058229D02*
X142009523Y-69134419D01*
X142009523Y-69134419D02*
X142085713Y-69210610D01*
X142085713Y-69210610D02*
X142199999Y-69248705D01*
X142199999Y-69248705D02*
X142390475Y-69248705D01*
X145863809Y-68829657D02*
X145749523Y-68867752D01*
X145749523Y-68867752D02*
X145711428Y-68905848D01*
X145711428Y-68905848D02*
X145673332Y-68982038D01*
X145673332Y-68982038D02*
X145673332Y-69096324D01*
X145673332Y-69096324D02*
X145711428Y-69172514D01*
X145711428Y-69172514D02*
X145749523Y-69210610D01*
X145749523Y-69210610D02*
X145825713Y-69248705D01*
X145825713Y-69248705D02*
X146130475Y-69248705D01*
X146130475Y-69248705D02*
X146130475Y-68448705D01*
X146130475Y-68448705D02*
X145863809Y-68448705D01*
X145863809Y-68448705D02*
X145787618Y-68486800D01*
X145787618Y-68486800D02*
X145749523Y-68524895D01*
X145749523Y-68524895D02*
X145711428Y-68601086D01*
X145711428Y-68601086D02*
X145711428Y-68677276D01*
X145711428Y-68677276D02*
X145749523Y-68753467D01*
X145749523Y-68753467D02*
X145787618Y-68791562D01*
X145787618Y-68791562D02*
X145863809Y-68829657D01*
X145863809Y-68829657D02*
X146130475Y-68829657D01*
X145368571Y-68524895D02*
X145330475Y-68486800D01*
X145330475Y-68486800D02*
X145254285Y-68448705D01*
X145254285Y-68448705D02*
X145063809Y-68448705D01*
X145063809Y-68448705D02*
X144987618Y-68486800D01*
X144987618Y-68486800D02*
X144949523Y-68524895D01*
X144949523Y-68524895D02*
X144911428Y-68601086D01*
X144911428Y-68601086D02*
X144911428Y-68677276D01*
X144911428Y-68677276D02*
X144949523Y-68791562D01*
X144949523Y-68791562D02*
X145406666Y-69248705D01*
X145406666Y-69248705D02*
X144911428Y-69248705D01*
%TO.C,J7*%
X143649524Y-81620610D02*
X143535238Y-81658705D01*
X143535238Y-81658705D02*
X143344762Y-81658705D01*
X143344762Y-81658705D02*
X143268571Y-81620610D01*
X143268571Y-81620610D02*
X143230476Y-81582514D01*
X143230476Y-81582514D02*
X143192381Y-81506324D01*
X143192381Y-81506324D02*
X143192381Y-81430133D01*
X143192381Y-81430133D02*
X143230476Y-81353943D01*
X143230476Y-81353943D02*
X143268571Y-81315848D01*
X143268571Y-81315848D02*
X143344762Y-81277752D01*
X143344762Y-81277752D02*
X143497143Y-81239657D01*
X143497143Y-81239657D02*
X143573333Y-81201562D01*
X143573333Y-81201562D02*
X143611428Y-81163467D01*
X143611428Y-81163467D02*
X143649524Y-81087276D01*
X143649524Y-81087276D02*
X143649524Y-81011086D01*
X143649524Y-81011086D02*
X143611428Y-80934895D01*
X143611428Y-80934895D02*
X143573333Y-80896800D01*
X143573333Y-80896800D02*
X143497143Y-80858705D01*
X143497143Y-80858705D02*
X143306666Y-80858705D01*
X143306666Y-80858705D02*
X143192381Y-80896800D01*
X142430476Y-81658705D02*
X142887619Y-81658705D01*
X142659047Y-81658705D02*
X142659047Y-80858705D01*
X142659047Y-80858705D02*
X142735238Y-80972990D01*
X142735238Y-80972990D02*
X142811428Y-81049181D01*
X142811428Y-81049181D02*
X142887619Y-81087276D01*
X146189523Y-80896800D02*
X146265713Y-80858705D01*
X146265713Y-80858705D02*
X146379999Y-80858705D01*
X146379999Y-80858705D02*
X146494285Y-80896800D01*
X146494285Y-80896800D02*
X146570475Y-80972990D01*
X146570475Y-80972990D02*
X146608570Y-81049181D01*
X146608570Y-81049181D02*
X146646666Y-81201562D01*
X146646666Y-81201562D02*
X146646666Y-81315848D01*
X146646666Y-81315848D02*
X146608570Y-81468229D01*
X146608570Y-81468229D02*
X146570475Y-81544419D01*
X146570475Y-81544419D02*
X146494285Y-81620610D01*
X146494285Y-81620610D02*
X146379999Y-81658705D01*
X146379999Y-81658705D02*
X146303808Y-81658705D01*
X146303808Y-81658705D02*
X146189523Y-81620610D01*
X146189523Y-81620610D02*
X146151427Y-81582514D01*
X146151427Y-81582514D02*
X146151427Y-81315848D01*
X146151427Y-81315848D02*
X146303808Y-81315848D01*
X145808570Y-81658705D02*
X145808570Y-80858705D01*
X145808570Y-80858705D02*
X145351427Y-81658705D01*
X145351427Y-81658705D02*
X145351427Y-80858705D01*
X144970475Y-81658705D02*
X144970475Y-80858705D01*
X144970475Y-80858705D02*
X144779999Y-80858705D01*
X144779999Y-80858705D02*
X144665713Y-80896800D01*
X144665713Y-80896800D02*
X144589523Y-80972990D01*
X144589523Y-80972990D02*
X144551428Y-81049181D01*
X144551428Y-81049181D02*
X144513332Y-81201562D01*
X144513332Y-81201562D02*
X144513332Y-81315848D01*
X144513332Y-81315848D02*
X144551428Y-81468229D01*
X144551428Y-81468229D02*
X144589523Y-81544419D01*
X144589523Y-81544419D02*
X144665713Y-81620610D01*
X144665713Y-81620610D02*
X144779999Y-81658705D01*
X144779999Y-81658705D02*
X144970475Y-81658705D01*
X141566666Y-80858705D02*
X141299999Y-81658705D01*
X141299999Y-81658705D02*
X141033333Y-80858705D01*
X140309523Y-81582514D02*
X140347619Y-81620610D01*
X140347619Y-81620610D02*
X140461904Y-81658705D01*
X140461904Y-81658705D02*
X140538095Y-81658705D01*
X140538095Y-81658705D02*
X140652381Y-81620610D01*
X140652381Y-81620610D02*
X140728571Y-81544419D01*
X140728571Y-81544419D02*
X140766666Y-81468229D01*
X140766666Y-81468229D02*
X140804762Y-81315848D01*
X140804762Y-81315848D02*
X140804762Y-81201562D01*
X140804762Y-81201562D02*
X140766666Y-81049181D01*
X140766666Y-81049181D02*
X140728571Y-80972990D01*
X140728571Y-80972990D02*
X140652381Y-80896800D01*
X140652381Y-80896800D02*
X140538095Y-80858705D01*
X140538095Y-80858705D02*
X140461904Y-80858705D01*
X140461904Y-80858705D02*
X140347619Y-80896800D01*
X140347619Y-80896800D02*
X140309523Y-80934895D01*
X139509523Y-81582514D02*
X139547619Y-81620610D01*
X139547619Y-81620610D02*
X139661904Y-81658705D01*
X139661904Y-81658705D02*
X139738095Y-81658705D01*
X139738095Y-81658705D02*
X139852381Y-81620610D01*
X139852381Y-81620610D02*
X139928571Y-81544419D01*
X139928571Y-81544419D02*
X139966666Y-81468229D01*
X139966666Y-81468229D02*
X140004762Y-81315848D01*
X140004762Y-81315848D02*
X140004762Y-81201562D01*
X140004762Y-81201562D02*
X139966666Y-81049181D01*
X139966666Y-81049181D02*
X139928571Y-80972990D01*
X139928571Y-80972990D02*
X139852381Y-80896800D01*
X139852381Y-80896800D02*
X139738095Y-80858705D01*
X139738095Y-80858705D02*
X139661904Y-80858705D01*
X139661904Y-80858705D02*
X139547619Y-80896800D01*
X139547619Y-80896800D02*
X139509523Y-80934895D01*
%TO.C,J28*%
X102614855Y-63246619D02*
X102233902Y-62979952D01*
X102614855Y-62789476D02*
X101814855Y-62789476D01*
X101814855Y-62789476D02*
X101814855Y-63094238D01*
X101814855Y-63094238D02*
X101852950Y-63170428D01*
X101852950Y-63170428D02*
X101891045Y-63208523D01*
X101891045Y-63208523D02*
X101967236Y-63246619D01*
X101967236Y-63246619D02*
X102081521Y-63246619D01*
X102081521Y-63246619D02*
X102157712Y-63208523D01*
X102157712Y-63208523D02*
X102195807Y-63170428D01*
X102195807Y-63170428D02*
X102233902Y-63094238D01*
X102233902Y-63094238D02*
X102233902Y-62789476D01*
%TO.C,J26*%
X99663857Y-65963807D02*
X99549571Y-66001902D01*
X99549571Y-66001902D02*
X99511476Y-66039998D01*
X99511476Y-66039998D02*
X99473380Y-66116188D01*
X99473380Y-66116188D02*
X99473380Y-66230474D01*
X99473380Y-66230474D02*
X99511476Y-66306664D01*
X99511476Y-66306664D02*
X99549571Y-66344760D01*
X99549571Y-66344760D02*
X99625761Y-66382855D01*
X99625761Y-66382855D02*
X99930523Y-66382855D01*
X99930523Y-66382855D02*
X99930523Y-65582855D01*
X99930523Y-65582855D02*
X99663857Y-65582855D01*
X99663857Y-65582855D02*
X99587666Y-65620950D01*
X99587666Y-65620950D02*
X99549571Y-65659045D01*
X99549571Y-65659045D02*
X99511476Y-65735236D01*
X99511476Y-65735236D02*
X99511476Y-65811426D01*
X99511476Y-65811426D02*
X99549571Y-65887617D01*
X99549571Y-65887617D02*
X99587666Y-65925712D01*
X99587666Y-65925712D02*
X99663857Y-65963807D01*
X99663857Y-65963807D02*
X99930523Y-65963807D01*
X97790523Y-65620950D02*
X97866713Y-65582855D01*
X97866713Y-65582855D02*
X97980999Y-65582855D01*
X97980999Y-65582855D02*
X98095285Y-65620950D01*
X98095285Y-65620950D02*
X98171475Y-65697140D01*
X98171475Y-65697140D02*
X98209570Y-65773331D01*
X98209570Y-65773331D02*
X98247666Y-65925712D01*
X98247666Y-65925712D02*
X98247666Y-66039998D01*
X98247666Y-66039998D02*
X98209570Y-66192379D01*
X98209570Y-66192379D02*
X98171475Y-66268569D01*
X98171475Y-66268569D02*
X98095285Y-66344760D01*
X98095285Y-66344760D02*
X97980999Y-66382855D01*
X97980999Y-66382855D02*
X97904808Y-66382855D01*
X97904808Y-66382855D02*
X97790523Y-66344760D01*
X97790523Y-66344760D02*
X97752427Y-66306664D01*
X97752427Y-66306664D02*
X97752427Y-66039998D01*
X97752427Y-66039998D02*
X97904808Y-66039998D01*
X97409570Y-66382855D02*
X97409570Y-65582855D01*
X97409570Y-65582855D02*
X96952427Y-66382855D01*
X96952427Y-66382855D02*
X96952427Y-65582855D01*
X96571475Y-66382855D02*
X96571475Y-65582855D01*
X96571475Y-65582855D02*
X96380999Y-65582855D01*
X96380999Y-65582855D02*
X96266713Y-65620950D01*
X96266713Y-65620950D02*
X96190523Y-65697140D01*
X96190523Y-65697140D02*
X96152428Y-65773331D01*
X96152428Y-65773331D02*
X96114332Y-65925712D01*
X96114332Y-65925712D02*
X96114332Y-66039998D01*
X96114332Y-66039998D02*
X96152428Y-66192379D01*
X96152428Y-66192379D02*
X96190523Y-66268569D01*
X96190523Y-66268569D02*
X96266713Y-66344760D01*
X96266713Y-66344760D02*
X96380999Y-66382855D01*
X96380999Y-66382855D02*
X96571475Y-66382855D01*
X94831476Y-66154283D02*
X94450523Y-66154283D01*
X94907666Y-66382855D02*
X94640999Y-65582855D01*
X94640999Y-65582855D02*
X94374333Y-66382855D01*
%TO.C,J5*%
X199802380Y-56578705D02*
X200069047Y-56197752D01*
X200259523Y-56578705D02*
X200259523Y-55778705D01*
X200259523Y-55778705D02*
X199954761Y-55778705D01*
X199954761Y-55778705D02*
X199878571Y-55816800D01*
X199878571Y-55816800D02*
X199840476Y-55854895D01*
X199840476Y-55854895D02*
X199802380Y-55931086D01*
X199802380Y-55931086D02*
X199802380Y-56045371D01*
X199802380Y-56045371D02*
X199840476Y-56121562D01*
X199840476Y-56121562D02*
X199878571Y-56159657D01*
X199878571Y-56159657D02*
X199954761Y-56197752D01*
X199954761Y-56197752D02*
X200259523Y-56197752D01*
%TO.C,J15*%
X143689523Y-72626800D02*
X143765713Y-72588705D01*
X143765713Y-72588705D02*
X143879999Y-72588705D01*
X143879999Y-72588705D02*
X143994285Y-72626800D01*
X143994285Y-72626800D02*
X144070475Y-72702990D01*
X144070475Y-72702990D02*
X144108570Y-72779181D01*
X144108570Y-72779181D02*
X144146666Y-72931562D01*
X144146666Y-72931562D02*
X144146666Y-73045848D01*
X144146666Y-73045848D02*
X144108570Y-73198229D01*
X144108570Y-73198229D02*
X144070475Y-73274419D01*
X144070475Y-73274419D02*
X143994285Y-73350610D01*
X143994285Y-73350610D02*
X143879999Y-73388705D01*
X143879999Y-73388705D02*
X143803808Y-73388705D01*
X143803808Y-73388705D02*
X143689523Y-73350610D01*
X143689523Y-73350610D02*
X143651427Y-73312514D01*
X143651427Y-73312514D02*
X143651427Y-73045848D01*
X143651427Y-73045848D02*
X143803808Y-73045848D01*
X143308570Y-73388705D02*
X143308570Y-72588705D01*
X143308570Y-72588705D02*
X142851427Y-73388705D01*
X142851427Y-73388705D02*
X142851427Y-72588705D01*
X142470475Y-73388705D02*
X142470475Y-72588705D01*
X142470475Y-72588705D02*
X142279999Y-72588705D01*
X142279999Y-72588705D02*
X142165713Y-72626800D01*
X142165713Y-72626800D02*
X142089523Y-72702990D01*
X142089523Y-72702990D02*
X142051428Y-72779181D01*
X142051428Y-72779181D02*
X142013332Y-72931562D01*
X142013332Y-72931562D02*
X142013332Y-73045848D01*
X142013332Y-73045848D02*
X142051428Y-73198229D01*
X142051428Y-73198229D02*
X142089523Y-73274419D01*
X142089523Y-73274419D02*
X142165713Y-73350610D01*
X142165713Y-73350610D02*
X142279999Y-73388705D01*
X142279999Y-73388705D02*
X142470475Y-73388705D01*
X145943809Y-72969657D02*
X145829523Y-73007752D01*
X145829523Y-73007752D02*
X145791428Y-73045848D01*
X145791428Y-73045848D02*
X145753332Y-73122038D01*
X145753332Y-73122038D02*
X145753332Y-73236324D01*
X145753332Y-73236324D02*
X145791428Y-73312514D01*
X145791428Y-73312514D02*
X145829523Y-73350610D01*
X145829523Y-73350610D02*
X145905713Y-73388705D01*
X145905713Y-73388705D02*
X146210475Y-73388705D01*
X146210475Y-73388705D02*
X146210475Y-72588705D01*
X146210475Y-72588705D02*
X145943809Y-72588705D01*
X145943809Y-72588705D02*
X145867618Y-72626800D01*
X145867618Y-72626800D02*
X145829523Y-72664895D01*
X145829523Y-72664895D02*
X145791428Y-72741086D01*
X145791428Y-72741086D02*
X145791428Y-72817276D01*
X145791428Y-72817276D02*
X145829523Y-72893467D01*
X145829523Y-72893467D02*
X145867618Y-72931562D01*
X145867618Y-72931562D02*
X145943809Y-72969657D01*
X145943809Y-72969657D02*
X146210475Y-72969657D01*
X144991428Y-73388705D02*
X145448571Y-73388705D01*
X145219999Y-73388705D02*
X145219999Y-72588705D01*
X145219999Y-72588705D02*
X145296190Y-72702990D01*
X145296190Y-72702990D02*
X145372380Y-72779181D01*
X145372380Y-72779181D02*
X145448571Y-72817276D01*
X141111428Y-73160133D02*
X140730475Y-73160133D01*
X141187618Y-73388705D02*
X140920951Y-72588705D01*
X140920951Y-72588705D02*
X140654285Y-73388705D01*
X139968571Y-73388705D02*
X140425714Y-73388705D01*
X140197142Y-73388705D02*
X140197142Y-72588705D01*
X140197142Y-72588705D02*
X140273333Y-72702990D01*
X140273333Y-72702990D02*
X140349523Y-72779181D01*
X140349523Y-72779181D02*
X140425714Y-72817276D01*
%TO.C,J8*%
X170605582Y-59533124D02*
X170605582Y-59914077D01*
X170834154Y-59456934D02*
X170034154Y-59723601D01*
X170034154Y-59723601D02*
X170834154Y-59990267D01*
X170110344Y-60218838D02*
X170072249Y-60256934D01*
X170072249Y-60256934D02*
X170034154Y-60333124D01*
X170034154Y-60333124D02*
X170034154Y-60523600D01*
X170034154Y-60523600D02*
X170072249Y-60599791D01*
X170072249Y-60599791D02*
X170110344Y-60637886D01*
X170110344Y-60637886D02*
X170186535Y-60675981D01*
X170186535Y-60675981D02*
X170262725Y-60675981D01*
X170262725Y-60675981D02*
X170377011Y-60637886D01*
X170377011Y-60637886D02*
X170834154Y-60180743D01*
X170834154Y-60180743D02*
X170834154Y-60675981D01*
X170415106Y-62320743D02*
X170453201Y-62435029D01*
X170453201Y-62435029D02*
X170491297Y-62473124D01*
X170491297Y-62473124D02*
X170567487Y-62511220D01*
X170567487Y-62511220D02*
X170681773Y-62511220D01*
X170681773Y-62511220D02*
X170757963Y-62473124D01*
X170757963Y-62473124D02*
X170796059Y-62435029D01*
X170796059Y-62435029D02*
X170834154Y-62358839D01*
X170834154Y-62358839D02*
X170834154Y-62054077D01*
X170834154Y-62054077D02*
X170034154Y-62054077D01*
X170034154Y-62054077D02*
X170034154Y-62320743D01*
X170034154Y-62320743D02*
X170072249Y-62396934D01*
X170072249Y-62396934D02*
X170110344Y-62435029D01*
X170110344Y-62435029D02*
X170186535Y-62473124D01*
X170186535Y-62473124D02*
X170262725Y-62473124D01*
X170262725Y-62473124D02*
X170338916Y-62435029D01*
X170338916Y-62435029D02*
X170377011Y-62396934D01*
X170377011Y-62396934D02*
X170415106Y-62320743D01*
X170415106Y-62320743D02*
X170415106Y-62054077D01*
X170110344Y-62815981D02*
X170072249Y-62854077D01*
X170072249Y-62854077D02*
X170034154Y-62930267D01*
X170034154Y-62930267D02*
X170034154Y-63120743D01*
X170034154Y-63120743D02*
X170072249Y-63196934D01*
X170072249Y-63196934D02*
X170110344Y-63235029D01*
X170110344Y-63235029D02*
X170186535Y-63273124D01*
X170186535Y-63273124D02*
X170262725Y-63273124D01*
X170262725Y-63273124D02*
X170377011Y-63235029D01*
X170377011Y-63235029D02*
X170834154Y-62777886D01*
X170834154Y-62777886D02*
X170834154Y-63273124D01*
X170415106Y-57240743D02*
X170453201Y-57355029D01*
X170453201Y-57355029D02*
X170491297Y-57393124D01*
X170491297Y-57393124D02*
X170567487Y-57431220D01*
X170567487Y-57431220D02*
X170681773Y-57431220D01*
X170681773Y-57431220D02*
X170757963Y-57393124D01*
X170757963Y-57393124D02*
X170796059Y-57355029D01*
X170796059Y-57355029D02*
X170834154Y-57278839D01*
X170834154Y-57278839D02*
X170834154Y-56974077D01*
X170834154Y-56974077D02*
X170034154Y-56974077D01*
X170034154Y-56974077D02*
X170034154Y-57240743D01*
X170034154Y-57240743D02*
X170072249Y-57316934D01*
X170072249Y-57316934D02*
X170110344Y-57355029D01*
X170110344Y-57355029D02*
X170186535Y-57393124D01*
X170186535Y-57393124D02*
X170262725Y-57393124D01*
X170262725Y-57393124D02*
X170338916Y-57355029D01*
X170338916Y-57355029D02*
X170377011Y-57316934D01*
X170377011Y-57316934D02*
X170415106Y-57240743D01*
X170415106Y-57240743D02*
X170415106Y-56974077D01*
X170834154Y-58193124D02*
X170834154Y-57735981D01*
X170834154Y-57964553D02*
X170034154Y-57964553D01*
X170034154Y-57964553D02*
X170148439Y-57888362D01*
X170148439Y-57888362D02*
X170224630Y-57812172D01*
X170224630Y-57812172D02*
X170262725Y-57735981D01*
X170796059Y-51875028D02*
X170834154Y-51989314D01*
X170834154Y-51989314D02*
X170834154Y-52179790D01*
X170834154Y-52179790D02*
X170796059Y-52255981D01*
X170796059Y-52255981D02*
X170757963Y-52294076D01*
X170757963Y-52294076D02*
X170681773Y-52332171D01*
X170681773Y-52332171D02*
X170605582Y-52332171D01*
X170605582Y-52332171D02*
X170529392Y-52294076D01*
X170529392Y-52294076D02*
X170491297Y-52255981D01*
X170491297Y-52255981D02*
X170453201Y-52179790D01*
X170453201Y-52179790D02*
X170415106Y-52027409D01*
X170415106Y-52027409D02*
X170377011Y-51951219D01*
X170377011Y-51951219D02*
X170338916Y-51913124D01*
X170338916Y-51913124D02*
X170262725Y-51875028D01*
X170262725Y-51875028D02*
X170186535Y-51875028D01*
X170186535Y-51875028D02*
X170110344Y-51913124D01*
X170110344Y-51913124D02*
X170072249Y-51951219D01*
X170072249Y-51951219D02*
X170034154Y-52027409D01*
X170034154Y-52027409D02*
X170034154Y-52217886D01*
X170034154Y-52217886D02*
X170072249Y-52332171D01*
X170834154Y-53094076D02*
X170834154Y-52636933D01*
X170834154Y-52865505D02*
X170034154Y-52865505D01*
X170034154Y-52865505D02*
X170148439Y-52789314D01*
X170148439Y-52789314D02*
X170224630Y-52713124D01*
X170224630Y-52713124D02*
X170262725Y-52636933D01*
X170605582Y-54453124D02*
X170605582Y-54834077D01*
X170834154Y-54376934D02*
X170034154Y-54643601D01*
X170034154Y-54643601D02*
X170834154Y-54910267D01*
X170834154Y-55595981D02*
X170834154Y-55138838D01*
X170834154Y-55367410D02*
X170034154Y-55367410D01*
X170034154Y-55367410D02*
X170148439Y-55291219D01*
X170148439Y-55291219D02*
X170224630Y-55215029D01*
X170224630Y-55215029D02*
X170262725Y-55138838D01*
%TO.C,U1*%
X111677855Y-60640994D02*
X111296903Y-60640994D01*
X111296903Y-60640994D02*
X111296903Y-61440994D01*
X127027855Y-60640994D02*
X126761188Y-61021947D01*
X126570712Y-60640994D02*
X126570712Y-61440994D01*
X126570712Y-61440994D02*
X126875474Y-61440994D01*
X126875474Y-61440994D02*
X126951664Y-61402899D01*
X126951664Y-61402899D02*
X126989759Y-61364804D01*
X126989759Y-61364804D02*
X127027855Y-61288613D01*
X127027855Y-61288613D02*
X127027855Y-61174328D01*
X127027855Y-61174328D02*
X126989759Y-61098137D01*
X126989759Y-61098137D02*
X126951664Y-61060042D01*
X126951664Y-61060042D02*
X126875474Y-61021947D01*
X126875474Y-61021947D02*
X126570712Y-61021947D01*
%TO.C,J2*%
X163949822Y-56666503D02*
X164026012Y-56628408D01*
X164026012Y-56628408D02*
X164140298Y-56628408D01*
X164140298Y-56628408D02*
X164254584Y-56666503D01*
X164254584Y-56666503D02*
X164330774Y-56742693D01*
X164330774Y-56742693D02*
X164368869Y-56818884D01*
X164368869Y-56818884D02*
X164406965Y-56971265D01*
X164406965Y-56971265D02*
X164406965Y-57085551D01*
X164406965Y-57085551D02*
X164368869Y-57237932D01*
X164368869Y-57237932D02*
X164330774Y-57314122D01*
X164330774Y-57314122D02*
X164254584Y-57390313D01*
X164254584Y-57390313D02*
X164140298Y-57428408D01*
X164140298Y-57428408D02*
X164064107Y-57428408D01*
X164064107Y-57428408D02*
X163949822Y-57390313D01*
X163949822Y-57390313D02*
X163911726Y-57352217D01*
X163911726Y-57352217D02*
X163911726Y-57085551D01*
X163911726Y-57085551D02*
X164064107Y-57085551D01*
X163568869Y-57428408D02*
X163568869Y-56628408D01*
X163568869Y-56628408D02*
X163111726Y-57428408D01*
X163111726Y-57428408D02*
X163111726Y-56628408D01*
X162730774Y-57428408D02*
X162730774Y-56628408D01*
X162730774Y-56628408D02*
X162540298Y-56628408D01*
X162540298Y-56628408D02*
X162426012Y-56666503D01*
X162426012Y-56666503D02*
X162349822Y-56742693D01*
X162349822Y-56742693D02*
X162311727Y-56818884D01*
X162311727Y-56818884D02*
X162273631Y-56971265D01*
X162273631Y-56971265D02*
X162273631Y-57085551D01*
X162273631Y-57085551D02*
X162311727Y-57237932D01*
X162311727Y-57237932D02*
X162349822Y-57314122D01*
X162349822Y-57314122D02*
X162426012Y-57390313D01*
X162426012Y-57390313D02*
X162540298Y-57428408D01*
X162540298Y-57428408D02*
X162730774Y-57428408D01*
X161866965Y-56628408D02*
X161600298Y-57428408D01*
X161600298Y-57428408D02*
X161333632Y-56628408D01*
X160609822Y-57352217D02*
X160647918Y-57390313D01*
X160647918Y-57390313D02*
X160762203Y-57428408D01*
X160762203Y-57428408D02*
X160838394Y-57428408D01*
X160838394Y-57428408D02*
X160952680Y-57390313D01*
X160952680Y-57390313D02*
X161028870Y-57314122D01*
X161028870Y-57314122D02*
X161066965Y-57237932D01*
X161066965Y-57237932D02*
X161105061Y-57085551D01*
X161105061Y-57085551D02*
X161105061Y-56971265D01*
X161105061Y-56971265D02*
X161066965Y-56818884D01*
X161066965Y-56818884D02*
X161028870Y-56742693D01*
X161028870Y-56742693D02*
X160952680Y-56666503D01*
X160952680Y-56666503D02*
X160838394Y-56628408D01*
X160838394Y-56628408D02*
X160762203Y-56628408D01*
X160762203Y-56628408D02*
X160647918Y-56666503D01*
X160647918Y-56666503D02*
X160609822Y-56704598D01*
X159809822Y-57352217D02*
X159847918Y-57390313D01*
X159847918Y-57390313D02*
X159962203Y-57428408D01*
X159962203Y-57428408D02*
X160038394Y-57428408D01*
X160038394Y-57428408D02*
X160152680Y-57390313D01*
X160152680Y-57390313D02*
X160228870Y-57314122D01*
X160228870Y-57314122D02*
X160266965Y-57237932D01*
X160266965Y-57237932D02*
X160305061Y-57085551D01*
X160305061Y-57085551D02*
X160305061Y-56971265D01*
X160305061Y-56971265D02*
X160266965Y-56818884D01*
X160266965Y-56818884D02*
X160228870Y-56742693D01*
X160228870Y-56742693D02*
X160152680Y-56666503D01*
X160152680Y-56666503D02*
X160038394Y-56628408D01*
X160038394Y-56628408D02*
X159962203Y-56628408D01*
X159962203Y-56628408D02*
X159847918Y-56666503D01*
X159847918Y-56666503D02*
X159809822Y-56704598D01*
%TO.C,J4*%
X133537855Y-87850994D02*
X133271188Y-88231947D01*
X133080712Y-87850994D02*
X133080712Y-88650994D01*
X133080712Y-88650994D02*
X133385474Y-88650994D01*
X133385474Y-88650994D02*
X133461664Y-88612899D01*
X133461664Y-88612899D02*
X133499759Y-88574804D01*
X133499759Y-88574804D02*
X133537855Y-88498613D01*
X133537855Y-88498613D02*
X133537855Y-88384328D01*
X133537855Y-88384328D02*
X133499759Y-88308137D01*
X133499759Y-88308137D02*
X133461664Y-88270042D01*
X133461664Y-88270042D02*
X133385474Y-88231947D01*
X133385474Y-88231947D02*
X133080712Y-88231947D01*
%TO.C,J14*%
X174483201Y-57564553D02*
X174864154Y-57564553D01*
X174064154Y-57297886D02*
X174483201Y-57564553D01*
X174483201Y-57564553D02*
X174064154Y-57831219D01*
X174826059Y-51875028D02*
X174864154Y-51989314D01*
X174864154Y-51989314D02*
X174864154Y-52179790D01*
X174864154Y-52179790D02*
X174826059Y-52255981D01*
X174826059Y-52255981D02*
X174787963Y-52294076D01*
X174787963Y-52294076D02*
X174711773Y-52332171D01*
X174711773Y-52332171D02*
X174635582Y-52332171D01*
X174635582Y-52332171D02*
X174559392Y-52294076D01*
X174559392Y-52294076D02*
X174521297Y-52255981D01*
X174521297Y-52255981D02*
X174483201Y-52179790D01*
X174483201Y-52179790D02*
X174445106Y-52027409D01*
X174445106Y-52027409D02*
X174407011Y-51951219D01*
X174407011Y-51951219D02*
X174368916Y-51913124D01*
X174368916Y-51913124D02*
X174292725Y-51875028D01*
X174292725Y-51875028D02*
X174216535Y-51875028D01*
X174216535Y-51875028D02*
X174140344Y-51913124D01*
X174140344Y-51913124D02*
X174102249Y-51951219D01*
X174102249Y-51951219D02*
X174064154Y-52027409D01*
X174064154Y-52027409D02*
X174064154Y-52217886D01*
X174064154Y-52217886D02*
X174102249Y-52332171D01*
X174140344Y-52636933D02*
X174102249Y-52675029D01*
X174102249Y-52675029D02*
X174064154Y-52751219D01*
X174064154Y-52751219D02*
X174064154Y-52941695D01*
X174064154Y-52941695D02*
X174102249Y-53017886D01*
X174102249Y-53017886D02*
X174140344Y-53055981D01*
X174140344Y-53055981D02*
X174216535Y-53094076D01*
X174216535Y-53094076D02*
X174292725Y-53094076D01*
X174292725Y-53094076D02*
X174407011Y-53055981D01*
X174407011Y-53055981D02*
X174864154Y-52598838D01*
X174864154Y-52598838D02*
X174864154Y-53094076D01*
X174826059Y-59152171D02*
X174864154Y-59266457D01*
X174864154Y-59266457D02*
X174864154Y-59456933D01*
X174864154Y-59456933D02*
X174826059Y-59533124D01*
X174826059Y-59533124D02*
X174787963Y-59571219D01*
X174787963Y-59571219D02*
X174711773Y-59609314D01*
X174711773Y-59609314D02*
X174635582Y-59609314D01*
X174635582Y-59609314D02*
X174559392Y-59571219D01*
X174559392Y-59571219D02*
X174521297Y-59533124D01*
X174521297Y-59533124D02*
X174483201Y-59456933D01*
X174483201Y-59456933D02*
X174445106Y-59304552D01*
X174445106Y-59304552D02*
X174407011Y-59228362D01*
X174407011Y-59228362D02*
X174368916Y-59190267D01*
X174368916Y-59190267D02*
X174292725Y-59152171D01*
X174292725Y-59152171D02*
X174216535Y-59152171D01*
X174216535Y-59152171D02*
X174140344Y-59190267D01*
X174140344Y-59190267D02*
X174102249Y-59228362D01*
X174102249Y-59228362D02*
X174064154Y-59304552D01*
X174064154Y-59304552D02*
X174064154Y-59495029D01*
X174064154Y-59495029D02*
X174102249Y-59609314D01*
X174787963Y-60409315D02*
X174826059Y-60371219D01*
X174826059Y-60371219D02*
X174864154Y-60256934D01*
X174864154Y-60256934D02*
X174864154Y-60180743D01*
X174864154Y-60180743D02*
X174826059Y-60066457D01*
X174826059Y-60066457D02*
X174749868Y-59990267D01*
X174749868Y-59990267D02*
X174673678Y-59952172D01*
X174673678Y-59952172D02*
X174521297Y-59914076D01*
X174521297Y-59914076D02*
X174407011Y-59914076D01*
X174407011Y-59914076D02*
X174254630Y-59952172D01*
X174254630Y-59952172D02*
X174178439Y-59990267D01*
X174178439Y-59990267D02*
X174102249Y-60066457D01*
X174102249Y-60066457D02*
X174064154Y-60180743D01*
X174064154Y-60180743D02*
X174064154Y-60256934D01*
X174064154Y-60256934D02*
X174102249Y-60371219D01*
X174102249Y-60371219D02*
X174140344Y-60409315D01*
X174864154Y-61133124D02*
X174864154Y-60752172D01*
X174864154Y-60752172D02*
X174064154Y-60752172D01*
X174826059Y-61673124D02*
X174864154Y-61787410D01*
X174864154Y-61787410D02*
X174864154Y-61977886D01*
X174864154Y-61977886D02*
X174826059Y-62054077D01*
X174826059Y-62054077D02*
X174787963Y-62092172D01*
X174787963Y-62092172D02*
X174711773Y-62130267D01*
X174711773Y-62130267D02*
X174635582Y-62130267D01*
X174635582Y-62130267D02*
X174559392Y-62092172D01*
X174559392Y-62092172D02*
X174521297Y-62054077D01*
X174521297Y-62054077D02*
X174483201Y-61977886D01*
X174483201Y-61977886D02*
X174445106Y-61825505D01*
X174445106Y-61825505D02*
X174407011Y-61749315D01*
X174407011Y-61749315D02*
X174368916Y-61711220D01*
X174368916Y-61711220D02*
X174292725Y-61673124D01*
X174292725Y-61673124D02*
X174216535Y-61673124D01*
X174216535Y-61673124D02*
X174140344Y-61711220D01*
X174140344Y-61711220D02*
X174102249Y-61749315D01*
X174102249Y-61749315D02*
X174064154Y-61825505D01*
X174064154Y-61825505D02*
X174064154Y-62015982D01*
X174064154Y-62015982D02*
X174102249Y-62130267D01*
X174864154Y-62473125D02*
X174064154Y-62473125D01*
X174064154Y-62473125D02*
X174064154Y-62663601D01*
X174064154Y-62663601D02*
X174102249Y-62777887D01*
X174102249Y-62777887D02*
X174178439Y-62854077D01*
X174178439Y-62854077D02*
X174254630Y-62892172D01*
X174254630Y-62892172D02*
X174407011Y-62930268D01*
X174407011Y-62930268D02*
X174521297Y-62930268D01*
X174521297Y-62930268D02*
X174673678Y-62892172D01*
X174673678Y-62892172D02*
X174749868Y-62854077D01*
X174749868Y-62854077D02*
X174826059Y-62777887D01*
X174826059Y-62777887D02*
X174864154Y-62663601D01*
X174864154Y-62663601D02*
X174864154Y-62473125D01*
X174635582Y-63235029D02*
X174635582Y-63615982D01*
X174864154Y-63158839D02*
X174064154Y-63425506D01*
X174064154Y-63425506D02*
X174864154Y-63692172D01*
X174064154Y-54757886D02*
X174864154Y-55291220D01*
X174064154Y-55291220D02*
X174864154Y-54757886D01*
%TO.C,J7*%
X163949823Y-62470313D02*
X163835537Y-62508408D01*
X163835537Y-62508408D02*
X163645061Y-62508408D01*
X163645061Y-62508408D02*
X163568870Y-62470313D01*
X163568870Y-62470313D02*
X163530775Y-62432217D01*
X163530775Y-62432217D02*
X163492680Y-62356027D01*
X163492680Y-62356027D02*
X163492680Y-62279836D01*
X163492680Y-62279836D02*
X163530775Y-62203646D01*
X163530775Y-62203646D02*
X163568870Y-62165551D01*
X163568870Y-62165551D02*
X163645061Y-62127455D01*
X163645061Y-62127455D02*
X163797442Y-62089360D01*
X163797442Y-62089360D02*
X163873632Y-62051265D01*
X163873632Y-62051265D02*
X163911727Y-62013170D01*
X163911727Y-62013170D02*
X163949823Y-61936979D01*
X163949823Y-61936979D02*
X163949823Y-61860789D01*
X163949823Y-61860789D02*
X163911727Y-61784598D01*
X163911727Y-61784598D02*
X163873632Y-61746503D01*
X163873632Y-61746503D02*
X163797442Y-61708408D01*
X163797442Y-61708408D02*
X163606965Y-61708408D01*
X163606965Y-61708408D02*
X163492680Y-61746503D01*
X162730775Y-62508408D02*
X163187918Y-62508408D01*
X162959346Y-62508408D02*
X162959346Y-61708408D01*
X162959346Y-61708408D02*
X163035537Y-61822693D01*
X163035537Y-61822693D02*
X163111727Y-61898884D01*
X163111727Y-61898884D02*
X163187918Y-61936979D01*
X161866965Y-61708408D02*
X161600298Y-62508408D01*
X161600298Y-62508408D02*
X161333632Y-61708408D01*
X160609822Y-62432217D02*
X160647918Y-62470313D01*
X160647918Y-62470313D02*
X160762203Y-62508408D01*
X160762203Y-62508408D02*
X160838394Y-62508408D01*
X160838394Y-62508408D02*
X160952680Y-62470313D01*
X160952680Y-62470313D02*
X161028870Y-62394122D01*
X161028870Y-62394122D02*
X161066965Y-62317932D01*
X161066965Y-62317932D02*
X161105061Y-62165551D01*
X161105061Y-62165551D02*
X161105061Y-62051265D01*
X161105061Y-62051265D02*
X161066965Y-61898884D01*
X161066965Y-61898884D02*
X161028870Y-61822693D01*
X161028870Y-61822693D02*
X160952680Y-61746503D01*
X160952680Y-61746503D02*
X160838394Y-61708408D01*
X160838394Y-61708408D02*
X160762203Y-61708408D01*
X160762203Y-61708408D02*
X160647918Y-61746503D01*
X160647918Y-61746503D02*
X160609822Y-61784598D01*
X159809822Y-62432217D02*
X159847918Y-62470313D01*
X159847918Y-62470313D02*
X159962203Y-62508408D01*
X159962203Y-62508408D02*
X160038394Y-62508408D01*
X160038394Y-62508408D02*
X160152680Y-62470313D01*
X160152680Y-62470313D02*
X160228870Y-62394122D01*
X160228870Y-62394122D02*
X160266965Y-62317932D01*
X160266965Y-62317932D02*
X160305061Y-62165551D01*
X160305061Y-62165551D02*
X160305061Y-62051265D01*
X160305061Y-62051265D02*
X160266965Y-61898884D01*
X160266965Y-61898884D02*
X160228870Y-61822693D01*
X160228870Y-61822693D02*
X160152680Y-61746503D01*
X160152680Y-61746503D02*
X160038394Y-61708408D01*
X160038394Y-61708408D02*
X159962203Y-61708408D01*
X159962203Y-61708408D02*
X159847918Y-61746503D01*
X159847918Y-61746503D02*
X159809822Y-61784598D01*
X166489822Y-61746503D02*
X166566012Y-61708408D01*
X166566012Y-61708408D02*
X166680298Y-61708408D01*
X166680298Y-61708408D02*
X166794584Y-61746503D01*
X166794584Y-61746503D02*
X166870774Y-61822693D01*
X166870774Y-61822693D02*
X166908869Y-61898884D01*
X166908869Y-61898884D02*
X166946965Y-62051265D01*
X166946965Y-62051265D02*
X166946965Y-62165551D01*
X166946965Y-62165551D02*
X166908869Y-62317932D01*
X166908869Y-62317932D02*
X166870774Y-62394122D01*
X166870774Y-62394122D02*
X166794584Y-62470313D01*
X166794584Y-62470313D02*
X166680298Y-62508408D01*
X166680298Y-62508408D02*
X166604107Y-62508408D01*
X166604107Y-62508408D02*
X166489822Y-62470313D01*
X166489822Y-62470313D02*
X166451726Y-62432217D01*
X166451726Y-62432217D02*
X166451726Y-62165551D01*
X166451726Y-62165551D02*
X166604107Y-62165551D01*
X166108869Y-62508408D02*
X166108869Y-61708408D01*
X166108869Y-61708408D02*
X165651726Y-62508408D01*
X165651726Y-62508408D02*
X165651726Y-61708408D01*
X165270774Y-62508408D02*
X165270774Y-61708408D01*
X165270774Y-61708408D02*
X165080298Y-61708408D01*
X165080298Y-61708408D02*
X164966012Y-61746503D01*
X164966012Y-61746503D02*
X164889822Y-61822693D01*
X164889822Y-61822693D02*
X164851727Y-61898884D01*
X164851727Y-61898884D02*
X164813631Y-62051265D01*
X164813631Y-62051265D02*
X164813631Y-62165551D01*
X164813631Y-62165551D02*
X164851727Y-62317932D01*
X164851727Y-62317932D02*
X164889822Y-62394122D01*
X164889822Y-62394122D02*
X164966012Y-62470313D01*
X164966012Y-62470313D02*
X165080298Y-62508408D01*
X165080298Y-62508408D02*
X165270774Y-62508408D01*
%TO.C,J3*%
X161371727Y-74689836D02*
X160990774Y-74689836D01*
X161447917Y-74918408D02*
X161181250Y-74118408D01*
X161181250Y-74118408D02*
X160914584Y-74918408D01*
X160686013Y-74194598D02*
X160647917Y-74156503D01*
X160647917Y-74156503D02*
X160571727Y-74118408D01*
X160571727Y-74118408D02*
X160381251Y-74118408D01*
X160381251Y-74118408D02*
X160305060Y-74156503D01*
X160305060Y-74156503D02*
X160266965Y-74194598D01*
X160266965Y-74194598D02*
X160228870Y-74270789D01*
X160228870Y-74270789D02*
X160228870Y-74346979D01*
X160228870Y-74346979D02*
X160266965Y-74461265D01*
X160266965Y-74461265D02*
X160724108Y-74918408D01*
X160724108Y-74918408D02*
X160228870Y-74918408D01*
X166204108Y-74499360D02*
X166089822Y-74537455D01*
X166089822Y-74537455D02*
X166051727Y-74575551D01*
X166051727Y-74575551D02*
X166013631Y-74651741D01*
X166013631Y-74651741D02*
X166013631Y-74766027D01*
X166013631Y-74766027D02*
X166051727Y-74842217D01*
X166051727Y-74842217D02*
X166089822Y-74880313D01*
X166089822Y-74880313D02*
X166166012Y-74918408D01*
X166166012Y-74918408D02*
X166470774Y-74918408D01*
X166470774Y-74918408D02*
X166470774Y-74118408D01*
X166470774Y-74118408D02*
X166204108Y-74118408D01*
X166204108Y-74118408D02*
X166127917Y-74156503D01*
X166127917Y-74156503D02*
X166089822Y-74194598D01*
X166089822Y-74194598D02*
X166051727Y-74270789D01*
X166051727Y-74270789D02*
X166051727Y-74346979D01*
X166051727Y-74346979D02*
X166089822Y-74423170D01*
X166089822Y-74423170D02*
X166127917Y-74461265D01*
X166127917Y-74461265D02*
X166204108Y-74499360D01*
X166204108Y-74499360D02*
X166470774Y-74499360D01*
X165708870Y-74194598D02*
X165670774Y-74156503D01*
X165670774Y-74156503D02*
X165594584Y-74118408D01*
X165594584Y-74118408D02*
X165404108Y-74118408D01*
X165404108Y-74118408D02*
X165327917Y-74156503D01*
X165327917Y-74156503D02*
X165289822Y-74194598D01*
X165289822Y-74194598D02*
X165251727Y-74270789D01*
X165251727Y-74270789D02*
X165251727Y-74346979D01*
X165251727Y-74346979D02*
X165289822Y-74461265D01*
X165289822Y-74461265D02*
X165746965Y-74918408D01*
X165746965Y-74918408D02*
X165251727Y-74918408D01*
X163949822Y-74156503D02*
X164026012Y-74118408D01*
X164026012Y-74118408D02*
X164140298Y-74118408D01*
X164140298Y-74118408D02*
X164254584Y-74156503D01*
X164254584Y-74156503D02*
X164330774Y-74232693D01*
X164330774Y-74232693D02*
X164368869Y-74308884D01*
X164368869Y-74308884D02*
X164406965Y-74461265D01*
X164406965Y-74461265D02*
X164406965Y-74575551D01*
X164406965Y-74575551D02*
X164368869Y-74727932D01*
X164368869Y-74727932D02*
X164330774Y-74804122D01*
X164330774Y-74804122D02*
X164254584Y-74880313D01*
X164254584Y-74880313D02*
X164140298Y-74918408D01*
X164140298Y-74918408D02*
X164064107Y-74918408D01*
X164064107Y-74918408D02*
X163949822Y-74880313D01*
X163949822Y-74880313D02*
X163911726Y-74842217D01*
X163911726Y-74842217D02*
X163911726Y-74575551D01*
X163911726Y-74575551D02*
X164064107Y-74575551D01*
X163568869Y-74918408D02*
X163568869Y-74118408D01*
X163568869Y-74118408D02*
X163111726Y-74918408D01*
X163111726Y-74918408D02*
X163111726Y-74118408D01*
X162730774Y-74918408D02*
X162730774Y-74118408D01*
X162730774Y-74118408D02*
X162540298Y-74118408D01*
X162540298Y-74118408D02*
X162426012Y-74156503D01*
X162426012Y-74156503D02*
X162349822Y-74232693D01*
X162349822Y-74232693D02*
X162311727Y-74308884D01*
X162311727Y-74308884D02*
X162273631Y-74461265D01*
X162273631Y-74461265D02*
X162273631Y-74575551D01*
X162273631Y-74575551D02*
X162311727Y-74727932D01*
X162311727Y-74727932D02*
X162349822Y-74804122D01*
X162349822Y-74804122D02*
X162426012Y-74880313D01*
X162426012Y-74880313D02*
X162540298Y-74918408D01*
X162540298Y-74918408D02*
X162730774Y-74918408D01*
%TO.C,J13*%
X163949823Y-66600313D02*
X163835537Y-66638408D01*
X163835537Y-66638408D02*
X163645061Y-66638408D01*
X163645061Y-66638408D02*
X163568870Y-66600313D01*
X163568870Y-66600313D02*
X163530775Y-66562217D01*
X163530775Y-66562217D02*
X163492680Y-66486027D01*
X163492680Y-66486027D02*
X163492680Y-66409836D01*
X163492680Y-66409836D02*
X163530775Y-66333646D01*
X163530775Y-66333646D02*
X163568870Y-66295551D01*
X163568870Y-66295551D02*
X163645061Y-66257455D01*
X163645061Y-66257455D02*
X163797442Y-66219360D01*
X163797442Y-66219360D02*
X163873632Y-66181265D01*
X163873632Y-66181265D02*
X163911727Y-66143170D01*
X163911727Y-66143170D02*
X163949823Y-66066979D01*
X163949823Y-66066979D02*
X163949823Y-65990789D01*
X163949823Y-65990789D02*
X163911727Y-65914598D01*
X163911727Y-65914598D02*
X163873632Y-65876503D01*
X163873632Y-65876503D02*
X163797442Y-65838408D01*
X163797442Y-65838408D02*
X163606965Y-65838408D01*
X163606965Y-65838408D02*
X163492680Y-65876503D01*
X163187918Y-65914598D02*
X163149822Y-65876503D01*
X163149822Y-65876503D02*
X163073632Y-65838408D01*
X163073632Y-65838408D02*
X162883156Y-65838408D01*
X162883156Y-65838408D02*
X162806965Y-65876503D01*
X162806965Y-65876503D02*
X162768870Y-65914598D01*
X162768870Y-65914598D02*
X162730775Y-65990789D01*
X162730775Y-65990789D02*
X162730775Y-66066979D01*
X162730775Y-66066979D02*
X162768870Y-66181265D01*
X162768870Y-66181265D02*
X163226013Y-66638408D01*
X163226013Y-66638408D02*
X162730775Y-66638408D01*
X161866965Y-65838408D02*
X161600298Y-66638408D01*
X161600298Y-66638408D02*
X161333632Y-65838408D01*
X160609822Y-66562217D02*
X160647918Y-66600313D01*
X160647918Y-66600313D02*
X160762203Y-66638408D01*
X160762203Y-66638408D02*
X160838394Y-66638408D01*
X160838394Y-66638408D02*
X160952680Y-66600313D01*
X160952680Y-66600313D02*
X161028870Y-66524122D01*
X161028870Y-66524122D02*
X161066965Y-66447932D01*
X161066965Y-66447932D02*
X161105061Y-66295551D01*
X161105061Y-66295551D02*
X161105061Y-66181265D01*
X161105061Y-66181265D02*
X161066965Y-66028884D01*
X161066965Y-66028884D02*
X161028870Y-65952693D01*
X161028870Y-65952693D02*
X160952680Y-65876503D01*
X160952680Y-65876503D02*
X160838394Y-65838408D01*
X160838394Y-65838408D02*
X160762203Y-65838408D01*
X160762203Y-65838408D02*
X160647918Y-65876503D01*
X160647918Y-65876503D02*
X160609822Y-65914598D01*
X159809822Y-66562217D02*
X159847918Y-66600313D01*
X159847918Y-66600313D02*
X159962203Y-66638408D01*
X159962203Y-66638408D02*
X160038394Y-66638408D01*
X160038394Y-66638408D02*
X160152680Y-66600313D01*
X160152680Y-66600313D02*
X160228870Y-66524122D01*
X160228870Y-66524122D02*
X160266965Y-66447932D01*
X160266965Y-66447932D02*
X160305061Y-66295551D01*
X160305061Y-66295551D02*
X160305061Y-66181265D01*
X160305061Y-66181265D02*
X160266965Y-66028884D01*
X160266965Y-66028884D02*
X160228870Y-65952693D01*
X160228870Y-65952693D02*
X160152680Y-65876503D01*
X160152680Y-65876503D02*
X160038394Y-65838408D01*
X160038394Y-65838408D02*
X159962203Y-65838408D01*
X159962203Y-65838408D02*
X159847918Y-65876503D01*
X159847918Y-65876503D02*
X159809822Y-65914598D01*
X166489822Y-65876503D02*
X166566012Y-65838408D01*
X166566012Y-65838408D02*
X166680298Y-65838408D01*
X166680298Y-65838408D02*
X166794584Y-65876503D01*
X166794584Y-65876503D02*
X166870774Y-65952693D01*
X166870774Y-65952693D02*
X166908869Y-66028884D01*
X166908869Y-66028884D02*
X166946965Y-66181265D01*
X166946965Y-66181265D02*
X166946965Y-66295551D01*
X166946965Y-66295551D02*
X166908869Y-66447932D01*
X166908869Y-66447932D02*
X166870774Y-66524122D01*
X166870774Y-66524122D02*
X166794584Y-66600313D01*
X166794584Y-66600313D02*
X166680298Y-66638408D01*
X166680298Y-66638408D02*
X166604107Y-66638408D01*
X166604107Y-66638408D02*
X166489822Y-66600313D01*
X166489822Y-66600313D02*
X166451726Y-66562217D01*
X166451726Y-66562217D02*
X166451726Y-66295551D01*
X166451726Y-66295551D02*
X166604107Y-66295551D01*
X166108869Y-66638408D02*
X166108869Y-65838408D01*
X166108869Y-65838408D02*
X165651726Y-66638408D01*
X165651726Y-66638408D02*
X165651726Y-65838408D01*
X165270774Y-66638408D02*
X165270774Y-65838408D01*
X165270774Y-65838408D02*
X165080298Y-65838408D01*
X165080298Y-65838408D02*
X164966012Y-65876503D01*
X164966012Y-65876503D02*
X164889822Y-65952693D01*
X164889822Y-65952693D02*
X164851727Y-66028884D01*
X164851727Y-66028884D02*
X164813631Y-66181265D01*
X164813631Y-66181265D02*
X164813631Y-66295551D01*
X164813631Y-66295551D02*
X164851727Y-66447932D01*
X164851727Y-66447932D02*
X164889822Y-66524122D01*
X164889822Y-66524122D02*
X164966012Y-66600313D01*
X164966012Y-66600313D02*
X165080298Y-66638408D01*
X165080298Y-66638408D02*
X165270774Y-66638408D01*
%TO.C,J19*%
X174064154Y-67467886D02*
X174864154Y-67734553D01*
X174864154Y-67734553D02*
X174064154Y-68001219D01*
X174787963Y-68725029D02*
X174826059Y-68686933D01*
X174826059Y-68686933D02*
X174864154Y-68572648D01*
X174864154Y-68572648D02*
X174864154Y-68496457D01*
X174864154Y-68496457D02*
X174826059Y-68382171D01*
X174826059Y-68382171D02*
X174749868Y-68305981D01*
X174749868Y-68305981D02*
X174673678Y-68267886D01*
X174673678Y-68267886D02*
X174521297Y-68229790D01*
X174521297Y-68229790D02*
X174407011Y-68229790D01*
X174407011Y-68229790D02*
X174254630Y-68267886D01*
X174254630Y-68267886D02*
X174178439Y-68305981D01*
X174178439Y-68305981D02*
X174102249Y-68382171D01*
X174102249Y-68382171D02*
X174064154Y-68496457D01*
X174064154Y-68496457D02*
X174064154Y-68572648D01*
X174064154Y-68572648D02*
X174102249Y-68686933D01*
X174102249Y-68686933D02*
X174140344Y-68725029D01*
X174787963Y-69525029D02*
X174826059Y-69486933D01*
X174826059Y-69486933D02*
X174864154Y-69372648D01*
X174864154Y-69372648D02*
X174864154Y-69296457D01*
X174864154Y-69296457D02*
X174826059Y-69182171D01*
X174826059Y-69182171D02*
X174749868Y-69105981D01*
X174749868Y-69105981D02*
X174673678Y-69067886D01*
X174673678Y-69067886D02*
X174521297Y-69029790D01*
X174521297Y-69029790D02*
X174407011Y-69029790D01*
X174407011Y-69029790D02*
X174254630Y-69067886D01*
X174254630Y-69067886D02*
X174178439Y-69105981D01*
X174178439Y-69105981D02*
X174102249Y-69182171D01*
X174102249Y-69182171D02*
X174064154Y-69296457D01*
X174064154Y-69296457D02*
X174064154Y-69372648D01*
X174064154Y-69372648D02*
X174102249Y-69486933D01*
X174102249Y-69486933D02*
X174140344Y-69525029D01*
X174826059Y-72643124D02*
X174864154Y-72757410D01*
X174864154Y-72757410D02*
X174864154Y-72947886D01*
X174864154Y-72947886D02*
X174826059Y-73024077D01*
X174826059Y-73024077D02*
X174787963Y-73062172D01*
X174787963Y-73062172D02*
X174711773Y-73100267D01*
X174711773Y-73100267D02*
X174635582Y-73100267D01*
X174635582Y-73100267D02*
X174559392Y-73062172D01*
X174559392Y-73062172D02*
X174521297Y-73024077D01*
X174521297Y-73024077D02*
X174483201Y-72947886D01*
X174483201Y-72947886D02*
X174445106Y-72795505D01*
X174445106Y-72795505D02*
X174407011Y-72719315D01*
X174407011Y-72719315D02*
X174368916Y-72681220D01*
X174368916Y-72681220D02*
X174292725Y-72643124D01*
X174292725Y-72643124D02*
X174216535Y-72643124D01*
X174216535Y-72643124D02*
X174140344Y-72681220D01*
X174140344Y-72681220D02*
X174102249Y-72719315D01*
X174102249Y-72719315D02*
X174064154Y-72795505D01*
X174064154Y-72795505D02*
X174064154Y-72985982D01*
X174064154Y-72985982D02*
X174102249Y-73100267D01*
X174864154Y-73443125D02*
X174064154Y-73443125D01*
X174064154Y-73443125D02*
X174064154Y-73633601D01*
X174064154Y-73633601D02*
X174102249Y-73747887D01*
X174102249Y-73747887D02*
X174178439Y-73824077D01*
X174178439Y-73824077D02*
X174254630Y-73862172D01*
X174254630Y-73862172D02*
X174407011Y-73900268D01*
X174407011Y-73900268D02*
X174521297Y-73900268D01*
X174521297Y-73900268D02*
X174673678Y-73862172D01*
X174673678Y-73862172D02*
X174749868Y-73824077D01*
X174749868Y-73824077D02*
X174826059Y-73747887D01*
X174826059Y-73747887D02*
X174864154Y-73633601D01*
X174864154Y-73633601D02*
X174864154Y-73443125D01*
X174635582Y-74205029D02*
X174635582Y-74585982D01*
X174864154Y-74128839D02*
X174064154Y-74395506D01*
X174064154Y-74395506D02*
X174864154Y-74662172D01*
X174102249Y-65385029D02*
X174064154Y-65308839D01*
X174064154Y-65308839D02*
X174064154Y-65194553D01*
X174064154Y-65194553D02*
X174102249Y-65080267D01*
X174102249Y-65080267D02*
X174178439Y-65004077D01*
X174178439Y-65004077D02*
X174254630Y-64965982D01*
X174254630Y-64965982D02*
X174407011Y-64927886D01*
X174407011Y-64927886D02*
X174521297Y-64927886D01*
X174521297Y-64927886D02*
X174673678Y-64965982D01*
X174673678Y-64965982D02*
X174749868Y-65004077D01*
X174749868Y-65004077D02*
X174826059Y-65080267D01*
X174826059Y-65080267D02*
X174864154Y-65194553D01*
X174864154Y-65194553D02*
X174864154Y-65270744D01*
X174864154Y-65270744D02*
X174826059Y-65385029D01*
X174826059Y-65385029D02*
X174787963Y-65423125D01*
X174787963Y-65423125D02*
X174521297Y-65423125D01*
X174521297Y-65423125D02*
X174521297Y-65270744D01*
X174864154Y-65765982D02*
X174064154Y-65765982D01*
X174064154Y-65765982D02*
X174864154Y-66223125D01*
X174864154Y-66223125D02*
X174064154Y-66223125D01*
X174864154Y-66604077D02*
X174064154Y-66604077D01*
X174064154Y-66604077D02*
X174064154Y-66794553D01*
X174064154Y-66794553D02*
X174102249Y-66908839D01*
X174102249Y-66908839D02*
X174178439Y-66985029D01*
X174178439Y-66985029D02*
X174254630Y-67023124D01*
X174254630Y-67023124D02*
X174407011Y-67061220D01*
X174407011Y-67061220D02*
X174521297Y-67061220D01*
X174521297Y-67061220D02*
X174673678Y-67023124D01*
X174673678Y-67023124D02*
X174749868Y-66985029D01*
X174749868Y-66985029D02*
X174826059Y-66908839D01*
X174826059Y-66908839D02*
X174864154Y-66794553D01*
X174864154Y-66794553D02*
X174864154Y-66604077D01*
X174826059Y-70122171D02*
X174864154Y-70236457D01*
X174864154Y-70236457D02*
X174864154Y-70426933D01*
X174864154Y-70426933D02*
X174826059Y-70503124D01*
X174826059Y-70503124D02*
X174787963Y-70541219D01*
X174787963Y-70541219D02*
X174711773Y-70579314D01*
X174711773Y-70579314D02*
X174635582Y-70579314D01*
X174635582Y-70579314D02*
X174559392Y-70541219D01*
X174559392Y-70541219D02*
X174521297Y-70503124D01*
X174521297Y-70503124D02*
X174483201Y-70426933D01*
X174483201Y-70426933D02*
X174445106Y-70274552D01*
X174445106Y-70274552D02*
X174407011Y-70198362D01*
X174407011Y-70198362D02*
X174368916Y-70160267D01*
X174368916Y-70160267D02*
X174292725Y-70122171D01*
X174292725Y-70122171D02*
X174216535Y-70122171D01*
X174216535Y-70122171D02*
X174140344Y-70160267D01*
X174140344Y-70160267D02*
X174102249Y-70198362D01*
X174102249Y-70198362D02*
X174064154Y-70274552D01*
X174064154Y-70274552D02*
X174064154Y-70465029D01*
X174064154Y-70465029D02*
X174102249Y-70579314D01*
X174787963Y-71379315D02*
X174826059Y-71341219D01*
X174826059Y-71341219D02*
X174864154Y-71226934D01*
X174864154Y-71226934D02*
X174864154Y-71150743D01*
X174864154Y-71150743D02*
X174826059Y-71036457D01*
X174826059Y-71036457D02*
X174749868Y-70960267D01*
X174749868Y-70960267D02*
X174673678Y-70922172D01*
X174673678Y-70922172D02*
X174521297Y-70884076D01*
X174521297Y-70884076D02*
X174407011Y-70884076D01*
X174407011Y-70884076D02*
X174254630Y-70922172D01*
X174254630Y-70922172D02*
X174178439Y-70960267D01*
X174178439Y-70960267D02*
X174102249Y-71036457D01*
X174102249Y-71036457D02*
X174064154Y-71150743D01*
X174064154Y-71150743D02*
X174064154Y-71226934D01*
X174064154Y-71226934D02*
X174102249Y-71341219D01*
X174102249Y-71341219D02*
X174140344Y-71379315D01*
X174864154Y-72103124D02*
X174864154Y-71722172D01*
X174864154Y-71722172D02*
X174064154Y-71722172D01*
%TO.C,J21*%
X170062249Y-65385029D02*
X170024154Y-65308839D01*
X170024154Y-65308839D02*
X170024154Y-65194553D01*
X170024154Y-65194553D02*
X170062249Y-65080267D01*
X170062249Y-65080267D02*
X170138439Y-65004077D01*
X170138439Y-65004077D02*
X170214630Y-64965982D01*
X170214630Y-64965982D02*
X170367011Y-64927886D01*
X170367011Y-64927886D02*
X170481297Y-64927886D01*
X170481297Y-64927886D02*
X170633678Y-64965982D01*
X170633678Y-64965982D02*
X170709868Y-65004077D01*
X170709868Y-65004077D02*
X170786059Y-65080267D01*
X170786059Y-65080267D02*
X170824154Y-65194553D01*
X170824154Y-65194553D02*
X170824154Y-65270744D01*
X170824154Y-65270744D02*
X170786059Y-65385029D01*
X170786059Y-65385029D02*
X170747963Y-65423125D01*
X170747963Y-65423125D02*
X170481297Y-65423125D01*
X170481297Y-65423125D02*
X170481297Y-65270744D01*
X170824154Y-65765982D02*
X170024154Y-65765982D01*
X170024154Y-65765982D02*
X170824154Y-66223125D01*
X170824154Y-66223125D02*
X170024154Y-66223125D01*
X170824154Y-66604077D02*
X170024154Y-66604077D01*
X170024154Y-66604077D02*
X170024154Y-66794553D01*
X170024154Y-66794553D02*
X170062249Y-66908839D01*
X170062249Y-66908839D02*
X170138439Y-66985029D01*
X170138439Y-66985029D02*
X170214630Y-67023124D01*
X170214630Y-67023124D02*
X170367011Y-67061220D01*
X170367011Y-67061220D02*
X170481297Y-67061220D01*
X170481297Y-67061220D02*
X170633678Y-67023124D01*
X170633678Y-67023124D02*
X170709868Y-66985029D01*
X170709868Y-66985029D02*
X170786059Y-66908839D01*
X170786059Y-66908839D02*
X170824154Y-66794553D01*
X170824154Y-66794553D02*
X170824154Y-66604077D01*
X170024154Y-67467886D02*
X170824154Y-67734553D01*
X170824154Y-67734553D02*
X170024154Y-68001219D01*
X170747963Y-68725029D02*
X170786059Y-68686933D01*
X170786059Y-68686933D02*
X170824154Y-68572648D01*
X170824154Y-68572648D02*
X170824154Y-68496457D01*
X170824154Y-68496457D02*
X170786059Y-68382171D01*
X170786059Y-68382171D02*
X170709868Y-68305981D01*
X170709868Y-68305981D02*
X170633678Y-68267886D01*
X170633678Y-68267886D02*
X170481297Y-68229790D01*
X170481297Y-68229790D02*
X170367011Y-68229790D01*
X170367011Y-68229790D02*
X170214630Y-68267886D01*
X170214630Y-68267886D02*
X170138439Y-68305981D01*
X170138439Y-68305981D02*
X170062249Y-68382171D01*
X170062249Y-68382171D02*
X170024154Y-68496457D01*
X170024154Y-68496457D02*
X170024154Y-68572648D01*
X170024154Y-68572648D02*
X170062249Y-68686933D01*
X170062249Y-68686933D02*
X170100344Y-68725029D01*
X170747963Y-69525029D02*
X170786059Y-69486933D01*
X170786059Y-69486933D02*
X170824154Y-69372648D01*
X170824154Y-69372648D02*
X170824154Y-69296457D01*
X170824154Y-69296457D02*
X170786059Y-69182171D01*
X170786059Y-69182171D02*
X170709868Y-69105981D01*
X170709868Y-69105981D02*
X170633678Y-69067886D01*
X170633678Y-69067886D02*
X170481297Y-69029790D01*
X170481297Y-69029790D02*
X170367011Y-69029790D01*
X170367011Y-69029790D02*
X170214630Y-69067886D01*
X170214630Y-69067886D02*
X170138439Y-69105981D01*
X170138439Y-69105981D02*
X170062249Y-69182171D01*
X170062249Y-69182171D02*
X170024154Y-69296457D01*
X170024154Y-69296457D02*
X170024154Y-69372648D01*
X170024154Y-69372648D02*
X170062249Y-69486933D01*
X170062249Y-69486933D02*
X170100344Y-69525029D01*
X170443201Y-73614553D02*
X170824154Y-73614553D01*
X170024154Y-73347886D02*
X170443201Y-73614553D01*
X170443201Y-73614553D02*
X170024154Y-73881219D01*
X170024154Y-70807886D02*
X170824154Y-71341220D01*
X170024154Y-71341220D02*
X170824154Y-70807886D01*
%TO.C,J9*%
X173074154Y-84025029D02*
X173074154Y-83644077D01*
X173074154Y-83644077D02*
X173455106Y-83605981D01*
X173455106Y-83605981D02*
X173417011Y-83644077D01*
X173417011Y-83644077D02*
X173378916Y-83720267D01*
X173378916Y-83720267D02*
X173378916Y-83910743D01*
X173378916Y-83910743D02*
X173417011Y-83986934D01*
X173417011Y-83986934D02*
X173455106Y-84025029D01*
X173455106Y-84025029D02*
X173531297Y-84063124D01*
X173531297Y-84063124D02*
X173721773Y-84063124D01*
X173721773Y-84063124D02*
X173797963Y-84025029D01*
X173797963Y-84025029D02*
X173836059Y-83986934D01*
X173836059Y-83986934D02*
X173874154Y-83910743D01*
X173874154Y-83910743D02*
X173874154Y-83720267D01*
X173874154Y-83720267D02*
X173836059Y-83644077D01*
X173836059Y-83644077D02*
X173797963Y-83605981D01*
X167994154Y-83567886D02*
X167994154Y-84063124D01*
X167994154Y-84063124D02*
X168298916Y-83796458D01*
X168298916Y-83796458D02*
X168298916Y-83910743D01*
X168298916Y-83910743D02*
X168337011Y-83986934D01*
X168337011Y-83986934D02*
X168375106Y-84025029D01*
X168375106Y-84025029D02*
X168451297Y-84063124D01*
X168451297Y-84063124D02*
X168641773Y-84063124D01*
X168641773Y-84063124D02*
X168717963Y-84025029D01*
X168717963Y-84025029D02*
X168756059Y-83986934D01*
X168756059Y-83986934D02*
X168794154Y-83910743D01*
X168794154Y-83910743D02*
X168794154Y-83682172D01*
X168794154Y-83682172D02*
X168756059Y-83605981D01*
X168756059Y-83605981D02*
X168717963Y-83567886D01*
X161246443Y-83872647D02*
X161246443Y-83796457D01*
X161246443Y-83796457D02*
X161208348Y-83720266D01*
X161208348Y-83720266D02*
X161170253Y-83682171D01*
X161170253Y-83682171D02*
X161094062Y-83644076D01*
X161094062Y-83644076D02*
X160941681Y-83605981D01*
X160941681Y-83605981D02*
X160751205Y-83605981D01*
X160751205Y-83605981D02*
X160598824Y-83644076D01*
X160598824Y-83644076D02*
X160522634Y-83682171D01*
X160522634Y-83682171D02*
X160484539Y-83720266D01*
X160484539Y-83720266D02*
X160446443Y-83796457D01*
X160446443Y-83796457D02*
X160446443Y-83872647D01*
X160446443Y-83872647D02*
X160484539Y-83948838D01*
X160484539Y-83948838D02*
X160522634Y-83986933D01*
X160522634Y-83986933D02*
X160598824Y-84025028D01*
X160598824Y-84025028D02*
X160751205Y-84063124D01*
X160751205Y-84063124D02*
X160941681Y-84063124D01*
X160941681Y-84063124D02*
X161094062Y-84025028D01*
X161094062Y-84025028D02*
X161170253Y-83986933D01*
X161170253Y-83986933D02*
X161208348Y-83948838D01*
X161208348Y-83948838D02*
X161246443Y-83872647D01*
X165530344Y-83605981D02*
X165492249Y-83644077D01*
X165492249Y-83644077D02*
X165454154Y-83720267D01*
X165454154Y-83720267D02*
X165454154Y-83910743D01*
X165454154Y-83910743D02*
X165492249Y-83986934D01*
X165492249Y-83986934D02*
X165530344Y-84025029D01*
X165530344Y-84025029D02*
X165606535Y-84063124D01*
X165606535Y-84063124D02*
X165682725Y-84063124D01*
X165682725Y-84063124D02*
X165797011Y-84025029D01*
X165797011Y-84025029D02*
X166254154Y-83567886D01*
X166254154Y-83567886D02*
X166254154Y-84063124D01*
X170800820Y-83986934D02*
X171334154Y-83986934D01*
X170496059Y-83796458D02*
X171067487Y-83605981D01*
X171067487Y-83605981D02*
X171067487Y-84101220D01*
X163714154Y-84063124D02*
X163714154Y-83605981D01*
X163714154Y-83834553D02*
X162914154Y-83834553D01*
X162914154Y-83834553D02*
X163028439Y-83758362D01*
X163028439Y-83758362D02*
X163104630Y-83682172D01*
X163104630Y-83682172D02*
X163142725Y-83605981D01*
%TO.C,J5*%
X130997855Y-87850994D02*
X130616903Y-87850994D01*
X130616903Y-87850994D02*
X130616903Y-88650994D01*
%TO.C,J6*%
X115229759Y-53208705D02*
X115229759Y-52408705D01*
X115229759Y-52408705D02*
X115039283Y-52408705D01*
X115039283Y-52408705D02*
X114924997Y-52446800D01*
X114924997Y-52446800D02*
X114848807Y-52522990D01*
X114848807Y-52522990D02*
X114810712Y-52599181D01*
X114810712Y-52599181D02*
X114772616Y-52751562D01*
X114772616Y-52751562D02*
X114772616Y-52865848D01*
X114772616Y-52865848D02*
X114810712Y-53018229D01*
X114810712Y-53018229D02*
X114848807Y-53094419D01*
X114848807Y-53094419D02*
X114924997Y-53170610D01*
X114924997Y-53170610D02*
X115039283Y-53208705D01*
X115039283Y-53208705D02*
X115229759Y-53208705D01*
%TO.C,J15*%
X161371727Y-70549836D02*
X160990774Y-70549836D01*
X161447917Y-70778408D02*
X161181250Y-69978408D01*
X161181250Y-69978408D02*
X160914584Y-70778408D01*
X160228870Y-70778408D02*
X160686013Y-70778408D01*
X160457441Y-70778408D02*
X160457441Y-69978408D01*
X160457441Y-69978408D02*
X160533632Y-70092693D01*
X160533632Y-70092693D02*
X160609822Y-70168884D01*
X160609822Y-70168884D02*
X160686013Y-70206979D01*
X166204108Y-70359360D02*
X166089822Y-70397455D01*
X166089822Y-70397455D02*
X166051727Y-70435551D01*
X166051727Y-70435551D02*
X166013631Y-70511741D01*
X166013631Y-70511741D02*
X166013631Y-70626027D01*
X166013631Y-70626027D02*
X166051727Y-70702217D01*
X166051727Y-70702217D02*
X166089822Y-70740313D01*
X166089822Y-70740313D02*
X166166012Y-70778408D01*
X166166012Y-70778408D02*
X166470774Y-70778408D01*
X166470774Y-70778408D02*
X166470774Y-69978408D01*
X166470774Y-69978408D02*
X166204108Y-69978408D01*
X166204108Y-69978408D02*
X166127917Y-70016503D01*
X166127917Y-70016503D02*
X166089822Y-70054598D01*
X166089822Y-70054598D02*
X166051727Y-70130789D01*
X166051727Y-70130789D02*
X166051727Y-70206979D01*
X166051727Y-70206979D02*
X166089822Y-70283170D01*
X166089822Y-70283170D02*
X166127917Y-70321265D01*
X166127917Y-70321265D02*
X166204108Y-70359360D01*
X166204108Y-70359360D02*
X166470774Y-70359360D01*
X165251727Y-70778408D02*
X165708870Y-70778408D01*
X165480298Y-70778408D02*
X165480298Y-69978408D01*
X165480298Y-69978408D02*
X165556489Y-70092693D01*
X165556489Y-70092693D02*
X165632679Y-70168884D01*
X165632679Y-70168884D02*
X165708870Y-70206979D01*
X163949822Y-70016503D02*
X164026012Y-69978408D01*
X164026012Y-69978408D02*
X164140298Y-69978408D01*
X164140298Y-69978408D02*
X164254584Y-70016503D01*
X164254584Y-70016503D02*
X164330774Y-70092693D01*
X164330774Y-70092693D02*
X164368869Y-70168884D01*
X164368869Y-70168884D02*
X164406965Y-70321265D01*
X164406965Y-70321265D02*
X164406965Y-70435551D01*
X164406965Y-70435551D02*
X164368869Y-70587932D01*
X164368869Y-70587932D02*
X164330774Y-70664122D01*
X164330774Y-70664122D02*
X164254584Y-70740313D01*
X164254584Y-70740313D02*
X164140298Y-70778408D01*
X164140298Y-70778408D02*
X164064107Y-70778408D01*
X164064107Y-70778408D02*
X163949822Y-70740313D01*
X163949822Y-70740313D02*
X163911726Y-70702217D01*
X163911726Y-70702217D02*
X163911726Y-70435551D01*
X163911726Y-70435551D02*
X164064107Y-70435551D01*
X163568869Y-70778408D02*
X163568869Y-69978408D01*
X163568869Y-69978408D02*
X163111726Y-70778408D01*
X163111726Y-70778408D02*
X163111726Y-69978408D01*
X162730774Y-70778408D02*
X162730774Y-69978408D01*
X162730774Y-69978408D02*
X162540298Y-69978408D01*
X162540298Y-69978408D02*
X162426012Y-70016503D01*
X162426012Y-70016503D02*
X162349822Y-70092693D01*
X162349822Y-70092693D02*
X162311727Y-70168884D01*
X162311727Y-70168884D02*
X162273631Y-70321265D01*
X162273631Y-70321265D02*
X162273631Y-70435551D01*
X162273631Y-70435551D02*
X162311727Y-70587932D01*
X162311727Y-70587932D02*
X162349822Y-70664122D01*
X162349822Y-70664122D02*
X162426012Y-70740313D01*
X162426012Y-70740313D02*
X162540298Y-70778408D01*
X162540298Y-70778408D02*
X162730774Y-70778408D01*
%TO.C,J13*%
X139230000Y-77934850D02*
X146850000Y-77934850D01*
X146850000Y-77934850D02*
X146850000Y-80474850D01*
X146850000Y-80474850D02*
X139230000Y-80474850D01*
X139230000Y-80474850D02*
X139230000Y-77934850D01*
%TO.C,J19*%
X150890000Y-78714850D02*
X153430000Y-78714850D01*
X153430000Y-78714850D02*
X153430000Y-68554850D01*
X153430000Y-68554850D02*
X150890000Y-68554850D01*
X150890000Y-68554850D02*
X150890000Y-78714850D01*
%TO.C,J21*%
X146850000Y-78714850D02*
X149390000Y-78714850D01*
X149390000Y-78714850D02*
X149390000Y-68554850D01*
X149390000Y-68554850D02*
X146850000Y-68554850D01*
X146850000Y-68554850D02*
X146850000Y-78714850D01*
D12*
%TO.C,T1*%
X208159800Y-45885000D02*
X208159800Y-58458000D01*
X208159800Y-58458000D02*
X214916200Y-58458000D01*
X214916200Y-45885000D02*
X208159800Y-45885000D01*
X214916200Y-45885000D02*
X214916200Y-58458000D01*
D10*
%TO.C,J4*%
X201320000Y-79834850D02*
X201320000Y-56974850D01*
X203860000Y-56974850D02*
X203860000Y-79834850D01*
D11*
%TO.C,J6*%
X196010000Y-89544850D02*
X197010000Y-89544850D01*
X196010000Y-89544850D02*
X196510000Y-90044850D01*
X196510000Y-90044850D02*
X197010000Y-89544850D01*
D10*
X197780000Y-90314850D02*
X185080000Y-90314850D01*
X185080000Y-90314850D02*
X185080000Y-92854850D01*
X197780000Y-92854850D02*
X197780000Y-90314850D01*
X185080000Y-92854850D02*
X197780000Y-92854850D01*
D11*
%TO.C,U1*%
X193485000Y-74984850D02*
X192985000Y-75484850D01*
X193985000Y-75484850D02*
X192985000Y-75484850D01*
X193985000Y-75484850D02*
X193485000Y-74984850D01*
%TO.C,J14*%
X150890000Y-89684850D02*
X153430000Y-89684850D01*
X150890000Y-84604850D02*
X153430000Y-84604850D01*
X150890000Y-92224850D02*
X153430000Y-92224850D01*
X153430000Y-92224850D02*
X153430000Y-79524850D01*
X153430000Y-79524850D02*
X150890000Y-79524850D01*
X150890000Y-79524850D02*
X150890000Y-92224850D01*
%TO.C,J8*%
X146860000Y-89684850D02*
X149400000Y-89684850D01*
X146860000Y-84604850D02*
X149400000Y-84604850D01*
X146860000Y-92224850D02*
X149400000Y-92224850D01*
X149400000Y-92224850D02*
X149400000Y-79534850D01*
X149400000Y-79534850D02*
X146860000Y-79534850D01*
X146860000Y-79534850D02*
X146860000Y-92224850D01*
%TO.C,J3*%
X139230000Y-69654850D02*
X146850000Y-69654850D01*
X146850000Y-69654850D02*
X146850000Y-72194850D01*
X146850000Y-72194850D02*
X139230000Y-72194850D01*
X139230000Y-72194850D02*
X139230000Y-69654850D01*
%TO.C,J7*%
X139230000Y-82064850D02*
X146850000Y-82064850D01*
X146850000Y-82064850D02*
X146850000Y-84604850D01*
X146850000Y-84604850D02*
X139230000Y-84604850D01*
X139230000Y-84604850D02*
X139230000Y-82064850D01*
D10*
%TO.C,J5*%
X198780000Y-79834850D02*
X198780000Y-56974850D01*
D11*
%TO.C,J22*%
X123685236Y-61354850D02*
X124685236Y-61354850D01*
X123685236Y-61354850D02*
X124185236Y-61854850D01*
X124185236Y-61854850D02*
X124685236Y-61354850D01*
%TO.C,J15*%
X139230000Y-73794850D02*
X146850000Y-73794850D01*
X146850000Y-73794850D02*
X146850000Y-76334850D01*
X146850000Y-76334850D02*
X139230000Y-76334850D01*
X139230000Y-76334850D02*
X139230000Y-73794850D01*
D12*
%TO.C,T1*%
X222016200Y-97555000D02*
X222016200Y-84982000D01*
X222016200Y-84982000D02*
X215259800Y-84982000D01*
X215259800Y-97555000D02*
X222016200Y-97555000D01*
X215259800Y-97555000D02*
X215259800Y-84982000D01*
D11*
%TO.C,J8*%
X169700299Y-58834553D02*
X167160299Y-58834553D01*
X169700299Y-53754553D02*
X167160299Y-53754553D01*
X169700299Y-51214553D02*
X167160299Y-51214553D01*
X167160299Y-51214553D02*
X167160299Y-63904553D01*
X167160299Y-63904553D02*
X169700299Y-63904553D01*
X169700299Y-63904553D02*
X169700299Y-51214553D01*
%TO.C,U1*%
X123685236Y-68944850D02*
X124185236Y-69444850D01*
X123685236Y-68944850D02*
X124685236Y-68944850D01*
X124185236Y-69444850D02*
X124685236Y-68944850D01*
%TO.C,D1*%
X98671000Y-64599000D02*
X98211000Y-64599000D01*
D10*
X96636600Y-64599000D02*
X96236600Y-64599000D01*
X96236600Y-64599000D02*
X96236600Y-65149000D01*
X96236600Y-64599000D02*
X96236600Y-64049000D01*
X96236600Y-64599000D02*
X95636600Y-64199000D01*
X95636600Y-64999000D02*
X96236600Y-64599000D01*
X95636600Y-64599000D02*
X95136600Y-64599000D01*
X95636600Y-64199000D02*
X95636600Y-64999000D01*
D11*
X93131000Y-64599000D02*
X93611000Y-64599000D01*
D10*
%TO.C,J4*%
X134560236Y-87454850D02*
X134560236Y-64594850D01*
D11*
%TO.C,J14*%
X173730299Y-58834553D02*
X171190299Y-58834553D01*
X173730299Y-53754553D02*
X171190299Y-53754553D01*
X173730299Y-51214553D02*
X171190299Y-51214553D01*
X171190299Y-51214553D02*
X171190299Y-63914553D01*
X171190299Y-63914553D02*
X173730299Y-63914553D01*
X173730299Y-63914553D02*
X173730299Y-51214553D01*
%TO.C,J7*%
X159530299Y-58834553D02*
X167150299Y-58834553D01*
X167150299Y-58834553D02*
X167150299Y-61374553D01*
X167150299Y-61374553D02*
X159530299Y-61374553D01*
X159530299Y-61374553D02*
X159530299Y-58834553D01*
%TO.C,REF\u002A\u002A*%
D13*
X121813858Y-74632447D02*
X121859544Y-74667273D01*
X121929973Y-74728589D01*
X122019015Y-74810364D01*
X122120539Y-74906567D01*
X122228416Y-75011167D01*
X122336516Y-75118132D01*
X122438708Y-75221433D01*
X122528861Y-75315036D01*
X122600846Y-75392912D01*
X122648533Y-75449029D01*
X122665791Y-75477356D01*
X122664796Y-75482746D01*
X122644256Y-75526614D01*
X122600377Y-75602511D01*
X122537399Y-75703582D01*
X122459563Y-75822970D01*
X122371109Y-75953820D01*
X122346302Y-75989913D01*
X122259193Y-76116918D01*
X122182464Y-76229200D01*
X122120587Y-76320188D01*
X122078034Y-76383312D01*
X122059277Y-76412001D01*
X122058816Y-76413231D01*
X122064352Y-76448330D01*
X122085491Y-76519434D01*
X122118806Y-76617608D01*
X122160866Y-76733916D01*
X122208241Y-76859425D01*
X122257503Y-76985200D01*
X122305222Y-77102306D01*
X122347969Y-77201808D01*
X122382314Y-77274773D01*
X122404828Y-77312265D01*
X122407083Y-77314593D01*
X122423203Y-77326369D01*
X122450428Y-77338245D01*
X122494178Y-77351437D01*
X122559876Y-77367164D01*
X122652941Y-77386644D01*
X122778795Y-77411094D01*
X122942858Y-77441732D01*
X123150552Y-77479775D01*
X123193630Y-77487782D01*
X123317034Y-77512534D01*
X123420839Y-77535985D01*
X123495210Y-77555808D01*
X123530307Y-77569673D01*
X123536179Y-77581241D01*
X123545968Y-77636808D01*
X123553726Y-77728928D01*
X123559446Y-77848967D01*
X123563122Y-77988296D01*
X123564749Y-78138283D01*
X123564320Y-78290297D01*
X123561829Y-78435706D01*
X123557271Y-78565881D01*
X123550640Y-78672188D01*
X123541929Y-78745999D01*
X123531134Y-78778680D01*
X123520112Y-78783508D01*
X123465280Y-78798727D01*
X123372598Y-78820252D01*
X123249460Y-78846479D01*
X123103263Y-78875804D01*
X122941404Y-78906622D01*
X122853027Y-78923087D01*
X122701552Y-78951639D01*
X122571171Y-78976641D01*
X122468856Y-78996733D01*
X122401583Y-79010556D01*
X122376322Y-79016753D01*
X122375372Y-79018030D01*
X122359285Y-79050481D01*
X122328617Y-79118466D01*
X122287200Y-79212964D01*
X122238870Y-79324954D01*
X122187457Y-79445418D01*
X122136797Y-79565334D01*
X122090722Y-79675683D01*
X122053065Y-79767445D01*
X122027660Y-79831599D01*
X122018340Y-79859126D01*
X122022451Y-79868812D01*
X122049811Y-79914900D01*
X122099441Y-79992478D01*
X122167351Y-80095457D01*
X122249556Y-80217751D01*
X122342065Y-80353272D01*
X122392819Y-80427489D01*
X122480408Y-80557609D01*
X122555504Y-80671806D01*
X122614104Y-80763852D01*
X122652202Y-80827520D01*
X122665791Y-80856581D01*
X122656348Y-80872345D01*
X122616851Y-80919447D01*
X122552053Y-80990732D01*
X122467902Y-81080158D01*
X122370347Y-81181686D01*
X122265337Y-81289275D01*
X122158818Y-81396884D01*
X122056740Y-81498473D01*
X121965051Y-81588001D01*
X121889699Y-81659429D01*
X121836631Y-81706715D01*
X121811797Y-81723820D01*
X121798012Y-81717169D01*
X121747393Y-81686326D01*
X121665706Y-81633835D01*
X121558839Y-81563543D01*
X121432679Y-81479296D01*
X121293112Y-81384940D01*
X120794755Y-81046061D01*
X120379341Y-81217308D01*
X119963928Y-81388555D01*
X119851346Y-81985746D01*
X119738763Y-82582938D01*
X118495760Y-82582938D01*
X118383177Y-81985746D01*
X118270595Y-81388555D01*
X117855181Y-81217308D01*
X117439768Y-81046061D01*
X116941410Y-81384940D01*
X116842774Y-81451748D01*
X116712014Y-81539439D01*
X116598803Y-81614338D01*
X116509022Y-81672598D01*
X116448550Y-81710373D01*
X116423267Y-81723820D01*
X116407739Y-81714257D01*
X116361324Y-81674188D01*
X116291081Y-81608431D01*
X116202963Y-81523023D01*
X116102922Y-81424003D01*
X115996909Y-81317409D01*
X115890876Y-81209278D01*
X115790776Y-81105650D01*
X115702559Y-81012560D01*
X115632179Y-80936049D01*
X115585586Y-80882153D01*
X115568732Y-80856911D01*
X115572653Y-80846066D01*
X115599799Y-80797690D01*
X115649372Y-80718076D01*
X115717352Y-80613464D01*
X115799720Y-80490096D01*
X115892458Y-80354212D01*
X115943351Y-80280103D01*
X116030899Y-80151083D01*
X116105958Y-80038484D01*
X116164526Y-79948413D01*
X116202602Y-79886976D01*
X116216183Y-79860278D01*
X116215960Y-79858799D01*
X116203980Y-79824956D01*
X116176495Y-79755847D01*
X116137337Y-79660502D01*
X116090337Y-79547946D01*
X116039326Y-79427208D01*
X115988135Y-79307316D01*
X115940596Y-79197296D01*
X115900540Y-79106178D01*
X115871798Y-79042987D01*
X115858201Y-79016753D01*
X115850156Y-79014426D01*
X115801276Y-79003930D01*
X115714159Y-78986542D01*
X115595778Y-78963623D01*
X115453107Y-78936529D01*
X115293118Y-78906622D01*
X115208796Y-78890765D01*
X115054028Y-78860511D01*
X114918707Y-78832571D01*
X114810229Y-78808549D01*
X114735991Y-78790050D01*
X114703389Y-78778680D01*
X114697533Y-78767407D01*
X114687819Y-78712332D01*
X114680187Y-78620601D01*
X114674631Y-78500845D01*
X114671145Y-78361697D01*
X114669724Y-78211787D01*
X114670361Y-78059746D01*
X114673051Y-77914206D01*
X114677787Y-77783797D01*
X114684564Y-77677152D01*
X114693375Y-77602900D01*
X114704216Y-77569673D01*
X114710794Y-77565925D01*
X114759856Y-77549849D01*
X114844964Y-77528580D01*
X114956281Y-77504446D01*
X115083971Y-77479775D01*
X115127054Y-77471918D01*
X115326038Y-77435376D01*
X115482423Y-77406008D01*
X115601628Y-77382597D01*
X115689074Y-77363924D01*
X115750183Y-77348772D01*
X115790376Y-77335923D01*
X115815073Y-77324160D01*
X115829695Y-77312265D01*
X115831395Y-77310269D01*
X115855307Y-77268647D01*
X115890692Y-77192488D01*
X115934119Y-77090725D01*
X115982160Y-76972294D01*
X116031386Y-76846129D01*
X116078366Y-76721164D01*
X116119671Y-76606334D01*
X116151872Y-76510574D01*
X116171540Y-76442818D01*
X116175246Y-76412001D01*
X116172768Y-76408003D01*
X116147122Y-76369334D01*
X116098891Y-76298011D01*
X116032549Y-76200604D01*
X115952565Y-76083684D01*
X115863413Y-75953820D01*
X115838946Y-75918090D01*
X115752908Y-75789928D01*
X115678552Y-75675310D01*
X115620123Y-75581031D01*
X115581864Y-75513889D01*
X115568019Y-75480683D01*
X115571002Y-75471953D01*
X115602100Y-75428936D01*
X115663456Y-75358688D01*
X115750674Y-75265939D01*
X115859362Y-75155416D01*
X115985126Y-75031847D01*
X116057011Y-74962683D01*
X116170671Y-74854961D01*
X116270154Y-74762693D01*
X116350116Y-74690737D01*
X116405216Y-74643950D01*
X116430113Y-74627191D01*
X116447218Y-74633403D01*
X116499882Y-74662792D01*
X116576362Y-74710855D01*
X116666682Y-74771506D01*
X116730899Y-74815765D01*
X116859106Y-74903657D01*
X116995917Y-74997003D01*
X117120879Y-75081827D01*
X117365674Y-75247403D01*
X117571161Y-75136298D01*
X117619547Y-75110653D01*
X117707541Y-75066788D01*
X117775588Y-75036504D01*
X117811955Y-75025212D01*
X117823857Y-75039713D01*
X117853411Y-75094926D01*
X117897063Y-75185956D01*
X117952385Y-75307026D01*
X118016948Y-75452359D01*
X118088322Y-75616177D01*
X118164079Y-75792705D01*
X118241789Y-75976165D01*
X118319024Y-76160780D01*
X118393355Y-76340772D01*
X118462353Y-76510366D01*
X118523588Y-76663783D01*
X118574632Y-76795248D01*
X118613056Y-76898982D01*
X118636431Y-76969209D01*
X118642328Y-77000152D01*
X118641928Y-77001056D01*
X118614462Y-77029661D01*
X118557012Y-77074461D01*
X118481438Y-77126167D01*
X118457584Y-77141956D01*
X118276076Y-77291744D01*
X118125858Y-77470151D01*
X118010484Y-77669753D01*
X117933511Y-77883121D01*
X117898497Y-78102831D01*
X117908998Y-78321456D01*
X117951534Y-78515907D01*
X118027908Y-78712261D01*
X118139246Y-78887434D01*
X118292037Y-79053836D01*
X118352072Y-79106994D01*
X118546153Y-79237967D01*
X118755812Y-79326174D01*
X118974974Y-79372406D01*
X119197564Y-79377451D01*
X119417504Y-79342098D01*
X119628721Y-79267139D01*
X119825138Y-79153361D01*
X120000679Y-79001555D01*
X120149269Y-78812509D01*
X120177837Y-78765694D01*
X120274938Y-78551714D01*
X120326508Y-78328892D01*
X120333897Y-78102996D01*
X120298456Y-77879799D01*
X120221535Y-77665071D01*
X120104485Y-77464582D01*
X119948656Y-77284104D01*
X119755398Y-77129408D01*
X119749122Y-77125239D01*
X119674349Y-77072548D01*
X119618307Y-77027749D01*
X119592711Y-77000152D01*
X119595941Y-76978516D01*
X119616021Y-76915519D01*
X119651627Y-76817880D01*
X119700331Y-76691376D01*
X119759703Y-76541786D01*
X119827317Y-76374888D01*
X119900745Y-76196461D01*
X119977557Y-76012282D01*
X120055327Y-75828131D01*
X120131626Y-75649785D01*
X120204027Y-75483023D01*
X120270101Y-75333624D01*
X120327419Y-75207364D01*
X120373556Y-75110024D01*
X120406081Y-75047380D01*
X120422568Y-75025212D01*
X120436278Y-75028215D01*
X120490141Y-75049792D01*
X120569747Y-75087625D01*
X120663361Y-75136298D01*
X120868849Y-75247403D01*
X121113644Y-75081827D01*
X121185966Y-75032798D01*
X121320485Y-74941189D01*
X121454596Y-74849433D01*
X121567841Y-74771506D01*
X121630340Y-74729037D01*
X121711572Y-74676274D01*
X121771802Y-74640153D01*
X121801220Y-74626761D01*
X121813858Y-74632447D01*
G36*
X121813858Y-74632447D02*
G01*
X121859544Y-74667273D01*
X121929973Y-74728589D01*
X122019015Y-74810364D01*
X122120539Y-74906567D01*
X122228416Y-75011167D01*
X122336516Y-75118132D01*
X122438708Y-75221433D01*
X122528861Y-75315036D01*
X122600846Y-75392912D01*
X122648533Y-75449029D01*
X122665791Y-75477356D01*
X122664796Y-75482746D01*
X122644256Y-75526614D01*
X122600377Y-75602511D01*
X122537399Y-75703582D01*
X122459563Y-75822970D01*
X122371109Y-75953820D01*
X122346302Y-75989913D01*
X122259193Y-76116918D01*
X122182464Y-76229200D01*
X122120587Y-76320188D01*
X122078034Y-76383312D01*
X122059277Y-76412001D01*
X122058816Y-76413231D01*
X122064352Y-76448330D01*
X122085491Y-76519434D01*
X122118806Y-76617608D01*
X122160866Y-76733916D01*
X122208241Y-76859425D01*
X122257503Y-76985200D01*
X122305222Y-77102306D01*
X122347969Y-77201808D01*
X122382314Y-77274773D01*
X122404828Y-77312265D01*
X122407083Y-77314593D01*
X122423203Y-77326369D01*
X122450428Y-77338245D01*
X122494178Y-77351437D01*
X122559876Y-77367164D01*
X122652941Y-77386644D01*
X122778795Y-77411094D01*
X122942858Y-77441732D01*
X123150552Y-77479775D01*
X123193630Y-77487782D01*
X123317034Y-77512534D01*
X123420839Y-77535985D01*
X123495210Y-77555808D01*
X123530307Y-77569673D01*
X123536179Y-77581241D01*
X123545968Y-77636808D01*
X123553726Y-77728928D01*
X123559446Y-77848967D01*
X123563122Y-77988296D01*
X123564749Y-78138283D01*
X123564320Y-78290297D01*
X123561829Y-78435706D01*
X123557271Y-78565881D01*
X123550640Y-78672188D01*
X123541929Y-78745999D01*
X123531134Y-78778680D01*
X123520112Y-78783508D01*
X123465280Y-78798727D01*
X123372598Y-78820252D01*
X123249460Y-78846479D01*
X123103263Y-78875804D01*
X122941404Y-78906622D01*
X122853027Y-78923087D01*
X122701552Y-78951639D01*
X122571171Y-78976641D01*
X122468856Y-78996733D01*
X122401583Y-79010556D01*
X122376322Y-79016753D01*
X122375372Y-79018030D01*
X122359285Y-79050481D01*
X122328617Y-79118466D01*
X122287200Y-79212964D01*
X122238870Y-79324954D01*
X122187457Y-79445418D01*
X122136797Y-79565334D01*
X122090722Y-79675683D01*
X122053065Y-79767445D01*
X122027660Y-79831599D01*
X122018340Y-79859126D01*
X122022451Y-79868812D01*
X122049811Y-79914900D01*
X122099441Y-79992478D01*
X122167351Y-80095457D01*
X122249556Y-80217751D01*
X122342065Y-80353272D01*
X122392819Y-80427489D01*
X122480408Y-80557609D01*
X122555504Y-80671806D01*
X122614104Y-80763852D01*
X122652202Y-80827520D01*
X122665791Y-80856581D01*
X122656348Y-80872345D01*
X122616851Y-80919447D01*
X122552053Y-80990732D01*
X122467902Y-81080158D01*
X122370347Y-81181686D01*
X122265337Y-81289275D01*
X122158818Y-81396884D01*
X122056740Y-81498473D01*
X121965051Y-81588001D01*
X121889699Y-81659429D01*
X121836631Y-81706715D01*
X121811797Y-81723820D01*
X121798012Y-81717169D01*
X121747393Y-81686326D01*
X121665706Y-81633835D01*
X121558839Y-81563543D01*
X121432679Y-81479296D01*
X121293112Y-81384940D01*
X120794755Y-81046061D01*
X120379341Y-81217308D01*
X119963928Y-81388555D01*
X119851346Y-81985746D01*
X119738763Y-82582938D01*
X118495760Y-82582938D01*
X118383177Y-81985746D01*
X118270595Y-81388555D01*
X117855181Y-81217308D01*
X117439768Y-81046061D01*
X116941410Y-81384940D01*
X116842774Y-81451748D01*
X116712014Y-81539439D01*
X116598803Y-81614338D01*
X116509022Y-81672598D01*
X116448550Y-81710373D01*
X116423267Y-81723820D01*
X116407739Y-81714257D01*
X116361324Y-81674188D01*
X116291081Y-81608431D01*
X116202963Y-81523023D01*
X116102922Y-81424003D01*
X115996909Y-81317409D01*
X115890876Y-81209278D01*
X115790776Y-81105650D01*
X115702559Y-81012560D01*
X115632179Y-80936049D01*
X115585586Y-80882153D01*
X115568732Y-80856911D01*
X115572653Y-80846066D01*
X115599799Y-80797690D01*
X115649372Y-80718076D01*
X115717352Y-80613464D01*
X115799720Y-80490096D01*
X115892458Y-80354212D01*
X115943351Y-80280103D01*
X116030899Y-80151083D01*
X116105958Y-80038484D01*
X116164526Y-79948413D01*
X116202602Y-79886976D01*
X116216183Y-79860278D01*
X116215960Y-79858799D01*
X116203980Y-79824956D01*
X116176495Y-79755847D01*
X116137337Y-79660502D01*
X116090337Y-79547946D01*
X116039326Y-79427208D01*
X115988135Y-79307316D01*
X115940596Y-79197296D01*
X115900540Y-79106178D01*
X115871798Y-79042987D01*
X115858201Y-79016753D01*
X115850156Y-79014426D01*
X115801276Y-79003930D01*
X115714159Y-78986542D01*
X115595778Y-78963623D01*
X115453107Y-78936529D01*
X115293118Y-78906622D01*
X115208796Y-78890765D01*
X115054028Y-78860511D01*
X114918707Y-78832571D01*
X114810229Y-78808549D01*
X114735991Y-78790050D01*
X114703389Y-78778680D01*
X114697533Y-78767407D01*
X114687819Y-78712332D01*
X114680187Y-78620601D01*
X114674631Y-78500845D01*
X114671145Y-78361697D01*
X114669724Y-78211787D01*
X114670361Y-78059746D01*
X114673051Y-77914206D01*
X114677787Y-77783797D01*
X114684564Y-77677152D01*
X114693375Y-77602900D01*
X114704216Y-77569673D01*
X114710794Y-77565925D01*
X114759856Y-77549849D01*
X114844964Y-77528580D01*
X114956281Y-77504446D01*
X115083971Y-77479775D01*
X115127054Y-77471918D01*
X115326038Y-77435376D01*
X115482423Y-77406008D01*
X115601628Y-77382597D01*
X115689074Y-77363924D01*
X115750183Y-77348772D01*
X115790376Y-77335923D01*
X115815073Y-77324160D01*
X115829695Y-77312265D01*
X115831395Y-77310269D01*
X115855307Y-77268647D01*
X115890692Y-77192488D01*
X115934119Y-77090725D01*
X115982160Y-76972294D01*
X116031386Y-76846129D01*
X116078366Y-76721164D01*
X116119671Y-76606334D01*
X116151872Y-76510574D01*
X116171540Y-76442818D01*
X116175246Y-76412001D01*
X116172768Y-76408003D01*
X116147122Y-76369334D01*
X116098891Y-76298011D01*
X116032549Y-76200604D01*
X115952565Y-76083684D01*
X115863413Y-75953820D01*
X115838946Y-75918090D01*
X115752908Y-75789928D01*
X115678552Y-75675310D01*
X115620123Y-75581031D01*
X115581864Y-75513889D01*
X115568019Y-75480683D01*
X115571002Y-75471953D01*
X115602100Y-75428936D01*
X115663456Y-75358688D01*
X115750674Y-75265939D01*
X115859362Y-75155416D01*
X115985126Y-75031847D01*
X116057011Y-74962683D01*
X116170671Y-74854961D01*
X116270154Y-74762693D01*
X116350116Y-74690737D01*
X116405216Y-74643950D01*
X116430113Y-74627191D01*
X116447218Y-74633403D01*
X116499882Y-74662792D01*
X116576362Y-74710855D01*
X116666682Y-74771506D01*
X116730899Y-74815765D01*
X116859106Y-74903657D01*
X116995917Y-74997003D01*
X117120879Y-75081827D01*
X117365674Y-75247403D01*
X117571161Y-75136298D01*
X117619547Y-75110653D01*
X117707541Y-75066788D01*
X117775588Y-75036504D01*
X117811955Y-75025212D01*
X117823857Y-75039713D01*
X117853411Y-75094926D01*
X117897063Y-75185956D01*
X117952385Y-75307026D01*
X118016948Y-75452359D01*
X118088322Y-75616177D01*
X118164079Y-75792705D01*
X118241789Y-75976165D01*
X118319024Y-76160780D01*
X118393355Y-76340772D01*
X118462353Y-76510366D01*
X118523588Y-76663783D01*
X118574632Y-76795248D01*
X118613056Y-76898982D01*
X118636431Y-76969209D01*
X118642328Y-77000152D01*
X118641928Y-77001056D01*
X118614462Y-77029661D01*
X118557012Y-77074461D01*
X118481438Y-77126167D01*
X118457584Y-77141956D01*
X118276076Y-77291744D01*
X118125858Y-77470151D01*
X118010484Y-77669753D01*
X117933511Y-77883121D01*
X117898497Y-78102831D01*
X117908998Y-78321456D01*
X117951534Y-78515907D01*
X118027908Y-78712261D01*
X118139246Y-78887434D01*
X118292037Y-79053836D01*
X118352072Y-79106994D01*
X118546153Y-79237967D01*
X118755812Y-79326174D01*
X118974974Y-79372406D01*
X119197564Y-79377451D01*
X119417504Y-79342098D01*
X119628721Y-79267139D01*
X119825138Y-79153361D01*
X120000679Y-79001555D01*
X120149269Y-78812509D01*
X120177837Y-78765694D01*
X120274938Y-78551714D01*
X120326508Y-78328892D01*
X120333897Y-78102996D01*
X120298456Y-77879799D01*
X120221535Y-77665071D01*
X120104485Y-77464582D01*
X119948656Y-77284104D01*
X119755398Y-77129408D01*
X119749122Y-77125239D01*
X119674349Y-77072548D01*
X119618307Y-77027749D01*
X119592711Y-77000152D01*
X119595941Y-76978516D01*
X119616021Y-76915519D01*
X119651627Y-76817880D01*
X119700331Y-76691376D01*
X119759703Y-76541786D01*
X119827317Y-76374888D01*
X119900745Y-76196461D01*
X119977557Y-76012282D01*
X120055327Y-75828131D01*
X120131626Y-75649785D01*
X120204027Y-75483023D01*
X120270101Y-75333624D01*
X120327419Y-75207364D01*
X120373556Y-75110024D01*
X120406081Y-75047380D01*
X120422568Y-75025212D01*
X120436278Y-75028215D01*
X120490141Y-75049792D01*
X120569747Y-75087625D01*
X120663361Y-75136298D01*
X120868849Y-75247403D01*
X121113644Y-75081827D01*
X121185966Y-75032798D01*
X121320485Y-74941189D01*
X121454596Y-74849433D01*
X121567841Y-74771506D01*
X121630340Y-74729037D01*
X121711572Y-74676274D01*
X121771802Y-74640153D01*
X121801220Y-74626761D01*
X121813858Y-74632447D01*
G37*
X189126207Y-62443954D02*
X189238789Y-63041145D01*
X189654203Y-63212392D01*
X190069616Y-63383639D01*
X190567974Y-63044760D01*
X190666610Y-62977952D01*
X190797370Y-62890261D01*
X190910581Y-62815362D01*
X191000362Y-62757102D01*
X191060834Y-62719327D01*
X191086117Y-62705880D01*
X191101645Y-62715443D01*
X191148060Y-62755512D01*
X191218303Y-62821269D01*
X191306421Y-62906677D01*
X191406462Y-63005697D01*
X191512475Y-63112291D01*
X191618508Y-63220422D01*
X191718608Y-63324050D01*
X191806825Y-63417140D01*
X191877205Y-63493651D01*
X191923798Y-63547547D01*
X191940652Y-63572789D01*
X191936731Y-63583634D01*
X191909585Y-63632010D01*
X191860012Y-63711624D01*
X191792032Y-63816236D01*
X191709664Y-63939604D01*
X191616926Y-64075488D01*
X191566033Y-64149597D01*
X191478485Y-64278617D01*
X191403426Y-64391216D01*
X191344858Y-64481287D01*
X191306782Y-64542724D01*
X191293201Y-64569422D01*
X191293424Y-64570901D01*
X191305404Y-64604744D01*
X191332889Y-64673853D01*
X191372047Y-64769198D01*
X191419047Y-64881754D01*
X191470058Y-65002492D01*
X191521249Y-65122384D01*
X191568788Y-65232404D01*
X191608844Y-65323522D01*
X191637586Y-65386713D01*
X191651183Y-65412947D01*
X191659228Y-65415274D01*
X191708108Y-65425770D01*
X191795225Y-65443158D01*
X191913606Y-65466077D01*
X192056277Y-65493171D01*
X192216266Y-65523078D01*
X192300588Y-65538935D01*
X192455356Y-65569189D01*
X192590677Y-65597129D01*
X192699155Y-65621151D01*
X192773393Y-65639650D01*
X192805995Y-65651020D01*
X192811851Y-65662293D01*
X192821565Y-65717368D01*
X192829197Y-65809099D01*
X192834753Y-65928855D01*
X192838239Y-66068003D01*
X192839660Y-66217913D01*
X192839023Y-66369954D01*
X192836333Y-66515494D01*
X192831597Y-66645903D01*
X192824820Y-66752548D01*
X192816009Y-66826800D01*
X192805168Y-66860027D01*
X192798590Y-66863775D01*
X192749528Y-66879851D01*
X192664420Y-66901120D01*
X192553103Y-66925254D01*
X192425413Y-66949925D01*
X192382330Y-66957782D01*
X192183346Y-66994324D01*
X192026961Y-67023692D01*
X191907756Y-67047103D01*
X191820310Y-67065776D01*
X191759201Y-67080928D01*
X191719008Y-67093777D01*
X191694311Y-67105540D01*
X191679689Y-67117435D01*
X191677989Y-67119431D01*
X191654077Y-67161053D01*
X191618692Y-67237212D01*
X191575265Y-67338975D01*
X191527224Y-67457406D01*
X191477998Y-67583571D01*
X191431018Y-67708536D01*
X191389713Y-67823366D01*
X191357512Y-67919126D01*
X191337844Y-67986882D01*
X191334138Y-68017699D01*
X191336616Y-68021697D01*
X191362262Y-68060366D01*
X191410493Y-68131689D01*
X191476835Y-68229096D01*
X191556819Y-68346016D01*
X191645971Y-68475880D01*
X191670438Y-68511610D01*
X191756476Y-68639772D01*
X191830832Y-68754390D01*
X191889261Y-68848669D01*
X191927520Y-68915811D01*
X191941365Y-68949017D01*
X191938382Y-68957747D01*
X191907284Y-69000764D01*
X191845928Y-69071012D01*
X191758710Y-69163761D01*
X191650022Y-69274284D01*
X191524258Y-69397853D01*
X191452373Y-69467017D01*
X191338713Y-69574739D01*
X191239230Y-69667007D01*
X191159268Y-69738963D01*
X191104168Y-69785750D01*
X191079271Y-69802509D01*
X191062166Y-69796297D01*
X191009502Y-69766908D01*
X190933022Y-69718845D01*
X190842702Y-69658194D01*
X190778485Y-69613935D01*
X190650278Y-69526043D01*
X190513467Y-69432697D01*
X190388505Y-69347873D01*
X190143710Y-69182297D01*
X189938223Y-69293402D01*
X189889837Y-69319047D01*
X189801843Y-69362912D01*
X189733796Y-69393196D01*
X189697429Y-69404488D01*
X189685527Y-69389987D01*
X189655973Y-69334774D01*
X189612321Y-69243744D01*
X189556999Y-69122674D01*
X189492436Y-68977341D01*
X189421062Y-68813523D01*
X189345305Y-68636995D01*
X189267595Y-68453535D01*
X189190360Y-68268920D01*
X189116029Y-68088928D01*
X189047031Y-67919334D01*
X188985796Y-67765917D01*
X188934752Y-67634452D01*
X188896328Y-67530718D01*
X188872953Y-67460491D01*
X188867056Y-67429548D01*
X188867456Y-67428644D01*
X188894922Y-67400039D01*
X188952372Y-67355239D01*
X189027946Y-67303533D01*
X189051800Y-67287744D01*
X189233308Y-67137956D01*
X189383526Y-66959549D01*
X189498900Y-66759947D01*
X189575873Y-66546579D01*
X189610887Y-66326869D01*
X189600386Y-66108244D01*
X189557850Y-65913793D01*
X189481476Y-65717439D01*
X189370138Y-65542266D01*
X189217347Y-65375864D01*
X189157312Y-65322706D01*
X188963231Y-65191733D01*
X188753572Y-65103526D01*
X188534410Y-65057294D01*
X188311820Y-65052249D01*
X188091880Y-65087602D01*
X187880663Y-65162561D01*
X187684246Y-65276339D01*
X187508705Y-65428145D01*
X187360115Y-65617191D01*
X187331547Y-65664006D01*
X187234446Y-65877986D01*
X187182876Y-66100808D01*
X187175487Y-66326704D01*
X187210928Y-66549901D01*
X187287849Y-66764629D01*
X187404899Y-66965118D01*
X187560728Y-67145596D01*
X187753986Y-67300292D01*
X187760262Y-67304461D01*
X187835035Y-67357152D01*
X187891077Y-67401951D01*
X187916673Y-67429548D01*
X187913443Y-67451184D01*
X187893363Y-67514181D01*
X187857757Y-67611820D01*
X187809053Y-67738324D01*
X187749681Y-67887914D01*
X187682067Y-68054812D01*
X187608639Y-68233239D01*
X187531827Y-68417418D01*
X187454057Y-68601569D01*
X187377758Y-68779915D01*
X187305357Y-68946677D01*
X187239283Y-69096076D01*
X187181965Y-69222336D01*
X187135828Y-69319676D01*
X187103303Y-69382320D01*
X187086816Y-69404488D01*
X187073106Y-69401485D01*
X187019243Y-69379908D01*
X186939637Y-69342075D01*
X186846023Y-69293402D01*
X186640535Y-69182297D01*
X186395740Y-69347873D01*
X186323418Y-69396902D01*
X186188899Y-69488511D01*
X186054788Y-69580267D01*
X185941543Y-69658194D01*
X185879044Y-69700663D01*
X185797812Y-69753426D01*
X185737582Y-69789547D01*
X185708164Y-69802939D01*
X185695526Y-69797253D01*
X185649840Y-69762427D01*
X185579411Y-69701111D01*
X185490369Y-69619336D01*
X185388845Y-69523133D01*
X185280968Y-69418533D01*
X185172868Y-69311568D01*
X185070676Y-69208267D01*
X184980523Y-69114664D01*
X184908538Y-69036788D01*
X184860851Y-68980671D01*
X184843593Y-68952344D01*
X184844588Y-68946954D01*
X184865128Y-68903086D01*
X184909007Y-68827189D01*
X184971985Y-68726118D01*
X185049821Y-68606730D01*
X185138275Y-68475880D01*
X185163082Y-68439787D01*
X185250191Y-68312782D01*
X185326920Y-68200500D01*
X185388797Y-68109512D01*
X185431350Y-68046388D01*
X185450107Y-68017699D01*
X185450568Y-68016469D01*
X185445032Y-67981370D01*
X185423893Y-67910266D01*
X185390578Y-67812092D01*
X185348518Y-67695784D01*
X185301143Y-67570275D01*
X185251881Y-67444500D01*
X185204162Y-67327394D01*
X185161415Y-67227892D01*
X185127070Y-67154927D01*
X185104556Y-67117435D01*
X185102301Y-67115107D01*
X185086181Y-67103331D01*
X185058956Y-67091455D01*
X185015206Y-67078263D01*
X184949508Y-67062536D01*
X184856443Y-67043056D01*
X184730589Y-67018606D01*
X184566526Y-66987968D01*
X184358832Y-66949925D01*
X184315754Y-66941918D01*
X184192350Y-66917166D01*
X184088545Y-66893715D01*
X184014174Y-66873892D01*
X183979077Y-66860027D01*
X183973205Y-66848459D01*
X183963416Y-66792892D01*
X183955658Y-66700772D01*
X183949938Y-66580733D01*
X183946262Y-66441404D01*
X183944635Y-66291417D01*
X183945064Y-66139403D01*
X183947555Y-65993994D01*
X183952113Y-65863819D01*
X183958744Y-65757512D01*
X183967455Y-65683701D01*
X183978250Y-65651020D01*
X183989272Y-65646192D01*
X184044104Y-65630973D01*
X184136786Y-65609448D01*
X184259924Y-65583221D01*
X184406121Y-65553896D01*
X184567980Y-65523078D01*
X184656357Y-65506613D01*
X184807832Y-65478061D01*
X184938213Y-65453059D01*
X185040528Y-65432967D01*
X185107801Y-65419144D01*
X185133062Y-65412947D01*
X185134012Y-65411670D01*
X185150099Y-65379219D01*
X185180767Y-65311234D01*
X185222184Y-65216736D01*
X185270514Y-65104746D01*
X185321927Y-64984282D01*
X185372587Y-64864366D01*
X185418662Y-64754017D01*
X185456319Y-64662255D01*
X185481724Y-64598101D01*
X185491044Y-64570574D01*
X185486933Y-64560888D01*
X185459573Y-64514800D01*
X185409943Y-64437222D01*
X185342033Y-64334243D01*
X185259828Y-64211949D01*
X185167319Y-64076428D01*
X185116565Y-64002211D01*
X185028976Y-63872091D01*
X184953880Y-63757894D01*
X184895280Y-63665848D01*
X184857182Y-63602180D01*
X184843593Y-63573119D01*
X184853036Y-63557355D01*
X184892533Y-63510253D01*
X184957331Y-63438968D01*
X185041482Y-63349542D01*
X185139037Y-63248014D01*
X185244047Y-63140425D01*
X185350566Y-63032816D01*
X185452644Y-62931227D01*
X185544333Y-62841699D01*
X185619685Y-62770271D01*
X185672753Y-62722985D01*
X185697587Y-62705880D01*
X185711372Y-62712531D01*
X185761991Y-62743374D01*
X185843678Y-62795865D01*
X185950545Y-62866157D01*
X186076705Y-62950404D01*
X186216272Y-63044760D01*
X186714629Y-63383639D01*
X187130043Y-63212392D01*
X187545456Y-63041145D01*
X187658038Y-62443954D01*
X187770621Y-61846762D01*
X189013624Y-61846762D01*
X189126207Y-62443954D01*
G36*
X189126207Y-62443954D02*
G01*
X189238789Y-63041145D01*
X189654203Y-63212392D01*
X190069616Y-63383639D01*
X190567974Y-63044760D01*
X190666610Y-62977952D01*
X190797370Y-62890261D01*
X190910581Y-62815362D01*
X191000362Y-62757102D01*
X191060834Y-62719327D01*
X191086117Y-62705880D01*
X191101645Y-62715443D01*
X191148060Y-62755512D01*
X191218303Y-62821269D01*
X191306421Y-62906677D01*
X191406462Y-63005697D01*
X191512475Y-63112291D01*
X191618508Y-63220422D01*
X191718608Y-63324050D01*
X191806825Y-63417140D01*
X191877205Y-63493651D01*
X191923798Y-63547547D01*
X191940652Y-63572789D01*
X191936731Y-63583634D01*
X191909585Y-63632010D01*
X191860012Y-63711624D01*
X191792032Y-63816236D01*
X191709664Y-63939604D01*
X191616926Y-64075488D01*
X191566033Y-64149597D01*
X191478485Y-64278617D01*
X191403426Y-64391216D01*
X191344858Y-64481287D01*
X191306782Y-64542724D01*
X191293201Y-64569422D01*
X191293424Y-64570901D01*
X191305404Y-64604744D01*
X191332889Y-64673853D01*
X191372047Y-64769198D01*
X191419047Y-64881754D01*
X191470058Y-65002492D01*
X191521249Y-65122384D01*
X191568788Y-65232404D01*
X191608844Y-65323522D01*
X191637586Y-65386713D01*
X191651183Y-65412947D01*
X191659228Y-65415274D01*
X191708108Y-65425770D01*
X191795225Y-65443158D01*
X191913606Y-65466077D01*
X192056277Y-65493171D01*
X192216266Y-65523078D01*
X192300588Y-65538935D01*
X192455356Y-65569189D01*
X192590677Y-65597129D01*
X192699155Y-65621151D01*
X192773393Y-65639650D01*
X192805995Y-65651020D01*
X192811851Y-65662293D01*
X192821565Y-65717368D01*
X192829197Y-65809099D01*
X192834753Y-65928855D01*
X192838239Y-66068003D01*
X192839660Y-66217913D01*
X192839023Y-66369954D01*
X192836333Y-66515494D01*
X192831597Y-66645903D01*
X192824820Y-66752548D01*
X192816009Y-66826800D01*
X192805168Y-66860027D01*
X192798590Y-66863775D01*
X192749528Y-66879851D01*
X192664420Y-66901120D01*
X192553103Y-66925254D01*
X192425413Y-66949925D01*
X192382330Y-66957782D01*
X192183346Y-66994324D01*
X192026961Y-67023692D01*
X191907756Y-67047103D01*
X191820310Y-67065776D01*
X191759201Y-67080928D01*
X191719008Y-67093777D01*
X191694311Y-67105540D01*
X191679689Y-67117435D01*
X191677989Y-67119431D01*
X191654077Y-67161053D01*
X191618692Y-67237212D01*
X191575265Y-67338975D01*
X191527224Y-67457406D01*
X191477998Y-67583571D01*
X191431018Y-67708536D01*
X191389713Y-67823366D01*
X191357512Y-67919126D01*
X191337844Y-67986882D01*
X191334138Y-68017699D01*
X191336616Y-68021697D01*
X191362262Y-68060366D01*
X191410493Y-68131689D01*
X191476835Y-68229096D01*
X191556819Y-68346016D01*
X191645971Y-68475880D01*
X191670438Y-68511610D01*
X191756476Y-68639772D01*
X191830832Y-68754390D01*
X191889261Y-68848669D01*
X191927520Y-68915811D01*
X191941365Y-68949017D01*
X191938382Y-68957747D01*
X191907284Y-69000764D01*
X191845928Y-69071012D01*
X191758710Y-69163761D01*
X191650022Y-69274284D01*
X191524258Y-69397853D01*
X191452373Y-69467017D01*
X191338713Y-69574739D01*
X191239230Y-69667007D01*
X191159268Y-69738963D01*
X191104168Y-69785750D01*
X191079271Y-69802509D01*
X191062166Y-69796297D01*
X191009502Y-69766908D01*
X190933022Y-69718845D01*
X190842702Y-69658194D01*
X190778485Y-69613935D01*
X190650278Y-69526043D01*
X190513467Y-69432697D01*
X190388505Y-69347873D01*
X190143710Y-69182297D01*
X189938223Y-69293402D01*
X189889837Y-69319047D01*
X189801843Y-69362912D01*
X189733796Y-69393196D01*
X189697429Y-69404488D01*
X189685527Y-69389987D01*
X189655973Y-69334774D01*
X189612321Y-69243744D01*
X189556999Y-69122674D01*
X189492436Y-68977341D01*
X189421062Y-68813523D01*
X189345305Y-68636995D01*
X189267595Y-68453535D01*
X189190360Y-68268920D01*
X189116029Y-68088928D01*
X189047031Y-67919334D01*
X188985796Y-67765917D01*
X188934752Y-67634452D01*
X188896328Y-67530718D01*
X188872953Y-67460491D01*
X188867056Y-67429548D01*
X188867456Y-67428644D01*
X188894922Y-67400039D01*
X188952372Y-67355239D01*
X189027946Y-67303533D01*
X189051800Y-67287744D01*
X189233308Y-67137956D01*
X189383526Y-66959549D01*
X189498900Y-66759947D01*
X189575873Y-66546579D01*
X189610887Y-66326869D01*
X189600386Y-66108244D01*
X189557850Y-65913793D01*
X189481476Y-65717439D01*
X189370138Y-65542266D01*
X189217347Y-65375864D01*
X189157312Y-65322706D01*
X188963231Y-65191733D01*
X188753572Y-65103526D01*
X188534410Y-65057294D01*
X188311820Y-65052249D01*
X188091880Y-65087602D01*
X187880663Y-65162561D01*
X187684246Y-65276339D01*
X187508705Y-65428145D01*
X187360115Y-65617191D01*
X187331547Y-65664006D01*
X187234446Y-65877986D01*
X187182876Y-66100808D01*
X187175487Y-66326704D01*
X187210928Y-66549901D01*
X187287849Y-66764629D01*
X187404899Y-66965118D01*
X187560728Y-67145596D01*
X187753986Y-67300292D01*
X187760262Y-67304461D01*
X187835035Y-67357152D01*
X187891077Y-67401951D01*
X187916673Y-67429548D01*
X187913443Y-67451184D01*
X187893363Y-67514181D01*
X187857757Y-67611820D01*
X187809053Y-67738324D01*
X187749681Y-67887914D01*
X187682067Y-68054812D01*
X187608639Y-68233239D01*
X187531827Y-68417418D01*
X187454057Y-68601569D01*
X187377758Y-68779915D01*
X187305357Y-68946677D01*
X187239283Y-69096076D01*
X187181965Y-69222336D01*
X187135828Y-69319676D01*
X187103303Y-69382320D01*
X187086816Y-69404488D01*
X187073106Y-69401485D01*
X187019243Y-69379908D01*
X186939637Y-69342075D01*
X186846023Y-69293402D01*
X186640535Y-69182297D01*
X186395740Y-69347873D01*
X186323418Y-69396902D01*
X186188899Y-69488511D01*
X186054788Y-69580267D01*
X185941543Y-69658194D01*
X185879044Y-69700663D01*
X185797812Y-69753426D01*
X185737582Y-69789547D01*
X185708164Y-69802939D01*
X185695526Y-69797253D01*
X185649840Y-69762427D01*
X185579411Y-69701111D01*
X185490369Y-69619336D01*
X185388845Y-69523133D01*
X185280968Y-69418533D01*
X185172868Y-69311568D01*
X185070676Y-69208267D01*
X184980523Y-69114664D01*
X184908538Y-69036788D01*
X184860851Y-68980671D01*
X184843593Y-68952344D01*
X184844588Y-68946954D01*
X184865128Y-68903086D01*
X184909007Y-68827189D01*
X184971985Y-68726118D01*
X185049821Y-68606730D01*
X185138275Y-68475880D01*
X185163082Y-68439787D01*
X185250191Y-68312782D01*
X185326920Y-68200500D01*
X185388797Y-68109512D01*
X185431350Y-68046388D01*
X185450107Y-68017699D01*
X185450568Y-68016469D01*
X185445032Y-67981370D01*
X185423893Y-67910266D01*
X185390578Y-67812092D01*
X185348518Y-67695784D01*
X185301143Y-67570275D01*
X185251881Y-67444500D01*
X185204162Y-67327394D01*
X185161415Y-67227892D01*
X185127070Y-67154927D01*
X185104556Y-67117435D01*
X185102301Y-67115107D01*
X185086181Y-67103331D01*
X185058956Y-67091455D01*
X185015206Y-67078263D01*
X184949508Y-67062536D01*
X184856443Y-67043056D01*
X184730589Y-67018606D01*
X184566526Y-66987968D01*
X184358832Y-66949925D01*
X184315754Y-66941918D01*
X184192350Y-66917166D01*
X184088545Y-66893715D01*
X184014174Y-66873892D01*
X183979077Y-66860027D01*
X183973205Y-66848459D01*
X183963416Y-66792892D01*
X183955658Y-66700772D01*
X183949938Y-66580733D01*
X183946262Y-66441404D01*
X183944635Y-66291417D01*
X183945064Y-66139403D01*
X183947555Y-65993994D01*
X183952113Y-65863819D01*
X183958744Y-65757512D01*
X183967455Y-65683701D01*
X183978250Y-65651020D01*
X183989272Y-65646192D01*
X184044104Y-65630973D01*
X184136786Y-65609448D01*
X184259924Y-65583221D01*
X184406121Y-65553896D01*
X184567980Y-65523078D01*
X184656357Y-65506613D01*
X184807832Y-65478061D01*
X184938213Y-65453059D01*
X185040528Y-65432967D01*
X185107801Y-65419144D01*
X185133062Y-65412947D01*
X185134012Y-65411670D01*
X185150099Y-65379219D01*
X185180767Y-65311234D01*
X185222184Y-65216736D01*
X185270514Y-65104746D01*
X185321927Y-64984282D01*
X185372587Y-64864366D01*
X185418662Y-64754017D01*
X185456319Y-64662255D01*
X185481724Y-64598101D01*
X185491044Y-64570574D01*
X185486933Y-64560888D01*
X185459573Y-64514800D01*
X185409943Y-64437222D01*
X185342033Y-64334243D01*
X185259828Y-64211949D01*
X185167319Y-64076428D01*
X185116565Y-64002211D01*
X185028976Y-63872091D01*
X184953880Y-63757894D01*
X184895280Y-63665848D01*
X184857182Y-63602180D01*
X184843593Y-63573119D01*
X184853036Y-63557355D01*
X184892533Y-63510253D01*
X184957331Y-63438968D01*
X185041482Y-63349542D01*
X185139037Y-63248014D01*
X185244047Y-63140425D01*
X185350566Y-63032816D01*
X185452644Y-62931227D01*
X185544333Y-62841699D01*
X185619685Y-62770271D01*
X185672753Y-62722985D01*
X185697587Y-62705880D01*
X185711372Y-62712531D01*
X185761991Y-62743374D01*
X185843678Y-62795865D01*
X185950545Y-62866157D01*
X186076705Y-62950404D01*
X186216272Y-63044760D01*
X186714629Y-63383639D01*
X187130043Y-63212392D01*
X187545456Y-63041145D01*
X187658038Y-62443954D01*
X187770621Y-61846762D01*
X189013624Y-61846762D01*
X189126207Y-62443954D01*
G37*
D11*
%TO.C,JP1*%
X100492000Y-84591000D02*
X102492000Y-84591000D01*
X102492000Y-84591000D02*
X102492000Y-81791000D01*
X100492000Y-81791000D02*
X100492000Y-84591000D01*
X102492000Y-81791000D02*
X100492000Y-81791000D01*
%TO.C,J3*%
X159530299Y-71244553D02*
X167150299Y-71244553D01*
X167150299Y-71244553D02*
X167150299Y-73784553D01*
X167150299Y-73784553D02*
X159530299Y-73784553D01*
X159530299Y-73784553D02*
X159530299Y-71244553D01*
%TO.C,J13*%
X159530299Y-62964553D02*
X167150299Y-62964553D01*
X167150299Y-62964553D02*
X167150299Y-65504553D01*
X167150299Y-65504553D02*
X159530299Y-65504553D01*
X159530299Y-65504553D02*
X159530299Y-62964553D01*
%TO.C,J19*%
X173730299Y-64724553D02*
X171190299Y-64724553D01*
X171190299Y-64724553D02*
X171190299Y-74884553D01*
X171190299Y-74884553D02*
X173730299Y-74884553D01*
X173730299Y-74884553D02*
X173730299Y-64724553D01*
%TO.C,J21*%
X169690299Y-64724553D02*
X167150299Y-64724553D01*
X167150299Y-64724553D02*
X167150299Y-74884553D01*
X167150299Y-74884553D02*
X169690299Y-74884553D01*
X169690299Y-74884553D02*
X169690299Y-64724553D01*
D10*
%TO.C,J5*%
X129480236Y-64594850D02*
X129480236Y-87454850D01*
X132020236Y-87454850D02*
X132020236Y-64594850D01*
D11*
%TO.C,J22*%
X193985000Y-83074850D02*
X192985000Y-83074850D01*
X193985000Y-83074850D02*
X193485000Y-82574850D01*
X193485000Y-82574850D02*
X192985000Y-83074850D01*
%TO.C,D1*%
X95902000Y-78841000D02*
X96362000Y-78841000D01*
D10*
X97936400Y-78841000D02*
X98336400Y-78841000D01*
X98336400Y-78841000D02*
X98336400Y-78291000D01*
X98336400Y-78841000D02*
X98336400Y-79391000D01*
X98336400Y-78841000D02*
X98936400Y-79241000D01*
X98936400Y-78441000D02*
X98336400Y-78841000D01*
X98936400Y-78841000D02*
X99436400Y-78841000D01*
X98936400Y-79241000D02*
X98936400Y-78441000D01*
D11*
X101442000Y-78841000D02*
X100962000Y-78841000D01*
%TO.C,JP1*%
X94081000Y-58849000D02*
X92081000Y-58849000D01*
X92081000Y-58849000D02*
X92081000Y-61649000D01*
X94081000Y-61649000D02*
X94081000Y-58849000D01*
X92081000Y-61649000D02*
X94081000Y-61649000D01*
%TO.C,J6*%
X127710236Y-54884850D02*
X126710236Y-54884850D01*
X127710236Y-54884850D02*
X127210236Y-54384850D01*
X127210236Y-54384850D02*
X126710236Y-54884850D01*
D10*
X115780236Y-54114850D02*
X128480236Y-54114850D01*
X128480236Y-54114850D02*
X128480236Y-51574850D01*
X115780236Y-51574850D02*
X115780236Y-54114850D01*
X128480236Y-51574850D02*
X115780236Y-51574850D01*
D11*
%TO.C,J15*%
X159530299Y-67104553D02*
X167150299Y-67104553D01*
X167150299Y-67104553D02*
X167150299Y-69644553D01*
X167150299Y-69644553D02*
X159530299Y-69644553D01*
X159530299Y-69644553D02*
X159530299Y-67104553D01*
%TD*%
M02*
