%TF.GenerationSoftware,KiCad,Pcbnew,7.0.5*%
%TF.CreationDate,2024-01-24T21:19:46+08:00*%
%TF.ProjectId,main,6d61696e-2e6b-4696-9361-645f70636258,rev?*%
%TF.SameCoordinates,Original*%
%TF.FileFunction,Soldermask,Top*%
%TF.FilePolarity,Negative*%
%FSLAX46Y46*%
G04 Gerber Fmt 4.6, Leading zero omitted, Abs format (unit mm)*
G04 Created by KiCad (PCBNEW 7.0.5) date 2024-01-24 21:19:46*
%MOMM*%
%LPD*%
G01*
G04 APERTURE LIST*
%ADD10C,2.200000*%
%ADD11C,1.700000*%
%ADD12O,1.700000X1.700000*%
%ADD13C,0.450000*%
%ADD14C,1.596000*%
%ADD15O,3.200000X2.000000*%
%ADD16R,2.000000X2.000000*%
%ADD17C,2.000000*%
%ADD18C,0.800000*%
%ADD19O,1.500000X1.900000*%
%ADD20O,1.500000X1.800000*%
%ADD21C,1.752600*%
%ADD22R,1.600000X1.600000*%
%ADD23O,1.600000X1.600000*%
G04 APERTURE END LIST*
D10*
%TO.C,H3*%
X201660000Y-90654850D03*
%TD*%
D11*
%TO.C,J18*%
X196080000Y-76024850D03*
D12*
X196080000Y-78564850D03*
X196080000Y-81104850D03*
%TD*%
D11*
%TO.C,J13*%
X140500000Y-79204850D03*
D12*
X143040000Y-79204850D03*
X145580000Y-79204850D03*
%TD*%
D11*
%TO.C,J23*%
X202590000Y-81104850D03*
D12*
X202590000Y-83644850D03*
X202590000Y-86184850D03*
%TD*%
D13*
%TO.C,H23*%
X158810000Y-74919850D03*
X158810000Y-74119850D03*
X158810000Y-73319850D03*
X158810000Y-72519850D03*
X158810000Y-71719850D03*
X158810000Y-70919850D03*
X158810000Y-70119850D03*
X158810000Y-69319850D03*
X158810000Y-68519850D03*
%TD*%
D14*
%TO.C,H19*%
X89210236Y-103014850D03*
%TD*%
D15*
%TO.C,RE1*%
X97181000Y-61849000D03*
X97181000Y-50649000D03*
D16*
X104681000Y-58749000D03*
D17*
X104681000Y-53749000D03*
X104681000Y-56249000D03*
X90181000Y-53749000D03*
X90181000Y-58749000D03*
%TD*%
D11*
%TO.C,J19*%
X152160000Y-77444850D03*
D12*
X152160000Y-74904850D03*
X152160000Y-72364850D03*
X152160000Y-69824850D03*
%TD*%
D11*
%TO.C,J16*%
X140510000Y-52484850D03*
D12*
X143050000Y-52484850D03*
D11*
X145590000Y-52484850D03*
X148130000Y-52484850D03*
X150670000Y-52484850D03*
X153210000Y-52484850D03*
%TD*%
%TO.C,J26*%
X99932000Y-75921000D03*
D12*
X97392000Y-75921000D03*
X94852000Y-75921000D03*
%TD*%
D11*
%TO.C,J21*%
X148120000Y-77444850D03*
D12*
X148120000Y-74904850D03*
X148120000Y-72364850D03*
X148120000Y-69824850D03*
%TD*%
D18*
%TO.C,T1*%
X211538000Y-47485000D03*
X211538000Y-54485000D03*
X213538000Y-47485000D03*
X213538000Y-54485000D03*
D19*
X209238000Y-56085000D03*
X215838000Y-56085000D03*
D20*
X209238000Y-49037000D03*
X215838000Y-49037000D03*
D19*
X209238000Y-52085000D03*
X215838000Y-52085000D03*
X211238000Y-57185000D03*
X213838000Y-57185000D03*
%TD*%
D11*
%TO.C,J9*%
X140510000Y-57564850D03*
D12*
X143050000Y-57564850D03*
D11*
X145590000Y-57564850D03*
X148130000Y-57564850D03*
X150670000Y-57564850D03*
X153210000Y-57564850D03*
%TD*%
%TO.C,J4*%
X202590000Y-58244850D03*
D12*
X202590000Y-60784850D03*
X202590000Y-63324850D03*
X202590000Y-65864850D03*
D11*
X202590000Y-68404850D03*
X202590000Y-70944850D03*
X202590000Y-73484850D03*
X202590000Y-76024850D03*
X202590000Y-78564850D03*
%TD*%
%TO.C,J24*%
X180730000Y-76024850D03*
D12*
X180730000Y-78564850D03*
X180730000Y-81104850D03*
%TD*%
D11*
%TO.C,J6*%
X196510000Y-91584850D03*
D12*
X193970000Y-91584850D03*
D11*
X191430000Y-91584850D03*
X188890000Y-91584850D03*
X186350000Y-91584850D03*
%TD*%
D10*
%TO.C,H7*%
X152659997Y-94924851D03*
%TD*%
D13*
%TO.C,H28*%
X94170000Y-69089000D03*
X94970000Y-69089000D03*
X95770000Y-69089000D03*
X96570000Y-69089000D03*
X97370000Y-69089000D03*
X98170000Y-69089000D03*
X98970000Y-69089000D03*
X99770000Y-69089000D03*
X100570000Y-69089000D03*
%TD*%
D10*
%TO.C,H33*%
X219966000Y-82282000D03*
%TD*%
%TO.C,H2*%
X201660000Y-53774850D03*
%TD*%
D21*
%TO.C,U1*%
X180730000Y-53164850D03*
X180730000Y-55704850D03*
X180730000Y-58244850D03*
X180730000Y-60784850D03*
X180730000Y-63324850D03*
X180730000Y-65864850D03*
X180730000Y-68404850D03*
X180730000Y-70944850D03*
X180730000Y-73484850D03*
X196080000Y-53164850D03*
X196080000Y-55704850D03*
X196080000Y-58244850D03*
X196080000Y-60784850D03*
X196080000Y-63324850D03*
X196080000Y-65864850D03*
X196080000Y-68404850D03*
X196080000Y-70944850D03*
X196080000Y-73484850D03*
X193485000Y-73484850D03*
X190945000Y-73484850D03*
X188405000Y-73484850D03*
X185865000Y-73484850D03*
X183325000Y-73484850D03*
%TD*%
D11*
%TO.C,J1*%
X140500000Y-90954850D03*
D12*
X143040000Y-90954850D03*
%TD*%
D10*
%TO.C,H32*%
X219966000Y-47935000D03*
%TD*%
D13*
%TO.C,H15*%
X150060000Y-97474850D03*
X149260000Y-97474850D03*
X148460000Y-97474850D03*
X147660000Y-97474850D03*
X146860000Y-97474850D03*
X146060000Y-97474850D03*
X145260000Y-97474850D03*
X144460000Y-97474850D03*
X143660000Y-97474850D03*
%TD*%
D14*
%TO.C,H17*%
X220810000Y-40424850D03*
%TD*%
%TO.C,H16*%
X89210236Y-40424850D03*
%TD*%
D10*
%TO.C,H33*%
X210210000Y-61158000D03*
%TD*%
D11*
%TO.C,J20*%
X200050000Y-81104850D03*
D12*
X200050000Y-83644850D03*
X200050000Y-86184850D03*
%TD*%
D11*
%TO.C,J14*%
X152160000Y-90954850D03*
D12*
X152160000Y-88414850D03*
D11*
X152160000Y-85874850D03*
X152160000Y-83334850D03*
X152160000Y-80794850D03*
%TD*%
%TO.C,J25*%
X209280000Y-90832000D03*
D12*
X209280000Y-88292000D03*
X209280000Y-85752000D03*
%TD*%
D11*
%TO.C,J12*%
X140510000Y-64244850D03*
D12*
X143050000Y-64244850D03*
D11*
X145590000Y-64244850D03*
X148130000Y-64244850D03*
X150670000Y-64244850D03*
X153210000Y-64244850D03*
%TD*%
D13*
%TO.C,H21*%
X155210000Y-74919850D03*
X155210000Y-74119850D03*
X155210000Y-73319850D03*
X155210000Y-72519850D03*
X155210000Y-71719850D03*
X155210000Y-70919850D03*
X155210000Y-70119850D03*
X155210000Y-69319850D03*
X155210000Y-68519850D03*
%TD*%
D11*
%TO.C,J28*%
X92322000Y-78841000D03*
%TD*%
D13*
%TO.C,H9*%
X188460000Y-93204850D03*
X189260000Y-93204850D03*
X190060000Y-93204850D03*
X190860000Y-93204850D03*
X191660000Y-93204850D03*
X192460000Y-93204850D03*
X193260000Y-93204850D03*
X194060000Y-93204850D03*
X194860000Y-93204850D03*
%TD*%
D11*
%TO.C,J8*%
X148130000Y-90954850D03*
D12*
X148130000Y-88414850D03*
D11*
X148130000Y-85874850D03*
X148130000Y-83334850D03*
X148130000Y-80794850D03*
%TD*%
%TO.C,J27*%
X94641000Y-47005000D03*
D12*
X97181000Y-47005000D03*
X99721000Y-47005000D03*
%TD*%
D11*
%TO.C,J2*%
X140500000Y-88414850D03*
D12*
X143040000Y-88414850D03*
%TD*%
D13*
%TO.C,H27*%
X221766000Y-98005000D03*
X220966000Y-98005000D03*
X220166000Y-98005000D03*
X219366000Y-98005000D03*
X218566000Y-98005000D03*
X217766000Y-98005000D03*
X216966000Y-98005000D03*
X216166000Y-98005000D03*
X215366000Y-98005000D03*
%TD*%
D11*
%TO.C,J27*%
X99932000Y-96435000D03*
D12*
X97392000Y-96435000D03*
X94852000Y-96435000D03*
%TD*%
D10*
%TO.C,H5*%
X141060000Y-48514850D03*
%TD*%
D13*
%TO.C,H13*%
X150060000Y-45964850D03*
X149260000Y-45964850D03*
X148460000Y-45964850D03*
X147660000Y-45964850D03*
X146860000Y-45964850D03*
X146060000Y-45964850D03*
X145260000Y-45964850D03*
X144460000Y-45964850D03*
X143660000Y-45964850D03*
%TD*%
D10*
%TO.C,H32*%
X210210000Y-95505000D03*
%TD*%
%TO.C,H1*%
X141059997Y-94924851D03*
%TD*%
D11*
%TO.C,J25*%
X220896000Y-52608000D03*
D12*
X220896000Y-55148000D03*
X220896000Y-57688000D03*
%TD*%
D11*
%TO.C,J11*%
X140510000Y-55024850D03*
D12*
X143050000Y-55024850D03*
D11*
X145590000Y-55024850D03*
X148130000Y-55024850D03*
X150670000Y-55024850D03*
X153210000Y-55024850D03*
%TD*%
%TO.C,J3*%
X140500000Y-70924850D03*
D12*
X143040000Y-70924850D03*
X145580000Y-70924850D03*
%TD*%
D13*
%TO.C,H11*%
X119160000Y-51224850D03*
X119960000Y-51224850D03*
X120760000Y-51224850D03*
X121560000Y-51224850D03*
X122360000Y-51224850D03*
X123160000Y-51224850D03*
X123960000Y-51224850D03*
X124760000Y-51224850D03*
X125560000Y-51224850D03*
%TD*%
%TO.C,H29*%
X100802000Y-98005000D03*
X100002000Y-98005000D03*
X99202000Y-98005000D03*
X98402000Y-98005000D03*
X97602000Y-98005000D03*
X96802000Y-98005000D03*
X96002000Y-98005000D03*
X95202000Y-98005000D03*
X94402000Y-98005000D03*
%TD*%
D11*
%TO.C,J7*%
X140500000Y-83334850D03*
D12*
X143040000Y-83334850D03*
X145580000Y-83334850D03*
%TD*%
D11*
%TO.C,J28*%
X102251000Y-64599000D03*
%TD*%
D13*
%TO.C,H27*%
X208410000Y-45435000D03*
X209210000Y-45435000D03*
X210010000Y-45435000D03*
X210810000Y-45435000D03*
X211610000Y-45435000D03*
X212410000Y-45435000D03*
X213210000Y-45435000D03*
X214010000Y-45435000D03*
X214810000Y-45435000D03*
%TD*%
%TO.C,H12*%
X170360000Y-97474850D03*
X169560000Y-97474850D03*
X168760000Y-97474850D03*
X167960000Y-97474850D03*
X167160000Y-97474850D03*
X166360000Y-97474850D03*
X165560000Y-97474850D03*
X164760000Y-97474850D03*
X163960000Y-97474850D03*
%TD*%
D11*
%TO.C,J26*%
X94641000Y-67519000D03*
D12*
X97181000Y-67519000D03*
X99721000Y-67519000D03*
%TD*%
D13*
%TO.C,H10*%
X175510000Y-74919850D03*
X175510000Y-74119850D03*
X175510000Y-73319850D03*
X175510000Y-72519850D03*
X175510000Y-71719850D03*
X175510000Y-70919850D03*
X175510000Y-70119850D03*
X175510000Y-69319850D03*
X175510000Y-68519850D03*
%TD*%
D10*
%TO.C,H4*%
X181660000Y-90654850D03*
%TD*%
D11*
%TO.C,J5*%
X200050000Y-58244850D03*
D12*
X200050000Y-60784850D03*
X200050000Y-63324850D03*
X200050000Y-65864850D03*
D11*
X200050000Y-68404850D03*
X200050000Y-70944850D03*
X200050000Y-73484850D03*
X200050000Y-76024850D03*
X200050000Y-78564850D03*
%TD*%
%TO.C,J10*%
X140510000Y-66784850D03*
D12*
X143050000Y-66784850D03*
D11*
X145590000Y-66784850D03*
X148130000Y-66784850D03*
X150670000Y-66784850D03*
X153210000Y-66784850D03*
%TD*%
%TO.C,J22*%
X124185236Y-63324850D03*
D12*
X121645236Y-63324850D03*
D11*
X119105236Y-63324850D03*
X116565236Y-63324850D03*
X114025236Y-63324850D03*
%TD*%
%TO.C,J15*%
X140500000Y-75064850D03*
D12*
X143040000Y-75064850D03*
X145580000Y-75064850D03*
%TD*%
D18*
%TO.C,T1*%
X218638000Y-95955000D03*
X218638000Y-88955000D03*
X216638000Y-95955000D03*
X216638000Y-88955000D03*
D19*
X220938000Y-87355000D03*
X214338000Y-87355000D03*
D20*
X220938000Y-94403000D03*
X214338000Y-94403000D03*
D19*
X220938000Y-91355000D03*
X214338000Y-91355000D03*
X218938000Y-86255000D03*
X216338000Y-86255000D03*
%TD*%
D13*
%TO.C,H14*%
X170360000Y-45964850D03*
X169560000Y-45964850D03*
X168760000Y-45964850D03*
X167960000Y-45964850D03*
X167160000Y-45964850D03*
X166360000Y-45964850D03*
X165560000Y-45964850D03*
X164760000Y-45964850D03*
X163960000Y-45964850D03*
%TD*%
%TO.C,H8*%
X138510000Y-74919850D03*
X138510000Y-74119850D03*
X138510000Y-73319850D03*
X138510000Y-72519850D03*
X138510000Y-71719850D03*
X138510000Y-70919850D03*
X138510000Y-70119850D03*
X138510000Y-69319850D03*
X138510000Y-68519850D03*
%TD*%
D15*
%TO.C,RE1*%
X97392000Y-81591000D03*
X97392000Y-92791000D03*
D16*
X89892000Y-84691000D03*
D17*
X89892000Y-89691000D03*
X89892000Y-87191000D03*
X104392000Y-89691000D03*
X104392000Y-84691000D03*
%TD*%
D13*
%TO.C,H28*%
X100592000Y-74351000D03*
X99792000Y-74351000D03*
X98992000Y-74351000D03*
X98192000Y-74351000D03*
X97392000Y-74351000D03*
X96592000Y-74351000D03*
X95792000Y-74351000D03*
X94992000Y-74351000D03*
X94192000Y-74351000D03*
%TD*%
%TO.C,H29*%
X93771000Y-45435000D03*
X94571000Y-45435000D03*
X95371000Y-45435000D03*
X96171000Y-45435000D03*
X96971000Y-45435000D03*
X97771000Y-45435000D03*
X98571000Y-45435000D03*
X99371000Y-45435000D03*
X100171000Y-45435000D03*
%TD*%
D10*
%TO.C,H6*%
X152660000Y-48514850D03*
%TD*%
D11*
%TO.C,J17*%
X140510000Y-61704850D03*
D12*
X143050000Y-61704850D03*
D11*
X145590000Y-61704850D03*
X148130000Y-61704850D03*
X150670000Y-61704850D03*
X153210000Y-61704850D03*
%TD*%
D14*
%TO.C,H18*%
X220810000Y-103014850D03*
%TD*%
D13*
%TO.C,H20*%
X134910000Y-74919850D03*
X134910000Y-74119850D03*
X134910000Y-73319850D03*
X134910000Y-72519850D03*
X134910000Y-71719850D03*
X134910000Y-70919850D03*
X134910000Y-70119850D03*
X134910000Y-69319850D03*
X134910000Y-68519850D03*
%TD*%
%TO.C,H22*%
X179110000Y-74919850D03*
X179110000Y-74119850D03*
X179110000Y-73319850D03*
X179110000Y-72519850D03*
X179110000Y-71719850D03*
X179110000Y-70919850D03*
X179110000Y-70119850D03*
X179110000Y-69319850D03*
X179110000Y-68519850D03*
%TD*%
D11*
%TO.C,J8*%
X168430299Y-52484553D03*
D12*
X168430299Y-55024553D03*
D11*
X168430299Y-57564553D03*
X168430299Y-60104553D03*
X168430299Y-62644553D03*
%TD*%
D21*
%TO.C,U1*%
X111430236Y-91264850D03*
X111430236Y-88724850D03*
X111430236Y-86184850D03*
X111430236Y-83644850D03*
X111430236Y-81104850D03*
X111430236Y-78564850D03*
X111430236Y-76024850D03*
X111430236Y-73484850D03*
X111430236Y-70944850D03*
X126780236Y-91264850D03*
X126780236Y-88724850D03*
X126780236Y-86184850D03*
X126780236Y-83644850D03*
X126780236Y-81104850D03*
X126780236Y-78564850D03*
X126780236Y-76024850D03*
X126780236Y-73484850D03*
X126780236Y-70944850D03*
X124185236Y-70944850D03*
X121645236Y-70944850D03*
X119105236Y-70944850D03*
X116565236Y-70944850D03*
X114025236Y-70944850D03*
%TD*%
D10*
%TO.C,H4*%
X112360236Y-53774850D03*
%TD*%
D11*
%TO.C,J17*%
X160810299Y-81734553D03*
D12*
X163350299Y-81734553D03*
D11*
X165890299Y-81734553D03*
X168430299Y-81734553D03*
X170970299Y-81734553D03*
X173510299Y-81734553D03*
%TD*%
D22*
%TO.C,D1*%
X99711000Y-64599000D03*
D23*
X92111000Y-64599000D03*
%TD*%
D11*
%TO.C,J2*%
X160800299Y-55024553D03*
D12*
X163340299Y-55024553D03*
%TD*%
D10*
%TO.C,H5*%
X161360299Y-94924553D03*
%TD*%
D11*
%TO.C,J4*%
X133290236Y-86184850D03*
D12*
X133290236Y-83644850D03*
X133290236Y-81104850D03*
X133290236Y-78564850D03*
D11*
X133290236Y-76024850D03*
X133290236Y-73484850D03*
X133290236Y-70944850D03*
X133290236Y-68404850D03*
X133290236Y-65864850D03*
%TD*%
%TO.C,J14*%
X172460299Y-52484553D03*
D12*
X172460299Y-55024553D03*
D11*
X172460299Y-57564553D03*
X172460299Y-60104553D03*
X172460299Y-62644553D03*
%TD*%
%TO.C,J7*%
X160800299Y-60104553D03*
D12*
X163340299Y-60104553D03*
X165880299Y-60104553D03*
%TD*%
D11*
%TO.C,J11*%
X160810299Y-88414553D03*
D12*
X163350299Y-88414553D03*
D11*
X165890299Y-88414553D03*
X168430299Y-88414553D03*
X170970299Y-88414553D03*
X173510299Y-88414553D03*
%TD*%
%TO.C,J18*%
X126780236Y-68404850D03*
D12*
X126780236Y-65864850D03*
X126780236Y-63324850D03*
%TD*%
D10*
%TO.C,H6*%
X172960299Y-94924553D03*
%TD*%
D11*
%TO.C,J24*%
X111430236Y-68404850D03*
D12*
X111430236Y-65864850D03*
X111430236Y-63324850D03*
%TD*%
D11*
%TO.C,J1*%
X160800299Y-52484553D03*
D12*
X163340299Y-52484553D03*
%TD*%
D10*
%TO.C,H7*%
X172960296Y-48514552D03*
%TD*%
%TO.C,H3*%
X132360236Y-53774850D03*
%TD*%
%TO.C,H1*%
X161360296Y-48514552D03*
%TD*%
%TO.C,H2*%
X132360236Y-90654850D03*
%TD*%
D11*
%TO.C,J3*%
X160800299Y-72514553D03*
D12*
X163340299Y-72514553D03*
X165880299Y-72514553D03*
%TD*%
D11*
%TO.C,J10*%
X160810299Y-76654553D03*
D12*
X163350299Y-76654553D03*
D11*
X165890299Y-76654553D03*
X168430299Y-76654553D03*
X170970299Y-76654553D03*
X173510299Y-76654553D03*
%TD*%
%TO.C,J13*%
X160800299Y-64234553D03*
D12*
X163340299Y-64234553D03*
X165880299Y-64234553D03*
%TD*%
D11*
%TO.C,J19*%
X172460299Y-65994553D03*
D12*
X172460299Y-68534553D03*
X172460299Y-71074553D03*
X172460299Y-73614553D03*
%TD*%
D11*
%TO.C,J21*%
X168420299Y-65994553D03*
D12*
X168420299Y-68534553D03*
X168420299Y-71074553D03*
X168420299Y-73614553D03*
%TD*%
D11*
%TO.C,J9*%
X160810299Y-85874553D03*
D12*
X163350299Y-85874553D03*
D11*
X165890299Y-85874553D03*
X168430299Y-85874553D03*
X170970299Y-85874553D03*
X173510299Y-85874553D03*
%TD*%
%TO.C,J5*%
X130750236Y-86184850D03*
D12*
X130750236Y-83644850D03*
X130750236Y-81104850D03*
X130750236Y-78564850D03*
D11*
X130750236Y-76024850D03*
X130750236Y-73484850D03*
X130750236Y-70944850D03*
X130750236Y-68404850D03*
X130750236Y-65864850D03*
%TD*%
%TO.C,J22*%
X193485000Y-81104850D03*
D12*
X190945000Y-81104850D03*
D11*
X188405000Y-81104850D03*
X185865000Y-81104850D03*
X183325000Y-81104850D03*
%TD*%
D22*
%TO.C,D1*%
X94862000Y-78841000D03*
D23*
X102462000Y-78841000D03*
%TD*%
D11*
%TO.C,J6*%
X127210236Y-52844850D03*
D12*
X124670236Y-52844850D03*
D11*
X122130236Y-52844850D03*
X119590236Y-52844850D03*
X117050236Y-52844850D03*
%TD*%
%TO.C,J15*%
X160800299Y-68374553D03*
D12*
X163340299Y-68374553D03*
X165880299Y-68374553D03*
%TD*%
D11*
%TO.C,J16*%
X160810299Y-90954553D03*
D12*
X163350299Y-90954553D03*
D11*
X165890299Y-90954553D03*
X168430299Y-90954553D03*
X170970299Y-90954553D03*
X173510299Y-90954553D03*
%TD*%
%TO.C,J12*%
X160810299Y-79194553D03*
D12*
X163350299Y-79194553D03*
D11*
X165890299Y-79194553D03*
X168430299Y-79194553D03*
X170970299Y-79194553D03*
X173510299Y-79194553D03*
%TD*%
%TO.C,J23*%
X133290236Y-63324850D03*
D12*
X133290236Y-60784850D03*
X133290236Y-58244850D03*
%TD*%
D11*
%TO.C,J20*%
X130750236Y-63324850D03*
D12*
X130750236Y-60784850D03*
X130750236Y-58244850D03*
%TD*%
M02*
