M48
; DRILL file {KiCad 7.0.5} date Wed Jan 24 21:19:43 2024
; FORMAT={-:-/ absolute / metric / decimal}
; #@! TF.CreationDate,2024-01-24T21:19:43+08:00
; #@! TF.GenerationSoftware,Kicad,Pcbnew,7.0.5
; #@! TF.FileFunction,NonPlated,1,2,NPTH
FMAT,2
METRIC
; #@! TA.AperFunction,NonPlated,NPTH,ComponentDrill
T1C0.450
; #@! TA.AperFunction,NonPlated,NPTH,ComponentDrill
T2C0.800
; #@! TA.AperFunction,NonPlated,NPTH,ComponentDrill
T3C1.500
; #@! TA.AperFunction,NonPlated,NPTH,ComponentDrill
T4C2.200
%
G90
G05
T1
X93.771Y-45.435
X94.17Y-69.089
X94.192Y-74.351
X94.402Y-98.005
X94.571Y-45.435
X94.97Y-69.089
X94.992Y-74.351
X95.202Y-98.005
X95.371Y-45.435
X95.77Y-69.089
X95.792Y-74.351
X96.002Y-98.005
X96.171Y-45.435
X96.57Y-69.089
X96.592Y-74.351
X96.802Y-98.005
X96.971Y-45.435
X97.37Y-69.089
X97.392Y-74.351
X97.602Y-98.005
X97.771Y-45.435
X98.17Y-69.089
X98.192Y-74.351
X98.402Y-98.005
X98.571Y-45.435
X98.97Y-69.089
X98.992Y-74.351
X99.202Y-98.005
X99.371Y-45.435
X99.77Y-69.089
X99.792Y-74.351
X100.002Y-98.005
X100.171Y-45.435
X100.57Y-69.089
X100.592Y-74.351
X100.802Y-98.005
X119.16Y-51.225
X119.96Y-51.225
X120.76Y-51.225
X121.56Y-51.225
X122.36Y-51.225
X123.16Y-51.225
X123.96Y-51.225
X124.76Y-51.225
X125.56Y-51.225
X134.91Y-68.52
X134.91Y-69.32
X134.91Y-70.12
X134.91Y-70.92
X134.91Y-71.72
X134.91Y-72.52
X134.91Y-73.32
X134.91Y-74.12
X134.91Y-74.92
X138.51Y-68.52
X138.51Y-69.32
X138.51Y-70.12
X138.51Y-70.92
X138.51Y-71.72
X138.51Y-72.52
X138.51Y-73.32
X138.51Y-74.12
X138.51Y-74.92
X143.66Y-45.965
X143.66Y-97.475
X144.46Y-45.965
X144.46Y-97.475
X145.26Y-45.965
X145.26Y-97.475
X146.06Y-45.965
X146.06Y-97.475
X146.86Y-45.965
X146.86Y-97.475
X147.66Y-45.965
X147.66Y-97.475
X148.46Y-45.965
X148.46Y-97.475
X149.26Y-45.965
X149.26Y-97.475
X150.06Y-45.965
X150.06Y-97.475
X155.21Y-68.52
X155.21Y-69.32
X155.21Y-70.12
X155.21Y-70.92
X155.21Y-71.72
X155.21Y-72.52
X155.21Y-73.32
X155.21Y-74.12
X155.21Y-74.92
X158.81Y-68.52
X158.81Y-69.32
X158.81Y-70.12
X158.81Y-70.92
X158.81Y-71.72
X158.81Y-72.52
X158.81Y-73.32
X158.81Y-74.12
X158.81Y-74.92
X163.96Y-45.965
X163.96Y-97.475
X164.76Y-45.965
X164.76Y-97.475
X165.56Y-45.965
X165.56Y-97.475
X166.36Y-45.965
X166.36Y-97.475
X167.16Y-45.965
X167.16Y-97.475
X167.96Y-45.965
X167.96Y-97.475
X168.76Y-45.965
X168.76Y-97.475
X169.56Y-45.965
X169.56Y-97.475
X170.36Y-45.965
X170.36Y-97.475
X175.51Y-68.52
X175.51Y-69.32
X175.51Y-70.12
X175.51Y-70.92
X175.51Y-71.72
X175.51Y-72.52
X175.51Y-73.32
X175.51Y-74.12
X175.51Y-74.92
X179.11Y-68.52
X179.11Y-69.32
X179.11Y-70.12
X179.11Y-70.92
X179.11Y-71.72
X179.11Y-72.52
X179.11Y-73.32
X179.11Y-74.12
X179.11Y-74.92
X188.46Y-93.205
X189.26Y-93.205
X190.06Y-93.205
X190.86Y-93.205
X191.66Y-93.205
X192.46Y-93.205
X193.26Y-93.205
X194.06Y-93.205
X194.86Y-93.205
X208.41Y-45.435
X209.21Y-45.435
X210.01Y-45.435
X210.81Y-45.435
X211.61Y-45.435
X212.41Y-45.435
X213.21Y-45.435
X214.01Y-45.435
X214.81Y-45.435
X215.366Y-98.005
X216.166Y-98.005
X216.966Y-98.005
X217.766Y-98.005
X218.566Y-98.005
X219.366Y-98.005
X220.166Y-98.005
X220.966Y-98.005
X221.766Y-98.005
T2
X211.538Y-47.485
X211.538Y-54.485
X213.538Y-47.485
X213.538Y-54.485
X216.638Y-88.955
X216.638Y-95.955
X218.638Y-88.955
X218.638Y-95.955
T4
X112.36Y-53.775
X132.36Y-53.775
X132.36Y-90.655
X141.06Y-94.925
X141.06Y-48.515
X152.66Y-94.925
X152.66Y-48.515
X161.36Y-48.515
X161.36Y-94.925
X172.96Y-48.515
X172.96Y-94.925
X181.66Y-90.655
X201.66Y-53.775
X201.66Y-90.655
X210.21Y-61.158
X210.21Y-95.505
X219.966Y-47.935
X219.966Y-82.282
T3
X97.831Y-50.649G85X96.531Y-50.649
G05
X97.831Y-61.849G85X96.531Y-61.849
G05
X96.742Y-81.591G85X98.042Y-81.591
G05
X96.742Y-92.791G85X98.042Y-92.791
G05
T0
M30
