%TF.GenerationSoftware,KiCad,Pcbnew,7.0.5*%
%TF.CreationDate,2024-01-24T21:19:46+08:00*%
%TF.ProjectId,main,6d61696e-2e6b-4696-9361-645f70636258,rev?*%
%TF.SameCoordinates,Original*%
%TF.FileFunction,Legend,Top*%
%TF.FilePolarity,Positive*%
%FSLAX46Y46*%
G04 Gerber Fmt 4.6, Leading zero omitted, Abs format (unit mm)*
G04 Created by KiCad (PCBNEW 7.0.5) date 2024-01-24 21:19:46*
%MOMM*%
%LPD*%
G01*
G04 APERTURE LIST*
%ADD10C,0.100000*%
%ADD11C,0.120000*%
%ADD12C,0.150000*%
%ADD13C,0.010000*%
G04 APERTURE END LIST*
D10*
X129480236Y-56974850D02*
X129480236Y-64594850D01*
D11*
X159530299Y-51214553D02*
X164610299Y-51214553D01*
X164610299Y-56294553D01*
X159530299Y-56294553D01*
X159530299Y-51214553D01*
X159540299Y-84604553D02*
X174780299Y-84604553D01*
X174780299Y-92224553D01*
X159540299Y-92224553D01*
X159540299Y-84604553D01*
D10*
X201320000Y-79834850D02*
X201320000Y-87454850D01*
X198780000Y-56974850D02*
X203860000Y-56974850D01*
X198780000Y-87454850D02*
X203860000Y-87454850D01*
X134560236Y-87454850D02*
X129480236Y-87454850D01*
X132020236Y-56974850D02*
X132020236Y-64594850D01*
X134560236Y-56974850D02*
X129480236Y-56974850D01*
X198780000Y-79834850D02*
X198780000Y-87454850D01*
D11*
X139230000Y-87144850D02*
X144310000Y-87144850D01*
X144310000Y-92224850D01*
X139230000Y-92224850D01*
X139230000Y-87144850D01*
X139240000Y-51214850D02*
X154480000Y-51214850D01*
X154480000Y-58834850D01*
X139240000Y-58834850D01*
X139240000Y-51214850D01*
D10*
X134560236Y-56974850D02*
X134560236Y-64594850D01*
X203860000Y-79834850D02*
X203860000Y-87454850D01*
D11*
X139240000Y-60434850D02*
X154480000Y-60434850D01*
X154480000Y-68054850D01*
X139240000Y-68054850D01*
X139240000Y-60434850D01*
X159540299Y-75384553D02*
X174780299Y-75384553D01*
X174780299Y-83004553D01*
X159540299Y-83004553D01*
X159540299Y-75384553D01*
%TO.C,J13*%
X142430475Y-77490610D02*
X142544761Y-77528705D01*
X142544761Y-77528705D02*
X142735237Y-77528705D01*
X142735237Y-77528705D02*
X142811428Y-77490610D01*
X142811428Y-77490610D02*
X142849523Y-77452514D01*
X142849523Y-77452514D02*
X142887618Y-77376324D01*
X142887618Y-77376324D02*
X142887618Y-77300133D01*
X142887618Y-77300133D02*
X142849523Y-77223943D01*
X142849523Y-77223943D02*
X142811428Y-77185848D01*
X142811428Y-77185848D02*
X142735237Y-77147752D01*
X142735237Y-77147752D02*
X142582856Y-77109657D01*
X142582856Y-77109657D02*
X142506666Y-77071562D01*
X142506666Y-77071562D02*
X142468571Y-77033467D01*
X142468571Y-77033467D02*
X142430475Y-76957276D01*
X142430475Y-76957276D02*
X142430475Y-76881086D01*
X142430475Y-76881086D02*
X142468571Y-76804895D01*
X142468571Y-76804895D02*
X142506666Y-76766800D01*
X142506666Y-76766800D02*
X142582856Y-76728705D01*
X142582856Y-76728705D02*
X142773333Y-76728705D01*
X142773333Y-76728705D02*
X142887618Y-76766800D01*
X143192380Y-76804895D02*
X143230476Y-76766800D01*
X143230476Y-76766800D02*
X143306666Y-76728705D01*
X143306666Y-76728705D02*
X143497142Y-76728705D01*
X143497142Y-76728705D02*
X143573333Y-76766800D01*
X143573333Y-76766800D02*
X143611428Y-76804895D01*
X143611428Y-76804895D02*
X143649523Y-76881086D01*
X143649523Y-76881086D02*
X143649523Y-76957276D01*
X143649523Y-76957276D02*
X143611428Y-77071562D01*
X143611428Y-77071562D02*
X143154285Y-77528705D01*
X143154285Y-77528705D02*
X143649523Y-77528705D01*
X139433333Y-76728705D02*
X139700000Y-77528705D01*
X139700000Y-77528705D02*
X139966666Y-76728705D01*
X140690476Y-77452514D02*
X140652380Y-77490610D01*
X140652380Y-77490610D02*
X140538095Y-77528705D01*
X140538095Y-77528705D02*
X140461904Y-77528705D01*
X140461904Y-77528705D02*
X140347618Y-77490610D01*
X140347618Y-77490610D02*
X140271428Y-77414419D01*
X140271428Y-77414419D02*
X140233333Y-77338229D01*
X140233333Y-77338229D02*
X140195237Y-77185848D01*
X140195237Y-77185848D02*
X140195237Y-77071562D01*
X140195237Y-77071562D02*
X140233333Y-76919181D01*
X140233333Y-76919181D02*
X140271428Y-76842990D01*
X140271428Y-76842990D02*
X140347618Y-76766800D01*
X140347618Y-76766800D02*
X140461904Y-76728705D01*
X140461904Y-76728705D02*
X140538095Y-76728705D01*
X140538095Y-76728705D02*
X140652380Y-76766800D01*
X140652380Y-76766800D02*
X140690476Y-76804895D01*
X141490476Y-77452514D02*
X141452380Y-77490610D01*
X141452380Y-77490610D02*
X141338095Y-77528705D01*
X141338095Y-77528705D02*
X141261904Y-77528705D01*
X141261904Y-77528705D02*
X141147618Y-77490610D01*
X141147618Y-77490610D02*
X141071428Y-77414419D01*
X141071428Y-77414419D02*
X141033333Y-77338229D01*
X141033333Y-77338229D02*
X140995237Y-77185848D01*
X140995237Y-77185848D02*
X140995237Y-77071562D01*
X140995237Y-77071562D02*
X141033333Y-76919181D01*
X141033333Y-76919181D02*
X141071428Y-76842990D01*
X141071428Y-76842990D02*
X141147618Y-76766800D01*
X141147618Y-76766800D02*
X141261904Y-76728705D01*
X141261904Y-76728705D02*
X141338095Y-76728705D01*
X141338095Y-76728705D02*
X141452380Y-76766800D01*
X141452380Y-76766800D02*
X141490476Y-76804895D01*
X144970476Y-76766800D02*
X144894286Y-76728705D01*
X144894286Y-76728705D02*
X144780000Y-76728705D01*
X144780000Y-76728705D02*
X144665714Y-76766800D01*
X144665714Y-76766800D02*
X144589524Y-76842990D01*
X144589524Y-76842990D02*
X144551429Y-76919181D01*
X144551429Y-76919181D02*
X144513333Y-77071562D01*
X144513333Y-77071562D02*
X144513333Y-77185848D01*
X144513333Y-77185848D02*
X144551429Y-77338229D01*
X144551429Y-77338229D02*
X144589524Y-77414419D01*
X144589524Y-77414419D02*
X144665714Y-77490610D01*
X144665714Y-77490610D02*
X144780000Y-77528705D01*
X144780000Y-77528705D02*
X144856191Y-77528705D01*
X144856191Y-77528705D02*
X144970476Y-77490610D01*
X144970476Y-77490610D02*
X145008572Y-77452514D01*
X145008572Y-77452514D02*
X145008572Y-77185848D01*
X145008572Y-77185848D02*
X144856191Y-77185848D01*
X145351429Y-77528705D02*
X145351429Y-76728705D01*
X145351429Y-76728705D02*
X145808572Y-77528705D01*
X145808572Y-77528705D02*
X145808572Y-76728705D01*
X146189524Y-77528705D02*
X146189524Y-76728705D01*
X146189524Y-76728705D02*
X146380000Y-76728705D01*
X146380000Y-76728705D02*
X146494286Y-76766800D01*
X146494286Y-76766800D02*
X146570476Y-76842990D01*
X146570476Y-76842990D02*
X146608571Y-76919181D01*
X146608571Y-76919181D02*
X146646667Y-77071562D01*
X146646667Y-77071562D02*
X146646667Y-77185848D01*
X146646667Y-77185848D02*
X146608571Y-77338229D01*
X146608571Y-77338229D02*
X146570476Y-77414419D01*
X146570476Y-77414419D02*
X146494286Y-77490610D01*
X146494286Y-77490610D02*
X146380000Y-77528705D01*
X146380000Y-77528705D02*
X146189524Y-77528705D01*
%TO.C,J19*%
X154525760Y-70796278D02*
X154563855Y-70681992D01*
X154563855Y-70681992D02*
X154563855Y-70491516D01*
X154563855Y-70491516D02*
X154525760Y-70415325D01*
X154525760Y-70415325D02*
X154487664Y-70377230D01*
X154487664Y-70377230D02*
X154411474Y-70339135D01*
X154411474Y-70339135D02*
X154335283Y-70339135D01*
X154335283Y-70339135D02*
X154259093Y-70377230D01*
X154259093Y-70377230D02*
X154220998Y-70415325D01*
X154220998Y-70415325D02*
X154182902Y-70491516D01*
X154182902Y-70491516D02*
X154144807Y-70643897D01*
X154144807Y-70643897D02*
X154106712Y-70720087D01*
X154106712Y-70720087D02*
X154068617Y-70758182D01*
X154068617Y-70758182D02*
X153992426Y-70796278D01*
X153992426Y-70796278D02*
X153916236Y-70796278D01*
X153916236Y-70796278D02*
X153840045Y-70758182D01*
X153840045Y-70758182D02*
X153801950Y-70720087D01*
X153801950Y-70720087D02*
X153763855Y-70643897D01*
X153763855Y-70643897D02*
X153763855Y-70453420D01*
X153763855Y-70453420D02*
X153801950Y-70339135D01*
X154563855Y-69996277D02*
X153763855Y-69996277D01*
X153763855Y-69996277D02*
X153763855Y-69805801D01*
X153763855Y-69805801D02*
X153801950Y-69691515D01*
X153801950Y-69691515D02*
X153878140Y-69615325D01*
X153878140Y-69615325D02*
X153954331Y-69577230D01*
X153954331Y-69577230D02*
X154106712Y-69539134D01*
X154106712Y-69539134D02*
X154220998Y-69539134D01*
X154220998Y-69539134D02*
X154373379Y-69577230D01*
X154373379Y-69577230D02*
X154449569Y-69615325D01*
X154449569Y-69615325D02*
X154525760Y-69691515D01*
X154525760Y-69691515D02*
X154563855Y-69805801D01*
X154563855Y-69805801D02*
X154563855Y-69996277D01*
X154335283Y-69234373D02*
X154335283Y-68853420D01*
X154563855Y-69310563D02*
X153763855Y-69043896D01*
X153763855Y-69043896D02*
X154563855Y-68777230D01*
X154525760Y-73317231D02*
X154563855Y-73202945D01*
X154563855Y-73202945D02*
X154563855Y-73012469D01*
X154563855Y-73012469D02*
X154525760Y-72936278D01*
X154525760Y-72936278D02*
X154487664Y-72898183D01*
X154487664Y-72898183D02*
X154411474Y-72860088D01*
X154411474Y-72860088D02*
X154335283Y-72860088D01*
X154335283Y-72860088D02*
X154259093Y-72898183D01*
X154259093Y-72898183D02*
X154220998Y-72936278D01*
X154220998Y-72936278D02*
X154182902Y-73012469D01*
X154182902Y-73012469D02*
X154144807Y-73164850D01*
X154144807Y-73164850D02*
X154106712Y-73241040D01*
X154106712Y-73241040D02*
X154068617Y-73279135D01*
X154068617Y-73279135D02*
X153992426Y-73317231D01*
X153992426Y-73317231D02*
X153916236Y-73317231D01*
X153916236Y-73317231D02*
X153840045Y-73279135D01*
X153840045Y-73279135D02*
X153801950Y-73241040D01*
X153801950Y-73241040D02*
X153763855Y-73164850D01*
X153763855Y-73164850D02*
X153763855Y-72974373D01*
X153763855Y-72974373D02*
X153801950Y-72860088D01*
X154487664Y-72060087D02*
X154525760Y-72098183D01*
X154525760Y-72098183D02*
X154563855Y-72212468D01*
X154563855Y-72212468D02*
X154563855Y-72288659D01*
X154563855Y-72288659D02*
X154525760Y-72402945D01*
X154525760Y-72402945D02*
X154449569Y-72479135D01*
X154449569Y-72479135D02*
X154373379Y-72517230D01*
X154373379Y-72517230D02*
X154220998Y-72555326D01*
X154220998Y-72555326D02*
X154106712Y-72555326D01*
X154106712Y-72555326D02*
X153954331Y-72517230D01*
X153954331Y-72517230D02*
X153878140Y-72479135D01*
X153878140Y-72479135D02*
X153801950Y-72402945D01*
X153801950Y-72402945D02*
X153763855Y-72288659D01*
X153763855Y-72288659D02*
X153763855Y-72212468D01*
X153763855Y-72212468D02*
X153801950Y-72098183D01*
X153801950Y-72098183D02*
X153840045Y-72060087D01*
X154563855Y-71336278D02*
X154563855Y-71717230D01*
X154563855Y-71717230D02*
X153763855Y-71717230D01*
X153763855Y-75971516D02*
X154563855Y-75704849D01*
X154563855Y-75704849D02*
X153763855Y-75438183D01*
X154487664Y-74714373D02*
X154525760Y-74752469D01*
X154525760Y-74752469D02*
X154563855Y-74866754D01*
X154563855Y-74866754D02*
X154563855Y-74942945D01*
X154563855Y-74942945D02*
X154525760Y-75057231D01*
X154525760Y-75057231D02*
X154449569Y-75133421D01*
X154449569Y-75133421D02*
X154373379Y-75171516D01*
X154373379Y-75171516D02*
X154220998Y-75209612D01*
X154220998Y-75209612D02*
X154106712Y-75209612D01*
X154106712Y-75209612D02*
X153954331Y-75171516D01*
X153954331Y-75171516D02*
X153878140Y-75133421D01*
X153878140Y-75133421D02*
X153801950Y-75057231D01*
X153801950Y-75057231D02*
X153763855Y-74942945D01*
X153763855Y-74942945D02*
X153763855Y-74866754D01*
X153763855Y-74866754D02*
X153801950Y-74752469D01*
X153801950Y-74752469D02*
X153840045Y-74714373D01*
X154487664Y-73914373D02*
X154525760Y-73952469D01*
X154525760Y-73952469D02*
X154563855Y-74066754D01*
X154563855Y-74066754D02*
X154563855Y-74142945D01*
X154563855Y-74142945D02*
X154525760Y-74257231D01*
X154525760Y-74257231D02*
X154449569Y-74333421D01*
X154449569Y-74333421D02*
X154373379Y-74371516D01*
X154373379Y-74371516D02*
X154220998Y-74409612D01*
X154220998Y-74409612D02*
X154106712Y-74409612D01*
X154106712Y-74409612D02*
X153954331Y-74371516D01*
X153954331Y-74371516D02*
X153878140Y-74333421D01*
X153878140Y-74333421D02*
X153801950Y-74257231D01*
X153801950Y-74257231D02*
X153763855Y-74142945D01*
X153763855Y-74142945D02*
X153763855Y-74066754D01*
X153763855Y-74066754D02*
X153801950Y-73952469D01*
X153801950Y-73952469D02*
X153840045Y-73914373D01*
X153801950Y-78054373D02*
X153763855Y-78130563D01*
X153763855Y-78130563D02*
X153763855Y-78244849D01*
X153763855Y-78244849D02*
X153801950Y-78359135D01*
X153801950Y-78359135D02*
X153878140Y-78435325D01*
X153878140Y-78435325D02*
X153954331Y-78473420D01*
X153954331Y-78473420D02*
X154106712Y-78511516D01*
X154106712Y-78511516D02*
X154220998Y-78511516D01*
X154220998Y-78511516D02*
X154373379Y-78473420D01*
X154373379Y-78473420D02*
X154449569Y-78435325D01*
X154449569Y-78435325D02*
X154525760Y-78359135D01*
X154525760Y-78359135D02*
X154563855Y-78244849D01*
X154563855Y-78244849D02*
X154563855Y-78168658D01*
X154563855Y-78168658D02*
X154525760Y-78054373D01*
X154525760Y-78054373D02*
X154487664Y-78016277D01*
X154487664Y-78016277D02*
X154220998Y-78016277D01*
X154220998Y-78016277D02*
X154220998Y-78168658D01*
X154563855Y-77673420D02*
X153763855Y-77673420D01*
X153763855Y-77673420D02*
X154563855Y-77216277D01*
X154563855Y-77216277D02*
X153763855Y-77216277D01*
X154563855Y-76835325D02*
X153763855Y-76835325D01*
X153763855Y-76835325D02*
X153763855Y-76644849D01*
X153763855Y-76644849D02*
X153801950Y-76530563D01*
X153801950Y-76530563D02*
X153878140Y-76454373D01*
X153878140Y-76454373D02*
X153954331Y-76416278D01*
X153954331Y-76416278D02*
X154106712Y-76378182D01*
X154106712Y-76378182D02*
X154220998Y-76378182D01*
X154220998Y-76378182D02*
X154373379Y-76416278D01*
X154373379Y-76416278D02*
X154449569Y-76454373D01*
X154449569Y-76454373D02*
X154525760Y-76530563D01*
X154525760Y-76530563D02*
X154563855Y-76644849D01*
X154563855Y-76644849D02*
X154563855Y-76835325D01*
%TO.C,J26*%
X96782476Y-77022950D02*
X96706286Y-76984855D01*
X96706286Y-76984855D02*
X96592000Y-76984855D01*
X96592000Y-76984855D02*
X96477714Y-77022950D01*
X96477714Y-77022950D02*
X96401524Y-77099140D01*
X96401524Y-77099140D02*
X96363429Y-77175331D01*
X96363429Y-77175331D02*
X96325333Y-77327712D01*
X96325333Y-77327712D02*
X96325333Y-77441998D01*
X96325333Y-77441998D02*
X96363429Y-77594379D01*
X96363429Y-77594379D02*
X96401524Y-77670569D01*
X96401524Y-77670569D02*
X96477714Y-77746760D01*
X96477714Y-77746760D02*
X96592000Y-77784855D01*
X96592000Y-77784855D02*
X96668191Y-77784855D01*
X96668191Y-77784855D02*
X96782476Y-77746760D01*
X96782476Y-77746760D02*
X96820572Y-77708664D01*
X96820572Y-77708664D02*
X96820572Y-77441998D01*
X96820572Y-77441998D02*
X96668191Y-77441998D01*
X97163429Y-77784855D02*
X97163429Y-76984855D01*
X97163429Y-76984855D02*
X97620572Y-77784855D01*
X97620572Y-77784855D02*
X97620572Y-76984855D01*
X98001524Y-77784855D02*
X98001524Y-76984855D01*
X98001524Y-76984855D02*
X98192000Y-76984855D01*
X98192000Y-76984855D02*
X98306286Y-77022950D01*
X98306286Y-77022950D02*
X98382476Y-77099140D01*
X98382476Y-77099140D02*
X98420571Y-77175331D01*
X98420571Y-77175331D02*
X98458667Y-77327712D01*
X98458667Y-77327712D02*
X98458667Y-77441998D01*
X98458667Y-77441998D02*
X98420571Y-77594379D01*
X98420571Y-77594379D02*
X98382476Y-77670569D01*
X98382476Y-77670569D02*
X98306286Y-77746760D01*
X98306286Y-77746760D02*
X98192000Y-77784855D01*
X98192000Y-77784855D02*
X98001524Y-77784855D01*
X99741523Y-77556283D02*
X100122476Y-77556283D01*
X99665333Y-77784855D02*
X99932000Y-76984855D01*
X99932000Y-76984855D02*
X100198666Y-77784855D01*
X94909142Y-77365807D02*
X95023428Y-77403902D01*
X95023428Y-77403902D02*
X95061523Y-77441998D01*
X95061523Y-77441998D02*
X95099619Y-77518188D01*
X95099619Y-77518188D02*
X95099619Y-77632474D01*
X95099619Y-77632474D02*
X95061523Y-77708664D01*
X95061523Y-77708664D02*
X95023428Y-77746760D01*
X95023428Y-77746760D02*
X94947238Y-77784855D01*
X94947238Y-77784855D02*
X94642476Y-77784855D01*
X94642476Y-77784855D02*
X94642476Y-76984855D01*
X94642476Y-76984855D02*
X94909142Y-76984855D01*
X94909142Y-76984855D02*
X94985333Y-77022950D01*
X94985333Y-77022950D02*
X95023428Y-77061045D01*
X95023428Y-77061045D02*
X95061523Y-77137236D01*
X95061523Y-77137236D02*
X95061523Y-77213426D01*
X95061523Y-77213426D02*
X95023428Y-77289617D01*
X95023428Y-77289617D02*
X94985333Y-77327712D01*
X94985333Y-77327712D02*
X94909142Y-77365807D01*
X94909142Y-77365807D02*
X94642476Y-77365807D01*
%TO.C,J21*%
X149761950Y-78054373D02*
X149723855Y-78130563D01*
X149723855Y-78130563D02*
X149723855Y-78244849D01*
X149723855Y-78244849D02*
X149761950Y-78359135D01*
X149761950Y-78359135D02*
X149838140Y-78435325D01*
X149838140Y-78435325D02*
X149914331Y-78473420D01*
X149914331Y-78473420D02*
X150066712Y-78511516D01*
X150066712Y-78511516D02*
X150180998Y-78511516D01*
X150180998Y-78511516D02*
X150333379Y-78473420D01*
X150333379Y-78473420D02*
X150409569Y-78435325D01*
X150409569Y-78435325D02*
X150485760Y-78359135D01*
X150485760Y-78359135D02*
X150523855Y-78244849D01*
X150523855Y-78244849D02*
X150523855Y-78168658D01*
X150523855Y-78168658D02*
X150485760Y-78054373D01*
X150485760Y-78054373D02*
X150447664Y-78016277D01*
X150447664Y-78016277D02*
X150180998Y-78016277D01*
X150180998Y-78016277D02*
X150180998Y-78168658D01*
X150523855Y-77673420D02*
X149723855Y-77673420D01*
X149723855Y-77673420D02*
X150523855Y-77216277D01*
X150523855Y-77216277D02*
X149723855Y-77216277D01*
X150523855Y-76835325D02*
X149723855Y-76835325D01*
X149723855Y-76835325D02*
X149723855Y-76644849D01*
X149723855Y-76644849D02*
X149761950Y-76530563D01*
X149761950Y-76530563D02*
X149838140Y-76454373D01*
X149838140Y-76454373D02*
X149914331Y-76416278D01*
X149914331Y-76416278D02*
X150066712Y-76378182D01*
X150066712Y-76378182D02*
X150180998Y-76378182D01*
X150180998Y-76378182D02*
X150333379Y-76416278D01*
X150333379Y-76416278D02*
X150409569Y-76454373D01*
X150409569Y-76454373D02*
X150485760Y-76530563D01*
X150485760Y-76530563D02*
X150523855Y-76644849D01*
X150523855Y-76644849D02*
X150523855Y-76835325D01*
X149723855Y-72631516D02*
X150523855Y-72098182D01*
X149723855Y-72098182D02*
X150523855Y-72631516D01*
X149723855Y-75971516D02*
X150523855Y-75704849D01*
X150523855Y-75704849D02*
X149723855Y-75438183D01*
X150447664Y-74714373D02*
X150485760Y-74752469D01*
X150485760Y-74752469D02*
X150523855Y-74866754D01*
X150523855Y-74866754D02*
X150523855Y-74942945D01*
X150523855Y-74942945D02*
X150485760Y-75057231D01*
X150485760Y-75057231D02*
X150409569Y-75133421D01*
X150409569Y-75133421D02*
X150333379Y-75171516D01*
X150333379Y-75171516D02*
X150180998Y-75209612D01*
X150180998Y-75209612D02*
X150066712Y-75209612D01*
X150066712Y-75209612D02*
X149914331Y-75171516D01*
X149914331Y-75171516D02*
X149838140Y-75133421D01*
X149838140Y-75133421D02*
X149761950Y-75057231D01*
X149761950Y-75057231D02*
X149723855Y-74942945D01*
X149723855Y-74942945D02*
X149723855Y-74866754D01*
X149723855Y-74866754D02*
X149761950Y-74752469D01*
X149761950Y-74752469D02*
X149800045Y-74714373D01*
X150447664Y-73914373D02*
X150485760Y-73952469D01*
X150485760Y-73952469D02*
X150523855Y-74066754D01*
X150523855Y-74066754D02*
X150523855Y-74142945D01*
X150523855Y-74142945D02*
X150485760Y-74257231D01*
X150485760Y-74257231D02*
X150409569Y-74333421D01*
X150409569Y-74333421D02*
X150333379Y-74371516D01*
X150333379Y-74371516D02*
X150180998Y-74409612D01*
X150180998Y-74409612D02*
X150066712Y-74409612D01*
X150066712Y-74409612D02*
X149914331Y-74371516D01*
X149914331Y-74371516D02*
X149838140Y-74333421D01*
X149838140Y-74333421D02*
X149761950Y-74257231D01*
X149761950Y-74257231D02*
X149723855Y-74142945D01*
X149723855Y-74142945D02*
X149723855Y-74066754D01*
X149723855Y-74066754D02*
X149761950Y-73952469D01*
X149761950Y-73952469D02*
X149800045Y-73914373D01*
X150142902Y-69824849D02*
X150523855Y-69824849D01*
X149723855Y-70091516D02*
X150142902Y-69824849D01*
X150142902Y-69824849D02*
X149723855Y-69558183D01*
%TO.C,J9*%
X145230045Y-59833421D02*
X145191950Y-59795325D01*
X145191950Y-59795325D02*
X145153855Y-59719135D01*
X145153855Y-59719135D02*
X145153855Y-59528659D01*
X145153855Y-59528659D02*
X145191950Y-59452468D01*
X145191950Y-59452468D02*
X145230045Y-59414373D01*
X145230045Y-59414373D02*
X145306236Y-59376278D01*
X145306236Y-59376278D02*
X145382426Y-59376278D01*
X145382426Y-59376278D02*
X145496712Y-59414373D01*
X145496712Y-59414373D02*
X145953855Y-59871516D01*
X145953855Y-59871516D02*
X145953855Y-59376278D01*
X140946144Y-59566755D02*
X140946144Y-59642945D01*
X140946144Y-59642945D02*
X140908049Y-59719136D01*
X140908049Y-59719136D02*
X140869954Y-59757231D01*
X140869954Y-59757231D02*
X140793763Y-59795326D01*
X140793763Y-59795326D02*
X140641382Y-59833421D01*
X140641382Y-59833421D02*
X140450906Y-59833421D01*
X140450906Y-59833421D02*
X140298525Y-59795326D01*
X140298525Y-59795326D02*
X140222335Y-59757231D01*
X140222335Y-59757231D02*
X140184240Y-59719136D01*
X140184240Y-59719136D02*
X140146144Y-59642945D01*
X140146144Y-59642945D02*
X140146144Y-59566755D01*
X140146144Y-59566755D02*
X140184240Y-59490564D01*
X140184240Y-59490564D02*
X140222335Y-59452469D01*
X140222335Y-59452469D02*
X140298525Y-59414374D01*
X140298525Y-59414374D02*
X140450906Y-59376278D01*
X140450906Y-59376278D02*
X140641382Y-59376278D01*
X140641382Y-59376278D02*
X140793763Y-59414374D01*
X140793763Y-59414374D02*
X140869954Y-59452469D01*
X140869954Y-59452469D02*
X140908049Y-59490564D01*
X140908049Y-59490564D02*
X140946144Y-59566755D01*
X152773855Y-59414373D02*
X152773855Y-59795325D01*
X152773855Y-59795325D02*
X153154807Y-59833421D01*
X153154807Y-59833421D02*
X153116712Y-59795325D01*
X153116712Y-59795325D02*
X153078617Y-59719135D01*
X153078617Y-59719135D02*
X153078617Y-59528659D01*
X153078617Y-59528659D02*
X153116712Y-59452468D01*
X153116712Y-59452468D02*
X153154807Y-59414373D01*
X153154807Y-59414373D02*
X153230998Y-59376278D01*
X153230998Y-59376278D02*
X153421474Y-59376278D01*
X153421474Y-59376278D02*
X153497664Y-59414373D01*
X153497664Y-59414373D02*
X153535760Y-59452468D01*
X153535760Y-59452468D02*
X153573855Y-59528659D01*
X153573855Y-59528659D02*
X153573855Y-59719135D01*
X153573855Y-59719135D02*
X153535760Y-59795325D01*
X153535760Y-59795325D02*
X153497664Y-59833421D01*
X150500521Y-59452468D02*
X151033855Y-59452468D01*
X150195760Y-59642944D02*
X150767188Y-59833421D01*
X150767188Y-59833421D02*
X150767188Y-59338182D01*
X143413855Y-59376278D02*
X143413855Y-59833421D01*
X143413855Y-59604849D02*
X142613855Y-59604849D01*
X142613855Y-59604849D02*
X142728140Y-59681040D01*
X142728140Y-59681040D02*
X142804331Y-59757230D01*
X142804331Y-59757230D02*
X142842426Y-59833421D01*
X147693855Y-59871516D02*
X147693855Y-59376278D01*
X147693855Y-59376278D02*
X147998617Y-59642944D01*
X147998617Y-59642944D02*
X147998617Y-59528659D01*
X147998617Y-59528659D02*
X148036712Y-59452468D01*
X148036712Y-59452468D02*
X148074807Y-59414373D01*
X148074807Y-59414373D02*
X148150998Y-59376278D01*
X148150998Y-59376278D02*
X148341474Y-59376278D01*
X148341474Y-59376278D02*
X148417664Y-59414373D01*
X148417664Y-59414373D02*
X148455760Y-59452468D01*
X148455760Y-59452468D02*
X148493855Y-59528659D01*
X148493855Y-59528659D02*
X148493855Y-59757230D01*
X148493855Y-59757230D02*
X148455760Y-59833421D01*
X148455760Y-59833421D02*
X148417664Y-59871516D01*
%TO.C,J4*%
X202837619Y-56578705D02*
X202570952Y-56197752D01*
X202380476Y-56578705D02*
X202380476Y-55778705D01*
X202380476Y-55778705D02*
X202685238Y-55778705D01*
X202685238Y-55778705D02*
X202761428Y-55816800D01*
X202761428Y-55816800D02*
X202799523Y-55854895D01*
X202799523Y-55854895D02*
X202837619Y-55931086D01*
X202837619Y-55931086D02*
X202837619Y-56045371D01*
X202837619Y-56045371D02*
X202799523Y-56121562D01*
X202799523Y-56121562D02*
X202761428Y-56159657D01*
X202761428Y-56159657D02*
X202685238Y-56197752D01*
X202685238Y-56197752D02*
X202380476Y-56197752D01*
%TO.C,J6*%
X184110476Y-91948705D02*
X184110476Y-91148705D01*
X184110476Y-91148705D02*
X184300952Y-91148705D01*
X184300952Y-91148705D02*
X184415238Y-91186800D01*
X184415238Y-91186800D02*
X184491428Y-91262990D01*
X184491428Y-91262990D02*
X184529523Y-91339181D01*
X184529523Y-91339181D02*
X184567619Y-91491562D01*
X184567619Y-91491562D02*
X184567619Y-91605848D01*
X184567619Y-91605848D02*
X184529523Y-91758229D01*
X184529523Y-91758229D02*
X184491428Y-91834419D01*
X184491428Y-91834419D02*
X184415238Y-91910610D01*
X184415238Y-91910610D02*
X184300952Y-91948705D01*
X184300952Y-91948705D02*
X184110476Y-91948705D01*
%TO.C,U1*%
X196327619Y-83788705D02*
X196060952Y-83407752D01*
X195870476Y-83788705D02*
X195870476Y-82988705D01*
X195870476Y-82988705D02*
X196175238Y-82988705D01*
X196175238Y-82988705D02*
X196251428Y-83026800D01*
X196251428Y-83026800D02*
X196289523Y-83064895D01*
X196289523Y-83064895D02*
X196327619Y-83141086D01*
X196327619Y-83141086D02*
X196327619Y-83255371D01*
X196327619Y-83255371D02*
X196289523Y-83331562D01*
X196289523Y-83331562D02*
X196251428Y-83369657D01*
X196251428Y-83369657D02*
X196175238Y-83407752D01*
X196175238Y-83407752D02*
X195870476Y-83407752D01*
X180977619Y-83788705D02*
X180596667Y-83788705D01*
X180596667Y-83788705D02*
X180596667Y-82988705D01*
%TO.C,J14*%
X153763855Y-88681516D02*
X154563855Y-88148182D01*
X153763855Y-88148182D02*
X154563855Y-88681516D01*
X154182902Y-85874849D02*
X154563855Y-85874849D01*
X153763855Y-86141516D02*
X154182902Y-85874849D01*
X154182902Y-85874849D02*
X153763855Y-85608183D01*
X154525760Y-81766278D02*
X154563855Y-81651992D01*
X154563855Y-81651992D02*
X154563855Y-81461516D01*
X154563855Y-81461516D02*
X154525760Y-81385325D01*
X154525760Y-81385325D02*
X154487664Y-81347230D01*
X154487664Y-81347230D02*
X154411474Y-81309135D01*
X154411474Y-81309135D02*
X154335283Y-81309135D01*
X154335283Y-81309135D02*
X154259093Y-81347230D01*
X154259093Y-81347230D02*
X154220998Y-81385325D01*
X154220998Y-81385325D02*
X154182902Y-81461516D01*
X154182902Y-81461516D02*
X154144807Y-81613897D01*
X154144807Y-81613897D02*
X154106712Y-81690087D01*
X154106712Y-81690087D02*
X154068617Y-81728182D01*
X154068617Y-81728182D02*
X153992426Y-81766278D01*
X153992426Y-81766278D02*
X153916236Y-81766278D01*
X153916236Y-81766278D02*
X153840045Y-81728182D01*
X153840045Y-81728182D02*
X153801950Y-81690087D01*
X153801950Y-81690087D02*
X153763855Y-81613897D01*
X153763855Y-81613897D02*
X153763855Y-81423420D01*
X153763855Y-81423420D02*
X153801950Y-81309135D01*
X154563855Y-80966277D02*
X153763855Y-80966277D01*
X153763855Y-80966277D02*
X153763855Y-80775801D01*
X153763855Y-80775801D02*
X153801950Y-80661515D01*
X153801950Y-80661515D02*
X153878140Y-80585325D01*
X153878140Y-80585325D02*
X153954331Y-80547230D01*
X153954331Y-80547230D02*
X154106712Y-80509134D01*
X154106712Y-80509134D02*
X154220998Y-80509134D01*
X154220998Y-80509134D02*
X154373379Y-80547230D01*
X154373379Y-80547230D02*
X154449569Y-80585325D01*
X154449569Y-80585325D02*
X154525760Y-80661515D01*
X154525760Y-80661515D02*
X154563855Y-80775801D01*
X154563855Y-80775801D02*
X154563855Y-80966277D01*
X154335283Y-80204373D02*
X154335283Y-79823420D01*
X154563855Y-80280563D02*
X153763855Y-80013896D01*
X153763855Y-80013896D02*
X154563855Y-79747230D01*
X154525760Y-91564374D02*
X154563855Y-91450088D01*
X154563855Y-91450088D02*
X154563855Y-91259612D01*
X154563855Y-91259612D02*
X154525760Y-91183421D01*
X154525760Y-91183421D02*
X154487664Y-91145326D01*
X154487664Y-91145326D02*
X154411474Y-91107231D01*
X154411474Y-91107231D02*
X154335283Y-91107231D01*
X154335283Y-91107231D02*
X154259093Y-91145326D01*
X154259093Y-91145326D02*
X154220998Y-91183421D01*
X154220998Y-91183421D02*
X154182902Y-91259612D01*
X154182902Y-91259612D02*
X154144807Y-91411993D01*
X154144807Y-91411993D02*
X154106712Y-91488183D01*
X154106712Y-91488183D02*
X154068617Y-91526278D01*
X154068617Y-91526278D02*
X153992426Y-91564374D01*
X153992426Y-91564374D02*
X153916236Y-91564374D01*
X153916236Y-91564374D02*
X153840045Y-91526278D01*
X153840045Y-91526278D02*
X153801950Y-91488183D01*
X153801950Y-91488183D02*
X153763855Y-91411993D01*
X153763855Y-91411993D02*
X153763855Y-91221516D01*
X153763855Y-91221516D02*
X153801950Y-91107231D01*
X153840045Y-90802469D02*
X153801950Y-90764373D01*
X153801950Y-90764373D02*
X153763855Y-90688183D01*
X153763855Y-90688183D02*
X153763855Y-90497707D01*
X153763855Y-90497707D02*
X153801950Y-90421516D01*
X153801950Y-90421516D02*
X153840045Y-90383421D01*
X153840045Y-90383421D02*
X153916236Y-90345326D01*
X153916236Y-90345326D02*
X153992426Y-90345326D01*
X153992426Y-90345326D02*
X154106712Y-90383421D01*
X154106712Y-90383421D02*
X154563855Y-90840564D01*
X154563855Y-90840564D02*
X154563855Y-90345326D01*
X154525760Y-84287231D02*
X154563855Y-84172945D01*
X154563855Y-84172945D02*
X154563855Y-83982469D01*
X154563855Y-83982469D02*
X154525760Y-83906278D01*
X154525760Y-83906278D02*
X154487664Y-83868183D01*
X154487664Y-83868183D02*
X154411474Y-83830088D01*
X154411474Y-83830088D02*
X154335283Y-83830088D01*
X154335283Y-83830088D02*
X154259093Y-83868183D01*
X154259093Y-83868183D02*
X154220998Y-83906278D01*
X154220998Y-83906278D02*
X154182902Y-83982469D01*
X154182902Y-83982469D02*
X154144807Y-84134850D01*
X154144807Y-84134850D02*
X154106712Y-84211040D01*
X154106712Y-84211040D02*
X154068617Y-84249135D01*
X154068617Y-84249135D02*
X153992426Y-84287231D01*
X153992426Y-84287231D02*
X153916236Y-84287231D01*
X153916236Y-84287231D02*
X153840045Y-84249135D01*
X153840045Y-84249135D02*
X153801950Y-84211040D01*
X153801950Y-84211040D02*
X153763855Y-84134850D01*
X153763855Y-84134850D02*
X153763855Y-83944373D01*
X153763855Y-83944373D02*
X153801950Y-83830088D01*
X154487664Y-83030087D02*
X154525760Y-83068183D01*
X154525760Y-83068183D02*
X154563855Y-83182468D01*
X154563855Y-83182468D02*
X154563855Y-83258659D01*
X154563855Y-83258659D02*
X154525760Y-83372945D01*
X154525760Y-83372945D02*
X154449569Y-83449135D01*
X154449569Y-83449135D02*
X154373379Y-83487230D01*
X154373379Y-83487230D02*
X154220998Y-83525326D01*
X154220998Y-83525326D02*
X154106712Y-83525326D01*
X154106712Y-83525326D02*
X153954331Y-83487230D01*
X153954331Y-83487230D02*
X153878140Y-83449135D01*
X153878140Y-83449135D02*
X153801950Y-83372945D01*
X153801950Y-83372945D02*
X153763855Y-83258659D01*
X153763855Y-83258659D02*
X153763855Y-83182468D01*
X153763855Y-83182468D02*
X153801950Y-83068183D01*
X153801950Y-83068183D02*
X153840045Y-83030087D01*
X154563855Y-82306278D02*
X154563855Y-82687230D01*
X154563855Y-82687230D02*
X153763855Y-82687230D01*
%TO.C,J25*%
X210481950Y-86361523D02*
X210443855Y-86437713D01*
X210443855Y-86437713D02*
X210443855Y-86551999D01*
X210443855Y-86551999D02*
X210481950Y-86666285D01*
X210481950Y-86666285D02*
X210558140Y-86742475D01*
X210558140Y-86742475D02*
X210634331Y-86780570D01*
X210634331Y-86780570D02*
X210786712Y-86818666D01*
X210786712Y-86818666D02*
X210900998Y-86818666D01*
X210900998Y-86818666D02*
X211053379Y-86780570D01*
X211053379Y-86780570D02*
X211129569Y-86742475D01*
X211129569Y-86742475D02*
X211205760Y-86666285D01*
X211205760Y-86666285D02*
X211243855Y-86551999D01*
X211243855Y-86551999D02*
X211243855Y-86475808D01*
X211243855Y-86475808D02*
X211205760Y-86361523D01*
X211205760Y-86361523D02*
X211167664Y-86323427D01*
X211167664Y-86323427D02*
X210900998Y-86323427D01*
X210900998Y-86323427D02*
X210900998Y-86475808D01*
X211243855Y-85980570D02*
X210443855Y-85980570D01*
X210443855Y-85980570D02*
X211243855Y-85523427D01*
X211243855Y-85523427D02*
X210443855Y-85523427D01*
X211243855Y-85142475D02*
X210443855Y-85142475D01*
X210443855Y-85142475D02*
X210443855Y-84951999D01*
X210443855Y-84951999D02*
X210481950Y-84837713D01*
X210481950Y-84837713D02*
X210558140Y-84761523D01*
X210558140Y-84761523D02*
X210634331Y-84723428D01*
X210634331Y-84723428D02*
X210786712Y-84685332D01*
X210786712Y-84685332D02*
X210900998Y-84685332D01*
X210900998Y-84685332D02*
X211053379Y-84723428D01*
X211053379Y-84723428D02*
X211129569Y-84761523D01*
X211129569Y-84761523D02*
X211205760Y-84837713D01*
X211205760Y-84837713D02*
X211243855Y-84951999D01*
X211243855Y-84951999D02*
X211243855Y-85142475D01*
X211205760Y-88520571D02*
X211243855Y-88406285D01*
X211243855Y-88406285D02*
X211243855Y-88215809D01*
X211243855Y-88215809D02*
X211205760Y-88139618D01*
X211205760Y-88139618D02*
X211167664Y-88101523D01*
X211167664Y-88101523D02*
X211091474Y-88063428D01*
X211091474Y-88063428D02*
X211015283Y-88063428D01*
X211015283Y-88063428D02*
X210939093Y-88101523D01*
X210939093Y-88101523D02*
X210900998Y-88139618D01*
X210900998Y-88139618D02*
X210862902Y-88215809D01*
X210862902Y-88215809D02*
X210824807Y-88368190D01*
X210824807Y-88368190D02*
X210786712Y-88444380D01*
X210786712Y-88444380D02*
X210748617Y-88482475D01*
X210748617Y-88482475D02*
X210672426Y-88520571D01*
X210672426Y-88520571D02*
X210596236Y-88520571D01*
X210596236Y-88520571D02*
X210520045Y-88482475D01*
X210520045Y-88482475D02*
X210481950Y-88444380D01*
X210481950Y-88444380D02*
X210443855Y-88368190D01*
X210443855Y-88368190D02*
X210443855Y-88177713D01*
X210443855Y-88177713D02*
X210481950Y-88063428D01*
X210443855Y-91898666D02*
X211243855Y-91631999D01*
X211243855Y-91631999D02*
X210443855Y-91365333D01*
X211167664Y-90641523D02*
X211205760Y-90679619D01*
X211205760Y-90679619D02*
X211243855Y-90793904D01*
X211243855Y-90793904D02*
X211243855Y-90870095D01*
X211243855Y-90870095D02*
X211205760Y-90984381D01*
X211205760Y-90984381D02*
X211129569Y-91060571D01*
X211129569Y-91060571D02*
X211053379Y-91098666D01*
X211053379Y-91098666D02*
X210900998Y-91136762D01*
X210900998Y-91136762D02*
X210786712Y-91136762D01*
X210786712Y-91136762D02*
X210634331Y-91098666D01*
X210634331Y-91098666D02*
X210558140Y-91060571D01*
X210558140Y-91060571D02*
X210481950Y-90984381D01*
X210481950Y-90984381D02*
X210443855Y-90870095D01*
X210443855Y-90870095D02*
X210443855Y-90793904D01*
X210443855Y-90793904D02*
X210481950Y-90679619D01*
X210481950Y-90679619D02*
X210520045Y-90641523D01*
X211167664Y-89841523D02*
X211205760Y-89879619D01*
X211205760Y-89879619D02*
X211243855Y-89993904D01*
X211243855Y-89993904D02*
X211243855Y-90070095D01*
X211243855Y-90070095D02*
X211205760Y-90184381D01*
X211205760Y-90184381D02*
X211129569Y-90260571D01*
X211129569Y-90260571D02*
X211053379Y-90298666D01*
X211053379Y-90298666D02*
X210900998Y-90336762D01*
X210900998Y-90336762D02*
X210786712Y-90336762D01*
X210786712Y-90336762D02*
X210634331Y-90298666D01*
X210634331Y-90298666D02*
X210558140Y-90260571D01*
X210558140Y-90260571D02*
X210481950Y-90184381D01*
X210481950Y-90184381D02*
X210443855Y-90070095D01*
X210443855Y-90070095D02*
X210443855Y-89993904D01*
X210443855Y-89993904D02*
X210481950Y-89879619D01*
X210481950Y-89879619D02*
X210520045Y-89841523D01*
%TO.C,J28*%
X91958144Y-80688619D02*
X92339097Y-80421952D01*
X91958144Y-80231476D02*
X92758144Y-80231476D01*
X92758144Y-80231476D02*
X92758144Y-80536238D01*
X92758144Y-80536238D02*
X92720049Y-80612428D01*
X92720049Y-80612428D02*
X92681954Y-80650523D01*
X92681954Y-80650523D02*
X92605763Y-80688619D01*
X92605763Y-80688619D02*
X92491478Y-80688619D01*
X92491478Y-80688619D02*
X92415287Y-80650523D01*
X92415287Y-80650523D02*
X92377192Y-80612428D01*
X92377192Y-80612428D02*
X92339097Y-80536238D01*
X92339097Y-80536238D02*
X92339097Y-80231476D01*
%TO.C,J8*%
X150495760Y-91564374D02*
X150533855Y-91450088D01*
X150533855Y-91450088D02*
X150533855Y-91259612D01*
X150533855Y-91259612D02*
X150495760Y-91183421D01*
X150495760Y-91183421D02*
X150457664Y-91145326D01*
X150457664Y-91145326D02*
X150381474Y-91107231D01*
X150381474Y-91107231D02*
X150305283Y-91107231D01*
X150305283Y-91107231D02*
X150229093Y-91145326D01*
X150229093Y-91145326D02*
X150190998Y-91183421D01*
X150190998Y-91183421D02*
X150152902Y-91259612D01*
X150152902Y-91259612D02*
X150114807Y-91411993D01*
X150114807Y-91411993D02*
X150076712Y-91488183D01*
X150076712Y-91488183D02*
X150038617Y-91526278D01*
X150038617Y-91526278D02*
X149962426Y-91564374D01*
X149962426Y-91564374D02*
X149886236Y-91564374D01*
X149886236Y-91564374D02*
X149810045Y-91526278D01*
X149810045Y-91526278D02*
X149771950Y-91488183D01*
X149771950Y-91488183D02*
X149733855Y-91411993D01*
X149733855Y-91411993D02*
X149733855Y-91221516D01*
X149733855Y-91221516D02*
X149771950Y-91107231D01*
X150533855Y-90345326D02*
X150533855Y-90802469D01*
X150533855Y-90573897D02*
X149733855Y-90573897D01*
X149733855Y-90573897D02*
X149848140Y-90650088D01*
X149848140Y-90650088D02*
X149924331Y-90726278D01*
X149924331Y-90726278D02*
X149962426Y-90802469D01*
X150305283Y-88986278D02*
X150305283Y-88605325D01*
X150533855Y-89062468D02*
X149733855Y-88795801D01*
X149733855Y-88795801D02*
X150533855Y-88529135D01*
X150533855Y-87843421D02*
X150533855Y-88300564D01*
X150533855Y-88071992D02*
X149733855Y-88071992D01*
X149733855Y-88071992D02*
X149848140Y-88148183D01*
X149848140Y-88148183D02*
X149924331Y-88224373D01*
X149924331Y-88224373D02*
X149962426Y-88300564D01*
X150114807Y-86198659D02*
X150152902Y-86084373D01*
X150152902Y-86084373D02*
X150190998Y-86046278D01*
X150190998Y-86046278D02*
X150267188Y-86008182D01*
X150267188Y-86008182D02*
X150381474Y-86008182D01*
X150381474Y-86008182D02*
X150457664Y-86046278D01*
X150457664Y-86046278D02*
X150495760Y-86084373D01*
X150495760Y-86084373D02*
X150533855Y-86160563D01*
X150533855Y-86160563D02*
X150533855Y-86465325D01*
X150533855Y-86465325D02*
X149733855Y-86465325D01*
X149733855Y-86465325D02*
X149733855Y-86198659D01*
X149733855Y-86198659D02*
X149771950Y-86122468D01*
X149771950Y-86122468D02*
X149810045Y-86084373D01*
X149810045Y-86084373D02*
X149886236Y-86046278D01*
X149886236Y-86046278D02*
X149962426Y-86046278D01*
X149962426Y-86046278D02*
X150038617Y-86084373D01*
X150038617Y-86084373D02*
X150076712Y-86122468D01*
X150076712Y-86122468D02*
X150114807Y-86198659D01*
X150114807Y-86198659D02*
X150114807Y-86465325D01*
X150533855Y-85246278D02*
X150533855Y-85703421D01*
X150533855Y-85474849D02*
X149733855Y-85474849D01*
X149733855Y-85474849D02*
X149848140Y-85551040D01*
X149848140Y-85551040D02*
X149924331Y-85627230D01*
X149924331Y-85627230D02*
X149962426Y-85703421D01*
X150114807Y-81118659D02*
X150152902Y-81004373D01*
X150152902Y-81004373D02*
X150190998Y-80966278D01*
X150190998Y-80966278D02*
X150267188Y-80928182D01*
X150267188Y-80928182D02*
X150381474Y-80928182D01*
X150381474Y-80928182D02*
X150457664Y-80966278D01*
X150457664Y-80966278D02*
X150495760Y-81004373D01*
X150495760Y-81004373D02*
X150533855Y-81080563D01*
X150533855Y-81080563D02*
X150533855Y-81385325D01*
X150533855Y-81385325D02*
X149733855Y-81385325D01*
X149733855Y-81385325D02*
X149733855Y-81118659D01*
X149733855Y-81118659D02*
X149771950Y-81042468D01*
X149771950Y-81042468D02*
X149810045Y-81004373D01*
X149810045Y-81004373D02*
X149886236Y-80966278D01*
X149886236Y-80966278D02*
X149962426Y-80966278D01*
X149962426Y-80966278D02*
X150038617Y-81004373D01*
X150038617Y-81004373D02*
X150076712Y-81042468D01*
X150076712Y-81042468D02*
X150114807Y-81118659D01*
X150114807Y-81118659D02*
X150114807Y-81385325D01*
X149810045Y-80623421D02*
X149771950Y-80585325D01*
X149771950Y-80585325D02*
X149733855Y-80509135D01*
X149733855Y-80509135D02*
X149733855Y-80318659D01*
X149733855Y-80318659D02*
X149771950Y-80242468D01*
X149771950Y-80242468D02*
X149810045Y-80204373D01*
X149810045Y-80204373D02*
X149886236Y-80166278D01*
X149886236Y-80166278D02*
X149962426Y-80166278D01*
X149962426Y-80166278D02*
X150076712Y-80204373D01*
X150076712Y-80204373D02*
X150533855Y-80661516D01*
X150533855Y-80661516D02*
X150533855Y-80166278D01*
X150305283Y-83906278D02*
X150305283Y-83525325D01*
X150533855Y-83982468D02*
X149733855Y-83715801D01*
X149733855Y-83715801D02*
X150533855Y-83449135D01*
X149810045Y-83220564D02*
X149771950Y-83182468D01*
X149771950Y-83182468D02*
X149733855Y-83106278D01*
X149733855Y-83106278D02*
X149733855Y-82915802D01*
X149733855Y-82915802D02*
X149771950Y-82839611D01*
X149771950Y-82839611D02*
X149810045Y-82801516D01*
X149810045Y-82801516D02*
X149886236Y-82763421D01*
X149886236Y-82763421D02*
X149962426Y-82763421D01*
X149962426Y-82763421D02*
X150076712Y-82801516D01*
X150076712Y-82801516D02*
X150533855Y-83258659D01*
X150533855Y-83258659D02*
X150533855Y-82763421D01*
%TO.C,J27*%
X97541823Y-48362348D02*
X97160870Y-48629015D01*
X97541823Y-48819491D02*
X96741823Y-48819491D01*
X96741823Y-48819491D02*
X96741823Y-48514729D01*
X96741823Y-48514729D02*
X96779918Y-48438539D01*
X96779918Y-48438539D02*
X96818013Y-48400444D01*
X96818013Y-48400444D02*
X96894204Y-48362348D01*
X96894204Y-48362348D02*
X97008489Y-48362348D01*
X97008489Y-48362348D02*
X97084680Y-48400444D01*
X97084680Y-48400444D02*
X97122775Y-48438539D01*
X97122775Y-48438539D02*
X97160870Y-48514729D01*
X97160870Y-48514729D02*
X97160870Y-48819491D01*
X94925632Y-48362348D02*
X94963728Y-48400444D01*
X94963728Y-48400444D02*
X95001823Y-48514729D01*
X95001823Y-48514729D02*
X95001823Y-48590920D01*
X95001823Y-48590920D02*
X94963728Y-48705206D01*
X94963728Y-48705206D02*
X94887537Y-48781396D01*
X94887537Y-48781396D02*
X94811347Y-48819491D01*
X94811347Y-48819491D02*
X94658966Y-48857587D01*
X94658966Y-48857587D02*
X94544680Y-48857587D01*
X94544680Y-48857587D02*
X94392299Y-48819491D01*
X94392299Y-48819491D02*
X94316108Y-48781396D01*
X94316108Y-48781396D02*
X94239918Y-48705206D01*
X94239918Y-48705206D02*
X94201823Y-48590920D01*
X94201823Y-48590920D02*
X94201823Y-48514729D01*
X94201823Y-48514729D02*
X94239918Y-48400444D01*
X94239918Y-48400444D02*
X94278013Y-48362348D01*
X100005632Y-48362348D02*
X100043728Y-48400444D01*
X100043728Y-48400444D02*
X100081823Y-48514729D01*
X100081823Y-48514729D02*
X100081823Y-48590920D01*
X100081823Y-48590920D02*
X100043728Y-48705206D01*
X100043728Y-48705206D02*
X99967537Y-48781396D01*
X99967537Y-48781396D02*
X99891347Y-48819491D01*
X99891347Y-48819491D02*
X99738966Y-48857587D01*
X99738966Y-48857587D02*
X99624680Y-48857587D01*
X99624680Y-48857587D02*
X99472299Y-48819491D01*
X99472299Y-48819491D02*
X99396108Y-48781396D01*
X99396108Y-48781396D02*
X99319918Y-48705206D01*
X99319918Y-48705206D02*
X99281823Y-48590920D01*
X99281823Y-48590920D02*
X99281823Y-48514729D01*
X99281823Y-48514729D02*
X99319918Y-48400444D01*
X99319918Y-48400444D02*
X99358013Y-48362348D01*
%TO.C,J2*%
X139433333Y-85938705D02*
X139700000Y-86738705D01*
X139700000Y-86738705D02*
X139966666Y-85938705D01*
X140690476Y-86662514D02*
X140652380Y-86700610D01*
X140652380Y-86700610D02*
X140538095Y-86738705D01*
X140538095Y-86738705D02*
X140461904Y-86738705D01*
X140461904Y-86738705D02*
X140347618Y-86700610D01*
X140347618Y-86700610D02*
X140271428Y-86624419D01*
X140271428Y-86624419D02*
X140233333Y-86548229D01*
X140233333Y-86548229D02*
X140195237Y-86395848D01*
X140195237Y-86395848D02*
X140195237Y-86281562D01*
X140195237Y-86281562D02*
X140233333Y-86129181D01*
X140233333Y-86129181D02*
X140271428Y-86052990D01*
X140271428Y-86052990D02*
X140347618Y-85976800D01*
X140347618Y-85976800D02*
X140461904Y-85938705D01*
X140461904Y-85938705D02*
X140538095Y-85938705D01*
X140538095Y-85938705D02*
X140652380Y-85976800D01*
X140652380Y-85976800D02*
X140690476Y-86014895D01*
X141490476Y-86662514D02*
X141452380Y-86700610D01*
X141452380Y-86700610D02*
X141338095Y-86738705D01*
X141338095Y-86738705D02*
X141261904Y-86738705D01*
X141261904Y-86738705D02*
X141147618Y-86700610D01*
X141147618Y-86700610D02*
X141071428Y-86624419D01*
X141071428Y-86624419D02*
X141033333Y-86548229D01*
X141033333Y-86548229D02*
X140995237Y-86395848D01*
X140995237Y-86395848D02*
X140995237Y-86281562D01*
X140995237Y-86281562D02*
X141033333Y-86129181D01*
X141033333Y-86129181D02*
X141071428Y-86052990D01*
X141071428Y-86052990D02*
X141147618Y-85976800D01*
X141147618Y-85976800D02*
X141261904Y-85938705D01*
X141261904Y-85938705D02*
X141338095Y-85938705D01*
X141338095Y-85938705D02*
X141452380Y-85976800D01*
X141452380Y-85976800D02*
X141490476Y-86014895D01*
X142430476Y-85976800D02*
X142354286Y-85938705D01*
X142354286Y-85938705D02*
X142240000Y-85938705D01*
X142240000Y-85938705D02*
X142125714Y-85976800D01*
X142125714Y-85976800D02*
X142049524Y-86052990D01*
X142049524Y-86052990D02*
X142011429Y-86129181D01*
X142011429Y-86129181D02*
X141973333Y-86281562D01*
X141973333Y-86281562D02*
X141973333Y-86395848D01*
X141973333Y-86395848D02*
X142011429Y-86548229D01*
X142011429Y-86548229D02*
X142049524Y-86624419D01*
X142049524Y-86624419D02*
X142125714Y-86700610D01*
X142125714Y-86700610D02*
X142240000Y-86738705D01*
X142240000Y-86738705D02*
X142316191Y-86738705D01*
X142316191Y-86738705D02*
X142430476Y-86700610D01*
X142430476Y-86700610D02*
X142468572Y-86662514D01*
X142468572Y-86662514D02*
X142468572Y-86395848D01*
X142468572Y-86395848D02*
X142316191Y-86395848D01*
X142811429Y-86738705D02*
X142811429Y-85938705D01*
X142811429Y-85938705D02*
X143268572Y-86738705D01*
X143268572Y-86738705D02*
X143268572Y-85938705D01*
X143649524Y-86738705D02*
X143649524Y-85938705D01*
X143649524Y-85938705D02*
X143840000Y-85938705D01*
X143840000Y-85938705D02*
X143954286Y-85976800D01*
X143954286Y-85976800D02*
X144030476Y-86052990D01*
X144030476Y-86052990D02*
X144068571Y-86129181D01*
X144068571Y-86129181D02*
X144106667Y-86281562D01*
X144106667Y-86281562D02*
X144106667Y-86395848D01*
X144106667Y-86395848D02*
X144068571Y-86548229D01*
X144068571Y-86548229D02*
X144030476Y-86624419D01*
X144030476Y-86624419D02*
X143954286Y-86700610D01*
X143954286Y-86700610D02*
X143840000Y-86738705D01*
X143840000Y-86738705D02*
X143649524Y-86738705D01*
%TO.C,J27*%
X97758887Y-94582412D02*
X97377934Y-94849079D01*
X97758887Y-95039555D02*
X96958887Y-95039555D01*
X96958887Y-95039555D02*
X96958887Y-94734793D01*
X96958887Y-94734793D02*
X96996982Y-94658603D01*
X96996982Y-94658603D02*
X97035077Y-94620508D01*
X97035077Y-94620508D02*
X97111268Y-94582412D01*
X97111268Y-94582412D02*
X97225553Y-94582412D01*
X97225553Y-94582412D02*
X97301744Y-94620508D01*
X97301744Y-94620508D02*
X97339839Y-94658603D01*
X97339839Y-94658603D02*
X97377934Y-94734793D01*
X97377934Y-94734793D02*
X97377934Y-95039555D01*
X100222696Y-94582412D02*
X100260792Y-94620508D01*
X100260792Y-94620508D02*
X100298887Y-94734793D01*
X100298887Y-94734793D02*
X100298887Y-94810984D01*
X100298887Y-94810984D02*
X100260792Y-94925270D01*
X100260792Y-94925270D02*
X100184601Y-95001460D01*
X100184601Y-95001460D02*
X100108411Y-95039555D01*
X100108411Y-95039555D02*
X99956030Y-95077651D01*
X99956030Y-95077651D02*
X99841744Y-95077651D01*
X99841744Y-95077651D02*
X99689363Y-95039555D01*
X99689363Y-95039555D02*
X99613172Y-95001460D01*
X99613172Y-95001460D02*
X99536982Y-94925270D01*
X99536982Y-94925270D02*
X99498887Y-94810984D01*
X99498887Y-94810984D02*
X99498887Y-94734793D01*
X99498887Y-94734793D02*
X99536982Y-94620508D01*
X99536982Y-94620508D02*
X99575077Y-94582412D01*
X95142696Y-94582412D02*
X95180792Y-94620508D01*
X95180792Y-94620508D02*
X95218887Y-94734793D01*
X95218887Y-94734793D02*
X95218887Y-94810984D01*
X95218887Y-94810984D02*
X95180792Y-94925270D01*
X95180792Y-94925270D02*
X95104601Y-95001460D01*
X95104601Y-95001460D02*
X95028411Y-95039555D01*
X95028411Y-95039555D02*
X94876030Y-95077651D01*
X94876030Y-95077651D02*
X94761744Y-95077651D01*
X94761744Y-95077651D02*
X94609363Y-95039555D01*
X94609363Y-95039555D02*
X94533172Y-95001460D01*
X94533172Y-95001460D02*
X94456982Y-94925270D01*
X94456982Y-94925270D02*
X94418887Y-94810984D01*
X94418887Y-94810984D02*
X94418887Y-94734793D01*
X94418887Y-94734793D02*
X94456982Y-94620508D01*
X94456982Y-94620508D02*
X94495077Y-94582412D01*
%TO.C,J25*%
X218897950Y-58297523D02*
X218859855Y-58373713D01*
X218859855Y-58373713D02*
X218859855Y-58487999D01*
X218859855Y-58487999D02*
X218897950Y-58602285D01*
X218897950Y-58602285D02*
X218974140Y-58678475D01*
X218974140Y-58678475D02*
X219050331Y-58716570D01*
X219050331Y-58716570D02*
X219202712Y-58754666D01*
X219202712Y-58754666D02*
X219316998Y-58754666D01*
X219316998Y-58754666D02*
X219469379Y-58716570D01*
X219469379Y-58716570D02*
X219545569Y-58678475D01*
X219545569Y-58678475D02*
X219621760Y-58602285D01*
X219621760Y-58602285D02*
X219659855Y-58487999D01*
X219659855Y-58487999D02*
X219659855Y-58411808D01*
X219659855Y-58411808D02*
X219621760Y-58297523D01*
X219621760Y-58297523D02*
X219583664Y-58259427D01*
X219583664Y-58259427D02*
X219316998Y-58259427D01*
X219316998Y-58259427D02*
X219316998Y-58411808D01*
X219659855Y-57916570D02*
X218859855Y-57916570D01*
X218859855Y-57916570D02*
X219659855Y-57459427D01*
X219659855Y-57459427D02*
X218859855Y-57459427D01*
X219659855Y-57078475D02*
X218859855Y-57078475D01*
X218859855Y-57078475D02*
X218859855Y-56887999D01*
X218859855Y-56887999D02*
X218897950Y-56773713D01*
X218897950Y-56773713D02*
X218974140Y-56697523D01*
X218974140Y-56697523D02*
X219050331Y-56659428D01*
X219050331Y-56659428D02*
X219202712Y-56621332D01*
X219202712Y-56621332D02*
X219316998Y-56621332D01*
X219316998Y-56621332D02*
X219469379Y-56659428D01*
X219469379Y-56659428D02*
X219545569Y-56697523D01*
X219545569Y-56697523D02*
X219621760Y-56773713D01*
X219621760Y-56773713D02*
X219659855Y-56887999D01*
X219659855Y-56887999D02*
X219659855Y-57078475D01*
X219621760Y-55376571D02*
X219659855Y-55262285D01*
X219659855Y-55262285D02*
X219659855Y-55071809D01*
X219659855Y-55071809D02*
X219621760Y-54995618D01*
X219621760Y-54995618D02*
X219583664Y-54957523D01*
X219583664Y-54957523D02*
X219507474Y-54919428D01*
X219507474Y-54919428D02*
X219431283Y-54919428D01*
X219431283Y-54919428D02*
X219355093Y-54957523D01*
X219355093Y-54957523D02*
X219316998Y-54995618D01*
X219316998Y-54995618D02*
X219278902Y-55071809D01*
X219278902Y-55071809D02*
X219240807Y-55224190D01*
X219240807Y-55224190D02*
X219202712Y-55300380D01*
X219202712Y-55300380D02*
X219164617Y-55338475D01*
X219164617Y-55338475D02*
X219088426Y-55376571D01*
X219088426Y-55376571D02*
X219012236Y-55376571D01*
X219012236Y-55376571D02*
X218936045Y-55338475D01*
X218936045Y-55338475D02*
X218897950Y-55300380D01*
X218897950Y-55300380D02*
X218859855Y-55224190D01*
X218859855Y-55224190D02*
X218859855Y-55033713D01*
X218859855Y-55033713D02*
X218897950Y-54919428D01*
X218859855Y-53674666D02*
X219659855Y-53407999D01*
X219659855Y-53407999D02*
X218859855Y-53141333D01*
X219583664Y-52417523D02*
X219621760Y-52455619D01*
X219621760Y-52455619D02*
X219659855Y-52569904D01*
X219659855Y-52569904D02*
X219659855Y-52646095D01*
X219659855Y-52646095D02*
X219621760Y-52760381D01*
X219621760Y-52760381D02*
X219545569Y-52836571D01*
X219545569Y-52836571D02*
X219469379Y-52874666D01*
X219469379Y-52874666D02*
X219316998Y-52912762D01*
X219316998Y-52912762D02*
X219202712Y-52912762D01*
X219202712Y-52912762D02*
X219050331Y-52874666D01*
X219050331Y-52874666D02*
X218974140Y-52836571D01*
X218974140Y-52836571D02*
X218897950Y-52760381D01*
X218897950Y-52760381D02*
X218859855Y-52646095D01*
X218859855Y-52646095D02*
X218859855Y-52569904D01*
X218859855Y-52569904D02*
X218897950Y-52455619D01*
X218897950Y-52455619D02*
X218936045Y-52417523D01*
X219583664Y-51617523D02*
X219621760Y-51655619D01*
X219621760Y-51655619D02*
X219659855Y-51769904D01*
X219659855Y-51769904D02*
X219659855Y-51846095D01*
X219659855Y-51846095D02*
X219621760Y-51960381D01*
X219621760Y-51960381D02*
X219545569Y-52036571D01*
X219545569Y-52036571D02*
X219469379Y-52074666D01*
X219469379Y-52074666D02*
X219316998Y-52112762D01*
X219316998Y-52112762D02*
X219202712Y-52112762D01*
X219202712Y-52112762D02*
X219050331Y-52074666D01*
X219050331Y-52074666D02*
X218974140Y-52036571D01*
X218974140Y-52036571D02*
X218897950Y-51960381D01*
X218897950Y-51960381D02*
X218859855Y-51846095D01*
X218859855Y-51846095D02*
X218859855Y-51769904D01*
X218859855Y-51769904D02*
X218897950Y-51655619D01*
X218897950Y-51655619D02*
X218936045Y-51617523D01*
%TO.C,J3*%
X139928571Y-69020133D02*
X140309524Y-69020133D01*
X139852381Y-69248705D02*
X140119048Y-68448705D01*
X140119048Y-68448705D02*
X140385714Y-69248705D01*
X140614285Y-68524895D02*
X140652381Y-68486800D01*
X140652381Y-68486800D02*
X140728571Y-68448705D01*
X140728571Y-68448705D02*
X140919047Y-68448705D01*
X140919047Y-68448705D02*
X140995238Y-68486800D01*
X140995238Y-68486800D02*
X141033333Y-68524895D01*
X141033333Y-68524895D02*
X141071428Y-68601086D01*
X141071428Y-68601086D02*
X141071428Y-68677276D01*
X141071428Y-68677276D02*
X141033333Y-68791562D01*
X141033333Y-68791562D02*
X140576190Y-69248705D01*
X140576190Y-69248705D02*
X141071428Y-69248705D01*
X142430476Y-68486800D02*
X142354286Y-68448705D01*
X142354286Y-68448705D02*
X142240000Y-68448705D01*
X142240000Y-68448705D02*
X142125714Y-68486800D01*
X142125714Y-68486800D02*
X142049524Y-68562990D01*
X142049524Y-68562990D02*
X142011429Y-68639181D01*
X142011429Y-68639181D02*
X141973333Y-68791562D01*
X141973333Y-68791562D02*
X141973333Y-68905848D01*
X141973333Y-68905848D02*
X142011429Y-69058229D01*
X142011429Y-69058229D02*
X142049524Y-69134419D01*
X142049524Y-69134419D02*
X142125714Y-69210610D01*
X142125714Y-69210610D02*
X142240000Y-69248705D01*
X142240000Y-69248705D02*
X142316191Y-69248705D01*
X142316191Y-69248705D02*
X142430476Y-69210610D01*
X142430476Y-69210610D02*
X142468572Y-69172514D01*
X142468572Y-69172514D02*
X142468572Y-68905848D01*
X142468572Y-68905848D02*
X142316191Y-68905848D01*
X142811429Y-69248705D02*
X142811429Y-68448705D01*
X142811429Y-68448705D02*
X143268572Y-69248705D01*
X143268572Y-69248705D02*
X143268572Y-68448705D01*
X143649524Y-69248705D02*
X143649524Y-68448705D01*
X143649524Y-68448705D02*
X143840000Y-68448705D01*
X143840000Y-68448705D02*
X143954286Y-68486800D01*
X143954286Y-68486800D02*
X144030476Y-68562990D01*
X144030476Y-68562990D02*
X144068571Y-68639181D01*
X144068571Y-68639181D02*
X144106667Y-68791562D01*
X144106667Y-68791562D02*
X144106667Y-68905848D01*
X144106667Y-68905848D02*
X144068571Y-69058229D01*
X144068571Y-69058229D02*
X144030476Y-69134419D01*
X144030476Y-69134419D02*
X143954286Y-69210610D01*
X143954286Y-69210610D02*
X143840000Y-69248705D01*
X143840000Y-69248705D02*
X143649524Y-69248705D01*
X145256190Y-68829657D02*
X145370476Y-68867752D01*
X145370476Y-68867752D02*
X145408571Y-68905848D01*
X145408571Y-68905848D02*
X145446667Y-68982038D01*
X145446667Y-68982038D02*
X145446667Y-69096324D01*
X145446667Y-69096324D02*
X145408571Y-69172514D01*
X145408571Y-69172514D02*
X145370476Y-69210610D01*
X145370476Y-69210610D02*
X145294286Y-69248705D01*
X145294286Y-69248705D02*
X144989524Y-69248705D01*
X144989524Y-69248705D02*
X144989524Y-68448705D01*
X144989524Y-68448705D02*
X145256190Y-68448705D01*
X145256190Y-68448705D02*
X145332381Y-68486800D01*
X145332381Y-68486800D02*
X145370476Y-68524895D01*
X145370476Y-68524895D02*
X145408571Y-68601086D01*
X145408571Y-68601086D02*
X145408571Y-68677276D01*
X145408571Y-68677276D02*
X145370476Y-68753467D01*
X145370476Y-68753467D02*
X145332381Y-68791562D01*
X145332381Y-68791562D02*
X145256190Y-68829657D01*
X145256190Y-68829657D02*
X144989524Y-68829657D01*
X145751428Y-68524895D02*
X145789524Y-68486800D01*
X145789524Y-68486800D02*
X145865714Y-68448705D01*
X145865714Y-68448705D02*
X146056190Y-68448705D01*
X146056190Y-68448705D02*
X146132381Y-68486800D01*
X146132381Y-68486800D02*
X146170476Y-68524895D01*
X146170476Y-68524895D02*
X146208571Y-68601086D01*
X146208571Y-68601086D02*
X146208571Y-68677276D01*
X146208571Y-68677276D02*
X146170476Y-68791562D01*
X146170476Y-68791562D02*
X145713333Y-69248705D01*
X145713333Y-69248705D02*
X146208571Y-69248705D01*
%TO.C,J7*%
X142430475Y-81620610D02*
X142544761Y-81658705D01*
X142544761Y-81658705D02*
X142735237Y-81658705D01*
X142735237Y-81658705D02*
X142811428Y-81620610D01*
X142811428Y-81620610D02*
X142849523Y-81582514D01*
X142849523Y-81582514D02*
X142887618Y-81506324D01*
X142887618Y-81506324D02*
X142887618Y-81430133D01*
X142887618Y-81430133D02*
X142849523Y-81353943D01*
X142849523Y-81353943D02*
X142811428Y-81315848D01*
X142811428Y-81315848D02*
X142735237Y-81277752D01*
X142735237Y-81277752D02*
X142582856Y-81239657D01*
X142582856Y-81239657D02*
X142506666Y-81201562D01*
X142506666Y-81201562D02*
X142468571Y-81163467D01*
X142468571Y-81163467D02*
X142430475Y-81087276D01*
X142430475Y-81087276D02*
X142430475Y-81011086D01*
X142430475Y-81011086D02*
X142468571Y-80934895D01*
X142468571Y-80934895D02*
X142506666Y-80896800D01*
X142506666Y-80896800D02*
X142582856Y-80858705D01*
X142582856Y-80858705D02*
X142773333Y-80858705D01*
X142773333Y-80858705D02*
X142887618Y-80896800D01*
X143649523Y-81658705D02*
X143192380Y-81658705D01*
X143420952Y-81658705D02*
X143420952Y-80858705D01*
X143420952Y-80858705D02*
X143344761Y-80972990D01*
X143344761Y-80972990D02*
X143268571Y-81049181D01*
X143268571Y-81049181D02*
X143192380Y-81087276D01*
X139433333Y-80858705D02*
X139700000Y-81658705D01*
X139700000Y-81658705D02*
X139966666Y-80858705D01*
X140690476Y-81582514D02*
X140652380Y-81620610D01*
X140652380Y-81620610D02*
X140538095Y-81658705D01*
X140538095Y-81658705D02*
X140461904Y-81658705D01*
X140461904Y-81658705D02*
X140347618Y-81620610D01*
X140347618Y-81620610D02*
X140271428Y-81544419D01*
X140271428Y-81544419D02*
X140233333Y-81468229D01*
X140233333Y-81468229D02*
X140195237Y-81315848D01*
X140195237Y-81315848D02*
X140195237Y-81201562D01*
X140195237Y-81201562D02*
X140233333Y-81049181D01*
X140233333Y-81049181D02*
X140271428Y-80972990D01*
X140271428Y-80972990D02*
X140347618Y-80896800D01*
X140347618Y-80896800D02*
X140461904Y-80858705D01*
X140461904Y-80858705D02*
X140538095Y-80858705D01*
X140538095Y-80858705D02*
X140652380Y-80896800D01*
X140652380Y-80896800D02*
X140690476Y-80934895D01*
X141490476Y-81582514D02*
X141452380Y-81620610D01*
X141452380Y-81620610D02*
X141338095Y-81658705D01*
X141338095Y-81658705D02*
X141261904Y-81658705D01*
X141261904Y-81658705D02*
X141147618Y-81620610D01*
X141147618Y-81620610D02*
X141071428Y-81544419D01*
X141071428Y-81544419D02*
X141033333Y-81468229D01*
X141033333Y-81468229D02*
X140995237Y-81315848D01*
X140995237Y-81315848D02*
X140995237Y-81201562D01*
X140995237Y-81201562D02*
X141033333Y-81049181D01*
X141033333Y-81049181D02*
X141071428Y-80972990D01*
X141071428Y-80972990D02*
X141147618Y-80896800D01*
X141147618Y-80896800D02*
X141261904Y-80858705D01*
X141261904Y-80858705D02*
X141338095Y-80858705D01*
X141338095Y-80858705D02*
X141452380Y-80896800D01*
X141452380Y-80896800D02*
X141490476Y-80934895D01*
X144970476Y-80896800D02*
X144894286Y-80858705D01*
X144894286Y-80858705D02*
X144780000Y-80858705D01*
X144780000Y-80858705D02*
X144665714Y-80896800D01*
X144665714Y-80896800D02*
X144589524Y-80972990D01*
X144589524Y-80972990D02*
X144551429Y-81049181D01*
X144551429Y-81049181D02*
X144513333Y-81201562D01*
X144513333Y-81201562D02*
X144513333Y-81315848D01*
X144513333Y-81315848D02*
X144551429Y-81468229D01*
X144551429Y-81468229D02*
X144589524Y-81544419D01*
X144589524Y-81544419D02*
X144665714Y-81620610D01*
X144665714Y-81620610D02*
X144780000Y-81658705D01*
X144780000Y-81658705D02*
X144856191Y-81658705D01*
X144856191Y-81658705D02*
X144970476Y-81620610D01*
X144970476Y-81620610D02*
X145008572Y-81582514D01*
X145008572Y-81582514D02*
X145008572Y-81315848D01*
X145008572Y-81315848D02*
X144856191Y-81315848D01*
X145351429Y-81658705D02*
X145351429Y-80858705D01*
X145351429Y-80858705D02*
X145808572Y-81658705D01*
X145808572Y-81658705D02*
X145808572Y-80858705D01*
X146189524Y-81658705D02*
X146189524Y-80858705D01*
X146189524Y-80858705D02*
X146380000Y-80858705D01*
X146380000Y-80858705D02*
X146494286Y-80896800D01*
X146494286Y-80896800D02*
X146570476Y-80972990D01*
X146570476Y-80972990D02*
X146608571Y-81049181D01*
X146608571Y-81049181D02*
X146646667Y-81201562D01*
X146646667Y-81201562D02*
X146646667Y-81315848D01*
X146646667Y-81315848D02*
X146608571Y-81468229D01*
X146608571Y-81468229D02*
X146570476Y-81544419D01*
X146570476Y-81544419D02*
X146494286Y-81620610D01*
X146494286Y-81620610D02*
X146380000Y-81658705D01*
X146380000Y-81658705D02*
X146189524Y-81658705D01*
%TO.C,J28*%
X102614855Y-62751380D02*
X102233902Y-63018047D01*
X102614855Y-63208523D02*
X101814855Y-63208523D01*
X101814855Y-63208523D02*
X101814855Y-62903761D01*
X101814855Y-62903761D02*
X101852950Y-62827571D01*
X101852950Y-62827571D02*
X101891045Y-62789476D01*
X101891045Y-62789476D02*
X101967236Y-62751380D01*
X101967236Y-62751380D02*
X102081521Y-62751380D01*
X102081521Y-62751380D02*
X102157712Y-62789476D01*
X102157712Y-62789476D02*
X102195807Y-62827571D01*
X102195807Y-62827571D02*
X102233902Y-62903761D01*
X102233902Y-62903761D02*
X102233902Y-63208523D01*
%TO.C,J26*%
X96571476Y-65620950D02*
X96495286Y-65582855D01*
X96495286Y-65582855D02*
X96381000Y-65582855D01*
X96381000Y-65582855D02*
X96266714Y-65620950D01*
X96266714Y-65620950D02*
X96190524Y-65697140D01*
X96190524Y-65697140D02*
X96152429Y-65773331D01*
X96152429Y-65773331D02*
X96114333Y-65925712D01*
X96114333Y-65925712D02*
X96114333Y-66039998D01*
X96114333Y-66039998D02*
X96152429Y-66192379D01*
X96152429Y-66192379D02*
X96190524Y-66268569D01*
X96190524Y-66268569D02*
X96266714Y-66344760D01*
X96266714Y-66344760D02*
X96381000Y-66382855D01*
X96381000Y-66382855D02*
X96457191Y-66382855D01*
X96457191Y-66382855D02*
X96571476Y-66344760D01*
X96571476Y-66344760D02*
X96609572Y-66306664D01*
X96609572Y-66306664D02*
X96609572Y-66039998D01*
X96609572Y-66039998D02*
X96457191Y-66039998D01*
X96952429Y-66382855D02*
X96952429Y-65582855D01*
X96952429Y-65582855D02*
X97409572Y-66382855D01*
X97409572Y-66382855D02*
X97409572Y-65582855D01*
X97790524Y-66382855D02*
X97790524Y-65582855D01*
X97790524Y-65582855D02*
X97981000Y-65582855D01*
X97981000Y-65582855D02*
X98095286Y-65620950D01*
X98095286Y-65620950D02*
X98171476Y-65697140D01*
X98171476Y-65697140D02*
X98209571Y-65773331D01*
X98209571Y-65773331D02*
X98247667Y-65925712D01*
X98247667Y-65925712D02*
X98247667Y-66039998D01*
X98247667Y-66039998D02*
X98209571Y-66192379D01*
X98209571Y-66192379D02*
X98171476Y-66268569D01*
X98171476Y-66268569D02*
X98095286Y-66344760D01*
X98095286Y-66344760D02*
X97981000Y-66382855D01*
X97981000Y-66382855D02*
X97790524Y-66382855D01*
X94450523Y-66154283D02*
X94831476Y-66154283D01*
X94374333Y-66382855D02*
X94641000Y-65582855D01*
X94641000Y-65582855D02*
X94907666Y-66382855D01*
X99778142Y-65963807D02*
X99892428Y-66001902D01*
X99892428Y-66001902D02*
X99930523Y-66039998D01*
X99930523Y-66039998D02*
X99968619Y-66116188D01*
X99968619Y-66116188D02*
X99968619Y-66230474D01*
X99968619Y-66230474D02*
X99930523Y-66306664D01*
X99930523Y-66306664D02*
X99892428Y-66344760D01*
X99892428Y-66344760D02*
X99816238Y-66382855D01*
X99816238Y-66382855D02*
X99511476Y-66382855D01*
X99511476Y-66382855D02*
X99511476Y-65582855D01*
X99511476Y-65582855D02*
X99778142Y-65582855D01*
X99778142Y-65582855D02*
X99854333Y-65620950D01*
X99854333Y-65620950D02*
X99892428Y-65659045D01*
X99892428Y-65659045D02*
X99930523Y-65735236D01*
X99930523Y-65735236D02*
X99930523Y-65811426D01*
X99930523Y-65811426D02*
X99892428Y-65887617D01*
X99892428Y-65887617D02*
X99854333Y-65925712D01*
X99854333Y-65925712D02*
X99778142Y-65963807D01*
X99778142Y-65963807D02*
X99511476Y-65963807D01*
%TO.C,J5*%
X200297619Y-56578705D02*
X199916667Y-56578705D01*
X199916667Y-56578705D02*
X199916667Y-55778705D01*
%TO.C,J15*%
X145256190Y-72969657D02*
X145370476Y-73007752D01*
X145370476Y-73007752D02*
X145408571Y-73045848D01*
X145408571Y-73045848D02*
X145446667Y-73122038D01*
X145446667Y-73122038D02*
X145446667Y-73236324D01*
X145446667Y-73236324D02*
X145408571Y-73312514D01*
X145408571Y-73312514D02*
X145370476Y-73350610D01*
X145370476Y-73350610D02*
X145294286Y-73388705D01*
X145294286Y-73388705D02*
X144989524Y-73388705D01*
X144989524Y-73388705D02*
X144989524Y-72588705D01*
X144989524Y-72588705D02*
X145256190Y-72588705D01*
X145256190Y-72588705D02*
X145332381Y-72626800D01*
X145332381Y-72626800D02*
X145370476Y-72664895D01*
X145370476Y-72664895D02*
X145408571Y-72741086D01*
X145408571Y-72741086D02*
X145408571Y-72817276D01*
X145408571Y-72817276D02*
X145370476Y-72893467D01*
X145370476Y-72893467D02*
X145332381Y-72931562D01*
X145332381Y-72931562D02*
X145256190Y-72969657D01*
X145256190Y-72969657D02*
X144989524Y-72969657D01*
X146208571Y-73388705D02*
X145751428Y-73388705D01*
X145980000Y-73388705D02*
X145980000Y-72588705D01*
X145980000Y-72588705D02*
X145903809Y-72702990D01*
X145903809Y-72702990D02*
X145827619Y-72779181D01*
X145827619Y-72779181D02*
X145751428Y-72817276D01*
X142430476Y-72626800D02*
X142354286Y-72588705D01*
X142354286Y-72588705D02*
X142240000Y-72588705D01*
X142240000Y-72588705D02*
X142125714Y-72626800D01*
X142125714Y-72626800D02*
X142049524Y-72702990D01*
X142049524Y-72702990D02*
X142011429Y-72779181D01*
X142011429Y-72779181D02*
X141973333Y-72931562D01*
X141973333Y-72931562D02*
X141973333Y-73045848D01*
X141973333Y-73045848D02*
X142011429Y-73198229D01*
X142011429Y-73198229D02*
X142049524Y-73274419D01*
X142049524Y-73274419D02*
X142125714Y-73350610D01*
X142125714Y-73350610D02*
X142240000Y-73388705D01*
X142240000Y-73388705D02*
X142316191Y-73388705D01*
X142316191Y-73388705D02*
X142430476Y-73350610D01*
X142430476Y-73350610D02*
X142468572Y-73312514D01*
X142468572Y-73312514D02*
X142468572Y-73045848D01*
X142468572Y-73045848D02*
X142316191Y-73045848D01*
X142811429Y-73388705D02*
X142811429Y-72588705D01*
X142811429Y-72588705D02*
X143268572Y-73388705D01*
X143268572Y-73388705D02*
X143268572Y-72588705D01*
X143649524Y-73388705D02*
X143649524Y-72588705D01*
X143649524Y-72588705D02*
X143840000Y-72588705D01*
X143840000Y-72588705D02*
X143954286Y-72626800D01*
X143954286Y-72626800D02*
X144030476Y-72702990D01*
X144030476Y-72702990D02*
X144068571Y-72779181D01*
X144068571Y-72779181D02*
X144106667Y-72931562D01*
X144106667Y-72931562D02*
X144106667Y-73045848D01*
X144106667Y-73045848D02*
X144068571Y-73198229D01*
X144068571Y-73198229D02*
X144030476Y-73274419D01*
X144030476Y-73274419D02*
X143954286Y-73350610D01*
X143954286Y-73350610D02*
X143840000Y-73388705D01*
X143840000Y-73388705D02*
X143649524Y-73388705D01*
X139928571Y-73160133D02*
X140309524Y-73160133D01*
X139852381Y-73388705D02*
X140119048Y-72588705D01*
X140119048Y-72588705D02*
X140385714Y-73388705D01*
X141071428Y-73388705D02*
X140614285Y-73388705D01*
X140842857Y-73388705D02*
X140842857Y-72588705D01*
X140842857Y-72588705D02*
X140766666Y-72702990D01*
X140766666Y-72702990D02*
X140690476Y-72779181D01*
X140690476Y-72779181D02*
X140614285Y-72817276D01*
%TO.C,J8*%
X170605582Y-55605981D02*
X170605582Y-55225028D01*
X170834154Y-55682171D02*
X170034154Y-55415504D01*
X170034154Y-55415504D02*
X170834154Y-55148838D01*
X170834154Y-54463124D02*
X170834154Y-54920267D01*
X170834154Y-54691695D02*
X170034154Y-54691695D01*
X170034154Y-54691695D02*
X170148439Y-54767886D01*
X170148439Y-54767886D02*
X170224630Y-54844076D01*
X170224630Y-54844076D02*
X170262725Y-54920267D01*
X170415106Y-62978362D02*
X170453201Y-62864076D01*
X170453201Y-62864076D02*
X170491297Y-62825981D01*
X170491297Y-62825981D02*
X170567487Y-62787885D01*
X170567487Y-62787885D02*
X170681773Y-62787885D01*
X170681773Y-62787885D02*
X170757963Y-62825981D01*
X170757963Y-62825981D02*
X170796059Y-62864076D01*
X170796059Y-62864076D02*
X170834154Y-62940266D01*
X170834154Y-62940266D02*
X170834154Y-63245028D01*
X170834154Y-63245028D02*
X170034154Y-63245028D01*
X170034154Y-63245028D02*
X170034154Y-62978362D01*
X170034154Y-62978362D02*
X170072249Y-62902171D01*
X170072249Y-62902171D02*
X170110344Y-62864076D01*
X170110344Y-62864076D02*
X170186535Y-62825981D01*
X170186535Y-62825981D02*
X170262725Y-62825981D01*
X170262725Y-62825981D02*
X170338916Y-62864076D01*
X170338916Y-62864076D02*
X170377011Y-62902171D01*
X170377011Y-62902171D02*
X170415106Y-62978362D01*
X170415106Y-62978362D02*
X170415106Y-63245028D01*
X170110344Y-62483124D02*
X170072249Y-62445028D01*
X170072249Y-62445028D02*
X170034154Y-62368838D01*
X170034154Y-62368838D02*
X170034154Y-62178362D01*
X170034154Y-62178362D02*
X170072249Y-62102171D01*
X170072249Y-62102171D02*
X170110344Y-62064076D01*
X170110344Y-62064076D02*
X170186535Y-62025981D01*
X170186535Y-62025981D02*
X170262725Y-62025981D01*
X170262725Y-62025981D02*
X170377011Y-62064076D01*
X170377011Y-62064076D02*
X170834154Y-62521219D01*
X170834154Y-62521219D02*
X170834154Y-62025981D01*
X170605582Y-60685981D02*
X170605582Y-60305028D01*
X170834154Y-60762171D02*
X170034154Y-60495504D01*
X170034154Y-60495504D02*
X170834154Y-60228838D01*
X170110344Y-60000267D02*
X170072249Y-59962171D01*
X170072249Y-59962171D02*
X170034154Y-59885981D01*
X170034154Y-59885981D02*
X170034154Y-59695505D01*
X170034154Y-59695505D02*
X170072249Y-59619314D01*
X170072249Y-59619314D02*
X170110344Y-59581219D01*
X170110344Y-59581219D02*
X170186535Y-59543124D01*
X170186535Y-59543124D02*
X170262725Y-59543124D01*
X170262725Y-59543124D02*
X170377011Y-59581219D01*
X170377011Y-59581219D02*
X170834154Y-60038362D01*
X170834154Y-60038362D02*
X170834154Y-59543124D01*
X170415106Y-57898362D02*
X170453201Y-57784076D01*
X170453201Y-57784076D02*
X170491297Y-57745981D01*
X170491297Y-57745981D02*
X170567487Y-57707885D01*
X170567487Y-57707885D02*
X170681773Y-57707885D01*
X170681773Y-57707885D02*
X170757963Y-57745981D01*
X170757963Y-57745981D02*
X170796059Y-57784076D01*
X170796059Y-57784076D02*
X170834154Y-57860266D01*
X170834154Y-57860266D02*
X170834154Y-58165028D01*
X170834154Y-58165028D02*
X170034154Y-58165028D01*
X170034154Y-58165028D02*
X170034154Y-57898362D01*
X170034154Y-57898362D02*
X170072249Y-57822171D01*
X170072249Y-57822171D02*
X170110344Y-57784076D01*
X170110344Y-57784076D02*
X170186535Y-57745981D01*
X170186535Y-57745981D02*
X170262725Y-57745981D01*
X170262725Y-57745981D02*
X170338916Y-57784076D01*
X170338916Y-57784076D02*
X170377011Y-57822171D01*
X170377011Y-57822171D02*
X170415106Y-57898362D01*
X170415106Y-57898362D02*
X170415106Y-58165028D01*
X170834154Y-56945981D02*
X170834154Y-57403124D01*
X170834154Y-57174552D02*
X170034154Y-57174552D01*
X170034154Y-57174552D02*
X170148439Y-57250743D01*
X170148439Y-57250743D02*
X170224630Y-57326933D01*
X170224630Y-57326933D02*
X170262725Y-57403124D01*
X170796059Y-53104077D02*
X170834154Y-52989791D01*
X170834154Y-52989791D02*
X170834154Y-52799315D01*
X170834154Y-52799315D02*
X170796059Y-52723124D01*
X170796059Y-52723124D02*
X170757963Y-52685029D01*
X170757963Y-52685029D02*
X170681773Y-52646934D01*
X170681773Y-52646934D02*
X170605582Y-52646934D01*
X170605582Y-52646934D02*
X170529392Y-52685029D01*
X170529392Y-52685029D02*
X170491297Y-52723124D01*
X170491297Y-52723124D02*
X170453201Y-52799315D01*
X170453201Y-52799315D02*
X170415106Y-52951696D01*
X170415106Y-52951696D02*
X170377011Y-53027886D01*
X170377011Y-53027886D02*
X170338916Y-53065981D01*
X170338916Y-53065981D02*
X170262725Y-53104077D01*
X170262725Y-53104077D02*
X170186535Y-53104077D01*
X170186535Y-53104077D02*
X170110344Y-53065981D01*
X170110344Y-53065981D02*
X170072249Y-53027886D01*
X170072249Y-53027886D02*
X170034154Y-52951696D01*
X170034154Y-52951696D02*
X170034154Y-52761219D01*
X170034154Y-52761219D02*
X170072249Y-52646934D01*
X170834154Y-51885029D02*
X170834154Y-52342172D01*
X170834154Y-52113600D02*
X170034154Y-52113600D01*
X170034154Y-52113600D02*
X170148439Y-52189791D01*
X170148439Y-52189791D02*
X170224630Y-52265981D01*
X170224630Y-52265981D02*
X170262725Y-52342172D01*
%TO.C,U1*%
X111182616Y-60640994D02*
X111449283Y-61021947D01*
X111639759Y-60640994D02*
X111639759Y-61440994D01*
X111639759Y-61440994D02*
X111334997Y-61440994D01*
X111334997Y-61440994D02*
X111258807Y-61402899D01*
X111258807Y-61402899D02*
X111220712Y-61364804D01*
X111220712Y-61364804D02*
X111182616Y-61288613D01*
X111182616Y-61288613D02*
X111182616Y-61174328D01*
X111182616Y-61174328D02*
X111220712Y-61098137D01*
X111220712Y-61098137D02*
X111258807Y-61060042D01*
X111258807Y-61060042D02*
X111334997Y-61021947D01*
X111334997Y-61021947D02*
X111639759Y-61021947D01*
X126532616Y-60640994D02*
X126913568Y-60640994D01*
X126913568Y-60640994D02*
X126913568Y-61440994D01*
%TO.C,J2*%
X159733632Y-56628408D02*
X160000299Y-57428408D01*
X160000299Y-57428408D02*
X160266965Y-56628408D01*
X160990775Y-57352217D02*
X160952679Y-57390313D01*
X160952679Y-57390313D02*
X160838394Y-57428408D01*
X160838394Y-57428408D02*
X160762203Y-57428408D01*
X160762203Y-57428408D02*
X160647917Y-57390313D01*
X160647917Y-57390313D02*
X160571727Y-57314122D01*
X160571727Y-57314122D02*
X160533632Y-57237932D01*
X160533632Y-57237932D02*
X160495536Y-57085551D01*
X160495536Y-57085551D02*
X160495536Y-56971265D01*
X160495536Y-56971265D02*
X160533632Y-56818884D01*
X160533632Y-56818884D02*
X160571727Y-56742693D01*
X160571727Y-56742693D02*
X160647917Y-56666503D01*
X160647917Y-56666503D02*
X160762203Y-56628408D01*
X160762203Y-56628408D02*
X160838394Y-56628408D01*
X160838394Y-56628408D02*
X160952679Y-56666503D01*
X160952679Y-56666503D02*
X160990775Y-56704598D01*
X161790775Y-57352217D02*
X161752679Y-57390313D01*
X161752679Y-57390313D02*
X161638394Y-57428408D01*
X161638394Y-57428408D02*
X161562203Y-57428408D01*
X161562203Y-57428408D02*
X161447917Y-57390313D01*
X161447917Y-57390313D02*
X161371727Y-57314122D01*
X161371727Y-57314122D02*
X161333632Y-57237932D01*
X161333632Y-57237932D02*
X161295536Y-57085551D01*
X161295536Y-57085551D02*
X161295536Y-56971265D01*
X161295536Y-56971265D02*
X161333632Y-56818884D01*
X161333632Y-56818884D02*
X161371727Y-56742693D01*
X161371727Y-56742693D02*
X161447917Y-56666503D01*
X161447917Y-56666503D02*
X161562203Y-56628408D01*
X161562203Y-56628408D02*
X161638394Y-56628408D01*
X161638394Y-56628408D02*
X161752679Y-56666503D01*
X161752679Y-56666503D02*
X161790775Y-56704598D01*
X162730775Y-56666503D02*
X162654585Y-56628408D01*
X162654585Y-56628408D02*
X162540299Y-56628408D01*
X162540299Y-56628408D02*
X162426013Y-56666503D01*
X162426013Y-56666503D02*
X162349823Y-56742693D01*
X162349823Y-56742693D02*
X162311728Y-56818884D01*
X162311728Y-56818884D02*
X162273632Y-56971265D01*
X162273632Y-56971265D02*
X162273632Y-57085551D01*
X162273632Y-57085551D02*
X162311728Y-57237932D01*
X162311728Y-57237932D02*
X162349823Y-57314122D01*
X162349823Y-57314122D02*
X162426013Y-57390313D01*
X162426013Y-57390313D02*
X162540299Y-57428408D01*
X162540299Y-57428408D02*
X162616490Y-57428408D01*
X162616490Y-57428408D02*
X162730775Y-57390313D01*
X162730775Y-57390313D02*
X162768871Y-57352217D01*
X162768871Y-57352217D02*
X162768871Y-57085551D01*
X162768871Y-57085551D02*
X162616490Y-57085551D01*
X163111728Y-57428408D02*
X163111728Y-56628408D01*
X163111728Y-56628408D02*
X163568871Y-57428408D01*
X163568871Y-57428408D02*
X163568871Y-56628408D01*
X163949823Y-57428408D02*
X163949823Y-56628408D01*
X163949823Y-56628408D02*
X164140299Y-56628408D01*
X164140299Y-56628408D02*
X164254585Y-56666503D01*
X164254585Y-56666503D02*
X164330775Y-56742693D01*
X164330775Y-56742693D02*
X164368870Y-56818884D01*
X164368870Y-56818884D02*
X164406966Y-56971265D01*
X164406966Y-56971265D02*
X164406966Y-57085551D01*
X164406966Y-57085551D02*
X164368870Y-57237932D01*
X164368870Y-57237932D02*
X164330775Y-57314122D01*
X164330775Y-57314122D02*
X164254585Y-57390313D01*
X164254585Y-57390313D02*
X164140299Y-57428408D01*
X164140299Y-57428408D02*
X163949823Y-57428408D01*
%TO.C,J4*%
X133042616Y-87850994D02*
X133423568Y-87850994D01*
X133423568Y-87850994D02*
X133423568Y-88650994D01*
%TO.C,J14*%
X174826059Y-63615981D02*
X174864154Y-63501695D01*
X174864154Y-63501695D02*
X174864154Y-63311219D01*
X174864154Y-63311219D02*
X174826059Y-63235028D01*
X174826059Y-63235028D02*
X174787963Y-63196933D01*
X174787963Y-63196933D02*
X174711773Y-63158838D01*
X174711773Y-63158838D02*
X174635582Y-63158838D01*
X174635582Y-63158838D02*
X174559392Y-63196933D01*
X174559392Y-63196933D02*
X174521297Y-63235028D01*
X174521297Y-63235028D02*
X174483201Y-63311219D01*
X174483201Y-63311219D02*
X174445106Y-63463600D01*
X174445106Y-63463600D02*
X174407011Y-63539790D01*
X174407011Y-63539790D02*
X174368916Y-63577885D01*
X174368916Y-63577885D02*
X174292725Y-63615981D01*
X174292725Y-63615981D02*
X174216535Y-63615981D01*
X174216535Y-63615981D02*
X174140344Y-63577885D01*
X174140344Y-63577885D02*
X174102249Y-63539790D01*
X174102249Y-63539790D02*
X174064154Y-63463600D01*
X174064154Y-63463600D02*
X174064154Y-63273123D01*
X174064154Y-63273123D02*
X174102249Y-63158838D01*
X174864154Y-62815980D02*
X174064154Y-62815980D01*
X174064154Y-62815980D02*
X174064154Y-62625504D01*
X174064154Y-62625504D02*
X174102249Y-62511218D01*
X174102249Y-62511218D02*
X174178439Y-62435028D01*
X174178439Y-62435028D02*
X174254630Y-62396933D01*
X174254630Y-62396933D02*
X174407011Y-62358837D01*
X174407011Y-62358837D02*
X174521297Y-62358837D01*
X174521297Y-62358837D02*
X174673678Y-62396933D01*
X174673678Y-62396933D02*
X174749868Y-62435028D01*
X174749868Y-62435028D02*
X174826059Y-62511218D01*
X174826059Y-62511218D02*
X174864154Y-62625504D01*
X174864154Y-62625504D02*
X174864154Y-62815980D01*
X174635582Y-62054076D02*
X174635582Y-61673123D01*
X174864154Y-62130266D02*
X174064154Y-61863599D01*
X174064154Y-61863599D02*
X174864154Y-61596933D01*
X174064154Y-55291219D02*
X174864154Y-54757885D01*
X174064154Y-54757885D02*
X174864154Y-55291219D01*
X174826059Y-61056934D02*
X174864154Y-60942648D01*
X174864154Y-60942648D02*
X174864154Y-60752172D01*
X174864154Y-60752172D02*
X174826059Y-60675981D01*
X174826059Y-60675981D02*
X174787963Y-60637886D01*
X174787963Y-60637886D02*
X174711773Y-60599791D01*
X174711773Y-60599791D02*
X174635582Y-60599791D01*
X174635582Y-60599791D02*
X174559392Y-60637886D01*
X174559392Y-60637886D02*
X174521297Y-60675981D01*
X174521297Y-60675981D02*
X174483201Y-60752172D01*
X174483201Y-60752172D02*
X174445106Y-60904553D01*
X174445106Y-60904553D02*
X174407011Y-60980743D01*
X174407011Y-60980743D02*
X174368916Y-61018838D01*
X174368916Y-61018838D02*
X174292725Y-61056934D01*
X174292725Y-61056934D02*
X174216535Y-61056934D01*
X174216535Y-61056934D02*
X174140344Y-61018838D01*
X174140344Y-61018838D02*
X174102249Y-60980743D01*
X174102249Y-60980743D02*
X174064154Y-60904553D01*
X174064154Y-60904553D02*
X174064154Y-60714076D01*
X174064154Y-60714076D02*
X174102249Y-60599791D01*
X174787963Y-59799790D02*
X174826059Y-59837886D01*
X174826059Y-59837886D02*
X174864154Y-59952171D01*
X174864154Y-59952171D02*
X174864154Y-60028362D01*
X174864154Y-60028362D02*
X174826059Y-60142648D01*
X174826059Y-60142648D02*
X174749868Y-60218838D01*
X174749868Y-60218838D02*
X174673678Y-60256933D01*
X174673678Y-60256933D02*
X174521297Y-60295029D01*
X174521297Y-60295029D02*
X174407011Y-60295029D01*
X174407011Y-60295029D02*
X174254630Y-60256933D01*
X174254630Y-60256933D02*
X174178439Y-60218838D01*
X174178439Y-60218838D02*
X174102249Y-60142648D01*
X174102249Y-60142648D02*
X174064154Y-60028362D01*
X174064154Y-60028362D02*
X174064154Y-59952171D01*
X174064154Y-59952171D02*
X174102249Y-59837886D01*
X174102249Y-59837886D02*
X174140344Y-59799790D01*
X174864154Y-59075981D02*
X174864154Y-59456933D01*
X174864154Y-59456933D02*
X174064154Y-59456933D01*
X174826059Y-53094077D02*
X174864154Y-52979791D01*
X174864154Y-52979791D02*
X174864154Y-52789315D01*
X174864154Y-52789315D02*
X174826059Y-52713124D01*
X174826059Y-52713124D02*
X174787963Y-52675029D01*
X174787963Y-52675029D02*
X174711773Y-52636934D01*
X174711773Y-52636934D02*
X174635582Y-52636934D01*
X174635582Y-52636934D02*
X174559392Y-52675029D01*
X174559392Y-52675029D02*
X174521297Y-52713124D01*
X174521297Y-52713124D02*
X174483201Y-52789315D01*
X174483201Y-52789315D02*
X174445106Y-52941696D01*
X174445106Y-52941696D02*
X174407011Y-53017886D01*
X174407011Y-53017886D02*
X174368916Y-53055981D01*
X174368916Y-53055981D02*
X174292725Y-53094077D01*
X174292725Y-53094077D02*
X174216535Y-53094077D01*
X174216535Y-53094077D02*
X174140344Y-53055981D01*
X174140344Y-53055981D02*
X174102249Y-53017886D01*
X174102249Y-53017886D02*
X174064154Y-52941696D01*
X174064154Y-52941696D02*
X174064154Y-52751219D01*
X174064154Y-52751219D02*
X174102249Y-52636934D01*
X174140344Y-52332172D02*
X174102249Y-52294076D01*
X174102249Y-52294076D02*
X174064154Y-52217886D01*
X174064154Y-52217886D02*
X174064154Y-52027410D01*
X174064154Y-52027410D02*
X174102249Y-51951219D01*
X174102249Y-51951219D02*
X174140344Y-51913124D01*
X174140344Y-51913124D02*
X174216535Y-51875029D01*
X174216535Y-51875029D02*
X174292725Y-51875029D01*
X174292725Y-51875029D02*
X174407011Y-51913124D01*
X174407011Y-51913124D02*
X174864154Y-52370267D01*
X174864154Y-52370267D02*
X174864154Y-51875029D01*
X174483201Y-57564552D02*
X174864154Y-57564552D01*
X174064154Y-57831219D02*
X174483201Y-57564552D01*
X174483201Y-57564552D02*
X174064154Y-57297886D01*
%TO.C,J7*%
X165270775Y-61746503D02*
X165194585Y-61708408D01*
X165194585Y-61708408D02*
X165080299Y-61708408D01*
X165080299Y-61708408D02*
X164966013Y-61746503D01*
X164966013Y-61746503D02*
X164889823Y-61822693D01*
X164889823Y-61822693D02*
X164851728Y-61898884D01*
X164851728Y-61898884D02*
X164813632Y-62051265D01*
X164813632Y-62051265D02*
X164813632Y-62165551D01*
X164813632Y-62165551D02*
X164851728Y-62317932D01*
X164851728Y-62317932D02*
X164889823Y-62394122D01*
X164889823Y-62394122D02*
X164966013Y-62470313D01*
X164966013Y-62470313D02*
X165080299Y-62508408D01*
X165080299Y-62508408D02*
X165156490Y-62508408D01*
X165156490Y-62508408D02*
X165270775Y-62470313D01*
X165270775Y-62470313D02*
X165308871Y-62432217D01*
X165308871Y-62432217D02*
X165308871Y-62165551D01*
X165308871Y-62165551D02*
X165156490Y-62165551D01*
X165651728Y-62508408D02*
X165651728Y-61708408D01*
X165651728Y-61708408D02*
X166108871Y-62508408D01*
X166108871Y-62508408D02*
X166108871Y-61708408D01*
X166489823Y-62508408D02*
X166489823Y-61708408D01*
X166489823Y-61708408D02*
X166680299Y-61708408D01*
X166680299Y-61708408D02*
X166794585Y-61746503D01*
X166794585Y-61746503D02*
X166870775Y-61822693D01*
X166870775Y-61822693D02*
X166908870Y-61898884D01*
X166908870Y-61898884D02*
X166946966Y-62051265D01*
X166946966Y-62051265D02*
X166946966Y-62165551D01*
X166946966Y-62165551D02*
X166908870Y-62317932D01*
X166908870Y-62317932D02*
X166870775Y-62394122D01*
X166870775Y-62394122D02*
X166794585Y-62470313D01*
X166794585Y-62470313D02*
X166680299Y-62508408D01*
X166680299Y-62508408D02*
X166489823Y-62508408D01*
X162730774Y-62470313D02*
X162845060Y-62508408D01*
X162845060Y-62508408D02*
X163035536Y-62508408D01*
X163035536Y-62508408D02*
X163111727Y-62470313D01*
X163111727Y-62470313D02*
X163149822Y-62432217D01*
X163149822Y-62432217D02*
X163187917Y-62356027D01*
X163187917Y-62356027D02*
X163187917Y-62279836D01*
X163187917Y-62279836D02*
X163149822Y-62203646D01*
X163149822Y-62203646D02*
X163111727Y-62165551D01*
X163111727Y-62165551D02*
X163035536Y-62127455D01*
X163035536Y-62127455D02*
X162883155Y-62089360D01*
X162883155Y-62089360D02*
X162806965Y-62051265D01*
X162806965Y-62051265D02*
X162768870Y-62013170D01*
X162768870Y-62013170D02*
X162730774Y-61936979D01*
X162730774Y-61936979D02*
X162730774Y-61860789D01*
X162730774Y-61860789D02*
X162768870Y-61784598D01*
X162768870Y-61784598D02*
X162806965Y-61746503D01*
X162806965Y-61746503D02*
X162883155Y-61708408D01*
X162883155Y-61708408D02*
X163073632Y-61708408D01*
X163073632Y-61708408D02*
X163187917Y-61746503D01*
X163949822Y-62508408D02*
X163492679Y-62508408D01*
X163721251Y-62508408D02*
X163721251Y-61708408D01*
X163721251Y-61708408D02*
X163645060Y-61822693D01*
X163645060Y-61822693D02*
X163568870Y-61898884D01*
X163568870Y-61898884D02*
X163492679Y-61936979D01*
X159733632Y-61708408D02*
X160000299Y-62508408D01*
X160000299Y-62508408D02*
X160266965Y-61708408D01*
X160990775Y-62432217D02*
X160952679Y-62470313D01*
X160952679Y-62470313D02*
X160838394Y-62508408D01*
X160838394Y-62508408D02*
X160762203Y-62508408D01*
X160762203Y-62508408D02*
X160647917Y-62470313D01*
X160647917Y-62470313D02*
X160571727Y-62394122D01*
X160571727Y-62394122D02*
X160533632Y-62317932D01*
X160533632Y-62317932D02*
X160495536Y-62165551D01*
X160495536Y-62165551D02*
X160495536Y-62051265D01*
X160495536Y-62051265D02*
X160533632Y-61898884D01*
X160533632Y-61898884D02*
X160571727Y-61822693D01*
X160571727Y-61822693D02*
X160647917Y-61746503D01*
X160647917Y-61746503D02*
X160762203Y-61708408D01*
X160762203Y-61708408D02*
X160838394Y-61708408D01*
X160838394Y-61708408D02*
X160952679Y-61746503D01*
X160952679Y-61746503D02*
X160990775Y-61784598D01*
X161790775Y-62432217D02*
X161752679Y-62470313D01*
X161752679Y-62470313D02*
X161638394Y-62508408D01*
X161638394Y-62508408D02*
X161562203Y-62508408D01*
X161562203Y-62508408D02*
X161447917Y-62470313D01*
X161447917Y-62470313D02*
X161371727Y-62394122D01*
X161371727Y-62394122D02*
X161333632Y-62317932D01*
X161333632Y-62317932D02*
X161295536Y-62165551D01*
X161295536Y-62165551D02*
X161295536Y-62051265D01*
X161295536Y-62051265D02*
X161333632Y-61898884D01*
X161333632Y-61898884D02*
X161371727Y-61822693D01*
X161371727Y-61822693D02*
X161447917Y-61746503D01*
X161447917Y-61746503D02*
X161562203Y-61708408D01*
X161562203Y-61708408D02*
X161638394Y-61708408D01*
X161638394Y-61708408D02*
X161752679Y-61746503D01*
X161752679Y-61746503D02*
X161790775Y-61784598D01*
%TO.C,J3*%
X162690775Y-74156503D02*
X162614585Y-74118408D01*
X162614585Y-74118408D02*
X162500299Y-74118408D01*
X162500299Y-74118408D02*
X162386013Y-74156503D01*
X162386013Y-74156503D02*
X162309823Y-74232693D01*
X162309823Y-74232693D02*
X162271728Y-74308884D01*
X162271728Y-74308884D02*
X162233632Y-74461265D01*
X162233632Y-74461265D02*
X162233632Y-74575551D01*
X162233632Y-74575551D02*
X162271728Y-74727932D01*
X162271728Y-74727932D02*
X162309823Y-74804122D01*
X162309823Y-74804122D02*
X162386013Y-74880313D01*
X162386013Y-74880313D02*
X162500299Y-74918408D01*
X162500299Y-74918408D02*
X162576490Y-74918408D01*
X162576490Y-74918408D02*
X162690775Y-74880313D01*
X162690775Y-74880313D02*
X162728871Y-74842217D01*
X162728871Y-74842217D02*
X162728871Y-74575551D01*
X162728871Y-74575551D02*
X162576490Y-74575551D01*
X163071728Y-74918408D02*
X163071728Y-74118408D01*
X163071728Y-74118408D02*
X163528871Y-74918408D01*
X163528871Y-74918408D02*
X163528871Y-74118408D01*
X163909823Y-74918408D02*
X163909823Y-74118408D01*
X163909823Y-74118408D02*
X164100299Y-74118408D01*
X164100299Y-74118408D02*
X164214585Y-74156503D01*
X164214585Y-74156503D02*
X164290775Y-74232693D01*
X164290775Y-74232693D02*
X164328870Y-74308884D01*
X164328870Y-74308884D02*
X164366966Y-74461265D01*
X164366966Y-74461265D02*
X164366966Y-74575551D01*
X164366966Y-74575551D02*
X164328870Y-74727932D01*
X164328870Y-74727932D02*
X164290775Y-74804122D01*
X164290775Y-74804122D02*
X164214585Y-74880313D01*
X164214585Y-74880313D02*
X164100299Y-74918408D01*
X164100299Y-74918408D02*
X163909823Y-74918408D01*
X160188870Y-74689836D02*
X160569823Y-74689836D01*
X160112680Y-74918408D02*
X160379347Y-74118408D01*
X160379347Y-74118408D02*
X160646013Y-74918408D01*
X160874584Y-74194598D02*
X160912680Y-74156503D01*
X160912680Y-74156503D02*
X160988870Y-74118408D01*
X160988870Y-74118408D02*
X161179346Y-74118408D01*
X161179346Y-74118408D02*
X161255537Y-74156503D01*
X161255537Y-74156503D02*
X161293632Y-74194598D01*
X161293632Y-74194598D02*
X161331727Y-74270789D01*
X161331727Y-74270789D02*
X161331727Y-74346979D01*
X161331727Y-74346979D02*
X161293632Y-74461265D01*
X161293632Y-74461265D02*
X160836489Y-74918408D01*
X160836489Y-74918408D02*
X161331727Y-74918408D01*
X165516489Y-74499360D02*
X165630775Y-74537455D01*
X165630775Y-74537455D02*
X165668870Y-74575551D01*
X165668870Y-74575551D02*
X165706966Y-74651741D01*
X165706966Y-74651741D02*
X165706966Y-74766027D01*
X165706966Y-74766027D02*
X165668870Y-74842217D01*
X165668870Y-74842217D02*
X165630775Y-74880313D01*
X165630775Y-74880313D02*
X165554585Y-74918408D01*
X165554585Y-74918408D02*
X165249823Y-74918408D01*
X165249823Y-74918408D02*
X165249823Y-74118408D01*
X165249823Y-74118408D02*
X165516489Y-74118408D01*
X165516489Y-74118408D02*
X165592680Y-74156503D01*
X165592680Y-74156503D02*
X165630775Y-74194598D01*
X165630775Y-74194598D02*
X165668870Y-74270789D01*
X165668870Y-74270789D02*
X165668870Y-74346979D01*
X165668870Y-74346979D02*
X165630775Y-74423170D01*
X165630775Y-74423170D02*
X165592680Y-74461265D01*
X165592680Y-74461265D02*
X165516489Y-74499360D01*
X165516489Y-74499360D02*
X165249823Y-74499360D01*
X166011727Y-74194598D02*
X166049823Y-74156503D01*
X166049823Y-74156503D02*
X166126013Y-74118408D01*
X166126013Y-74118408D02*
X166316489Y-74118408D01*
X166316489Y-74118408D02*
X166392680Y-74156503D01*
X166392680Y-74156503D02*
X166430775Y-74194598D01*
X166430775Y-74194598D02*
X166468870Y-74270789D01*
X166468870Y-74270789D02*
X166468870Y-74346979D01*
X166468870Y-74346979D02*
X166430775Y-74461265D01*
X166430775Y-74461265D02*
X165973632Y-74918408D01*
X165973632Y-74918408D02*
X166468870Y-74918408D01*
%TO.C,J13*%
X165270775Y-65876503D02*
X165194585Y-65838408D01*
X165194585Y-65838408D02*
X165080299Y-65838408D01*
X165080299Y-65838408D02*
X164966013Y-65876503D01*
X164966013Y-65876503D02*
X164889823Y-65952693D01*
X164889823Y-65952693D02*
X164851728Y-66028884D01*
X164851728Y-66028884D02*
X164813632Y-66181265D01*
X164813632Y-66181265D02*
X164813632Y-66295551D01*
X164813632Y-66295551D02*
X164851728Y-66447932D01*
X164851728Y-66447932D02*
X164889823Y-66524122D01*
X164889823Y-66524122D02*
X164966013Y-66600313D01*
X164966013Y-66600313D02*
X165080299Y-66638408D01*
X165080299Y-66638408D02*
X165156490Y-66638408D01*
X165156490Y-66638408D02*
X165270775Y-66600313D01*
X165270775Y-66600313D02*
X165308871Y-66562217D01*
X165308871Y-66562217D02*
X165308871Y-66295551D01*
X165308871Y-66295551D02*
X165156490Y-66295551D01*
X165651728Y-66638408D02*
X165651728Y-65838408D01*
X165651728Y-65838408D02*
X166108871Y-66638408D01*
X166108871Y-66638408D02*
X166108871Y-65838408D01*
X166489823Y-66638408D02*
X166489823Y-65838408D01*
X166489823Y-65838408D02*
X166680299Y-65838408D01*
X166680299Y-65838408D02*
X166794585Y-65876503D01*
X166794585Y-65876503D02*
X166870775Y-65952693D01*
X166870775Y-65952693D02*
X166908870Y-66028884D01*
X166908870Y-66028884D02*
X166946966Y-66181265D01*
X166946966Y-66181265D02*
X166946966Y-66295551D01*
X166946966Y-66295551D02*
X166908870Y-66447932D01*
X166908870Y-66447932D02*
X166870775Y-66524122D01*
X166870775Y-66524122D02*
X166794585Y-66600313D01*
X166794585Y-66600313D02*
X166680299Y-66638408D01*
X166680299Y-66638408D02*
X166489823Y-66638408D01*
X162730774Y-66600313D02*
X162845060Y-66638408D01*
X162845060Y-66638408D02*
X163035536Y-66638408D01*
X163035536Y-66638408D02*
X163111727Y-66600313D01*
X163111727Y-66600313D02*
X163149822Y-66562217D01*
X163149822Y-66562217D02*
X163187917Y-66486027D01*
X163187917Y-66486027D02*
X163187917Y-66409836D01*
X163187917Y-66409836D02*
X163149822Y-66333646D01*
X163149822Y-66333646D02*
X163111727Y-66295551D01*
X163111727Y-66295551D02*
X163035536Y-66257455D01*
X163035536Y-66257455D02*
X162883155Y-66219360D01*
X162883155Y-66219360D02*
X162806965Y-66181265D01*
X162806965Y-66181265D02*
X162768870Y-66143170D01*
X162768870Y-66143170D02*
X162730774Y-66066979D01*
X162730774Y-66066979D02*
X162730774Y-65990789D01*
X162730774Y-65990789D02*
X162768870Y-65914598D01*
X162768870Y-65914598D02*
X162806965Y-65876503D01*
X162806965Y-65876503D02*
X162883155Y-65838408D01*
X162883155Y-65838408D02*
X163073632Y-65838408D01*
X163073632Y-65838408D02*
X163187917Y-65876503D01*
X163492679Y-65914598D02*
X163530775Y-65876503D01*
X163530775Y-65876503D02*
X163606965Y-65838408D01*
X163606965Y-65838408D02*
X163797441Y-65838408D01*
X163797441Y-65838408D02*
X163873632Y-65876503D01*
X163873632Y-65876503D02*
X163911727Y-65914598D01*
X163911727Y-65914598D02*
X163949822Y-65990789D01*
X163949822Y-65990789D02*
X163949822Y-66066979D01*
X163949822Y-66066979D02*
X163911727Y-66181265D01*
X163911727Y-66181265D02*
X163454584Y-66638408D01*
X163454584Y-66638408D02*
X163949822Y-66638408D01*
X159733632Y-65838408D02*
X160000299Y-66638408D01*
X160000299Y-66638408D02*
X160266965Y-65838408D01*
X160990775Y-66562217D02*
X160952679Y-66600313D01*
X160952679Y-66600313D02*
X160838394Y-66638408D01*
X160838394Y-66638408D02*
X160762203Y-66638408D01*
X160762203Y-66638408D02*
X160647917Y-66600313D01*
X160647917Y-66600313D02*
X160571727Y-66524122D01*
X160571727Y-66524122D02*
X160533632Y-66447932D01*
X160533632Y-66447932D02*
X160495536Y-66295551D01*
X160495536Y-66295551D02*
X160495536Y-66181265D01*
X160495536Y-66181265D02*
X160533632Y-66028884D01*
X160533632Y-66028884D02*
X160571727Y-65952693D01*
X160571727Y-65952693D02*
X160647917Y-65876503D01*
X160647917Y-65876503D02*
X160762203Y-65838408D01*
X160762203Y-65838408D02*
X160838394Y-65838408D01*
X160838394Y-65838408D02*
X160952679Y-65876503D01*
X160952679Y-65876503D02*
X160990775Y-65914598D01*
X161790775Y-66562217D02*
X161752679Y-66600313D01*
X161752679Y-66600313D02*
X161638394Y-66638408D01*
X161638394Y-66638408D02*
X161562203Y-66638408D01*
X161562203Y-66638408D02*
X161447917Y-66600313D01*
X161447917Y-66600313D02*
X161371727Y-66524122D01*
X161371727Y-66524122D02*
X161333632Y-66447932D01*
X161333632Y-66447932D02*
X161295536Y-66295551D01*
X161295536Y-66295551D02*
X161295536Y-66181265D01*
X161295536Y-66181265D02*
X161333632Y-66028884D01*
X161333632Y-66028884D02*
X161371727Y-65952693D01*
X161371727Y-65952693D02*
X161447917Y-65876503D01*
X161447917Y-65876503D02*
X161562203Y-65838408D01*
X161562203Y-65838408D02*
X161638394Y-65838408D01*
X161638394Y-65838408D02*
X161752679Y-65876503D01*
X161752679Y-65876503D02*
X161790775Y-65914598D01*
%TO.C,J19*%
X174826059Y-72026934D02*
X174864154Y-71912648D01*
X174864154Y-71912648D02*
X174864154Y-71722172D01*
X174864154Y-71722172D02*
X174826059Y-71645981D01*
X174826059Y-71645981D02*
X174787963Y-71607886D01*
X174787963Y-71607886D02*
X174711773Y-71569791D01*
X174711773Y-71569791D02*
X174635582Y-71569791D01*
X174635582Y-71569791D02*
X174559392Y-71607886D01*
X174559392Y-71607886D02*
X174521297Y-71645981D01*
X174521297Y-71645981D02*
X174483201Y-71722172D01*
X174483201Y-71722172D02*
X174445106Y-71874553D01*
X174445106Y-71874553D02*
X174407011Y-71950743D01*
X174407011Y-71950743D02*
X174368916Y-71988838D01*
X174368916Y-71988838D02*
X174292725Y-72026934D01*
X174292725Y-72026934D02*
X174216535Y-72026934D01*
X174216535Y-72026934D02*
X174140344Y-71988838D01*
X174140344Y-71988838D02*
X174102249Y-71950743D01*
X174102249Y-71950743D02*
X174064154Y-71874553D01*
X174064154Y-71874553D02*
X174064154Y-71684076D01*
X174064154Y-71684076D02*
X174102249Y-71569791D01*
X174787963Y-70769790D02*
X174826059Y-70807886D01*
X174826059Y-70807886D02*
X174864154Y-70922171D01*
X174864154Y-70922171D02*
X174864154Y-70998362D01*
X174864154Y-70998362D02*
X174826059Y-71112648D01*
X174826059Y-71112648D02*
X174749868Y-71188838D01*
X174749868Y-71188838D02*
X174673678Y-71226933D01*
X174673678Y-71226933D02*
X174521297Y-71265029D01*
X174521297Y-71265029D02*
X174407011Y-71265029D01*
X174407011Y-71265029D02*
X174254630Y-71226933D01*
X174254630Y-71226933D02*
X174178439Y-71188838D01*
X174178439Y-71188838D02*
X174102249Y-71112648D01*
X174102249Y-71112648D02*
X174064154Y-70998362D01*
X174064154Y-70998362D02*
X174064154Y-70922171D01*
X174064154Y-70922171D02*
X174102249Y-70807886D01*
X174102249Y-70807886D02*
X174140344Y-70769790D01*
X174864154Y-70045981D02*
X174864154Y-70426933D01*
X174864154Y-70426933D02*
X174064154Y-70426933D01*
X174064154Y-69601219D02*
X174864154Y-69334552D01*
X174864154Y-69334552D02*
X174064154Y-69067886D01*
X174787963Y-68344076D02*
X174826059Y-68382172D01*
X174826059Y-68382172D02*
X174864154Y-68496457D01*
X174864154Y-68496457D02*
X174864154Y-68572648D01*
X174864154Y-68572648D02*
X174826059Y-68686934D01*
X174826059Y-68686934D02*
X174749868Y-68763124D01*
X174749868Y-68763124D02*
X174673678Y-68801219D01*
X174673678Y-68801219D02*
X174521297Y-68839315D01*
X174521297Y-68839315D02*
X174407011Y-68839315D01*
X174407011Y-68839315D02*
X174254630Y-68801219D01*
X174254630Y-68801219D02*
X174178439Y-68763124D01*
X174178439Y-68763124D02*
X174102249Y-68686934D01*
X174102249Y-68686934D02*
X174064154Y-68572648D01*
X174064154Y-68572648D02*
X174064154Y-68496457D01*
X174064154Y-68496457D02*
X174102249Y-68382172D01*
X174102249Y-68382172D02*
X174140344Y-68344076D01*
X174787963Y-67544076D02*
X174826059Y-67582172D01*
X174826059Y-67582172D02*
X174864154Y-67696457D01*
X174864154Y-67696457D02*
X174864154Y-67772648D01*
X174864154Y-67772648D02*
X174826059Y-67886934D01*
X174826059Y-67886934D02*
X174749868Y-67963124D01*
X174749868Y-67963124D02*
X174673678Y-68001219D01*
X174673678Y-68001219D02*
X174521297Y-68039315D01*
X174521297Y-68039315D02*
X174407011Y-68039315D01*
X174407011Y-68039315D02*
X174254630Y-68001219D01*
X174254630Y-68001219D02*
X174178439Y-67963124D01*
X174178439Y-67963124D02*
X174102249Y-67886934D01*
X174102249Y-67886934D02*
X174064154Y-67772648D01*
X174064154Y-67772648D02*
X174064154Y-67696457D01*
X174064154Y-67696457D02*
X174102249Y-67582172D01*
X174102249Y-67582172D02*
X174140344Y-67544076D01*
X174826059Y-74585981D02*
X174864154Y-74471695D01*
X174864154Y-74471695D02*
X174864154Y-74281219D01*
X174864154Y-74281219D02*
X174826059Y-74205028D01*
X174826059Y-74205028D02*
X174787963Y-74166933D01*
X174787963Y-74166933D02*
X174711773Y-74128838D01*
X174711773Y-74128838D02*
X174635582Y-74128838D01*
X174635582Y-74128838D02*
X174559392Y-74166933D01*
X174559392Y-74166933D02*
X174521297Y-74205028D01*
X174521297Y-74205028D02*
X174483201Y-74281219D01*
X174483201Y-74281219D02*
X174445106Y-74433600D01*
X174445106Y-74433600D02*
X174407011Y-74509790D01*
X174407011Y-74509790D02*
X174368916Y-74547885D01*
X174368916Y-74547885D02*
X174292725Y-74585981D01*
X174292725Y-74585981D02*
X174216535Y-74585981D01*
X174216535Y-74585981D02*
X174140344Y-74547885D01*
X174140344Y-74547885D02*
X174102249Y-74509790D01*
X174102249Y-74509790D02*
X174064154Y-74433600D01*
X174064154Y-74433600D02*
X174064154Y-74243123D01*
X174064154Y-74243123D02*
X174102249Y-74128838D01*
X174864154Y-73785980D02*
X174064154Y-73785980D01*
X174064154Y-73785980D02*
X174064154Y-73595504D01*
X174064154Y-73595504D02*
X174102249Y-73481218D01*
X174102249Y-73481218D02*
X174178439Y-73405028D01*
X174178439Y-73405028D02*
X174254630Y-73366933D01*
X174254630Y-73366933D02*
X174407011Y-73328837D01*
X174407011Y-73328837D02*
X174521297Y-73328837D01*
X174521297Y-73328837D02*
X174673678Y-73366933D01*
X174673678Y-73366933D02*
X174749868Y-73405028D01*
X174749868Y-73405028D02*
X174826059Y-73481218D01*
X174826059Y-73481218D02*
X174864154Y-73595504D01*
X174864154Y-73595504D02*
X174864154Y-73785980D01*
X174635582Y-73024076D02*
X174635582Y-72643123D01*
X174864154Y-73100266D02*
X174064154Y-72833599D01*
X174064154Y-72833599D02*
X174864154Y-72566933D01*
X174102249Y-66604076D02*
X174064154Y-66680266D01*
X174064154Y-66680266D02*
X174064154Y-66794552D01*
X174064154Y-66794552D02*
X174102249Y-66908838D01*
X174102249Y-66908838D02*
X174178439Y-66985028D01*
X174178439Y-66985028D02*
X174254630Y-67023123D01*
X174254630Y-67023123D02*
X174407011Y-67061219D01*
X174407011Y-67061219D02*
X174521297Y-67061219D01*
X174521297Y-67061219D02*
X174673678Y-67023123D01*
X174673678Y-67023123D02*
X174749868Y-66985028D01*
X174749868Y-66985028D02*
X174826059Y-66908838D01*
X174826059Y-66908838D02*
X174864154Y-66794552D01*
X174864154Y-66794552D02*
X174864154Y-66718361D01*
X174864154Y-66718361D02*
X174826059Y-66604076D01*
X174826059Y-66604076D02*
X174787963Y-66565980D01*
X174787963Y-66565980D02*
X174521297Y-66565980D01*
X174521297Y-66565980D02*
X174521297Y-66718361D01*
X174864154Y-66223123D02*
X174064154Y-66223123D01*
X174064154Y-66223123D02*
X174864154Y-65765980D01*
X174864154Y-65765980D02*
X174064154Y-65765980D01*
X174864154Y-65385028D02*
X174064154Y-65385028D01*
X174064154Y-65385028D02*
X174064154Y-65194552D01*
X174064154Y-65194552D02*
X174102249Y-65080266D01*
X174102249Y-65080266D02*
X174178439Y-65004076D01*
X174178439Y-65004076D02*
X174254630Y-64965981D01*
X174254630Y-64965981D02*
X174407011Y-64927885D01*
X174407011Y-64927885D02*
X174521297Y-64927885D01*
X174521297Y-64927885D02*
X174673678Y-64965981D01*
X174673678Y-64965981D02*
X174749868Y-65004076D01*
X174749868Y-65004076D02*
X174826059Y-65080266D01*
X174826059Y-65080266D02*
X174864154Y-65194552D01*
X174864154Y-65194552D02*
X174864154Y-65385028D01*
%TO.C,J21*%
X170062249Y-66604076D02*
X170024154Y-66680266D01*
X170024154Y-66680266D02*
X170024154Y-66794552D01*
X170024154Y-66794552D02*
X170062249Y-66908838D01*
X170062249Y-66908838D02*
X170138439Y-66985028D01*
X170138439Y-66985028D02*
X170214630Y-67023123D01*
X170214630Y-67023123D02*
X170367011Y-67061219D01*
X170367011Y-67061219D02*
X170481297Y-67061219D01*
X170481297Y-67061219D02*
X170633678Y-67023123D01*
X170633678Y-67023123D02*
X170709868Y-66985028D01*
X170709868Y-66985028D02*
X170786059Y-66908838D01*
X170786059Y-66908838D02*
X170824154Y-66794552D01*
X170824154Y-66794552D02*
X170824154Y-66718361D01*
X170824154Y-66718361D02*
X170786059Y-66604076D01*
X170786059Y-66604076D02*
X170747963Y-66565980D01*
X170747963Y-66565980D02*
X170481297Y-66565980D01*
X170481297Y-66565980D02*
X170481297Y-66718361D01*
X170824154Y-66223123D02*
X170024154Y-66223123D01*
X170024154Y-66223123D02*
X170824154Y-65765980D01*
X170824154Y-65765980D02*
X170024154Y-65765980D01*
X170824154Y-65385028D02*
X170024154Y-65385028D01*
X170024154Y-65385028D02*
X170024154Y-65194552D01*
X170024154Y-65194552D02*
X170062249Y-65080266D01*
X170062249Y-65080266D02*
X170138439Y-65004076D01*
X170138439Y-65004076D02*
X170214630Y-64965981D01*
X170214630Y-64965981D02*
X170367011Y-64927885D01*
X170367011Y-64927885D02*
X170481297Y-64927885D01*
X170481297Y-64927885D02*
X170633678Y-64965981D01*
X170633678Y-64965981D02*
X170709868Y-65004076D01*
X170709868Y-65004076D02*
X170786059Y-65080266D01*
X170786059Y-65080266D02*
X170824154Y-65194552D01*
X170824154Y-65194552D02*
X170824154Y-65385028D01*
X170443201Y-73614552D02*
X170824154Y-73614552D01*
X170024154Y-73881219D02*
X170443201Y-73614552D01*
X170443201Y-73614552D02*
X170024154Y-73347886D01*
X170024154Y-71341219D02*
X170824154Y-70807885D01*
X170024154Y-70807885D02*
X170824154Y-71341219D01*
X170024154Y-69601219D02*
X170824154Y-69334552D01*
X170824154Y-69334552D02*
X170024154Y-69067886D01*
X170747963Y-68344076D02*
X170786059Y-68382172D01*
X170786059Y-68382172D02*
X170824154Y-68496457D01*
X170824154Y-68496457D02*
X170824154Y-68572648D01*
X170824154Y-68572648D02*
X170786059Y-68686934D01*
X170786059Y-68686934D02*
X170709868Y-68763124D01*
X170709868Y-68763124D02*
X170633678Y-68801219D01*
X170633678Y-68801219D02*
X170481297Y-68839315D01*
X170481297Y-68839315D02*
X170367011Y-68839315D01*
X170367011Y-68839315D02*
X170214630Y-68801219D01*
X170214630Y-68801219D02*
X170138439Y-68763124D01*
X170138439Y-68763124D02*
X170062249Y-68686934D01*
X170062249Y-68686934D02*
X170024154Y-68572648D01*
X170024154Y-68572648D02*
X170024154Y-68496457D01*
X170024154Y-68496457D02*
X170062249Y-68382172D01*
X170062249Y-68382172D02*
X170100344Y-68344076D01*
X170747963Y-67544076D02*
X170786059Y-67582172D01*
X170786059Y-67582172D02*
X170824154Y-67696457D01*
X170824154Y-67696457D02*
X170824154Y-67772648D01*
X170824154Y-67772648D02*
X170786059Y-67886934D01*
X170786059Y-67886934D02*
X170709868Y-67963124D01*
X170709868Y-67963124D02*
X170633678Y-68001219D01*
X170633678Y-68001219D02*
X170481297Y-68039315D01*
X170481297Y-68039315D02*
X170367011Y-68039315D01*
X170367011Y-68039315D02*
X170214630Y-68001219D01*
X170214630Y-68001219D02*
X170138439Y-67963124D01*
X170138439Y-67963124D02*
X170062249Y-67886934D01*
X170062249Y-67886934D02*
X170024154Y-67772648D01*
X170024154Y-67772648D02*
X170024154Y-67696457D01*
X170024154Y-67696457D02*
X170062249Y-67582172D01*
X170062249Y-67582172D02*
X170100344Y-67544076D01*
%TO.C,J9*%
X167994154Y-84101219D02*
X167994154Y-83605981D01*
X167994154Y-83605981D02*
X168298916Y-83872647D01*
X168298916Y-83872647D02*
X168298916Y-83758362D01*
X168298916Y-83758362D02*
X168337011Y-83682171D01*
X168337011Y-83682171D02*
X168375106Y-83644076D01*
X168375106Y-83644076D02*
X168451297Y-83605981D01*
X168451297Y-83605981D02*
X168641773Y-83605981D01*
X168641773Y-83605981D02*
X168717963Y-83644076D01*
X168717963Y-83644076D02*
X168756059Y-83682171D01*
X168756059Y-83682171D02*
X168794154Y-83758362D01*
X168794154Y-83758362D02*
X168794154Y-83986933D01*
X168794154Y-83986933D02*
X168756059Y-84063124D01*
X168756059Y-84063124D02*
X168717963Y-84101219D01*
X161246443Y-83796458D02*
X161246443Y-83872648D01*
X161246443Y-83872648D02*
X161208348Y-83948839D01*
X161208348Y-83948839D02*
X161170253Y-83986934D01*
X161170253Y-83986934D02*
X161094062Y-84025029D01*
X161094062Y-84025029D02*
X160941681Y-84063124D01*
X160941681Y-84063124D02*
X160751205Y-84063124D01*
X160751205Y-84063124D02*
X160598824Y-84025029D01*
X160598824Y-84025029D02*
X160522634Y-83986934D01*
X160522634Y-83986934D02*
X160484539Y-83948839D01*
X160484539Y-83948839D02*
X160446443Y-83872648D01*
X160446443Y-83872648D02*
X160446443Y-83796458D01*
X160446443Y-83796458D02*
X160484539Y-83720267D01*
X160484539Y-83720267D02*
X160522634Y-83682172D01*
X160522634Y-83682172D02*
X160598824Y-83644077D01*
X160598824Y-83644077D02*
X160751205Y-83605981D01*
X160751205Y-83605981D02*
X160941681Y-83605981D01*
X160941681Y-83605981D02*
X161094062Y-83644077D01*
X161094062Y-83644077D02*
X161170253Y-83682172D01*
X161170253Y-83682172D02*
X161208348Y-83720267D01*
X161208348Y-83720267D02*
X161246443Y-83796458D01*
X170800820Y-83682171D02*
X171334154Y-83682171D01*
X170496059Y-83872647D02*
X171067487Y-84063124D01*
X171067487Y-84063124D02*
X171067487Y-83567885D01*
X165530344Y-84063124D02*
X165492249Y-84025028D01*
X165492249Y-84025028D02*
X165454154Y-83948838D01*
X165454154Y-83948838D02*
X165454154Y-83758362D01*
X165454154Y-83758362D02*
X165492249Y-83682171D01*
X165492249Y-83682171D02*
X165530344Y-83644076D01*
X165530344Y-83644076D02*
X165606535Y-83605981D01*
X165606535Y-83605981D02*
X165682725Y-83605981D01*
X165682725Y-83605981D02*
X165797011Y-83644076D01*
X165797011Y-83644076D02*
X166254154Y-84101219D01*
X166254154Y-84101219D02*
X166254154Y-83605981D01*
X173074154Y-83644076D02*
X173074154Y-84025028D01*
X173074154Y-84025028D02*
X173455106Y-84063124D01*
X173455106Y-84063124D02*
X173417011Y-84025028D01*
X173417011Y-84025028D02*
X173378916Y-83948838D01*
X173378916Y-83948838D02*
X173378916Y-83758362D01*
X173378916Y-83758362D02*
X173417011Y-83682171D01*
X173417011Y-83682171D02*
X173455106Y-83644076D01*
X173455106Y-83644076D02*
X173531297Y-83605981D01*
X173531297Y-83605981D02*
X173721773Y-83605981D01*
X173721773Y-83605981D02*
X173797963Y-83644076D01*
X173797963Y-83644076D02*
X173836059Y-83682171D01*
X173836059Y-83682171D02*
X173874154Y-83758362D01*
X173874154Y-83758362D02*
X173874154Y-83948838D01*
X173874154Y-83948838D02*
X173836059Y-84025028D01*
X173836059Y-84025028D02*
X173797963Y-84063124D01*
X163714154Y-83605981D02*
X163714154Y-84063124D01*
X163714154Y-83834552D02*
X162914154Y-83834552D01*
X162914154Y-83834552D02*
X163028439Y-83910743D01*
X163028439Y-83910743D02*
X163104630Y-83986933D01*
X163104630Y-83986933D02*
X163142725Y-84063124D01*
%TO.C,J5*%
X130502616Y-87850994D02*
X130769283Y-88231947D01*
X130959759Y-87850994D02*
X130959759Y-88650994D01*
X130959759Y-88650994D02*
X130654997Y-88650994D01*
X130654997Y-88650994D02*
X130578807Y-88612899D01*
X130578807Y-88612899D02*
X130540712Y-88574804D01*
X130540712Y-88574804D02*
X130502616Y-88498613D01*
X130502616Y-88498613D02*
X130502616Y-88384328D01*
X130502616Y-88384328D02*
X130540712Y-88308137D01*
X130540712Y-88308137D02*
X130578807Y-88270042D01*
X130578807Y-88270042D02*
X130654997Y-88231947D01*
X130654997Y-88231947D02*
X130959759Y-88231947D01*
%TO.C,J6*%
X129459759Y-52480994D02*
X129459759Y-53280994D01*
X129459759Y-53280994D02*
X129269283Y-53280994D01*
X129269283Y-53280994D02*
X129154997Y-53242899D01*
X129154997Y-53242899D02*
X129078807Y-53166709D01*
X129078807Y-53166709D02*
X129040712Y-53090518D01*
X129040712Y-53090518D02*
X129002616Y-52938137D01*
X129002616Y-52938137D02*
X129002616Y-52823851D01*
X129002616Y-52823851D02*
X129040712Y-52671470D01*
X129040712Y-52671470D02*
X129078807Y-52595280D01*
X129078807Y-52595280D02*
X129154997Y-52519090D01*
X129154997Y-52519090D02*
X129269283Y-52480994D01*
X129269283Y-52480994D02*
X129459759Y-52480994D01*
%TO.C,J15*%
X160268870Y-70549836D02*
X160649823Y-70549836D01*
X160192680Y-70778408D02*
X160459347Y-69978408D01*
X160459347Y-69978408D02*
X160726013Y-70778408D01*
X161411727Y-70778408D02*
X160954584Y-70778408D01*
X161183156Y-70778408D02*
X161183156Y-69978408D01*
X161183156Y-69978408D02*
X161106965Y-70092693D01*
X161106965Y-70092693D02*
X161030775Y-70168884D01*
X161030775Y-70168884D02*
X160954584Y-70206979D01*
X162770775Y-70016503D02*
X162694585Y-69978408D01*
X162694585Y-69978408D02*
X162580299Y-69978408D01*
X162580299Y-69978408D02*
X162466013Y-70016503D01*
X162466013Y-70016503D02*
X162389823Y-70092693D01*
X162389823Y-70092693D02*
X162351728Y-70168884D01*
X162351728Y-70168884D02*
X162313632Y-70321265D01*
X162313632Y-70321265D02*
X162313632Y-70435551D01*
X162313632Y-70435551D02*
X162351728Y-70587932D01*
X162351728Y-70587932D02*
X162389823Y-70664122D01*
X162389823Y-70664122D02*
X162466013Y-70740313D01*
X162466013Y-70740313D02*
X162580299Y-70778408D01*
X162580299Y-70778408D02*
X162656490Y-70778408D01*
X162656490Y-70778408D02*
X162770775Y-70740313D01*
X162770775Y-70740313D02*
X162808871Y-70702217D01*
X162808871Y-70702217D02*
X162808871Y-70435551D01*
X162808871Y-70435551D02*
X162656490Y-70435551D01*
X163151728Y-70778408D02*
X163151728Y-69978408D01*
X163151728Y-69978408D02*
X163608871Y-70778408D01*
X163608871Y-70778408D02*
X163608871Y-69978408D01*
X163989823Y-70778408D02*
X163989823Y-69978408D01*
X163989823Y-69978408D02*
X164180299Y-69978408D01*
X164180299Y-69978408D02*
X164294585Y-70016503D01*
X164294585Y-70016503D02*
X164370775Y-70092693D01*
X164370775Y-70092693D02*
X164408870Y-70168884D01*
X164408870Y-70168884D02*
X164446966Y-70321265D01*
X164446966Y-70321265D02*
X164446966Y-70435551D01*
X164446966Y-70435551D02*
X164408870Y-70587932D01*
X164408870Y-70587932D02*
X164370775Y-70664122D01*
X164370775Y-70664122D02*
X164294585Y-70740313D01*
X164294585Y-70740313D02*
X164180299Y-70778408D01*
X164180299Y-70778408D02*
X163989823Y-70778408D01*
X165596489Y-70359360D02*
X165710775Y-70397455D01*
X165710775Y-70397455D02*
X165748870Y-70435551D01*
X165748870Y-70435551D02*
X165786966Y-70511741D01*
X165786966Y-70511741D02*
X165786966Y-70626027D01*
X165786966Y-70626027D02*
X165748870Y-70702217D01*
X165748870Y-70702217D02*
X165710775Y-70740313D01*
X165710775Y-70740313D02*
X165634585Y-70778408D01*
X165634585Y-70778408D02*
X165329823Y-70778408D01*
X165329823Y-70778408D02*
X165329823Y-69978408D01*
X165329823Y-69978408D02*
X165596489Y-69978408D01*
X165596489Y-69978408D02*
X165672680Y-70016503D01*
X165672680Y-70016503D02*
X165710775Y-70054598D01*
X165710775Y-70054598D02*
X165748870Y-70130789D01*
X165748870Y-70130789D02*
X165748870Y-70206979D01*
X165748870Y-70206979D02*
X165710775Y-70283170D01*
X165710775Y-70283170D02*
X165672680Y-70321265D01*
X165672680Y-70321265D02*
X165596489Y-70359360D01*
X165596489Y-70359360D02*
X165329823Y-70359360D01*
X166548870Y-70778408D02*
X166091727Y-70778408D01*
X166320299Y-70778408D02*
X166320299Y-69978408D01*
X166320299Y-69978408D02*
X166244108Y-70092693D01*
X166244108Y-70092693D02*
X166167918Y-70168884D01*
X166167918Y-70168884D02*
X166091727Y-70206979D01*
%TO.C,J13*%
X139230000Y-80474850D02*
X146850000Y-80474850D01*
X146850000Y-80474850D02*
X146850000Y-77934850D01*
X146850000Y-77934850D02*
X139230000Y-77934850D01*
X139230000Y-77934850D02*
X139230000Y-80474850D01*
%TO.C,RE1*%
X104981000Y-60349000D02*
X104381000Y-60349000D01*
X104681000Y-60049000D02*
X104981000Y-60349000D01*
X104381000Y-60349000D02*
X104681000Y-60049000D01*
X103281000Y-62149000D02*
X103281000Y-50349000D01*
X99181000Y-62149000D02*
X103281000Y-62149000D01*
X99181000Y-50349000D02*
X103281000Y-50349000D01*
X97681000Y-56249000D02*
X96681000Y-56249000D01*
X97181000Y-56749000D02*
X97181000Y-55749000D01*
X95181000Y-62149000D02*
X91081000Y-62149000D01*
X91081000Y-62149000D02*
X91081000Y-59749000D01*
X91081000Y-57549000D02*
X91081000Y-54949000D01*
X91081000Y-52749000D02*
X91081000Y-50349000D01*
X91081000Y-50349000D02*
X95181000Y-50349000D01*
X100181000Y-56249000D02*
G75*
G03*
X100181000Y-56249000I-3000000J0D01*
G01*
%TO.C,J19*%
X153430000Y-78714850D02*
X150890000Y-78714850D01*
X150890000Y-78714850D02*
X150890000Y-68554850D01*
X150890000Y-68554850D02*
X153430000Y-68554850D01*
X153430000Y-68554850D02*
X153430000Y-78714850D01*
%TO.C,J21*%
X149390000Y-78714850D02*
X146850000Y-78714850D01*
X146850000Y-78714850D02*
X146850000Y-68554850D01*
X146850000Y-68554850D02*
X149390000Y-68554850D01*
X149390000Y-68554850D02*
X149390000Y-78714850D01*
D12*
%TO.C,T1*%
X210159800Y-45885000D02*
X210159800Y-54523000D01*
X210159800Y-45885000D02*
X216916200Y-45885000D01*
X210159800Y-54523000D02*
X210159800Y-58458000D01*
X216916200Y-45885000D02*
X216916200Y-58458000D01*
X216916200Y-58458000D02*
X210159800Y-58458000D01*
D10*
%TO.C,J4*%
X203860000Y-56974850D02*
X203860000Y-79834850D01*
D11*
%TO.C,J6*%
X197010000Y-89544850D02*
X196010000Y-89544850D01*
X197010000Y-89544850D02*
X196510000Y-90044850D01*
X196510000Y-90044850D02*
X196010000Y-89544850D01*
D10*
X197780000Y-90314850D02*
X197780000Y-92854850D01*
X185080000Y-90314850D02*
X197780000Y-90314850D01*
X197780000Y-92854850D02*
X185080000Y-92854850D01*
X185080000Y-92854850D02*
X185080000Y-90314850D01*
D11*
%TO.C,U1*%
X192985000Y-75484850D02*
X193485000Y-74984850D01*
X192985000Y-75484850D02*
X193985000Y-75484850D01*
X193485000Y-74984850D02*
X193985000Y-75484850D01*
%TO.C,J14*%
X153430000Y-89684850D02*
X150890000Y-89684850D01*
X153430000Y-84604850D02*
X150890000Y-84604850D01*
X153430000Y-92224850D02*
X150890000Y-92224850D01*
X150890000Y-92224850D02*
X150890000Y-79524850D01*
X150890000Y-79524850D02*
X153430000Y-79524850D01*
X153430000Y-79524850D02*
X153430000Y-92224850D01*
%TO.C,J8*%
X149400000Y-89684850D02*
X146860000Y-89684850D01*
X149400000Y-84604850D02*
X146860000Y-84604850D01*
X149400000Y-92224850D02*
X146860000Y-92224850D01*
X146860000Y-92224850D02*
X146860000Y-79534850D01*
X146860000Y-79534850D02*
X149400000Y-79534850D01*
X149400000Y-79534850D02*
X149400000Y-92224850D01*
%TO.C,J3*%
X139230000Y-72194850D02*
X146850000Y-72194850D01*
X146850000Y-72194850D02*
X146850000Y-69654850D01*
X146850000Y-69654850D02*
X139230000Y-69654850D01*
X139230000Y-69654850D02*
X139230000Y-72194850D01*
%TO.C,J7*%
X139230000Y-84604850D02*
X146850000Y-84604850D01*
X146850000Y-84604850D02*
X146850000Y-82064850D01*
X146850000Y-82064850D02*
X139230000Y-82064850D01*
X139230000Y-82064850D02*
X139230000Y-84604850D01*
%TO.C,REF\u002A\u002A*%
D13*
X189151110Y-62443954D02*
X189263692Y-63041145D01*
X189679105Y-63212392D01*
X190094519Y-63383639D01*
X190592876Y-63044760D01*
X190732443Y-62950404D01*
X190858603Y-62866157D01*
X190965470Y-62795865D01*
X191047157Y-62743374D01*
X191097776Y-62712531D01*
X191111561Y-62705880D01*
X191136395Y-62722985D01*
X191189463Y-62770271D01*
X191264815Y-62841699D01*
X191356504Y-62931227D01*
X191458582Y-63032816D01*
X191565101Y-63140425D01*
X191670111Y-63248014D01*
X191767666Y-63349542D01*
X191851817Y-63438968D01*
X191916615Y-63510253D01*
X191956112Y-63557355D01*
X191965555Y-63573119D01*
X191951966Y-63602180D01*
X191913868Y-63665848D01*
X191855268Y-63757894D01*
X191780172Y-63872091D01*
X191692583Y-64002211D01*
X191641829Y-64076428D01*
X191549320Y-64211949D01*
X191467115Y-64334243D01*
X191399205Y-64437222D01*
X191349575Y-64514800D01*
X191322215Y-64560888D01*
X191318104Y-64570574D01*
X191327424Y-64598101D01*
X191352829Y-64662255D01*
X191390486Y-64754017D01*
X191436561Y-64864366D01*
X191487221Y-64984282D01*
X191538634Y-65104746D01*
X191586964Y-65216736D01*
X191628381Y-65311234D01*
X191659049Y-65379219D01*
X191675136Y-65411670D01*
X191676086Y-65412947D01*
X191701347Y-65419144D01*
X191768620Y-65432967D01*
X191870935Y-65453059D01*
X192001316Y-65478061D01*
X192152791Y-65506613D01*
X192241168Y-65523078D01*
X192403027Y-65553896D01*
X192549224Y-65583221D01*
X192672362Y-65609448D01*
X192765044Y-65630973D01*
X192819876Y-65646192D01*
X192830898Y-65651020D01*
X192841693Y-65683701D01*
X192850404Y-65757512D01*
X192857035Y-65863819D01*
X192861593Y-65993994D01*
X192864084Y-66139403D01*
X192864513Y-66291417D01*
X192862886Y-66441404D01*
X192859210Y-66580733D01*
X192853490Y-66700772D01*
X192845732Y-66792892D01*
X192835943Y-66848459D01*
X192830071Y-66860027D01*
X192794974Y-66873892D01*
X192720603Y-66893715D01*
X192616798Y-66917166D01*
X192493394Y-66941918D01*
X192450316Y-66949925D01*
X192242622Y-66987968D01*
X192078559Y-67018606D01*
X191952705Y-67043056D01*
X191859640Y-67062536D01*
X191793942Y-67078263D01*
X191750192Y-67091455D01*
X191722967Y-67103331D01*
X191706847Y-67115107D01*
X191704592Y-67117435D01*
X191682078Y-67154927D01*
X191647733Y-67227892D01*
X191604986Y-67327394D01*
X191557267Y-67444500D01*
X191508005Y-67570275D01*
X191460630Y-67695784D01*
X191418570Y-67812092D01*
X191385255Y-67910266D01*
X191364116Y-67981370D01*
X191358580Y-68016469D01*
X191359041Y-68017699D01*
X191377798Y-68046388D01*
X191420351Y-68109512D01*
X191482228Y-68200500D01*
X191558957Y-68312782D01*
X191646066Y-68439787D01*
X191670873Y-68475880D01*
X191759327Y-68606730D01*
X191837163Y-68726118D01*
X191900141Y-68827189D01*
X191944020Y-68903086D01*
X191964560Y-68946954D01*
X191965555Y-68952344D01*
X191948297Y-68980671D01*
X191900610Y-69036788D01*
X191828625Y-69114664D01*
X191738472Y-69208267D01*
X191636280Y-69311568D01*
X191528180Y-69418533D01*
X191420303Y-69523133D01*
X191318779Y-69619336D01*
X191229737Y-69701111D01*
X191159308Y-69762427D01*
X191113622Y-69797253D01*
X191100984Y-69802939D01*
X191071566Y-69789547D01*
X191011336Y-69753426D01*
X190930104Y-69700663D01*
X190867605Y-69658194D01*
X190754360Y-69580267D01*
X190620249Y-69488511D01*
X190485730Y-69396902D01*
X190413408Y-69347873D01*
X190168613Y-69182297D01*
X189963125Y-69293402D01*
X189869511Y-69342075D01*
X189789905Y-69379908D01*
X189736042Y-69401485D01*
X189722332Y-69404488D01*
X189705845Y-69382320D01*
X189673320Y-69319676D01*
X189627183Y-69222336D01*
X189569865Y-69096076D01*
X189503791Y-68946677D01*
X189431390Y-68779915D01*
X189355091Y-68601569D01*
X189277321Y-68417418D01*
X189200509Y-68233239D01*
X189127081Y-68054812D01*
X189059467Y-67887914D01*
X189000095Y-67738324D01*
X188951391Y-67611820D01*
X188915785Y-67514181D01*
X188895705Y-67451184D01*
X188892475Y-67429548D01*
X188918071Y-67401951D01*
X188974113Y-67357152D01*
X189048886Y-67304461D01*
X189055162Y-67300292D01*
X189248420Y-67145596D01*
X189404249Y-66965118D01*
X189521299Y-66764629D01*
X189598220Y-66549901D01*
X189633661Y-66326704D01*
X189626272Y-66100808D01*
X189574702Y-65877986D01*
X189477601Y-65664006D01*
X189449033Y-65617191D01*
X189300443Y-65428145D01*
X189124902Y-65276339D01*
X188928485Y-65162561D01*
X188717268Y-65087602D01*
X188497328Y-65052249D01*
X188274738Y-65057294D01*
X188055576Y-65103526D01*
X187845917Y-65191733D01*
X187651836Y-65322706D01*
X187591801Y-65375864D01*
X187439010Y-65542266D01*
X187327672Y-65717439D01*
X187251298Y-65913793D01*
X187208762Y-66108244D01*
X187198261Y-66326869D01*
X187233275Y-66546579D01*
X187310248Y-66759947D01*
X187425622Y-66959549D01*
X187575840Y-67137956D01*
X187757348Y-67287744D01*
X187781202Y-67303533D01*
X187856776Y-67355239D01*
X187914226Y-67400039D01*
X187941692Y-67428644D01*
X187942092Y-67429548D01*
X187936195Y-67460491D01*
X187912820Y-67530718D01*
X187874396Y-67634452D01*
X187823352Y-67765917D01*
X187762117Y-67919334D01*
X187693119Y-68088928D01*
X187618788Y-68268920D01*
X187541553Y-68453535D01*
X187463843Y-68636995D01*
X187388086Y-68813523D01*
X187316712Y-68977341D01*
X187252149Y-69122674D01*
X187196827Y-69243744D01*
X187153175Y-69334774D01*
X187123621Y-69389987D01*
X187111719Y-69404488D01*
X187075352Y-69393196D01*
X187007305Y-69362912D01*
X186919311Y-69319047D01*
X186870925Y-69293402D01*
X186665438Y-69182297D01*
X186420643Y-69347873D01*
X186295681Y-69432697D01*
X186158870Y-69526043D01*
X186030663Y-69613935D01*
X185966446Y-69658194D01*
X185876126Y-69718845D01*
X185799646Y-69766908D01*
X185746982Y-69796297D01*
X185729877Y-69802509D01*
X185704980Y-69785750D01*
X185649880Y-69738963D01*
X185569918Y-69667007D01*
X185470435Y-69574739D01*
X185356775Y-69467017D01*
X185284890Y-69397853D01*
X185159126Y-69274284D01*
X185050438Y-69163761D01*
X184963220Y-69071012D01*
X184901864Y-69000764D01*
X184870766Y-68957747D01*
X184867783Y-68949017D01*
X184881628Y-68915811D01*
X184919887Y-68848669D01*
X184978316Y-68754390D01*
X185052672Y-68639772D01*
X185138710Y-68511610D01*
X185163177Y-68475880D01*
X185252329Y-68346016D01*
X185332313Y-68229096D01*
X185398655Y-68131689D01*
X185446886Y-68060366D01*
X185472532Y-68021697D01*
X185475010Y-68017699D01*
X185471304Y-67986882D01*
X185451636Y-67919126D01*
X185419435Y-67823366D01*
X185378130Y-67708536D01*
X185331150Y-67583571D01*
X185281924Y-67457406D01*
X185233883Y-67338975D01*
X185190456Y-67237212D01*
X185155071Y-67161053D01*
X185131159Y-67119431D01*
X185129459Y-67117435D01*
X185114837Y-67105540D01*
X185090140Y-67093777D01*
X185049947Y-67080928D01*
X184988838Y-67065776D01*
X184901392Y-67047103D01*
X184782187Y-67023692D01*
X184625802Y-66994324D01*
X184426818Y-66957782D01*
X184383735Y-66949925D01*
X184256045Y-66925254D01*
X184144728Y-66901120D01*
X184059620Y-66879851D01*
X184010558Y-66863775D01*
X184003980Y-66860027D01*
X183993139Y-66826800D01*
X183984328Y-66752548D01*
X183977551Y-66645903D01*
X183972815Y-66515494D01*
X183970125Y-66369954D01*
X183969488Y-66217913D01*
X183970909Y-66068003D01*
X183974395Y-65928855D01*
X183979951Y-65809099D01*
X183987583Y-65717368D01*
X183997297Y-65662293D01*
X184003153Y-65651020D01*
X184035755Y-65639650D01*
X184109993Y-65621151D01*
X184218471Y-65597129D01*
X184353792Y-65569189D01*
X184508560Y-65538935D01*
X184592882Y-65523078D01*
X184752871Y-65493171D01*
X184895542Y-65466077D01*
X185013923Y-65443158D01*
X185101040Y-65425770D01*
X185149920Y-65415274D01*
X185157965Y-65412947D01*
X185171562Y-65386713D01*
X185200304Y-65323522D01*
X185240360Y-65232404D01*
X185287899Y-65122384D01*
X185339090Y-65002492D01*
X185390101Y-64881754D01*
X185437101Y-64769198D01*
X185476259Y-64673853D01*
X185503744Y-64604744D01*
X185515724Y-64570901D01*
X185515947Y-64569422D01*
X185502366Y-64542724D01*
X185464290Y-64481287D01*
X185405722Y-64391216D01*
X185330663Y-64278617D01*
X185243115Y-64149597D01*
X185192222Y-64075488D01*
X185099484Y-63939604D01*
X185017116Y-63816236D01*
X184949136Y-63711624D01*
X184899563Y-63632010D01*
X184872417Y-63583634D01*
X184868496Y-63572789D01*
X184885350Y-63547547D01*
X184931943Y-63493651D01*
X185002323Y-63417140D01*
X185090540Y-63324050D01*
X185190640Y-63220422D01*
X185296673Y-63112291D01*
X185402686Y-63005697D01*
X185502727Y-62906677D01*
X185590845Y-62821269D01*
X185661088Y-62755512D01*
X185707503Y-62715443D01*
X185723031Y-62705880D01*
X185748314Y-62719327D01*
X185808786Y-62757102D01*
X185898567Y-62815362D01*
X186011778Y-62890261D01*
X186142538Y-62977952D01*
X186241174Y-63044760D01*
X186739532Y-63383639D01*
X187154945Y-63212392D01*
X187570359Y-63041145D01*
X187682941Y-62443954D01*
X187795524Y-61846762D01*
X189038527Y-61846762D01*
X189151110Y-62443954D01*
G36*
X189151110Y-62443954D02*
G01*
X189263692Y-63041145D01*
X189679105Y-63212392D01*
X190094519Y-63383639D01*
X190592876Y-63044760D01*
X190732443Y-62950404D01*
X190858603Y-62866157D01*
X190965470Y-62795865D01*
X191047157Y-62743374D01*
X191097776Y-62712531D01*
X191111561Y-62705880D01*
X191136395Y-62722985D01*
X191189463Y-62770271D01*
X191264815Y-62841699D01*
X191356504Y-62931227D01*
X191458582Y-63032816D01*
X191565101Y-63140425D01*
X191670111Y-63248014D01*
X191767666Y-63349542D01*
X191851817Y-63438968D01*
X191916615Y-63510253D01*
X191956112Y-63557355D01*
X191965555Y-63573119D01*
X191951966Y-63602180D01*
X191913868Y-63665848D01*
X191855268Y-63757894D01*
X191780172Y-63872091D01*
X191692583Y-64002211D01*
X191641829Y-64076428D01*
X191549320Y-64211949D01*
X191467115Y-64334243D01*
X191399205Y-64437222D01*
X191349575Y-64514800D01*
X191322215Y-64560888D01*
X191318104Y-64570574D01*
X191327424Y-64598101D01*
X191352829Y-64662255D01*
X191390486Y-64754017D01*
X191436561Y-64864366D01*
X191487221Y-64984282D01*
X191538634Y-65104746D01*
X191586964Y-65216736D01*
X191628381Y-65311234D01*
X191659049Y-65379219D01*
X191675136Y-65411670D01*
X191676086Y-65412947D01*
X191701347Y-65419144D01*
X191768620Y-65432967D01*
X191870935Y-65453059D01*
X192001316Y-65478061D01*
X192152791Y-65506613D01*
X192241168Y-65523078D01*
X192403027Y-65553896D01*
X192549224Y-65583221D01*
X192672362Y-65609448D01*
X192765044Y-65630973D01*
X192819876Y-65646192D01*
X192830898Y-65651020D01*
X192841693Y-65683701D01*
X192850404Y-65757512D01*
X192857035Y-65863819D01*
X192861593Y-65993994D01*
X192864084Y-66139403D01*
X192864513Y-66291417D01*
X192862886Y-66441404D01*
X192859210Y-66580733D01*
X192853490Y-66700772D01*
X192845732Y-66792892D01*
X192835943Y-66848459D01*
X192830071Y-66860027D01*
X192794974Y-66873892D01*
X192720603Y-66893715D01*
X192616798Y-66917166D01*
X192493394Y-66941918D01*
X192450316Y-66949925D01*
X192242622Y-66987968D01*
X192078559Y-67018606D01*
X191952705Y-67043056D01*
X191859640Y-67062536D01*
X191793942Y-67078263D01*
X191750192Y-67091455D01*
X191722967Y-67103331D01*
X191706847Y-67115107D01*
X191704592Y-67117435D01*
X191682078Y-67154927D01*
X191647733Y-67227892D01*
X191604986Y-67327394D01*
X191557267Y-67444500D01*
X191508005Y-67570275D01*
X191460630Y-67695784D01*
X191418570Y-67812092D01*
X191385255Y-67910266D01*
X191364116Y-67981370D01*
X191358580Y-68016469D01*
X191359041Y-68017699D01*
X191377798Y-68046388D01*
X191420351Y-68109512D01*
X191482228Y-68200500D01*
X191558957Y-68312782D01*
X191646066Y-68439787D01*
X191670873Y-68475880D01*
X191759327Y-68606730D01*
X191837163Y-68726118D01*
X191900141Y-68827189D01*
X191944020Y-68903086D01*
X191964560Y-68946954D01*
X191965555Y-68952344D01*
X191948297Y-68980671D01*
X191900610Y-69036788D01*
X191828625Y-69114664D01*
X191738472Y-69208267D01*
X191636280Y-69311568D01*
X191528180Y-69418533D01*
X191420303Y-69523133D01*
X191318779Y-69619336D01*
X191229737Y-69701111D01*
X191159308Y-69762427D01*
X191113622Y-69797253D01*
X191100984Y-69802939D01*
X191071566Y-69789547D01*
X191011336Y-69753426D01*
X190930104Y-69700663D01*
X190867605Y-69658194D01*
X190754360Y-69580267D01*
X190620249Y-69488511D01*
X190485730Y-69396902D01*
X190413408Y-69347873D01*
X190168613Y-69182297D01*
X189963125Y-69293402D01*
X189869511Y-69342075D01*
X189789905Y-69379908D01*
X189736042Y-69401485D01*
X189722332Y-69404488D01*
X189705845Y-69382320D01*
X189673320Y-69319676D01*
X189627183Y-69222336D01*
X189569865Y-69096076D01*
X189503791Y-68946677D01*
X189431390Y-68779915D01*
X189355091Y-68601569D01*
X189277321Y-68417418D01*
X189200509Y-68233239D01*
X189127081Y-68054812D01*
X189059467Y-67887914D01*
X189000095Y-67738324D01*
X188951391Y-67611820D01*
X188915785Y-67514181D01*
X188895705Y-67451184D01*
X188892475Y-67429548D01*
X188918071Y-67401951D01*
X188974113Y-67357152D01*
X189048886Y-67304461D01*
X189055162Y-67300292D01*
X189248420Y-67145596D01*
X189404249Y-66965118D01*
X189521299Y-66764629D01*
X189598220Y-66549901D01*
X189633661Y-66326704D01*
X189626272Y-66100808D01*
X189574702Y-65877986D01*
X189477601Y-65664006D01*
X189449033Y-65617191D01*
X189300443Y-65428145D01*
X189124902Y-65276339D01*
X188928485Y-65162561D01*
X188717268Y-65087602D01*
X188497328Y-65052249D01*
X188274738Y-65057294D01*
X188055576Y-65103526D01*
X187845917Y-65191733D01*
X187651836Y-65322706D01*
X187591801Y-65375864D01*
X187439010Y-65542266D01*
X187327672Y-65717439D01*
X187251298Y-65913793D01*
X187208762Y-66108244D01*
X187198261Y-66326869D01*
X187233275Y-66546579D01*
X187310248Y-66759947D01*
X187425622Y-66959549D01*
X187575840Y-67137956D01*
X187757348Y-67287744D01*
X187781202Y-67303533D01*
X187856776Y-67355239D01*
X187914226Y-67400039D01*
X187941692Y-67428644D01*
X187942092Y-67429548D01*
X187936195Y-67460491D01*
X187912820Y-67530718D01*
X187874396Y-67634452D01*
X187823352Y-67765917D01*
X187762117Y-67919334D01*
X187693119Y-68088928D01*
X187618788Y-68268920D01*
X187541553Y-68453535D01*
X187463843Y-68636995D01*
X187388086Y-68813523D01*
X187316712Y-68977341D01*
X187252149Y-69122674D01*
X187196827Y-69243744D01*
X187153175Y-69334774D01*
X187123621Y-69389987D01*
X187111719Y-69404488D01*
X187075352Y-69393196D01*
X187007305Y-69362912D01*
X186919311Y-69319047D01*
X186870925Y-69293402D01*
X186665438Y-69182297D01*
X186420643Y-69347873D01*
X186295681Y-69432697D01*
X186158870Y-69526043D01*
X186030663Y-69613935D01*
X185966446Y-69658194D01*
X185876126Y-69718845D01*
X185799646Y-69766908D01*
X185746982Y-69796297D01*
X185729877Y-69802509D01*
X185704980Y-69785750D01*
X185649880Y-69738963D01*
X185569918Y-69667007D01*
X185470435Y-69574739D01*
X185356775Y-69467017D01*
X185284890Y-69397853D01*
X185159126Y-69274284D01*
X185050438Y-69163761D01*
X184963220Y-69071012D01*
X184901864Y-69000764D01*
X184870766Y-68957747D01*
X184867783Y-68949017D01*
X184881628Y-68915811D01*
X184919887Y-68848669D01*
X184978316Y-68754390D01*
X185052672Y-68639772D01*
X185138710Y-68511610D01*
X185163177Y-68475880D01*
X185252329Y-68346016D01*
X185332313Y-68229096D01*
X185398655Y-68131689D01*
X185446886Y-68060366D01*
X185472532Y-68021697D01*
X185475010Y-68017699D01*
X185471304Y-67986882D01*
X185451636Y-67919126D01*
X185419435Y-67823366D01*
X185378130Y-67708536D01*
X185331150Y-67583571D01*
X185281924Y-67457406D01*
X185233883Y-67338975D01*
X185190456Y-67237212D01*
X185155071Y-67161053D01*
X185131159Y-67119431D01*
X185129459Y-67117435D01*
X185114837Y-67105540D01*
X185090140Y-67093777D01*
X185049947Y-67080928D01*
X184988838Y-67065776D01*
X184901392Y-67047103D01*
X184782187Y-67023692D01*
X184625802Y-66994324D01*
X184426818Y-66957782D01*
X184383735Y-66949925D01*
X184256045Y-66925254D01*
X184144728Y-66901120D01*
X184059620Y-66879851D01*
X184010558Y-66863775D01*
X184003980Y-66860027D01*
X183993139Y-66826800D01*
X183984328Y-66752548D01*
X183977551Y-66645903D01*
X183972815Y-66515494D01*
X183970125Y-66369954D01*
X183969488Y-66217913D01*
X183970909Y-66068003D01*
X183974395Y-65928855D01*
X183979951Y-65809099D01*
X183987583Y-65717368D01*
X183997297Y-65662293D01*
X184003153Y-65651020D01*
X184035755Y-65639650D01*
X184109993Y-65621151D01*
X184218471Y-65597129D01*
X184353792Y-65569189D01*
X184508560Y-65538935D01*
X184592882Y-65523078D01*
X184752871Y-65493171D01*
X184895542Y-65466077D01*
X185013923Y-65443158D01*
X185101040Y-65425770D01*
X185149920Y-65415274D01*
X185157965Y-65412947D01*
X185171562Y-65386713D01*
X185200304Y-65323522D01*
X185240360Y-65232404D01*
X185287899Y-65122384D01*
X185339090Y-65002492D01*
X185390101Y-64881754D01*
X185437101Y-64769198D01*
X185476259Y-64673853D01*
X185503744Y-64604744D01*
X185515724Y-64570901D01*
X185515947Y-64569422D01*
X185502366Y-64542724D01*
X185464290Y-64481287D01*
X185405722Y-64391216D01*
X185330663Y-64278617D01*
X185243115Y-64149597D01*
X185192222Y-64075488D01*
X185099484Y-63939604D01*
X185017116Y-63816236D01*
X184949136Y-63711624D01*
X184899563Y-63632010D01*
X184872417Y-63583634D01*
X184868496Y-63572789D01*
X184885350Y-63547547D01*
X184931943Y-63493651D01*
X185002323Y-63417140D01*
X185090540Y-63324050D01*
X185190640Y-63220422D01*
X185296673Y-63112291D01*
X185402686Y-63005697D01*
X185502727Y-62906677D01*
X185590845Y-62821269D01*
X185661088Y-62755512D01*
X185707503Y-62715443D01*
X185723031Y-62705880D01*
X185748314Y-62719327D01*
X185808786Y-62757102D01*
X185898567Y-62815362D01*
X186011778Y-62890261D01*
X186142538Y-62977952D01*
X186241174Y-63044760D01*
X186739532Y-63383639D01*
X187154945Y-63212392D01*
X187570359Y-63041145D01*
X187682941Y-62443954D01*
X187795524Y-61846762D01*
X189038527Y-61846762D01*
X189151110Y-62443954D01*
G37*
D10*
%TO.C,J5*%
X198780000Y-79834850D02*
X198780000Y-56974850D01*
X201320000Y-56974850D02*
X201320000Y-79834850D01*
D11*
%TO.C,J22*%
X124685236Y-61354850D02*
X123685236Y-61354850D01*
X124685236Y-61354850D02*
X124185236Y-61854850D01*
X124185236Y-61854850D02*
X123685236Y-61354850D01*
%TO.C,J15*%
X139230000Y-76334850D02*
X146850000Y-76334850D01*
X146850000Y-76334850D02*
X146850000Y-73794850D01*
X146850000Y-73794850D02*
X139230000Y-73794850D01*
X139230000Y-73794850D02*
X139230000Y-76334850D01*
D12*
%TO.C,T1*%
X220016200Y-97555000D02*
X220016200Y-88917000D01*
X220016200Y-97555000D02*
X213259800Y-97555000D01*
X220016200Y-88917000D02*
X220016200Y-84982000D01*
X213259800Y-97555000D02*
X213259800Y-84982000D01*
X213259800Y-84982000D02*
X220016200Y-84982000D01*
D11*
%TO.C,RE1*%
X89592000Y-83091000D02*
X90192000Y-83091000D01*
X89892000Y-83391000D02*
X89592000Y-83091000D01*
X90192000Y-83091000D02*
X89892000Y-83391000D01*
X91292000Y-81291000D02*
X91292000Y-93091000D01*
X95392000Y-81291000D02*
X91292000Y-81291000D01*
X95392000Y-93091000D02*
X91292000Y-93091000D01*
X96892000Y-87191000D02*
X97892000Y-87191000D01*
X97392000Y-86691000D02*
X97392000Y-87691000D01*
X99392000Y-81291000D02*
X103492000Y-81291000D01*
X103492000Y-81291000D02*
X103492000Y-83691000D01*
X103492000Y-85891000D02*
X103492000Y-88491000D01*
X103492000Y-90691000D02*
X103492000Y-93091000D01*
X103492000Y-93091000D02*
X99392000Y-93091000D01*
X100392000Y-87191000D02*
G75*
G03*
X100392000Y-87191000I-3000000J0D01*
G01*
%TO.C,REF\u002A\u002A*%
D13*
X116437818Y-74640153D02*
X116498048Y-74676274D01*
X116579280Y-74729037D01*
X116641779Y-74771506D01*
X116755024Y-74849433D01*
X116889135Y-74941189D01*
X117023654Y-75032798D01*
X117095976Y-75081827D01*
X117340771Y-75247403D01*
X117546259Y-75136298D01*
X117639873Y-75087625D01*
X117719479Y-75049792D01*
X117773342Y-75028215D01*
X117787052Y-75025212D01*
X117803539Y-75047380D01*
X117836064Y-75110024D01*
X117882201Y-75207364D01*
X117939519Y-75333624D01*
X118005593Y-75483023D01*
X118077994Y-75649785D01*
X118154293Y-75828131D01*
X118232063Y-76012282D01*
X118308875Y-76196461D01*
X118382303Y-76374888D01*
X118449917Y-76541786D01*
X118509289Y-76691376D01*
X118557993Y-76817880D01*
X118593599Y-76915519D01*
X118613679Y-76978516D01*
X118616909Y-77000152D01*
X118591313Y-77027749D01*
X118535271Y-77072548D01*
X118460498Y-77125239D01*
X118454222Y-77129408D01*
X118260964Y-77284104D01*
X118105135Y-77464582D01*
X117988085Y-77665071D01*
X117911164Y-77879799D01*
X117875723Y-78102996D01*
X117883112Y-78328892D01*
X117934682Y-78551714D01*
X118031783Y-78765694D01*
X118060351Y-78812509D01*
X118208941Y-79001555D01*
X118384482Y-79153361D01*
X118580899Y-79267139D01*
X118792116Y-79342098D01*
X119012056Y-79377451D01*
X119234646Y-79372406D01*
X119453808Y-79326174D01*
X119663467Y-79237967D01*
X119857548Y-79106994D01*
X119917583Y-79053836D01*
X120070374Y-78887434D01*
X120181712Y-78712261D01*
X120258086Y-78515907D01*
X120300622Y-78321456D01*
X120311123Y-78102831D01*
X120276109Y-77883121D01*
X120199136Y-77669753D01*
X120083762Y-77470151D01*
X119933544Y-77291744D01*
X119752036Y-77141956D01*
X119728182Y-77126167D01*
X119652608Y-77074461D01*
X119595158Y-77029661D01*
X119567692Y-77001056D01*
X119567292Y-77000152D01*
X119573189Y-76969209D01*
X119596564Y-76898982D01*
X119634988Y-76795248D01*
X119686032Y-76663783D01*
X119747267Y-76510366D01*
X119816265Y-76340772D01*
X119890596Y-76160780D01*
X119967831Y-75976165D01*
X120045541Y-75792705D01*
X120121298Y-75616177D01*
X120192672Y-75452359D01*
X120257235Y-75307026D01*
X120312557Y-75185956D01*
X120356209Y-75094926D01*
X120385763Y-75039713D01*
X120397665Y-75025212D01*
X120434032Y-75036504D01*
X120502079Y-75066788D01*
X120590073Y-75110653D01*
X120638459Y-75136298D01*
X120843946Y-75247403D01*
X121088741Y-75081827D01*
X121213703Y-74997003D01*
X121350514Y-74903657D01*
X121478721Y-74815765D01*
X121542938Y-74771506D01*
X121633258Y-74710855D01*
X121709738Y-74662792D01*
X121762402Y-74633403D01*
X121779507Y-74627191D01*
X121804404Y-74643950D01*
X121859504Y-74690737D01*
X121939466Y-74762693D01*
X122038949Y-74854961D01*
X122152609Y-74962683D01*
X122224494Y-75031847D01*
X122350258Y-75155416D01*
X122458946Y-75265939D01*
X122546164Y-75358688D01*
X122607520Y-75428936D01*
X122638618Y-75471953D01*
X122641601Y-75480683D01*
X122627756Y-75513889D01*
X122589497Y-75581031D01*
X122531068Y-75675310D01*
X122456712Y-75789928D01*
X122370674Y-75918090D01*
X122346207Y-75953820D01*
X122257055Y-76083684D01*
X122177071Y-76200604D01*
X122110729Y-76298011D01*
X122062498Y-76369334D01*
X122036852Y-76408003D01*
X122034374Y-76412001D01*
X122038080Y-76442818D01*
X122057748Y-76510574D01*
X122089949Y-76606334D01*
X122131254Y-76721164D01*
X122178234Y-76846129D01*
X122227460Y-76972294D01*
X122275501Y-77090725D01*
X122318928Y-77192488D01*
X122354313Y-77268647D01*
X122378225Y-77310269D01*
X122379925Y-77312265D01*
X122394547Y-77324160D01*
X122419244Y-77335923D01*
X122459437Y-77348772D01*
X122520546Y-77363924D01*
X122607992Y-77382597D01*
X122727197Y-77406008D01*
X122883582Y-77435376D01*
X123082566Y-77471918D01*
X123125649Y-77479775D01*
X123253339Y-77504446D01*
X123364656Y-77528580D01*
X123449764Y-77549849D01*
X123498826Y-77565925D01*
X123505404Y-77569673D01*
X123516245Y-77602900D01*
X123525056Y-77677152D01*
X123531833Y-77783797D01*
X123536569Y-77914206D01*
X123539259Y-78059746D01*
X123539896Y-78211787D01*
X123538475Y-78361697D01*
X123534989Y-78500845D01*
X123529433Y-78620601D01*
X123521801Y-78712332D01*
X123512087Y-78767407D01*
X123506231Y-78778680D01*
X123473629Y-78790050D01*
X123399391Y-78808549D01*
X123290913Y-78832571D01*
X123155592Y-78860511D01*
X123000824Y-78890765D01*
X122916502Y-78906622D01*
X122756513Y-78936529D01*
X122613842Y-78963623D01*
X122495461Y-78986542D01*
X122408344Y-79003930D01*
X122359464Y-79014426D01*
X122351419Y-79016753D01*
X122337822Y-79042987D01*
X122309080Y-79106178D01*
X122269024Y-79197296D01*
X122221485Y-79307316D01*
X122170294Y-79427208D01*
X122119283Y-79547946D01*
X122072283Y-79660502D01*
X122033125Y-79755847D01*
X122005640Y-79824956D01*
X121993660Y-79858799D01*
X121993437Y-79860278D01*
X122007018Y-79886976D01*
X122045094Y-79948413D01*
X122103662Y-80038484D01*
X122178721Y-80151083D01*
X122266269Y-80280103D01*
X122317162Y-80354212D01*
X122409900Y-80490096D01*
X122492268Y-80613464D01*
X122560248Y-80718076D01*
X122609821Y-80797690D01*
X122636967Y-80846066D01*
X122640888Y-80856911D01*
X122624034Y-80882153D01*
X122577441Y-80936049D01*
X122507061Y-81012560D01*
X122418844Y-81105650D01*
X122318744Y-81209278D01*
X122212711Y-81317409D01*
X122106698Y-81424003D01*
X122006657Y-81523023D01*
X121918539Y-81608431D01*
X121848296Y-81674188D01*
X121801881Y-81714257D01*
X121786353Y-81723820D01*
X121761070Y-81710373D01*
X121700598Y-81672598D01*
X121610817Y-81614338D01*
X121497606Y-81539439D01*
X121366846Y-81451748D01*
X121268210Y-81384940D01*
X120769852Y-81046061D01*
X120354439Y-81217308D01*
X119939025Y-81388555D01*
X119826443Y-81985746D01*
X119713860Y-82582938D01*
X118470857Y-82582938D01*
X118358274Y-81985746D01*
X118245692Y-81388555D01*
X117830279Y-81217308D01*
X117414865Y-81046061D01*
X116916508Y-81384940D01*
X116776941Y-81479296D01*
X116650781Y-81563543D01*
X116543914Y-81633835D01*
X116462227Y-81686326D01*
X116411608Y-81717169D01*
X116397823Y-81723820D01*
X116372989Y-81706715D01*
X116319921Y-81659429D01*
X116244569Y-81588001D01*
X116152880Y-81498473D01*
X116050802Y-81396884D01*
X115944283Y-81289275D01*
X115839273Y-81181686D01*
X115741718Y-81080158D01*
X115657567Y-80990732D01*
X115592769Y-80919447D01*
X115553272Y-80872345D01*
X115543829Y-80856581D01*
X115557418Y-80827520D01*
X115595516Y-80763852D01*
X115654116Y-80671806D01*
X115729212Y-80557609D01*
X115816801Y-80427489D01*
X115867555Y-80353272D01*
X115960064Y-80217751D01*
X116042269Y-80095457D01*
X116110179Y-79992478D01*
X116159809Y-79914900D01*
X116187169Y-79868812D01*
X116191280Y-79859126D01*
X116181960Y-79831599D01*
X116156555Y-79767445D01*
X116118898Y-79675683D01*
X116072823Y-79565334D01*
X116022163Y-79445418D01*
X115970750Y-79324954D01*
X115922420Y-79212964D01*
X115881003Y-79118466D01*
X115850335Y-79050481D01*
X115834248Y-79018030D01*
X115833298Y-79016753D01*
X115808037Y-79010556D01*
X115740764Y-78996733D01*
X115638449Y-78976641D01*
X115508068Y-78951639D01*
X115356593Y-78923087D01*
X115268216Y-78906622D01*
X115106357Y-78875804D01*
X114960160Y-78846479D01*
X114837022Y-78820252D01*
X114744340Y-78798727D01*
X114689508Y-78783508D01*
X114678486Y-78778680D01*
X114667691Y-78745999D01*
X114658980Y-78672188D01*
X114652349Y-78565881D01*
X114647791Y-78435706D01*
X114645300Y-78290297D01*
X114644871Y-78138283D01*
X114646498Y-77988296D01*
X114650174Y-77848967D01*
X114655894Y-77728928D01*
X114663652Y-77636808D01*
X114673441Y-77581241D01*
X114679313Y-77569673D01*
X114714410Y-77555808D01*
X114788781Y-77535985D01*
X114892586Y-77512534D01*
X115015990Y-77487782D01*
X115059068Y-77479775D01*
X115266762Y-77441732D01*
X115430825Y-77411094D01*
X115556679Y-77386644D01*
X115649744Y-77367164D01*
X115715442Y-77351437D01*
X115759192Y-77338245D01*
X115786417Y-77326369D01*
X115802537Y-77314593D01*
X115804792Y-77312265D01*
X115827306Y-77274773D01*
X115861651Y-77201808D01*
X115904398Y-77102306D01*
X115952117Y-76985200D01*
X116001379Y-76859425D01*
X116048754Y-76733916D01*
X116090814Y-76617608D01*
X116124129Y-76519434D01*
X116145268Y-76448330D01*
X116150804Y-76413231D01*
X116150343Y-76412001D01*
X116131586Y-76383312D01*
X116089033Y-76320188D01*
X116027156Y-76229200D01*
X115950427Y-76116918D01*
X115863318Y-75989913D01*
X115838511Y-75953820D01*
X115750057Y-75822970D01*
X115672221Y-75703582D01*
X115609243Y-75602511D01*
X115565364Y-75526614D01*
X115544824Y-75482746D01*
X115543829Y-75477356D01*
X115561087Y-75449029D01*
X115608774Y-75392912D01*
X115680759Y-75315036D01*
X115770912Y-75221433D01*
X115873104Y-75118132D01*
X115981204Y-75011167D01*
X116089081Y-74906567D01*
X116190605Y-74810364D01*
X116279647Y-74728589D01*
X116350076Y-74667273D01*
X116395762Y-74632447D01*
X116408400Y-74626761D01*
X116437818Y-74640153D01*
G36*
X116437818Y-74640153D02*
G01*
X116498048Y-74676274D01*
X116579280Y-74729037D01*
X116641779Y-74771506D01*
X116755024Y-74849433D01*
X116889135Y-74941189D01*
X117023654Y-75032798D01*
X117095976Y-75081827D01*
X117340771Y-75247403D01*
X117546259Y-75136298D01*
X117639873Y-75087625D01*
X117719479Y-75049792D01*
X117773342Y-75028215D01*
X117787052Y-75025212D01*
X117803539Y-75047380D01*
X117836064Y-75110024D01*
X117882201Y-75207364D01*
X117939519Y-75333624D01*
X118005593Y-75483023D01*
X118077994Y-75649785D01*
X118154293Y-75828131D01*
X118232063Y-76012282D01*
X118308875Y-76196461D01*
X118382303Y-76374888D01*
X118449917Y-76541786D01*
X118509289Y-76691376D01*
X118557993Y-76817880D01*
X118593599Y-76915519D01*
X118613679Y-76978516D01*
X118616909Y-77000152D01*
X118591313Y-77027749D01*
X118535271Y-77072548D01*
X118460498Y-77125239D01*
X118454222Y-77129408D01*
X118260964Y-77284104D01*
X118105135Y-77464582D01*
X117988085Y-77665071D01*
X117911164Y-77879799D01*
X117875723Y-78102996D01*
X117883112Y-78328892D01*
X117934682Y-78551714D01*
X118031783Y-78765694D01*
X118060351Y-78812509D01*
X118208941Y-79001555D01*
X118384482Y-79153361D01*
X118580899Y-79267139D01*
X118792116Y-79342098D01*
X119012056Y-79377451D01*
X119234646Y-79372406D01*
X119453808Y-79326174D01*
X119663467Y-79237967D01*
X119857548Y-79106994D01*
X119917583Y-79053836D01*
X120070374Y-78887434D01*
X120181712Y-78712261D01*
X120258086Y-78515907D01*
X120300622Y-78321456D01*
X120311123Y-78102831D01*
X120276109Y-77883121D01*
X120199136Y-77669753D01*
X120083762Y-77470151D01*
X119933544Y-77291744D01*
X119752036Y-77141956D01*
X119728182Y-77126167D01*
X119652608Y-77074461D01*
X119595158Y-77029661D01*
X119567692Y-77001056D01*
X119567292Y-77000152D01*
X119573189Y-76969209D01*
X119596564Y-76898982D01*
X119634988Y-76795248D01*
X119686032Y-76663783D01*
X119747267Y-76510366D01*
X119816265Y-76340772D01*
X119890596Y-76160780D01*
X119967831Y-75976165D01*
X120045541Y-75792705D01*
X120121298Y-75616177D01*
X120192672Y-75452359D01*
X120257235Y-75307026D01*
X120312557Y-75185956D01*
X120356209Y-75094926D01*
X120385763Y-75039713D01*
X120397665Y-75025212D01*
X120434032Y-75036504D01*
X120502079Y-75066788D01*
X120590073Y-75110653D01*
X120638459Y-75136298D01*
X120843946Y-75247403D01*
X121088741Y-75081827D01*
X121213703Y-74997003D01*
X121350514Y-74903657D01*
X121478721Y-74815765D01*
X121542938Y-74771506D01*
X121633258Y-74710855D01*
X121709738Y-74662792D01*
X121762402Y-74633403D01*
X121779507Y-74627191D01*
X121804404Y-74643950D01*
X121859504Y-74690737D01*
X121939466Y-74762693D01*
X122038949Y-74854961D01*
X122152609Y-74962683D01*
X122224494Y-75031847D01*
X122350258Y-75155416D01*
X122458946Y-75265939D01*
X122546164Y-75358688D01*
X122607520Y-75428936D01*
X122638618Y-75471953D01*
X122641601Y-75480683D01*
X122627756Y-75513889D01*
X122589497Y-75581031D01*
X122531068Y-75675310D01*
X122456712Y-75789928D01*
X122370674Y-75918090D01*
X122346207Y-75953820D01*
X122257055Y-76083684D01*
X122177071Y-76200604D01*
X122110729Y-76298011D01*
X122062498Y-76369334D01*
X122036852Y-76408003D01*
X122034374Y-76412001D01*
X122038080Y-76442818D01*
X122057748Y-76510574D01*
X122089949Y-76606334D01*
X122131254Y-76721164D01*
X122178234Y-76846129D01*
X122227460Y-76972294D01*
X122275501Y-77090725D01*
X122318928Y-77192488D01*
X122354313Y-77268647D01*
X122378225Y-77310269D01*
X122379925Y-77312265D01*
X122394547Y-77324160D01*
X122419244Y-77335923D01*
X122459437Y-77348772D01*
X122520546Y-77363924D01*
X122607992Y-77382597D01*
X122727197Y-77406008D01*
X122883582Y-77435376D01*
X123082566Y-77471918D01*
X123125649Y-77479775D01*
X123253339Y-77504446D01*
X123364656Y-77528580D01*
X123449764Y-77549849D01*
X123498826Y-77565925D01*
X123505404Y-77569673D01*
X123516245Y-77602900D01*
X123525056Y-77677152D01*
X123531833Y-77783797D01*
X123536569Y-77914206D01*
X123539259Y-78059746D01*
X123539896Y-78211787D01*
X123538475Y-78361697D01*
X123534989Y-78500845D01*
X123529433Y-78620601D01*
X123521801Y-78712332D01*
X123512087Y-78767407D01*
X123506231Y-78778680D01*
X123473629Y-78790050D01*
X123399391Y-78808549D01*
X123290913Y-78832571D01*
X123155592Y-78860511D01*
X123000824Y-78890765D01*
X122916502Y-78906622D01*
X122756513Y-78936529D01*
X122613842Y-78963623D01*
X122495461Y-78986542D01*
X122408344Y-79003930D01*
X122359464Y-79014426D01*
X122351419Y-79016753D01*
X122337822Y-79042987D01*
X122309080Y-79106178D01*
X122269024Y-79197296D01*
X122221485Y-79307316D01*
X122170294Y-79427208D01*
X122119283Y-79547946D01*
X122072283Y-79660502D01*
X122033125Y-79755847D01*
X122005640Y-79824956D01*
X121993660Y-79858799D01*
X121993437Y-79860278D01*
X122007018Y-79886976D01*
X122045094Y-79948413D01*
X122103662Y-80038484D01*
X122178721Y-80151083D01*
X122266269Y-80280103D01*
X122317162Y-80354212D01*
X122409900Y-80490096D01*
X122492268Y-80613464D01*
X122560248Y-80718076D01*
X122609821Y-80797690D01*
X122636967Y-80846066D01*
X122640888Y-80856911D01*
X122624034Y-80882153D01*
X122577441Y-80936049D01*
X122507061Y-81012560D01*
X122418844Y-81105650D01*
X122318744Y-81209278D01*
X122212711Y-81317409D01*
X122106698Y-81424003D01*
X122006657Y-81523023D01*
X121918539Y-81608431D01*
X121848296Y-81674188D01*
X121801881Y-81714257D01*
X121786353Y-81723820D01*
X121761070Y-81710373D01*
X121700598Y-81672598D01*
X121610817Y-81614338D01*
X121497606Y-81539439D01*
X121366846Y-81451748D01*
X121268210Y-81384940D01*
X120769852Y-81046061D01*
X120354439Y-81217308D01*
X119939025Y-81388555D01*
X119826443Y-81985746D01*
X119713860Y-82582938D01*
X118470857Y-82582938D01*
X118358274Y-81985746D01*
X118245692Y-81388555D01*
X117830279Y-81217308D01*
X117414865Y-81046061D01*
X116916508Y-81384940D01*
X116776941Y-81479296D01*
X116650781Y-81563543D01*
X116543914Y-81633835D01*
X116462227Y-81686326D01*
X116411608Y-81717169D01*
X116397823Y-81723820D01*
X116372989Y-81706715D01*
X116319921Y-81659429D01*
X116244569Y-81588001D01*
X116152880Y-81498473D01*
X116050802Y-81396884D01*
X115944283Y-81289275D01*
X115839273Y-81181686D01*
X115741718Y-81080158D01*
X115657567Y-80990732D01*
X115592769Y-80919447D01*
X115553272Y-80872345D01*
X115543829Y-80856581D01*
X115557418Y-80827520D01*
X115595516Y-80763852D01*
X115654116Y-80671806D01*
X115729212Y-80557609D01*
X115816801Y-80427489D01*
X115867555Y-80353272D01*
X115960064Y-80217751D01*
X116042269Y-80095457D01*
X116110179Y-79992478D01*
X116159809Y-79914900D01*
X116187169Y-79868812D01*
X116191280Y-79859126D01*
X116181960Y-79831599D01*
X116156555Y-79767445D01*
X116118898Y-79675683D01*
X116072823Y-79565334D01*
X116022163Y-79445418D01*
X115970750Y-79324954D01*
X115922420Y-79212964D01*
X115881003Y-79118466D01*
X115850335Y-79050481D01*
X115834248Y-79018030D01*
X115833298Y-79016753D01*
X115808037Y-79010556D01*
X115740764Y-78996733D01*
X115638449Y-78976641D01*
X115508068Y-78951639D01*
X115356593Y-78923087D01*
X115268216Y-78906622D01*
X115106357Y-78875804D01*
X114960160Y-78846479D01*
X114837022Y-78820252D01*
X114744340Y-78798727D01*
X114689508Y-78783508D01*
X114678486Y-78778680D01*
X114667691Y-78745999D01*
X114658980Y-78672188D01*
X114652349Y-78565881D01*
X114647791Y-78435706D01*
X114645300Y-78290297D01*
X114644871Y-78138283D01*
X114646498Y-77988296D01*
X114650174Y-77848967D01*
X114655894Y-77728928D01*
X114663652Y-77636808D01*
X114673441Y-77581241D01*
X114679313Y-77569673D01*
X114714410Y-77555808D01*
X114788781Y-77535985D01*
X114892586Y-77512534D01*
X115015990Y-77487782D01*
X115059068Y-77479775D01*
X115266762Y-77441732D01*
X115430825Y-77411094D01*
X115556679Y-77386644D01*
X115649744Y-77367164D01*
X115715442Y-77351437D01*
X115759192Y-77338245D01*
X115786417Y-77326369D01*
X115802537Y-77314593D01*
X115804792Y-77312265D01*
X115827306Y-77274773D01*
X115861651Y-77201808D01*
X115904398Y-77102306D01*
X115952117Y-76985200D01*
X116001379Y-76859425D01*
X116048754Y-76733916D01*
X116090814Y-76617608D01*
X116124129Y-76519434D01*
X116145268Y-76448330D01*
X116150804Y-76413231D01*
X116150343Y-76412001D01*
X116131586Y-76383312D01*
X116089033Y-76320188D01*
X116027156Y-76229200D01*
X115950427Y-76116918D01*
X115863318Y-75989913D01*
X115838511Y-75953820D01*
X115750057Y-75822970D01*
X115672221Y-75703582D01*
X115609243Y-75602511D01*
X115565364Y-75526614D01*
X115544824Y-75482746D01*
X115543829Y-75477356D01*
X115561087Y-75449029D01*
X115608774Y-75392912D01*
X115680759Y-75315036D01*
X115770912Y-75221433D01*
X115873104Y-75118132D01*
X115981204Y-75011167D01*
X116089081Y-74906567D01*
X116190605Y-74810364D01*
X116279647Y-74728589D01*
X116350076Y-74667273D01*
X116395762Y-74632447D01*
X116408400Y-74626761D01*
X116437818Y-74640153D01*
G37*
D11*
%TO.C,J8*%
X167160299Y-58834553D02*
X169700299Y-58834553D01*
X167160299Y-53754553D02*
X169700299Y-53754553D01*
X167160299Y-51214553D02*
X169700299Y-51214553D01*
X169700299Y-51214553D02*
X169700299Y-63904553D01*
X169700299Y-63904553D02*
X167160299Y-63904553D01*
X167160299Y-63904553D02*
X167160299Y-51214553D01*
%TO.C,U1*%
X124185236Y-69444850D02*
X123685236Y-68944850D01*
X124685236Y-68944850D02*
X123685236Y-68944850D01*
X124685236Y-68944850D02*
X124185236Y-69444850D01*
D10*
%TO.C,J4*%
X132020236Y-64594850D02*
X132020236Y-87454850D01*
X134560236Y-87454850D02*
X134560236Y-64594850D01*
D11*
%TO.C,J14*%
X171190299Y-58834553D02*
X173730299Y-58834553D01*
X171190299Y-53754553D02*
X173730299Y-53754553D01*
X171190299Y-51214553D02*
X173730299Y-51214553D01*
X173730299Y-51214553D02*
X173730299Y-63914553D01*
X173730299Y-63914553D02*
X171190299Y-63914553D01*
X171190299Y-63914553D02*
X171190299Y-51214553D01*
%TO.C,J7*%
X159530299Y-61374553D02*
X167150299Y-61374553D01*
X167150299Y-61374553D02*
X167150299Y-58834553D01*
X167150299Y-58834553D02*
X159530299Y-58834553D01*
X159530299Y-58834553D02*
X159530299Y-61374553D01*
%TO.C,J3*%
X159530299Y-73784553D02*
X167150299Y-73784553D01*
X167150299Y-73784553D02*
X167150299Y-71244553D01*
X167150299Y-71244553D02*
X159530299Y-71244553D01*
X159530299Y-71244553D02*
X159530299Y-73784553D01*
%TO.C,J13*%
X159530299Y-65504553D02*
X167150299Y-65504553D01*
X167150299Y-65504553D02*
X167150299Y-62964553D01*
X167150299Y-62964553D02*
X159530299Y-62964553D01*
X159530299Y-62964553D02*
X159530299Y-65504553D01*
%TO.C,J19*%
X171190299Y-64724553D02*
X173730299Y-64724553D01*
X173730299Y-64724553D02*
X173730299Y-74884553D01*
X173730299Y-74884553D02*
X171190299Y-74884553D01*
X171190299Y-74884553D02*
X171190299Y-64724553D01*
%TO.C,J21*%
X167150299Y-64724553D02*
X169690299Y-64724553D01*
X169690299Y-64724553D02*
X169690299Y-74884553D01*
X169690299Y-74884553D02*
X167150299Y-74884553D01*
X167150299Y-74884553D02*
X167150299Y-64724553D01*
D10*
%TO.C,J5*%
X129480236Y-64594850D02*
X129480236Y-87454850D01*
D11*
%TO.C,J22*%
X192985000Y-83074850D02*
X193985000Y-83074850D01*
X192985000Y-83074850D02*
X193485000Y-82574850D01*
X193485000Y-82574850D02*
X193985000Y-83074850D01*
%TO.C,J6*%
X126710236Y-54884850D02*
X127710236Y-54884850D01*
X126710236Y-54884850D02*
X127210236Y-54384850D01*
X127210236Y-54384850D02*
X127710236Y-54884850D01*
D10*
X115780236Y-54114850D02*
X115780236Y-51574850D01*
X128480236Y-54114850D02*
X115780236Y-54114850D01*
X115780236Y-51574850D02*
X128480236Y-51574850D01*
X128480236Y-51574850D02*
X128480236Y-54114850D01*
D11*
%TO.C,J15*%
X159530299Y-69644553D02*
X167150299Y-69644553D01*
X167150299Y-69644553D02*
X167150299Y-67104553D01*
X167150299Y-67104553D02*
X159530299Y-67104553D01*
X159530299Y-67104553D02*
X159530299Y-69644553D01*
%TD*%
M02*
