M48
; DRILL file {KiCad 7.0.5} date Wed Jan 24 21:19:43 2024
; FORMAT={-:-/ absolute / metric / decimal}
; #@! TF.CreationDate,2024-01-24T21:19:43+08:00
; #@! TF.GenerationSoftware,Kicad,Pcbnew,7.0.5
; #@! TF.FileFunction,Plated,1,2,PTH
FMAT,2
METRIC
; #@! TA.AperFunction,Plated,PTH,ViaDrill
T1C0.400
; #@! TA.AperFunction,Plated,PTH,ComponentDrill
T2C0.800
; #@! TA.AperFunction,Plated,PTH,ComponentDrill
T3C0.900
; #@! TA.AperFunction,Plated,PTH,ComponentDrill
T4C1.000
; #@! TA.AperFunction,Plated,PTH,ComponentDrill
T5C1.092
%
G90
G05
T1
X93.062Y-89.691
X95.172Y-87.196
X96.031Y-59.994
X98.542Y-83.446
X99.401Y-56.244
X101.511Y-53.749
X139.43Y-72.965
X141.77Y-85.295
X144.31Y-71.695
X144.31Y-74.295
X148.89Y-76.175
X159.73Y-70.475
X162.07Y-58.125
X164.61Y-69.145
X164.61Y-71.745
X169.19Y-67.265
T2
X92.111Y-64.599
X94.862Y-78.841
X99.711Y-64.599
X102.462Y-78.841
T4
X89.892Y-84.691
X89.892Y-87.191
X89.892Y-89.691
X90.181Y-53.749
X90.181Y-58.749
X92.322Y-78.841
X94.641Y-47.005
X94.641Y-67.519
X94.852Y-75.921
X94.852Y-96.435
X97.181Y-47.005
X97.181Y-67.519
X97.392Y-75.921
X97.392Y-96.435
X99.721Y-47.005
X99.721Y-67.519
X99.932Y-75.921
X99.932Y-96.435
X102.251Y-64.599
X104.392Y-84.691
X104.392Y-89.691
X104.681Y-53.749
X104.681Y-56.249
X104.681Y-58.749
X111.43Y-63.325
X111.43Y-65.865
X111.43Y-68.405
X114.025Y-63.325
X116.565Y-63.325
X117.05Y-52.845
X119.105Y-63.325
X119.59Y-52.845
X121.645Y-63.325
X122.13Y-52.845
X124.185Y-63.325
X124.67Y-52.845
X126.78Y-63.325
X126.78Y-65.865
X126.78Y-68.405
X127.21Y-52.845
X130.75Y-58.245
X130.75Y-60.785
X130.75Y-63.325
X130.75Y-65.865
X130.75Y-68.405
X130.75Y-70.945
X130.75Y-73.485
X130.75Y-76.025
X130.75Y-78.565
X130.75Y-81.105
X130.75Y-83.645
X130.75Y-86.185
X133.29Y-58.245
X133.29Y-60.785
X133.29Y-63.325
X133.29Y-65.865
X133.29Y-68.405
X133.29Y-70.945
X133.29Y-73.485
X133.29Y-76.025
X133.29Y-78.565
X133.29Y-81.105
X133.29Y-83.645
X133.29Y-86.185
X140.5Y-70.925
X140.5Y-75.065
X140.5Y-79.205
X140.5Y-83.335
X140.5Y-88.415
X140.5Y-90.955
X140.51Y-52.485
X140.51Y-55.025
X140.51Y-57.565
X140.51Y-61.705
X140.51Y-64.245
X140.51Y-66.785
X143.04Y-70.925
X143.04Y-75.065
X143.04Y-79.205
X143.04Y-83.335
X143.04Y-88.415
X143.04Y-90.955
X143.05Y-52.485
X143.05Y-55.025
X143.05Y-57.565
X143.05Y-61.705
X143.05Y-64.245
X143.05Y-66.785
X145.58Y-70.925
X145.58Y-75.065
X145.58Y-79.205
X145.58Y-83.335
X145.59Y-52.485
X145.59Y-55.025
X145.59Y-57.565
X145.59Y-61.705
X145.59Y-64.245
X145.59Y-66.785
X148.12Y-69.825
X148.12Y-72.365
X148.12Y-74.905
X148.12Y-77.445
X148.13Y-52.485
X148.13Y-55.025
X148.13Y-57.565
X148.13Y-61.705
X148.13Y-64.245
X148.13Y-66.785
X148.13Y-80.795
X148.13Y-83.335
X148.13Y-85.875
X148.13Y-88.415
X148.13Y-90.955
X150.67Y-52.485
X150.67Y-55.025
X150.67Y-57.565
X150.67Y-61.705
X150.67Y-64.245
X150.67Y-66.785
X152.16Y-69.825
X152.16Y-72.365
X152.16Y-74.905
X152.16Y-77.445
X152.16Y-80.795
X152.16Y-83.335
X152.16Y-85.875
X152.16Y-88.415
X152.16Y-90.955
X153.21Y-52.485
X153.21Y-55.025
X153.21Y-57.565
X153.21Y-61.705
X153.21Y-64.245
X153.21Y-66.785
X160.8Y-52.485
X160.8Y-55.025
X160.8Y-60.105
X160.8Y-64.235
X160.8Y-68.375
X160.8Y-72.515
X160.81Y-76.655
X160.81Y-79.195
X160.81Y-81.735
X160.81Y-85.875
X160.81Y-88.415
X160.81Y-90.955
X163.34Y-52.485
X163.34Y-55.025
X163.34Y-60.105
X163.34Y-64.235
X163.34Y-68.375
X163.34Y-72.515
X163.35Y-76.655
X163.35Y-79.195
X163.35Y-81.735
X163.35Y-85.875
X163.35Y-88.415
X163.35Y-90.955
X165.88Y-60.105
X165.88Y-64.235
X165.88Y-68.375
X165.88Y-72.515
X165.89Y-76.655
X165.89Y-79.195
X165.89Y-81.735
X165.89Y-85.875
X165.89Y-88.415
X165.89Y-90.955
X168.42Y-65.995
X168.42Y-68.535
X168.42Y-71.075
X168.42Y-73.615
X168.43Y-52.485
X168.43Y-55.025
X168.43Y-57.565
X168.43Y-60.105
X168.43Y-62.645
X168.43Y-76.655
X168.43Y-79.195
X168.43Y-81.735
X168.43Y-85.875
X168.43Y-88.415
X168.43Y-90.955
X170.97Y-76.655
X170.97Y-79.195
X170.97Y-81.735
X170.97Y-85.875
X170.97Y-88.415
X170.97Y-90.955
X172.46Y-52.485
X172.46Y-55.025
X172.46Y-57.565
X172.46Y-60.105
X172.46Y-62.645
X172.46Y-65.995
X172.46Y-68.535
X172.46Y-71.075
X172.46Y-73.615
X173.51Y-76.655
X173.51Y-79.195
X173.51Y-81.735
X173.51Y-85.875
X173.51Y-88.415
X173.51Y-90.955
X180.73Y-76.025
X180.73Y-78.565
X180.73Y-81.105
X183.325Y-81.105
X185.865Y-81.105
X186.35Y-91.585
X188.405Y-81.105
X188.89Y-91.585
X190.945Y-81.105
X191.43Y-91.585
X193.485Y-81.105
X193.97Y-91.585
X196.08Y-76.025
X196.08Y-78.565
X196.08Y-81.105
X196.51Y-91.585
X200.05Y-58.245
X200.05Y-60.785
X200.05Y-63.325
X200.05Y-65.865
X200.05Y-68.405
X200.05Y-70.945
X200.05Y-73.485
X200.05Y-76.025
X200.05Y-78.565
X200.05Y-81.105
X200.05Y-83.645
X200.05Y-86.185
X202.59Y-58.245
X202.59Y-60.785
X202.59Y-63.325
X202.59Y-65.865
X202.59Y-68.405
X202.59Y-70.945
X202.59Y-73.485
X202.59Y-76.025
X202.59Y-78.565
X202.59Y-81.105
X202.59Y-83.645
X202.59Y-86.185
X209.28Y-85.752
X209.28Y-88.292
X209.28Y-90.832
X220.896Y-52.608
X220.896Y-55.148
X220.896Y-57.688
T5
X111.43Y-70.945
X111.43Y-73.485
X111.43Y-76.025
X111.43Y-78.565
X111.43Y-81.105
X111.43Y-83.645
X111.43Y-86.185
X111.43Y-88.725
X111.43Y-91.265
X114.025Y-70.945
X116.565Y-70.945
X119.105Y-70.945
X121.645Y-70.945
X124.185Y-70.945
X126.78Y-70.945
X126.78Y-73.485
X126.78Y-76.025
X126.78Y-78.565
X126.78Y-81.105
X126.78Y-83.645
X126.78Y-86.185
X126.78Y-88.725
X126.78Y-91.265
X180.73Y-53.165
X180.73Y-55.705
X180.73Y-58.245
X180.73Y-60.785
X180.73Y-63.325
X180.73Y-65.865
X180.73Y-68.405
X180.73Y-70.945
X180.73Y-73.485
X183.325Y-73.485
X185.865Y-73.485
X188.405Y-73.485
X190.945Y-73.485
X193.485Y-73.485
X196.08Y-53.165
X196.08Y-55.705
X196.08Y-58.245
X196.08Y-60.785
X196.08Y-63.325
X196.08Y-65.865
X196.08Y-68.405
X196.08Y-70.945
X196.08Y-73.485
T3
X209.238Y-48.837G85X209.238Y-49.237
G05
X209.238Y-51.885G85X209.238Y-52.285
G05
X209.238Y-55.885G85X209.238Y-56.285
G05
X211.238Y-56.985G85X211.238Y-57.385
G05
X213.838Y-56.985G85X213.838Y-57.385
G05
X214.338Y-87.555G85X214.338Y-87.155
G05
X214.338Y-91.555G85X214.338Y-91.155
G05
X214.338Y-94.603G85X214.338Y-94.203
G05
X215.838Y-48.837G85X215.838Y-49.237
G05
X215.838Y-51.885G85X215.838Y-52.285
G05
X215.838Y-55.885G85X215.838Y-56.285
G05
X216.338Y-86.455G85X216.338Y-86.055
G05
X218.938Y-86.455G85X218.938Y-86.055
G05
X220.938Y-87.555G85X220.938Y-87.155
G05
X220.938Y-91.555G85X220.938Y-91.155
G05
X220.938Y-94.603G85X220.938Y-94.203
G05
T0
M30
